<?xml version="1.0" encoding="UTF-8" ?>
<!DOCTYPE svg PUBLIC "-//W3C//DTD SVG 1.1//EN" "http://www.w3.org/Graphics/SVG/1.1/DTD/svg11.dtd">
<svg width="287pt" height="287pt" viewBox="0 0 287 287" version="1.1" xmlns="http://www.w3.org/2000/svg">
<g xmlns="http://www.w3.org/2000/svg" class="sprite" id="black">
<g id="#000000ff">
<path fill="#000000" opacity="1.00" d=" M 0.00 0.00 L 73.50 0.00 C 73.49 7.00 73.52 14.00 73.49 21.00 C 56.00 21.01 38.50 20.99 21.01 21.00 C 20.98 36.17 21.03 51.34 20.98 66.51 C 13.99 66.50 6.99 66.50 0.00 66.50 L 0.00 0.00 Z" />
<path fill="#000000" opacity="1.00" d=" M 94.50 0.00 L 157.50 0.00 C 157.50 6.99 157.50 13.99 157.51 20.98 C 136.51 21.03 115.51 20.99 94.51 21.00 C 94.48 14.00 94.51 7.00 94.50 0.00 Z" />
<path fill="#000000" opacity="1.00" d=" M 178.50 0.00 L 241.50 0.00 C 241.50 6.99 241.50 13.99 241.51 20.98 C 220.51 21.03 199.51 20.98 178.52 21.00 C 178.47 14.00 178.51 7.00 178.50 0.00 Z" />
<path fill="#000000" opacity="1.00" d=" M 262.50 0.00 L 287.00 0.00 L 287.00 59.50 C 280.00 59.49 273.00 59.52 266.00 59.49 C 266.00 46.67 266.00 33.85 266.00 21.03 C 264.83 21.01 263.66 20.98 262.49 20.95 C 262.50 13.97 262.49 6.98 262.50 0.00 Z" />
<path fill="#000000" opacity="1.00" d=" M 266.02 80.49 C 273.01 80.50 280.01 80.50 287.00 80.50 L 287.00 143.50 C 280.01 143.50 273.01 143.50 266.02 143.51 C 265.99 122.50 265.99 101.50 266.02 80.49 Z" />
<path fill="#000000" opacity="1.00" d=" M 0.00 87.50 C 6.99 87.50 13.99 87.50 20.98 87.49 C 21.01 108.50 21.02 129.50 20.98 150.51 C 13.98 150.50 6.99 150.50 0.00 150.50 L 0.00 87.50 Z" />
<path fill="#000000" opacity="1.00" d=" M 131.14 94.08 C 138.09 91.90 145.64 93.88 151.98 97.01 C 160.65 101.40 166.20 110.16 168.85 119.27 C 173.19 134.06 173.51 149.62 173.87 164.92 C 173.93 179.61 174.09 194.31 173.86 209.00 C 153.46 209.00 133.05 209.00 112.65 209.00 C 111.41 193.07 110.63 177.10 111.16 161.12 C 111.67 144.95 111.95 128.49 116.57 112.86 C 118.94 105.23 123.08 96.91 131.14 94.08 M 136.18 103.24 C 130.88 103.53 125.82 106.90 124.34 112.12 C 122.00 120.91 122.73 130.59 126.38 138.92 C 128.45 143.84 133.93 146.00 138.97 145.95 C 144.89 145.97 151.54 146.40 156.59 142.75 C 161.96 138.17 162.21 130.46 161.93 123.96 C 161.90 118.18 161.65 111.30 156.63 107.46 C 150.73 103.42 143.12 102.85 136.18 103.24 Z" />
<path fill="#000000" opacity="1.00" d=" M 266.12 164.43 C 273.08 164.57 280.04 164.47 287.00 164.50 L 287.00 227.50 C 280.01 227.50 273.01 227.50 266.02 227.51 C 266.05 206.48 265.85 185.45 266.12 164.43 Z" />
<path fill="#000000" opacity="1.00" d=" M 0.00 171.50 C 6.99 171.50 13.99 171.50 20.98 171.49 C 20.97 192.51 21.10 213.53 20.92 234.54 C 13.94 234.46 6.97 234.52 0.00 234.50 L 0.00 171.50 Z" />
<path fill="#000000" opacity="1.00" d=" M 266.02 248.49 C 273.01 248.50 280.01 248.50 287.00 248.50 L 287.00 287.00 L 241.50 287.00 C 241.50 280.01 241.50 273.01 241.49 266.02 C 249.66 265.97 257.83 266.02 266.00 265.99 C 266.02 260.16 265.97 254.33 266.02 248.49 Z" />
<path fill="#000000" opacity="1.00" d=" M 0.00 255.50 C 7.01 255.55 14.02 255.40 21.03 255.57 C 20.99 259.05 20.99 262.52 21.01 265.99 C 31.50 266.01 41.99 265.99 52.49 266.00 C 52.52 273.00 52.49 280.00 52.50 287.00 L 0.00 287.00 L 0.00 255.50 Z" />
<path fill="#000000" opacity="1.00" d=" M 73.50 266.02 C 86.00 265.98 98.50 266.01 111.00 266.00 C 119.50 266.00 128.01 266.00 136.51 266.00 C 136.49 273.00 136.51 280.00 136.50 287.00 L 73.50 287.00 C 73.50 280.00 73.50 273.01 73.50 266.02 Z" />
<path fill="#000000" opacity="1.00" d=" M 157.49 266.00 C 162.99 266.00 168.50 266.00 174.00 266.00 C 189.50 266.01 205.00 265.97 220.51 266.02 C 220.50 273.01 220.50 280.01 220.50 287.00 L 157.50 287.00 C 157.49 280.00 157.50 273.00 157.49 266.00 Z" />
</g>
<g id="#808080ff">
<path fill="#808080" opacity="1.00" d=" M 122.08 59.10 C 134.22 53.61 148.24 52.65 161.11 55.98 C 176.70 60.05 190.38 70.87 197.94 85.10 C 204.60 97.30 206.62 111.96 203.56 125.51 C 202.70 119.62 202.40 113.53 199.94 108.02 C 194.59 95.16 183.05 85.76 170.31 80.74 C 153.54 74.20 134.15 74.43 117.63 81.62 C 106.95 86.45 97.16 94.10 91.63 104.63 C 89.37 108.87 88.12 113.56 87.13 118.24 C 86.72 109.39 87.57 100.35 90.86 92.06 C 96.36 77.53 107.88 65.39 122.08 59.10 Z" />
</g>
<g id="#a6a6a6ff">
<path fill="#a6a6a6" opacity="1.00" d=" M 117.63 81.62 C 134.15 74.43 153.54 74.20 170.31 80.74 C 183.05 85.76 194.59 95.16 199.94 108.02 C 202.40 113.53 202.70 119.62 203.56 125.51 C 202.13 133.13 199.56 140.67 194.91 146.95 C 189.37 154.43 181.96 160.39 173.87 164.92 C 173.51 149.62 173.19 134.06 168.85 119.27 C 166.20 110.16 160.65 101.40 151.98 97.01 C 145.64 93.88 138.09 91.90 131.14 94.08 C 123.08 96.91 118.94 105.23 116.57 112.86 C 111.95 128.49 111.67 144.95 111.16 161.12 C 106.18 157.78 101.08 154.44 97.30 149.70 C 89.77 141.16 86.10 129.57 87.13 118.24 C 88.12 113.56 89.37 108.87 91.63 104.63 C 97.16 94.10 106.95 86.45 117.63 81.62 Z" />
</g>
<g id="#ffffffff">
<path fill="#ffffff" opacity="1.00" d=" M 136.18 103.24 C 143.12 102.85 150.73 103.42 156.63 107.46 C 161.65 111.30 161.90 118.18 161.93 123.96 C 162.21 130.46 161.96 138.17 156.59 142.75 C 151.54 146.40 144.89 145.97 138.97 145.95 C 133.93 146.00 128.45 143.84 126.38 138.92 C 122.73 130.59 122.00 120.91 124.34 112.12 C 125.82 106.90 130.88 103.53 136.18 103.24 Z" />
</g>
</g>
<g xmlns="http://www.w3.org/2000/svg" class="sprite" id="white">
<g id="#ffffffff">
<path fill="#ffffff" opacity="1.00" d=" M 0.00 0.00 L 73.50 0.00 C 73.49 7.00 73.52 14.00 73.49 21.00 C 56.00 21.01 38.50 20.99 21.01 21.00 C 20.98 36.17 21.03 51.34 20.98 66.51 C 13.99 66.50 6.99 66.50 0.00 66.50 L 0.00 0.00 Z" />
<path fill="#ffffff" opacity="1.00" d=" M 94.50 0.00 L 157.50 0.00 C 157.50 6.99 157.50 13.99 157.51 20.98 C 136.51 21.03 115.51 20.99 94.51 21.00 C 94.48 14.00 94.51 7.00 94.50 0.00 Z" />
<path fill="#ffffff" opacity="1.00" d=" M 178.50 0.00 L 241.50 0.00 C 241.50 6.99 241.50 13.99 241.51 20.98 C 220.51 21.03 199.51 20.98 178.52 21.00 C 178.47 14.00 178.51 7.00 178.50 0.00 Z" />
<path fill="#ffffff" opacity="1.00" d=" M 262.50 0.00 L 287.00 0.00 L 287.00 59.50 C 280.00 59.49 273.00 59.52 266.00 59.49 C 266.00 46.67 266.00 33.85 266.00 21.03 C 264.83 21.01 263.66 20.98 262.49 20.95 C 262.50 13.97 262.49 6.98 262.50 0.00 Z" />
<path fill="#ffffff" opacity="1.00" d=" M 266.02 80.49 C 273.01 80.50 280.01 80.50 287.00 80.50 L 287.00 143.50 C 280.01 143.50 273.01 143.50 266.02 143.51 C 265.99 122.50 265.99 101.50 266.02 80.49 Z" />
<path fill="#ffffff" opacity="1.00" d=" M 0.00 87.50 C 6.99 87.50 13.99 87.50 20.98 87.49 C 21.01 108.50 21.02 129.50 20.98 150.51 C 13.98 150.50 6.99 150.50 0.00 150.50 L 0.00 87.50 Z" />
<path fill="#ffffff" opacity="1.00" d=" M 131.14 94.08 C 138.09 91.90 145.64 93.88 151.98 97.01 C 160.65 101.40 166.20 110.16 168.85 119.27 C 173.19 134.06 173.51 149.62 173.87 164.92 C 173.93 179.61 174.09 194.31 173.86 209.00 C 153.46 209.00 133.05 209.00 112.65 209.00 C 111.41 193.07 110.63 177.10 111.16 161.12 C 111.67 144.95 111.95 128.49 116.57 112.86 C 118.94 105.23 123.08 96.91 131.14 94.08 M 136.18 103.24 C 130.88 103.53 125.82 106.90 124.34 112.12 C 122.00 120.91 122.73 130.59 126.38 138.92 C 128.45 143.84 133.93 146.00 138.97 145.95 C 144.89 145.97 151.54 146.40 156.59 142.75 C 161.96 138.17 162.21 130.46 161.93 123.96 C 161.90 118.18 161.65 111.30 156.63 107.46 C 150.73 103.42 143.12 102.85 136.18 103.24 Z" />
<path fill="#ffffff" opacity="1.00" d=" M 266.12 164.43 C 273.08 164.57 280.04 164.47 287.00 164.50 L 287.00 227.50 C 280.01 227.50 273.01 227.50 266.02 227.51 C 266.05 206.48 265.85 185.45 266.12 164.43 Z" />
<path fill="#ffffff" opacity="1.00" d=" M 0.00 171.50 C 6.99 171.50 13.99 171.50 20.98 171.49 C 20.97 192.51 21.10 213.53 20.92 234.54 C 13.94 234.46 6.97 234.52 0.00 234.50 L 0.00 171.50 Z" />
<path fill="#ffffff" opacity="1.00" d=" M 266.02 248.49 C 273.01 248.50 280.01 248.50 287.00 248.50 L 287.00 287.00 L 241.50 287.00 C 241.50 280.01 241.50 273.01 241.49 266.02 C 249.66 265.97 257.83 266.02 266.00 265.99 C 266.02 260.16 265.97 254.33 266.02 248.49 Z" />
<path fill="#ffffff" opacity="1.00" d=" M 0.00 255.50 C 7.01 255.55 14.02 255.40 21.03 255.57 C 20.99 259.05 20.99 262.52 21.01 265.99 C 31.50 266.01 41.99 265.99 52.49 266.00 C 52.52 273.00 52.49 280.00 52.50 287.00 L 0.00 287.00 L 0.00 255.50 Z" />
<path fill="#ffffff" opacity="1.00" d=" M 73.50 266.02 C 86.00 265.98 98.50 266.01 111.00 266.00 C 119.50 266.00 128.01 266.00 136.51 266.00 C 136.49 273.00 136.51 280.00 136.50 287.00 L 73.50 287.00 C 73.50 280.00 73.50 273.01 73.50 266.02 Z" />
<path fill="#ffffff" opacity="1.00" d=" M 157.49 266.00 C 162.99 266.00 168.50 266.00 174.00 266.00 C 189.50 266.01 205.00 265.97 220.51 266.02 C 220.50 273.01 220.50 280.01 220.50 287.00 L 157.50 287.00 C 157.49 280.00 157.50 273.00 157.49 266.00 Z" />
</g>
<g id="#808080ff">
<path fill="#808080" opacity="1.00" d=" M 122.08 59.10 C 134.22 53.61 148.24 52.65 161.11 55.98 C 176.70 60.05 190.38 70.87 197.94 85.10 C 204.60 97.30 206.62 111.96 203.56 125.51 C 202.70 119.62 202.40 113.53 199.94 108.02 C 194.59 95.16 183.05 85.76 170.31 80.74 C 153.54 74.20 134.15 74.43 117.63 81.62 C 106.95 86.45 97.16 94.10 91.63 104.63 C 89.37 108.87 88.12 113.56 87.13 118.24 C 86.72 109.39 87.57 100.35 90.86 92.06 C 96.36 77.53 107.88 65.39 122.08 59.10 Z" />
</g>
<g id="#a6a6a6ff">
<path fill="#a6a6a6" opacity="1.00" d=" M 117.63 81.62 C 134.15 74.43 153.54 74.20 170.31 80.74 C 183.05 85.76 194.59 95.16 199.94 108.02 C 202.40 113.53 202.70 119.62 203.56 125.51 C 202.13 133.13 199.56 140.67 194.91 146.95 C 189.37 154.43 181.96 160.39 173.87 164.92 C 173.51 149.62 173.19 134.06 168.85 119.27 C 166.20 110.16 160.65 101.40 151.98 97.01 C 145.64 93.88 138.09 91.90 131.14 94.08 C 123.08 96.91 118.94 105.23 116.57 112.86 C 111.95 128.49 111.67 144.95 111.16 161.12 C 106.18 157.78 101.08 154.44 97.30 149.70 C 89.77 141.16 86.10 129.57 87.13 118.24 C 88.12 113.56 89.37 108.87 91.63 104.63 C 97.16 94.10 106.95 86.45 117.63 81.62 Z" />
</g>
<g id="#ffffffff">
<path fill="#ffffff" opacity="1.00" d=" M 136.18 103.24 C 143.12 102.85 150.73 103.42 156.63 107.46 C 161.65 111.30 161.90 118.18 161.93 123.96 C 162.21 130.46 161.96 138.17 156.59 142.75 C 151.54 146.40 144.89 145.97 138.97 145.95 C 133.93 146.00 128.45 143.84 126.38 138.92 C 122.73 130.59 122.00 120.91 124.34 112.12 C 125.82 106.90 130.88 103.53 136.18 103.24 Z" />
</g>
</g>
<defs xmlns="http://www.w3.org/2000/svg">
    <style><![CDATA[
        .sprite { display: none; }
        .sprite:target { display: inline; }
    ]]></style>
</defs>
</svg>
