<?xml version="1.0" encoding="UTF-8" ?>
<!DOCTYPE svg PUBLIC "-//W3C//DTD SVG 1.1//EN" "http://www.w3.org/Graphics/SVG/1.1/DTD/svg11.dtd">
<svg width="287pt" height="287pt" viewBox="0 0 287 287" version="1.1" xmlns="http://www.w3.org/2000/svg">
<g xmlns="http://www.w3.org/2000/svg" class="sprite" id="black">
<g id="#000000ff">
<path fill="#000000" opacity="1.00" d=" M 0.00 0.00 L 73.50 0.00 C 73.50 6.99 73.50 13.98 73.51 20.98 C 56.01 21.04 38.51 20.98 21.01 21.00 C 20.98 36.17 21.03 51.34 20.98 66.51 C 13.99 66.50 6.99 66.50 0.00 66.50 L 0.00 0.00 Z" />
<path fill="#000000" opacity="1.00" d=" M 94.50 0.00 L 157.50 0.00 C 157.49 7.00 157.53 14.00 157.48 21.00 C 136.48 20.98 115.49 21.04 94.49 20.97 C 94.50 13.98 94.50 6.99 94.50 0.00 Z" />
<path fill="#000000" opacity="1.00" d=" M 178.50 0.00 L 241.50 0.00 C 241.51 6.99 241.49 13.98 241.52 20.97 C 220.51 21.03 199.50 21.01 178.49 20.98 C 178.50 13.98 178.50 6.99 178.50 0.00 Z" />
<path fill="#000000" opacity="1.00" d=" M 262.50 0.00 L 287.00 0.00 L 287.00 59.50 C 280.01 59.50 273.02 59.50 266.02 59.51 C 265.97 46.69 266.02 33.86 266.00 21.04 C 264.83 21.01 263.65 20.98 262.49 20.95 C 262.51 13.97 262.49 6.98 262.50 0.00 Z" />
<path fill="#000000" opacity="1.00" d=" M 85.56 59.71 C 93.90 57.98 102.98 60.02 109.63 65.37 C 117.66 71.54 122.02 82.09 120.66 92.13 C 119.44 103.48 110.87 113.58 99.89 116.67 C 90.46 119.56 79.66 117.24 72.26 110.72 C 64.66 104.27 60.82 93.78 62.46 83.94 C 64.15 72.11 73.84 61.99 85.56 59.71 Z" />
<path fill="#000000" opacity="1.00" d=" M 266.13 80.42 C 273.08 80.59 280.04 80.46 287.00 80.50 L 287.00 143.50 C 280.01 143.50 273.02 143.50 266.02 143.51 C 266.05 122.48 265.84 101.44 266.13 80.42 Z" />
<path fill="#000000" opacity="1.00" d=" M 0.00 87.50 C 7.00 87.51 14.00 87.48 21.00 87.51 C 20.98 108.51 21.05 129.52 20.97 150.52 C 13.98 150.49 6.99 150.51 0.00 150.50 L 0.00 87.50 Z" />
<path fill="#000000" opacity="1.00" d=" M 190.51 94.63 C 197.83 92.47 204.42 97.82 209.61 102.30 C 220.66 112.49 229.49 124.80 237.63 137.37 C 248.37 153.75 257.66 171.04 266.00 188.75 C 266.02 180.66 265.97 172.58 266.02 164.49 C 273.01 164.50 280.01 164.50 287.00 164.50 L 287.00 227.50 C 285.13 227.50 283.26 227.49 281.40 227.49 C 283.88 234.62 284.90 242.13 287.00 249.35 L 287.00 287.00 L 241.50 287.00 C 241.49 280.33 241.51 273.67 241.49 267.01 C 234.50 266.99 227.50 266.99 220.51 267.01 C 220.49 273.67 220.51 280.33 220.50 287.00 L 157.50 287.00 C 157.49 280.33 157.51 273.67 157.49 267.01 C 150.50 267.00 143.50 266.99 136.51 267.01 C 136.49 273.67 136.51 280.33 136.50 287.00 L 73.50 287.00 C 73.50 280.01 73.50 273.02 73.49 266.03 C 83.16 265.97 92.84 266.00 102.52 266.01 C 100.70 260.84 100.90 255.29 101.49 249.93 C 102.76 240.53 105.24 231.32 108.43 222.41 C 114.61 204.16 122.68 186.63 131.52 169.54 C 142.74 148.80 154.86 128.33 170.37 110.47 C 176.17 104.23 182.24 97.49 190.51 94.63 Z" />
<path fill="#000000" opacity="1.00" d=" M 0.00 171.50 C 6.99 171.50 13.98 171.50 20.98 171.49 C 21.01 192.50 21.02 213.50 20.98 234.51 C 13.98 234.50 6.99 234.50 0.00 234.50 L 0.00 171.50 Z" />
<path fill="#000000" opacity="1.00" d=" M 0.00 255.50 C 6.99 255.49 13.98 255.50 20.97 255.49 C 21.00 258.99 21.01 262.49 21.00 266.00 C 31.50 266.02 42.01 265.96 52.51 266.02 C 52.50 273.01 52.50 280.01 52.50 287.00 L 0.00 287.00 L 0.00 255.50 Z" />
</g>
</g>
<g xmlns="http://www.w3.org/2000/svg" class="sprite" id="white">
<g id="#ffffffff">
<path fill="#ffffff" opacity="1.00" d=" M 0.00 0.00 L 73.50 0.00 C 73.50 6.99 73.50 13.98 73.51 20.98 C 56.01 21.04 38.51 20.98 21.01 21.00 C 20.98 36.17 21.03 51.34 20.98 66.51 C 13.99 66.50 6.99 66.50 0.00 66.50 L 0.00 0.00 Z" />
<path fill="#ffffff" opacity="1.00" d=" M 94.50 0.00 L 157.50 0.00 C 157.49 7.00 157.53 14.00 157.48 21.00 C 136.48 20.98 115.49 21.04 94.49 20.97 C 94.50 13.98 94.50 6.99 94.50 0.00 Z" />
<path fill="#ffffff" opacity="1.00" d=" M 178.50 0.00 L 241.50 0.00 C 241.51 6.99 241.49 13.98 241.52 20.97 C 220.51 21.03 199.50 21.01 178.49 20.98 C 178.50 13.98 178.50 6.99 178.50 0.00 Z" />
<path fill="#ffffff" opacity="1.00" d=" M 262.50 0.00 L 287.00 0.00 L 287.00 59.50 C 280.01 59.50 273.02 59.50 266.02 59.51 C 265.97 46.69 266.02 33.86 266.00 21.04 C 264.83 21.01 263.65 20.98 262.49 20.95 C 262.51 13.97 262.49 6.98 262.50 0.00 Z" />
<path fill="#ffffff" opacity="1.00" d=" M 85.56 59.71 C 93.90 57.98 102.98 60.02 109.63 65.37 C 117.66 71.54 122.02 82.09 120.66 92.13 C 119.44 103.48 110.87 113.58 99.89 116.67 C 90.46 119.56 79.66 117.24 72.26 110.72 C 64.66 104.27 60.82 93.78 62.46 83.94 C 64.15 72.11 73.84 61.99 85.56 59.71 Z" />
<path fill="#ffffff" opacity="1.00" d=" M 266.13 80.42 C 273.08 80.59 280.04 80.46 287.00 80.50 L 287.00 143.50 C 280.01 143.50 273.02 143.50 266.02 143.51 C 266.05 122.48 265.84 101.44 266.13 80.42 Z" />
<path fill="#ffffff" opacity="1.00" d=" M 0.00 87.50 C 7.00 87.51 14.00 87.48 21.00 87.51 C 20.98 108.51 21.05 129.52 20.97 150.52 C 13.98 150.49 6.99 150.51 0.00 150.50 L 0.00 87.50 Z" />
<path fill="#ffffff" opacity="1.00" d=" M 190.51 94.63 C 197.83 92.47 204.42 97.82 209.61 102.30 C 220.66 112.49 229.49 124.80 237.63 137.37 C 248.37 153.75 257.66 171.04 266.00 188.75 C 266.02 180.66 265.97 172.58 266.02 164.49 C 273.01 164.50 280.01 164.50 287.00 164.50 L 287.00 227.50 C 285.13 227.50 283.26 227.49 281.40 227.49 C 283.88 234.62 284.90 242.13 287.00 249.35 L 287.00 287.00 L 241.50 287.00 C 241.49 280.33 241.51 273.67 241.49 267.01 C 234.50 266.99 227.50 266.99 220.51 267.01 C 220.49 273.67 220.51 280.33 220.50 287.00 L 157.50 287.00 C 157.49 280.33 157.51 273.67 157.49 267.01 C 150.50 267.00 143.50 266.99 136.51 267.01 C 136.49 273.67 136.51 280.33 136.50 287.00 L 73.50 287.00 C 73.50 280.01 73.50 273.02 73.49 266.03 C 83.16 265.97 92.84 266.00 102.52 266.01 C 100.70 260.84 100.90 255.29 101.49 249.93 C 102.76 240.53 105.24 231.32 108.43 222.41 C 114.61 204.16 122.68 186.63 131.52 169.54 C 142.74 148.80 154.86 128.33 170.37 110.47 C 176.17 104.23 182.24 97.49 190.51 94.63 Z" />
<path fill="#ffffff" opacity="1.00" d=" M 0.00 171.50 C 6.99 171.50 13.98 171.50 20.98 171.49 C 21.01 192.50 21.02 213.50 20.98 234.51 C 13.98 234.50 6.99 234.50 0.00 234.50 L 0.00 171.50 Z" />
<path fill="#ffffff" opacity="1.00" d=" M 0.00 255.50 C 6.99 255.49 13.98 255.50 20.97 255.49 C 21.00 258.99 21.01 262.49 21.00 266.00 C 31.50 266.02 42.01 265.96 52.51 266.02 C 52.50 273.01 52.50 280.01 52.50 287.00 L 0.00 287.00 L 0.00 255.50 Z" />
</g>
</g>
<defs xmlns="http://www.w3.org/2000/svg">
    <style><![CDATA[
        .sprite { display: none; }
        .sprite:target { display: inline; }
    ]]></style>
</defs>
</svg>
