<?xml version="1.0" encoding="UTF-8" ?>
<!DOCTYPE svg PUBLIC "-//W3C//DTD SVG 1.1//EN" "http://www.w3.org/Graphics/SVG/1.1/DTD/svg11.dtd">
<svg width="287pt" height="287pt" viewBox="0 0 287 287" version="1.1" xmlns="http://www.w3.org/2000/svg">
<g xmlns="http://www.w3.org/2000/svg" class="sprite" id="black">
<g id="#000000ff">
<path fill="#000000" opacity="1.00" d=" M 0.00 0.00 L 73.50 0.00 C 73.50 6.98 73.51 13.96 73.50 20.94 C 56.01 21.09 38.51 20.94 21.02 21.02 C 20.93 36.18 21.10 51.35 20.94 66.51 C 13.96 66.50 6.98 66.50 0.00 66.50 L 0.00 0.00 Z" />
<path fill="#000000" opacity="1.00" d=" M 94.50 0.00 L 157.50 0.00 C 157.50 6.98 157.50 13.96 157.51 20.94 C 136.51 21.05 115.50 21.03 94.50 20.95 C 94.49 13.96 94.50 6.98 94.50 0.00 Z" />
<path fill="#000000" opacity="1.00" d=" M 178.50 0.00 L 241.50 0.00 C 241.49 6.98 241.51 13.97 241.50 20.95 C 220.50 21.03 199.50 21.04 178.50 20.95 C 178.49 13.97 178.50 6.98 178.50 0.00 Z" />
<path fill="#000000" opacity="1.00" d=" M 262.50 0.00 L 287.00 0.00 L 287.00 59.50 C 280.01 59.49 273.03 59.52 266.04 59.49 C 265.93 46.68 266.05 33.85 265.99 21.03 C 264.82 21.02 263.66 20.99 262.50 20.94 C 262.49 13.96 262.50 6.98 262.50 0.00 Z" />
<path fill="#000000" opacity="1.00" d=" M 51.02 57.01 C 74.67 56.99 98.33 56.99 121.99 57.02 C 122.01 80.67 122.01 104.33 121.98 127.99 C 98.33 128.01 74.67 128.01 51.01 127.99 C 50.99 104.33 50.99 80.67 51.02 57.01 Z" />
<path fill="#000000" opacity="1.00" d=" M 164.01 57.01 C 187.67 56.99 211.33 56.99 234.99 57.01 C 235.01 80.67 235.01 104.33 234.99 127.99 C 211.33 128.01 187.67 128.01 164.01 127.99 C 163.99 104.33 163.99 80.67 164.01 57.01 Z" />
<path fill="#000000" opacity="1.00" d=" M 266.05 80.50 C 273.03 80.49 280.02 80.50 287.00 80.50 L 287.00 143.50 C 280.04 143.52 273.08 143.47 266.12 143.53 C 265.88 122.53 266.01 101.51 266.05 80.50 Z" />
<path fill="#000000" opacity="1.00" d=" M 0.00 87.50 C 6.97 87.49 13.95 87.51 20.92 87.48 C 21.09 108.37 20.98 129.27 20.98 150.16 L 20.70 150.53 C 13.80 150.47 6.90 150.52 0.00 150.50 L 0.00 87.50 Z" />
<path fill="#000000" opacity="1.00" d=" M 51.01 162.01 C 74.67 161.99 98.33 161.99 121.99 162.02 C 122.01 185.67 122.01 209.33 121.99 232.99 C 98.33 233.01 74.67 233.01 51.01 232.99 C 50.99 209.33 50.99 185.67 51.01 162.01 Z" />
<path fill="#000000" opacity="1.00" d=" M 164.01 162.01 C 187.67 161.99 211.33 161.99 234.99 162.01 C 235.01 185.67 235.01 209.33 234.99 232.99 C 211.33 233.01 187.67 233.01 164.02 232.99 C 163.99 209.33 163.99 185.67 164.01 162.01 Z" />
<path fill="#000000" opacity="1.00" d=" M 266.05 164.50 C 273.03 164.49 280.02 164.50 287.00 164.50 L 287.00 227.50 C 280.02 227.50 273.03 227.51 266.05 227.50 C 265.96 206.50 265.97 185.50 266.05 164.50 Z" />
<path fill="#000000" opacity="1.00" d=" M 0.00 171.50 C 6.98 171.50 13.97 171.49 20.95 171.50 C 21.04 192.50 21.03 213.50 20.95 234.50 C 13.97 234.51 6.98 234.50 0.00 234.50 L 0.00 171.50 Z" />
<path fill="#000000" opacity="1.00" d=" M 266.04 248.51 C 273.03 248.48 280.01 248.50 287.00 248.50 L 287.00 287.00 L 241.50 287.00 C 241.50 280.02 241.50 273.04 241.49 266.06 C 249.65 265.90 257.82 266.07 265.98 265.98 C 266.06 260.16 265.92 254.33 266.04 248.51 Z" />
<path fill="#000000" opacity="1.00" d=" M 0.00 255.50 C 6.98 255.49 13.95 255.50 20.93 255.49 C 21.12 258.98 20.91 262.48 21.02 265.98 C 31.51 266.06 42.01 265.92 52.50 266.05 C 52.51 273.03 52.50 280.01 52.50 287.00 L 0.00 287.00 L 0.00 255.50 Z" />
<path fill="#000000" opacity="1.00" d=" M 73.50 266.05 C 94.50 265.97 115.50 265.96 136.50 266.05 C 136.51 273.03 136.50 280.02 136.50 287.00 L 73.50 287.00 C 73.51 280.01 73.48 273.03 73.50 266.05 Z" />
<path fill="#000000" opacity="1.00" d=" M 157.49 266.07 C 178.49 265.94 199.50 265.98 220.50 266.05 C 220.51 273.03 220.50 280.01 220.50 287.00 L 157.50 287.00 C 157.50 280.02 157.50 273.04 157.49 266.07 Z" />
</g>
</g>
<g xmlns="http://www.w3.org/2000/svg" class="sprite" id="white">
<g id="#ffffffff">
<path fill="#ffffff" opacity="1.00" d=" M 0.00 0.00 L 73.50 0.00 C 73.50 6.98 73.51 13.96 73.50 20.94 C 56.01 21.09 38.51 20.94 21.02 21.02 C 20.93 36.18 21.10 51.35 20.94 66.51 C 13.96 66.50 6.98 66.50 0.00 66.50 L 0.00 0.00 Z" />
<path fill="#ffffff" opacity="1.00" d=" M 94.50 0.00 L 157.50 0.00 C 157.50 6.98 157.50 13.96 157.51 20.94 C 136.51 21.05 115.50 21.03 94.50 20.95 C 94.49 13.96 94.50 6.98 94.50 0.00 Z" />
<path fill="#ffffff" opacity="1.00" d=" M 178.50 0.00 L 241.50 0.00 C 241.49 6.98 241.51 13.97 241.50 20.95 C 220.50 21.03 199.50 21.04 178.50 20.95 C 178.49 13.97 178.50 6.98 178.50 0.00 Z" />
<path fill="#ffffff" opacity="1.00" d=" M 262.50 0.00 L 287.00 0.00 L 287.00 59.50 C 280.01 59.49 273.03 59.52 266.04 59.49 C 265.93 46.68 266.05 33.85 265.99 21.03 C 264.82 21.02 263.66 20.99 262.50 20.94 C 262.49 13.96 262.50 6.98 262.50 0.00 Z" />
<path fill="#ffffff" opacity="1.00" d=" M 51.02 57.01 C 74.67 56.99 98.33 56.99 121.99 57.02 C 122.01 80.67 122.01 104.33 121.98 127.99 C 98.33 128.01 74.67 128.01 51.01 127.99 C 50.99 104.33 50.99 80.67 51.02 57.01 Z" />
<path fill="#ffffff" opacity="1.00" d=" M 164.01 57.01 C 187.67 56.99 211.33 56.99 234.99 57.01 C 235.01 80.67 235.01 104.33 234.99 127.99 C 211.33 128.01 187.67 128.01 164.01 127.99 C 163.99 104.33 163.99 80.67 164.01 57.01 Z" />
<path fill="#ffffff" opacity="1.00" d=" M 266.05 80.50 C 273.03 80.49 280.02 80.50 287.00 80.50 L 287.00 143.50 C 280.04 143.52 273.08 143.47 266.12 143.53 C 265.88 122.53 266.01 101.51 266.05 80.50 Z" />
<path fill="#ffffff" opacity="1.00" d=" M 0.00 87.50 C 6.97 87.49 13.95 87.51 20.92 87.48 C 21.09 108.37 20.98 129.27 20.98 150.16 L 20.70 150.53 C 13.80 150.47 6.90 150.52 0.00 150.50 L 0.00 87.50 Z" />
<path fill="#ffffff" opacity="1.00" d=" M 51.01 162.01 C 74.67 161.99 98.33 161.99 121.99 162.02 C 122.01 185.67 122.01 209.33 121.99 232.99 C 98.33 233.01 74.67 233.01 51.01 232.99 C 50.99 209.33 50.99 185.67 51.01 162.01 Z" />
<path fill="#ffffff" opacity="1.00" d=" M 164.01 162.01 C 187.67 161.99 211.33 161.99 234.99 162.01 C 235.01 185.67 235.01 209.33 234.99 232.99 C 211.33 233.01 187.67 233.01 164.02 232.99 C 163.99 209.33 163.99 185.67 164.01 162.01 Z" />
<path fill="#ffffff" opacity="1.00" d=" M 266.05 164.50 C 273.03 164.49 280.02 164.50 287.00 164.50 L 287.00 227.50 C 280.02 227.50 273.03 227.51 266.05 227.50 C 265.96 206.50 265.97 185.50 266.05 164.50 Z" />
<path fill="#ffffff" opacity="1.00" d=" M 0.00 171.50 C 6.98 171.50 13.97 171.49 20.95 171.50 C 21.04 192.50 21.03 213.50 20.95 234.50 C 13.97 234.51 6.98 234.50 0.00 234.50 L 0.00 171.50 Z" />
<path fill="#ffffff" opacity="1.00" d=" M 266.04 248.51 C 273.03 248.48 280.01 248.50 287.00 248.50 L 287.00 287.00 L 241.50 287.00 C 241.50 280.02 241.50 273.04 241.49 266.06 C 249.65 265.90 257.82 266.07 265.98 265.98 C 266.06 260.16 265.92 254.33 266.04 248.51 Z" />
<path fill="#ffffff" opacity="1.00" d=" M 0.00 255.50 C 6.98 255.49 13.95 255.50 20.93 255.49 C 21.12 258.98 20.91 262.48 21.02 265.98 C 31.51 266.06 42.01 265.92 52.50 266.05 C 52.51 273.03 52.50 280.01 52.50 287.00 L 0.00 287.00 L 0.00 255.50 Z" />
<path fill="#ffffff" opacity="1.00" d=" M 73.50 266.05 C 94.50 265.97 115.50 265.96 136.50 266.05 C 136.51 273.03 136.50 280.02 136.50 287.00 L 73.50 287.00 C 73.51 280.01 73.48 273.03 73.50 266.05 Z" />
<path fill="#ffffff" opacity="1.00" d=" M 157.49 266.07 C 178.49 265.94 199.50 265.98 220.50 266.05 C 220.51 273.03 220.50 280.01 220.50 287.00 L 157.50 287.00 C 157.50 280.02 157.50 273.04 157.49 266.07 Z" />
</g>
</g>
<defs xmlns="http://www.w3.org/2000/svg">
    <style><![CDATA[
        .sprite { display: none; }
        .sprite:target { display: inline; }
    ]]></style>
</defs>
</svg>
