<?xml version="1.0" encoding="UTF-8" ?>
<!DOCTYPE svg PUBLIC "-//W3C//DTD SVG 1.1//EN" "http://www.w3.org/Graphics/SVG/1.1/DTD/svg11.dtd">
<svg width="287pt" height="287pt" viewBox="0 0 287 287" version="1.1" xmlns="http://www.w3.org/2000/svg">
<g xmlns="http://www.w3.org/2000/svg" class="sprite" id="black">
<g id="#000000ff">
<path fill="#000000" opacity="1.00" d=" M 0.00 0.00 L 73.50 0.00 C 73.51 6.99 73.50 13.98 73.51 20.97 C 56.01 21.04 38.51 20.97 21.01 21.00 C 20.97 36.17 21.04 51.34 20.97 66.51 C 13.98 66.50 6.99 66.50 0.00 66.51 L 0.00 0.00 Z" />
<path fill="#000000" opacity="1.00" d=" M 94.49 0.00 L 157.50 0.00 C 157.51 6.99 157.49 13.98 157.51 20.97 C 136.51 21.02 115.50 21.02 94.49 20.97 C 94.50 13.98 94.50 6.99 94.49 0.00 Z" />
<path fill="#000000" opacity="1.00" d=" M 178.49 0.00 L 241.50 0.00 C 241.51 6.99 241.50 13.98 241.51 20.97 C 220.50 21.02 199.50 21.02 178.49 20.97 C 178.50 13.98 178.50 6.99 178.49 0.00 Z" />
<path fill="#000000" opacity="1.00" d=" M 262.49 0.00 L 287.00 0.00 L 287.00 59.50 C 280.01 59.51 273.02 59.50 266.03 59.51 C 265.96 46.69 266.02 33.86 266.00 21.04 C 264.83 21.01 263.65 20.98 262.49 20.94 C 262.50 13.96 262.50 6.98 262.49 0.00 Z" />
<path fill="#000000" opacity="1.00" d=" M 38.00 40.01 C 52.30 40.00 66.59 39.98 80.88 40.01 C 80.88 42.67 80.88 45.33 80.87 47.99 C 66.58 48.01 52.29 48.00 38.00 47.99 C 37.99 45.33 37.99 42.67 38.00 40.01 Z" />
<path fill="#000000" opacity="1.00" d=" M 94.01 40.00 C 108.30 40.00 122.59 39.99 136.88 40.01 C 136.88 42.67 136.88 45.33 136.88 47.99 C 122.59 48.01 108.30 48.00 94.01 48.00 C 93.99 45.33 93.99 42.67 94.01 40.00 Z" />
<path fill="#000000" opacity="1.00" d=" M 150.00 40.01 C 164.29 40.00 178.59 39.99 192.88 40.01 C 192.88 42.67 192.88 45.33 192.88 47.99 C 178.59 48.01 164.30 48.00 150.01 48.00 C 149.99 45.33 149.99 42.67 150.00 40.01 Z" />
<path fill="#000000" opacity="1.00" d=" M 206.01 40.00 C 220.30 40.00 234.59 39.99 248.88 40.01 C 248.88 42.67 248.88 45.33 248.87 47.99 C 234.59 48.01 220.30 48.00 206.01 48.00 C 205.99 45.33 205.99 42.67 206.01 40.00 Z" />
<path fill="#000000" opacity="1.00" d=" M 266.08 80.45 C 273.05 80.54 280.02 80.48 287.00 80.49 L 287.00 143.50 C 280.01 143.50 273.02 143.50 266.03 143.51 C 266.01 122.49 265.92 101.47 266.08 80.45 Z" />
<path fill="#000000" opacity="1.00" d=" M 34.00 81.01 C 49.67 80.99 65.33 81.00 80.99 81.00 C 81.01 96.67 81.00 112.33 80.99 128.00 C 65.33 128.00 49.67 128.00 34.01 128.00 C 34.00 112.33 34.00 96.67 34.00 81.01 Z" />
<path fill="#000000" opacity="1.00" d=" M 89.01 81.00 C 105.00 81.00 121.00 81.00 137.00 81.01 C 137.00 96.67 137.00 112.33 137.00 128.00 C 121.00 128.00 105.00 128.00 89.01 128.00 C 88.99 112.33 89.00 96.67 89.01 81.00 Z" />
<path fill="#000000" opacity="1.00" d=" M 147.00 81.01 C 162.67 81.00 178.33 80.99 194.00 81.01 C 194.00 96.67 194.00 112.33 193.99 128.00 C 178.33 128.00 162.67 128.00 147.00 127.99 C 147.00 112.33 147.00 96.67 147.00 81.01 Z" />
<path fill="#000000" opacity="1.00" d=" M 206.01 81.00 C 221.67 81.00 237.33 81.00 252.99 81.00 C 253.01 96.67 253.00 112.33 253.00 128.00 C 237.33 128.00 221.67 128.00 206.01 128.00 C 206.00 112.33 205.99 96.67 206.01 81.00 Z" />
<path fill="#000000" opacity="1.00" d=" M 0.00 87.50 C 6.99 87.49 13.98 87.50 20.97 87.49 C 21.02 108.50 21.02 129.50 20.97 150.51 C 13.98 150.50 6.99 150.50 0.00 150.51 L 0.00 87.50 Z" />
<path fill="#000000" opacity="1.00" d=" M 34.01 140.00 C 49.67 140.00 65.33 140.00 80.99 140.00 C 81.00 155.67 81.00 171.33 80.99 187.00 C 65.33 187.00 49.67 187.00 34.00 187.00 C 34.00 171.33 34.00 155.67 34.01 140.00 Z" />
<path fill="#000000" opacity="1.00" d=" M 89.01 140.00 C 105.00 140.00 121.00 140.00 136.99 140.00 C 137.00 155.67 137.00 171.33 136.99 187.00 C 121.00 187.00 105.00 187.01 89.00 186.99 C 89.00 171.33 88.99 155.67 89.01 140.00 Z" />
<path fill="#000000" opacity="1.00" d=" M 147.01 140.00 C 162.67 140.00 178.33 140.00 193.99 140.00 C 194.01 155.67 194.00 171.33 193.99 187.00 C 178.33 187.00 162.67 187.01 147.00 186.99 C 147.00 171.33 146.99 155.67 147.01 140.00 Z" />
<path fill="#000000" opacity="1.00" d=" M 206.00 140.01 C 221.67 139.99 237.33 140.00 252.99 140.00 C 253.00 155.67 253.00 171.33 253.00 187.00 C 237.33 187.00 221.67 187.00 206.01 187.00 C 205.99 171.33 206.00 155.67 206.00 140.01 Z" />
<path fill="#000000" opacity="1.00" d=" M 266.03 164.49 C 273.02 164.50 280.01 164.50 287.00 164.49 L 287.00 227.50 C 280.01 227.51 273.02 227.49 266.03 227.52 C 265.98 206.51 265.98 185.50 266.03 164.49 Z" />
<path fill="#000000" opacity="1.00" d=" M 0.00 171.50 C 6.99 171.49 13.98 171.51 20.97 171.48 C 21.02 192.49 21.02 213.50 20.97 234.51 C 13.98 234.50 6.99 234.50 0.00 234.51 L 0.00 171.50 Z" />
<path fill="#000000" opacity="1.00" d=" M 34.00 196.00 C 49.67 196.00 65.33 196.00 80.99 196.00 C 81.01 211.67 81.00 227.33 81.00 242.99 C 65.33 243.01 49.67 243.00 34.01 243.00 C 33.99 227.33 34.00 211.67 34.00 196.00 Z" />
<path fill="#000000" opacity="1.00" d=" M 89.01 196.00 C 105.00 196.00 121.00 196.00 136.99 196.00 C 137.00 211.67 137.00 227.33 137.00 243.00 C 121.00 243.00 105.00 243.00 89.01 243.00 C 89.00 227.33 89.00 211.67 89.01 196.00 Z" />
<path fill="#000000" opacity="1.00" d=" M 147.01 196.00 C 162.67 196.00 178.33 195.99 194.00 196.01 C 194.00 211.67 194.01 227.33 193.99 243.00 C 178.33 243.00 162.67 243.00 147.00 243.00 C 147.00 227.33 147.00 211.67 147.01 196.00 Z" />
<path fill="#000000" opacity="1.00" d=" M 206.00 196.00 C 221.67 196.00 237.33 196.00 253.00 196.00 C 253.00 211.67 253.00 227.33 253.00 242.99 C 237.33 243.00 221.67 243.01 206.00 242.99 C 206.00 227.33 206.00 211.67 206.00 196.00 Z" />
<path fill="#000000" opacity="1.00" d=" M 266.03 248.49 C 273.02 248.50 280.01 248.50 287.00 248.49 L 287.00 287.00 L 241.50 287.00 C 241.49 280.01 241.50 273.02 241.49 266.03 C 249.66 265.96 257.82 266.03 265.99 265.99 C 266.02 260.16 265.96 254.32 266.03 248.49 Z" />
<path fill="#000000" opacity="1.00" d=" M 0.00 255.50 C 6.99 255.49 13.98 255.50 20.97 255.49 C 21.01 258.99 21.00 262.49 21.00 266.00 C 31.50 266.03 42.01 265.96 52.51 266.03 C 52.50 273.02 52.50 280.01 52.51 287.00 L 0.00 287.00 L 0.00 255.50 Z" />
<path fill="#000000" opacity="1.00" d=" M 73.47 266.04 C 94.48 265.97 115.50 265.99 136.51 266.03 C 136.50 273.02 136.50 280.01 136.51 287.00 L 73.50 287.00 C 73.48 280.01 73.52 273.02 73.47 266.04 Z" />
<path fill="#000000" opacity="1.00" d=" M 157.49 266.03 C 178.50 265.98 199.50 265.98 220.51 266.03 C 220.50 273.02 220.50 280.01 220.51 287.00 L 157.50 287.00 C 157.49 280.01 157.50 273.02 157.49 266.03 Z" />
</g>
</g>
<g xmlns="http://www.w3.org/2000/svg" class="sprite" id="white">
<g id="#ffffffff">
<path fill="#ffffff" opacity="1.00" d=" M 0.00 0.00 L 73.50 0.00 C 73.51 6.99 73.50 13.98 73.51 20.97 C 56.01 21.04 38.51 20.97 21.01 21.00 C 20.97 36.17 21.04 51.34 20.97 66.51 C 13.98 66.50 6.99 66.50 0.00 66.51 L 0.00 0.00 Z" />
<path fill="#ffffff" opacity="1.00" d=" M 94.49 0.00 L 157.50 0.00 C 157.51 6.99 157.49 13.98 157.51 20.97 C 136.51 21.02 115.50 21.02 94.49 20.97 C 94.50 13.98 94.50 6.99 94.49 0.00 Z" />
<path fill="#ffffff" opacity="1.00" d=" M 178.49 0.00 L 241.50 0.00 C 241.51 6.99 241.50 13.98 241.51 20.97 C 220.50 21.02 199.50 21.02 178.49 20.97 C 178.50 13.98 178.50 6.99 178.49 0.00 Z" />
<path fill="#ffffff" opacity="1.00" d=" M 262.49 0.00 L 287.00 0.00 L 287.00 59.50 C 280.01 59.51 273.02 59.50 266.03 59.51 C 265.96 46.69 266.02 33.86 266.00 21.04 C 264.83 21.01 263.65 20.98 262.49 20.94 C 262.50 13.96 262.50 6.98 262.49 0.00 Z" />
<path fill="#ffffff" opacity="1.00" d=" M 38.00 40.01 C 52.30 40.00 66.59 39.98 80.88 40.01 C 80.88 42.67 80.88 45.33 80.87 47.99 C 66.58 48.01 52.29 48.00 38.00 47.99 C 37.99 45.33 37.99 42.67 38.00 40.01 Z" />
<path fill="#ffffff" opacity="1.00" d=" M 94.01 40.00 C 108.30 40.00 122.59 39.99 136.88 40.01 C 136.88 42.67 136.88 45.33 136.88 47.99 C 122.59 48.01 108.30 48.00 94.01 48.00 C 93.99 45.33 93.99 42.67 94.01 40.00 Z" />
<path fill="#ffffff" opacity="1.00" d=" M 150.00 40.01 C 164.29 40.00 178.59 39.99 192.88 40.01 C 192.88 42.67 192.88 45.33 192.88 47.99 C 178.59 48.01 164.30 48.00 150.01 48.00 C 149.99 45.33 149.99 42.67 150.00 40.01 Z" />
<path fill="#ffffff" opacity="1.00" d=" M 206.01 40.00 C 220.30 40.00 234.59 39.99 248.88 40.01 C 248.88 42.67 248.88 45.33 248.87 47.99 C 234.59 48.01 220.30 48.00 206.01 48.00 C 205.99 45.33 205.99 42.67 206.01 40.00 Z" />
<path fill="#ffffff" opacity="1.00" d=" M 266.08 80.45 C 273.05 80.54 280.02 80.48 287.00 80.49 L 287.00 143.50 C 280.01 143.50 273.02 143.50 266.03 143.51 C 266.01 122.49 265.92 101.47 266.08 80.45 Z" />
<path fill="#ffffff" opacity="1.00" d=" M 34.00 81.01 C 49.67 80.99 65.33 81.00 80.99 81.00 C 81.01 96.67 81.00 112.33 80.99 128.00 C 65.33 128.00 49.67 128.00 34.01 128.00 C 34.00 112.33 34.00 96.67 34.00 81.01 Z" />
<path fill="#ffffff" opacity="1.00" d=" M 89.01 81.00 C 105.00 81.00 121.00 81.00 137.00 81.01 C 137.00 96.67 137.00 112.33 137.00 128.00 C 121.00 128.00 105.00 128.00 89.01 128.00 C 88.99 112.33 89.00 96.67 89.01 81.00 Z" />
<path fill="#ffffff" opacity="1.00" d=" M 147.00 81.01 C 162.67 81.00 178.33 80.99 194.00 81.01 C 194.00 96.67 194.00 112.33 193.99 128.00 C 178.33 128.00 162.67 128.00 147.00 127.99 C 147.00 112.33 147.00 96.67 147.00 81.01 Z" />
<path fill="#ffffff" opacity="1.00" d=" M 206.01 81.00 C 221.67 81.00 237.33 81.00 252.99 81.00 C 253.01 96.67 253.00 112.33 253.00 128.00 C 237.33 128.00 221.67 128.00 206.01 128.00 C 206.00 112.33 205.99 96.67 206.01 81.00 Z" />
<path fill="#ffffff" opacity="1.00" d=" M 0.00 87.50 C 6.99 87.49 13.98 87.50 20.97 87.49 C 21.02 108.50 21.02 129.50 20.97 150.51 C 13.98 150.50 6.99 150.50 0.00 150.51 L 0.00 87.50 Z" />
<path fill="#ffffff" opacity="1.00" d=" M 34.01 140.00 C 49.67 140.00 65.33 140.00 80.99 140.00 C 81.00 155.67 81.00 171.33 80.99 187.00 C 65.33 187.00 49.67 187.00 34.00 187.00 C 34.00 171.33 34.00 155.67 34.01 140.00 Z" />
<path fill="#ffffff" opacity="1.00" d=" M 89.01 140.00 C 105.00 140.00 121.00 140.00 136.99 140.00 C 137.00 155.67 137.00 171.33 136.99 187.00 C 121.00 187.00 105.00 187.01 89.00 186.99 C 89.00 171.33 88.99 155.67 89.01 140.00 Z" />
<path fill="#ffffff" opacity="1.00" d=" M 147.01 140.00 C 162.67 140.00 178.33 140.00 193.99 140.00 C 194.01 155.67 194.00 171.33 193.99 187.00 C 178.33 187.00 162.67 187.01 147.00 186.99 C 147.00 171.33 146.99 155.67 147.01 140.00 Z" />
<path fill="#ffffff" opacity="1.00" d=" M 206.00 140.01 C 221.67 139.99 237.33 140.00 252.99 140.00 C 253.00 155.67 253.00 171.33 253.00 187.00 C 237.33 187.00 221.67 187.00 206.01 187.00 C 205.99 171.33 206.00 155.67 206.00 140.01 Z" />
<path fill="#ffffff" opacity="1.00" d=" M 266.03 164.49 C 273.02 164.50 280.01 164.50 287.00 164.49 L 287.00 227.50 C 280.01 227.51 273.02 227.49 266.03 227.52 C 265.98 206.51 265.98 185.50 266.03 164.49 Z" />
<path fill="#ffffff" opacity="1.00" d=" M 0.00 171.50 C 6.99 171.49 13.98 171.51 20.97 171.48 C 21.02 192.49 21.02 213.50 20.97 234.51 C 13.98 234.50 6.99 234.50 0.00 234.51 L 0.00 171.50 Z" />
<path fill="#ffffff" opacity="1.00" d=" M 34.00 196.00 C 49.67 196.00 65.33 196.00 80.99 196.00 C 81.01 211.67 81.00 227.33 81.00 242.99 C 65.33 243.01 49.67 243.00 34.01 243.00 C 33.99 227.33 34.00 211.67 34.00 196.00 Z" />
<path fill="#ffffff" opacity="1.00" d=" M 89.01 196.00 C 105.00 196.00 121.00 196.00 136.99 196.00 C 137.00 211.67 137.00 227.33 137.00 243.00 C 121.00 243.00 105.00 243.00 89.01 243.00 C 89.00 227.33 89.00 211.67 89.01 196.00 Z" />
<path fill="#ffffff" opacity="1.00" d=" M 147.01 196.00 C 162.67 196.00 178.33 195.99 194.00 196.01 C 194.00 211.67 194.01 227.33 193.99 243.00 C 178.33 243.00 162.67 243.00 147.00 243.00 C 147.00 227.33 147.00 211.67 147.01 196.00 Z" />
<path fill="#ffffff" opacity="1.00" d=" M 206.00 196.00 C 221.67 196.00 237.33 196.00 253.00 196.00 C 253.00 211.67 253.00 227.33 253.00 242.99 C 237.33 243.00 221.67 243.01 206.00 242.99 C 206.00 227.33 206.00 211.67 206.00 196.00 Z" />
<path fill="#ffffff" opacity="1.00" d=" M 266.03 248.49 C 273.02 248.50 280.01 248.50 287.00 248.49 L 287.00 287.00 L 241.50 287.00 C 241.49 280.01 241.50 273.02 241.49 266.03 C 249.66 265.96 257.82 266.03 265.99 265.99 C 266.02 260.16 265.96 254.32 266.03 248.49 Z" />
<path fill="#ffffff" opacity="1.00" d=" M 0.00 255.50 C 6.99 255.49 13.98 255.50 20.97 255.49 C 21.01 258.99 21.00 262.49 21.00 266.00 C 31.50 266.03 42.01 265.96 52.51 266.03 C 52.50 273.02 52.50 280.01 52.51 287.00 L 0.00 287.00 L 0.00 255.50 Z" />
<path fill="#ffffff" opacity="1.00" d=" M 73.47 266.04 C 94.48 265.97 115.50 265.99 136.51 266.03 C 136.50 273.02 136.50 280.01 136.51 287.00 L 73.50 287.00 C 73.48 280.01 73.52 273.02 73.47 266.04 Z" />
<path fill="#ffffff" opacity="1.00" d=" M 157.49 266.03 C 178.50 265.98 199.50 265.98 220.51 266.03 C 220.50 273.02 220.50 280.01 220.51 287.00 L 157.50 287.00 C 157.49 280.01 157.50 273.02 157.49 266.03 Z" />
</g>
</g>
<defs xmlns="http://www.w3.org/2000/svg">
    <style><![CDATA[
        .sprite { display: none; }
        .sprite:target { display: inline; }
    ]]></style>
</defs>
</svg>
