<?xml version="1.0" encoding="UTF-8" ?>
<!DOCTYPE svg PUBLIC "-//W3C//DTD SVG 1.1//EN" "http://www.w3.org/Graphics/SVG/1.1/DTD/svg11.dtd">
<svg width="287pt" height="287pt" viewBox="0 0 287 287" version="1.1" xmlns="http://www.w3.org/2000/svg">
<g xmlns="http://www.w3.org/2000/svg" class="sprite" id="black">
<g id="#000000ff">
<path fill="#000000" opacity="1.00" d=" M 0.00 0.00 L 73.50 0.00 C 73.51 6.99 73.49 13.98 73.51 20.97 C 56.01 21.04 38.51 20.97 21.00 21.00 C 20.97 36.17 21.04 51.34 20.97 66.51 C 13.98 66.49 6.99 66.50 0.00 66.50 L 0.00 0.00 Z" />
<path fill="#000000" opacity="1.00" d=" M 94.50 0.00 L 157.50 0.00 C 157.54 6.96 157.42 13.92 157.58 20.88 C 136.55 21.14 115.52 20.96 94.49 20.97 C 94.51 13.98 94.49 6.99 94.50 0.00 Z" />
<path fill="#000000" opacity="1.00" d=" M 178.50 0.00 L 241.50 0.00 C 241.51 6.98 241.48 13.97 241.52 20.95 C 220.51 21.04 199.50 21.00 178.49 20.97 C 178.51 13.98 178.50 6.99 178.50 0.00 Z" />
<path fill="#000000" opacity="1.00" d=" M 262.50 0.00 L 287.00 0.00 L 287.00 59.50 C 280.01 59.50 273.02 59.49 266.03 59.51 C 265.97 46.69 266.02 33.86 266.00 21.04 C 264.83 21.01 263.65 20.97 262.48 20.94 C 262.51 13.96 262.49 6.98 262.50 0.00 Z" />
<path fill="#000000" opacity="1.00" d=" M 69.05 47.00 C 73.03 47.00 77.02 47.00 81.00 47.00 C 81.00 48.33 80.99 49.67 81.00 51.00 C 77.67 51.00 74.34 51.00 71.00 51.00 C 71.00 54.33 71.00 57.67 71.00 61.00 C 69.67 61.00 68.33 61.00 67.00 61.00 C 66.99 57.02 67.00 53.03 67.00 49.05 C 67.49 49.03 68.47 48.98 68.97 48.96 C 68.99 48.47 69.03 47.49 69.05 47.00 Z" />
<path fill="#000000" opacity="1.00" d=" M 85.00 47.00 C 89.00 47.00 93.00 47.00 97.00 47.00 C 96.99 48.33 96.99 49.67 97.00 51.00 C 93.00 51.00 89.00 51.00 85.00 51.00 C 85.00 49.66 85.00 48.33 85.00 47.00 Z" />
<path fill="#000000" opacity="1.00" d=" M 101.00 47.00 C 105.00 47.00 109.00 47.00 113.00 47.00 C 112.99 48.33 112.99 49.67 113.00 51.00 C 109.00 51.00 105.00 51.00 101.00 51.00 C 101.00 49.66 101.00 48.33 101.00 47.00 Z" />
<path fill="#000000" opacity="1.00" d=" M 117.00 47.00 C 121.00 47.00 125.00 47.00 129.00 47.00 C 128.99 48.33 129.00 49.66 129.00 51.00 C 125.00 51.00 121.00 51.00 117.00 51.00 C 117.00 49.67 117.00 48.33 117.00 47.00 Z" />
<path fill="#000000" opacity="1.00" d=" M 133.00 47.00 C 137.00 47.00 141.00 47.00 145.00 47.00 C 144.99 48.33 144.99 49.67 145.00 51.00 C 141.00 51.00 137.00 51.00 133.00 51.00 C 133.00 49.67 133.00 48.33 133.00 47.00 Z" />
<path fill="#000000" opacity="1.00" d=" M 149.00 47.00 C 153.00 47.00 157.00 47.00 161.00 47.00 C 160.99 48.33 160.99 49.67 161.00 51.00 C 157.00 51.00 153.00 51.00 149.00 51.00 C 149.00 49.67 149.00 48.33 149.00 47.00 Z" />
<path fill="#000000" opacity="1.00" d=" M 165.00 47.00 C 169.00 47.00 173.00 47.00 177.00 47.00 C 176.99 48.33 176.99 49.66 177.00 51.00 C 173.00 51.00 169.00 51.00 165.00 51.00 C 165.00 49.66 165.00 48.33 165.00 47.00 Z" />
<path fill="#000000" opacity="1.00" d=" M 181.00 47.00 C 185.00 47.00 189.00 47.00 193.00 47.00 C 192.99 48.33 192.99 49.66 193.00 51.00 C 189.00 51.00 185.00 51.00 181.00 51.00 C 181.00 49.66 181.00 48.33 181.00 47.00 Z" />
<path fill="#000000" opacity="1.00" d=" M 197.00 47.00 C 201.00 47.00 205.00 47.00 209.00 47.00 C 208.99 48.33 208.99 49.66 209.00 51.00 C 205.00 51.00 201.00 51.00 197.00 51.00 C 197.00 49.66 197.00 48.33 197.00 47.00 Z" />
<path fill="#000000" opacity="1.00" d=" M 213.00 47.00 C 217.00 47.00 221.00 47.00 225.00 47.00 C 224.99 48.33 224.99 49.66 225.00 51.00 C 221.00 51.00 217.00 51.00 213.00 51.00 C 213.00 49.67 213.00 48.33 213.00 47.00 Z" />
<path fill="#000000" opacity="1.00" d=" M 229.00 47.00 C 233.00 47.00 237.00 47.00 241.00 47.00 C 240.99 48.33 240.99 49.66 241.00 51.00 C 237.00 51.00 233.00 51.00 229.00 51.00 C 229.00 49.67 229.00 48.33 229.00 47.00 Z" />
<path fill="#000000" opacity="1.00" d=" M 240.01 52.00 C 241.33 52.00 242.66 52.00 244.00 52.00 C 244.00 56.00 244.00 60.00 244.00 64.00 C 242.66 64.00 241.33 64.00 240.00 64.00 C 240.00 60.00 239.99 56.00 240.01 52.00 Z" />
<path fill="#000000" opacity="1.00" d=" M 123.57 72.69 C 136.31 63.97 150.10 55.26 165.96 54.31 C 173.16 54.08 181.78 53.30 187.48 58.59 C 193.84 66.37 192.01 77.55 197.14 85.90 C 201.70 91.45 209.94 89.10 215.65 92.42 C 218.05 94.06 216.90 97.47 215.48 99.41 C 208.60 109.80 203.11 121.02 196.71 131.69 C 192.63 138.30 187.82 145.48 180.11 148.08 C 173.85 150.27 167.34 147.82 161.60 145.32 C 159.87 147.51 158.18 149.74 156.51 151.99 C 160.34 152.01 164.17 151.99 168.00 152.00 C 167.99 153.33 167.99 154.66 168.00 156.00 C 164.01 156.00 160.02 156.00 156.03 156.00 C 156.01 155.18 155.96 153.53 155.93 152.71 C 131.51 185.13 106.82 217.36 82.50 249.85 C 66.93 241.34 51.69 232.20 36.25 223.43 C 53.27 200.95 70.33 178.51 87.33 156.01 C 83.55 155.99 79.78 156.01 76.00 156.00 C 76.00 154.66 76.00 153.33 76.00 152.00 C 79.99 151.99 83.99 152.00 87.98 152.00 C 88.00 152.78 88.03 154.34 88.04 155.12 C 98.45 141.34 108.89 127.57 119.35 113.81 C 114.40 107.59 106.99 101.55 107.14 92.93 C 108.59 83.80 116.71 77.94 123.57 72.69 Z" />
<path fill="#000000" opacity="1.00" d=" M 67.00 65.00 C 68.33 65.00 69.66 65.00 71.00 65.00 C 71.00 69.00 71.00 73.00 71.00 77.00 C 69.66 77.00 68.33 77.00 67.00 77.00 C 67.00 73.00 66.99 69.00 67.00 65.00 Z" />
<path fill="#000000" opacity="1.00" d=" M 240.00 68.00 C 241.33 68.00 242.66 68.00 244.00 68.00 C 244.00 72.00 244.00 76.00 244.00 80.00 C 242.66 80.00 241.33 80.00 240.00 80.00 C 240.00 76.00 239.99 72.00 240.00 68.00 Z" />
<path fill="#000000" opacity="1.00" d=" M 266.03 80.49 C 273.02 80.51 280.01 80.49 287.00 80.50 L 287.00 143.50 C 280.01 143.51 273.02 143.49 266.03 143.51 C 265.98 122.51 265.98 101.49 266.03 80.49 Z" />
<path fill="#000000" opacity="1.00" d=" M 67.00 81.00 C 68.33 81.00 69.66 81.00 71.00 81.00 C 71.00 85.00 71.00 89.00 71.00 93.00 C 69.66 93.00 68.33 92.99 67.00 93.00 C 67.00 89.00 67.00 85.00 67.00 81.00 Z" />
<path fill="#000000" opacity="1.00" d=" M 240.00 84.00 C 241.33 84.00 242.66 84.00 244.00 84.00 C 244.00 88.00 244.00 92.00 244.00 96.00 C 242.66 95.99 241.33 95.99 240.00 96.00 C 239.99 92.00 240.00 88.00 240.00 84.00 Z" />
<path fill="#000000" opacity="1.00" d=" M 0.00 87.50 C 6.99 87.49 13.98 87.51 20.97 87.49 C 21.01 108.50 21.04 129.51 20.96 150.52 C 13.97 150.48 6.99 150.51 0.00 150.50 L 0.00 87.50 Z" />
<path fill="#000000" opacity="1.00" d=" M 67.00 97.00 C 68.33 97.00 69.66 97.00 71.00 97.00 C 71.00 101.00 71.00 105.00 71.00 109.00 C 69.66 108.99 68.33 108.99 67.00 109.00 C 67.00 105.00 67.00 101.00 67.00 97.00 Z" />
<path fill="#000000" opacity="1.00" d=" M 240.00 100.00 C 241.33 100.00 242.66 100.00 244.00 100.00 C 244.00 104.00 244.00 108.00 244.00 112.00 C 242.66 111.99 241.33 112.00 240.00 112.00 C 239.99 108.00 240.00 104.00 240.00 100.00 Z" />
<path fill="#000000" opacity="1.00" d=" M 67.00 113.00 C 68.33 113.00 69.66 113.00 71.00 113.00 C 71.00 117.00 71.00 121.00 71.00 125.00 C 69.67 124.99 68.33 125.00 67.00 125.00 C 67.00 121.00 67.00 117.00 67.00 113.00 Z" />
<path fill="#000000" opacity="1.00" d=" M 240.00 116.00 C 241.33 116.00 242.66 116.00 244.00 116.00 C 244.00 120.00 244.00 124.00 244.00 128.00 C 242.66 127.99 241.33 127.99 240.00 128.00 C 240.00 124.00 240.00 120.00 240.00 116.00 Z" />
<path fill="#000000" opacity="1.00" d=" M 67.00 129.00 C 68.33 129.00 69.66 129.00 71.00 129.00 C 71.00 133.00 71.00 137.00 71.00 141.00 C 69.66 140.99 68.33 140.99 67.00 141.00 C 67.00 137.00 67.00 133.00 67.00 129.00 Z" />
<path fill="#000000" opacity="1.00" d=" M 240.00 132.00 C 241.33 132.00 242.66 132.00 244.00 132.00 C 244.00 136.00 244.00 140.00 244.00 144.00 C 242.66 143.99 241.33 143.99 240.00 144.00 C 239.99 140.00 239.99 136.00 240.00 132.00 Z" />
<path fill="#000000" opacity="1.00" d=" M 67.00 145.00 C 68.33 145.00 69.66 145.00 71.00 145.00 C 70.99 147.20 70.98 149.39 71.03 151.59 C 72.72 152.45 71.75 154.55 72.02 156.00 C 70.34 156.00 68.67 156.00 67.00 156.00 C 67.00 152.33 67.00 148.67 67.00 145.00 Z" />
<path fill="#000000" opacity="1.00" d=" M 240.01 148.00 C 241.33 148.00 242.66 148.00 243.99 148.00 C 244.00 150.66 244.00 153.33 244.00 155.99 C 241.33 156.00 238.66 156.00 236.00 155.99 C 236.00 154.66 236.00 153.34 236.00 152.01 C 237.33 152.00 238.66 152.00 239.99 151.99 C 239.99 150.66 240.00 149.33 240.01 148.00 Z" />
<path fill="#000000" opacity="1.00" d=" M 172.00 152.00 C 176.00 152.00 180.00 152.00 184.00 152.00 C 183.99 153.33 183.99 154.66 184.00 156.00 C 180.00 156.00 176.00 156.00 172.00 156.00 C 172.00 154.66 172.00 153.33 172.00 152.00 Z" />
<path fill="#000000" opacity="1.00" d=" M 188.00 152.00 C 192.00 152.00 196.00 152.00 200.00 152.00 C 199.99 153.33 199.99 154.66 200.00 156.00 C 196.00 156.00 192.00 156.00 188.00 156.00 C 188.00 154.66 188.00 153.33 188.00 152.00 Z" />
<path fill="#000000" opacity="1.00" d=" M 204.00 152.00 C 208.00 152.00 212.00 152.00 216.00 152.00 C 215.99 153.33 215.99 154.66 216.00 156.00 C 212.00 156.00 208.00 156.00 204.00 156.00 C 204.00 154.66 204.00 153.33 204.00 152.00 Z" />
<path fill="#000000" opacity="1.00" d=" M 220.00 152.00 C 224.00 152.00 228.00 152.00 232.00 152.00 C 231.99 153.33 231.99 154.66 232.00 156.00 C 228.00 156.00 224.00 156.00 220.00 156.00 C 220.00 154.66 220.00 153.33 220.00 152.00 Z" />
<path fill="#000000" opacity="1.00" d=" M 266.04 164.48 C 273.02 164.51 280.01 164.49 287.00 164.50 L 287.00 227.50 C 280.01 227.50 273.02 227.49 266.03 227.51 C 265.99 206.50 265.97 185.49 266.04 164.48 Z" />
<path fill="#000000" opacity="1.00" d=" M 0.00 171.50 C 6.97 171.48 13.94 171.55 20.91 171.45 C 21.10 192.47 20.98 213.49 20.97 234.51 C 13.98 234.49 6.99 234.50 0.00 234.50 L 0.00 171.50 Z" />
<path fill="#000000" opacity="1.00" d=" M 266.03 248.49 C 273.02 248.50 280.01 248.49 287.00 248.50 L 287.00 287.00 L 241.50 287.00 C 241.48 280.02 241.53 273.04 241.46 266.07 C 249.64 265.91 257.82 266.04 266.00 266.00 C 266.02 260.16 265.97 254.32 266.03 248.49 Z" />
<path fill="#000000" opacity="1.00" d=" M 0.00 255.50 C 6.99 255.49 13.98 255.51 20.97 255.49 C 21.00 258.99 21.01 262.49 21.00 266.00 C 31.49 266.00 41.97 266.01 52.46 265.99 C 52.56 272.99 52.48 280.00 52.50 287.00 L 0.00 287.00 L 0.00 255.50 Z" />
<path fill="#000000" opacity="1.00" d=" M 73.38 266.18 C 94.42 265.80 115.48 266.06 136.52 266.04 C 136.48 273.03 136.51 280.01 136.50 287.00 L 73.50 287.00 C 73.44 280.06 73.63 273.11 73.38 266.18 Z" />
<path fill="#000000" opacity="1.00" d=" M 157.49 266.03 C 178.50 265.99 199.51 265.97 220.52 266.04 C 220.49 273.02 220.51 280.01 220.50 287.00 L 157.50 287.00 C 157.49 280.01 157.51 273.02 157.49 266.03 Z" />
</g>
</g>
<g xmlns="http://www.w3.org/2000/svg" class="sprite" id="white">
<g id="#ffffffff">
<path fill="#ffffff" opacity="1.00" d=" M 0.00 0.00 L 73.50 0.00 C 73.51 6.99 73.49 13.98 73.51 20.97 C 56.01 21.04 38.51 20.97 21.00 21.00 C 20.97 36.17 21.04 51.34 20.97 66.51 C 13.98 66.49 6.99 66.50 0.00 66.50 L 0.00 0.00 Z" />
<path fill="#ffffff" opacity="1.00" d=" M 94.50 0.00 L 157.50 0.00 C 157.54 6.96 157.42 13.92 157.58 20.88 C 136.55 21.14 115.52 20.96 94.49 20.97 C 94.51 13.98 94.49 6.99 94.50 0.00 Z" />
<path fill="#ffffff" opacity="1.00" d=" M 178.50 0.00 L 241.50 0.00 C 241.51 6.98 241.48 13.97 241.52 20.95 C 220.51 21.04 199.50 21.00 178.49 20.97 C 178.51 13.98 178.50 6.99 178.50 0.00 Z" />
<path fill="#ffffff" opacity="1.00" d=" M 262.50 0.00 L 287.00 0.00 L 287.00 59.50 C 280.01 59.50 273.02 59.49 266.03 59.51 C 265.97 46.69 266.02 33.86 266.00 21.04 C 264.83 21.01 263.65 20.97 262.48 20.94 C 262.51 13.96 262.49 6.98 262.50 0.00 Z" />
<path fill="#ffffff" opacity="1.00" d=" M 69.05 47.00 C 73.03 47.00 77.02 47.00 81.00 47.00 C 81.00 48.33 80.99 49.67 81.00 51.00 C 77.67 51.00 74.34 51.00 71.00 51.00 C 71.00 54.33 71.00 57.67 71.00 61.00 C 69.67 61.00 68.33 61.00 67.00 61.00 C 66.99 57.02 67.00 53.03 67.00 49.05 C 67.49 49.03 68.47 48.98 68.97 48.96 C 68.99 48.47 69.03 47.49 69.05 47.00 Z" />
<path fill="#ffffff" opacity="1.00" d=" M 85.00 47.00 C 89.00 47.00 93.00 47.00 97.00 47.00 C 96.99 48.33 96.99 49.67 97.00 51.00 C 93.00 51.00 89.00 51.00 85.00 51.00 C 85.00 49.66 85.00 48.33 85.00 47.00 Z" />
<path fill="#ffffff" opacity="1.00" d=" M 101.00 47.00 C 105.00 47.00 109.00 47.00 113.00 47.00 C 112.99 48.33 112.99 49.67 113.00 51.00 C 109.00 51.00 105.00 51.00 101.00 51.00 C 101.00 49.66 101.00 48.33 101.00 47.00 Z" />
<path fill="#ffffff" opacity="1.00" d=" M 117.00 47.00 C 121.00 47.00 125.00 47.00 129.00 47.00 C 128.99 48.33 129.00 49.66 129.00 51.00 C 125.00 51.00 121.00 51.00 117.00 51.00 C 117.00 49.67 117.00 48.33 117.00 47.00 Z" />
<path fill="#ffffff" opacity="1.00" d=" M 133.00 47.00 C 137.00 47.00 141.00 47.00 145.00 47.00 C 144.99 48.33 144.99 49.67 145.00 51.00 C 141.00 51.00 137.00 51.00 133.00 51.00 C 133.00 49.67 133.00 48.33 133.00 47.00 Z" />
<path fill="#ffffff" opacity="1.00" d=" M 149.00 47.00 C 153.00 47.00 157.00 47.00 161.00 47.00 C 160.99 48.33 160.99 49.67 161.00 51.00 C 157.00 51.00 153.00 51.00 149.00 51.00 C 149.00 49.67 149.00 48.33 149.00 47.00 Z" />
<path fill="#ffffff" opacity="1.00" d=" M 165.00 47.00 C 169.00 47.00 173.00 47.00 177.00 47.00 C 176.99 48.33 176.99 49.66 177.00 51.00 C 173.00 51.00 169.00 51.00 165.00 51.00 C 165.00 49.66 165.00 48.33 165.00 47.00 Z" />
<path fill="#ffffff" opacity="1.00" d=" M 181.00 47.00 C 185.00 47.00 189.00 47.00 193.00 47.00 C 192.99 48.33 192.99 49.66 193.00 51.00 C 189.00 51.00 185.00 51.00 181.00 51.00 C 181.00 49.66 181.00 48.33 181.00 47.00 Z" />
<path fill="#ffffff" opacity="1.00" d=" M 197.00 47.00 C 201.00 47.00 205.00 47.00 209.00 47.00 C 208.99 48.33 208.99 49.66 209.00 51.00 C 205.00 51.00 201.00 51.00 197.00 51.00 C 197.00 49.66 197.00 48.33 197.00 47.00 Z" />
<path fill="#ffffff" opacity="1.00" d=" M 213.00 47.00 C 217.00 47.00 221.00 47.00 225.00 47.00 C 224.99 48.33 224.99 49.66 225.00 51.00 C 221.00 51.00 217.00 51.00 213.00 51.00 C 213.00 49.67 213.00 48.33 213.00 47.00 Z" />
<path fill="#ffffff" opacity="1.00" d=" M 229.00 47.00 C 233.00 47.00 237.00 47.00 241.00 47.00 C 240.99 48.33 240.99 49.66 241.00 51.00 C 237.00 51.00 233.00 51.00 229.00 51.00 C 229.00 49.67 229.00 48.33 229.00 47.00 Z" />
<path fill="#ffffff" opacity="1.00" d=" M 240.01 52.00 C 241.33 52.00 242.66 52.00 244.00 52.00 C 244.00 56.00 244.00 60.00 244.00 64.00 C 242.66 64.00 241.33 64.00 240.00 64.00 C 240.00 60.00 239.99 56.00 240.01 52.00 Z" />
<path fill="#ffffff" opacity="1.00" d=" M 123.57 72.69 C 136.31 63.97 150.10 55.26 165.96 54.31 C 173.16 54.08 181.78 53.30 187.48 58.59 C 193.84 66.37 192.01 77.55 197.14 85.90 C 201.70 91.45 209.94 89.10 215.65 92.42 C 218.05 94.06 216.90 97.47 215.48 99.41 C 208.60 109.80 203.11 121.02 196.71 131.69 C 192.63 138.30 187.82 145.48 180.11 148.08 C 173.85 150.27 167.34 147.82 161.60 145.32 C 159.87 147.51 158.18 149.74 156.51 151.99 C 160.34 152.01 164.17 151.99 168.00 152.00 C 167.99 153.33 167.99 154.66 168.00 156.00 C 164.01 156.00 160.02 156.00 156.03 156.00 C 156.01 155.18 155.96 153.53 155.93 152.71 C 131.51 185.13 106.82 217.36 82.50 249.85 C 66.93 241.34 51.69 232.20 36.25 223.43 C 53.27 200.95 70.33 178.51 87.33 156.01 C 83.55 155.99 79.78 156.01 76.00 156.00 C 76.00 154.66 76.00 153.33 76.00 152.00 C 79.99 151.99 83.99 152.00 87.98 152.00 C 88.00 152.78 88.03 154.34 88.04 155.12 C 98.45 141.34 108.89 127.57 119.35 113.81 C 114.40 107.59 106.99 101.55 107.14 92.93 C 108.59 83.80 116.71 77.94 123.57 72.69 Z" />
<path fill="#ffffff" opacity="1.00" d=" M 67.00 65.00 C 68.33 65.00 69.66 65.00 71.00 65.00 C 71.00 69.00 71.00 73.00 71.00 77.00 C 69.66 77.00 68.33 77.00 67.00 77.00 C 67.00 73.00 66.99 69.00 67.00 65.00 Z" />
<path fill="#ffffff" opacity="1.00" d=" M 240.00 68.00 C 241.33 68.00 242.66 68.00 244.00 68.00 C 244.00 72.00 244.00 76.00 244.00 80.00 C 242.66 80.00 241.33 80.00 240.00 80.00 C 240.00 76.00 239.99 72.00 240.00 68.00 Z" />
<path fill="#ffffff" opacity="1.00" d=" M 266.03 80.49 C 273.02 80.51 280.01 80.49 287.00 80.50 L 287.00 143.50 C 280.01 143.51 273.02 143.49 266.03 143.51 C 265.98 122.51 265.98 101.49 266.03 80.49 Z" />
<path fill="#ffffff" opacity="1.00" d=" M 67.00 81.00 C 68.33 81.00 69.66 81.00 71.00 81.00 C 71.00 85.00 71.00 89.00 71.00 93.00 C 69.66 93.00 68.33 92.99 67.00 93.00 C 67.00 89.00 67.00 85.00 67.00 81.00 Z" />
<path fill="#ffffff" opacity="1.00" d=" M 240.00 84.00 C 241.33 84.00 242.66 84.00 244.00 84.00 C 244.00 88.00 244.00 92.00 244.00 96.00 C 242.66 95.99 241.33 95.99 240.00 96.00 C 239.99 92.00 240.00 88.00 240.00 84.00 Z" />
<path fill="#ffffff" opacity="1.00" d=" M 0.00 87.50 C 6.99 87.49 13.98 87.51 20.97 87.49 C 21.01 108.50 21.04 129.51 20.96 150.52 C 13.97 150.48 6.99 150.51 0.00 150.50 L 0.00 87.50 Z" />
<path fill="#ffffff" opacity="1.00" d=" M 67.00 97.00 C 68.33 97.00 69.66 97.00 71.00 97.00 C 71.00 101.00 71.00 105.00 71.00 109.00 C 69.66 108.99 68.33 108.99 67.00 109.00 C 67.00 105.00 67.00 101.00 67.00 97.00 Z" />
<path fill="#ffffff" opacity="1.00" d=" M 240.00 100.00 C 241.33 100.00 242.66 100.00 244.00 100.00 C 244.00 104.00 244.00 108.00 244.00 112.00 C 242.66 111.99 241.33 112.00 240.00 112.00 C 239.99 108.00 240.00 104.00 240.00 100.00 Z" />
<path fill="#ffffff" opacity="1.00" d=" M 67.00 113.00 C 68.33 113.00 69.66 113.00 71.00 113.00 C 71.00 117.00 71.00 121.00 71.00 125.00 C 69.67 124.99 68.33 125.00 67.00 125.00 C 67.00 121.00 67.00 117.00 67.00 113.00 Z" />
<path fill="#ffffff" opacity="1.00" d=" M 240.00 116.00 C 241.33 116.00 242.66 116.00 244.00 116.00 C 244.00 120.00 244.00 124.00 244.00 128.00 C 242.66 127.99 241.33 127.99 240.00 128.00 C 240.00 124.00 240.00 120.00 240.00 116.00 Z" />
<path fill="#ffffff" opacity="1.00" d=" M 67.00 129.00 C 68.33 129.00 69.66 129.00 71.00 129.00 C 71.00 133.00 71.00 137.00 71.00 141.00 C 69.66 140.99 68.33 140.99 67.00 141.00 C 67.00 137.00 67.00 133.00 67.00 129.00 Z" />
<path fill="#ffffff" opacity="1.00" d=" M 240.00 132.00 C 241.33 132.00 242.66 132.00 244.00 132.00 C 244.00 136.00 244.00 140.00 244.00 144.00 C 242.66 143.99 241.33 143.99 240.00 144.00 C 239.99 140.00 239.99 136.00 240.00 132.00 Z" />
<path fill="#ffffff" opacity="1.00" d=" M 67.00 145.00 C 68.33 145.00 69.66 145.00 71.00 145.00 C 70.99 147.20 70.98 149.39 71.03 151.59 C 72.72 152.45 71.75 154.55 72.02 156.00 C 70.34 156.00 68.67 156.00 67.00 156.00 C 67.00 152.33 67.00 148.67 67.00 145.00 Z" />
<path fill="#ffffff" opacity="1.00" d=" M 240.01 148.00 C 241.33 148.00 242.66 148.00 243.99 148.00 C 244.00 150.66 244.00 153.33 244.00 155.99 C 241.33 156.00 238.66 156.00 236.00 155.99 C 236.00 154.66 236.00 153.34 236.00 152.01 C 237.33 152.00 238.66 152.00 239.99 151.99 C 239.99 150.66 240.00 149.33 240.01 148.00 Z" />
<path fill="#ffffff" opacity="1.00" d=" M 172.00 152.00 C 176.00 152.00 180.00 152.00 184.00 152.00 C 183.99 153.33 183.99 154.66 184.00 156.00 C 180.00 156.00 176.00 156.00 172.00 156.00 C 172.00 154.66 172.00 153.33 172.00 152.00 Z" />
<path fill="#ffffff" opacity="1.00" d=" M 188.00 152.00 C 192.00 152.00 196.00 152.00 200.00 152.00 C 199.99 153.33 199.99 154.66 200.00 156.00 C 196.00 156.00 192.00 156.00 188.00 156.00 C 188.00 154.66 188.00 153.33 188.00 152.00 Z" />
<path fill="#ffffff" opacity="1.00" d=" M 204.00 152.00 C 208.00 152.00 212.00 152.00 216.00 152.00 C 215.99 153.33 215.99 154.66 216.00 156.00 C 212.00 156.00 208.00 156.00 204.00 156.00 C 204.00 154.66 204.00 153.33 204.00 152.00 Z" />
<path fill="#ffffff" opacity="1.00" d=" M 220.00 152.00 C 224.00 152.00 228.00 152.00 232.00 152.00 C 231.99 153.33 231.99 154.66 232.00 156.00 C 228.00 156.00 224.00 156.00 220.00 156.00 C 220.00 154.66 220.00 153.33 220.00 152.00 Z" />
<path fill="#ffffff" opacity="1.00" d=" M 266.04 164.48 C 273.02 164.51 280.01 164.49 287.00 164.50 L 287.00 227.50 C 280.01 227.50 273.02 227.49 266.03 227.51 C 265.99 206.50 265.97 185.49 266.04 164.48 Z" />
<path fill="#ffffff" opacity="1.00" d=" M 0.00 171.50 C 6.97 171.48 13.94 171.55 20.91 171.45 C 21.10 192.47 20.98 213.49 20.97 234.51 C 13.98 234.49 6.99 234.50 0.00 234.50 L 0.00 171.50 Z" />
<path fill="#ffffff" opacity="1.00" d=" M 266.03 248.49 C 273.02 248.50 280.01 248.49 287.00 248.50 L 287.00 287.00 L 241.50 287.00 C 241.48 280.02 241.53 273.04 241.46 266.07 C 249.64 265.91 257.82 266.04 266.00 266.00 C 266.02 260.16 265.97 254.32 266.03 248.49 Z" />
<path fill="#ffffff" opacity="1.00" d=" M 0.00 255.50 C 6.99 255.49 13.98 255.51 20.97 255.49 C 21.00 258.99 21.01 262.49 21.00 266.00 C 31.49 266.00 41.97 266.01 52.46 265.99 C 52.56 272.99 52.48 280.00 52.50 287.00 L 0.00 287.00 L 0.00 255.50 Z" />
<path fill="#ffffff" opacity="1.00" d=" M 73.38 266.18 C 94.42 265.80 115.48 266.06 136.52 266.04 C 136.48 273.03 136.51 280.01 136.50 287.00 L 73.50 287.00 C 73.44 280.06 73.63 273.11 73.38 266.18 Z" />
<path fill="#ffffff" opacity="1.00" d=" M 157.49 266.03 C 178.50 265.99 199.51 265.97 220.52 266.04 C 220.49 273.02 220.51 280.01 220.50 287.00 L 157.50 287.00 C 157.49 280.01 157.51 273.02 157.49 266.03 Z" />
</g>
</g>
<defs xmlns="http://www.w3.org/2000/svg">
    <style><![CDATA[
        .sprite { display: none; }
        .sprite:target { display: inline; }
    ]]></style>
</defs>
</svg>
