<?xml version="1.0" encoding="UTF-8" ?>
<!DOCTYPE svg PUBLIC "-//W3C//DTD SVG 1.1//EN" "http://www.w3.org/Graphics/SVG/1.1/DTD/svg11.dtd">
<svg width="150pt" height="150pt" viewBox="0 0 150 150" version="1.1" xmlns="http://www.w3.org/2000/svg">
<g id="#42332eff">
<path fill="#42332e" opacity="1.00" d=" M 25.50 0.00 L 124.45 0.00 C 137.45 -0.25 149.51 10.54 150.00 23.66 L 150.00 25.00 C 110.64 25.00 71.29 25.00 31.93 25.00 L 31.08 25.00 C 28.69 25.00 26.31 25.00 23.93 25.00 L 23.07 25.00 C 15.38 24.97 7.69 25.07 0.00 24.93 L 0.00 24.40 C 0.35 11.13 12.26 -0.16 25.50 0.00 Z" />
</g>
<g id="#fbf293ff">
<path fill="#fbf293" opacity="1.00" d=" M 0.00 24.93 C 7.69 25.07 15.38 24.97 23.07 25.00 C 22.94 31.67 23.01 38.33 22.99 45.00 C 15.33 44.95 7.66 45.12 0.00 44.86 L 0.00 24.93 Z" />
<path fill="#fbf293" opacity="1.00" d=" M 23.93 25.00 C 26.31 25.00 28.69 25.00 31.08 25.00 C 30.93 31.77 31.07 38.54 30.90 45.31 C 28.69 44.63 26.31 44.63 24.10 45.32 C 23.94 38.55 24.07 31.77 23.93 25.00 Z" />
<path fill="#fbf293" opacity="1.00" d=" M 31.93 25.00 C 71.29 25.00 110.64 25.00 150.00 25.00 L 150.00 45.00 C 110.67 45.00 71.34 45.00 32.01 45.00 C 31.99 38.33 32.05 31.67 31.93 25.00 Z" />
<path fill="#fbf293" opacity="1.00" d=" M 0.00 45.84 C 7.66 46.15 15.33 45.95 22.99 46.00 C 23.00 53.33 23.00 60.66 23.00 67.99 C 15.33 67.98 7.67 68.06 0.00 67.92 L 0.00 45.84 Z" />
<path fill="#fbf293" opacity="1.00" d=" M 24.10 45.67 C 26.31 46.38 28.70 46.37 30.90 45.65 C 31.06 53.10 30.99 60.55 31.00 67.99 C 28.66 67.99 26.33 67.99 24.00 67.99 C 24.02 60.55 23.93 53.11 24.10 45.67 Z" />
<path fill="#fbf293" opacity="1.00" d=" M 32.01 46.00 C 71.34 46.00 110.67 45.99 150.00 46.01 L 150.00 68.00 C 110.67 68.00 71.33 68.00 32.00 67.99 C 32.00 60.66 32.00 53.33 32.01 46.00 Z" />
<path fill="#fbf293" opacity="1.00" d=" M 0.00 68.88 C 7.70 69.13 15.39 68.93 23.09 69.04 C 23.12 76.36 23.11 83.67 23.09 90.99 C 15.39 90.98 7.70 91.07 0.00 90.91 L 0.00 68.88 Z" />
<path fill="#fbf293" opacity="1.00" d=" M 23.93 69.02 C 26.30 69.02 28.68 69.03 31.05 69.03 C 31.20 76.35 31.16 83.67 31.06 90.99 C 28.68 90.99 26.29 90.99 23.91 90.99 C 23.91 83.67 23.86 76.34 23.93 69.02 Z" />
<path fill="#fbf293" opacity="1.00" d=" M 31.88 69.04 C 71.25 68.86 110.63 69.22 150.00 68.86 L 150.00 91.00 C 110.63 90.99 71.25 91.01 31.88 90.99 C 31.96 83.68 31.96 76.36 31.88 69.04 Z" />
<path fill="#fbf293" opacity="1.00" d=" M 0.00 91.88 C 7.70 92.14 15.41 91.92 23.11 92.04 C 23.13 99.03 23.11 106.01 23.11 113.00 C 15.41 112.97 7.70 113.09 0.00 112.91 L 0.00 91.88 Z" />
<path fill="#fbf293" opacity="1.00" d=" M 23.94 92.03 C 26.32 92.03 28.71 92.02 31.09 92.02 C 31.10 99.01 31.13 106.01 31.10 113.00 C 28.71 113.00 26.32 113.00 23.93 113.00 C 23.89 106.01 23.89 99.02 23.94 92.03 Z" />
<path fill="#fbf293" opacity="1.00" d=" M 31.92 92.04 C 71.28 91.99 110.64 91.95 150.00 92.06 L 150.00 113.00 C 110.64 113.00 71.28 113.00 31.92 113.00 C 31.91 106.01 31.85 99.02 31.92 92.04 Z" />
<path fill="#fbf293" opacity="1.00" d=" M 0.00 113.83 C 7.66 114.16 15.33 113.95 23.00 114.00 C 22.98 121.33 23.04 128.66 22.95 136.00 C 16.18 136.08 9.40 135.82 2.64 136.25 C 1.35 133.12 0.45 129.83 0.00 126.48 L 0.00 113.83 Z" />
<path fill="#fbf293" opacity="1.00" d=" M 24.00 114.00 C 26.33 114.00 28.67 114.00 31.00 114.00 C 30.98 121.34 31.04 128.68 30.94 136.02 C 28.64 136.02 26.34 136.01 24.04 136.00 C 23.97 128.67 24.01 121.33 24.00 114.00 Z" />
<path fill="#fbf293" opacity="1.00" d=" M 32.00 114.00 C 71.33 114.02 110.67 113.97 150.00 114.02 L 150.00 129.40 C 147.93 139.57 139.65 147.52 129.69 150.00 L 31.99 150.00 C 32.00 145.77 32.00 141.55 32.00 137.32 C 66.33 137.35 100.65 137.32 134.98 137.34 C 139.13 137.25 143.46 137.98 147.41 136.33 C 142.28 135.77 137.12 136.04 131.98 136.01 C 98.66 135.98 65.35 136.06 32.03 135.97 C 31.97 128.65 32.01 121.32 32.00 114.00 Z" />
<path fill="#fbf293" opacity="1.00" d=" M 3.21 137.16 C 9.80 137.55 16.40 137.25 23.00 137.33 C 23.01 141.55 23.01 145.78 23.01 150.00 L 20.57 150.00 C 13.43 148.06 6.83 143.74 3.21 137.16 Z" />
<path fill="#fbf293" opacity="1.00" d=" M 24.00 137.33 C 26.33 137.32 28.67 137.32 31.00 137.32 C 31.01 141.55 31.00 145.77 30.99 150.00 L 24.00 150.00 C 24.00 145.77 24.00 141.55 24.00 137.33 Z" />
</g>
<g id="#e0ac8bff">
<path fill="#e0ac8b" opacity="1.00" d=" M 23.07 25.00 L 23.93 25.00 C 24.07 31.77 23.94 38.55 24.10 45.32 L 24.10 45.67 C 23.93 53.11 24.02 60.55 24.00 67.99 L 23.00 67.99 C 23.00 60.66 23.00 53.33 22.99 46.00 L 22.99 45.00 C 23.01 38.33 22.94 31.67 23.07 25.00 Z" />
<path fill="#e0ac8b" opacity="1.00" d=" M 31.08 25.00 L 31.93 25.00 C 32.05 31.67 31.99 38.33 32.01 45.00 L 32.01 46.00 C 32.00 53.33 32.00 60.66 32.00 67.99 L 31.00 67.99 C 30.99 60.55 31.06 53.10 30.90 45.65 L 30.90 45.31 C 31.07 38.54 30.93 31.77 31.08 25.00 Z" />
</g>
<g id="#bfb86eff">
<path fill="#bfb86e" opacity="1.00" d=" M 0.00 44.86 C 7.66 45.12 15.33 44.95 22.99 45.00 L 22.99 46.00 C 15.33 45.95 7.66 46.15 0.00 45.84 L 0.00 44.86 Z" />
</g>
<g id="#beb76eff">
<path fill="#beb76e" opacity="1.00" d=" M 24.10 45.32 C 26.31 44.63 28.69 44.63 30.90 45.31 L 30.90 45.65 C 28.70 46.37 26.31 46.38 24.10 45.67 L 24.10 45.32 Z" />
<path fill="#beb76e" opacity="1.00" d=" M 32.01 45.00 C 71.34 45.00 110.67 45.00 150.00 45.00 L 150.00 46.01 C 110.67 45.99 71.34 46.00 32.01 46.00 L 32.01 45.00 Z" />
<path fill="#beb76e" opacity="1.00" d=" M 0.00 112.91 C 7.70 113.09 15.41 112.97 23.11 113.00 L 23.93 113.00 C 26.32 113.00 28.71 113.00 31.10 113.00 L 31.92 113.00 C 71.28 113.00 110.64 113.00 150.00 113.00 L 150.00 114.02 C 110.67 113.97 71.33 114.02 32.00 114.00 L 31.00 114.00 C 28.67 114.00 26.33 114.00 24.00 114.00 L 23.00 114.00 C 15.33 113.95 7.66 114.16 0.00 113.83 L 0.00 112.91 Z" />
</g>
<g id="#c6b475ff">
<path fill="#c6b475" opacity="1.00" d=" M 0.00 67.92 C 7.67 68.06 15.33 67.98 23.00 67.99 L 24.00 67.99 C 26.33 67.99 28.66 67.99 31.00 67.99 L 32.00 67.99 C 71.33 68.00 110.67 68.00 150.00 68.00 L 150.00 68.86 C 110.63 69.22 71.25 68.86 31.88 69.04 C 31.96 76.36 31.96 83.68 31.88 90.99 L 31.06 90.99 C 31.16 83.67 31.20 76.35 31.05 69.03 C 28.68 69.03 26.30 69.02 23.93 69.02 C 23.86 76.34 23.91 83.67 23.91 90.99 L 23.09 90.99 C 23.11 83.67 23.12 76.36 23.09 69.04 C 15.39 68.93 7.70 69.13 0.00 68.88 L 0.00 67.92 Z" />
</g>
<g id="#c6b474ff">
<path fill="#c6b474" opacity="1.00" d=" M 0.00 90.91 C 7.70 91.07 15.39 90.98 23.09 90.99 L 23.91 90.99 C 26.29 90.99 28.68 90.99 31.06 90.99 L 31.88 90.99 C 71.25 91.01 110.63 90.99 150.00 91.00 L 150.00 92.06 C 110.64 91.95 71.28 91.99 31.92 92.04 C 31.85 99.02 31.91 106.01 31.92 113.00 L 31.10 113.00 C 31.13 106.01 31.10 99.01 31.09 92.02 C 28.71 92.02 26.32 92.03 23.94 92.03 C 23.89 99.02 23.89 106.01 23.93 113.00 L 23.11 113.00 C 23.11 106.01 23.13 99.03 23.11 92.04 C 15.41 91.92 7.70 92.14 0.00 91.88 L 0.00 90.91 Z" />
</g>
<g id="#d2c07cff">
<path fill="#d2c07c" opacity="1.00" d=" M 23.00 114.00 L 24.00 114.00 C 24.01 121.33 23.97 128.67 24.04 136.00 C 26.34 136.01 28.64 136.02 30.94 136.02 C 31.04 128.68 30.98 121.34 31.00 114.00 L 32.00 114.00 C 32.01 121.32 31.97 128.65 32.03 135.97 C 65.35 136.06 98.66 135.98 131.98 136.01 C 137.12 136.04 142.28 135.77 147.41 136.33 C 143.46 137.98 139.13 137.25 134.98 137.34 C 100.65 137.32 66.33 137.35 32.00 137.32 L 31.00 137.32 C 28.67 137.32 26.33 137.32 24.00 137.33 L 23.00 137.33 C 16.40 137.25 9.80 137.55 3.21 137.16 L 2.64 136.25 C 9.40 135.82 16.18 136.08 22.95 136.00 C 23.04 128.66 22.98 121.33 23.00 114.00 Z" />
</g>
<g id="#dfab8aff">
<path fill="#dfab8a" opacity="1.00" d=" M 23.00 137.33 L 24.00 137.33 C 24.00 141.55 24.00 145.77 24.00 150.00 L 23.01 150.00 C 23.01 145.78 23.01 141.55 23.00 137.33 Z" />
<path fill="#dfab8a" opacity="1.00" d=" M 31.00 137.32 L 32.00 137.32 C 32.00 141.55 32.00 145.77 31.99 150.00 L 30.99 150.00 C 31.00 145.77 31.01 141.55 31.00 137.32 Z" />
</g>
</svg>
