<?xml version="1.0" encoding="UTF-8" ?>
<!DOCTYPE svg PUBLIC "-//W3C//DTD SVG 1.1//EN" "http://www.w3.org/Graphics/SVG/1.1/DTD/svg11.dtd">
<svg width="354pt" height="355pt" viewBox="0 0 354 355" version="1.1" xmlns="http://www.w3.org/2000/svg">
<g id="#000000ff">
<path fill="#000000" opacity="1.00" d=" M 156.92 19.38 C 164.76 15.66 173.45 13.51 182.17 14.20 C 182.03 16.87 181.83 19.53 181.56 22.19 C 174.30 21.60 167.06 23.42 160.54 26.53 C 159.28 24.17 158.09 21.78 156.92 19.38 Z" />
<path fill="#000000" opacity="1.00" d=" M 188.93 23.31 C 189.47 20.68 190.12 18.07 190.86 15.49 C 199.12 17.87 206.89 22.01 213.31 27.75 C 211.58 29.76 209.84 31.77 208.09 33.77 C 202.59 28.91 196.00 25.29 188.93 23.31 Z" />
<path fill="#000000" opacity="1.00" d=" M 149.46 23.90 C 151.06 26.03 152.62 28.19 154.13 30.38 C 148.01 34.82 142.95 40.49 138.57 46.61 C 136.38 45.10 134.20 43.58 132.01 42.07 C 136.89 35.19 142.63 28.88 149.46 23.90 Z" />
<path fill="#000000" opacity="1.00" d=" M 219.40 33.66 C 225.00 39.93 229.54 47.07 233.16 54.64 C 230.75 55.78 228.34 56.93 225.93 58.07 C 222.63 51.22 218.54 44.73 213.48 39.04 C 215.45 37.24 217.42 35.45 219.40 33.66 Z" />
<path fill="#000000" opacity="1.00" d=" M 142.00 47.00 C 150.00 47.00 158.00 47.00 166.00 47.00 C 166.00 49.67 166.00 52.33 166.00 55.00 C 158.00 55.00 150.00 55.00 142.00 55.00 C 142.00 52.33 142.00 49.67 142.00 47.00 Z" />
<path fill="#000000" opacity="1.00" d=" M 174.00 47.00 C 182.00 47.00 190.00 47.00 198.00 47.00 C 198.00 49.67 198.00 52.33 198.00 55.00 C 190.00 55.00 182.00 55.00 174.00 55.00 C 174.00 52.33 174.00 49.67 174.00 47.00 Z" />
<path fill="#000000" opacity="1.00" d=" M 206.00 47.00 C 209.88 46.99 213.76 46.99 217.63 47.02 C 217.62 49.67 217.62 52.32 217.64 54.97 C 213.76 55.01 209.88 55.01 206.00 55.00 C 206.00 52.33 206.00 49.67 206.00 47.00 Z" />
<path fill="#000000" opacity="1.00" d=" M 118.33 72.34 C 120.58 64.33 123.56 56.50 127.70 49.26 C 130.03 50.55 132.36 51.84 134.69 53.12 C 130.93 59.83 128.16 67.04 126.07 74.43 C 123.49 73.75 120.90 73.05 118.33 72.34 Z" />
<path fill="#000000" opacity="1.00" d=" M 228.98 65.13 C 231.46 64.18 233.94 63.21 236.42 62.25 C 239.32 70.03 241.37 78.11 242.61 86.32 C 239.99 86.71 237.37 87.10 234.75 87.49 C 233.56 79.87 231.58 72.39 228.98 65.13 Z" />
<path fill="#000000" opacity="1.00" d=" M 166.02 71.49 C 174.01 71.48 181.99 71.30 189.99 71.37 C 190.00 74.04 190.00 76.70 190.00 79.37 C 182.00 79.30 174.00 79.48 166.00 79.50 C 165.99 76.83 166.00 74.16 166.02 71.49 Z" />
<path fill="#000000" opacity="1.00" d=" M 198.01 71.24 C 206.01 71.23 214.00 71.05 221.99 71.12 C 222.00 73.79 222.00 76.45 221.99 79.12 C 214.00 79.05 206.00 79.23 198.01 79.25 C 197.99 76.58 198.00 73.91 198.01 71.24 Z" />
<path fill="#000000" opacity="1.00" d=" M 134.01 71.75 C 142.00 71.72 150.00 71.55 157.99 71.63 C 158.01 74.29 158.00 76.96 157.98 79.63 C 149.99 79.54 142.00 79.72 134.01 79.75 C 134.00 77.09 133.99 74.42 134.01 71.75 Z" />
<path fill="#000000" opacity="1.00" d=" M 115.79 126.02 C 113.36 110.92 113.45 95.37 116.53 80.38 C 119.12 80.92 121.71 81.46 124.30 82.01 C 121.54 96.07 121.33 110.59 123.67 124.73 C 121.04 125.14 118.41 125.57 115.79 126.02 Z" />
<path fill="#000000" opacity="1.00" d=" M 235.63 95.17 C 238.29 94.95 240.95 94.72 243.61 94.49 C 244.07 102.74 244.14 111.03 243.19 119.24 C 240.55 118.93 237.92 118.63 235.28 118.34 C 236.12 110.65 236.11 102.89 235.63 95.17 Z" />
<path fill="#000000" opacity="1.00" d=" M 157.04 96.48 C 165.02 96.59 173.00 96.40 180.98 96.37 C 181.00 99.04 181.01 101.70 181.00 104.37 C 173.00 104.40 165.00 104.58 157.00 104.50 C 156.98 101.82 157.00 99.15 157.04 96.48 Z" />
<path fill="#000000" opacity="1.00" d=" M 189.01 96.25 C 197.00 96.25 205.00 96.25 212.99 96.25 C 213.00 98.91 213.00 101.58 213.00 104.25 C 205.00 104.25 197.00 104.25 189.01 104.25 C 188.99 101.58 189.00 98.91 189.01 96.25 Z" />
<path fill="#000000" opacity="1.00" d=" M 221.01 96.12 C 224.46 96.12 227.91 96.12 231.37 96.13 C 231.38 98.74 231.38 101.35 231.37 103.97 C 227.92 104.03 224.46 104.11 221.00 104.14 C 220.99 101.47 221.00 98.79 221.01 96.12 Z" />
<path fill="#000000" opacity="1.00" d=" M 125.01 96.75 C 133.00 96.83 141.00 96.54 149.00 96.63 C 149.01 99.29 149.00 101.96 148.98 104.63 C 140.99 104.53 133.00 104.83 125.01 104.76 C 125.00 102.09 124.99 99.42 125.01 96.75 Z" />
<path fill="#000000" opacity="1.00" d=" M 158.03 121.49 C 166.01 121.58 174.00 121.40 181.98 121.37 C 182.00 124.04 182.00 126.70 182.00 129.37 C 174.00 129.40 166.00 129.58 158.00 129.50 C 157.99 126.82 158.00 124.16 158.03 121.49 Z" />
<path fill="#000000" opacity="1.00" d=" M 190.01 121.25 C 198.00 121.25 205.99 121.25 213.99 121.24 C 214.00 123.91 214.00 126.58 213.99 129.25 C 206.00 129.25 198.00 129.25 190.01 129.25 C 189.99 126.58 190.00 123.91 190.01 121.25 Z" />
<path fill="#000000" opacity="1.00" d=" M 222.01 121.12 C 225.46 121.12 228.91 121.12 232.37 121.13 C 232.38 123.74 232.38 126.35 232.38 128.97 C 228.92 129.03 225.46 129.11 222.00 129.14 C 221.99 126.47 222.00 123.79 222.01 121.12 Z" />
<path fill="#000000" opacity="1.00" d=" M 126.01 121.75 C 134.00 121.83 142.00 121.53 150.00 121.63 C 150.01 124.30 150.00 126.96 149.98 129.63 C 141.99 129.53 134.00 129.83 126.01 129.75 C 126.00 127.09 125.99 124.42 126.01 121.75 Z" />
<path fill="#000000" opacity="1.00" d=" M 234.16 126.00 C 236.77 126.46 239.38 126.92 242.00 127.37 C 240.55 135.55 238.23 143.59 235.03 151.26 C 234.38 150.97 233.08 150.40 232.43 150.11 C 232.40 150.58 232.34 151.51 232.30 151.98 C 228.87 152.03 225.44 152.11 222.01 152.14 C 221.99 149.47 222.00 146.79 222.01 144.12 C 224.37 144.11 226.73 144.12 229.09 144.18 C 231.44 138.33 232.96 132.18 234.16 126.00 Z" />
<path fill="#000000" opacity="1.00" d=" M 117.51 134.11 C 120.09 133.49 122.67 132.88 125.25 132.27 C 126.28 136.50 127.55 140.67 129.08 144.75 C 136.05 144.80 143.02 144.52 150.00 144.63 C 150.01 147.29 150.00 149.96 149.98 152.63 C 144.48 152.60 138.98 152.60 133.48 152.79 C 131.64 155.29 128.46 156.01 125.88 157.48 C 122.18 150.05 119.33 142.20 117.51 134.11 Z" />
<path fill="#000000" opacity="1.00" d=" M 158.03 144.48 C 166.01 144.58 174.00 144.40 181.98 144.37 C 182.00 147.04 182.01 149.70 182.00 152.37 C 174.00 152.40 166.00 152.58 158.00 152.50 C 157.99 149.82 158.00 147.15 158.03 144.48 Z" />
<path fill="#000000" opacity="1.00" d=" M 190.01 144.25 C 198.00 144.25 206.00 144.25 213.99 144.25 C 214.00 146.91 214.00 149.58 213.99 152.25 C 206.00 152.25 198.00 152.25 190.01 152.25 C 189.99 149.58 190.00 146.91 190.01 144.25 Z" />
<path fill="#000000" opacity="1.00" d=" M 224.40 155.07 C 226.75 156.30 229.10 157.53 231.46 158.76 C 227.65 166.24 222.69 173.12 216.82 179.12 C 214.77 177.14 212.77 175.11 210.88 172.99 C 207.25 173.03 203.63 173.14 200.01 173.13 C 199.99 170.46 200.00 167.79 200.01 165.12 C 204.26 165.13 208.51 165.12 212.76 165.13 C 212.74 167.37 212.73 169.61 212.74 171.85 C 217.36 166.81 221.21 161.10 224.40 155.07 Z" />
<path fill="#000000" opacity="1.00" d=" M 130.00 164.82 C 132.26 163.39 134.52 161.98 136.80 160.58 C 137.93 162.32 139.09 164.04 140.29 165.74 C 146.86 165.59 153.42 165.61 160.00 165.63 C 160.00 168.29 160.00 170.96 159.99 173.63 C 155.63 173.62 151.27 173.63 146.91 173.61 C 148.46 174.95 150.01 176.30 151.55 177.65 C 149.87 179.69 148.21 181.76 146.59 183.85 C 139.93 178.62 134.48 171.97 130.00 164.82 Z" />
<path fill="#000000" opacity="1.00" d=" M 168.01 165.37 C 176.01 165.46 184.00 165.28 191.99 165.25 C 192.00 167.91 192.00 170.58 191.99 173.25 C 184.00 173.28 176.00 173.45 168.00 173.37 C 167.99 170.70 168.00 168.04 168.01 165.37 Z" />
<path fill="#000000" opacity="1.00" d=" M 185.62 187.48 C 192.92 186.17 199.64 182.79 205.59 178.45 C 207.20 180.57 208.80 182.69 210.42 184.81 C 203.50 189.94 195.55 193.86 187.00 195.31 C 186.54 192.70 186.08 190.09 185.62 187.48 Z" />
<path fill="#000000" opacity="1.00" d=" M 157.47 181.94 C 163.92 185.41 170.98 187.90 178.37 188.03 C 178.37 189.33 178.36 190.64 178.36 191.95 C 179.12 191.97 180.62 192.02 181.38 192.04 C 181.37 200.02 181.38 208.01 181.37 216.00 C 178.70 216.00 176.04 216.00 173.37 215.99 C 173.38 209.25 173.37 202.51 173.38 195.77 C 166.39 194.65 159.59 192.36 153.50 188.72 C 154.87 186.49 156.21 184.24 157.47 181.94 Z" />
<path fill="#000000" opacity="1.00" d=" M 173.25 224.01 C 175.91 224.00 178.58 223.99 181.25 224.01 C 181.25 232.00 181.25 240.00 181.25 247.99 C 178.58 248.00 175.91 248.00 173.24 247.99 C 173.25 239.99 173.25 232.00 173.25 224.01 Z" />
<path fill="#000000" opacity="1.00" d=" M 173.12 256.01 C 175.79 255.99 178.45 255.99 181.12 256.01 C 181.13 264.00 181.13 272.00 181.12 279.99 C 178.45 280.00 175.79 280.00 173.12 279.99 C 173.13 272.00 173.13 264.00 173.12 256.01 Z" />
<path fill="#000000" opacity="1.00" d=" M 173.12 288.01 C 175.79 287.99 178.45 287.99 181.12 288.01 C 181.13 296.00 181.13 304.00 181.12 311.99 C 178.45 312.00 175.79 312.00 173.12 311.99 C 173.13 304.00 173.12 296.00 173.12 288.01 Z" />
<path fill="#000000" opacity="1.00" d=" M 173.00 320.00 C 175.67 319.99 178.33 319.99 181.00 320.00 C 181.00 322.16 181.00 324.33 181.00 326.50 C 178.33 326.50 175.67 326.50 173.00 326.50 C 173.00 324.33 173.00 322.16 173.00 320.00 Z" />
<path fill="#000000" opacity="1.00" d=" M 87.00 336.00 C 95.00 336.00 103.00 336.00 111.00 336.00 C 111.00 338.67 111.00 341.33 111.00 344.00 C 103.00 344.00 95.00 344.00 87.00 344.00 C 87.00 341.33 87.00 338.66 87.00 336.00 Z" />
<path fill="#000000" opacity="1.00" d=" M 119.00 336.00 C 127.00 336.00 135.00 336.00 143.00 336.00 C 143.00 338.67 143.00 341.33 143.00 344.00 C 135.00 344.00 127.00 344.00 119.00 344.00 C 119.00 341.33 119.00 338.66 119.00 336.00 Z" />
<path fill="#000000" opacity="1.00" d=" M 151.00 336.00 C 159.00 336.00 167.00 336.00 175.00 336.00 C 175.00 338.67 175.00 341.33 175.00 344.00 C 167.00 344.00 159.00 344.00 151.00 344.00 C 151.00 341.33 151.00 338.66 151.00 336.00 Z" />
<path fill="#000000" opacity="1.00" d=" M 183.00 336.00 C 191.00 336.00 199.00 336.00 207.00 336.00 C 207.00 338.66 207.00 341.33 207.00 344.00 C 199.00 344.00 191.00 344.00 183.00 344.00 C 183.00 341.33 183.00 338.67 183.00 336.00 Z" />
<path fill="#000000" opacity="1.00" d=" M 215.00 336.00 C 223.00 336.00 231.00 336.00 239.00 336.00 C 239.00 338.66 239.00 341.33 239.00 344.00 C 231.00 344.00 223.00 344.00 215.00 344.00 C 215.00 341.33 215.00 338.66 215.00 336.00 Z" />
<path fill="#000000" opacity="1.00" d=" M 247.00 336.00 C 254.04 336.00 261.08 335.99 268.12 336.01 C 268.13 338.67 268.13 341.33 268.12 343.99 C 261.08 344.01 254.04 344.00 247.00 344.00 C 246.99 341.33 247.00 338.66 247.00 336.00 Z" />
</g>
</svg>
