<?xml version="1.0" encoding="UTF-8" ?>
<!DOCTYPE svg PUBLIC "-//W3C//DTD SVG 1.1//EN" "http://www.w3.org/Graphics/SVG/1.1/DTD/svg11.dtd">
<svg width="361pt" height="354pt" viewBox="0 0 361 354" version="1.1" xmlns="http://www.w3.org/2000/svg">
<g class="sprite" id="badge">
<path fill="#000000" opacity="1.00" d=" M 0.00 74.00 C 9.33 74.00 18.67 74.00 28.00 74.00 C 28.00 76.67 28.00 79.33 28.00 82.00 C 21.33 82.01 14.67 81.99 8.00 82.00 C 8.00 86.00 8.00 90.00 8.00 94.00 C 5.33 94.00 2.67 94.00 0.00 94.00 L 0.00 74.00 Z" />
<path fill="#000000" opacity="1.00" d=" M 36.00 74.00 C 44.00 74.00 52.00 74.00 60.00 74.00 C 60.00 76.67 60.00 79.33 60.00 82.00 C 52.00 82.00 44.00 82.00 36.00 82.00 C 36.00 79.33 36.00 76.67 36.00 74.00 Z" />
<path fill="#000000" opacity="1.00" d=" M 68.00 74.00 C 76.00 74.00 84.00 74.00 92.00 74.00 C 92.00 76.67 92.00 79.33 92.00 82.00 C 84.00 82.00 76.00 82.00 68.00 82.00 C 68.00 79.33 68.00 76.67 68.00 74.00 Z" />
<path fill="#000000" opacity="1.00" d=" M 100.00 74.00 C 108.00 74.00 116.00 74.00 124.00 74.00 C 124.00 76.67 124.00 79.33 124.00 82.00 C 116.00 82.00 108.00 82.00 100.00 82.00 C 100.00 79.33 100.00 76.67 100.00 74.00 Z" />
<path fill="#000000" opacity="1.00" d=" M 132.00 74.00 C 140.00 74.00 148.00 74.00 156.00 74.00 C 156.00 76.67 156.00 79.33 156.00 82.00 C 148.00 82.00 140.00 82.00 132.00 82.00 C 132.00 79.33 132.00 76.67 132.00 74.00 Z" />
<path fill="#000000" opacity="1.00" d=" M 164.00 74.00 C 172.00 74.00 180.00 74.00 188.00 74.00 C 188.00 76.67 188.00 79.33 188.00 82.00 C 180.00 82.00 172.00 82.00 164.00 82.00 C 164.00 79.33 164.00 76.67 164.00 74.00 Z" />
<path fill="#000000" opacity="1.00" d=" M 196.00 74.00 C 204.00 74.00 212.00 74.00 220.00 74.00 C 220.00 76.67 220.00 79.33 220.00 82.00 C 212.00 82.00 204.00 82.00 196.00 82.00 C 196.00 79.33 196.00 76.67 196.00 74.00 Z" />
<path fill="#000000" opacity="1.00" d=" M 228.00 74.00 C 236.00 74.00 244.00 74.00 252.00 74.00 C 252.00 76.67 252.00 79.33 252.00 82.00 C 244.00 82.00 236.00 82.00 228.00 82.00 C 228.00 79.33 228.00 76.67 228.00 74.00 Z" />
<path fill="#000000" opacity="1.00" d=" M 260.00 74.00 C 268.00 74.00 276.00 74.00 284.00 74.00 C 284.00 76.67 284.00 79.33 284.00 82.00 C 276.00 82.00 268.00 82.00 260.00 82.00 C 260.00 79.33 260.00 76.67 260.00 74.00 Z" />
<path fill="#000000" opacity="1.00" d=" M 292.00 74.00 C 300.00 74.00 308.00 74.00 316.00 74.00 C 316.00 76.67 316.00 79.33 316.00 82.00 C 308.00 82.00 300.00 82.00 292.00 82.00 C 292.00 79.33 292.00 76.67 292.00 74.00 Z" />
<path fill="#000000" opacity="1.00" d=" M 324.00 74.00 C 332.00 74.00 340.00 74.00 348.00 74.00 C 348.00 76.67 348.00 79.33 348.00 82.00 C 340.00 82.00 332.00 82.00 324.00 82.00 C 324.00 79.33 324.00 76.67 324.00 74.00 Z" />
<path fill="#000000" opacity="1.00" d=" M 356.01 74.00 C 357.67 74.00 359.33 74.00 361.00 74.00 L 361.00 101.00 C 358.33 101.00 355.67 101.00 353.00 101.00 C 352.99 93.34 353.00 85.69 353.00 78.03 C 353.75 78.02 355.25 77.98 356.00 77.97 C 356.00 76.65 356.00 75.32 356.01 74.00 Z" />
<path fill="#000000" opacity="1.00" d=" M 0.00 102.00 C 2.67 102.00 5.33 102.00 8.00 102.00 C 8.00 110.00 8.00 118.00 8.00 126.00 C 5.33 126.00 2.67 126.00 0.00 126.00 L 0.00 102.00 Z" />
<path fill="#000000" opacity="1.00" d=" M 353.00 109.00 C 355.67 109.00 358.33 109.00 361.00 109.00 L 361.00 133.00 C 358.33 133.00 355.67 133.00 353.00 133.00 C 353.00 125.00 353.00 117.00 353.00 109.00 Z" />
<path fill="#000000" opacity="1.00" d=" M 23.00 133.00 C 27.67 133.00 32.33 133.00 37.00 133.00 C 37.00 134.33 37.00 135.67 37.00 137.00 C 33.68 137.00 30.37 137.00 27.05 137.00 C 27.02 137.50 26.98 138.50 26.95 139.00 C 25.63 139.00 24.32 139.00 23.00 139.00 C 23.00 137.00 23.00 135.00 23.00 133.00 Z" />
<path fill="#000000" opacity="1.00" d=" M 41.00 133.00 C 45.00 133.00 49.00 133.00 53.00 133.00 C 53.00 134.33 53.00 135.66 53.00 137.00 C 49.00 137.00 45.00 137.00 41.00 137.00 C 41.00 135.66 41.00 134.33 41.00 133.00 Z" />
<path fill="#000000" opacity="1.00" d=" M 57.00 133.00 C 61.00 133.00 65.00 133.00 69.00 133.00 C 69.00 134.33 69.00 135.66 69.00 137.00 C 65.00 137.00 61.00 137.00 57.00 137.00 C 57.00 135.66 57.00 134.33 57.00 133.00 Z" />
<path fill="#000000" opacity="1.00" d=" M 73.00 133.00 C 77.00 133.00 81.00 133.00 85.00 133.00 C 85.00 134.33 85.00 135.66 85.00 137.00 C 81.00 137.00 77.00 137.00 73.00 137.00 C 73.00 135.66 73.00 134.33 73.00 133.00 Z" />
<path fill="#000000" opacity="1.00" d=" M 89.00 133.00 C 93.00 133.00 97.00 133.00 101.00 133.00 C 101.00 134.33 101.00 135.66 101.00 137.00 C 97.00 137.00 93.00 137.00 89.00 137.00 C 89.00 135.66 89.00 134.33 89.00 133.00 Z" />
<path fill="#000000" opacity="1.00" d=" M 105.00 133.00 C 109.00 133.00 113.00 133.00 117.00 133.00 C 117.00 134.33 117.00 135.66 117.00 137.00 C 113.00 137.00 109.00 137.00 105.00 137.00 C 105.00 135.66 105.00 134.33 105.00 133.00 Z" />
<path fill="#000000" opacity="1.00" d=" M 121.00 133.00 C 125.00 133.00 129.00 133.00 133.00 133.00 C 133.00 134.33 133.00 135.66 133.00 137.00 C 129.00 137.00 125.00 137.00 121.00 137.00 C 121.00 135.66 121.00 134.33 121.00 133.00 Z" />
<path fill="#000000" opacity="1.00" d=" M 137.00 133.00 C 141.00 133.00 145.00 133.00 149.00 133.00 C 149.00 134.33 149.00 135.66 149.00 137.00 C 145.00 137.00 141.00 137.00 137.00 137.00 C 137.00 135.66 137.00 134.33 137.00 133.00 Z" />
<path fill="#000000" opacity="1.00" d=" M 153.00 133.00 C 157.00 133.00 161.00 133.00 165.00 133.00 C 165.00 134.33 165.00 135.66 165.00 137.00 C 161.00 137.00 157.00 137.00 153.00 137.00 C 153.00 135.66 153.00 134.33 153.00 133.00 Z" />
<path fill="#000000" opacity="1.00" d=" M 168.89 133.00 C 170.59 133.00 172.29 133.00 174.00 133.00 C 174.00 136.67 174.00 140.33 174.00 144.00 C 172.67 144.00 171.34 144.00 170.01 144.00 C 170.01 141.86 170.02 139.72 169.89 137.59 C 168.80 136.28 169.04 134.56 168.89 133.00 Z" />
<path fill="#000000" opacity="1.00" d=" M 183.00 133.00 C 187.67 133.00 192.33 133.00 197.00 133.00 C 197.00 134.33 197.00 135.66 197.00 137.00 C 193.68 137.00 190.36 137.00 187.05 137.00 C 187.02 137.50 186.98 138.50 186.95 139.00 C 185.63 139.00 184.32 139.00 183.00 139.00 C 183.00 137.00 183.00 135.00 183.00 133.00 Z" />
<path fill="#000000" opacity="1.00" d=" M 201.00 133.00 C 205.00 133.00 209.00 133.00 213.00 133.00 C 213.00 134.33 213.00 135.66 213.00 137.00 C 209.00 137.00 205.00 137.00 201.00 137.00 C 201.00 135.66 201.00 134.33 201.00 133.00 Z" />
<path fill="#000000" opacity="1.00" d=" M 217.00 133.00 C 221.00 133.00 225.00 133.00 229.00 133.00 C 229.00 134.33 229.00 135.66 229.00 137.00 C 225.00 137.00 221.00 137.00 217.00 137.00 C 217.00 135.66 217.00 134.33 217.00 133.00 Z" />
<path fill="#000000" opacity="1.00" d=" M 233.00 133.00 C 237.00 133.00 241.00 133.00 245.00 133.00 C 245.00 134.33 245.00 135.66 245.00 137.00 C 241.00 137.00 237.00 137.00 233.00 137.00 C 233.00 135.66 233.00 134.33 233.00 133.00 Z" />
<path fill="#000000" opacity="1.00" d=" M 249.00 133.00 C 253.00 133.00 257.00 133.00 261.00 133.00 C 261.00 134.33 261.00 135.66 261.00 137.00 C 257.00 137.00 253.00 137.00 249.00 137.00 C 249.00 135.66 249.00 134.33 249.00 133.00 Z" />
<path fill="#000000" opacity="1.00" d=" M 265.00 133.00 C 269.00 133.00 273.00 133.00 277.00 133.00 C 276.99 134.33 277.00 135.66 277.00 137.00 C 273.00 137.00 269.00 137.00 265.00 137.00 C 265.00 135.66 265.00 134.33 265.00 133.00 Z" />
<path fill="#000000" opacity="1.00" d=" M 281.00 133.00 C 285.00 133.00 289.00 133.00 293.00 133.00 C 293.00 134.33 292.99 135.66 293.00 137.00 C 289.00 137.00 285.00 137.00 281.00 137.00 C 281.00 135.66 281.00 134.33 281.00 133.00 Z" />
<path fill="#000000" opacity="1.00" d=" M 297.00 133.00 C 301.00 133.00 305.00 133.00 309.00 133.00 C 308.99 134.33 308.99 135.66 309.00 137.00 C 305.00 137.00 301.00 137.00 297.00 137.00 C 297.00 135.66 297.00 134.33 297.00 133.00 Z" />
<path fill="#000000" opacity="1.00" d=" M 313.00 133.00 C 317.00 133.00 321.00 133.00 325.00 133.00 C 324.99 134.33 324.99 135.66 325.00 137.00 C 321.00 137.00 317.00 137.00 313.00 137.00 C 313.00 135.66 313.00 134.33 313.00 133.00 Z" />
<path fill="#000000" opacity="1.00" d=" M 328.89 133.00 C 330.59 133.00 332.29 133.00 334.00 133.00 C 334.00 136.67 334.00 140.33 334.00 144.00 C 332.67 144.00 331.34 144.00 330.01 144.00 C 330.01 141.86 330.01 139.72 329.89 137.58 C 328.80 136.28 329.04 134.55 328.89 133.00 Z" />
<path fill="#000000" opacity="1.00" d=" M 0.00 134.00 C 2.67 134.00 5.33 134.00 8.00 134.00 C 8.00 142.00 8.00 150.00 8.00 158.00 C 5.33 158.00 2.67 158.00 0.00 158.00 L 0.00 134.00 Z" />
<path fill="#000000" opacity="1.00" d=" M 353.00 141.00 C 355.67 141.00 358.33 141.00 361.00 141.00 L 361.00 165.00 C 358.33 165.00 355.67 165.00 353.00 165.00 C 353.00 157.00 353.00 149.00 353.00 141.00 Z" />
<path fill="#000000" opacity="1.00" d=" M 23.00 143.00 C 24.33 143.00 25.66 143.00 27.00 143.00 C 27.00 147.00 27.00 151.00 27.00 155.00 C 25.67 155.00 24.33 155.00 23.00 155.00 C 23.00 151.00 23.00 147.00 23.00 143.00 Z" />
<path fill="#000000" opacity="1.00" d=" M 183.00 143.00 C 184.33 143.00 185.66 143.00 187.00 143.00 C 187.00 147.00 187.00 151.00 187.00 155.00 C 185.66 155.00 184.33 155.00 183.00 155.00 C 183.00 151.00 183.00 147.00 183.00 143.00 Z" />
<path fill="#000000" opacity="1.00" d=" M 134.84 149.05 C 138.95 147.09 143.60 146.52 148.01 147.75 C 147.64 148.99 147.28 150.24 146.91 151.49 C 143.46 150.76 139.94 151.15 136.69 152.51 C 136.07 151.35 135.45 150.20 134.84 149.05 Z" />
<path fill="#000000" opacity="1.00" d=" M 170.00 148.00 C 171.33 148.00 172.66 148.00 174.00 148.00 C 174.00 152.00 174.00 156.00 174.00 160.00 C 172.66 160.00 171.33 160.00 170.00 160.00 C 170.00 156.00 170.00 152.00 170.00 148.00 Z" />
<path fill="#000000" opacity="1.00" d=" M 233.88 147.42 C 238.38 150.07 242.82 152.84 247.29 155.55 C 246.61 156.69 245.94 157.83 245.27 158.98 C 241.97 156.86 238.36 155.19 235.34 152.67 C 233.78 151.36 234.02 149.22 233.88 147.42 Z" />
<path fill="#000000" opacity="1.00" d=" M 330.00 148.00 C 331.33 148.00 332.66 148.00 334.00 148.00 C 334.00 152.00 334.00 156.00 334.00 160.00 C 332.66 160.00 331.33 160.00 330.00 160.00 C 330.00 156.00 330.00 152.00 330.00 148.00 Z" />
<path fill="#000000" opacity="1.00" d=" M 152.20 149.58 C 155.94 152.24 158.53 156.13 159.80 160.52 C 158.49 160.79 157.19 161.06 155.88 161.33 C 154.81 158.01 152.90 155.05 150.09 152.95 C 150.79 151.82 151.49 150.70 152.20 149.58 Z" />
<path fill="#000000" opacity="1.00" d=" M 131.08 151.80 C 132.01 152.70 132.95 153.61 133.88 154.52 C 131.68 157.25 130.24 160.49 129.87 164.00 C 128.54 163.99 127.22 163.99 125.89 163.98 C 126.24 159.46 128.03 155.17 131.08 151.80 Z" />
<path fill="#000000" opacity="1.00" d=" M 234.00 155.50 C 235.33 155.50 236.66 155.50 238.00 155.50 C 238.00 159.50 238.00 163.50 238.00 167.50 C 236.66 167.50 235.33 167.50 234.00 167.50 C 234.00 163.50 234.00 159.50 234.00 155.50 Z" />
<path fill="#000000" opacity="1.00" d=" M 248.64 161.06 C 249.34 159.93 250.04 158.81 250.74 157.69 C 254.14 159.77 257.54 161.85 260.94 163.94 C 260.24 165.06 259.55 166.18 258.86 167.30 C 255.45 165.23 252.04 163.15 248.64 161.06 Z" />
<path fill="#000000" opacity="1.00" d=" M 23.00 159.00 C 24.33 159.00 25.67 159.00 27.00 159.00 C 27.00 163.00 27.00 167.00 27.00 171.00 C 25.67 171.00 24.33 171.00 23.00 171.00 C 23.00 167.00 23.00 163.00 23.00 159.00 Z" />
<path fill="#000000" opacity="1.00" d=" M 183.00 159.00 C 184.33 159.00 185.66 159.00 187.00 159.00 C 187.00 163.00 187.00 167.00 187.00 171.00 C 185.66 171.00 184.33 171.00 183.00 171.00 C 183.00 167.00 183.00 163.00 183.00 159.00 Z" />
<path fill="#000000" opacity="1.00" d=" M 170.00 164.00 C 171.33 164.00 172.66 164.00 174.00 164.00 C 174.00 168.00 174.00 172.00 174.00 176.00 C 172.66 176.00 171.33 176.00 170.00 176.00 C 170.00 172.00 170.00 168.00 170.00 164.00 Z" />
<path fill="#000000" opacity="1.00" d=" M 330.00 164.00 C 331.33 164.00 332.66 164.00 334.00 164.00 C 334.00 168.00 334.00 172.00 334.00 176.00 C 332.66 176.00 331.33 176.00 330.00 176.00 C 330.00 172.00 330.00 168.00 330.00 164.00 Z" />
<path fill="#000000" opacity="1.00" d=" M 156.14 164.77 C 157.45 164.92 158.76 165.07 160.07 165.23 C 159.50 169.74 157.42 173.94 154.09 177.05 C 153.25 176.04 152.42 175.03 151.58 174.03 C 154.06 171.49 155.56 168.25 156.14 164.77 Z" />
<path fill="#000000" opacity="1.00" d=" M 0.00 166.00 C 2.67 166.00 5.33 166.00 8.00 166.00 C 8.00 174.00 8.00 182.00 8.00 190.00 C 5.33 190.00 2.67 189.99 0.00 190.00 L 0.00 166.00 Z" />
<path fill="#000000" opacity="1.00" d=" M 126.06 166.49 C 127.37 166.28 128.68 166.06 130.00 165.84 C 130.92 169.23 132.56 172.40 135.32 174.66 C 134.55 175.72 133.77 176.78 133.00 177.84 C 129.37 175.03 127.10 170.92 126.06 166.49 Z" />
<path fill="#000000" opacity="1.00" d=" M 264.37 166.01 C 267.80 168.08 271.23 170.16 274.63 172.28 C 273.93 173.41 273.23 174.54 272.53 175.67 C 269.12 173.59 265.70 171.51 262.29 169.42 C 262.98 168.28 263.67 167.15 264.37 166.01 Z" />
<path fill="#000000" opacity="1.00" d=" M 234.00 171.50 C 235.33 171.50 236.66 171.50 238.00 171.50 C 238.00 175.50 238.00 179.50 238.00 183.50 C 236.66 183.50 235.33 183.50 234.00 183.50 C 234.00 179.50 234.00 175.50 234.00 171.50 Z" />
<path fill="#000000" opacity="1.00" d=" M 353.00 173.00 C 355.67 173.00 358.33 173.00 361.00 173.00 L 361.00 197.00 C 358.33 196.99 355.67 197.00 353.00 197.00 C 353.00 189.00 353.00 181.00 353.00 173.00 Z" />
<path fill="#000000" opacity="1.00" d=" M 23.00 175.00 C 24.33 175.00 25.67 175.00 27.00 175.00 C 27.00 179.00 27.00 183.00 27.00 187.00 C 25.67 187.00 24.33 187.00 23.00 187.00 C 23.00 183.00 23.00 179.00 23.00 175.00 Z" />
<path fill="#000000" opacity="1.00" d=" M 183.00 175.00 C 184.33 175.00 185.66 175.00 187.00 175.00 C 187.00 179.00 187.00 183.00 187.00 187.00 C 185.66 187.00 184.33 187.00 183.00 187.00 C 183.00 183.00 183.00 179.00 183.00 175.00 Z" />
<path fill="#000000" opacity="1.00" d=" M 276.78 178.87 C 275.49 177.20 277.32 175.77 278.04 174.35 C 280.31 175.74 282.58 177.13 284.85 178.51 C 281.87 180.38 278.86 182.21 275.82 184.00 C 275.16 182.85 274.51 181.70 273.85 180.56 C 274.82 179.99 275.80 179.43 276.78 178.87 Z" />
<path fill="#000000" opacity="1.00" d=" M 138.32 176.32 C 141.75 177.20 145.32 177.06 148.66 175.89 C 149.20 177.10 149.74 178.32 150.28 179.54 C 146.02 181.16 141.34 181.37 136.99 179.99 C 137.43 178.76 137.87 177.54 138.32 176.32 Z" />
<path fill="#000000" opacity="1.00" d=" M 170.00 180.00 C 171.33 180.00 172.66 180.00 174.00 180.00 C 174.00 184.00 174.00 188.00 174.00 192.00 C 172.66 192.00 171.33 192.00 170.00 192.00 C 170.00 188.00 170.00 184.00 170.00 180.00 Z" />
<path fill="#000000" opacity="1.00" d=" M 330.00 180.00 C 331.33 180.00 332.66 180.00 334.00 180.00 C 334.00 184.00 334.00 188.00 334.00 192.00 C 332.66 192.00 331.33 192.00 330.00 192.00 C 330.00 188.00 330.00 184.00 330.00 180.00 Z" />
<path fill="#000000" opacity="1.00" d=" M 260.13 188.94 C 263.54 186.85 266.95 184.77 270.37 182.69 C 271.05 183.83 271.74 184.97 272.43 186.12 C 269.04 188.20 265.65 190.29 262.25 192.37 C 261.54 191.22 260.84 190.08 260.13 188.94 Z" />
<path fill="#000000" opacity="1.00" d=" M 47.07 186.39 C 49.94 184.73 53.18 184.01 56.48 184.00 C 56.49 184.74 56.49 186.23 56.49 186.97 C 53.86 187.06 51.27 187.58 48.87 188.70 C 48.29 187.91 47.69 187.14 47.07 186.39 Z" />
<path fill="#000000" opacity="1.00" d=" M 59.81 184.32 C 62.83 184.92 65.82 185.65 68.78 186.52 C 68.55 187.23 68.10 188.65 67.87 189.36 C 65.04 188.59 62.20 187.88 59.33 187.28 C 59.45 186.54 59.69 185.06 59.81 184.32 Z" />
<path fill="#000000" opacity="1.00" d=" M 70.66 190.30 C 70.90 189.60 71.39 188.18 71.63 187.47 C 74.48 188.42 77.33 189.39 80.17 190.38 C 79.85 191.33 79.52 192.28 79.18 193.23 C 76.34 192.24 73.50 191.27 70.66 190.30 Z" />
<path fill="#000000" opacity="1.00" d=" M 164.52 188.83 C 165.72 188.56 166.92 188.30 168.13 188.03 C 168.40 188.99 168.67 189.95 168.93 190.91 C 167.67 191.23 166.40 191.56 165.13 191.88 C 164.98 191.12 164.67 189.59 164.52 188.83 Z" />
<path fill="#000000" opacity="1.00" d=" M 234.00 187.50 C 235.33 187.50 236.66 187.50 238.00 187.50 C 238.00 191.50 238.00 195.50 238.00 199.50 C 236.66 199.50 235.33 199.50 234.00 199.50 C 234.00 195.50 234.00 191.50 234.00 187.50 Z" />
<path fill="#000000" opacity="1.00" d=" M 39.40 196.10 C 41.40 193.88 43.28 191.56 45.03 189.14 C 45.60 189.62 46.74 190.59 47.31 191.07 C 45.58 193.51 43.68 195.81 41.64 198.00 C 40.89 197.37 40.14 196.74 39.40 196.10 Z" />
<path fill="#000000" opacity="1.00" d=" M 152.83 191.87 C 155.72 191.13 158.61 190.41 161.51 189.68 C 161.71 190.39 162.10 191.81 162.30 192.52 C 159.39 193.31 156.47 194.04 153.55 194.77 C 153.37 194.04 153.01 192.59 152.83 191.87 Z" />
<path fill="#000000" opacity="1.00" d=" M 23.00 191.00 C 24.33 191.00 25.67 191.00 27.00 191.00 C 27.00 195.00 27.00 199.00 27.00 203.00 C 25.67 203.00 24.33 203.00 23.00 203.00 C 23.00 199.00 23.00 195.00 23.00 191.00 Z" />
<path fill="#000000" opacity="1.00" d=" M 183.00 191.00 C 184.33 191.00 185.66 191.00 187.00 191.00 C 187.00 195.00 187.00 199.00 187.00 203.00 C 185.66 203.00 184.33 203.00 183.00 203.00 C 183.00 199.00 183.00 195.00 183.00 191.00 Z" />
<path fill="#000000" opacity="1.00" d=" M 246.48 197.35 C 249.89 195.23 253.31 193.15 256.74 191.07 C 257.43 192.19 258.12 193.31 258.81 194.43 C 255.40 196.52 251.99 198.59 248.58 200.68 C 247.88 199.57 247.18 198.46 246.48 197.35 Z" />
<path fill="#000000" opacity="1.00" d=" M 82.08 194.23 C 82.32 193.28 82.59 192.34 82.87 191.41 C 85.75 192.27 88.63 193.19 91.50 194.11 C 91.29 194.82 90.88 196.24 90.68 196.95 C 87.79 196.11 84.93 195.19 82.08 194.23 Z" />
<path fill="#000000" opacity="1.00" d=" M 141.18 194.44 C 144.10 193.80 147.01 193.15 149.93 192.50 C 150.11 193.23 150.46 194.70 150.63 195.43 C 147.68 196.09 144.72 196.73 141.76 197.36 C 141.56 196.39 141.36 195.41 141.18 194.44 Z" />
<path fill="#000000" opacity="1.00" d=" M 94.30 194.97 C 97.20 195.59 100.09 196.20 102.99 196.81 C 102.86 197.56 102.61 199.06 102.49 199.81 C 99.50 199.21 96.53 198.56 93.57 197.84 C 93.75 197.12 94.12 195.69 94.30 194.97 Z" />
<path fill="#000000" opacity="1.00" d=" M 129.41 196.50 C 132.36 196.06 135.30 195.58 138.24 195.07 C 138.38 195.81 138.65 197.28 138.79 198.01 C 135.83 198.52 132.87 199.00 129.90 199.44 C 129.78 198.71 129.53 197.24 129.41 196.50 Z" />
<path fill="#000000" opacity="1.00" d=" M 170.00 196.00 C 171.33 196.00 172.66 196.00 174.00 196.00 C 174.00 200.00 174.00 204.00 174.00 208.00 C 172.66 208.00 171.33 208.00 170.00 208.00 C 170.00 204.00 170.00 200.00 170.00 196.00 Z" />
<path fill="#000000" opacity="1.00" d=" M 330.00 196.00 C 331.33 196.00 332.66 196.00 334.00 196.00 C 334.00 200.00 334.00 204.00 334.00 208.00 C 332.66 208.00 331.33 208.00 330.00 208.00 C 330.00 204.00 330.00 200.00 330.00 196.00 Z" />
<path fill="#000000" opacity="1.00" d=" M 105.94 197.24 C 108.87 197.53 111.81 197.64 114.76 197.67 C 114.75 198.42 114.75 199.91 114.74 200.66 C 111.66 200.66 108.57 200.53 105.50 200.16 C 105.61 199.43 105.83 197.97 105.94 197.24 Z" />
<path fill="#000000" opacity="1.00" d=" M 117.55 197.58 C 120.49 197.40 123.44 197.18 126.36 196.80 C 126.53 197.82 126.72 198.85 126.93 199.87 C 123.90 200.15 120.86 200.38 117.82 200.55 C 117.75 199.81 117.62 198.33 117.55 197.58 Z" />
<path fill="#000000" opacity="1.00" d=" M 0.00 198.00 C 2.67 198.00 5.33 198.00 8.00 198.00 C 8.00 206.00 8.00 214.00 8.00 222.00 C 5.33 222.00 2.67 221.99 0.00 222.00 L 0.00 198.00 Z" />
<path fill="#000000" opacity="1.00" d=" M 31.90 205.63 C 33.64 203.16 35.46 200.75 37.31 198.36 C 37.89 198.83 39.07 199.76 39.65 200.22 C 37.86 202.59 36.08 204.98 34.32 207.37 C 33.71 206.94 32.50 206.07 31.90 205.63 Z" />
<path fill="#000000" opacity="1.00" d=" M 234.00 203.73 C 237.48 203.43 240.17 201.05 243.06 199.37 C 243.76 200.51 244.47 201.66 245.18 202.81 C 241.45 205.08 237.73 207.35 234.01 209.61 C 234.00 207.65 234.00 205.69 234.00 203.73 Z" />
<path fill="#000000" opacity="1.00" d=" M 353.00 205.00 C 355.67 205.00 358.33 205.00 361.00 205.00 L 361.00 229.00 C 358.33 228.99 355.67 229.00 353.00 229.00 C 353.00 221.00 353.00 213.00 353.00 205.00 Z" />
<path fill="#000000" opacity="1.00" d=" M 23.00 207.00 C 24.33 207.00 25.66 207.00 27.00 207.00 C 27.00 209.02 27.00 211.03 27.00 213.06 C 28.06 211.43 29.11 209.80 30.17 208.18 C 31.01 208.71 31.84 209.26 32.66 209.81 C 30.88 213.02 28.45 215.81 26.59 218.97 C 25.40 218.98 24.20 219.00 23.00 219.01 C 23.00 215.00 23.00 211.00 23.00 207.00 Z" />
<path fill="#000000" opacity="1.00" d=" M 183.00 207.00 C 184.33 207.00 185.66 207.00 187.00 207.00 C 187.00 211.00 187.00 215.00 187.00 219.00 C 185.66 219.00 184.33 219.00 183.00 219.00 C 183.00 215.00 183.00 211.00 183.00 207.00 Z" />
<path fill="#000000" opacity="1.00" d=" M 170.00 212.00 C 171.33 212.00 172.66 212.00 174.00 212.00 C 174.00 216.00 174.00 220.00 174.00 224.00 C 172.66 224.00 171.33 224.00 170.00 224.00 C 170.00 220.00 170.00 216.00 170.00 212.00 Z" />
<path fill="#000000" opacity="1.00" d=" M 330.00 212.00 C 331.33 212.00 332.66 212.00 334.00 212.00 C 334.00 216.00 334.00 220.00 334.00 224.00 C 332.66 224.00 331.33 224.00 330.00 224.00 C 330.00 220.00 330.00 216.00 330.00 212.00 Z" />
<path fill="#000000" opacity="1.00" d=" M 26.00 220.00 C 30.00 220.00 34.00 220.00 38.00 220.00 C 38.00 221.33 38.00 222.66 38.00 224.00 C 34.00 224.00 30.00 224.00 26.00 224.00 C 26.00 222.66 26.00 221.33 26.00 220.00 Z" />
<path fill="#000000" opacity="1.00" d=" M 42.00 220.00 C 46.00 220.00 50.00 220.00 54.00 220.00 C 54.00 221.33 54.00 222.66 54.00 224.00 C 50.00 224.00 46.00 224.00 42.00 224.00 C 42.00 222.66 42.00 221.33 42.00 220.00 Z" />
<path fill="#000000" opacity="1.00" d=" M 58.00 220.00 C 62.00 220.00 66.00 220.00 70.00 220.00 C 70.00 221.33 70.00 222.66 70.00 224.00 C 66.00 224.00 62.00 224.00 58.00 224.00 C 58.00 222.66 58.00 221.33 58.00 220.00 Z" />
<path fill="#000000" opacity="1.00" d=" M 74.00 220.00 C 78.00 220.00 82.00 220.00 86.00 220.00 C 86.00 221.33 86.00 222.66 86.00 224.00 C 82.00 224.00 78.00 224.00 74.00 224.00 C 74.00 222.66 74.00 221.33 74.00 220.00 Z" />
<path fill="#000000" opacity="1.00" d=" M 90.00 220.00 C 94.00 220.00 98.00 220.00 102.00 220.00 C 102.00 221.33 102.00 222.66 102.00 224.00 C 98.00 224.00 94.00 224.00 90.00 224.00 C 90.00 222.66 90.00 221.33 90.00 220.00 Z" />
<path fill="#000000" opacity="1.00" d=" M 106.00 220.00 C 110.00 220.00 114.00 220.00 118.00 220.00 C 118.00 221.33 118.00 222.66 118.00 224.00 C 114.00 224.00 110.00 224.00 106.00 224.00 C 106.00 222.66 106.00 221.33 106.00 220.00 Z" />
<path fill="#000000" opacity="1.00" d=" M 122.00 220.00 C 126.00 220.00 130.00 220.00 134.00 220.00 C 134.00 221.33 134.00 222.66 134.00 224.00 C 130.00 224.00 126.00 224.00 122.00 224.00 C 122.00 222.66 122.00 221.33 122.00 220.00 Z" />
<path fill="#000000" opacity="1.00" d=" M 138.00 220.00 C 142.00 220.00 146.00 220.00 150.00 220.00 C 150.00 221.33 150.00 222.66 150.00 224.00 C 146.00 224.00 142.00 224.00 138.00 224.00 C 138.00 222.66 138.00 221.33 138.00 220.00 Z" />
<path fill="#000000" opacity="1.00" d=" M 154.00 220.00 C 158.00 220.00 162.00 220.00 166.00 220.00 C 166.00 221.33 166.00 222.66 166.00 224.00 C 162.00 224.00 158.00 224.00 154.00 224.00 C 154.00 222.66 154.00 221.33 154.00 220.00 Z" />
<path fill="#000000" opacity="1.00" d=" M 186.00 220.00 C 190.00 220.00 194.00 220.00 198.00 220.00 C 198.00 221.33 198.00 222.66 198.00 224.00 C 194.00 224.00 190.00 224.00 186.00 224.00 C 186.00 222.66 186.00 221.33 186.00 220.00 Z" />
<path fill="#000000" opacity="1.00" d=" M 202.00 220.00 C 206.00 220.00 210.00 220.00 214.00 220.00 C 214.00 221.33 214.00 222.66 214.00 224.00 C 210.00 224.00 206.00 224.00 202.00 224.00 C 202.00 222.66 202.00 221.33 202.00 220.00 Z" />
<path fill="#000000" opacity="1.00" d=" M 218.00 220.00 C 222.00 220.00 226.00 220.00 230.00 220.00 C 230.00 221.33 229.99 222.66 230.00 224.00 C 226.00 224.00 222.00 224.00 218.00 224.00 C 218.00 222.66 218.00 221.33 218.00 220.00 Z" />
<path fill="#000000" opacity="1.00" d=" M 234.00 220.00 C 238.00 220.00 242.00 220.00 246.00 220.00 C 246.00 221.33 246.00 222.66 246.00 224.00 C 242.00 224.00 238.00 224.00 234.00 224.00 C 234.00 222.66 234.00 221.33 234.00 220.00 Z" />
<path fill="#000000" opacity="1.00" d=" M 250.00 220.00 C 254.00 220.00 258.00 220.00 262.00 220.00 C 262.00 221.33 262.00 222.66 262.00 224.00 C 258.00 224.00 254.00 224.00 250.00 224.00 C 250.00 222.66 250.00 221.33 250.00 220.00 Z" />
<path fill="#000000" opacity="1.00" d=" M 266.00 220.00 C 270.00 220.00 274.00 220.00 278.00 220.00 C 277.99 221.33 277.99 222.66 278.00 224.00 C 274.00 224.00 270.00 224.00 266.00 224.00 C 266.00 222.66 266.00 221.33 266.00 220.00 Z" />
<path fill="#000000" opacity="1.00" d=" M 282.00 220.00 C 286.00 220.00 290.00 220.00 294.00 220.00 C 293.99 221.33 293.99 222.66 294.00 224.00 C 290.00 224.00 286.00 224.00 282.00 224.00 C 282.00 222.66 282.00 221.33 282.00 220.00 Z" />
<path fill="#000000" opacity="1.00" d=" M 298.00 220.00 C 302.00 220.00 306.00 220.00 310.00 220.00 C 309.99 221.33 309.99 222.66 310.00 224.00 C 306.00 224.00 302.00 224.00 298.00 224.00 C 298.00 222.66 298.00 221.33 298.00 220.00 Z" />
<path fill="#000000" opacity="1.00" d=" M 314.00 220.00 C 318.00 220.00 322.00 220.00 326.00 220.00 C 325.99 221.33 325.99 222.66 326.00 224.00 C 322.00 224.00 318.00 224.00 314.00 224.00 C 314.00 222.66 314.00 221.33 314.00 220.00 Z" />
<path fill="#000000" opacity="1.00" d=" M 0.00 230.00 C 2.67 230.00 5.33 230.00 8.00 230.00 C 8.00 238.00 8.00 246.00 8.00 254.00 C 5.33 254.00 2.67 253.99 0.00 254.00 L 0.00 230.00 Z" />
<path fill="#000000" opacity="1.00" d=" M 353.00 237.00 C 355.67 237.00 358.33 237.00 361.00 237.00 L 361.00 261.00 C 358.33 260.99 355.67 261.00 353.00 261.00 C 353.00 253.00 353.00 245.00 353.00 237.00 Z" />
<path fill="#000000" opacity="1.00" d=" M 0.00 262.00 C 2.67 262.00 5.33 261.99 8.00 262.00 C 8.00 265.66 8.00 269.33 8.00 272.99 C 9.67 272.99 11.33 273.00 13.00 273.01 C 13.00 275.67 13.00 278.33 13.00 281.00 C 8.67 281.00 4.33 281.00 0.00 281.00 L 0.00 262.00 Z" />
<path fill="#000000" opacity="1.00" d=" M 353.01 269.00 C 355.67 268.99 358.33 269.00 361.00 269.00 L 361.00 281.00 C 354.33 281.00 347.67 281.00 341.00 281.00 C 341.00 278.33 341.00 275.66 341.00 273.00 C 344.99 273.00 348.99 273.00 352.99 273.00 C 352.99 271.66 353.00 270.33 353.01 269.00 Z" />
<path fill="#000000" opacity="1.00" d=" M 21.00 273.00 C 29.00 273.00 37.00 273.00 45.00 273.00 C 45.00 275.66 45.00 278.33 45.00 281.00 C 37.00 281.00 29.00 281.00 21.00 281.00 C 21.00 278.33 21.00 275.67 21.00 273.00 Z" />
<path fill="#000000" opacity="1.00" d=" M 53.00 273.00 C 61.00 273.00 69.00 273.00 77.00 273.00 C 77.00 275.67 77.00 278.33 77.00 281.00 C 69.00 281.00 61.00 281.00 53.00 281.00 C 53.00 278.33 53.00 275.66 53.00 273.00 Z" />
<path fill="#000000" opacity="1.00" d=" M 85.00 273.00 C 93.00 273.00 101.00 273.00 109.00 273.00 C 109.00 275.67 109.00 278.33 109.00 281.00 C 101.00 281.00 93.00 281.00 85.00 281.00 C 85.00 278.33 85.00 275.66 85.00 273.00 Z" />
<path fill="#000000" opacity="1.00" d=" M 117.00 273.00 C 125.00 273.00 133.00 273.00 141.00 273.00 C 141.00 275.67 141.00 278.33 141.00 281.00 C 133.00 281.00 125.00 281.00 117.00 281.00 C 117.00 278.33 117.00 275.67 117.00 273.00 Z" />
<path fill="#000000" opacity="1.00" d=" M 149.00 273.00 C 157.00 273.00 165.00 273.00 173.00 273.00 C 173.00 275.67 173.00 278.33 173.00 281.00 C 165.00 281.00 157.00 281.00 149.00 281.00 C 149.00 278.33 149.00 275.67 149.00 273.00 Z" />
<path fill="#000000" opacity="1.00" d=" M 181.00 273.00 C 189.00 273.00 197.00 273.00 205.00 273.00 C 205.00 275.67 205.00 278.33 205.00 281.00 C 197.00 281.00 189.00 281.00 181.00 281.00 C 181.00 278.33 181.00 275.67 181.00 273.00 Z" />
<path fill="#000000" opacity="1.00" d=" M 213.00 273.00 C 221.00 273.00 229.00 273.00 237.00 273.00 C 237.00 275.66 237.00 278.33 237.00 281.00 C 229.00 281.00 221.00 281.00 213.00 281.00 C 213.00 278.33 213.00 275.66 213.00 273.00 Z" />
<path fill="#000000" opacity="1.00" d=" M 245.00 273.00 C 253.00 273.00 261.00 273.00 269.00 273.00 C 269.00 275.67 269.00 278.33 269.00 281.00 C 261.00 281.00 253.00 281.00 245.00 281.00 C 245.00 278.33 245.00 275.66 245.00 273.00 Z" />
<path fill="#000000" opacity="1.00" d=" M 277.00 273.00 C 285.00 273.00 293.00 273.00 301.00 273.00 C 301.00 275.66 301.00 278.33 301.00 281.00 C 293.00 281.00 285.00 281.00 277.00 281.00 C 277.00 278.33 277.00 275.66 277.00 273.00 Z" />
<path fill="#000000" opacity="1.00" d=" M 309.00 273.00 C 317.00 273.00 325.00 273.00 333.00 273.00 C 333.00 275.67 333.00 278.33 333.00 281.00 C 325.00 281.00 317.00 281.00 309.00 281.00 C 309.00 278.33 309.00 275.66 309.00 273.00 Z" />
</g>
<g class="sprite" id="icon">
<path fill="#ffffff" opacity="1.00" d=" M 0.00 74.00 C 9.33 74.00 18.67 74.00 28.00 74.00 C 28.00 76.67 28.00 79.33 28.00 82.00 C 21.33 82.01 14.67 81.99 8.00 82.00 C 8.00 86.00 8.00 90.00 8.00 94.00 C 5.33 94.00 2.67 94.00 0.00 94.00 L 0.00 74.00 Z" />
<path fill="#ffffff" opacity="1.00" d=" M 36.00 74.00 C 44.00 74.00 52.00 74.00 60.00 74.00 C 60.00 76.67 60.00 79.33 60.00 82.00 C 52.00 82.00 44.00 82.00 36.00 82.00 C 36.00 79.33 36.00 76.67 36.00 74.00 Z" />
<path fill="#ffffff" opacity="1.00" d=" M 68.00 74.00 C 76.00 74.00 84.00 74.00 92.00 74.00 C 92.00 76.67 92.00 79.33 92.00 82.00 C 84.00 82.00 76.00 82.00 68.00 82.00 C 68.00 79.33 68.00 76.67 68.00 74.00 Z" />
<path fill="#ffffff" opacity="1.00" d=" M 100.00 74.00 C 108.00 74.00 116.00 74.00 124.00 74.00 C 124.00 76.67 124.00 79.33 124.00 82.00 C 116.00 82.00 108.00 82.00 100.00 82.00 C 100.00 79.33 100.00 76.67 100.00 74.00 Z" />
<path fill="#ffffff" opacity="1.00" d=" M 132.00 74.00 C 140.00 74.00 148.00 74.00 156.00 74.00 C 156.00 76.67 156.00 79.33 156.00 82.00 C 148.00 82.00 140.00 82.00 132.00 82.00 C 132.00 79.33 132.00 76.67 132.00 74.00 Z" />
<path fill="#ffffff" opacity="1.00" d=" M 164.00 74.00 C 172.00 74.00 180.00 74.00 188.00 74.00 C 188.00 76.67 188.00 79.33 188.00 82.00 C 180.00 82.00 172.00 82.00 164.00 82.00 C 164.00 79.33 164.00 76.67 164.00 74.00 Z" />
<path fill="#ffffff" opacity="1.00" d=" M 196.00 74.00 C 204.00 74.00 212.00 74.00 220.00 74.00 C 220.00 76.67 220.00 79.33 220.00 82.00 C 212.00 82.00 204.00 82.00 196.00 82.00 C 196.00 79.33 196.00 76.67 196.00 74.00 Z" />
<path fill="#ffffff" opacity="1.00" d=" M 228.00 74.00 C 236.00 74.00 244.00 74.00 252.00 74.00 C 252.00 76.67 252.00 79.33 252.00 82.00 C 244.00 82.00 236.00 82.00 228.00 82.00 C 228.00 79.33 228.00 76.67 228.00 74.00 Z" />
<path fill="#ffffff" opacity="1.00" d=" M 260.00 74.00 C 268.00 74.00 276.00 74.00 284.00 74.00 C 284.00 76.67 284.00 79.33 284.00 82.00 C 276.00 82.00 268.00 82.00 260.00 82.00 C 260.00 79.33 260.00 76.67 260.00 74.00 Z" />
<path fill="#ffffff" opacity="1.00" d=" M 292.00 74.00 C 300.00 74.00 308.00 74.00 316.00 74.00 C 316.00 76.67 316.00 79.33 316.00 82.00 C 308.00 82.00 300.00 82.00 292.00 82.00 C 292.00 79.33 292.00 76.67 292.00 74.00 Z" />
<path fill="#ffffff" opacity="1.00" d=" M 324.00 74.00 C 332.00 74.00 340.00 74.00 348.00 74.00 C 348.00 76.67 348.00 79.33 348.00 82.00 C 340.00 82.00 332.00 82.00 324.00 82.00 C 324.00 79.33 324.00 76.67 324.00 74.00 Z" />
<path fill="#ffffff" opacity="1.00" d=" M 356.01 74.00 C 357.67 74.00 359.33 74.00 361.00 74.00 L 361.00 101.00 C 358.33 101.00 355.67 101.00 353.00 101.00 C 352.99 93.34 353.00 85.69 353.00 78.03 C 353.75 78.02 355.25 77.98 356.00 77.97 C 356.00 76.65 356.00 75.32 356.01 74.00 Z" />
<path fill="#ffffff" opacity="1.00" d=" M 0.00 102.00 C 2.67 102.00 5.33 102.00 8.00 102.00 C 8.00 110.00 8.00 118.00 8.00 126.00 C 5.33 126.00 2.67 126.00 0.00 126.00 L 0.00 102.00 Z" />
<path fill="#ffffff" opacity="1.00" d=" M 353.00 109.00 C 355.67 109.00 358.33 109.00 361.00 109.00 L 361.00 133.00 C 358.33 133.00 355.67 133.00 353.00 133.00 C 353.00 125.00 353.00 117.00 353.00 109.00 Z" />
<path fill="#ffffff" opacity="1.00" d=" M 23.00 133.00 C 27.67 133.00 32.33 133.00 37.00 133.00 C 37.00 134.33 37.00 135.67 37.00 137.00 C 33.68 137.00 30.37 137.00 27.05 137.00 C 27.02 137.50 26.98 138.50 26.95 139.00 C 25.63 139.00 24.32 139.00 23.00 139.00 C 23.00 137.00 23.00 135.00 23.00 133.00 Z" />
<path fill="#ffffff" opacity="1.00" d=" M 41.00 133.00 C 45.00 133.00 49.00 133.00 53.00 133.00 C 53.00 134.33 53.00 135.66 53.00 137.00 C 49.00 137.00 45.00 137.00 41.00 137.00 C 41.00 135.66 41.00 134.33 41.00 133.00 Z" />
<path fill="#ffffff" opacity="1.00" d=" M 57.00 133.00 C 61.00 133.00 65.00 133.00 69.00 133.00 C 69.00 134.33 69.00 135.66 69.00 137.00 C 65.00 137.00 61.00 137.00 57.00 137.00 C 57.00 135.66 57.00 134.33 57.00 133.00 Z" />
<path fill="#ffffff" opacity="1.00" d=" M 73.00 133.00 C 77.00 133.00 81.00 133.00 85.00 133.00 C 85.00 134.33 85.00 135.66 85.00 137.00 C 81.00 137.00 77.00 137.00 73.00 137.00 C 73.00 135.66 73.00 134.33 73.00 133.00 Z" />
<path fill="#ffffff" opacity="1.00" d=" M 89.00 133.00 C 93.00 133.00 97.00 133.00 101.00 133.00 C 101.00 134.33 101.00 135.66 101.00 137.00 C 97.00 137.00 93.00 137.00 89.00 137.00 C 89.00 135.66 89.00 134.33 89.00 133.00 Z" />
<path fill="#ffffff" opacity="1.00" d=" M 105.00 133.00 C 109.00 133.00 113.00 133.00 117.00 133.00 C 117.00 134.33 117.00 135.66 117.00 137.00 C 113.00 137.00 109.00 137.00 105.00 137.00 C 105.00 135.66 105.00 134.33 105.00 133.00 Z" />
<path fill="#ffffff" opacity="1.00" d=" M 121.00 133.00 C 125.00 133.00 129.00 133.00 133.00 133.00 C 133.00 134.33 133.00 135.66 133.00 137.00 C 129.00 137.00 125.00 137.00 121.00 137.00 C 121.00 135.66 121.00 134.33 121.00 133.00 Z" />
<path fill="#ffffff" opacity="1.00" d=" M 137.00 133.00 C 141.00 133.00 145.00 133.00 149.00 133.00 C 149.00 134.33 149.00 135.66 149.00 137.00 C 145.00 137.00 141.00 137.00 137.00 137.00 C 137.00 135.66 137.00 134.33 137.00 133.00 Z" />
<path fill="#ffffff" opacity="1.00" d=" M 153.00 133.00 C 157.00 133.00 161.00 133.00 165.00 133.00 C 165.00 134.33 165.00 135.66 165.00 137.00 C 161.00 137.00 157.00 137.00 153.00 137.00 C 153.00 135.66 153.00 134.33 153.00 133.00 Z" />
<path fill="#ffffff" opacity="1.00" d=" M 168.89 133.00 C 170.59 133.00 172.29 133.00 174.00 133.00 C 174.00 136.67 174.00 140.33 174.00 144.00 C 172.67 144.00 171.34 144.00 170.01 144.00 C 170.01 141.86 170.02 139.72 169.89 137.59 C 168.80 136.28 169.04 134.56 168.89 133.00 Z" />
<path fill="#ffffff" opacity="1.00" d=" M 183.00 133.00 C 187.67 133.00 192.33 133.00 197.00 133.00 C 197.00 134.33 197.00 135.66 197.00 137.00 C 193.68 137.00 190.36 137.00 187.05 137.00 C 187.02 137.50 186.98 138.50 186.95 139.00 C 185.63 139.00 184.32 139.00 183.00 139.00 C 183.00 137.00 183.00 135.00 183.00 133.00 Z" />
<path fill="#ffffff" opacity="1.00" d=" M 201.00 133.00 C 205.00 133.00 209.00 133.00 213.00 133.00 C 213.00 134.33 213.00 135.66 213.00 137.00 C 209.00 137.00 205.00 137.00 201.00 137.00 C 201.00 135.66 201.00 134.33 201.00 133.00 Z" />
<path fill="#ffffff" opacity="1.00" d=" M 217.00 133.00 C 221.00 133.00 225.00 133.00 229.00 133.00 C 229.00 134.33 229.00 135.66 229.00 137.00 C 225.00 137.00 221.00 137.00 217.00 137.00 C 217.00 135.66 217.00 134.33 217.00 133.00 Z" />
<path fill="#ffffff" opacity="1.00" d=" M 233.00 133.00 C 237.00 133.00 241.00 133.00 245.00 133.00 C 245.00 134.33 245.00 135.66 245.00 137.00 C 241.00 137.00 237.00 137.00 233.00 137.00 C 233.00 135.66 233.00 134.33 233.00 133.00 Z" />
<path fill="#ffffff" opacity="1.00" d=" M 249.00 133.00 C 253.00 133.00 257.00 133.00 261.00 133.00 C 261.00 134.33 261.00 135.66 261.00 137.00 C 257.00 137.00 253.00 137.00 249.00 137.00 C 249.00 135.66 249.00 134.33 249.00 133.00 Z" />
<path fill="#ffffff" opacity="1.00" d=" M 265.00 133.00 C 269.00 133.00 273.00 133.00 277.00 133.00 C 276.99 134.33 277.00 135.66 277.00 137.00 C 273.00 137.00 269.00 137.00 265.00 137.00 C 265.00 135.66 265.00 134.33 265.00 133.00 Z" />
<path fill="#ffffff" opacity="1.00" d=" M 281.00 133.00 C 285.00 133.00 289.00 133.00 293.00 133.00 C 293.00 134.33 292.99 135.66 293.00 137.00 C 289.00 137.00 285.00 137.00 281.00 137.00 C 281.00 135.66 281.00 134.33 281.00 133.00 Z" />
<path fill="#ffffff" opacity="1.00" d=" M 297.00 133.00 C 301.00 133.00 305.00 133.00 309.00 133.00 C 308.99 134.33 308.99 135.66 309.00 137.00 C 305.00 137.00 301.00 137.00 297.00 137.00 C 297.00 135.66 297.00 134.33 297.00 133.00 Z" />
<path fill="#ffffff" opacity="1.00" d=" M 313.00 133.00 C 317.00 133.00 321.00 133.00 325.00 133.00 C 324.99 134.33 324.99 135.66 325.00 137.00 C 321.00 137.00 317.00 137.00 313.00 137.00 C 313.00 135.66 313.00 134.33 313.00 133.00 Z" />
<path fill="#ffffff" opacity="1.00" d=" M 328.89 133.00 C 330.59 133.00 332.29 133.00 334.00 133.00 C 334.00 136.67 334.00 140.33 334.00 144.00 C 332.67 144.00 331.34 144.00 330.01 144.00 C 330.01 141.86 330.01 139.72 329.89 137.58 C 328.80 136.28 329.04 134.55 328.89 133.00 Z" />
<path fill="#ffffff" opacity="1.00" d=" M 0.00 134.00 C 2.67 134.00 5.33 134.00 8.00 134.00 C 8.00 142.00 8.00 150.00 8.00 158.00 C 5.33 158.00 2.67 158.00 0.00 158.00 L 0.00 134.00 Z" />
<path fill="#ffffff" opacity="1.00" d=" M 353.00 141.00 C 355.67 141.00 358.33 141.00 361.00 141.00 L 361.00 165.00 C 358.33 165.00 355.67 165.00 353.00 165.00 C 353.00 157.00 353.00 149.00 353.00 141.00 Z" />
<path fill="#ffffff" opacity="1.00" d=" M 23.00 143.00 C 24.33 143.00 25.66 143.00 27.00 143.00 C 27.00 147.00 27.00 151.00 27.00 155.00 C 25.67 155.00 24.33 155.00 23.00 155.00 C 23.00 151.00 23.00 147.00 23.00 143.00 Z" />
<path fill="#ffffff" opacity="1.00" d=" M 183.00 143.00 C 184.33 143.00 185.66 143.00 187.00 143.00 C 187.00 147.00 187.00 151.00 187.00 155.00 C 185.66 155.00 184.33 155.00 183.00 155.00 C 183.00 151.00 183.00 147.00 183.00 143.00 Z" />
<path fill="#ffffff" opacity="1.00" d=" M 134.84 149.05 C 138.95 147.09 143.60 146.52 148.01 147.75 C 147.64 148.99 147.28 150.24 146.91 151.49 C 143.46 150.76 139.94 151.15 136.69 152.51 C 136.07 151.35 135.45 150.20 134.84 149.05 Z" />
<path fill="#ffffff" opacity="1.00" d=" M 170.00 148.00 C 171.33 148.00 172.66 148.00 174.00 148.00 C 174.00 152.00 174.00 156.00 174.00 160.00 C 172.66 160.00 171.33 160.00 170.00 160.00 C 170.00 156.00 170.00 152.00 170.00 148.00 Z" />
<path fill="#ffffff" opacity="1.00" d=" M 233.88 147.42 C 238.38 150.07 242.82 152.84 247.29 155.55 C 246.61 156.69 245.94 157.83 245.27 158.98 C 241.97 156.86 238.36 155.19 235.34 152.67 C 233.78 151.36 234.02 149.22 233.88 147.42 Z" />
<path fill="#ffffff" opacity="1.00" d=" M 330.00 148.00 C 331.33 148.00 332.66 148.00 334.00 148.00 C 334.00 152.00 334.00 156.00 334.00 160.00 C 332.66 160.00 331.33 160.00 330.00 160.00 C 330.00 156.00 330.00 152.00 330.00 148.00 Z" />
<path fill="#ffffff" opacity="1.00" d=" M 152.20 149.58 C 155.94 152.24 158.53 156.13 159.80 160.52 C 158.49 160.79 157.19 161.06 155.88 161.33 C 154.81 158.01 152.90 155.05 150.09 152.95 C 150.79 151.82 151.49 150.70 152.20 149.58 Z" />
<path fill="#ffffff" opacity="1.00" d=" M 131.08 151.80 C 132.01 152.70 132.95 153.61 133.88 154.52 C 131.68 157.25 130.24 160.49 129.87 164.00 C 128.54 163.99 127.22 163.99 125.89 163.98 C 126.24 159.46 128.03 155.17 131.08 151.80 Z" />
<path fill="#ffffff" opacity="1.00" d=" M 234.00 155.50 C 235.33 155.50 236.66 155.50 238.00 155.50 C 238.00 159.50 238.00 163.50 238.00 167.50 C 236.66 167.50 235.33 167.50 234.00 167.50 C 234.00 163.50 234.00 159.50 234.00 155.50 Z" />
<path fill="#ffffff" opacity="1.00" d=" M 248.64 161.06 C 249.34 159.93 250.04 158.81 250.74 157.69 C 254.14 159.77 257.54 161.85 260.94 163.94 C 260.24 165.06 259.55 166.18 258.86 167.30 C 255.45 165.23 252.04 163.15 248.64 161.06 Z" />
<path fill="#ffffff" opacity="1.00" d=" M 23.00 159.00 C 24.33 159.00 25.67 159.00 27.00 159.00 C 27.00 163.00 27.00 167.00 27.00 171.00 C 25.67 171.00 24.33 171.00 23.00 171.00 C 23.00 167.00 23.00 163.00 23.00 159.00 Z" />
<path fill="#ffffff" opacity="1.00" d=" M 183.00 159.00 C 184.33 159.00 185.66 159.00 187.00 159.00 C 187.00 163.00 187.00 167.00 187.00 171.00 C 185.66 171.00 184.33 171.00 183.00 171.00 C 183.00 167.00 183.00 163.00 183.00 159.00 Z" />
<path fill="#ffffff" opacity="1.00" d=" M 170.00 164.00 C 171.33 164.00 172.66 164.00 174.00 164.00 C 174.00 168.00 174.00 172.00 174.00 176.00 C 172.66 176.00 171.33 176.00 170.00 176.00 C 170.00 172.00 170.00 168.00 170.00 164.00 Z" />
<path fill="#ffffff" opacity="1.00" d=" M 330.00 164.00 C 331.33 164.00 332.66 164.00 334.00 164.00 C 334.00 168.00 334.00 172.00 334.00 176.00 C 332.66 176.00 331.33 176.00 330.00 176.00 C 330.00 172.00 330.00 168.00 330.00 164.00 Z" />
<path fill="#ffffff" opacity="1.00" d=" M 156.14 164.77 C 157.45 164.92 158.76 165.07 160.07 165.23 C 159.50 169.74 157.42 173.94 154.09 177.05 C 153.25 176.04 152.42 175.03 151.58 174.03 C 154.06 171.49 155.56 168.25 156.14 164.77 Z" />
<path fill="#ffffff" opacity="1.00" d=" M 0.00 166.00 C 2.67 166.00 5.33 166.00 8.00 166.00 C 8.00 174.00 8.00 182.00 8.00 190.00 C 5.33 190.00 2.67 189.99 0.00 190.00 L 0.00 166.00 Z" />
<path fill="#ffffff" opacity="1.00" d=" M 126.06 166.49 C 127.37 166.28 128.68 166.06 130.00 165.84 C 130.92 169.23 132.56 172.40 135.32 174.66 C 134.55 175.72 133.77 176.78 133.00 177.84 C 129.37 175.03 127.10 170.92 126.06 166.49 Z" />
<path fill="#ffffff" opacity="1.00" d=" M 264.37 166.01 C 267.80 168.08 271.23 170.16 274.63 172.28 C 273.93 173.41 273.23 174.54 272.53 175.67 C 269.12 173.59 265.70 171.51 262.29 169.42 C 262.98 168.28 263.67 167.15 264.37 166.01 Z" />
<path fill="#ffffff" opacity="1.00" d=" M 234.00 171.50 C 235.33 171.50 236.66 171.50 238.00 171.50 C 238.00 175.50 238.00 179.50 238.00 183.50 C 236.66 183.50 235.33 183.50 234.00 183.50 C 234.00 179.50 234.00 175.50 234.00 171.50 Z" />
<path fill="#ffffff" opacity="1.00" d=" M 353.00 173.00 C 355.67 173.00 358.33 173.00 361.00 173.00 L 361.00 197.00 C 358.33 196.99 355.67 197.00 353.00 197.00 C 353.00 189.00 353.00 181.00 353.00 173.00 Z" />
<path fill="#ffffff" opacity="1.00" d=" M 23.00 175.00 C 24.33 175.00 25.67 175.00 27.00 175.00 C 27.00 179.00 27.00 183.00 27.00 187.00 C 25.67 187.00 24.33 187.00 23.00 187.00 C 23.00 183.00 23.00 179.00 23.00 175.00 Z" />
<path fill="#ffffff" opacity="1.00" d=" M 183.00 175.00 C 184.33 175.00 185.66 175.00 187.00 175.00 C 187.00 179.00 187.00 183.00 187.00 187.00 C 185.66 187.00 184.33 187.00 183.00 187.00 C 183.00 183.00 183.00 179.00 183.00 175.00 Z" />
<path fill="#ffffff" opacity="1.00" d=" M 276.78 178.87 C 275.49 177.20 277.32 175.77 278.04 174.35 C 280.31 175.74 282.58 177.13 284.85 178.51 C 281.87 180.38 278.86 182.21 275.82 184.00 C 275.16 182.85 274.51 181.70 273.85 180.56 C 274.82 179.99 275.80 179.43 276.78 178.87 Z" />
<path fill="#ffffff" opacity="1.00" d=" M 138.32 176.32 C 141.75 177.20 145.32 177.06 148.66 175.89 C 149.20 177.10 149.74 178.32 150.28 179.54 C 146.02 181.16 141.34 181.37 136.99 179.99 C 137.43 178.76 137.87 177.54 138.32 176.32 Z" />
<path fill="#ffffff" opacity="1.00" d=" M 170.00 180.00 C 171.33 180.00 172.66 180.00 174.00 180.00 C 174.00 184.00 174.00 188.00 174.00 192.00 C 172.66 192.00 171.33 192.00 170.00 192.00 C 170.00 188.00 170.00 184.00 170.00 180.00 Z" />
<path fill="#ffffff" opacity="1.00" d=" M 330.00 180.00 C 331.33 180.00 332.66 180.00 334.00 180.00 C 334.00 184.00 334.00 188.00 334.00 192.00 C 332.66 192.00 331.33 192.00 330.00 192.00 C 330.00 188.00 330.00 184.00 330.00 180.00 Z" />
<path fill="#ffffff" opacity="1.00" d=" M 260.13 188.94 C 263.54 186.85 266.95 184.77 270.37 182.69 C 271.05 183.83 271.74 184.97 272.43 186.12 C 269.04 188.20 265.65 190.29 262.25 192.37 C 261.54 191.22 260.84 190.08 260.13 188.94 Z" />
<path fill="#ffffff" opacity="1.00" d=" M 47.07 186.39 C 49.94 184.73 53.18 184.01 56.48 184.00 C 56.49 184.74 56.49 186.23 56.49 186.97 C 53.86 187.06 51.27 187.58 48.87 188.70 C 48.29 187.91 47.69 187.14 47.07 186.39 Z" />
<path fill="#ffffff" opacity="1.00" d=" M 59.81 184.32 C 62.83 184.92 65.82 185.65 68.78 186.52 C 68.55 187.23 68.10 188.65 67.87 189.36 C 65.04 188.59 62.20 187.88 59.33 187.28 C 59.45 186.54 59.69 185.06 59.81 184.32 Z" />
<path fill="#ffffff" opacity="1.00" d=" M 70.66 190.30 C 70.90 189.60 71.39 188.18 71.63 187.47 C 74.48 188.42 77.33 189.39 80.17 190.38 C 79.85 191.33 79.52 192.28 79.18 193.23 C 76.34 192.24 73.50 191.27 70.66 190.30 Z" />
<path fill="#ffffff" opacity="1.00" d=" M 164.52 188.83 C 165.72 188.56 166.92 188.30 168.13 188.03 C 168.40 188.99 168.67 189.95 168.93 190.91 C 167.67 191.23 166.40 191.56 165.13 191.88 C 164.98 191.12 164.67 189.59 164.52 188.83 Z" />
<path fill="#ffffff" opacity="1.00" d=" M 234.00 187.50 C 235.33 187.50 236.66 187.50 238.00 187.50 C 238.00 191.50 238.00 195.50 238.00 199.50 C 236.66 199.50 235.33 199.50 234.00 199.50 C 234.00 195.50 234.00 191.50 234.00 187.50 Z" />
<path fill="#ffffff" opacity="1.00" d=" M 39.40 196.10 C 41.40 193.88 43.28 191.56 45.03 189.14 C 45.60 189.62 46.74 190.59 47.31 191.07 C 45.58 193.51 43.68 195.81 41.64 198.00 C 40.89 197.37 40.14 196.74 39.40 196.10 Z" />
<path fill="#ffffff" opacity="1.00" d=" M 152.83 191.87 C 155.72 191.13 158.61 190.41 161.51 189.68 C 161.71 190.39 162.10 191.81 162.30 192.52 C 159.39 193.31 156.47 194.04 153.55 194.77 C 153.37 194.04 153.01 192.59 152.83 191.87 Z" />
<path fill="#ffffff" opacity="1.00" d=" M 23.00 191.00 C 24.33 191.00 25.67 191.00 27.00 191.00 C 27.00 195.00 27.00 199.00 27.00 203.00 C 25.67 203.00 24.33 203.00 23.00 203.00 C 23.00 199.00 23.00 195.00 23.00 191.00 Z" />
<path fill="#ffffff" opacity="1.00" d=" M 183.00 191.00 C 184.33 191.00 185.66 191.00 187.00 191.00 C 187.00 195.00 187.00 199.00 187.00 203.00 C 185.66 203.00 184.33 203.00 183.00 203.00 C 183.00 199.00 183.00 195.00 183.00 191.00 Z" />
<path fill="#ffffff" opacity="1.00" d=" M 246.48 197.35 C 249.89 195.23 253.31 193.15 256.74 191.07 C 257.43 192.19 258.12 193.31 258.81 194.43 C 255.40 196.52 251.99 198.59 248.58 200.68 C 247.88 199.57 247.18 198.46 246.48 197.35 Z" />
<path fill="#ffffff" opacity="1.00" d=" M 82.08 194.23 C 82.32 193.28 82.59 192.34 82.87 191.41 C 85.75 192.27 88.63 193.19 91.50 194.11 C 91.29 194.82 90.88 196.24 90.68 196.95 C 87.79 196.11 84.93 195.19 82.08 194.23 Z" />
<path fill="#ffffff" opacity="1.00" d=" M 141.18 194.44 C 144.10 193.80 147.01 193.15 149.93 192.50 C 150.11 193.23 150.46 194.70 150.63 195.43 C 147.68 196.09 144.72 196.73 141.76 197.36 C 141.56 196.39 141.36 195.41 141.18 194.44 Z" />
<path fill="#ffffff" opacity="1.00" d=" M 94.30 194.97 C 97.20 195.59 100.09 196.20 102.99 196.81 C 102.86 197.56 102.61 199.06 102.49 199.81 C 99.50 199.21 96.53 198.56 93.57 197.84 C 93.75 197.12 94.12 195.69 94.30 194.97 Z" />
<path fill="#ffffff" opacity="1.00" d=" M 129.41 196.50 C 132.36 196.06 135.30 195.58 138.24 195.07 C 138.38 195.81 138.65 197.28 138.79 198.01 C 135.83 198.52 132.87 199.00 129.90 199.44 C 129.78 198.71 129.53 197.24 129.41 196.50 Z" />
<path fill="#ffffff" opacity="1.00" d=" M 170.00 196.00 C 171.33 196.00 172.66 196.00 174.00 196.00 C 174.00 200.00 174.00 204.00 174.00 208.00 C 172.66 208.00 171.33 208.00 170.00 208.00 C 170.00 204.00 170.00 200.00 170.00 196.00 Z" />
<path fill="#ffffff" opacity="1.00" d=" M 330.00 196.00 C 331.33 196.00 332.66 196.00 334.00 196.00 C 334.00 200.00 334.00 204.00 334.00 208.00 C 332.66 208.00 331.33 208.00 330.00 208.00 C 330.00 204.00 330.00 200.00 330.00 196.00 Z" />
<path fill="#ffffff" opacity="1.00" d=" M 105.94 197.24 C 108.87 197.53 111.81 197.64 114.76 197.67 C 114.75 198.42 114.75 199.91 114.74 200.66 C 111.66 200.66 108.57 200.53 105.50 200.16 C 105.61 199.43 105.83 197.97 105.94 197.24 Z" />
<path fill="#ffffff" opacity="1.00" d=" M 117.55 197.58 C 120.49 197.40 123.44 197.18 126.36 196.80 C 126.53 197.82 126.72 198.85 126.93 199.87 C 123.90 200.15 120.86 200.38 117.82 200.55 C 117.75 199.81 117.62 198.33 117.55 197.58 Z" />
<path fill="#ffffff" opacity="1.00" d=" M 0.00 198.00 C 2.67 198.00 5.33 198.00 8.00 198.00 C 8.00 206.00 8.00 214.00 8.00 222.00 C 5.33 222.00 2.67 221.99 0.00 222.00 L 0.00 198.00 Z" />
<path fill="#ffffff" opacity="1.00" d=" M 31.90 205.63 C 33.64 203.16 35.46 200.75 37.31 198.36 C 37.89 198.83 39.07 199.76 39.65 200.22 C 37.86 202.59 36.08 204.98 34.32 207.37 C 33.71 206.94 32.50 206.07 31.90 205.63 Z" />
<path fill="#ffffff" opacity="1.00" d=" M 234.00 203.73 C 237.48 203.43 240.17 201.05 243.06 199.37 C 243.76 200.51 244.47 201.66 245.18 202.81 C 241.45 205.08 237.73 207.35 234.01 209.61 C 234.00 207.65 234.00 205.69 234.00 203.73 Z" />
<path fill="#ffffff" opacity="1.00" d=" M 353.00 205.00 C 355.67 205.00 358.33 205.00 361.00 205.00 L 361.00 229.00 C 358.33 228.99 355.67 229.00 353.00 229.00 C 353.00 221.00 353.00 213.00 353.00 205.00 Z" />
<path fill="#ffffff" opacity="1.00" d=" M 23.00 207.00 C 24.33 207.00 25.66 207.00 27.00 207.00 C 27.00 209.02 27.00 211.03 27.00 213.06 C 28.06 211.43 29.11 209.80 30.17 208.18 C 31.01 208.71 31.84 209.26 32.66 209.81 C 30.88 213.02 28.45 215.81 26.59 218.97 C 25.40 218.98 24.20 219.00 23.00 219.01 C 23.00 215.00 23.00 211.00 23.00 207.00 Z" />
<path fill="#ffffff" opacity="1.00" d=" M 183.00 207.00 C 184.33 207.00 185.66 207.00 187.00 207.00 C 187.00 211.00 187.00 215.00 187.00 219.00 C 185.66 219.00 184.33 219.00 183.00 219.00 C 183.00 215.00 183.00 211.00 183.00 207.00 Z" />
<path fill="#ffffff" opacity="1.00" d=" M 170.00 212.00 C 171.33 212.00 172.66 212.00 174.00 212.00 C 174.00 216.00 174.00 220.00 174.00 224.00 C 172.66 224.00 171.33 224.00 170.00 224.00 C 170.00 220.00 170.00 216.00 170.00 212.00 Z" />
<path fill="#ffffff" opacity="1.00" d=" M 330.00 212.00 C 331.33 212.00 332.66 212.00 334.00 212.00 C 334.00 216.00 334.00 220.00 334.00 224.00 C 332.66 224.00 331.33 224.00 330.00 224.00 C 330.00 220.00 330.00 216.00 330.00 212.00 Z" />
<path fill="#ffffff" opacity="1.00" d=" M 26.00 220.00 C 30.00 220.00 34.00 220.00 38.00 220.00 C 38.00 221.33 38.00 222.66 38.00 224.00 C 34.00 224.00 30.00 224.00 26.00 224.00 C 26.00 222.66 26.00 221.33 26.00 220.00 Z" />
<path fill="#ffffff" opacity="1.00" d=" M 42.00 220.00 C 46.00 220.00 50.00 220.00 54.00 220.00 C 54.00 221.33 54.00 222.66 54.00 224.00 C 50.00 224.00 46.00 224.00 42.00 224.00 C 42.00 222.66 42.00 221.33 42.00 220.00 Z" />
<path fill="#ffffff" opacity="1.00" d=" M 58.00 220.00 C 62.00 220.00 66.00 220.00 70.00 220.00 C 70.00 221.33 70.00 222.66 70.00 224.00 C 66.00 224.00 62.00 224.00 58.00 224.00 C 58.00 222.66 58.00 221.33 58.00 220.00 Z" />
<path fill="#ffffff" opacity="1.00" d=" M 74.00 220.00 C 78.00 220.00 82.00 220.00 86.00 220.00 C 86.00 221.33 86.00 222.66 86.00 224.00 C 82.00 224.00 78.00 224.00 74.00 224.00 C 74.00 222.66 74.00 221.33 74.00 220.00 Z" />
<path fill="#ffffff" opacity="1.00" d=" M 90.00 220.00 C 94.00 220.00 98.00 220.00 102.00 220.00 C 102.00 221.33 102.00 222.66 102.00 224.00 C 98.00 224.00 94.00 224.00 90.00 224.00 C 90.00 222.66 90.00 221.33 90.00 220.00 Z" />
<path fill="#ffffff" opacity="1.00" d=" M 106.00 220.00 C 110.00 220.00 114.00 220.00 118.00 220.00 C 118.00 221.33 118.00 222.66 118.00 224.00 C 114.00 224.00 110.00 224.00 106.00 224.00 C 106.00 222.66 106.00 221.33 106.00 220.00 Z" />
<path fill="#ffffff" opacity="1.00" d=" M 122.00 220.00 C 126.00 220.00 130.00 220.00 134.00 220.00 C 134.00 221.33 134.00 222.66 134.00 224.00 C 130.00 224.00 126.00 224.00 122.00 224.00 C 122.00 222.66 122.00 221.33 122.00 220.00 Z" />
<path fill="#ffffff" opacity="1.00" d=" M 138.00 220.00 C 142.00 220.00 146.00 220.00 150.00 220.00 C 150.00 221.33 150.00 222.66 150.00 224.00 C 146.00 224.00 142.00 224.00 138.00 224.00 C 138.00 222.66 138.00 221.33 138.00 220.00 Z" />
<path fill="#ffffff" opacity="1.00" d=" M 154.00 220.00 C 158.00 220.00 162.00 220.00 166.00 220.00 C 166.00 221.33 166.00 222.66 166.00 224.00 C 162.00 224.00 158.00 224.00 154.00 224.00 C 154.00 222.66 154.00 221.33 154.00 220.00 Z" />
<path fill="#ffffff" opacity="1.00" d=" M 186.00 220.00 C 190.00 220.00 194.00 220.00 198.00 220.00 C 198.00 221.33 198.00 222.66 198.00 224.00 C 194.00 224.00 190.00 224.00 186.00 224.00 C 186.00 222.66 186.00 221.33 186.00 220.00 Z" />
<path fill="#ffffff" opacity="1.00" d=" M 202.00 220.00 C 206.00 220.00 210.00 220.00 214.00 220.00 C 214.00 221.33 214.00 222.66 214.00 224.00 C 210.00 224.00 206.00 224.00 202.00 224.00 C 202.00 222.66 202.00 221.33 202.00 220.00 Z" />
<path fill="#ffffff" opacity="1.00" d=" M 218.00 220.00 C 222.00 220.00 226.00 220.00 230.00 220.00 C 230.00 221.33 229.99 222.66 230.00 224.00 C 226.00 224.00 222.00 224.00 218.00 224.00 C 218.00 222.66 218.00 221.33 218.00 220.00 Z" />
<path fill="#ffffff" opacity="1.00" d=" M 234.00 220.00 C 238.00 220.00 242.00 220.00 246.00 220.00 C 246.00 221.33 246.00 222.66 246.00 224.00 C 242.00 224.00 238.00 224.00 234.00 224.00 C 234.00 222.66 234.00 221.33 234.00 220.00 Z" />
<path fill="#ffffff" opacity="1.00" d=" M 250.00 220.00 C 254.00 220.00 258.00 220.00 262.00 220.00 C 262.00 221.33 262.00 222.66 262.00 224.00 C 258.00 224.00 254.00 224.00 250.00 224.00 C 250.00 222.66 250.00 221.33 250.00 220.00 Z" />
<path fill="#ffffff" opacity="1.00" d=" M 266.00 220.00 C 270.00 220.00 274.00 220.00 278.00 220.00 C 277.99 221.33 277.99 222.66 278.00 224.00 C 274.00 224.00 270.00 224.00 266.00 224.00 C 266.00 222.66 266.00 221.33 266.00 220.00 Z" />
<path fill="#ffffff" opacity="1.00" d=" M 282.00 220.00 C 286.00 220.00 290.00 220.00 294.00 220.00 C 293.99 221.33 293.99 222.66 294.00 224.00 C 290.00 224.00 286.00 224.00 282.00 224.00 C 282.00 222.66 282.00 221.33 282.00 220.00 Z" />
<path fill="#ffffff" opacity="1.00" d=" M 298.00 220.00 C 302.00 220.00 306.00 220.00 310.00 220.00 C 309.99 221.33 309.99 222.66 310.00 224.00 C 306.00 224.00 302.00 224.00 298.00 224.00 C 298.00 222.66 298.00 221.33 298.00 220.00 Z" />
<path fill="#ffffff" opacity="1.00" d=" M 314.00 220.00 C 318.00 220.00 322.00 220.00 326.00 220.00 C 325.99 221.33 325.99 222.66 326.00 224.00 C 322.00 224.00 318.00 224.00 314.00 224.00 C 314.00 222.66 314.00 221.33 314.00 220.00 Z" />
<path fill="#ffffff" opacity="1.00" d=" M 0.00 230.00 C 2.67 230.00 5.33 230.00 8.00 230.00 C 8.00 238.00 8.00 246.00 8.00 254.00 C 5.33 254.00 2.67 253.99 0.00 254.00 L 0.00 230.00 Z" />
<path fill="#ffffff" opacity="1.00" d=" M 353.00 237.00 C 355.67 237.00 358.33 237.00 361.00 237.00 L 361.00 261.00 C 358.33 260.99 355.67 261.00 353.00 261.00 C 353.00 253.00 353.00 245.00 353.00 237.00 Z" />
<path fill="#ffffff" opacity="1.00" d=" M 0.00 262.00 C 2.67 262.00 5.33 261.99 8.00 262.00 C 8.00 265.66 8.00 269.33 8.00 272.99 C 9.67 272.99 11.33 273.00 13.00 273.01 C 13.00 275.67 13.00 278.33 13.00 281.00 C 8.67 281.00 4.33 281.00 0.00 281.00 L 0.00 262.00 Z" />
<path fill="#ffffff" opacity="1.00" d=" M 353.01 269.00 C 355.67 268.99 358.33 269.00 361.00 269.00 L 361.00 281.00 C 354.33 281.00 347.67 281.00 341.00 281.00 C 341.00 278.33 341.00 275.66 341.00 273.00 C 344.99 273.00 348.99 273.00 352.99 273.00 C 352.99 271.66 353.00 270.33 353.01 269.00 Z" />
<path fill="#ffffff" opacity="1.00" d=" M 21.00 273.00 C 29.00 273.00 37.00 273.00 45.00 273.00 C 45.00 275.66 45.00 278.33 45.00 281.00 C 37.00 281.00 29.00 281.00 21.00 281.00 C 21.00 278.33 21.00 275.67 21.00 273.00 Z" />
<path fill="#ffffff" opacity="1.00" d=" M 53.00 273.00 C 61.00 273.00 69.00 273.00 77.00 273.00 C 77.00 275.67 77.00 278.33 77.00 281.00 C 69.00 281.00 61.00 281.00 53.00 281.00 C 53.00 278.33 53.00 275.66 53.00 273.00 Z" />
<path fill="#ffffff" opacity="1.00" d=" M 85.00 273.00 C 93.00 273.00 101.00 273.00 109.00 273.00 C 109.00 275.67 109.00 278.33 109.00 281.00 C 101.00 281.00 93.00 281.00 85.00 281.00 C 85.00 278.33 85.00 275.66 85.00 273.00 Z" />
<path fill="#ffffff" opacity="1.00" d=" M 117.00 273.00 C 125.00 273.00 133.00 273.00 141.00 273.00 C 141.00 275.67 141.00 278.33 141.00 281.00 C 133.00 281.00 125.00 281.00 117.00 281.00 C 117.00 278.33 117.00 275.67 117.00 273.00 Z" />
<path fill="#ffffff" opacity="1.00" d=" M 149.00 273.00 C 157.00 273.00 165.00 273.00 173.00 273.00 C 173.00 275.67 173.00 278.33 173.00 281.00 C 165.00 281.00 157.00 281.00 149.00 281.00 C 149.00 278.33 149.00 275.67 149.00 273.00 Z" />
<path fill="#ffffff" opacity="1.00" d=" M 181.00 273.00 C 189.00 273.00 197.00 273.00 205.00 273.00 C 205.00 275.67 205.00 278.33 205.00 281.00 C 197.00 281.00 189.00 281.00 181.00 281.00 C 181.00 278.33 181.00 275.67 181.00 273.00 Z" />
<path fill="#ffffff" opacity="1.00" d=" M 213.00 273.00 C 221.00 273.00 229.00 273.00 237.00 273.00 C 237.00 275.66 237.00 278.33 237.00 281.00 C 229.00 281.00 221.00 281.00 213.00 281.00 C 213.00 278.33 213.00 275.66 213.00 273.00 Z" />
<path fill="#ffffff" opacity="1.00" d=" M 245.00 273.00 C 253.00 273.00 261.00 273.00 269.00 273.00 C 269.00 275.67 269.00 278.33 269.00 281.00 C 261.00 281.00 253.00 281.00 245.00 281.00 C 245.00 278.33 245.00 275.66 245.00 273.00 Z" />
<path fill="#ffffff" opacity="1.00" d=" M 277.00 273.00 C 285.00 273.00 293.00 273.00 301.00 273.00 C 301.00 275.66 301.00 278.33 301.00 281.00 C 293.00 281.00 285.00 281.00 277.00 281.00 C 277.00 278.33 277.00 275.66 277.00 273.00 Z" />
<path fill="#ffffff" opacity="1.00" d=" M 309.00 273.00 C 317.00 273.00 325.00 273.00 333.00 273.00 C 333.00 275.67 333.00 278.33 333.00 281.00 C 325.00 281.00 317.00 281.00 309.00 281.00 C 309.00 278.33 309.00 275.66 309.00 273.00 Z" />
</g>
<defs>
    <style><![CDATA[
        .sprite { display: none; }
        .sprite:target { display: inline; }
    ]]></style>
</defs>
</svg>
