<?xml version="1.0" encoding="utf-8"?>
<!DOCTYPE svg PUBLIC "-//W3C//DTD SVG 1.1//EN" "http://www.w3.org/Graphics/SVG/1.1/DTD/svg11.dtd">
<svg xmlns="http://www.w3.org/2000/svg" width="50px" height="50px" viewBox="0 0 79 79" version="1.1">
<g class="sprite" id="badge">
    <path fill="#454545" d=" M 38.08 0.00 L 40.52 0.00 C 50.95 0.46 61.24 4.91 68.31 12.67 C 74.57 19.16 78.11 27.91 79.00 36.81 L 79.00 42.94 C 77.74 52.48 73.53 61.78 66.34 68.31 C 59.85 74.57 51.09 78.11 42.19 79.00 L 36.07 79.00 C 26.97 77.79 18.06 74.00 11.63 67.31 C 4.45 60.26 0.40 50.35 0.00 40.34 L 0.00 37.71 C 0.72 28.28 4.47 18.95 11.21 12.20 C 18.14 4.81 28.04 0.60 38.08 0.00 Z"/><path fill="#3f87f6" d=" M 32.07 4.89 C 48.96 0.75 67.67 11.50 72.99 27.98 C 75.03 33.13 75.01 38.69 75.11 44.14 C 72.28 41.18 69.16 38.35 65.27 36.85 C 68.04 35.08 70.85 32.57 70.71 28.98 C 70.52 19.94 62.97 11.35 53.94 10.28 C 49.49 9.75 45.32 13.49 45.40 17.98 C 45.50 26.19 51.63 33.96 59.51 36.20 C 59.02 40.27 59.36 44.45 58.43 48.46 C 56.87 50.71 53.46 50.57 51.04 50.16 C 46.88 48.48 47.41 41.97 42.99 40.67 C 38.24 41.20 41.78 49.19 36.95 49.95 C 33.91 50.42 30.20 50.40 27.89 48.08 C 25.78 44.94 24.99 41.13 23.96 37.54 C 23.71 34.70 23.75 31.85 23.74 29.00 C 22.38 29.00 21.03 29.00 19.68 29.00 C 19.69 32.31 19.77 35.62 19.48 38.92 C 18.19 43.92 17.37 49.07 15.64 53.94 C 12.72 55.76 10.69 51.50 8.57 50.00 C 7.79 50.54 7.00 51.07 6.21 51.61 C 3.44 44.02 3.23 35.53 6.09 27.93 C 9.93 16.40 20.20 7.39 32.07 4.89 Z"/><path fill="#454545" d=" M 45.40 17.98 C 45.32 13.49 49.49 9.75 53.94 10.28 C 62.97 11.35 70.52 19.94 70.71 28.98 C 70.85 32.57 68.04 35.08 65.27 36.85 C 63.36 36.55 61.43 36.43 59.51 36.20 C 51.63 33.96 45.50 26.19 45.40 17.98 Z"/><path fill="#454545" d=" M 30.29 13.33 C 34.35 12.38 40.14 12.62 41.83 17.24 C 43.22 19.73 41.90 22.37 40.50 24.48 C 43.63 26.74 45.33 30.88 43.69 34.57 C 41.62 40.10 34.50 41.09 29.55 39.38 C 28.38 38.25 28.52 36.52 28.43 35.04 C 28.39 29.56 28.50 24.08 28.44 18.61 C 26.89 16.94 25.34 15.29 23.91 13.53 C 25.92 14.37 27.57 15.79 28.40 17.85 C 28.82 16.46 28.31 13.75 30.29 13.33 Z"/><path fill="#3f87f6" d=" M 48.65 15.63 C 49.68 13.09 52.76 13.18 55.00 12.63 C 53.59 14.55 51.37 16.28 51.42 18.88 C 51.21 22.08 51.68 25.28 52.28 28.41 C 49.66 24.79 46.92 20.22 48.65 15.63 Z"/><path fill="#3b74c5" d=" M 55.00 12.63 C 57.86 14.02 60.62 15.62 63.11 17.62 C 62.24 19.27 61.38 20.92 60.52 22.58 C 59.95 20.47 59.40 18.35 58.87 16.23 C 57.78 16.34 56.70 16.44 55.61 16.55 C 55.10 17.71 54.59 18.87 54.08 20.03 C 56.03 21.21 58.94 21.78 59.57 24.32 C 60.59 27.50 61.06 30.90 62.91 33.75 C 63.16 32.17 63.40 30.58 63.62 28.99 C 64.46 30.49 65.31 31.98 66.15 33.48 C 60.94 35.02 55.55 32.48 52.28 28.41 C 51.68 25.28 51.21 22.08 51.42 18.88 C 51.37 16.28 53.59 14.55 55.00 12.63 Z"/><path fill="#3a4f6d" d=" M 55.61 16.55 C 56.70 16.44 57.78 16.34 58.87 16.23 C 59.40 18.35 59.95 20.47 60.52 22.58 C 61.38 20.92 62.24 19.27 63.11 17.62 C 63.58 18.18 64.05 18.73 64.52 19.28 C 63.83 20.93 63.13 22.59 62.44 24.24 C 64.20 26.55 66.00 28.82 67.88 31.02 C 67.30 31.84 66.73 32.66 66.15 33.48 C 65.31 31.98 64.46 30.49 63.62 28.99 C 63.40 30.58 63.16 32.17 62.91 33.75 C 61.06 30.90 60.59 27.50 59.57 24.32 C 58.94 21.78 56.03 21.21 54.08 20.03 C 54.59 18.87 55.10 17.71 55.61 16.55 Z"/><path fill="#454545" d=" M 22.62 16.68 C 24.79 16.83 26.10 18.55 27.35 20.10 C 25.94 22.10 24.57 24.17 22.70 25.78 C 20.16 27.02 18.38 23.59 19.93 21.65 C 21.28 21.22 22.61 20.73 23.86 20.05 L 22.56 19.64 C 23.29 19.03 24.00 18.41 24.70 17.77 L 22.62 16.68 Z"/><path fill="#3f87f6" d=" M 32.79 16.72 C 34.76 17.14 38.33 17.08 38.04 20.03 C 38.27 22.93 34.74 22.85 32.79 23.27 C 32.78 21.09 32.78 18.90 32.79 16.72 Z"/><path fill="#2c5eab" d=" M 62.44 24.24 C 63.13 22.59 63.83 20.93 64.52 19.28 C 67.01 22.68 68.41 26.77 67.88 31.02 C 66.00 28.82 64.20 26.55 62.44 24.24 Z"/><path fill="#3f87f6" d=" M 32.79 26.77 C 34.55 27.11 36.49 26.99 38.10 27.88 C 40.66 29.43 40.40 33.46 38.25 35.23 C 36.54 36.00 34.60 35.92 32.78 36.20 C 32.77 33.06 32.77 29.92 32.79 26.77 Z"/><path fill="#454545" d=" M 19.68 29.00 C 21.03 29.00 22.38 29.00 23.74 29.00 C 23.75 31.85 23.71 34.70 23.96 37.54 C 22.47 38.00 20.98 38.46 19.48 38.92 C 19.77 35.62 19.69 32.31 19.68 29.00 Z"/><path fill="#385d8a" d=" M 59.51 36.20 C 61.43 36.43 63.36 36.55 65.27 36.85 C 69.16 38.35 72.28 41.18 75.11 44.14 C 75.53 49.09 72.79 53.36 70.55 57.52 C 64.15 67.88 52.44 75.42 40.06 75.09 C 25.18 75.90 11.07 65.58 5.66 51.99 L 6.21 51.61 C 7.00 51.07 7.79 50.54 8.57 50.00 C 10.69 51.50 12.72 55.76 15.64 53.94 C 17.37 49.07 18.19 43.92 19.48 38.92 C 20.98 38.46 22.47 38.00 23.96 37.54 C 24.99 41.13 25.78 44.94 27.89 48.08 C 30.20 50.40 33.91 50.42 36.95 49.95 C 41.78 49.19 38.24 41.20 42.99 40.67 C 47.41 41.97 46.88 48.48 51.04 50.16 C 53.46 50.57 56.87 50.71 58.43 48.46 C 59.36 44.45 59.02 40.27 59.51 36.20 Z"/>
</g>
 
<g class="sprite" id="icon">
    <path fill="#454545" d=" M 38.08 0.00 L 40.52 0.00 C 50.95 0.46 61.24 4.91 68.31 12.67 C 74.57 19.16 78.11 27.91 79.00 36.81 L 79.00 42.94 C 77.74 52.48 73.53 61.78 66.34 68.31 C 59.85 74.57 51.09 78.11 42.19 79.00 L 36.07 79.00 C 26.97 77.79 18.06 74.00 11.63 67.31 C 4.45 60.26 0.40 50.35 0.00 40.34 L 0.00 37.71 C 0.72 28.28 4.47 18.95 11.21 12.20 C 18.14 4.81 28.04 0.60 38.08 0.00 Z" style="
    fill:#fff"></path>
<path fill="#3f87f6" d=" M 32.07 4.89 C 48.96 0.75 67.67 11.50 72.99 27.98 C 75.03 33.13 75.01 38.69 75.11 44.14 C 72.28 41.18 69.16 38.35 65.27 36.85 C 68.04 35.08 70.85 32.57 70.71 28.98 C 70.52 19.94 62.97 11.35 53.94 10.28 C 49.49 9.75 45.32 13.49 45.40 17.98 C 45.50 26.19 51.63 33.96 59.51 36.20 C 59.02 40.27 59.36 44.45 58.43 48.46 C 56.87 50.71 53.46 50.57 51.04 50.16 C 46.88 48.48 47.41 41.97 42.99 40.67 C 38.24 41.20 41.78 49.19 36.95 49.95 C 33.91 50.42 30.20 50.40 27.89 48.08 C 25.78 44.94 24.99 41.13 23.96 37.54 C 23.71 34.70 23.75 31.85 23.74 29.00 C 22.38 29.00 21.03 29.00 19.68 29.00 C 19.69 32.31 19.77 35.62 19.48 38.92 C 18.19 43.92 17.37 49.07 15.64 53.94 C 12.72 55.76 10.69 51.50 8.57 50.00 C 7.79 50.54 7.00 51.07 6.21 51.61 C 3.44 44.02 3.23 35.53 6.09 27.93 C 9.93 16.40 20.20 7.39 32.07 4.89 Z" style="
    fill: #fff;
"></path>
<path fill="#454545" d=" M 45.40 17.98 C 45.32 13.49 49.49 9.75 53.94 10.28 C 62.97 11.35 70.52 19.94 70.71 28.98 C 70.85 32.57 68.04 35.08 65.27 36.85 C 63.36 36.55 61.43 36.43 59.51 36.20 C 51.63 33.96 45.50 26.19 45.40 17.98 Z" style="
    fill: #3f87f6;
"></path>
<path fill="#454545" d=" M 30.29 13.33 C 34.35 12.38 40.14 12.62 41.83 17.24 C 43.22 19.73 41.90 22.37 40.50 24.48 C 43.63 26.74 45.33 30.88 43.69 34.57 C 41.62 40.10 34.50 41.09 29.55 39.38 C 28.38 38.25 28.52 36.52 28.43 35.04 C 28.39 29.56 28.50 24.08 28.44 18.61 C 26.89 16.94 25.34 15.29 23.91 13.53 C 25.92 14.37 27.57 15.79 28.40 17.85 C 28.82 16.46 28.31 13.75 30.29 13.33 Z" style="
    fill: #3f87f6;
"></path>
<path fill="#3f87f6" d=" M 48.65 15.63 C 49.68 13.09 52.76 13.18 55.00 12.63 C 53.59 14.55 51.37 16.28 51.42 18.88 C 51.21 22.08 51.68 25.28 52.28 28.41 C 49.66 24.79 46.92 20.22 48.65 15.63 Z" style="
    fill: rgba(255, 255, 255, 0.5);
"></path>
<path fill="#3b74c5" d=" M 55.00 12.63 C 57.86 14.02 60.62 15.62 63.11 17.62 C 62.24 19.27 61.38 20.92 60.52 22.58 C 59.95 20.47 59.40 18.35 58.87 16.23 C 57.78 16.34 56.70 16.44 55.61 16.55 C 55.10 17.71 54.59 18.87 54.08 20.03 C 56.03 21.21 58.94 21.78 59.57 24.32 C 60.59 27.50 61.06 30.90 62.91 33.75 C 63.16 32.17 63.40 30.58 63.62 28.99 C 64.46 30.49 65.31 31.98 66.15 33.48 C 60.94 35.02 55.55 32.48 52.28 28.41 C 51.68 25.28 51.21 22.08 51.42 18.88 C 51.37 16.28 53.59 14.55 55.00 12.63 Z" style="
    fill: rgba(255, 255, 255, 0.5);
"></path>
<path fill="#3a4f6d" d=" M 55.61 16.55 C 56.70 16.44 57.78 16.34 58.87 16.23 C 59.40 18.35 59.95 20.47 60.52 22.58 C 61.38 20.92 62.24 19.27 63.11 17.62 C 63.58 18.18 64.05 18.73 64.52 19.28 C 63.83 20.93 63.13 22.59 62.44 24.24 C 64.20 26.55 66.00 28.82 67.88 31.02 C 67.30 31.84 66.73 32.66 66.15 33.48 C 65.31 31.98 64.46 30.49 63.62 28.99 C 63.40 30.58 63.16 32.17 62.91 33.75 C 61.06 30.90 60.59 27.50 59.57 24.32 C 58.94 21.78 56.03 21.21 54.08 20.03 C 54.59 18.87 55.10 17.71 55.61 16.55 Z" style="
    fill: #3f87f6;
"></path>
<path fill="#454545" d=" M 22.62 16.68 C 24.79 16.83 26.10 18.55 27.35 20.10 C 25.94 22.10 24.57 24.17 22.70 25.78 C 20.16 27.02 18.38 23.59 19.93 21.65 C 21.28 21.22 22.61 20.73 23.86 20.05 L 22.56 19.64 C 23.29 19.03 24.00 18.41 24.70 17.77 L 22.62 16.68 Z" style="
    fill: #3f87f6;
"></path>
<path fill="#3f87f6" d=" M 32.79 16.72 C 34.76 17.14 38.33 17.08 38.04 20.03 C 38.27 22.93 34.74 22.85 32.79 23.27 C 32.78 21.09 32.78 18.90 32.79 16.72 Z" style="
    fill: rgba(255, 255, 255, 0.5);
"></path>
<path fill="#2c5eab" d=" M 62.44 24.24 C 63.13 22.59 63.83 20.93 64.52 19.28 C 67.01 22.68 68.41 26.77 67.88 31.02 C 66.00 28.82 64.20 26.55 62.44 24.24 Z" style="
    fill: rgba(255, 255, 255, 0.5);
"></path>
<path fill="#3f87f6" d=" M 32.79 26.77 C 34.55 27.11 36.49 26.99 38.10 27.88 C 40.66 29.43 40.40 33.46 38.25 35.23 C 36.54 36.00 34.60 35.92 32.78 36.20 C 32.77 33.06 32.77 29.92 32.79 26.77 Z" style="
    fill: rgba(255, 255, 255, 0.5);
"></path>
<path fill="#454545" d=" M 19.68 29.00 C 21.03 29.00 22.38 29.00 23.74 29.00 C 23.75 31.85 23.71 34.70 23.96 37.54 C 22.47 38.00 20.98 38.46 19.48 38.92 C 19.77 35.62 19.69 32.31 19.68 29.00 Z" style="
    fill: #3f87f6;
"></path>
<path fill="#385d8a" d=" M 59.51 36.20 C 61.43 36.43 63.36 36.55 65.27 36.85 C 69.16 38.35 72.28 41.18 75.11 44.14 C 75.53 49.09 72.79 53.36 70.55 57.52 C 64.15 67.88 52.44 75.42 40.06 75.09 C 25.18 75.90 11.07 65.58 5.66 51.99 L 6.21 51.61 C 7.00 51.07 7.79 50.54 8.57 50.00 C 10.69 51.50 12.72 55.76 15.64 53.94 C 17.37 49.07 18.19 43.92 19.48 38.92 C 20.98 38.46 22.47 38.00 23.96 37.54 C 24.99 41.13 25.78 44.94 27.89 48.08 C 30.20 50.40 33.91 50.42 36.95 49.95 C 41.78 49.19 38.24 41.20 42.99 40.67 C 47.41 41.97 46.88 48.48 51.04 50.16 C 53.46 50.57 56.87 50.71 58.43 48.46 C 59.36 44.45 59.02 40.27 59.51 36.20 Z" style="
    fill: #3f87f6;
"></path>
</g>
<defs>
    <style><![CDATA[
        .sprite { display: none; }
        .sprite:target { display: inline; }
    ]]></style>
</defs>
</svg>




























