<?xml version="1.0" encoding="utf-8"?> <!-- Generator: IcoMoon.io --> <!DOCTYPE svg PUBLIC "-//W3C//DTD SVG 1.1//EN" "http://www.w3.org/Graphics/SVG/1.1/DTD/svg11.dtd"> <svg width="32" height="32" viewBox="0 0 32 32" xmlns="http://www.w3.org/2000/svg" xmlns:xlink="http://www.w3.org/1999/xlink" fill="#ffffff"><g><path d="M 16,3 C 12.528,3 9.263,4.352 6.808,6.808 C 4.352,9.263 3,12.528 3,16 C 3,19.472 4.352,22.737 6.808,25.192 C 9.263,27.648 12.528,29 16,29 C 19.472,29 22.737,27.648 25.192,25.192 C 27.648,22.737 29,19.472 29,16 C 29,12.528 27.648,9.263 25.192,6.808 C 22.737,4.352 19.472,3 16,3 Z M 16,0 L 16,0 C 24.837,0 32,7.163 32,16 C 32,24.837 24.837,32 16,32 C 7.163,32 0,24.837 0,16 C 0,7.163 7.163,0 16,0 ZM 14,22L 18,22L 18,26L 14,26zM 14,6L 18,6L 18,18L 14,18z"></path></g></svg>