<?xml version="1.0" encoding="UTF-8" ?>
<!-- Created by: Daniell Mesquita --><!DOCTYPE svg PUBLIC "-//W3C//DTD SVG 1.1//EN" "http://www.w3.org/Graphics/SVG/1.1/DTD/svg11.dtd">
<svg width="37pt" height="33pt" viewBox="0 0 37 33" version="1.1" xmlns="http://www.w3.org/2000/svg">
<path fill="transparent" d=" M 0.00 0.00 L 37.00 0.00 L 37.00 33.00 L 0.00 33.00 L 0.00 0.00 Z" />
<path fill="#B0CEE6" d=" M 17.11 3.69 C 20.67 4.50 24.35 1.03 27.67 3.21 C 28.31 4.90 28.13 6.76 28.49 8.51 C 29.84 9.85 31.92 10.35 32.97 12.04 C 33.16 13.19 33.31 14.35 33.41 15.51 C 34.33 16.00 35.23 16.52 36.11 17.08 C 34.57 19.81 32.55 22.25 31.04 25.00 C 32.04 26.82 33.71 28.56 32.86 30.82 C 23.07 31.31 13.21 30.89 3.40 31.03 L 2.00 30.18 C 8.77 28.81 15.68 29.45 22.53 29.40 C 21.60 27.22 21.08 24.82 21.32 22.44 C 21.75 21.62 22.06 20.75 22.24 19.84 C 20.74 19.81 19.23 19.86 17.74 19.57 C 19.11 19.47 20.47 19.37 21.84 19.28 L 22.21 19.66 C 23.33 20.92 24.35 22.40 26.09 22.85 C 27.42 22.07 29.09 20.00 27.98 18.56 C 29.43 17.57 31.23 17.02 32.26 15.50 C 30.25 15.13 27.85 16.03 26.23 14.41 C 26.55 14.00 27.18 13.18 27.49 12.76 C 26.40 13.06 25.31 13.39 24.24 13.75 C 21.71 11.55 20.36 8.40 19.76 5.17 C 17.50 4.94 15.23 4.67 12.96 4.57 C 12.63 6.23 12.66 7.92 12.47 9.59 C 10.67 10.41 8.56 10.75 7.16 12.27 C 6.38 14.26 8.35 15.59 9.29 17.06 C 7.59 17.07 5.89 17.07 4.18 17.05 C 6.41 20.45 9.58 23.29 11.04 27.14 C 9.44 26.13 8.04 24.85 6.40 23.89 C 6.15 24.56 5.63 25.89 5.38 26.55 C 4.58 26.06 3.95 25.41 3.48 24.61 C 4.56 23.96 5.62 23.28 6.66 22.58 C 5.44 20.38 3.02 18.71 2.87 16.03 C 3.64 15.99 5.18 15.91 5.95 15.87 C 5.97 14.56 5.99 13.24 6.00 11.92 C 7.09 10.07 9.34 9.64 11.09 8.65 C 11.39 7.12 11.24 5.47 12.03 4.07 C 13.42 2.59 15.41 3.58 17.11 3.69 Z" />
<path fill="#4c4c4c" d=" M 11.96 13.14 C 15.96 14.07 20.21 15.18 24.24 13.75 C 25.31 13.39 26.40 13.06 27.49 12.76 C 27.18 13.18 26.55 14.00 26.23 14.41 C 21.72 16.72 15.85 16.64 11.96 13.14 Z" />
<path fill="#4c4c4c" d=" M 14.78 18.97 C 15.52 19.12 17.00 19.42 17.74 19.57 C 19.23 19.86 20.74 19.81 22.24 19.84 C 22.06 20.75 21.75 21.62 21.32 22.44 C 18.73 25.18 14.34 22.42 14.78 18.97 Z" />
<path fill="#4c4c4c" d=" M 22.21 19.66 C 24.24 19.74 26.17 19.37 27.98 18.56 C 29.09 20.00 27.42 22.07 26.09 22.85 C 24.35 22.40 23.33 20.92 22.21 19.66 Z" />
</svg>