<?xml version="1.0" encoding="UTF-8" ?>
<!DOCTYPE svg PUBLIC "-//W3C//DTD SVG 1.1//EN" "http://www.w3.org/Graphics/SVG/1.1/DTD/svg11.dtd">
<svg xmlns="http://www.w3.org/2000/svg" width="112pt" height="97pt" viewBox="0 0 112 97" version="1.1">

<path fill="#e4cf2d" d=" M 0.00 6.08 C 1.24 2.80 4.25 -0.18 8.01 0.20 C 17.69 0.25 27.38 0.12 37.06 0.26 C 40.98 0.24 43.13 3.96 44.33 7.17 C 65.76 7.29 87.19 7.12 108.61 7.25 C 109.76 8.45 110.90 9.65 112.00 10.90 L 112.00 27.21 C 109.78 25.02 107.80 22.55 105.22 20.74 C 102.36 18.33 98.46 19.03 95.01 18.96 C 67.32 19.03 39.63 18.98 11.93 18.97 C 10.01 18.83 8.27 19.69 6.75 20.76 C 4.19 22.54 2.27 25.04 0.00 27.14 L 0.00 6.08 Z"/>
<path fill="#bea909" d=" M 6.75 20.76 C 8.27 19.69 10.01 18.83 11.93 18.97 C 39.63 18.98 67.32 19.03 95.01 18.96 C 98.46 19.03 102.36 18.33 105.22 20.74 C 103.17 20.32 101.10 20.03 99.01 20.00 C 70.66 19.98 42.30 20.03 13.95 19.98 C 11.53 19.97 9.12 20.25 6.75 20.76 Z"/>
<path fill="#fdf5b1" d=" M 6.75 20.76 C 9.12 20.25 11.53 19.97 13.95 19.98 C 42.30 20.03 70.66 19.98 99.01 20.00 C 101.10 20.03 103.17 20.32 105.22 20.74 C 107.80 22.55 109.78 25.02 112.00 27.21 L 112.00 84.63 C 110.54 87.08 108.12 89.13 105.09 88.84 C 86.36 88.89 67.63 88.75 48.90 88.90 C 48.87 82.95 48.89 77.00 48.89 71.04 C 55.91 70.71 62.95 70.99 69.98 70.84 C 70.78 67.60 71.83 63.44 69.59 60.61 C 62.71 60.07 55.79 60.59 48.89 60.37 C 48.88 54.64 48.87 48.90 48.90 43.17 C 56.46 42.86 64.07 43.65 71.59 42.69 C 72.10 39.44 72.84 35.87 71.24 32.80 C 69.95 32.11 68.40 32.38 66.99 32.25 C 58.63 32.31 50.26 32.27 41.90 32.27 C 39.92 32.40 37.20 32.12 36.19 34.29 C 35.48 36.10 35.69 38.10 35.61 40.01 C 35.77 56.34 35.45 72.67 35.75 89.00 C 33.02 89.02 30.28 89.02 27.55 88.96 C 20.36 88.63 13.16 89.04 5.97 88.77 C 3.14 88.87 1.20 86.59 0.00 84.31 L 0.00 27.14 C 2.27 25.04 4.19 22.54 6.75 20.76 Z"/>
<path fill="#d78c45" d=" M 81.81 31.79 C 83.41 27.30 90.10 26.31 93.15 29.83 C 94.75 31.56 94.43 34.10 94.38 36.26 C 91.24 36.33 88.10 36.42 84.96 36.38 C 85.25 41.30 90.95 39.82 94.20 39.29 C 94.35 43.61 88.93 42.97 86.04 42.67 C 81.12 41.84 80.37 35.68 81.81 31.79 Z"/>
<path fill="#f5e39e" d=" M 84.82 33.87 C 85.14 32.06 86.46 29.86 88.60 30.41 C 90.38 30.62 90.80 32.45 91.08 33.90 C 89.00 33.97 86.91 33.96 84.82 33.87 Z"/>
<path fill="#d18843" d=" M 36.19 34.29 C 37.20 32.12 39.92 32.40 41.90 32.27 C 50.26 32.27 58.63 32.31 66.99 32.25 C 68.40 32.38 69.95 32.11 71.24 32.80 C 72.84 35.87 72.10 39.44 71.59 42.69 C 64.07 43.65 56.46 42.86 48.90 43.17 C 48.87 48.90 48.88 54.64 48.89 60.37 C 55.79 60.59 62.71 60.07 69.59 60.61 C 71.83 63.44 70.78 67.60 69.98 70.84 C 62.95 70.99 55.91 70.71 48.89 71.04 C 48.89 77.00 48.87 82.95 48.90 88.90 C 48.90 91.20 48.93 93.51 48.81 95.81 C 48.34 96.11 47.39 96.70 46.92 97.00 L 36.09 97.00 C 35.98 94.33 35.87 91.66 35.75 89.00 C 35.45 72.67 35.77 56.34 35.61 40.01 C 35.69 38.10 35.48 36.10 36.19 34.29 Z"/>


<path fill="#ae692b" d=" M 27.55 88.96 C 30.28 89.02 33.02 89.02 35.75 89.00 C 35.87 91.66 35.98 94.33 36.09 97.00 L 35.71 97.00 C 32.79 94.53 30.22 91.69 27.55 88.96 Z"/>
</svg>