<?xml version="1.0" encoding="UTF-8" ?>
<!DOCTYPE svg PUBLIC "-//W3C//DTD SVG 1.1//EN" "http://www.w3.org/Graphics/SVG/1.1/DTD/svg11.dtd">
<svg width="493pt" height="493pt" viewBox="0 0 493 493" version="1.1" xmlns="http://www.w3.org/2000/svg">
<g xmlns="http://www.w3.org/2000/svg" class="sprite" id="black">
<g id="#000000ff">
<path fill="#000000" opacity="1.00" d=" M 210.38 2.68 C 232.10 -0.41 254.21 -0.70 276.01 1.81 C 275.15 8.75 274.36 15.70 273.50 22.64 C 253.55 20.28 233.32 20.59 213.44 23.43 C 212.41 16.52 211.39 9.60 210.38 2.68 Z" />
<path fill="#000000" opacity="1.00" d=" M 297.62 5.39 C 319.09 9.89 339.88 17.41 359.42 27.37 C 356.30 33.63 353.01 39.80 349.83 46.04 C 332.00 36.90 312.97 30.07 293.35 25.98 C 294.69 19.10 296.21 12.25 297.62 5.39 Z" />
<path fill="#000000" opacity="1.00" d=" M 127.67 30.63 C 146.88 19.99 167.53 12.02 188.87 6.85 C 190.50 13.66 192.11 20.47 193.74 27.28 C 174.24 31.96 155.40 39.30 137.80 48.91 C 134.42 42.82 131.11 36.68 127.67 30.63 Z" />
<path fill="#000000" opacity="1.00" d=" M 367.19 56.06 C 370.95 50.13 374.68 44.20 378.48 38.30 C 396.97 50.07 413.82 64.35 428.68 80.46 C 423.55 85.23 418.35 89.92 413.17 94.63 C 399.61 79.85 384.15 66.79 367.19 56.06 Z" />
<path fill="#000000" opacity="1.00" d=" M 59.94 85.62 C 74.17 68.91 90.84 54.37 108.92 41.96 C 112.83 47.77 116.75 53.57 120.69 59.35 C 104.13 70.69 88.95 84.04 75.82 99.23 C 70.51 94.71 65.27 90.11 59.94 85.62 Z" />
<path fill="#000000" opacity="1.00" d=" M 426.05 110.03 C 431.63 105.79 437.15 101.45 442.80 97.31 C 455.90 114.89 467.06 134.00 475.09 154.43 C 468.65 156.81 462.42 159.74 455.93 161.95 C 455.33 161.18 454.86 160.34 454.52 159.43 C 447.26 141.80 437.45 125.28 426.05 110.03 Z" />
<path fill="#000000" opacity="1.00" d=" M 46.33 102.77 C 52.06 106.79 57.73 110.91 63.42 115.00 C 51.72 131.28 42.12 149.10 35.16 167.91 C 28.57 165.55 22.03 163.04 15.45 160.65 C 23.18 140.13 33.49 120.55 46.33 102.77 Z" />
<path fill="#000000" opacity="1.00" d=" M 462.34 181.24 C 468.99 179.02 475.73 177.12 482.43 175.07 C 488.82 196.07 492.26 217.91 492.92 239.84 C 485.92 240.04 478.92 240.19 471.93 240.27 C 471.32 220.29 468.22 200.35 462.34 181.24 Z" />
<path fill="#000000" opacity="1.00" d=" M 6.75 303.32 C -2.87 263.41 -1.92 221.11 8.71 181.50 C 15.47 183.33 22.21 185.20 28.96 187.05 C 19.14 223.30 18.44 261.97 27.09 298.52 C 20.30 300.10 13.52 301.69 6.75 303.32 Z" />
<path fill="#000000" opacity="1.00" d=" M 318.29 205.63 C 317.40 198.97 322.61 193.00 328.92 191.57 C 329.74 194.20 330.59 196.82 331.41 199.45 C 328.50 199.46 325.60 201.89 326.17 204.98 C 326.20 206.97 328.15 207.94 329.34 209.24 C 328.45 211.67 327.55 214.10 326.63 216.53 C 322.43 214.35 318.54 210.65 318.29 205.63 Z" />
<path fill="#000000" opacity="1.00" d=" M 331.36 191.33 C 337.42 191.67 343.50 195.86 344.41 202.14 C 345.67 207.70 342.22 213.17 337.41 215.75 C 336.42 213.44 335.45 211.11 334.50 208.78 C 335.35 207.28 336.93 205.91 336.74 204.03 C 336.67 200.81 332.77 200.10 331.45 197.59 C 331.29 195.50 331.34 193.41 331.36 191.33 Z" />
<path fill="#000000" opacity="1.00" d=" M 241.19 194.86 C 251.25 194.23 261.81 194.13 271.31 197.97 C 273.72 198.60 274.14 201.13 274.72 203.19 C 272.48 203.48 269.65 202.78 268.29 205.16 C 259.90 202.35 250.93 202.16 242.19 202.78 C 241.85 200.14 241.52 197.50 241.19 194.86 Z" />
<path fill="#000000" opacity="1.00" d=" M 69.86 199.97 C 69.68 197.72 71.87 196.10 73.96 196.11 C 78.63 195.82 83.31 196.06 87.98 195.97 C 90.13 196.11 92.81 195.67 94.37 197.54 C 95.66 199.95 96.06 202.70 96.75 205.32 C 94.15 205.96 91.55 206.61 88.95 207.26 C 88.68 206.17 88.41 205.08 88.15 204.00 C 85.09 204.00 82.02 204.00 78.96 204.00 C 79.37 205.42 79.79 206.83 80.20 208.25 C 77.65 209.01 75.09 209.76 72.54 210.53 C 71.58 207.03 70.26 203.59 69.86 199.97 Z" />
<path fill="#000000" opacity="1.00" d=" M 128.37 199.24 C 128.76 196.95 131.09 196.31 132.94 195.61 C 132.96 197.16 132.98 198.70 133.00 200.24 C 134.02 200.54 135.04 200.85 136.06 201.15 C 133.97 208.58 131.90 216.00 129.82 223.42 C 127.26 222.73 124.71 222.03 122.15 221.34 C 124.22 213.97 126.14 206.55 128.37 199.24 Z" />
<path fill="#000000" opacity="1.00" d=" M 141.00 195.99 C 144.56 196.42 149.41 194.70 151.98 197.90 C 154.09 203.40 155.00 209.28 156.62 214.94 C 154.01 215.51 151.42 216.17 148.82 216.76 C 147.78 212.51 146.71 208.28 145.65 204.04 C 144.10 204.02 142.55 204.00 141.00 203.98 C 141.00 201.31 141.00 198.65 141.00 195.99 Z" />
<path fill="#000000" opacity="1.00" d=" M 183.84 198.63 C 184.24 197.31 185.45 196.34 186.82 196.20 C 190.86 195.74 194.93 196.07 198.99 196.01 C 199.00 197.99 199.01 199.98 199.03 201.97 C 201.75 202.56 204.44 203.26 207.13 203.96 C 205.02 211.68 202.87 219.39 200.77 227.11 C 198.20 226.43 195.63 225.75 193.06 225.07 C 194.96 218.05 196.88 211.04 198.80 204.03 C 196.10 204.00 193.39 203.99 190.69 203.97 C 189.91 206.98 189.19 210.01 188.45 213.03 C 185.84 212.42 183.23 211.81 180.62 211.21 C 181.74 207.03 182.43 202.72 183.84 198.63 Z" />
<path fill="#000000" opacity="1.00" d=" M 211.37 212.65 C 215.94 204.75 223.71 199.01 232.54 196.77 C 233.42 199.23 234.32 201.69 235.21 204.15 C 228.52 206.05 222.37 209.97 218.61 215.92 C 216.19 214.84 213.78 213.74 211.37 212.65 Z" />
<path fill="#000000" opacity="1.00" d=" M 228.62 215.66 C 232.65 210.54 239.29 208.46 245.57 208.04 C 245.80 210.66 246.04 213.28 246.28 215.91 C 240.86 216.38 233.82 218.37 233.26 224.84 C 230.66 225.44 228.05 225.99 225.43 226.49 C 225.63 222.70 226.03 218.65 228.62 215.66 Z" />
<path fill="#000000" opacity="1.00" d=" M 254.40 207.98 C 261.21 208.60 267.43 212.39 274.42 211.41 C 274.04 214.51 275.38 218.62 272.65 220.92 C 270.25 222.63 267.74 220.54 265.55 219.53 C 261.86 217.37 257.63 216.55 253.46 215.92 C 253.76 213.27 254.08 210.62 254.40 207.98 Z" />
<path fill="#000000" opacity="1.00" d=" M 90.88 215.00 C 93.46 214.35 96.04 213.71 98.62 213.08 C 100.55 220.83 102.49 228.59 104.43 236.35 C 101.86 237.00 99.30 237.65 96.73 238.30 C 94.73 230.55 92.82 222.77 90.88 215.00 Z" />
<path fill="#000000" opacity="1.00" d=" M 74.63 218.17 C 77.20 217.45 79.77 216.74 82.35 216.03 C 84.46 223.74 86.66 231.43 88.81 239.13 C 86.25 239.86 83.69 240.59 81.13 241.32 C 78.97 233.60 76.77 225.89 74.63 218.17 Z" />
<path fill="#000000" opacity="1.00" d=" M 135.52 219.07 C 135.75 216.20 139.40 214.80 141.70 216.31 C 143.53 217.23 143.42 219.49 143.81 221.20 C 142.88 224.21 142.08 227.27 141.54 230.37 C 142.47 230.13 144.34 229.64 145.27 229.40 C 147.37 237.08 149.43 244.78 151.58 252.46 C 148.99 253.18 146.40 253.92 143.81 254.64 C 142.40 249.27 140.80 243.95 139.64 238.52 C 139.37 239.13 138.83 240.36 138.56 240.97 C 136.00 240.27 133.44 239.58 130.88 238.88 C 132.71 232.34 134.60 225.81 135.52 219.07 Z" />
<path fill="#000000" opacity="1.00" d=" M 178.70 219.04 C 181.31 219.64 183.93 220.24 186.55 220.84 C 184.69 228.63 182.77 236.39 180.87 244.17 C 178.29 243.55 175.71 242.94 173.13 242.34 C 174.97 234.57 176.91 226.82 178.70 219.04 Z" />
<path fill="#000000" opacity="1.00" d=" M 208.73 221.50 C 211.37 221.79 214.01 222.10 216.65 222.40 C 216.03 229.20 218.52 235.89 223.44 240.60 C 221.70 242.61 219.99 244.65 218.25 246.66 C 215.04 243.19 211.85 239.48 210.35 234.91 C 208.76 230.63 208.65 226.01 208.73 221.50 Z" />
<path fill="#000000" opacity="1.00" d=" M 383.26 222.08 C 389.92 222.51 396.87 222.98 402.95 225.99 C 405.34 228.43 404.05 232.41 404.40 235.50 C 401.73 235.50 399.07 235.50 396.41 235.50 C 396.37 234.29 396.35 233.08 396.34 231.87 C 392.06 230.72 387.65 230.30 383.25 230.06 C 383.25 227.40 383.25 224.74 383.26 222.08 Z" />
<path fill="#000000" opacity="1.00" d=" M 150.94 224.49 C 153.51 223.89 156.09 223.28 158.66 222.68 C 160.60 230.41 162.68 238.10 164.59 245.83 C 162.04 246.49 159.48 247.14 156.92 247.82 C 154.86 240.06 152.80 232.30 150.94 224.49 Z" />
<path fill="#000000" opacity="1.00" d=" M 353.45 236.69 C 358.26 228.36 367.52 223.89 376.75 222.53 C 377.10 225.16 377.44 227.79 377.79 230.42 C 371.28 231.49 364.79 234.22 360.83 239.72 C 358.36 238.72 355.90 237.70 353.45 236.69 Z" />
<path fill="#000000" opacity="1.00" d=" M 319.27 232.19 C 319.54 229.39 318.70 225.23 322.05 223.99 C 326.65 223.22 331.35 223.75 335.99 223.60 C 338.38 223.64 341.68 223.45 342.71 226.18 C 343.27 229.42 342.96 232.73 342.99 236.00 C 340.33 236.00 337.66 236.00 335.00 236.00 C 335.00 234.52 334.99 233.04 334.99 231.57 C 329.74 231.54 324.52 232.17 319.27 232.19 Z" />
<path fill="#000000" opacity="1.00" d=" M 119.94 229.01 C 122.49 229.73 125.05 230.45 127.61 231.18 C 125.49 238.89 123.35 246.61 121.16 254.31 C 118.61 253.57 116.06 252.86 113.51 252.13 C 115.64 244.42 117.79 236.71 119.94 229.01 Z" />
<path fill="#000000" opacity="1.00" d=" M 229.90 235.59 C 231.83 233.77 233.78 231.97 235.75 230.19 C 241.77 234.91 249.23 237.07 255.71 241.02 C 254.40 243.33 253.09 245.64 251.79 247.96 C 244.52 243.78 236.25 241.26 229.90 235.59 Z" />
<path fill="#000000" opacity="1.00" d=" M 190.94 232.76 C 193.50 233.46 196.06 234.16 198.62 234.87 C 196.53 242.57 194.40 250.26 192.34 257.98 C 189.75 257.28 187.15 256.59 184.56 255.89 C 186.68 248.18 188.80 240.46 190.94 232.76 Z" />
<path fill="#000000" opacity="1.00" d=" M 375.24 234.90 C 384.16 232.59 393.84 233.85 401.74 238.67 C 400.40 240.97 399.06 243.27 397.73 245.57 C 391.87 242.00 384.77 240.89 378.09 242.43 C 377.10 239.93 376.16 237.42 375.24 234.90 Z" />
<path fill="#000000" opacity="1.00" d=" M 319.37 240.14 C 322.03 240.13 324.70 240.12 327.37 240.12 C 327.38 248.12 327.38 256.13 327.37 264.14 C 324.70 264.12 322.03 264.10 319.37 264.10 C 319.38 256.11 319.38 248.12 319.37 240.14 Z" />
<path fill="#000000" opacity="1.00" d=" M 366.91 242.98 C 369.40 243.64 371.88 244.34 374.35 245.10 C 375.00 246.56 375.29 248.46 376.97 249.15 C 380.87 251.36 385.27 252.46 389.40 254.17 C 388.28 256.60 387.15 259.03 386.02 261.45 C 380.63 259.17 374.60 257.84 370.07 253.95 C 366.94 251.20 366.61 246.85 366.91 242.98 Z" />
<path fill="#000000" opacity="1.00" d=" M 98.55 246.06 C 101.17 245.42 103.78 244.78 106.39 244.13 C 107.69 249.71 109.26 255.22 110.34 260.85 C 110.72 260.62 111.48 260.17 111.87 259.94 C 114.24 260.64 116.62 261.32 119.00 262.01 C 117.18 268.24 115.50 274.50 114.32 280.89 C 114.01 283.29 111.26 284.69 109.04 283.91 C 106.38 283.15 105.52 279.79 106.33 277.41 C 107.30 274.38 108.26 271.34 108.98 268.24 C 107.44 268.60 105.90 268.98 104.36 269.36 C 102.44 261.59 100.48 253.83 98.55 246.06 Z" />
<path fill="#000000" opacity="1.00" d=" M 335.00 244.00 C 337.66 244.00 340.33 244.00 343.00 244.00 C 343.00 252.00 343.00 260.00 343.00 268.00 C 340.33 268.00 337.66 268.00 335.00 268.00 C 335.00 260.00 335.00 252.00 335.00 244.00 Z" />
<path fill="#000000" opacity="1.00" d=" M 229.41 244.96 C 236.18 249.14 243.48 252.32 250.55 255.95 C 249.24 258.26 247.94 260.57 246.65 262.88 C 239.39 259.34 231.98 256.05 225.19 251.64 C 226.60 249.42 228.01 247.19 229.41 244.96 Z" />
<path fill="#000000" opacity="1.00" d=" M 351.14 245.29 C 353.78 245.69 356.43 246.06 359.07 246.50 C 359.42 249.07 359.59 251.79 361.02 254.04 C 362.89 257.28 366.29 259.11 369.39 260.97 C 368.26 263.37 367.13 265.77 366.00 268.17 C 360.68 265.37 355.39 261.67 353.01 255.91 C 351.46 252.59 351.33 248.88 351.14 245.29 Z" />
<path fill="#000000" opacity="1.00" d=" M 258.16 251.75 C 259.79 249.65 261.42 247.55 263.05 245.45 C 270.43 250.51 276.42 257.85 278.29 266.75 C 275.72 267.29 273.15 267.82 270.58 268.37 C 268.88 261.35 263.96 255.79 258.16 251.75 Z" />
<path fill="#000000" opacity="1.00" d=" M 83.26 248.99 C 85.81 248.26 88.37 247.54 90.93 246.81 C 93.11 254.53 95.28 262.25 97.45 269.98 C 94.83 270.65 92.24 271.39 89.62 272.04 C 87.57 264.34 85.36 256.68 83.26 248.99 Z" />
<path fill="#000000" opacity="1.00" d=" M 122.52 269.82 C 124.55 262.04 126.72 254.31 128.82 246.56 C 131.38 247.27 133.94 247.98 136.50 248.69 C 134.40 256.40 132.29 264.12 130.22 271.84 C 127.65 271.15 125.09 270.48 122.52 269.82 Z" />
<path fill="#000000" opacity="1.00" d=" M 171.25 250.07 C 173.84 250.69 176.42 251.31 179.00 251.93 C 177.48 258.33 175.89 264.71 174.45 271.12 C 174.12 272.72 173.57 274.29 172.51 275.57 C 171.34 278.88 167.04 277.64 164.35 278.54 C 163.12 270.74 160.65 263.23 158.94 255.54 C 161.47 254.88 164.00 254.22 166.54 253.56 C 167.23 255.98 167.89 258.42 168.62 260.84 C 169.52 257.25 170.37 253.66 171.25 250.07 Z" />
<path fill="#000000" opacity="1.00" d=" M 392.60 264.65 C 394.11 262.49 395.62 260.32 397.13 258.16 C 401.36 261.11 405.30 264.94 406.88 269.99 C 408.39 274.18 407.97 278.70 407.53 283.03 C 404.96 282.41 402.39 281.77 399.83 281.12 C 399.91 277.85 400.35 274.37 398.82 271.34 C 397.57 268.46 394.95 266.57 392.60 264.65 Z" />
<path fill="#000000" opacity="1.00" d=" M 145.95 262.32 C 148.55 261.65 151.15 260.96 153.76 260.31 C 155.71 268.02 157.90 275.67 159.92 283.37 C 157.39 284.08 154.86 284.80 152.34 285.52 C 150.06 277.83 148.05 270.06 145.95 262.32 Z" />
<path fill="#000000" opacity="1.00" d=" M 471.57 260.44 C 478.54 260.84 485.52 261.29 492.50 261.68 C 491.21 283.58 486.92 305.30 479.83 326.06 C 473.23 323.87 466.67 321.52 460.04 319.42 C 466.30 300.34 470.43 280.52 471.57 260.44 Z" />
<path fill="#000000" opacity="1.00" d=" M 252.22 266.99 C 254.06 265.11 255.93 263.25 257.83 261.42 C 261.42 266.05 262.87 272.37 260.59 277.92 C 258.96 282.65 254.55 285.52 250.18 287.43 C 249.33 284.95 248.50 282.46 247.69 279.98 C 249.90 278.60 252.71 277.37 253.36 274.56 C 254.25 271.97 253.29 269.34 252.22 266.99 Z" />
<path fill="#000000" opacity="1.00" d=" M 176.13 286.76 C 178.27 279.03 180.33 271.28 182.56 263.58 C 185.10 264.36 187.66 265.06 190.20 265.83 C 188.03 273.49 186.01 281.20 183.87 288.87 C 181.29 288.16 178.71 287.46 176.13 286.76 Z" />
<path fill="#000000" opacity="1.00" d=" M 376.48 263.89 C 381.79 265.93 388.02 267.66 391.11 272.89 C 393.65 277.18 392.43 282.48 389.73 286.37 C 387.83 284.64 386.01 282.83 384.22 281.00 C 384.14 279.22 385.13 276.94 383.27 275.77 C 380.43 273.63 376.95 272.61 373.71 271.26 C 374.64 268.81 375.55 266.34 376.48 263.89 Z" />
<path fill="#000000" opacity="1.00" d=" M 319.37 272.14 C 322.03 272.13 324.70 272.12 327.37 272.12 C 327.38 280.18 327.38 288.25 327.37 296.31 C 324.70 296.16 322.03 296.01 319.37 295.86 C 319.38 287.96 319.38 280.05 319.37 272.14 Z" />
<path fill="#000000" opacity="1.00" d=" M 270.46 274.74 C 273.04 275.29 275.63 275.83 278.21 276.38 C 277.02 285.73 270.52 293.67 262.11 297.64 C 261.09 295.21 260.08 292.79 259.05 290.37 C 265.05 287.24 269.68 281.60 270.46 274.74 Z" />
<path fill="#000000" opacity="1.00" d=" M 296.88 275.92 C 301.46 276.42 306.20 278.32 308.65 282.46 C 312.66 288.38 310.06 297.15 303.70 300.25 C 302.73 297.93 301.76 295.61 300.88 293.27 C 301.78 291.49 303.37 289.58 302.40 287.48 C 301.57 285.12 298.97 284.45 296.90 283.66 C 296.87 281.07 296.87 278.50 296.88 275.92 Z" />
<path fill="#000000" opacity="1.00" d=" M 335.00 276.00 C 337.67 276.00 340.33 276.00 343.00 276.00 C 342.93 284.17 343.21 292.36 342.71 300.52 C 340.15 300.24 337.56 300.04 335.03 299.56 C 334.81 291.72 335.12 283.85 335.00 276.00 Z" />
<path fill="#000000" opacity="1.00" d=" M 216.63 281.91 C 217.70 280.09 218.78 278.28 219.86 276.47 C 226.39 279.49 233.49 281.26 240.72 281.02 C 240.94 283.66 241.16 286.31 241.37 288.97 C 232.83 289.30 224.33 287.42 216.64 283.74 C 216.62 285.96 216.61 288.18 216.59 290.40 C 218.51 290.99 220.42 291.58 222.34 292.18 C 221.69 294.75 221.04 297.32 220.39 299.90 C 216.57 298.59 211.81 298.12 209.21 294.67 C 207.93 289.29 208.92 283.62 208.63 278.13 C 211.28 278.12 213.93 278.12 216.59 278.11 C 216.59 279.37 216.61 280.64 216.63 281.91 Z" />
<path fill="#000000" opacity="1.00" d=" M 283.50 290.88 C 282.31 284.55 286.91 279.11 292.27 276.49 C 293.29 278.91 294.21 281.38 295.17 283.82 C 293.56 285.24 291.12 286.49 291.25 288.99 C 290.97 291.82 293.86 293.11 295.75 294.52 C 294.84 296.95 293.94 299.37 293.04 301.80 C 288.39 299.89 284.03 296.18 283.50 290.88 Z" />
<path fill="#000000" opacity="1.00" d=" M 92.05 280.04 C 94.38 278.78 97.08 278.44 99.61 277.77 C 100.96 282.68 102.37 287.58 103.72 292.50 C 104.32 292.55 105.52 292.66 106.12 292.71 C 106.12 295.36 106.12 298.01 106.13 300.66 C 103.09 300.32 98.30 301.82 97.05 297.98 C 95.19 292.06 93.51 286.07 92.05 280.04 Z" />
<path fill="#000000" opacity="1.00" d=" M 116.31 292.49 C 117.64 287.46 119.01 282.45 120.39 277.44 C 122.94 278.14 125.49 278.84 128.04 279.54 C 126.58 285.00 125.13 290.46 123.65 295.91 C 123.07 297.60 122.62 299.94 120.57 300.40 C 118.45 300.76 116.29 300.63 114.14 300.68 C 114.13 298.03 114.12 295.37 114.11 292.72 C 114.66 292.67 115.76 292.55 116.31 292.49 Z" />
<path fill="#000000" opacity="1.00" d=" M 354.52 284.28 C 355.88 282.08 357.24 279.88 358.59 277.67 C 364.51 281.77 371.77 283.23 378.88 282.56 C 379.22 285.19 379.58 287.81 379.94 290.44 C 372.82 291.13 365.59 290.19 359.05 287.25 C 359.09 288.82 359.13 290.39 359.17 291.97 C 362.92 293.07 366.77 293.78 370.66 294.23 C 370.46 296.89 370.26 299.55 370.07 302.22 C 364.08 301.40 357.69 300.72 352.50 297.39 C 350.01 294.35 351.50 289.88 351.13 286.26 C 353.12 286.25 355.11 286.24 357.11 286.23 C 356.46 285.75 355.17 284.77 354.52 284.28 Z" />
<path fill="#000000" opacity="1.00" d=" M 377.95 294.24 C 384.96 293.65 392.17 291.60 397.19 286.40 C 399.08 288.26 400.99 290.12 402.90 291.97 C 396.66 298.58 387.67 301.40 378.84 302.18 C 378.55 299.53 378.25 296.88 377.95 294.24 Z" />
<path fill="#000000" opacity="1.00" d=" M 154.35 293.19 C 156.60 292.69 158.82 291.67 161.17 291.76 C 166.46 293.35 172.03 292.38 177.47 292.62 C 177.48 293.31 177.51 294.70 177.52 295.39 C 179.06 295.85 180.60 296.31 182.15 296.79 C 180.94 298.19 180.16 300.66 177.92 300.55 C 172.61 300.79 167.30 300.53 161.99 300.66 C 160.17 300.50 157.87 301.02 156.56 299.40 C 155.20 297.61 155.01 295.26 154.35 293.19 Z" />
<path fill="#000000" opacity="1.00" d=" M 229.81 293.58 C 237.14 294.71 244.60 294.32 251.86 292.90 C 252.65 295.45 253.50 297.99 254.26 300.56 C 245.85 302.22 237.15 302.92 228.65 301.45 C 229.04 298.82 229.42 296.20 229.81 293.58 Z" />
<path fill="#000000" opacity="1.00" d=" M 314.46 311.37 C 316.99 309.43 317.64 306.10 318.66 303.27 C 321.26 303.82 323.87 304.36 326.48 304.90 C 325.14 309.99 323.04 315.43 318.34 318.32 C 314.65 320.69 310.09 320.81 305.88 320.18 C 305.86 321.58 305.85 322.97 305.84 324.37 C 308.94 324.98 312.11 325.20 315.27 324.93 C 315.76 327.51 316.24 330.10 316.75 332.69 C 310.69 333.40 303.66 333.23 298.70 329.27 C 297.17 325.52 298.09 321.29 297.89 317.35 C 300.17 317.38 302.45 317.41 304.73 317.44 C 305.50 315.71 306.27 313.99 307.06 312.27 C 309.52 312.41 312.33 313.02 314.46 311.37 Z" />
<path fill="#000000" opacity="1.00" d=" M 333.57 307.03 C 336.19 307.62 338.80 308.27 341.42 308.90 C 339.02 317.70 333.86 326.17 325.36 330.20 C 324.23 327.82 323.11 325.44 322.00 323.06 C 328.20 319.87 331.86 313.58 333.57 307.03 Z" />
<path fill="#000000" opacity="1.00" d=" M 12.76 324.41 C 19.41 322.27 25.99 319.95 32.66 317.86 C 38.78 336.95 47.95 354.97 58.94 371.71 C 53.10 375.57 47.32 379.51 41.47 383.37 C 29.45 365.05 19.46 345.29 12.76 324.41 Z" />
<path fill="#000000" opacity="1.00" d=" M 452.59 338.04 C 459.03 340.80 465.44 343.65 471.82 346.55 C 462.93 366.57 451.34 385.36 437.53 402.36 C 432.07 397.98 426.67 393.54 421.25 389.12 C 433.80 373.51 444.56 356.40 452.59 338.04 Z" />
<path fill="#000000" opacity="1.00" d=" M 54.47 401.05 C 59.93 396.66 65.37 392.25 70.86 387.91 C 83.50 403.46 98.10 417.43 114.34 429.19 C 110.28 434.89 106.15 440.54 102.04 446.21 C 84.27 433.35 68.32 418.04 54.47 401.05 Z" />
<path fill="#000000" opacity="1.00" d=" M 360.58 441.09 C 377.88 430.89 393.75 418.36 407.88 404.09 C 412.85 408.98 417.87 413.83 422.89 418.69 C 407.52 434.35 390.17 448.10 371.19 459.15 C 367.66 453.12 364.12 447.11 360.58 441.09 Z" />
<path fill="#000000" opacity="1.00" d=" M 120.31 458.30 C 123.92 452.29 127.53 446.27 131.13 440.26 C 148.34 450.54 166.92 458.52 186.25 463.84 C 184.39 470.57 182.53 477.30 180.71 484.05 C 159.51 478.32 139.24 469.39 120.31 458.30 Z" />
<path fill="#000000" opacity="1.00" d=" M 285.68 468.60 C 305.45 465.13 324.73 459.00 342.90 450.45 C 345.85 456.77 348.82 463.09 351.82 469.39 C 332.02 478.81 310.91 485.48 289.31 489.25 C 288.10 482.36 286.91 475.48 285.68 468.60 Z" />
<path fill="#000000" opacity="1.00" d=" M 202.03 488.90 C 203.33 482.05 204.55 475.20 205.80 468.35 C 225.58 471.92 245.82 472.85 265.85 471.15 C 266.37 478.13 266.99 485.10 267.55 492.08 C 262.84 492.39 258.13 492.77 253.41 493.00 L 239.71 493.00 C 227.09 492.34 214.44 491.38 202.03 488.90 Z" />
</g>
</g>
<g xmlns="http://www.w3.org/2000/svg" class="sprite" id="white">
<g id="#ffffffff">
<path fill="#ffffff" opacity="1.00" d=" M 210.38 2.68 C 232.10 -0.41 254.21 -0.70 276.01 1.81 C 275.15 8.75 274.36 15.70 273.50 22.64 C 253.55 20.28 233.32 20.59 213.44 23.43 C 212.41 16.52 211.39 9.60 210.38 2.68 Z" />
<path fill="#ffffff" opacity="1.00" d=" M 297.62 5.39 C 319.09 9.89 339.88 17.41 359.42 27.37 C 356.30 33.63 353.01 39.80 349.83 46.04 C 332.00 36.90 312.97 30.07 293.35 25.98 C 294.69 19.10 296.21 12.25 297.62 5.39 Z" />
<path fill="#ffffff" opacity="1.00" d=" M 127.67 30.63 C 146.88 19.99 167.53 12.02 188.87 6.85 C 190.50 13.66 192.11 20.47 193.74 27.28 C 174.24 31.96 155.40 39.30 137.80 48.91 C 134.42 42.82 131.11 36.68 127.67 30.63 Z" />
<path fill="#ffffff" opacity="1.00" d=" M 367.19 56.06 C 370.95 50.13 374.68 44.20 378.48 38.30 C 396.97 50.07 413.82 64.35 428.68 80.46 C 423.55 85.23 418.35 89.92 413.17 94.63 C 399.61 79.85 384.15 66.79 367.19 56.06 Z" />
<path fill="#ffffff" opacity="1.00" d=" M 59.94 85.62 C 74.17 68.91 90.84 54.37 108.92 41.96 C 112.83 47.77 116.75 53.57 120.69 59.35 C 104.13 70.69 88.95 84.04 75.82 99.23 C 70.51 94.71 65.27 90.11 59.94 85.62 Z" />
<path fill="#ffffff" opacity="1.00" d=" M 426.05 110.03 C 431.63 105.79 437.15 101.45 442.80 97.31 C 455.90 114.89 467.06 134.00 475.09 154.43 C 468.65 156.81 462.42 159.74 455.93 161.95 C 455.33 161.18 454.86 160.34 454.52 159.43 C 447.26 141.80 437.45 125.28 426.05 110.03 Z" />
<path fill="#ffffff" opacity="1.00" d=" M 46.33 102.77 C 52.06 106.79 57.73 110.91 63.42 115.00 C 51.72 131.28 42.12 149.10 35.16 167.91 C 28.57 165.55 22.03 163.04 15.45 160.65 C 23.18 140.13 33.49 120.55 46.33 102.77 Z" />
<path fill="#ffffff" opacity="1.00" d=" M 462.34 181.24 C 468.99 179.02 475.73 177.12 482.43 175.07 C 488.82 196.07 492.26 217.91 492.92 239.84 C 485.92 240.04 478.92 240.19 471.93 240.27 C 471.32 220.29 468.22 200.35 462.34 181.24 Z" />
<path fill="#ffffff" opacity="1.00" d=" M 6.75 303.32 C -2.87 263.41 -1.92 221.11 8.71 181.50 C 15.47 183.33 22.21 185.20 28.96 187.05 C 19.14 223.30 18.44 261.97 27.09 298.52 C 20.30 300.10 13.52 301.69 6.75 303.32 Z" />
<path fill="#ffffff" opacity="1.00" d=" M 318.29 205.63 C 317.40 198.97 322.61 193.00 328.92 191.57 C 329.74 194.20 330.59 196.82 331.41 199.45 C 328.50 199.46 325.60 201.89 326.17 204.98 C 326.20 206.97 328.15 207.94 329.34 209.24 C 328.45 211.67 327.55 214.10 326.63 216.53 C 322.43 214.35 318.54 210.65 318.29 205.63 Z" />
<path fill="#ffffff" opacity="1.00" d=" M 331.36 191.33 C 337.42 191.67 343.50 195.86 344.41 202.14 C 345.67 207.70 342.22 213.17 337.41 215.75 C 336.42 213.44 335.45 211.11 334.50 208.78 C 335.35 207.28 336.93 205.91 336.74 204.03 C 336.67 200.81 332.77 200.10 331.45 197.59 C 331.29 195.50 331.34 193.41 331.36 191.33 Z" />
<path fill="#ffffff" opacity="1.00" d=" M 241.19 194.86 C 251.25 194.23 261.81 194.13 271.31 197.97 C 273.72 198.60 274.14 201.13 274.72 203.19 C 272.48 203.48 269.65 202.78 268.29 205.16 C 259.90 202.35 250.93 202.16 242.19 202.78 C 241.85 200.14 241.52 197.50 241.19 194.86 Z" />
<path fill="#ffffff" opacity="1.00" d=" M 69.86 199.97 C 69.68 197.72 71.87 196.10 73.96 196.11 C 78.63 195.82 83.31 196.06 87.98 195.97 C 90.13 196.11 92.81 195.67 94.37 197.54 C 95.66 199.95 96.06 202.70 96.75 205.32 C 94.15 205.96 91.55 206.61 88.95 207.26 C 88.68 206.17 88.41 205.08 88.15 204.00 C 85.09 204.00 82.02 204.00 78.96 204.00 C 79.37 205.42 79.79 206.83 80.20 208.25 C 77.65 209.01 75.09 209.76 72.54 210.53 C 71.58 207.03 70.26 203.59 69.86 199.97 Z" />
<path fill="#ffffff" opacity="1.00" d=" M 128.37 199.24 C 128.76 196.95 131.09 196.31 132.94 195.61 C 132.96 197.16 132.98 198.70 133.00 200.24 C 134.02 200.54 135.04 200.85 136.06 201.15 C 133.97 208.58 131.90 216.00 129.82 223.42 C 127.26 222.73 124.71 222.03 122.15 221.34 C 124.22 213.97 126.14 206.55 128.37 199.24 Z" />
<path fill="#ffffff" opacity="1.00" d=" M 141.00 195.99 C 144.56 196.42 149.41 194.70 151.98 197.90 C 154.09 203.40 155.00 209.28 156.62 214.94 C 154.01 215.51 151.42 216.17 148.82 216.76 C 147.78 212.51 146.71 208.28 145.65 204.04 C 144.10 204.02 142.55 204.00 141.00 203.98 C 141.00 201.31 141.00 198.65 141.00 195.99 Z" />
<path fill="#ffffff" opacity="1.00" d=" M 183.84 198.63 C 184.24 197.31 185.45 196.34 186.82 196.20 C 190.86 195.74 194.93 196.07 198.99 196.01 C 199.00 197.99 199.01 199.98 199.03 201.97 C 201.75 202.56 204.44 203.26 207.13 203.96 C 205.02 211.68 202.87 219.39 200.77 227.11 C 198.20 226.43 195.63 225.75 193.06 225.07 C 194.96 218.05 196.88 211.04 198.80 204.03 C 196.10 204.00 193.39 203.99 190.69 203.97 C 189.91 206.98 189.19 210.01 188.45 213.03 C 185.84 212.42 183.23 211.81 180.62 211.21 C 181.74 207.03 182.43 202.72 183.84 198.63 Z" />
<path fill="#ffffff" opacity="1.00" d=" M 211.37 212.65 C 215.94 204.75 223.71 199.01 232.54 196.77 C 233.42 199.23 234.32 201.69 235.21 204.15 C 228.52 206.05 222.37 209.97 218.61 215.92 C 216.19 214.84 213.78 213.74 211.37 212.65 Z" />
<path fill="#ffffff" opacity="1.00" d=" M 228.62 215.66 C 232.65 210.54 239.29 208.46 245.57 208.04 C 245.80 210.66 246.04 213.28 246.28 215.91 C 240.86 216.38 233.82 218.37 233.26 224.84 C 230.66 225.44 228.05 225.99 225.43 226.49 C 225.63 222.70 226.03 218.65 228.62 215.66 Z" />
<path fill="#ffffff" opacity="1.00" d=" M 254.40 207.98 C 261.21 208.60 267.43 212.39 274.42 211.41 C 274.04 214.51 275.38 218.62 272.65 220.92 C 270.25 222.63 267.74 220.54 265.55 219.53 C 261.86 217.37 257.63 216.55 253.46 215.92 C 253.76 213.27 254.08 210.62 254.40 207.98 Z" />
<path fill="#ffffff" opacity="1.00" d=" M 90.88 215.00 C 93.46 214.35 96.04 213.71 98.62 213.08 C 100.55 220.83 102.49 228.59 104.43 236.35 C 101.86 237.00 99.30 237.65 96.73 238.30 C 94.73 230.55 92.82 222.77 90.88 215.00 Z" />
<path fill="#ffffff" opacity="1.00" d=" M 74.63 218.17 C 77.20 217.45 79.77 216.74 82.35 216.03 C 84.46 223.74 86.66 231.43 88.81 239.13 C 86.25 239.86 83.69 240.59 81.13 241.32 C 78.97 233.60 76.77 225.89 74.63 218.17 Z" />
<path fill="#ffffff" opacity="1.00" d=" M 135.52 219.07 C 135.75 216.20 139.40 214.80 141.70 216.31 C 143.53 217.23 143.42 219.49 143.81 221.20 C 142.88 224.21 142.08 227.27 141.54 230.37 C 142.47 230.13 144.34 229.64 145.27 229.40 C 147.37 237.08 149.43 244.78 151.58 252.46 C 148.99 253.18 146.40 253.92 143.81 254.64 C 142.40 249.27 140.80 243.95 139.64 238.52 C 139.37 239.13 138.83 240.36 138.56 240.97 C 136.00 240.27 133.44 239.58 130.88 238.88 C 132.71 232.34 134.60 225.81 135.52 219.07 Z" />
<path fill="#ffffff" opacity="1.00" d=" M 178.70 219.04 C 181.31 219.64 183.93 220.24 186.55 220.84 C 184.69 228.63 182.77 236.39 180.87 244.17 C 178.29 243.55 175.71 242.94 173.13 242.34 C 174.97 234.57 176.91 226.82 178.70 219.04 Z" />
<path fill="#ffffff" opacity="1.00" d=" M 208.73 221.50 C 211.37 221.79 214.01 222.10 216.65 222.40 C 216.03 229.20 218.52 235.89 223.44 240.60 C 221.70 242.61 219.99 244.65 218.25 246.66 C 215.04 243.19 211.85 239.48 210.35 234.91 C 208.76 230.63 208.65 226.01 208.73 221.50 Z" />
<path fill="#ffffff" opacity="1.00" d=" M 383.26 222.08 C 389.92 222.51 396.87 222.98 402.95 225.99 C 405.34 228.43 404.05 232.41 404.40 235.50 C 401.73 235.50 399.07 235.50 396.41 235.50 C 396.37 234.29 396.35 233.08 396.34 231.87 C 392.06 230.72 387.65 230.30 383.25 230.06 C 383.25 227.40 383.25 224.74 383.26 222.08 Z" />
<path fill="#ffffff" opacity="1.00" d=" M 150.94 224.49 C 153.51 223.89 156.09 223.28 158.66 222.68 C 160.60 230.41 162.68 238.10 164.59 245.83 C 162.04 246.49 159.48 247.14 156.92 247.82 C 154.86 240.06 152.80 232.30 150.94 224.49 Z" />
<path fill="#ffffff" opacity="1.00" d=" M 353.45 236.69 C 358.26 228.36 367.52 223.89 376.75 222.53 C 377.10 225.16 377.44 227.79 377.79 230.42 C 371.28 231.49 364.79 234.22 360.83 239.72 C 358.36 238.72 355.90 237.70 353.45 236.69 Z" />
<path fill="#ffffff" opacity="1.00" d=" M 319.27 232.19 C 319.54 229.39 318.70 225.23 322.05 223.99 C 326.65 223.22 331.35 223.75 335.99 223.60 C 338.38 223.64 341.68 223.45 342.71 226.18 C 343.27 229.42 342.96 232.73 342.99 236.00 C 340.33 236.00 337.66 236.00 335.00 236.00 C 335.00 234.52 334.99 233.04 334.99 231.57 C 329.74 231.54 324.52 232.17 319.27 232.19 Z" />
<path fill="#ffffff" opacity="1.00" d=" M 119.94 229.01 C 122.49 229.73 125.05 230.45 127.61 231.18 C 125.49 238.89 123.35 246.61 121.16 254.31 C 118.61 253.57 116.06 252.86 113.51 252.13 C 115.64 244.42 117.79 236.71 119.94 229.01 Z" />
<path fill="#ffffff" opacity="1.00" d=" M 229.90 235.59 C 231.83 233.77 233.78 231.97 235.75 230.19 C 241.77 234.91 249.23 237.07 255.71 241.02 C 254.40 243.33 253.09 245.64 251.79 247.96 C 244.52 243.78 236.25 241.26 229.90 235.59 Z" />
<path fill="#ffffff" opacity="1.00" d=" M 190.94 232.76 C 193.50 233.46 196.06 234.16 198.62 234.87 C 196.53 242.57 194.40 250.26 192.34 257.98 C 189.75 257.28 187.15 256.59 184.56 255.89 C 186.68 248.18 188.80 240.46 190.94 232.76 Z" />
<path fill="#ffffff" opacity="1.00" d=" M 375.24 234.90 C 384.16 232.59 393.84 233.85 401.74 238.67 C 400.40 240.97 399.06 243.27 397.73 245.57 C 391.87 242.00 384.77 240.89 378.09 242.43 C 377.10 239.93 376.16 237.42 375.24 234.90 Z" />
<path fill="#ffffff" opacity="1.00" d=" M 319.37 240.14 C 322.03 240.13 324.70 240.12 327.37 240.12 C 327.38 248.12 327.38 256.13 327.37 264.14 C 324.70 264.12 322.03 264.10 319.37 264.10 C 319.38 256.11 319.38 248.12 319.37 240.14 Z" />
<path fill="#ffffff" opacity="1.00" d=" M 366.91 242.98 C 369.40 243.64 371.88 244.34 374.35 245.10 C 375.00 246.56 375.29 248.46 376.97 249.15 C 380.87 251.36 385.27 252.46 389.40 254.17 C 388.28 256.60 387.15 259.03 386.02 261.45 C 380.63 259.17 374.60 257.84 370.07 253.95 C 366.94 251.20 366.61 246.85 366.91 242.98 Z" />
<path fill="#ffffff" opacity="1.00" d=" M 98.55 246.06 C 101.17 245.42 103.78 244.78 106.39 244.13 C 107.69 249.71 109.26 255.22 110.34 260.85 C 110.72 260.62 111.48 260.17 111.87 259.94 C 114.24 260.64 116.62 261.32 119.00 262.01 C 117.18 268.24 115.50 274.50 114.32 280.89 C 114.01 283.29 111.26 284.69 109.04 283.91 C 106.38 283.15 105.52 279.79 106.33 277.41 C 107.30 274.38 108.26 271.34 108.98 268.24 C 107.44 268.60 105.90 268.98 104.36 269.36 C 102.44 261.59 100.48 253.83 98.55 246.06 Z" />
<path fill="#ffffff" opacity="1.00" d=" M 335.00 244.00 C 337.66 244.00 340.33 244.00 343.00 244.00 C 343.00 252.00 343.00 260.00 343.00 268.00 C 340.33 268.00 337.66 268.00 335.00 268.00 C 335.00 260.00 335.00 252.00 335.00 244.00 Z" />
<path fill="#ffffff" opacity="1.00" d=" M 229.41 244.96 C 236.18 249.14 243.48 252.32 250.55 255.95 C 249.24 258.26 247.94 260.57 246.65 262.88 C 239.39 259.34 231.98 256.05 225.19 251.64 C 226.60 249.42 228.01 247.19 229.41 244.96 Z" />
<path fill="#ffffff" opacity="1.00" d=" M 351.14 245.29 C 353.78 245.69 356.43 246.06 359.07 246.50 C 359.42 249.07 359.59 251.79 361.02 254.04 C 362.89 257.28 366.29 259.11 369.39 260.97 C 368.26 263.37 367.13 265.77 366.00 268.17 C 360.68 265.37 355.39 261.67 353.01 255.91 C 351.46 252.59 351.33 248.88 351.14 245.29 Z" />
<path fill="#ffffff" opacity="1.00" d=" M 258.16 251.75 C 259.79 249.65 261.42 247.55 263.05 245.45 C 270.43 250.51 276.42 257.85 278.29 266.75 C 275.72 267.29 273.15 267.82 270.58 268.37 C 268.88 261.35 263.96 255.79 258.16 251.75 Z" />
<path fill="#ffffff" opacity="1.00" d=" M 83.26 248.99 C 85.81 248.26 88.37 247.54 90.93 246.81 C 93.11 254.53 95.28 262.25 97.45 269.98 C 94.83 270.65 92.24 271.39 89.62 272.04 C 87.57 264.34 85.36 256.68 83.26 248.99 Z" />
<path fill="#ffffff" opacity="1.00" d=" M 122.52 269.82 C 124.55 262.04 126.72 254.31 128.82 246.56 C 131.38 247.27 133.94 247.98 136.50 248.69 C 134.40 256.40 132.29 264.12 130.22 271.84 C 127.65 271.15 125.09 270.48 122.52 269.82 Z" />
<path fill="#ffffff" opacity="1.00" d=" M 171.25 250.07 C 173.84 250.69 176.42 251.31 179.00 251.93 C 177.48 258.33 175.89 264.71 174.45 271.12 C 174.12 272.72 173.57 274.29 172.51 275.57 C 171.34 278.88 167.04 277.64 164.35 278.54 C 163.12 270.74 160.65 263.23 158.94 255.54 C 161.47 254.88 164.00 254.22 166.54 253.56 C 167.23 255.98 167.89 258.42 168.62 260.84 C 169.52 257.25 170.37 253.66 171.25 250.07 Z" />
<path fill="#ffffff" opacity="1.00" d=" M 392.60 264.65 C 394.11 262.49 395.62 260.32 397.13 258.16 C 401.36 261.11 405.30 264.94 406.88 269.99 C 408.39 274.18 407.97 278.70 407.53 283.03 C 404.96 282.41 402.39 281.77 399.83 281.12 C 399.91 277.85 400.35 274.37 398.82 271.34 C 397.57 268.46 394.95 266.57 392.60 264.65 Z" />
<path fill="#ffffff" opacity="1.00" d=" M 145.95 262.32 C 148.55 261.65 151.15 260.96 153.76 260.31 C 155.71 268.02 157.90 275.67 159.92 283.37 C 157.39 284.08 154.86 284.80 152.34 285.52 C 150.06 277.83 148.05 270.06 145.95 262.32 Z" />
<path fill="#ffffff" opacity="1.00" d=" M 471.57 260.44 C 478.54 260.84 485.52 261.29 492.50 261.68 C 491.21 283.58 486.92 305.30 479.83 326.06 C 473.23 323.87 466.67 321.52 460.04 319.42 C 466.30 300.34 470.43 280.52 471.57 260.44 Z" />
<path fill="#ffffff" opacity="1.00" d=" M 252.22 266.99 C 254.06 265.11 255.93 263.25 257.83 261.42 C 261.42 266.05 262.87 272.37 260.59 277.92 C 258.96 282.65 254.55 285.52 250.18 287.43 C 249.33 284.95 248.50 282.46 247.69 279.98 C 249.90 278.60 252.71 277.37 253.36 274.56 C 254.25 271.97 253.29 269.34 252.22 266.99 Z" />
<path fill="#ffffff" opacity="1.00" d=" M 176.13 286.76 C 178.27 279.03 180.33 271.28 182.56 263.58 C 185.10 264.36 187.66 265.06 190.20 265.83 C 188.03 273.49 186.01 281.20 183.87 288.87 C 181.29 288.16 178.71 287.46 176.13 286.76 Z" />
<path fill="#ffffff" opacity="1.00" d=" M 376.48 263.89 C 381.79 265.93 388.02 267.66 391.11 272.89 C 393.65 277.18 392.43 282.48 389.73 286.37 C 387.83 284.64 386.01 282.83 384.22 281.00 C 384.14 279.22 385.13 276.94 383.27 275.77 C 380.43 273.63 376.95 272.61 373.71 271.26 C 374.64 268.81 375.55 266.34 376.48 263.89 Z" />
<path fill="#ffffff" opacity="1.00" d=" M 319.37 272.14 C 322.03 272.13 324.70 272.12 327.37 272.12 C 327.38 280.18 327.38 288.25 327.37 296.31 C 324.70 296.16 322.03 296.01 319.37 295.86 C 319.38 287.96 319.38 280.05 319.37 272.14 Z" />
<path fill="#ffffff" opacity="1.00" d=" M 270.46 274.74 C 273.04 275.29 275.63 275.83 278.21 276.38 C 277.02 285.73 270.52 293.67 262.11 297.64 C 261.09 295.21 260.08 292.79 259.05 290.37 C 265.05 287.24 269.68 281.60 270.46 274.74 Z" />
<path fill="#ffffff" opacity="1.00" d=" M 296.88 275.92 C 301.46 276.42 306.20 278.32 308.65 282.46 C 312.66 288.38 310.06 297.15 303.70 300.25 C 302.73 297.93 301.76 295.61 300.88 293.27 C 301.78 291.49 303.37 289.58 302.40 287.48 C 301.57 285.12 298.97 284.45 296.90 283.66 C 296.87 281.07 296.87 278.50 296.88 275.92 Z" />
<path fill="#ffffff" opacity="1.00" d=" M 335.00 276.00 C 337.67 276.00 340.33 276.00 343.00 276.00 C 342.93 284.17 343.21 292.36 342.71 300.52 C 340.15 300.24 337.56 300.04 335.03 299.56 C 334.81 291.72 335.12 283.85 335.00 276.00 Z" />
<path fill="#ffffff" opacity="1.00" d=" M 216.63 281.91 C 217.70 280.09 218.78 278.28 219.86 276.47 C 226.39 279.49 233.49 281.26 240.72 281.02 C 240.94 283.66 241.16 286.31 241.37 288.97 C 232.83 289.30 224.33 287.42 216.64 283.74 C 216.62 285.96 216.61 288.18 216.59 290.40 C 218.51 290.99 220.42 291.58 222.34 292.18 C 221.69 294.75 221.04 297.32 220.39 299.90 C 216.57 298.59 211.81 298.12 209.21 294.67 C 207.93 289.29 208.92 283.62 208.63 278.13 C 211.28 278.12 213.93 278.12 216.59 278.11 C 216.59 279.37 216.61 280.64 216.63 281.91 Z" />
<path fill="#ffffff" opacity="1.00" d=" M 283.50 290.88 C 282.31 284.55 286.91 279.11 292.27 276.49 C 293.29 278.91 294.21 281.38 295.17 283.82 C 293.56 285.24 291.12 286.49 291.25 288.99 C 290.97 291.82 293.86 293.11 295.75 294.52 C 294.84 296.95 293.94 299.37 293.04 301.80 C 288.39 299.89 284.03 296.18 283.50 290.88 Z" />
<path fill="#ffffff" opacity="1.00" d=" M 92.05 280.04 C 94.38 278.78 97.08 278.44 99.61 277.77 C 100.96 282.68 102.37 287.58 103.72 292.50 C 104.32 292.55 105.52 292.66 106.12 292.71 C 106.12 295.36 106.12 298.01 106.13 300.66 C 103.09 300.32 98.30 301.82 97.05 297.98 C 95.19 292.06 93.51 286.07 92.05 280.04 Z" />
<path fill="#ffffff" opacity="1.00" d=" M 116.31 292.49 C 117.64 287.46 119.01 282.45 120.39 277.44 C 122.94 278.14 125.49 278.84 128.04 279.54 C 126.58 285.00 125.13 290.46 123.65 295.91 C 123.07 297.60 122.62 299.94 120.57 300.40 C 118.45 300.76 116.29 300.63 114.14 300.68 C 114.13 298.03 114.12 295.37 114.11 292.72 C 114.66 292.67 115.76 292.55 116.31 292.49 Z" />
<path fill="#ffffff" opacity="1.00" d=" M 354.52 284.28 C 355.88 282.08 357.24 279.88 358.59 277.67 C 364.51 281.77 371.77 283.23 378.88 282.56 C 379.22 285.19 379.58 287.81 379.94 290.44 C 372.82 291.13 365.59 290.19 359.05 287.25 C 359.09 288.82 359.13 290.39 359.17 291.97 C 362.92 293.07 366.77 293.78 370.66 294.23 C 370.46 296.89 370.26 299.55 370.07 302.22 C 364.08 301.40 357.69 300.72 352.50 297.39 C 350.01 294.35 351.50 289.88 351.13 286.26 C 353.12 286.25 355.11 286.24 357.11 286.23 C 356.46 285.75 355.17 284.77 354.52 284.28 Z" />
<path fill="#ffffff" opacity="1.00" d=" M 377.95 294.24 C 384.96 293.65 392.17 291.60 397.19 286.40 C 399.08 288.26 400.99 290.12 402.90 291.97 C 396.66 298.58 387.67 301.40 378.84 302.18 C 378.55 299.53 378.25 296.88 377.95 294.24 Z" />
<path fill="#ffffff" opacity="1.00" d=" M 154.35 293.19 C 156.60 292.69 158.82 291.67 161.17 291.76 C 166.46 293.35 172.03 292.38 177.47 292.62 C 177.48 293.31 177.51 294.70 177.52 295.39 C 179.06 295.85 180.60 296.31 182.15 296.79 C 180.94 298.19 180.16 300.66 177.92 300.55 C 172.61 300.79 167.30 300.53 161.99 300.66 C 160.17 300.50 157.87 301.02 156.56 299.40 C 155.20 297.61 155.01 295.26 154.35 293.19 Z" />
<path fill="#ffffff" opacity="1.00" d=" M 229.81 293.58 C 237.14 294.71 244.60 294.32 251.86 292.90 C 252.65 295.45 253.50 297.99 254.26 300.56 C 245.85 302.22 237.15 302.92 228.65 301.45 C 229.04 298.82 229.42 296.20 229.81 293.58 Z" />
<path fill="#ffffff" opacity="1.00" d=" M 314.46 311.37 C 316.99 309.43 317.64 306.10 318.66 303.27 C 321.26 303.82 323.87 304.36 326.48 304.90 C 325.14 309.99 323.04 315.43 318.34 318.32 C 314.65 320.69 310.09 320.81 305.88 320.18 C 305.86 321.58 305.85 322.97 305.84 324.37 C 308.94 324.98 312.11 325.20 315.27 324.93 C 315.76 327.51 316.24 330.10 316.75 332.69 C 310.69 333.40 303.66 333.23 298.70 329.27 C 297.17 325.52 298.09 321.29 297.89 317.35 C 300.17 317.38 302.45 317.41 304.73 317.44 C 305.50 315.71 306.27 313.99 307.06 312.27 C 309.52 312.41 312.33 313.02 314.46 311.37 Z" />
<path fill="#ffffff" opacity="1.00" d=" M 333.57 307.03 C 336.19 307.62 338.80 308.27 341.42 308.90 C 339.02 317.70 333.86 326.17 325.36 330.20 C 324.23 327.82 323.11 325.44 322.00 323.06 C 328.20 319.87 331.86 313.58 333.57 307.03 Z" />
<path fill="#ffffff" opacity="1.00" d=" M 12.76 324.41 C 19.41 322.27 25.99 319.95 32.66 317.86 C 38.78 336.95 47.95 354.97 58.94 371.71 C 53.10 375.57 47.32 379.51 41.47 383.37 C 29.45 365.05 19.46 345.29 12.76 324.41 Z" />
<path fill="#ffffff" opacity="1.00" d=" M 452.59 338.04 C 459.03 340.80 465.44 343.65 471.82 346.55 C 462.93 366.57 451.34 385.36 437.53 402.36 C 432.07 397.98 426.67 393.54 421.25 389.12 C 433.80 373.51 444.56 356.40 452.59 338.04 Z" />
<path fill="#ffffff" opacity="1.00" d=" M 54.47 401.05 C 59.93 396.66 65.37 392.25 70.86 387.91 C 83.50 403.46 98.10 417.43 114.34 429.19 C 110.28 434.89 106.15 440.54 102.04 446.21 C 84.27 433.35 68.32 418.04 54.47 401.05 Z" />
<path fill="#ffffff" opacity="1.00" d=" M 360.58 441.09 C 377.88 430.89 393.75 418.36 407.88 404.09 C 412.85 408.98 417.87 413.83 422.89 418.69 C 407.52 434.35 390.17 448.10 371.19 459.15 C 367.66 453.12 364.12 447.11 360.58 441.09 Z" />
<path fill="#ffffff" opacity="1.00" d=" M 120.31 458.30 C 123.92 452.29 127.53 446.27 131.13 440.26 C 148.34 450.54 166.92 458.52 186.25 463.84 C 184.39 470.57 182.53 477.30 180.71 484.05 C 159.51 478.32 139.24 469.39 120.31 458.30 Z" />
<path fill="#ffffff" opacity="1.00" d=" M 285.68 468.60 C 305.45 465.13 324.73 459.00 342.90 450.45 C 345.85 456.77 348.82 463.09 351.82 469.39 C 332.02 478.81 310.91 485.48 289.31 489.25 C 288.10 482.36 286.91 475.48 285.68 468.60 Z" />
<path fill="#ffffff" opacity="1.00" d=" M 202.03 488.90 C 203.33 482.05 204.55 475.20 205.80 468.35 C 225.58 471.92 245.82 472.85 265.85 471.15 C 266.37 478.13 266.99 485.10 267.55 492.08 C 262.84 492.39 258.13 492.77 253.41 493.00 L 239.71 493.00 C 227.09 492.34 214.44 491.38 202.03 488.90 Z" />
</g>
</g>
<defs xmlns="http://www.w3.org/2000/svg">
    <style><![CDATA[
        .sprite { display: none; }
        .sprite:target { display: inline; }
    ]]></style>
</defs>
</svg>
