<?xml version="1.0" encoding="UTF-8" ?><!DOCTYPE svg PUBLIC "-//W3C//DTD SVG 1.1//EN" "http://www.w3.org/Graphics/SVG/1.1/DTD/svg11.dtd">
<svg xmlns="http://www.w3.org/2000/svg" width="121pt" height="121pt" viewBox="0 0 121 121" version="1.1">
<path fill="#FFFFFF" d=" M 16.74 0.00 L 104.07 0.00 C 105.23 0.44 106.41 0.87 107.58 1.29 C 108.12 1.51 109.20 1.94 109.74 2.16 C 113.47 4.37 116.62 7.52 118.84 11.24 C 119.34 12.54 119.90 13.81 120.44 15.10 C 120.05 15.34 119.28 15.82 118.90 16.06 C 117.84 7.97 109.99 2.07 102.15 1.32 C 94.79 0.67 87.38 1.15 80.01 1.00 C 66.68 1.00 53.35 1.00 40.02 1.00 C 32.64 1.19 25.22 0.56 17.88 1.45 C 9.52 2.50 2.50 9.52 1.45 17.88 C 0.57 25.21 1.19 32.63 1.00 40.00 C 1.00 53.33 1.00 66.66 1.00 80.00 C 1.12 87.50 0.72 95.03 1.26 102.52 C 2.05 111.55 9.91 119.22 18.94 119.85 C 25.92 120.17 32.92 119.92 39.92 120.00 C 53.29 120.00 66.66 120.00 80.04 120.00 C 87.25 120.04 94.46 119.92 101.68 120.04 L 103.14 121.00 L 16.71 121.00 C 14.59 120.25 12.53 119.32 10.45 118.44 C 7.14 116.13 4.21 113.23 2.14 109.75 C 1.95 109.19 1.57 108.09 1.37 107.53 C 0.85 106.51 0.39 105.45 0.00 104.36 L 0.00 16.93 C 0.73 15.06 1.43 13.18 2.15 11.30 C 4.36 7.54 7.53 4.36 11.30 2.16 C 13.13 1.49 14.96 0.79 16.74 0.00 Z"/>
<path xmlns="http://www.w3.org/2000/svg" fill="rgba(255, 255, 255, 0.35)" d=" M 17.88 1.45 C 25.22 0.56 32.64 1.19 40.02 1.00 C 39.99 14.00 39.96 27.00 40.02 40.00 C 27.01 39.99 14.01 40.00 1.00 40.00 C 1.19 32.63 0.57 25.21 1.45 17.88 C 2.50 9.52 9.52 2.50 17.88 1.45 Z"/>
<path xmlns="http://www.w3.org/2000/svg" fill="rgba(255, 255, 255, 0.51)" d=" M 40.02 1.00 C 53.35 1.00 66.68 1.00 80.01 1.00 C 80.44 8.69 78.99 16.54 80.83 24.09 C 75.64 29.46 70.31 34.69 65.09 40.04 C 56.74 39.97 48.38 40.00 40.02 40.00 C 39.96 27.00 39.99 14.00 40.02 1.00 Z"/>
<path xmlns="http://www.w3.org/2000/svg" fill="rgba(255, 255, 255, 0.67)" d=" M 80.01 1.00 C 87.38 1.15 94.79 0.67 102.15 1.32 C 109.99 2.07 117.84 7.97 118.90 16.06 C 118.60 17.51 119.07 18.58 120.30 19.26 C 119.59 26.15 120.19 33.10 120.00 40.01 C 112.42 39.75 104.79 40.57 97.26 39.47 C 101.72 35.33 105.64 30.62 110.32 26.71 C 111.56 25.68 112.83 24.68 114.08 23.68 C 108.84 18.31 103.50 13.03 98.09 7.84 C 96.24 5.61 94.57 8.53 93.80 10.11 C 90.34 15.48 85.05 19.34 80.83 24.09 C 78.99 16.54 80.44 8.69 80.01 1.00 Z"/>
<path fill="#a6a6a6" d=" M 93.80 10.11 C 94.57 8.53 96.24 5.61 98.09 7.84 C 103.50 13.03 108.84 18.31 114.08 23.68 C 112.83 24.68 111.56 25.68 110.32 26.71 C 108.39 23.08 104.95 20.71 102.17 17.81 C 99.51 15.10 96.84 12.39 93.80 10.11 Z"/>
<path fill="#ffffff" d=" M 80.83 24.09 C 85.05 19.34 90.34 15.48 93.80 10.11 C 96.84 12.39 99.51 15.10 102.17 17.81 C 104.95 20.71 108.39 23.08 110.32 26.71 C 105.64 30.62 101.72 35.33 97.26 39.47 C 89.24 47.50 81.19 55.52 73.37 63.75 C 67.97 69.03 62.60 74.36 57.49 79.92 C 57.03 80.46 56.58 81.01 56.13 81.57 C 48.27 89.51 40.20 97.27 32.66 105.52 C 30.12 104.53 28.39 102.37 26.51 100.51 C 23.00 96.97 19.41 93.51 15.90 89.97 C 16.19 89.68 16.76 89.10 17.04 88.81 C 24.94 81.26 32.46 73.33 40.15 65.57 C 48.57 57.16 56.73 48.50 65.09 40.04 C 70.31 34.69 75.64 29.46 80.83 24.09 Z"/>
<path fill="#FFFFFF" d=" M 120.44 15.10 L 121.00 15.61 L 121.00 18.81 L 120.30 19.26 C 119.07 18.58 118.60 17.51 118.90 16.06 C 119.28 15.82 120.05 15.34 120.44 15.10 Z"/>
<path fill="#FFFFFF" d=" M 120.30 19.26 L 121.00 18.81 L 121.00 105.80 L 120.81 104.20 C 120.17 106.01 119.51 107.81 118.89 109.63 C 117.42 112.09 115.45 114.17 113.45 116.20 L 113.16 115.38 C 116.87 111.81 119.62 107.11 119.89 101.88 C 120.13 94.59 119.94 87.29 120.00 80.00 C 120.00 66.67 120.00 53.34 120.00 40.01 C 120.19 33.10 119.59 26.15 120.30 19.26 Z"/>
<path xmlns="http://www.w3.org/2000/svg" fill="rgba(255, 255, 255, 0.63)" d=" M 73.37 63.75 C 81.19 55.52 89.24 47.50 97.26 39.47 C 104.79 40.57 112.42 39.75 120.00 40.01 C 120.00 53.34 120.00 66.67 120.00 80.00 C 106.67 80.00 93.35 80.00 80.03 80.00 C 79.97 72.99 80.02 65.97 79.93 58.96 C 77.94 60.81 75.74 62.41 73.37 63.75 Z"/>
<path xmlns="http://www.w3.org/2000/svg" fill="rgba(255, 255, 255, 0.670588)" d=" M 1.00 40.00 C 14.01 40.00 27.01 39.99 40.02 40.00 C 40.03 48.53 39.86 57.05 40.15 65.57 C 32.46 73.33 24.94 81.26 17.04 88.81 C 19.83 85.96 22.69 83.17 25.25 80.10 C 17.17 79.88 9.08 80.05 1.00 80.00 C 1.00 66.66 1.00 53.33 1.00 40.00 Z"/>
<path fill="rgba(255, 255, 255, 0.8)" d=" M 40.02 40.00 C 48.38 40.00 56.74 39.97 65.09 40.04 C 56.73 48.50 48.57 57.16 40.15 65.57 C 39.86 57.05 40.03 48.53 40.02 40.00 Z"/>
<path xmlns="http://www.w3.org/2000/svg" fill="rgba(255, 255, 255, 0.8)" d=" M 73.37 63.75 C 75.74 62.41 77.94 60.81 79.93 58.96 C 80.02 65.97 79.97 72.99 80.03 80.00 C 72.51 79.97 65.00 80.07 57.49 79.92 C 62.60 74.36 67.97 69.03 73.37 63.75 Z"/>
<path xmlns="http://www.w3.org/2000/svg" fill="rgba(255, 255, 255, 0.84)" d=" M 1.00 80.00 C 9.08 80.05 17.17 79.88 25.25 80.10 C 22.69 83.17 19.83 85.96 17.04 88.81 C 16.76 89.10 16.19 89.68 15.90 89.97 C 11.78 95.37 12.69 102.61 12.03 108.98 C 18.93 109.65 27.99 112.53 32.66 105.52 C 40.20 97.27 48.27 89.51 56.13 81.57 C 52.18 88.51 44.92 92.75 40.30 99.15 C 39.55 106.06 40.26 113.05 39.92 120.00 C 32.92 119.92 25.92 120.17 18.94 119.85 C 9.91 119.22 2.05 111.55 1.26 102.52 C 0.72 95.03 1.12 87.50 1.00 80.00 Z"/>
<path xmlns="http://www.w3.org/2000/svg" fill="rgba(255, 255, 255, 0.93)" d=" M 56.13 81.57 C 56.58 81.01 57.03 80.46 57.49 79.92 C 65.00 80.07 72.51 79.97 80.03 80.00 C 79.93 93.33 80.02 106.67 80.04 120.00 C 66.66 120.00 53.29 120.00 39.92 120.00 C 40.26 113.05 39.55 106.06 40.30 99.15 C 44.92 92.75 52.18 88.51 56.13 81.57 Z"/>
<path xmlns="http://www.w3.org/2000/svg" fill="rgba(255, 255, 255, 0.53)" d=" M 80.03 80.00 C 93.35 80.00 106.67 80.00 120.00 80.00 C 119.94 87.29 120.13 94.59 119.89 101.88 C 119.62 107.11 116.87 111.81 113.16 115.38 C 109.69 117.70 105.77 119.26 101.68 120.04 C 94.46 119.92 87.25 120.04 80.04 120.00 C 80.02 106.67 79.93 93.33 80.03 80.00 Z"/>
<path fill="#a6a6a6" d=" M 12.03 108.98 C 12.69 102.61 11.78 95.37 15.90 89.97 C 19.41 93.51 23.00 96.97 26.51 100.51 C 28.39 102.37 30.12 104.53 32.66 105.52 C 27.99 112.53 18.93 109.65 12.03 108.98 Z"/>
<path fill="#FFFFFF" d=" M 101.68 120.04 C 105.77 119.26 109.69 117.70 113.16 115.38 C 112.92 117.27 111.18 117.98 109.76 118.85 C 108.00 119.57 106.25 120.30 104.48 121.00 L 103.14 121.00 L 101.68 120.04 Z"/>
</svg>