<?xml version="1.0" encoding="UTF-8" ?><!DOCTYPE svg PUBLIC "-//W3C//DTD SVG 1.1//EN" "http://www.w3.org/Graphics/SVG/1.1/DTD/svg11.dtd">
<svg xmlns="http://www.w3.org/2000/svg" width="120pt" height="120pt" viewBox="0 0 120 120" version="1.1"><g id="#ad1b86"><path fill="#ad1b86" opacity="1.00" d=" M 30.90 26.90 C 33.37 24.24 37.54 24.93 40.39 26.56 C 47.96 30.78 53.74 37.66 61.59 41.46 C 63.78 42.57 66.42 42.73 68.70 41.77 C 76.99 38.61 82.78 31.22 90.96 27.85 C 94.70 26.29 97.67 29.68 100.02 32.06 C 103.24 35.12 104.76 39.53 104.92 43.90 C 105.39 53.80 102.89 63.51 100.68 73.08 C 102.97 76.35 104.02 80.95 101.50 84.42 C 98.38 90.12 89.46 90.47 85.91 85.01 C 82.44 80.88 84.03 74.23 88.54 71.56 C 91.32 69.45 95.03 69.84 98.11 71.02 C 100.21 61.50 102.80 51.78 101.72 41.95 C 101.29 37.09 97.72 33.33 93.94 30.63 C 89.96 30.31 86.91 33.80 83.73 35.76 C 77.55 40.02 71.12 46.44 62.98 45.14 C 53.61 42.07 47.26 33.89 38.83 29.15 C 37.37 28.37 35.69 27.84 34.04 28.22 C 31.19 30.09 30.85 33.88 30.20 36.94 C 28.25 50.05 28.87 63.40 26.80 76.50 C 28.82 78.53 30.93 80.91 30.96 83.94 C 31.41 89.36 26.31 94.43 20.90 93.96 C 15.33 93.64 10.72 87.70 12.29 82.22 C 13.67 77.27 18.94 74.13 23.96 75.14 C 25.70 63.17 25.43 51.02 26.85 39.02 C 27.49 34.83 27.95 30.20 30.90 26.90 Z"/></g><g id="#ffffff"><path fill="#ffffff" opacity="1.00" d=" M 19.47 0.00 L 101.13 0.00 C 111.13 0.55 119.69 9.26 120.00 19.28 L 120.00 101.15 C 119.46 111.11 110.76 119.71 100.76 120.00 L 18.85 120.00 C 8.84 119.41 0.19 110.67 0.00 100.58 L 0.00 18.85 C 0.61 8.80 9.37 0.23 19.47 0.00 M 30.90 26.90 C 27.95 30.20 27.49 34.83 26.85 39.02 C 25.43 51.02 25.70 63.17 23.96 75.14 C 18.94 74.13 13.67 77.27 12.29 82.22 C 10.72 87.70 15.33 93.64 20.90 93.96 C 26.31 94.43 31.41 89.36 30.96 83.94 C 30.93 80.91 28.82 78.53 26.80 76.50 C 28.87 63.40 28.25 50.05 30.20 36.94 C 30.85 33.88 31.19 30.09 34.04 28.22 C 35.69 27.84 37.37 28.37 38.83 29.15 C 47.26 33.89 53.61 42.07 62.98 45.14 C 71.12 46.44 77.55 40.02 83.73 35.76 C 86.91 33.80 89.96 30.31 93.94 30.63 C 97.72 33.33 101.29 37.09 101.72 41.95 C 102.80 51.78 100.21 61.50 98.11 71.02 C 95.03 69.84 91.32 69.45 88.54 71.56 C 84.03 74.23 82.44 80.88 85.91 85.01 C 89.46 90.47 98.38 90.12 101.50 84.42 C 104.02 80.95 102.97 76.35 100.68 73.08 C 102.89 63.51 105.39 53.80 104.92 43.90 C 104.76 39.53 103.24 35.12 100.02 32.06 C 97.67 29.68 94.70 26.29 90.96 27.85 C 82.78 31.22 76.99 38.61 68.70 41.77 C 66.42 42.73 63.78 42.57 61.59 41.46 C 53.74 37.66 47.96 30.78 40.39 26.56 C 37.54 24.93 33.37 24.24 30.90 26.90 Z"/></g></svg>