<?xml version="1.0" encoding="UTF-8" ?><!DOCTYPE svg PUBLIC "-//W3C//DTD SVG 1.1//EN" "http://www.w3.org/Graphics/SVG/1.1/DTD/svg11.dtd">
<svg xmlns="http://www.w3.org/2000/svg" width="120pt" height="120pt" viewBox="0 0 120 120" version="1.1"><path fill="#f5f3e8" d=" M 16.56 0.00 L 99.40 0.00 C 104.92 0.49 110.75 2.16 114.52 6.46 C 117.11 9.31 118.75 12.87 120.00 16.47 L 120.00 104.51 C 117.50 111.75 111.79 117.56 104.50 120.00 L 15.50 120.00 C 11.85 118.39 8.16 116.57 5.43 113.59 C 2.78 110.74 1.26 107.08 0.00 103.46 L 0.00 19.56 C 0.51 16.00 1.42 12.42 3.35 9.35 C 6.28 4.59 11.48 1.89 16.56 0.00 Z"/><path fill="#548235" d=" M 25.23 20.21 C 44.15 19.68 63.11 20.25 82.04 19.95 C 84.01 20.20 87.57 19.27 87.74 22.20 C 88.04 25.94 88.96 30.47 86.67 33.71 C 79.48 34.61 72.19 33.43 64.98 34.17 C 64.47 38.09 64.69 42.06 64.68 46.00 C 64.75 63.69 64.62 81.38 64.76 99.07 C 64.61 100.74 65.08 103.39 62.83 103.79 C 58.23 105.14 53.04 105.25 48.52 103.52 C 46.74 102.79 47.35 100.57 47.12 99.07 C 47.18 81.71 47.15 64.36 47.16 47.00 C 47.13 42.73 47.42 38.43 46.92 34.18 C 39.73 33.42 32.47 34.62 25.30 33.71 C 22.53 29.91 22.67 24.10 25.23 20.21 Z"/></svg>