<?xml version="1.0" encoding="UTF-8" ?>
<!DOCTYPE svg PUBLIC "-//W3C//DTD SVG 1.1//EN" "http://www.w3.org/Graphics/SVG/1.1/DTD/svg11.dtd">
<svg width="960pt" height="600pt" viewBox="0 0 960 600" version="1.1" xmlns="http://www.w3.org/2000/svg">
<g class="sprite" id="day">
<g id="#808080ff">
<path fill="#808080" opacity="1.00" d=" M 0.00 0.00 L 960.00 0.00 L 960.00 600.00 L 0.00 600.00 L 0.00 0.00 M 469.89 182.94 C 470.03 183.57 470.33 184.83 470.47 185.46 C 472.97 185.56 475.47 185.36 477.98 185.24 C 477.95 184.58 477.90 183.24 477.87 182.58 C 475.21 182.70 472.55 182.81 469.89 182.94 M 480.71 182.58 C 480.70 183.24 480.68 184.57 480.67 185.23 C 483.29 185.30 485.91 185.39 488.54 185.51 C 488.53 184.84 488.50 183.49 488.48 182.82 C 485.89 182.74 483.30 182.65 480.71 182.58 M 491.25 183.14 C 491.21 183.78 491.12 185.08 491.07 185.72 C 493.85 186.11 496.64 186.43 499.44 186.63 C 499.04 182.43 494.10 183.92 491.25 183.14 M 459.52 184.45 C 459.61 185.05 459.79 186.25 459.88 186.84 C 462.42 186.57 464.98 186.30 467.53 186.06 C 467.52 185.36 467.49 183.98 467.48 183.29 C 464.82 183.65 462.17 184.04 459.52 184.45 M 449.12 186.65 C 449.36 187.50 449.61 188.37 449.86 189.23 C 452.37 188.60 454.91 188.06 457.43 187.45 C 457.32 186.83 457.10 185.59 457.00 184.96 C 454.36 185.46 451.74 186.09 449.12 186.65 M 501.80 184.49 C 501.68 185.18 501.43 186.54 501.31 187.23 C 504.24 187.44 508.23 190.20 510.18 186.73 C 507.42 185.84 504.60 185.19 501.80 184.49 M 512.01 187.03 C 511.85 187.64 511.51 188.86 511.34 189.46 C 514.21 189.89 518.20 193.46 520.19 189.76 C 517.50 188.74 514.77 187.83 512.01 187.03 M 439.05 189.95 C 439.27 190.56 439.72 191.79 439.94 192.40 C 442.39 191.58 444.83 190.75 447.29 189.96 C 447.08 189.32 446.66 188.05 446.45 187.42 C 443.98 188.27 441.51 189.09 439.05 189.95 M 429.34 194.01 C 429.62 194.64 430.17 195.89 430.45 196.52 C 432.97 195.36 435.50 194.24 438.00 193.04 C 435.88 189.37 432.12 193.39 429.34 194.01 M 521.67 190.22 C 521.67 190.86 521.67 192.14 521.68 192.78 C 524.18 193.89 527.85 197.30 530.01 193.89 C 527.31 192.49 524.50 191.32 521.67 190.22 M 530.83 196.94 C 533.03 198.22 535.30 199.38 537.48 200.72 C 537.96 199.97 538.44 199.22 538.93 198.48 C 536.60 197.13 534.24 195.87 531.90 194.56 C 531.63 195.16 531.10 196.34 530.83 196.94 M 419.88 199.41 C 420.25 199.92 420.99 200.95 421.36 201.47 C 423.52 200.21 425.68 198.96 427.87 197.75 C 427.67 197.12 427.25 195.86 427.04 195.23 C 424.60 196.54 422.23 197.95 419.88 199.41 M 540.97 199.73 C 540.65 200.58 540.34 201.43 540.04 202.29 C 542.11 203.56 544.18 204.84 546.23 206.15 C 546.66 205.72 547.53 204.85 547.96 204.42 C 545.72 202.73 543.35 201.21 540.97 199.73 M 410.68 205.39 C 411.25 205.72 412.39 206.39 412.96 206.72 C 415.07 205.64 417.00 204.23 418.97 202.92 C 418.68 202.33 418.10 201.16 417.81 200.57 C 415.37 202.08 413.00 203.71 410.68 205.39 M 547.98 207.45 C 550.23 209.30 552.55 211.06 554.92 212.76 C 555.19 212.16 555.73 210.95 556.01 210.35 C 553.51 208.89 550.98 204.73 547.98 207.45 M 402.94 211.47 C 403.40 212.20 403.86 212.94 404.33 213.67 C 406.55 211.94 408.76 210.18 410.90 208.34 C 407.86 205.66 405.36 209.94 402.94 211.47 M 555.99 213.70 C 558.02 215.96 560.26 218.01 562.53 220.03 C 562.91 219.24 563.26 218.44 563.58 217.63 C 561.61 215.51 559.31 212.14 555.99 213.70 M 395.06 218.97 C 395.54 219.43 396.49 220.35 396.97 220.81 C 398.82 218.94 400.76 217.17 402.64 215.32 C 402.18 214.87 401.25 213.97 400.78 213.51 C 398.85 215.31 396.94 217.12 395.06 218.97 M 563.81 221.43 C 565.53 223.44 567.25 225.44 569.02 227.40 C 569.55 227.02 570.61 226.28 571.14 225.91 C 569.43 223.91 567.66 221.96 565.92 219.99 C 565.40 220.35 564.34 221.07 563.81 221.43 M 393.22 221.03 C 391.52 223.02 389.81 225.00 388.12 226.98 C 388.61 227.41 389.61 228.25 390.11 228.67 C 391.76 226.69 393.49 224.77 395.19 222.83 C 394.53 222.23 393.87 221.63 393.22 221.03 M 570.57 229.18 C 572.08 231.50 573.74 233.73 575.45 235.92 C 575.92 235.48 576.87 234.60 577.35 234.16 C 575.83 232.15 574.31 230.15 572.83 228.13 C 572.26 228.39 571.13 228.92 570.57 229.18 M 381.81 235.80 C 382.38 236.08 383.52 236.65 384.09 236.93 C 385.60 234.87 387.13 232.82 388.68 230.78 C 388.16 230.37 387.12 229.55 386.60 229.15 C 384.94 231.32 383.36 233.55 381.81 235.80 M 576.61 237.99 C 578.07 240.38 579.49 242.79 581.03 245.14 C 581.40 244.64 582.14 243.64 582.52 243.14 C 581.63 240.80 580.14 238.75 578.89 236.61 C 578.32 236.95 577.18 237.64 576.61 237.99 M 380.36 238.09 C 379.03 240.33 377.69 242.56 376.38 244.81 C 377.17 245.15 377.97 245.51 378.77 245.86 C 380.14 243.59 381.50 241.32 382.82 239.02 C 382.21 238.79 380.98 238.32 380.36 238.09 M 581.93 246.81 C 582.99 249.15 584.16 251.44 585.20 253.80 C 585.83 253.62 587.08 253.25 587.71 253.06 C 586.65 250.71 585.60 248.36 584.51 246.02 C 583.64 246.28 582.78 246.54 581.93 246.81 M 371.85 254.67 C 372.53 254.72 373.87 254.81 374.54 254.85 C 375.49 252.65 376.47 250.44 377.48 248.26 C 376.96 247.94 375.93 247.30 375.42 246.98 C 374.05 249.46 372.88 252.03 371.85 254.67 M 440.13 247.92 C 439.73 248.42 438.93 249.42 438.52 249.93 C 440.52 251.73 442.56 253.47 444.61 255.21 C 444.96 254.67 445.66 253.58 446.01 253.03 C 444.05 251.32 442.10 249.61 440.13 247.92 M 429.81 248.37 C 429.78 250.97 429.74 253.58 429.72 256.20 C 430.39 256.20 431.73 256.21 432.40 256.22 C 432.44 253.57 432.48 250.92 432.53 248.28 C 431.85 248.30 430.49 248.35 429.81 248.37 M 522.26 257.86 C 522.72 258.34 523.62 259.28 524.08 259.76 C 526.02 257.98 527.97 256.22 529.91 254.45 C 529.31 253.81 528.72 253.17 528.13 252.54 C 526.17 254.32 524.20 256.08 522.26 257.86 M 446.28 256.92 C 448.24 258.63 450.16 260.39 452.11 262.12 C 452.56 261.63 453.46 260.65 453.91 260.16 C 451.93 258.43 449.97 256.70 448.00 254.97 C 447.57 255.46 446.71 256.43 446.28 256.92 M 586.25 256.45 C 587.76 258.95 587.59 263.99 591.61 263.50 C 590.78 260.75 589.76 258.07 588.81 255.37 C 588.17 255.64 586.89 256.18 586.25 256.45 M 370.64 257.09 C 369.81 259.51 368.92 261.90 368.13 264.33 C 368.78 264.48 370.08 264.77 370.73 264.92 C 371.57 262.41 372.34 259.88 373.12 257.35 C 372.50 257.29 371.26 257.16 370.64 257.09 M 429.76 258.78 C 429.71 261.39 429.67 263.99 429.63 266.61 C 430.30 266.62 431.65 266.65 432.32 266.66 C 432.35 264.02 432.40 261.39 432.43 258.76 C 431.76 258.76 430.43 258.77 429.76 258.78 M 514.57 264.92 C 514.99 265.39 515.84 266.34 516.26 266.81 C 518.25 265.02 520.21 263.20 522.17 261.37 C 521.70 260.93 520.78 260.06 520.32 259.62 C 518.41 261.40 516.48 263.15 514.57 264.92 M 454.07 263.96 C 456.04 265.70 458.03 267.42 460.01 269.15 C 460.43 268.67 461.27 267.71 461.69 267.23 C 459.75 265.51 457.86 263.75 455.95 262.02 C 455.48 262.50 454.54 263.48 454.07 263.96 M 591.84 273.63 C 592.49 273.48 593.79 273.18 594.43 273.03 C 593.72 270.31 592.96 267.60 592.13 264.92 C 588.38 266.58 591.63 270.76 591.84 273.63 M 367.21 267.10 C 366.57 269.56 365.97 272.03 365.36 274.50 C 366.03 274.60 367.36 274.82 368.03 274.93 C 368.54 272.38 369.26 269.88 369.84 267.36 C 369.18 267.29 367.87 267.16 367.21 267.10 M 506.78 271.96 C 507.37 272.61 507.95 273.25 508.55 273.90 C 510.49 272.11 512.46 270.35 514.40 268.56 C 513.96 268.07 513.07 267.10 512.62 266.61 C 510.67 268.39 508.72 270.18 506.78 271.96 M 429.59 269.31 C 429.59 271.95 429.59 274.59 429.60 277.23 C 430.26 277.22 431.59 277.21 432.25 277.20 C 432.25 274.57 432.25 271.95 432.25 269.32 C 431.59 269.32 430.26 269.32 429.59 269.31 M 461.90 270.97 C 464.31 272.60 466.58 277.25 469.83 274.72 C 467.87 272.78 465.84 270.90 463.82 269.04 C 463.34 269.52 462.38 270.48 461.90 270.97 M 504.48 273.96 C 502.65 275.65 500.80 277.32 498.98 279.01 C 499.45 279.50 500.40 280.49 500.87 280.98 C 502.86 279.09 504.85 277.20 506.76 275.22 C 506.19 274.90 505.05 274.27 504.48 273.96 M 469.71 277.98 C 471.71 279.77 473.74 281.54 475.79 283.28 C 476.14 282.74 476.85 281.67 477.20 281.13 C 475.30 279.45 473.44 277.73 471.55 276.04 C 470.93 276.69 470.32 277.33 469.71 277.98 M 592.47 275.92 C 592.87 278.53 593.37 281.14 593.77 283.76 C 594.64 283.67 595.51 283.59 596.39 283.51 C 595.93 280.91 595.50 278.32 595.09 275.72 C 594.44 275.77 593.13 275.87 592.47 275.92 M 363.56 285.11 C 364.20 285.16 365.49 285.25 366.13 285.30 C 366.51 282.73 366.95 280.17 367.40 277.61 C 366.74 277.50 365.43 277.27 364.77 277.16 C 364.40 279.81 363.93 282.45 363.56 285.11 M 429.41 287.61 C 430.07 287.64 431.38 287.70 432.03 287.73 C 432.11 285.08 432.15 282.43 432.22 279.78 C 431.56 279.77 430.22 279.76 429.56 279.75 C 429.51 282.37 429.45 284.99 429.41 287.61 M 491.19 286.01 C 491.63 286.50 492.52 287.49 492.97 287.99 C 494.90 286.26 496.83 284.54 498.78 282.83 C 498.36 282.32 497.52 281.29 497.09 280.78 C 495.12 282.52 493.16 284.28 491.19 286.01 M 477.56 285.01 C 479.49 286.78 481.34 288.71 483.65 290.00 C 484.00 289.66 484.70 289.00 485.05 288.66 C 483.44 286.47 481.24 284.80 479.19 283.05 C 478.78 283.54 477.97 284.52 477.56 285.01 M 594.16 286.40 C 594.37 288.99 594.59 291.59 594.81 294.19 C 595.47 294.17 596.79 294.12 597.45 294.09 C 597.23 291.42 596.95 288.75 596.68 286.09 C 596.05 286.17 594.79 286.32 594.16 286.40 M 363.27 287.57 C 363.04 290.21 362.78 292.85 362.57 295.50 C 363.24 295.51 364.59 295.53 365.26 295.55 C 365.44 292.95 365.62 290.37 365.79 287.78 C 365.16 287.73 363.90 287.62 363.27 287.57 M 483.45 293.14 C 483.86 293.61 484.69 294.56 485.10 295.03 C 485.57 294.64 486.52 293.86 487.00 293.47 C 488.38 294.73 489.78 295.99 491.17 297.26 C 491.61 296.73 492.47 295.67 492.90 295.15 C 491.69 294.12 490.48 293.11 489.28 292.10 C 489.85 290.67 491.68 288.66 489.19 288.10 C 487.11 289.58 485.32 291.42 483.45 293.14 M 429.46 290.28 C 429.42 293.09 429.39 295.89 429.45 298.70 C 433.59 298.23 431.60 293.15 432.21 290.34 C 431.53 290.33 430.15 290.30 429.46 290.28 M 475.57 300.22 C 476.24 300.83 476.92 301.45 477.61 302.07 C 479.44 300.37 481.27 298.67 483.11 296.99 C 482.78 296.45 482.13 295.38 481.80 294.84 C 479.70 296.61 477.60 298.38 475.57 300.22 M 594.85 296.74 C 594.84 299.36 594.82 301.97 594.81 304.60 C 595.47 304.60 596.80 304.59 597.46 304.59 C 597.48 301.96 597.49 299.34 597.50 296.72 C 596.84 296.72 595.52 296.74 594.85 296.74 M 362.54 298.22 C 362.53 302.66 362.68 307.10 363.12 311.52 C 363.77 311.45 365.07 311.32 365.72 311.25 C 365.37 306.91 365.19 302.57 365.16 298.22 C 364.50 298.22 363.19 298.22 362.54 298.22 M 493.15 299.04 C 495.10 300.79 497.05 302.55 499.02 304.29 C 499.44 303.78 500.27 302.77 500.69 302.26 C 498.75 300.55 496.83 298.82 494.92 297.08 C 494.47 297.57 493.59 298.55 493.15 299.04 M 429.34 300.77 C 429.33 303.40 429.32 306.03 429.32 308.67 C 429.95 308.67 431.22 308.67 431.85 308.67 C 431.85 306.03 431.84 303.40 431.83 300.76 C 431.21 300.76 429.97 300.76 429.34 300.77 M 467.99 307.09 C 468.35 307.63 469.06 308.70 469.41 309.23 C 471.55 307.09 475.94 305.33 474.35 301.64 C 472.17 303.39 470.08 305.24 467.99 307.09 M 500.97 306.06 C 502.82 307.76 504.69 309.44 506.53 311.15 C 507.23 310.60 507.93 310.05 508.63 309.50 C 506.70 307.69 504.75 305.91 502.81 304.12 C 502.35 304.60 501.43 305.57 500.97 306.06 M 594.66 307.13 C 594.47 309.72 594.28 312.31 594.11 314.91 C 594.73 314.93 595.97 314.98 596.58 315.01 C 596.85 312.49 597.13 309.98 597.42 307.47 C 596.49 307.35 595.57 307.24 594.66 307.13 M 460.15 314.27 C 460.74 314.91 461.33 315.55 461.93 316.20 C 463.87 314.44 465.81 312.68 467.76 310.94 C 467.31 310.46 466.42 309.52 465.97 309.04 C 464.05 310.80 462.09 312.53 460.15 314.27 M 429.29 311.29 C 429.25 313.93 429.22 316.58 429.20 319.23 C 429.83 319.22 431.07 319.22 431.69 319.22 C 431.71 316.58 431.76 313.95 431.79 311.32 C 431.16 311.31 429.91 311.30 429.29 311.29 M 508.83 313.05 C 510.61 314.73 512.43 316.37 514.20 318.06 C 514.80 317.74 516.00 317.10 516.60 316.77 C 514.63 314.83 512.60 312.96 510.56 311.10 C 509.98 311.75 509.40 312.40 508.83 313.05 M 363.45 314.12 C 363.79 316.69 364.19 319.25 364.56 321.82 C 365.17 321.79 366.39 321.73 367.00 321.70 C 366.75 319.18 366.39 316.66 366.16 314.14 C 365.49 314.14 364.13 314.12 363.45 314.12 M 452.15 321.81 C 452.76 322.11 453.97 322.71 454.57 323.00 C 456.35 321.32 458.15 319.65 459.94 317.97 C 459.48 317.49 458.55 316.54 458.08 316.06 C 456.09 317.97 454.06 319.82 452.15 321.81 M 517.16 320.19 C 518.52 322.08 520.39 323.52 522.05 325.14 C 522.63 324.79 523.77 324.10 524.34 323.75 C 522.29 321.75 520.20 319.78 518.03 317.91 C 517.71 318.66 517.42 319.42 517.16 320.19 M 592.23 325.13 C 592.86 325.30 594.12 325.63 594.75 325.79 C 595.35 323.15 595.69 320.47 596.27 317.83 C 595.62 317.76 594.31 317.62 593.66 317.55 C 593.20 320.08 592.71 322.60 592.23 325.13 M 429.23 321.76 C 429.18 324.40 429.15 327.05 429.14 329.69 C 429.76 329.68 431.00 329.67 431.62 329.66 C 431.63 327.03 431.66 324.40 431.69 321.77 C 431.08 321.77 429.84 321.77 429.23 321.76 M 365.16 324.51 C 365.73 327.13 366.35 329.73 366.94 332.35 C 367.60 332.14 368.90 331.73 369.56 331.52 C 368.88 329.09 368.35 326.63 367.73 324.20 C 367.08 324.27 365.80 324.43 365.16 324.51 M 444.54 328.48 C 445.16 329.11 445.79 329.74 446.42 330.38 C 448.37 328.59 450.32 326.80 452.27 325.01 C 451.59 324.47 450.90 323.95 450.20 323.46 C 448.19 324.99 446.35 326.73 444.54 328.48 M 524.37 327.10 C 525.89 328.50 527.43 329.87 529.00 331.23 C 530.87 328.51 527.96 326.83 526.18 325.12 C 525.73 325.62 524.82 326.60 524.37 327.10 M 591.58 328.03 C 590.88 330.42 590.19 332.81 589.50 335.21 C 590.15 335.37 591.45 335.71 592.10 335.88 C 592.73 333.32 593.47 330.79 594.08 328.23 C 593.46 328.18 592.20 328.08 591.58 328.03 M 437.76 334.69 C 438.23 335.13 439.18 336.01 439.65 336.45 C 441.12 335.12 442.60 333.79 444.08 332.48 C 443.69 331.67 443.29 330.86 442.90 330.06 C 441.16 331.58 439.46 333.14 437.76 334.69 M 428.87 332.31 C 429.27 335.19 427.37 340.09 431.45 340.78 C 431.57 337.96 431.55 335.13 431.57 332.31 C 430.90 332.31 429.54 332.31 428.87 332.31 M 367.68 334.94 C 368.69 337.64 369.65 340.37 370.87 342.99 C 374.12 340.70 370.84 336.99 370.28 334.10 C 369.63 334.31 368.33 334.73 367.68 334.94 M 588.48 338.04 C 587.68 340.37 586.77 342.66 585.99 345.00 C 586.58 345.23 587.75 345.70 588.34 345.94 C 589.32 343.39 590.24 340.82 591.15 338.25 C 590.48 338.20 589.15 338.09 588.48 338.04 M 435.30 342.10 C 435.31 342.74 435.34 344.02 435.35 344.65 C 437.98 344.65 440.60 344.65 443.23 344.66 C 443.24 344.01 443.26 342.73 443.27 342.08 C 440.61 342.09 437.95 342.09 435.30 342.10 M 445.81 342.01 C 445.82 342.67 445.84 343.99 445.86 344.66 C 448.47 344.65 451.09 344.65 453.71 344.66 C 453.74 344.01 453.79 342.73 453.82 342.08 C 451.14 342.06 448.47 342.07 445.81 342.01 M 456.30 342.10 C 456.32 342.74 456.34 344.02 456.36 344.65 C 458.99 344.65 461.62 344.65 464.26 344.65 C 464.25 343.79 464.25 342.93 464.25 342.08 C 461.60 342.08 458.95 342.09 456.30 342.10 M 466.83 342.09 C 466.83 342.73 466.85 344.01 466.85 344.65 C 469.47 344.65 472.10 344.65 474.73 344.66 C 474.75 344.02 474.78 342.74 474.79 342.10 C 472.13 342.09 469.48 342.09 466.83 342.09 M 477.28 342.08 C 477.31 342.73 477.36 344.02 477.39 344.66 C 480.01 344.65 482.64 344.65 485.27 344.64 C 485.26 343.74 485.25 342.84 485.25 341.95 C 482.59 342.04 479.94 342.06 477.28 342.08 M 487.83 342.09 C 487.84 342.73 487.85 344.01 487.86 344.65 C 490.48 344.65 493.11 344.65 495.74 344.66 C 495.75 344.02 495.78 342.74 495.79 342.10 C 493.14 342.09 490.48 342.09 487.83 342.09 M 498.29 342.09 C 498.31 342.73 498.36 344.01 498.38 344.66 C 501.01 344.65 503.63 344.65 506.26 344.64 C 506.26 343.76 506.26 342.89 506.26 342.01 C 503.60 342.06 500.94 342.07 498.29 342.09 M 508.83 342.02 C 508.84 342.68 508.85 343.99 508.86 344.65 C 511.47 344.65 514.10 344.65 516.72 344.66 C 516.75 344.01 516.80 342.72 516.82 342.08 C 514.16 342.07 511.49 342.06 508.83 342.02 M 519.32 342.10 C 519.33 342.74 519.36 344.04 519.38 344.68 C 521.87 344.66 524.39 344.79 526.87 344.44 C 527.08 343.87 527.49 342.72 527.70 342.15 C 524.90 342.08 522.11 342.08 519.32 342.10 M 529.75 342.11 C 529.84 342.78 530.03 344.10 530.12 344.77 C 530.70 344.71 531.86 344.61 532.43 344.56 C 532.40 343.72 532.38 342.89 532.36 342.06 C 531.71 342.07 530.41 342.10 529.75 342.11 M 428.91 342.32 C 429.09 343.26 429.47 345.13 429.66 346.06 C 430.39 345.25 431.14 344.45 431.83 343.59 C 431.10 343.27 429.64 342.64 428.91 342.32 M 371.36 344.81 C 372.43 347.21 373.49 349.61 374.56 352.00 C 375.37 351.69 376.19 351.38 377.01 351.07 C 375.99 348.72 374.93 346.39 373.93 344.04 C 373.29 344.23 372.00 344.62 371.36 344.81 M 581.40 354.24 C 582.01 354.54 583.23 355.15 583.84 355.45 C 584.89 353.18 586.20 350.99 586.80 348.54 C 586.36 348.13 585.48 347.32 585.04 346.91 C 583.83 349.35 582.61 351.79 581.40 354.24 M 376.35 354.66 C 377.04 357.11 378.62 359.18 379.91 361.36 C 380.47 361.02 381.61 360.36 382.18 360.02 C 380.78 357.65 379.34 355.29 377.92 352.93 C 377.53 353.36 376.74 354.23 376.35 354.66 M 576.44 362.96 C 576.81 363.47 577.56 364.48 577.93 364.99 C 579.13 362.22 583.70 358.90 580.44 356.05 C 579.00 358.28 577.39 360.46 576.44 362.96 M 381.24 363.78 C 382.79 365.96 384.37 368.13 385.97 370.29 C 386.53 369.64 387.07 368.98 387.59 368.30 C 386.29 366.17 384.81 364.17 383.32 362.18 C 382.80 362.58 381.76 363.38 381.24 363.78 M 569.90 371.85 C 570.45 372.14 571.55 372.73 572.09 373.03 C 573.65 370.98 575.17 368.90 576.76 366.87 C 576.25 366.45 575.24 365.60 574.73 365.18 C 573.05 367.35 571.48 369.60 569.90 371.85 M 387.41 372.38 C 389.06 374.39 390.75 376.37 392.43 378.37 C 392.96 377.97 394.03 377.19 394.56 376.79 C 392.87 374.77 391.13 372.78 389.49 370.72 C 388.79 371.27 388.09 371.82 387.41 372.38 M 563.08 379.65 C 563.59 380.00 564.61 380.70 565.12 381.05 C 566.87 379.11 568.64 377.19 570.38 375.24 C 569.86 374.83 568.81 373.99 568.28 373.57 C 566.53 375.58 564.79 377.60 563.08 379.65 M 394.14 380.07 C 395.91 382.00 397.58 384.11 399.79 385.57 C 400.35 385.29 401.45 384.74 402.00 384.47 C 400.21 382.60 398.39 380.77 396.59 378.92 C 395.98 379.20 394.75 379.78 394.14 380.07 M 555.42 386.87 C 556.00 387.20 557.16 387.85 557.75 388.18 C 559.50 386.53 561.29 384.93 563.08 383.32 C 562.49 382.61 561.92 381.91 561.35 381.22 C 559.37 383.10 557.35 384.94 555.42 386.87 M 401.83 387.53 C 403.83 389.38 405.87 391.18 407.98 392.91 C 408.41 392.42 409.27 391.42 409.70 390.92 C 407.73 389.31 405.79 387.65 403.88 385.97 C 403.37 386.36 402.35 387.14 401.83 387.53 M 547.47 393.01 C 547.86 393.52 548.65 394.56 549.04 395.08 C 551.07 393.61 553.07 392.10 555.12 390.65 C 554.84 390.04 554.29 388.82 554.02 388.21 C 551.80 389.76 549.66 391.42 547.47 393.01 M 410.11 394.35 C 412.32 396.02 414.58 397.62 416.91 399.13 C 417.24 398.32 417.59 397.52 417.93 396.73 C 415.86 395.32 413.84 393.85 411.82 392.39 C 411.39 392.88 410.54 393.86 410.11 394.35 M 539.20 398.93 C 539.31 399.38 539.53 400.28 539.64 400.73 C 542.29 399.97 544.55 398.34 546.85 396.88 C 546.59 396.32 546.06 395.21 545.79 394.65 C 543.57 395.98 540.82 396.86 539.20 398.93 M 419.18 400.53 C 421.44 401.81 423.67 403.17 425.95 404.45 C 426.21 403.84 426.72 402.61 426.98 402.00 C 424.65 400.69 422.36 399.34 420.02 398.07 C 419.81 398.68 419.39 399.91 419.18 400.53 M 529.95 403.57 C 530.24 404.41 530.54 405.25 530.85 406.09 C 533.20 404.88 535.55 403.65 537.88 402.40 C 537.50 401.63 537.13 400.87 536.76 400.11 C 534.46 401.21 532.24 402.46 529.95 403.57 M 427.72 405.13 C 430.19 406.51 432.76 407.67 435.31 408.90 C 435.64 408.33 436.29 407.19 436.62 406.62 C 433.77 405.68 430.32 401.98 427.72 405.13 M 519.76 407.98 C 521.53 411.53 525.20 408.17 527.85 407.64 C 527.84 406.94 527.81 405.55 527.80 404.86 C 525.10 405.84 522.40 406.85 519.76 407.98 M 438.77 407.40 C 438.62 408.05 438.31 409.35 438.15 410.00 C 440.60 410.81 443.03 411.66 445.47 412.50 C 445.63 411.84 445.95 410.53 446.10 409.87 C 443.65 409.07 441.22 408.19 438.77 407.40 M 510.35 410.97 C 510.51 411.60 510.83 412.86 510.99 413.49 C 513.55 412.72 516.11 411.93 518.67 411.14 C 518.40 410.52 517.87 409.27 517.60 408.65 C 515.19 409.45 512.77 410.22 510.35 410.97 M 448.71 410.68 C 448.56 411.33 448.27 412.63 448.13 413.28 C 451.02 413.50 455.21 416.52 456.97 412.82 C 454.24 411.99 451.45 411.42 448.71 410.68 M 500.03 415.73 C 502.98 415.35 505.89 414.72 508.80 414.08 C 508.50 413.52 507.90 412.40 507.61 411.84 C 504.86 412.44 499.97 411.73 500.03 415.73 M 458.85 413.06 C 458.72 413.68 458.47 414.90 458.34 415.51 C 461.07 416.00 463.81 416.43 466.55 416.84 C 466.48 416.22 466.33 414.98 466.26 414.36 C 463.84 413.66 461.32 413.42 458.85 413.06 M 490.05 414.55 C 490.07 415.16 490.12 416.37 490.14 416.98 C 492.75 416.80 495.37 416.54 497.98 416.27 C 497.86 415.59 497.62 414.24 497.50 413.57 C 495.01 413.91 492.53 414.25 490.05 414.55 M 469.10 414.47 C 469.13 415.15 469.17 416.51 469.19 417.19 C 471.72 417.30 474.26 417.43 476.80 417.54 C 476.80 416.89 476.81 415.58 476.81 414.92 C 474.23 414.79 471.67 414.63 469.10 414.47 M 479.49 414.86 C 479.49 415.52 479.49 416.85 479.49 417.52 C 482.13 417.49 484.77 417.47 487.42 417.42 C 487.39 416.76 487.34 415.45 487.31 414.79 C 484.70 414.82 482.09 414.84 479.49 414.86 Z" />
</g>
<g id="#404040ff">
<path fill="#404040" opacity="1.00" d=" M 469.89 182.94 C 472.55 182.81 475.21 182.70 477.87 182.58 C 477.90 183.24 477.95 184.58 477.98 185.24 C 475.47 185.36 472.97 185.56 470.47 185.46 C 470.33 184.83 470.03 183.57 469.89 182.94 Z" />
<path fill="#404040" opacity="1.00" d=" M 480.71 182.58 C 483.30 182.65 485.89 182.74 488.48 182.82 C 488.50 183.49 488.53 184.84 488.54 185.51 C 485.91 185.39 483.29 185.30 480.67 185.23 C 480.68 184.57 480.70 183.24 480.71 182.58 Z" />
<path fill="#404040" opacity="1.00" d=" M 491.25 183.14 C 494.10 183.92 499.04 182.43 499.44 186.63 C 496.64 186.43 493.85 186.11 491.07 185.72 C 491.12 185.08 491.21 183.78 491.25 183.14 Z" />
<path fill="#404040" opacity="1.00" d=" M 459.52 184.45 C 462.17 184.04 464.82 183.65 467.48 183.29 C 467.49 183.98 467.52 185.36 467.53 186.06 C 464.98 186.30 462.42 186.57 459.88 186.84 C 459.79 186.25 459.61 185.05 459.52 184.45 Z" />
<path fill="#404040" opacity="1.00" d=" M 449.12 186.65 C 451.74 186.09 454.36 185.46 457.00 184.96 C 457.10 185.59 457.32 186.83 457.43 187.45 C 454.91 188.06 452.37 188.60 449.86 189.23 C 449.61 188.37 449.36 187.50 449.12 186.65 Z" />
<path fill="#404040" opacity="1.00" d=" M 501.80 184.49 C 504.60 185.19 507.42 185.84 510.18 186.73 C 508.23 190.20 504.24 187.44 501.31 187.23 C 501.43 186.54 501.68 185.18 501.80 184.49 Z" />
<path fill="#404040" opacity="1.00" d=" M 512.01 187.03 C 514.77 187.83 517.50 188.74 520.19 189.76 C 518.20 193.46 514.21 189.89 511.34 189.46 C 511.51 188.86 511.85 187.64 512.01 187.03 Z" />
<path fill="#404040" opacity="1.00" d=" M 439.05 189.95 C 441.51 189.09 443.98 188.27 446.45 187.42 C 446.66 188.05 447.08 189.32 447.29 189.96 C 444.83 190.75 442.39 191.58 439.94 192.40 C 439.72 191.79 439.27 190.56 439.05 189.95 Z" />
<path fill="#404040" opacity="1.00" d=" M 429.34 194.01 C 432.12 193.39 435.88 189.37 438.00 193.04 C 435.50 194.24 432.97 195.36 430.45 196.52 C 430.17 195.89 429.62 194.64 429.34 194.01 Z" />
<path fill="#404040" opacity="1.00" d=" M 521.67 190.22 C 524.50 191.32 527.31 192.49 530.01 193.89 C 527.85 197.30 524.18 193.89 521.68 192.78 C 521.67 192.14 521.67 190.86 521.67 190.22 Z" />
<path fill="#404040" opacity="1.00" d=" M 530.83 196.94 C 531.10 196.34 531.63 195.16 531.90 194.56 C 534.24 195.87 536.60 197.13 538.93 198.48 C 538.44 199.22 537.96 199.97 537.48 200.72 C 535.30 199.38 533.03 198.22 530.83 196.94 Z" />
<path fill="#404040" opacity="1.00" d=" M 419.88 199.41 C 422.23 197.95 424.60 196.54 427.04 195.23 C 427.25 195.86 427.67 197.12 427.87 197.75 C 425.68 198.96 423.52 200.21 421.36 201.47 C 420.99 200.95 420.25 199.92 419.88 199.41 Z" />
<path fill="#404040" opacity="1.00" d=" M 540.97 199.73 C 543.35 201.21 545.72 202.73 547.96 204.42 C 547.53 204.85 546.66 205.72 546.23 206.15 C 544.18 204.84 542.11 203.56 540.04 202.29 C 540.34 201.43 540.65 200.58 540.97 199.73 Z" />
<path fill="#404040" opacity="1.00" d=" M 410.68 205.39 C 413.00 203.71 415.37 202.08 417.81 200.57 C 418.10 201.16 418.68 202.33 418.97 202.92 C 417.00 204.23 415.07 205.64 412.96 206.72 C 412.39 206.39 411.25 205.72 410.68 205.39 Z" />
<path fill="#404040" opacity="1.00" d=" M 547.98 207.45 C 550.98 204.73 553.51 208.89 556.01 210.35 C 555.73 210.95 555.19 212.16 554.92 212.76 C 552.55 211.06 550.23 209.30 547.98 207.45 Z" />
<path fill="#404040" opacity="1.00" d=" M 402.94 211.47 C 405.36 209.94 407.86 205.66 410.90 208.34 C 408.76 210.18 406.55 211.94 404.33 213.67 C 403.86 212.94 403.40 212.20 402.94 211.47 Z" />
<path fill="#404040" opacity="1.00" d=" M 555.99 213.70 C 559.31 212.14 561.61 215.51 563.58 217.63 C 563.26 218.44 562.91 219.24 562.53 220.03 C 560.26 218.01 558.02 215.96 555.99 213.70 Z" />
<path fill="#404040" opacity="1.00" d=" M 395.06 218.97 C 396.94 217.12 398.85 215.31 400.78 213.51 C 401.25 213.97 402.18 214.87 402.64 215.32 C 400.76 217.17 398.82 218.94 396.97 220.81 C 396.49 220.35 395.54 219.43 395.06 218.97 Z" />
<path fill="#404040" opacity="1.00" d=" M 563.81 221.43 C 564.34 221.07 565.40 220.35 565.92 219.99 C 567.66 221.96 569.43 223.91 571.14 225.91 C 570.61 226.28 569.55 227.02 569.02 227.40 C 567.25 225.44 565.53 223.44 563.81 221.43 Z" />
<path fill="#404040" opacity="1.00" d=" M 393.22 221.03 C 393.87 221.63 394.53 222.23 395.19 222.83 C 393.49 224.77 391.76 226.69 390.11 228.67 C 389.61 228.25 388.61 227.41 388.12 226.98 C 389.81 225.00 391.52 223.02 393.22 221.03 Z" />
<path fill="#404040" opacity="1.00" d=" M 570.57 229.18 C 571.13 228.92 572.26 228.39 572.83 228.13 C 574.31 230.15 575.83 232.15 577.35 234.16 C 576.87 234.60 575.92 235.48 575.45 235.92 C 573.74 233.73 572.08 231.50 570.57 229.18 Z" />
<path fill="#404040" opacity="1.00" d=" M 381.81 235.80 C 383.36 233.55 384.94 231.32 386.60 229.15 C 387.12 229.55 388.16 230.37 388.68 230.78 C 387.13 232.82 385.60 234.87 384.09 236.93 C 383.52 236.65 382.38 236.08 381.81 235.80 Z" />
<path fill="#404040" opacity="1.00" d=" M 576.61 237.99 C 577.18 237.64 578.32 236.95 578.89 236.61 C 580.14 238.75 581.63 240.80 582.52 243.14 C 582.14 243.64 581.40 244.64 581.03 245.14 C 579.49 242.79 578.07 240.38 576.61 237.99 Z" />
<path fill="#404040" opacity="1.00" d=" M 380.36 238.09 C 380.98 238.32 382.21 238.79 382.82 239.02 C 381.50 241.32 380.14 243.59 378.77 245.86 C 377.97 245.51 377.17 245.15 376.38 244.81 C 377.69 242.56 379.03 240.33 380.36 238.09 Z" />
<path fill="#404040" opacity="1.00" d=" M 581.93 246.81 C 582.78 246.54 583.64 246.28 584.51 246.02 C 585.60 248.36 586.65 250.71 587.71 253.06 C 587.08 253.25 585.83 253.62 585.20 253.80 C 584.16 251.44 582.99 249.15 581.93 246.81 Z" />
<path fill="#404040" opacity="1.00" d=" M 371.85 254.67 C 372.88 252.03 374.05 249.46 375.42 246.98 C 375.93 247.30 376.96 247.94 377.48 248.26 C 376.47 250.44 375.49 252.65 374.54 254.85 C 373.87 254.81 372.53 254.72 371.85 254.67 Z" />
<path fill="#404040" opacity="1.00" d=" M 440.13 247.92 C 442.10 249.61 444.05 251.32 446.01 253.03 C 445.66 253.58 444.96 254.67 444.61 255.21 C 442.56 253.47 440.52 251.73 438.52 249.93 C 438.93 249.42 439.73 248.42 440.13 247.92 Z" />
<path fill="#404040" opacity="1.00" d=" M 429.81 248.37 C 430.49 248.35 431.85 248.30 432.53 248.28 C 432.48 250.92 432.44 253.57 432.40 256.22 C 431.73 256.21 430.39 256.20 429.72 256.20 C 429.74 253.58 429.78 250.97 429.81 248.37 Z" />
<path fill="#404040" opacity="1.00" d=" M 522.26 257.86 C 524.20 256.08 526.17 254.32 528.13 252.54 C 528.72 253.17 529.31 253.81 529.91 254.45 C 527.97 256.22 526.02 257.98 524.08 259.76 C 523.62 259.28 522.72 258.34 522.26 257.86 Z" />
<path fill="#404040" opacity="1.00" d=" M 446.28 256.92 C 446.71 256.43 447.57 255.46 448.00 254.97 C 449.97 256.70 451.93 258.43 453.91 260.16 C 453.46 260.65 452.56 261.63 452.11 262.12 C 450.16 260.39 448.24 258.63 446.28 256.92 Z" />
<path fill="#404040" opacity="1.00" d=" M 586.25 256.45 C 586.89 256.18 588.17 255.64 588.81 255.37 C 589.76 258.07 590.78 260.75 591.61 263.50 C 587.59 263.99 587.76 258.95 586.25 256.45 Z" />
<path fill="#404040" opacity="1.00" d=" M 370.64 257.09 C 371.26 257.16 372.50 257.29 373.12 257.35 C 372.34 259.88 371.57 262.41 370.73 264.92 C 370.08 264.77 368.78 264.48 368.13 264.33 C 368.92 261.90 369.81 259.51 370.64 257.09 Z" />
<path fill="#404040" opacity="1.00" d=" M 429.76 258.78 C 430.43 258.77 431.76 258.76 432.43 258.76 C 432.40 261.39 432.35 264.02 432.32 266.66 C 431.65 266.65 430.30 266.62 429.63 266.61 C 429.67 263.99 429.71 261.39 429.76 258.78 Z" />
<path fill="#404040" opacity="1.00" d=" M 514.57 264.92 C 516.48 263.15 518.41 261.40 520.32 259.62 C 520.78 260.06 521.70 260.93 522.17 261.37 C 520.21 263.20 518.25 265.02 516.26 266.81 C 515.84 266.34 514.99 265.39 514.57 264.92 Z" />
<path fill="#404040" opacity="1.00" d=" M 454.07 263.96 C 454.54 263.48 455.48 262.50 455.95 262.02 C 457.86 263.75 459.75 265.51 461.69 267.23 C 461.27 267.71 460.43 268.67 460.01 269.15 C 458.03 267.42 456.04 265.70 454.07 263.96 Z" />
<path fill="#404040" opacity="1.00" d=" M 591.84 273.63 C 591.63 270.76 588.38 266.58 592.13 264.92 C 592.96 267.60 593.72 270.31 594.43 273.03 C 593.79 273.18 592.49 273.48 591.84 273.63 Z" />
<path fill="#404040" opacity="1.00" d=" M 367.21 267.10 C 367.87 267.16 369.18 267.29 369.84 267.36 C 369.26 269.88 368.54 272.38 368.03 274.93 C 367.36 274.82 366.03 274.60 365.36 274.50 C 365.97 272.03 366.57 269.56 367.21 267.10 Z" />
<path fill="#404040" opacity="1.00" d=" M 506.78 271.96 C 508.72 270.18 510.67 268.39 512.62 266.61 C 513.07 267.10 513.96 268.07 514.40 268.56 C 512.46 270.35 510.49 272.11 508.55 273.90 C 507.95 273.25 507.37 272.61 506.78 271.96 Z" />
<path fill="#404040" opacity="1.00" d=" M 429.59 269.31 C 430.26 269.32 431.59 269.32 432.25 269.32 C 432.25 271.95 432.25 274.57 432.25 277.20 C 431.59 277.21 430.26 277.22 429.60 277.23 C 429.59 274.59 429.59 271.95 429.59 269.31 Z" />
<path fill="#404040" opacity="1.00" d=" M 461.90 270.97 C 462.38 270.48 463.34 269.52 463.82 269.04 C 465.84 270.90 467.87 272.78 469.83 274.72 C 466.58 277.25 464.31 272.60 461.90 270.97 Z" />
<path fill="#404040" opacity="1.00" d=" M 504.48 273.96 C 505.05 274.27 506.19 274.90 506.76 275.22 C 504.85 277.20 502.86 279.09 500.87 280.98 C 500.40 280.49 499.45 279.50 498.98 279.01 C 500.80 277.32 502.65 275.65 504.48 273.96 Z" />
<path fill="#404040" opacity="1.00" d=" M 469.71 277.98 C 470.32 277.33 470.93 276.69 471.55 276.04 C 473.44 277.73 475.30 279.45 477.20 281.13 C 476.85 281.67 476.14 282.74 475.79 283.28 C 473.74 281.54 471.71 279.77 469.71 277.98 Z" />
<path fill="#404040" opacity="1.00" d=" M 592.47 275.92 C 593.13 275.87 594.44 275.77 595.09 275.72 C 595.50 278.32 595.93 280.91 596.39 283.51 C 595.51 283.59 594.64 283.67 593.77 283.76 C 593.37 281.14 592.87 278.53 592.47 275.92 Z" />
<path fill="#404040" opacity="1.00" d=" M 363.56 285.11 C 363.93 282.45 364.40 279.81 364.77 277.16 C 365.43 277.27 366.74 277.50 367.40 277.61 C 366.95 280.17 366.51 282.73 366.13 285.30 C 365.49 285.25 364.20 285.16 363.56 285.11 Z" />
<path fill="#404040" opacity="1.00" d=" M 429.41 287.61 C 429.45 284.99 429.51 282.37 429.56 279.75 C 430.22 279.76 431.56 279.77 432.22 279.78 C 432.15 282.43 432.11 285.08 432.03 287.73 C 431.38 287.70 430.07 287.64 429.41 287.61 Z" />
<path fill="#404040" opacity="1.00" d=" M 491.19 286.01 C 493.16 284.28 495.12 282.52 497.09 280.78 C 497.52 281.29 498.36 282.32 498.78 282.83 C 496.83 284.54 494.90 286.26 492.97 287.99 C 492.52 287.49 491.63 286.50 491.19 286.01 Z" />
<path fill="#404040" opacity="1.00" d=" M 477.56 285.01 C 477.97 284.52 478.78 283.54 479.19 283.05 C 481.24 284.80 483.44 286.47 485.05 288.66 C 484.70 289.00 484.00 289.66 483.65 290.00 C 481.34 288.71 479.49 286.78 477.56 285.01 Z" />
<path fill="#404040" opacity="1.00" d=" M 594.16 286.40 C 594.79 286.32 596.05 286.17 596.68 286.09 C 596.95 288.75 597.23 291.42 597.45 294.09 C 596.79 294.12 595.47 294.17 594.81 294.19 C 594.59 291.59 594.37 288.99 594.16 286.40 Z" />
<path fill="#404040" opacity="1.00" d=" M 363.27 287.57 C 363.90 287.62 365.16 287.73 365.79 287.78 C 365.62 290.37 365.44 292.95 365.26 295.55 C 364.59 295.53 363.24 295.51 362.57 295.50 C 362.78 292.85 363.04 290.21 363.27 287.57 Z" />
<path fill="#404040" opacity="1.00" d=" M 483.45 293.14 C 485.32 291.42 487.11 289.58 489.19 288.10 C 491.68 288.66 489.85 290.67 489.28 292.10 C 490.48 293.11 491.69 294.12 492.90 295.15 C 492.47 295.67 491.61 296.73 491.17 297.26 C 489.78 295.99 488.38 294.73 487.00 293.47 C 486.52 293.86 485.57 294.64 485.10 295.03 C 484.69 294.56 483.86 293.61 483.45 293.14 Z" />
<path fill="#404040" opacity="1.00" d=" M 429.46 290.28 C 430.15 290.30 431.53 290.33 432.21 290.34 C 431.60 293.15 433.59 298.23 429.45 298.70 C 429.39 295.89 429.42 293.09 429.46 290.28 Z" />
<path fill="#404040" opacity="1.00" d=" M 475.57 300.22 C 477.60 298.38 479.70 296.61 481.80 294.84 C 482.13 295.38 482.78 296.45 483.11 296.99 C 481.27 298.67 479.44 300.37 477.61 302.07 C 476.92 301.45 476.24 300.83 475.57 300.22 Z" />
<path fill="#404040" opacity="1.00" d=" M 594.85 296.74 C 595.52 296.74 596.84 296.72 597.50 296.72 C 597.49 299.34 597.48 301.96 597.46 304.59 C 596.80 304.59 595.47 304.60 594.81 304.60 C 594.82 301.97 594.84 299.36 594.85 296.74 Z" />
<path fill="#404040" opacity="1.00" d=" M 362.54 298.22 C 363.19 298.22 364.50 298.22 365.16 298.22 C 365.19 302.57 365.37 306.91 365.72 311.25 C 365.07 311.32 363.77 311.45 363.12 311.52 C 362.68 307.10 362.53 302.66 362.54 298.22 Z" />
<path fill="#404040" opacity="1.00" d=" M 493.15 299.04 C 493.59 298.55 494.47 297.57 494.92 297.08 C 496.83 298.82 498.75 300.55 500.69 302.26 C 500.27 302.77 499.44 303.78 499.02 304.29 C 497.05 302.55 495.10 300.79 493.15 299.04 Z" />
<path fill="#404040" opacity="1.00" d=" M 429.34 300.77 C 429.97 300.76 431.21 300.76 431.83 300.76 C 431.84 303.40 431.85 306.03 431.85 308.67 C 431.22 308.67 429.95 308.67 429.32 308.67 C 429.32 306.03 429.33 303.40 429.34 300.77 Z" />
<path fill="#404040" opacity="1.00" d=" M 467.99 307.09 C 470.08 305.24 472.17 303.39 474.35 301.64 C 475.94 305.33 471.55 307.09 469.41 309.23 C 469.06 308.70 468.35 307.63 467.99 307.09 Z" />
<path fill="#404040" opacity="1.00" d=" M 500.97 306.06 C 501.43 305.57 502.35 304.60 502.81 304.12 C 504.75 305.91 506.70 307.69 508.63 309.50 C 507.93 310.05 507.23 310.60 506.53 311.15 C 504.69 309.44 502.82 307.76 500.97 306.06 Z" />
<path fill="#404040" opacity="1.00" d=" M 594.66 307.13 C 595.57 307.24 596.49 307.35 597.42 307.47 C 597.13 309.98 596.85 312.49 596.58 315.01 C 595.97 314.98 594.73 314.93 594.11 314.91 C 594.28 312.31 594.47 309.72 594.66 307.13 Z" />
<path fill="#404040" opacity="1.00" d=" M 460.15 314.27 C 462.09 312.53 464.05 310.80 465.97 309.04 C 466.42 309.52 467.31 310.46 467.76 310.94 C 465.81 312.68 463.87 314.44 461.93 316.20 C 461.33 315.55 460.74 314.91 460.15 314.27 Z" />
<path fill="#404040" opacity="1.00" d=" M 429.29 311.29 C 429.91 311.30 431.16 311.31 431.79 311.32 C 431.76 313.95 431.71 316.58 431.69 319.22 C 431.07 319.22 429.83 319.22 429.20 319.23 C 429.22 316.58 429.25 313.93 429.29 311.29 Z" />
<path fill="#404040" opacity="1.00" d=" M 508.83 313.05 C 509.40 312.40 509.98 311.75 510.56 311.10 C 512.60 312.96 514.63 314.83 516.60 316.77 C 516.00 317.10 514.80 317.74 514.20 318.06 C 512.43 316.37 510.61 314.73 508.83 313.05 Z" />
<path fill="#404040" opacity="1.00" d=" M 363.45 314.12 C 364.13 314.12 365.49 314.14 366.16 314.14 C 366.39 316.66 366.75 319.18 367.00 321.70 C 366.39 321.73 365.17 321.79 364.56 321.82 C 364.19 319.25 363.79 316.69 363.45 314.12 Z" />
<path fill="#404040" opacity="1.00" d=" M 452.15 321.81 C 454.06 319.82 456.09 317.97 458.08 316.06 C 458.55 316.54 459.48 317.49 459.94 317.97 C 458.15 319.65 456.35 321.32 454.57 323.00 C 453.97 322.71 452.76 322.11 452.15 321.81 Z" />
<path fill="#404040" opacity="1.00" d=" M 517.16 320.19 C 517.42 319.42 517.71 318.66 518.03 317.91 C 520.20 319.78 522.29 321.75 524.34 323.75 C 523.77 324.10 522.63 324.79 522.05 325.14 C 520.39 323.52 518.52 322.08 517.16 320.19 Z" />
<path fill="#404040" opacity="1.00" d=" M 592.23 325.13 C 592.71 322.60 593.20 320.08 593.66 317.55 C 594.31 317.62 595.62 317.76 596.27 317.83 C 595.69 320.47 595.35 323.15 594.75 325.79 C 594.12 325.63 592.86 325.30 592.23 325.13 Z" />
<path fill="#404040" opacity="1.00" d=" M 429.23 321.76 C 429.84 321.77 431.08 321.77 431.69 321.77 C 431.66 324.40 431.63 327.03 431.62 329.66 C 431.00 329.67 429.76 329.68 429.14 329.69 C 429.15 327.05 429.18 324.40 429.23 321.76 Z" />
<path fill="#404040" opacity="1.00" d=" M 365.16 324.51 C 365.80 324.43 367.08 324.27 367.73 324.20 C 368.35 326.63 368.88 329.09 369.56 331.52 C 368.90 331.73 367.60 332.14 366.94 332.35 C 366.35 329.73 365.73 327.13 365.16 324.51 Z" />
<path fill="#404040" opacity="1.00" d=" M 444.54 328.48 C 446.35 326.73 448.19 324.99 450.20 323.46 C 450.90 323.95 451.59 324.47 452.27 325.01 C 450.32 326.80 448.37 328.59 446.42 330.38 C 445.79 329.74 445.16 329.11 444.54 328.48 Z" />
<path fill="#404040" opacity="1.00" d=" M 524.37 327.10 C 524.82 326.60 525.73 325.62 526.18 325.12 C 527.96 326.83 530.87 328.51 529.00 331.23 C 527.43 329.87 525.89 328.50 524.37 327.10 Z" />
<path fill="#404040" opacity="1.00" d=" M 591.58 328.03 C 592.20 328.08 593.46 328.18 594.08 328.23 C 593.47 330.79 592.73 333.32 592.10 335.88 C 591.45 335.71 590.15 335.37 589.50 335.21 C 590.19 332.81 590.88 330.42 591.58 328.03 Z" />
<path fill="#404040" opacity="1.00" d=" M 437.76 334.69 C 439.46 333.14 441.16 331.58 442.90 330.06 C 443.29 330.86 443.69 331.67 444.08 332.48 C 442.60 333.79 441.12 335.12 439.65 336.45 C 439.18 336.01 438.23 335.13 437.76 334.69 Z" />
<path fill="#404040" opacity="1.00" d=" M 428.87 332.31 C 429.54 332.31 430.90 332.31 431.57 332.31 C 431.55 335.13 431.57 337.96 431.45 340.78 C 427.37 340.09 429.27 335.19 428.87 332.31 Z" />
<path fill="#404040" opacity="1.00" d=" M 367.68 334.94 C 368.33 334.73 369.63 334.31 370.28 334.10 C 370.84 336.99 374.12 340.70 370.87 342.99 C 369.65 340.37 368.69 337.64 367.68 334.94 Z" />
<path fill="#404040" opacity="1.00" d=" M 588.48 338.04 C 589.15 338.09 590.48 338.20 591.15 338.25 C 590.24 340.82 589.32 343.39 588.34 345.94 C 587.75 345.70 586.58 345.23 585.99 345.00 C 586.77 342.66 587.68 340.37 588.48 338.04 Z" />
<path fill="#404040" opacity="1.00" d=" M 435.30 342.10 C 437.95 342.09 440.61 342.09 443.27 342.08 C 443.26 342.73 443.24 344.01 443.23 344.66 C 440.60 344.65 437.98 344.65 435.35 344.65 C 435.34 344.02 435.31 342.74 435.30 342.10 Z" />
<path fill="#404040" opacity="1.00" d=" M 445.81 342.01 C 448.47 342.07 451.14 342.06 453.82 342.08 C 453.79 342.73 453.74 344.01 453.71 344.66 C 451.09 344.65 448.47 344.65 445.86 344.66 C 445.84 343.99 445.82 342.67 445.81 342.01 Z" />
<path fill="#404040" opacity="1.00" d=" M 456.30 342.10 C 458.95 342.09 461.60 342.08 464.25 342.08 C 464.25 342.93 464.25 343.79 464.26 344.65 C 461.62 344.65 458.99 344.65 456.36 344.65 C 456.34 344.02 456.32 342.74 456.30 342.10 Z" />
<path fill="#404040" opacity="1.00" d=" M 466.83 342.09 C 469.48 342.09 472.13 342.09 474.79 342.10 C 474.78 342.74 474.75 344.02 474.73 344.66 C 472.10 344.65 469.47 344.65 466.85 344.65 C 466.85 344.01 466.83 342.73 466.83 342.09 Z" />
<path fill="#404040" opacity="1.00" d=" M 477.28 342.08 C 479.94 342.06 482.59 342.04 485.25 341.95 C 485.25 342.84 485.26 343.74 485.27 344.64 C 482.64 344.65 480.01 344.65 477.39 344.66 C 477.36 344.02 477.31 342.73 477.28 342.08 Z" />
<path fill="#404040" opacity="1.00" d=" M 487.83 342.09 C 490.48 342.09 493.14 342.09 495.79 342.10 C 495.78 342.74 495.75 344.02 495.74 344.66 C 493.11 344.65 490.48 344.65 487.86 344.65 C 487.85 344.01 487.84 342.73 487.83 342.09 Z" />
<path fill="#404040" opacity="1.00" d=" M 498.29 342.09 C 500.94 342.07 503.60 342.06 506.26 342.01 C 506.26 342.89 506.26 343.76 506.26 344.64 C 503.63 344.65 501.01 344.65 498.38 344.66 C 498.36 344.01 498.31 342.73 498.29 342.09 Z" />
<path fill="#404040" opacity="1.00" d=" M 508.83 342.02 C 511.49 342.06 514.16 342.07 516.82 342.08 C 516.80 342.72 516.75 344.01 516.72 344.66 C 514.10 344.65 511.47 344.65 508.86 344.65 C 508.85 343.99 508.84 342.68 508.83 342.02 Z" />
<path fill="#404040" opacity="1.00" d=" M 519.32 342.10 C 522.11 342.08 524.90 342.08 527.70 342.15 C 527.49 342.72 527.08 343.87 526.87 344.44 C 524.39 344.79 521.87 344.66 519.38 344.68 C 519.36 344.04 519.33 342.74 519.32 342.10 Z" />
<path fill="#404040" opacity="1.00" d=" M 529.75 342.11 C 530.41 342.10 531.71 342.07 532.36 342.06 C 532.38 342.89 532.40 343.72 532.43 344.56 C 531.86 344.61 530.70 344.71 530.12 344.77 C 530.03 344.10 529.84 342.78 529.75 342.11 Z" />
<path fill="#404040" opacity="1.00" d=" M 428.91 342.32 C 429.64 342.64 431.10 343.27 431.83 343.59 C 431.14 344.45 430.39 345.25 429.66 346.06 C 429.47 345.13 429.09 343.26 428.91 342.32 Z" />
<path fill="#404040" opacity="1.00" d=" M 371.36 344.81 C 372.00 344.62 373.29 344.23 373.93 344.04 C 374.93 346.39 375.99 348.72 377.01 351.07 C 376.19 351.38 375.37 351.69 374.56 352.00 C 373.49 349.61 372.43 347.21 371.36 344.81 Z" />
<path fill="#404040" opacity="1.00" d=" M 581.40 354.24 C 582.61 351.79 583.83 349.35 585.04 346.91 C 585.48 347.32 586.36 348.13 586.80 348.54 C 586.20 350.99 584.89 353.18 583.84 355.45 C 583.23 355.15 582.01 354.54 581.40 354.24 Z" />
<path fill="#404040" opacity="1.00" d=" M 376.35 354.66 C 376.74 354.23 377.53 353.36 377.92 352.93 C 379.34 355.29 380.78 357.65 382.18 360.02 C 381.61 360.36 380.47 361.02 379.91 361.36 C 378.62 359.18 377.04 357.11 376.35 354.66 Z" />
<path fill="#404040" opacity="1.00" d=" M 576.44 362.96 C 577.39 360.46 579.00 358.28 580.44 356.05 C 583.70 358.90 579.13 362.22 577.93 364.99 C 577.56 364.48 576.81 363.47 576.44 362.96 Z" />
<path fill="#404040" opacity="1.00" d=" M 381.24 363.78 C 381.76 363.38 382.80 362.58 383.32 362.18 C 384.81 364.17 386.29 366.17 387.59 368.30 C 387.07 368.98 386.53 369.64 385.97 370.29 C 384.37 368.13 382.79 365.96 381.24 363.78 Z" />
<path fill="#404040" opacity="1.00" d=" M 569.90 371.85 C 571.48 369.60 573.05 367.35 574.73 365.18 C 575.24 365.60 576.25 366.45 576.76 366.87 C 575.17 368.90 573.65 370.98 572.09 373.03 C 571.55 372.73 570.45 372.14 569.90 371.85 Z" />
<path fill="#404040" opacity="1.00" d=" M 387.41 372.38 C 388.09 371.82 388.79 371.27 389.49 370.72 C 391.13 372.78 392.87 374.77 394.56 376.79 C 394.03 377.19 392.96 377.97 392.43 378.37 C 390.75 376.37 389.06 374.39 387.41 372.38 Z" />
<path fill="#404040" opacity="1.00" d=" M 563.08 379.65 C 564.79 377.60 566.53 375.58 568.28 373.57 C 568.81 373.99 569.86 374.83 570.38 375.24 C 568.64 377.19 566.87 379.11 565.12 381.05 C 564.61 380.70 563.59 380.00 563.08 379.65 Z" />
<path fill="#404040" opacity="1.00" d=" M 394.14 380.07 C 394.75 379.78 395.98 379.20 396.59 378.92 C 398.39 380.77 400.21 382.60 402.00 384.47 C 401.45 384.74 400.35 385.29 399.79 385.57 C 397.58 384.11 395.91 382.00 394.14 380.07 Z" />
<path fill="#404040" opacity="1.00" d=" M 555.42 386.87 C 557.35 384.94 559.37 383.10 561.35 381.22 C 561.92 381.91 562.49 382.61 563.08 383.32 C 561.29 384.93 559.50 386.53 557.75 388.18 C 557.16 387.85 556.00 387.20 555.42 386.87 Z" />
<path fill="#404040" opacity="1.00" d=" M 401.83 387.53 C 402.35 387.14 403.37 386.36 403.88 385.97 C 405.79 387.65 407.73 389.31 409.70 390.92 C 409.27 391.42 408.41 392.42 407.98 392.91 C 405.87 391.18 403.83 389.38 401.83 387.53 Z" />
<path fill="#404040" opacity="1.00" d=" M 547.47 393.01 C 549.66 391.42 551.80 389.76 554.02 388.21 C 554.29 388.82 554.84 390.04 555.12 390.65 C 553.07 392.10 551.07 393.61 549.04 395.08 C 548.65 394.56 547.86 393.52 547.47 393.01 Z" />
<path fill="#404040" opacity="1.00" d=" M 410.11 394.35 C 410.54 393.86 411.39 392.88 411.82 392.39 C 413.84 393.85 415.86 395.32 417.93 396.73 C 417.59 397.52 417.24 398.32 416.91 399.13 C 414.58 397.62 412.32 396.02 410.11 394.35 Z" />
<path fill="#404040" opacity="1.00" d=" M 539.20 398.93 C 540.82 396.86 543.57 395.98 545.79 394.65 C 546.06 395.21 546.59 396.32 546.85 396.88 C 544.55 398.34 542.29 399.97 539.64 400.73 C 539.53 400.28 539.31 399.38 539.20 398.93 Z" />
<path fill="#404040" opacity="1.00" d=" M 419.18 400.53 C 419.39 399.91 419.81 398.68 420.02 398.07 C 422.36 399.34 424.65 400.69 426.98 402.00 C 426.72 402.61 426.21 403.84 425.95 404.45 C 423.67 403.17 421.44 401.81 419.18 400.53 Z" />
<path fill="#404040" opacity="1.00" d=" M 529.95 403.57 C 532.24 402.46 534.46 401.21 536.76 400.11 C 537.13 400.87 537.50 401.63 537.88 402.40 C 535.55 403.65 533.20 404.88 530.85 406.09 C 530.54 405.25 530.24 404.41 529.95 403.57 Z" />
<path fill="#404040" opacity="1.00" d=" M 427.72 405.13 C 430.32 401.98 433.77 405.68 436.62 406.62 C 436.29 407.19 435.64 408.33 435.31 408.90 C 432.76 407.67 430.19 406.51 427.72 405.13 Z" />
<path fill="#404040" opacity="1.00" d=" M 519.76 407.98 C 522.40 406.85 525.10 405.84 527.80 404.86 C 527.81 405.55 527.84 406.94 527.85 407.64 C 525.20 408.17 521.53 411.53 519.76 407.98 Z" />
<path fill="#404040" opacity="1.00" d=" M 438.77 407.40 C 441.22 408.19 443.65 409.07 446.10 409.87 C 445.95 410.53 445.63 411.84 445.47 412.50 C 443.03 411.66 440.60 410.81 438.15 410.00 C 438.31 409.35 438.62 408.05 438.77 407.40 Z" />
<path fill="#404040" opacity="1.00" d=" M 510.35 410.97 C 512.77 410.22 515.19 409.45 517.60 408.65 C 517.87 409.27 518.40 410.52 518.67 411.14 C 516.11 411.93 513.55 412.72 510.99 413.49 C 510.83 412.86 510.51 411.60 510.35 410.97 Z" />
<path fill="#404040" opacity="1.00" d=" M 448.71 410.68 C 451.45 411.42 454.24 411.99 456.97 412.82 C 455.21 416.52 451.02 413.50 448.13 413.28 C 448.27 412.63 448.56 411.33 448.71 410.68 Z" />
<path fill="#404040" opacity="1.00" d=" M 500.03 415.73 C 499.97 411.73 504.86 412.44 507.61 411.84 C 507.90 412.40 508.50 413.52 508.80 414.08 C 505.89 414.72 502.98 415.35 500.03 415.73 Z" />
<path fill="#404040" opacity="1.00" d=" M 458.85 413.06 C 461.32 413.42 463.84 413.66 466.26 414.36 C 466.33 414.98 466.48 416.22 466.55 416.84 C 463.81 416.43 461.07 416.00 458.34 415.51 C 458.47 414.90 458.72 413.68 458.85 413.06 Z" />
<path fill="#404040" opacity="1.00" d=" M 490.05 414.55 C 492.53 414.25 495.01 413.91 497.50 413.57 C 497.62 414.24 497.86 415.59 497.98 416.27 C 495.37 416.54 492.75 416.80 490.14 416.98 C 490.12 416.37 490.07 415.16 490.05 414.55 Z" />
<path fill="#404040" opacity="1.00" d=" M 469.10 414.47 C 471.67 414.63 474.23 414.79 476.81 414.92 C 476.81 415.58 476.80 416.89 476.80 417.54 C 474.26 417.43 471.72 417.30 469.19 417.19 C 469.17 416.51 469.13 415.15 469.10 414.47 Z" />
<path fill="#404040" opacity="1.00" d=" M 479.49 414.86 C 482.09 414.84 484.70 414.82 487.31 414.79 C 487.34 415.45 487.39 416.76 487.42 417.42 C 484.77 417.47 482.13 417.49 479.49 417.52 C 479.49 416.85 479.49 415.52 479.49 414.86 Z" />
</g>
</g>
<g class="sprite" id="night">
<g id="#191919ff">
<path fill="#191919" opacity="1.00" d=" M 0.00 0.00 L 960.00 0.00 L 960.00 600.00 L 0.00 600.00 L 0.00 0.00 M 469.89 182.94 C 470.03 183.57 470.33 184.83 470.47 185.46 C 472.97 185.56 475.47 185.36 477.98 185.24 C 477.95 184.58 477.90 183.24 477.87 182.58 C 475.21 182.70 472.55 182.81 469.89 182.94 M 480.71 182.58 C 480.70 183.24 480.68 184.57 480.67 185.23 C 483.29 185.30 485.91 185.39 488.54 185.51 C 488.53 184.84 488.50 183.49 488.48 182.82 C 485.89 182.74 483.30 182.65 480.71 182.58 M 491.25 183.14 C 491.21 183.78 491.12 185.08 491.07 185.72 C 493.85 186.11 496.64 186.43 499.44 186.63 C 499.04 182.43 494.10 183.92 491.25 183.14 M 459.52 184.45 C 459.61 185.05 459.79 186.25 459.88 186.84 C 462.42 186.57 464.98 186.30 467.53 186.06 C 467.52 185.36 467.49 183.98 467.48 183.29 C 464.82 183.65 462.17 184.04 459.52 184.45 M 449.12 186.65 C 449.36 187.50 449.61 188.37 449.86 189.23 C 452.37 188.60 454.91 188.06 457.43 187.45 C 457.32 186.83 457.10 185.59 457.00 184.96 C 454.36 185.46 451.74 186.09 449.12 186.65 M 501.80 184.49 C 501.68 185.18 501.43 186.54 501.31 187.23 C 504.24 187.44 508.23 190.20 510.18 186.73 C 507.42 185.84 504.60 185.19 501.80 184.49 M 512.01 187.03 C 511.85 187.64 511.51 188.86 511.34 189.46 C 514.21 189.89 518.20 193.46 520.19 189.76 C 517.50 188.74 514.77 187.83 512.01 187.03 M 439.05 189.95 C 439.27 190.56 439.72 191.79 439.94 192.40 C 442.39 191.58 444.83 190.75 447.29 189.96 C 447.08 189.32 446.66 188.05 446.45 187.42 C 443.98 188.27 441.51 189.09 439.05 189.95 M 429.34 194.01 C 429.62 194.64 430.17 195.89 430.45 196.52 C 432.97 195.36 435.50 194.24 438.00 193.04 C 435.88 189.37 432.12 193.39 429.34 194.01 M 521.67 190.22 C 521.67 190.86 521.67 192.14 521.68 192.78 C 524.18 193.89 527.85 197.30 530.01 193.89 C 527.31 192.49 524.50 191.32 521.67 190.22 M 530.83 196.94 C 533.03 198.22 535.30 199.38 537.48 200.72 C 537.96 199.97 538.44 199.22 538.93 198.48 C 536.60 197.13 534.24 195.87 531.90 194.56 C 531.63 195.16 531.10 196.34 530.83 196.94 M 419.88 199.41 C 420.25 199.92 420.99 200.95 421.36 201.47 C 423.52 200.21 425.68 198.96 427.87 197.75 C 427.67 197.12 427.25 195.86 427.04 195.23 C 424.60 196.54 422.23 197.95 419.88 199.41 M 540.97 199.73 C 540.65 200.58 540.34 201.43 540.04 202.29 C 542.11 203.56 544.18 204.84 546.23 206.15 C 546.66 205.72 547.53 204.85 547.96 204.42 C 545.72 202.73 543.35 201.21 540.97 199.73 M 410.68 205.39 C 411.25 205.72 412.39 206.39 412.96 206.72 C 415.07 205.64 417.00 204.23 418.97 202.92 C 418.68 202.33 418.10 201.16 417.81 200.57 C 415.37 202.08 413.00 203.71 410.68 205.39 M 547.98 207.45 C 550.23 209.30 552.55 211.06 554.92 212.76 C 555.19 212.16 555.73 210.95 556.01 210.35 C 553.51 208.89 550.98 204.73 547.98 207.45 M 402.94 211.47 C 403.40 212.20 403.86 212.94 404.33 213.67 C 406.55 211.94 408.76 210.18 410.90 208.34 C 407.86 205.66 405.36 209.94 402.94 211.47 M 555.99 213.70 C 558.02 215.96 560.26 218.01 562.53 220.03 C 562.91 219.24 563.26 218.44 563.58 217.63 C 561.61 215.51 559.31 212.14 555.99 213.70 M 395.06 218.97 C 395.54 219.43 396.49 220.35 396.97 220.81 C 398.82 218.94 400.76 217.17 402.64 215.32 C 402.18 214.87 401.25 213.97 400.78 213.51 C 398.85 215.31 396.94 217.12 395.06 218.97 M 563.81 221.43 C 565.53 223.44 567.25 225.44 569.02 227.40 C 569.55 227.02 570.61 226.28 571.14 225.91 C 569.43 223.91 567.66 221.96 565.92 219.99 C 565.40 220.35 564.34 221.07 563.81 221.43 M 393.22 221.03 C 391.52 223.02 389.81 225.00 388.12 226.98 C 388.61 227.41 389.61 228.25 390.11 228.67 C 391.76 226.69 393.49 224.77 395.19 222.83 C 394.53 222.23 393.87 221.63 393.22 221.03 M 570.57 229.18 C 572.08 231.50 573.74 233.73 575.45 235.92 C 575.92 235.48 576.87 234.60 577.35 234.16 C 575.83 232.15 574.31 230.15 572.83 228.13 C 572.26 228.39 571.13 228.92 570.57 229.18 M 381.81 235.80 C 382.38 236.08 383.52 236.65 384.09 236.93 C 385.60 234.87 387.13 232.82 388.68 230.78 C 388.16 230.37 387.12 229.55 386.60 229.15 C 384.94 231.32 383.36 233.55 381.81 235.80 M 576.61 237.99 C 578.07 240.38 579.49 242.79 581.03 245.14 C 581.40 244.64 582.14 243.64 582.52 243.14 C 581.63 240.80 580.14 238.75 578.89 236.61 C 578.32 236.95 577.18 237.64 576.61 237.99 M 380.36 238.09 C 379.03 240.33 377.69 242.56 376.38 244.81 C 377.17 245.15 377.97 245.51 378.77 245.86 C 380.14 243.59 381.50 241.32 382.82 239.02 C 382.21 238.79 380.98 238.32 380.36 238.09 M 581.93 246.81 C 582.99 249.15 584.16 251.44 585.20 253.80 C 585.83 253.62 587.08 253.25 587.71 253.06 C 586.65 250.71 585.60 248.36 584.51 246.02 C 583.64 246.28 582.78 246.54 581.93 246.81 M 371.85 254.67 C 372.53 254.72 373.87 254.81 374.54 254.85 C 375.49 252.65 376.47 250.44 377.48 248.26 C 376.96 247.94 375.93 247.30 375.42 246.98 C 374.05 249.46 372.88 252.03 371.85 254.67 M 440.13 247.92 C 439.73 248.42 438.93 249.42 438.52 249.93 C 440.52 251.73 442.56 253.47 444.61 255.21 C 444.96 254.67 445.66 253.58 446.01 253.03 C 444.05 251.32 442.10 249.61 440.13 247.92 M 429.81 248.37 C 429.78 250.97 429.74 253.58 429.72 256.20 C 430.39 256.20 431.73 256.21 432.40 256.22 C 432.44 253.57 432.48 250.92 432.53 248.28 C 431.85 248.30 430.49 248.35 429.81 248.37 M 522.26 257.86 C 522.72 258.34 523.62 259.28 524.08 259.76 C 526.02 257.98 527.97 256.22 529.91 254.45 C 529.31 253.81 528.72 253.17 528.13 252.54 C 526.17 254.32 524.20 256.08 522.26 257.86 M 446.28 256.92 C 448.24 258.63 450.16 260.39 452.11 262.12 C 452.56 261.63 453.46 260.65 453.91 260.16 C 451.93 258.43 449.97 256.70 448.00 254.97 C 447.57 255.46 446.71 256.43 446.28 256.92 M 586.25 256.45 C 587.76 258.95 587.59 263.99 591.61 263.50 C 590.78 260.75 589.76 258.07 588.81 255.37 C 588.17 255.64 586.89 256.18 586.25 256.45 M 370.64 257.09 C 369.81 259.51 368.92 261.90 368.13 264.33 C 368.78 264.48 370.08 264.77 370.73 264.92 C 371.57 262.41 372.34 259.88 373.12 257.35 C 372.50 257.29 371.26 257.16 370.64 257.09 M 429.76 258.78 C 429.71 261.39 429.67 263.99 429.63 266.61 C 430.30 266.62 431.65 266.65 432.32 266.66 C 432.35 264.02 432.40 261.39 432.43 258.76 C 431.76 258.76 430.43 258.77 429.76 258.78 M 514.57 264.92 C 514.99 265.39 515.84 266.34 516.26 266.81 C 518.25 265.02 520.21 263.20 522.17 261.37 C 521.70 260.93 520.78 260.06 520.32 259.62 C 518.41 261.40 516.48 263.15 514.57 264.92 M 454.07 263.96 C 456.04 265.70 458.03 267.42 460.01 269.15 C 460.43 268.67 461.27 267.71 461.69 267.23 C 459.75 265.51 457.86 263.75 455.95 262.02 C 455.48 262.50 454.54 263.48 454.07 263.96 M 591.84 273.63 C 592.49 273.48 593.79 273.18 594.43 273.03 C 593.72 270.31 592.96 267.60 592.13 264.92 C 588.38 266.58 591.63 270.76 591.84 273.63 M 367.21 267.10 C 366.57 269.56 365.97 272.03 365.36 274.50 C 366.03 274.60 367.36 274.82 368.03 274.93 C 368.54 272.38 369.26 269.88 369.84 267.36 C 369.18 267.29 367.87 267.16 367.21 267.10 M 506.78 271.96 C 507.37 272.61 507.95 273.25 508.55 273.90 C 510.49 272.11 512.46 270.35 514.40 268.56 C 513.96 268.07 513.07 267.10 512.62 266.61 C 510.67 268.39 508.72 270.18 506.78 271.96 M 429.59 269.31 C 429.59 271.95 429.59 274.59 429.60 277.23 C 430.26 277.22 431.59 277.21 432.25 277.20 C 432.25 274.57 432.25 271.95 432.25 269.32 C 431.59 269.32 430.26 269.32 429.59 269.31 M 461.90 270.97 C 464.31 272.60 466.58 277.25 469.83 274.72 C 467.87 272.78 465.84 270.90 463.82 269.04 C 463.34 269.52 462.38 270.48 461.90 270.97 M 504.48 273.96 C 502.65 275.65 500.80 277.32 498.98 279.01 C 499.45 279.50 500.40 280.49 500.87 280.98 C 502.86 279.09 504.85 277.20 506.76 275.22 C 506.19 274.90 505.05 274.27 504.48 273.96 M 469.71 277.98 C 471.71 279.77 473.74 281.54 475.79 283.28 C 476.14 282.74 476.85 281.67 477.20 281.13 C 475.30 279.45 473.44 277.73 471.55 276.04 C 470.93 276.69 470.32 277.33 469.71 277.98 M 592.47 275.92 C 592.87 278.53 593.37 281.14 593.77 283.76 C 594.64 283.67 595.51 283.59 596.39 283.51 C 595.93 280.91 595.50 278.32 595.09 275.72 C 594.44 275.77 593.13 275.87 592.47 275.92 M 363.56 285.11 C 364.20 285.16 365.49 285.25 366.13 285.30 C 366.51 282.73 366.95 280.17 367.40 277.61 C 366.74 277.50 365.43 277.27 364.77 277.16 C 364.40 279.81 363.93 282.45 363.56 285.11 M 429.41 287.61 C 430.07 287.64 431.38 287.70 432.03 287.73 C 432.11 285.08 432.15 282.43 432.22 279.78 C 431.56 279.77 430.22 279.76 429.56 279.75 C 429.51 282.37 429.45 284.99 429.41 287.61 M 491.19 286.01 C 491.63 286.50 492.52 287.49 492.97 287.99 C 494.90 286.26 496.83 284.54 498.78 282.83 C 498.36 282.32 497.52 281.29 497.09 280.78 C 495.12 282.52 493.16 284.28 491.19 286.01 M 477.56 285.01 C 479.49 286.78 481.34 288.71 483.65 290.00 C 484.00 289.66 484.70 289.00 485.05 288.66 C 483.44 286.47 481.24 284.80 479.19 283.05 C 478.78 283.54 477.97 284.52 477.56 285.01 M 594.16 286.40 C 594.37 288.99 594.59 291.59 594.81 294.19 C 595.47 294.17 596.79 294.12 597.45 294.09 C 597.23 291.42 596.95 288.75 596.68 286.09 C 596.05 286.17 594.79 286.32 594.16 286.40 M 363.27 287.57 C 363.04 290.21 362.78 292.85 362.57 295.50 C 363.24 295.51 364.59 295.53 365.26 295.55 C 365.44 292.95 365.62 290.37 365.79 287.78 C 365.16 287.73 363.90 287.62 363.27 287.57 M 483.45 293.14 C 483.86 293.61 484.69 294.56 485.10 295.03 C 485.57 294.64 486.52 293.86 487.00 293.47 C 488.38 294.73 489.78 295.99 491.17 297.26 C 491.61 296.73 492.47 295.67 492.90 295.15 C 491.69 294.12 490.48 293.11 489.28 292.10 C 489.85 290.67 491.68 288.66 489.19 288.10 C 487.11 289.58 485.32 291.42 483.45 293.14 M 429.46 290.28 C 429.42 293.09 429.39 295.89 429.45 298.70 C 433.59 298.23 431.60 293.15 432.21 290.34 C 431.53 290.33 430.15 290.30 429.46 290.28 M 475.57 300.22 C 476.24 300.83 476.92 301.45 477.61 302.07 C 479.44 300.37 481.27 298.67 483.11 296.99 C 482.78 296.45 482.13 295.38 481.80 294.84 C 479.70 296.61 477.60 298.38 475.57 300.22 M 594.85 296.74 C 594.84 299.36 594.82 301.97 594.81 304.60 C 595.47 304.60 596.80 304.59 597.46 304.59 C 597.48 301.96 597.49 299.34 597.50 296.72 C 596.84 296.72 595.52 296.74 594.85 296.74 M 362.54 298.22 C 362.53 302.66 362.68 307.10 363.12 311.52 C 363.77 311.45 365.07 311.32 365.72 311.25 C 365.37 306.91 365.19 302.57 365.16 298.22 C 364.50 298.22 363.19 298.22 362.54 298.22 M 493.15 299.04 C 495.10 300.79 497.05 302.55 499.02 304.29 C 499.44 303.78 500.27 302.77 500.69 302.26 C 498.75 300.55 496.83 298.82 494.92 297.08 C 494.47 297.57 493.59 298.55 493.15 299.04 M 429.34 300.77 C 429.33 303.40 429.32 306.03 429.32 308.67 C 429.95 308.67 431.22 308.67 431.85 308.67 C 431.85 306.03 431.84 303.40 431.83 300.76 C 431.21 300.76 429.97 300.76 429.34 300.77 M 467.99 307.09 C 468.35 307.63 469.06 308.70 469.41 309.23 C 471.55 307.09 475.94 305.33 474.35 301.64 C 472.17 303.39 470.08 305.24 467.99 307.09 M 500.97 306.06 C 502.82 307.76 504.69 309.44 506.53 311.15 C 507.23 310.60 507.93 310.05 508.63 309.50 C 506.70 307.69 504.75 305.91 502.81 304.12 C 502.35 304.60 501.43 305.57 500.97 306.06 M 594.66 307.13 C 594.47 309.72 594.28 312.31 594.11 314.91 C 594.73 314.93 595.97 314.98 596.58 315.01 C 596.85 312.49 597.13 309.98 597.42 307.47 C 596.49 307.35 595.57 307.24 594.66 307.13 M 460.15 314.27 C 460.74 314.91 461.33 315.55 461.93 316.20 C 463.87 314.44 465.81 312.68 467.76 310.94 C 467.31 310.46 466.42 309.52 465.97 309.04 C 464.05 310.80 462.09 312.53 460.15 314.27 M 429.29 311.29 C 429.25 313.93 429.22 316.58 429.20 319.23 C 429.83 319.22 431.07 319.22 431.69 319.22 C 431.71 316.58 431.76 313.95 431.79 311.32 C 431.16 311.31 429.91 311.30 429.29 311.29 M 508.83 313.05 C 510.61 314.73 512.43 316.37 514.20 318.06 C 514.80 317.74 516.00 317.10 516.60 316.77 C 514.63 314.83 512.60 312.96 510.56 311.10 C 509.98 311.75 509.40 312.40 508.83 313.05 M 363.45 314.12 C 363.79 316.69 364.19 319.25 364.56 321.82 C 365.17 321.79 366.39 321.73 367.00 321.70 C 366.75 319.18 366.39 316.66 366.16 314.14 C 365.49 314.14 364.13 314.12 363.45 314.12 M 452.15 321.81 C 452.76 322.11 453.97 322.71 454.57 323.00 C 456.35 321.32 458.15 319.65 459.94 317.97 C 459.48 317.49 458.55 316.54 458.08 316.06 C 456.09 317.97 454.06 319.82 452.15 321.81 M 517.16 320.19 C 518.52 322.08 520.39 323.52 522.05 325.14 C 522.63 324.79 523.77 324.10 524.34 323.75 C 522.29 321.75 520.20 319.78 518.03 317.91 C 517.71 318.66 517.42 319.42 517.16 320.19 M 592.23 325.13 C 592.86 325.30 594.12 325.63 594.75 325.79 C 595.35 323.15 595.69 320.47 596.27 317.83 C 595.62 317.76 594.31 317.62 593.66 317.55 C 593.20 320.08 592.71 322.60 592.23 325.13 M 429.23 321.76 C 429.18 324.40 429.15 327.05 429.14 329.69 C 429.76 329.68 431.00 329.67 431.62 329.66 C 431.63 327.03 431.66 324.40 431.69 321.77 C 431.08 321.77 429.84 321.77 429.23 321.76 M 365.16 324.51 C 365.73 327.13 366.35 329.73 366.94 332.35 C 367.60 332.14 368.90 331.73 369.56 331.52 C 368.88 329.09 368.35 326.63 367.73 324.20 C 367.08 324.27 365.80 324.43 365.16 324.51 M 444.54 328.48 C 445.16 329.11 445.79 329.74 446.42 330.38 C 448.37 328.59 450.32 326.80 452.27 325.01 C 451.59 324.47 450.90 323.95 450.20 323.46 C 448.19 324.99 446.35 326.73 444.54 328.48 M 524.37 327.10 C 525.89 328.50 527.43 329.87 529.00 331.23 C 530.87 328.51 527.96 326.83 526.18 325.12 C 525.73 325.62 524.82 326.60 524.37 327.10 M 591.58 328.03 C 590.88 330.42 590.19 332.81 589.50 335.21 C 590.15 335.37 591.45 335.71 592.10 335.88 C 592.73 333.32 593.47 330.79 594.08 328.23 C 593.46 328.18 592.20 328.08 591.58 328.03 M 437.76 334.69 C 438.23 335.13 439.18 336.01 439.65 336.45 C 441.12 335.12 442.60 333.79 444.08 332.48 C 443.69 331.67 443.29 330.86 442.90 330.06 C 441.16 331.58 439.46 333.14 437.76 334.69 M 428.87 332.31 C 429.27 335.19 427.37 340.09 431.45 340.78 C 431.57 337.96 431.55 335.13 431.57 332.31 C 430.90 332.31 429.54 332.31 428.87 332.31 M 367.68 334.94 C 368.69 337.64 369.65 340.37 370.87 342.99 C 374.12 340.70 370.84 336.99 370.28 334.10 C 369.63 334.31 368.33 334.73 367.68 334.94 M 588.48 338.04 C 587.68 340.37 586.77 342.66 585.99 345.00 C 586.58 345.23 587.75 345.70 588.34 345.94 C 589.32 343.39 590.24 340.82 591.15 338.25 C 590.48 338.20 589.15 338.09 588.48 338.04 M 435.30 342.10 C 435.31 342.74 435.34 344.02 435.35 344.65 C 437.98 344.65 440.60 344.65 443.23 344.66 C 443.24 344.01 443.26 342.73 443.27 342.08 C 440.61 342.09 437.95 342.09 435.30 342.10 M 445.81 342.01 C 445.82 342.67 445.84 343.99 445.86 344.66 C 448.47 344.65 451.09 344.65 453.71 344.66 C 453.74 344.01 453.79 342.73 453.82 342.08 C 451.14 342.06 448.47 342.07 445.81 342.01 M 456.30 342.10 C 456.32 342.74 456.34 344.02 456.36 344.65 C 458.99 344.65 461.62 344.65 464.26 344.65 C 464.25 343.79 464.25 342.93 464.25 342.08 C 461.60 342.08 458.95 342.09 456.30 342.10 M 466.83 342.09 C 466.83 342.73 466.85 344.01 466.85 344.65 C 469.47 344.65 472.10 344.65 474.73 344.66 C 474.75 344.02 474.78 342.74 474.79 342.10 C 472.13 342.09 469.48 342.09 466.83 342.09 M 477.28 342.08 C 477.31 342.73 477.36 344.02 477.39 344.66 C 480.01 344.65 482.64 344.65 485.27 344.64 C 485.26 343.74 485.25 342.84 485.25 341.95 C 482.59 342.04 479.94 342.06 477.28 342.08 M 487.83 342.09 C 487.84 342.73 487.85 344.01 487.86 344.65 C 490.48 344.65 493.11 344.65 495.74 344.66 C 495.75 344.02 495.78 342.74 495.79 342.10 C 493.14 342.09 490.48 342.09 487.83 342.09 M 498.29 342.09 C 498.31 342.73 498.36 344.01 498.38 344.66 C 501.01 344.65 503.63 344.65 506.26 344.64 C 506.26 343.76 506.26 342.89 506.26 342.01 C 503.60 342.06 500.94 342.07 498.29 342.09 M 508.83 342.02 C 508.84 342.68 508.85 343.99 508.86 344.65 C 511.47 344.65 514.10 344.65 516.72 344.66 C 516.75 344.01 516.80 342.72 516.82 342.08 C 514.16 342.07 511.49 342.06 508.83 342.02 M 519.32 342.10 C 519.33 342.74 519.36 344.04 519.38 344.68 C 521.87 344.66 524.39 344.79 526.87 344.44 C 527.08 343.87 527.49 342.72 527.70 342.15 C 524.90 342.08 522.11 342.08 519.32 342.10 M 529.75 342.11 C 529.84 342.78 530.03 344.10 530.12 344.77 C 530.70 344.71 531.86 344.61 532.43 344.56 C 532.40 343.72 532.38 342.89 532.36 342.06 C 531.71 342.07 530.41 342.10 529.75 342.11 M 428.91 342.32 C 429.09 343.26 429.47 345.13 429.66 346.06 C 430.39 345.25 431.14 344.45 431.83 343.59 C 431.10 343.27 429.64 342.64 428.91 342.32 M 371.36 344.81 C 372.43 347.21 373.49 349.61 374.56 352.00 C 375.37 351.69 376.19 351.38 377.01 351.07 C 375.99 348.72 374.93 346.39 373.93 344.04 C 373.29 344.23 372.00 344.62 371.36 344.81 M 581.40 354.24 C 582.01 354.54 583.23 355.15 583.84 355.45 C 584.89 353.18 586.20 350.99 586.80 348.54 C 586.36 348.13 585.48 347.32 585.04 346.91 C 583.83 349.35 582.61 351.79 581.40 354.24 M 376.35 354.66 C 377.04 357.11 378.62 359.18 379.91 361.36 C 380.47 361.02 381.61 360.36 382.18 360.02 C 380.78 357.65 379.34 355.29 377.92 352.93 C 377.53 353.36 376.74 354.23 376.35 354.66 M 576.44 362.96 C 576.81 363.47 577.56 364.48 577.93 364.99 C 579.13 362.22 583.70 358.90 580.44 356.05 C 579.00 358.28 577.39 360.46 576.44 362.96 M 381.24 363.78 C 382.79 365.96 384.37 368.13 385.97 370.29 C 386.53 369.64 387.07 368.98 387.59 368.30 C 386.29 366.17 384.81 364.17 383.32 362.18 C 382.80 362.58 381.76 363.38 381.24 363.78 M 569.90 371.85 C 570.45 372.14 571.55 372.73 572.09 373.03 C 573.65 370.98 575.17 368.90 576.76 366.87 C 576.25 366.45 575.24 365.60 574.73 365.18 C 573.05 367.35 571.48 369.60 569.90 371.85 M 387.41 372.38 C 389.06 374.39 390.75 376.37 392.43 378.37 C 392.96 377.97 394.03 377.19 394.56 376.79 C 392.87 374.77 391.13 372.78 389.49 370.72 C 388.79 371.27 388.09 371.82 387.41 372.38 M 563.08 379.65 C 563.59 380.00 564.61 380.70 565.12 381.05 C 566.87 379.11 568.64 377.19 570.38 375.24 C 569.86 374.83 568.81 373.99 568.28 373.57 C 566.53 375.58 564.79 377.60 563.08 379.65 M 394.14 380.07 C 395.91 382.00 397.58 384.11 399.79 385.57 C 400.35 385.29 401.45 384.74 402.00 384.47 C 400.21 382.60 398.39 380.77 396.59 378.92 C 395.98 379.20 394.75 379.78 394.14 380.07 M 555.42 386.87 C 556.00 387.20 557.16 387.85 557.75 388.18 C 559.50 386.53 561.29 384.93 563.08 383.32 C 562.49 382.61 561.92 381.91 561.35 381.22 C 559.37 383.10 557.35 384.94 555.42 386.87 M 401.83 387.53 C 403.83 389.38 405.87 391.18 407.98 392.91 C 408.41 392.42 409.27 391.42 409.70 390.92 C 407.73 389.31 405.79 387.65 403.88 385.97 C 403.37 386.36 402.35 387.14 401.83 387.53 M 547.47 393.01 C 547.86 393.52 548.65 394.56 549.04 395.08 C 551.07 393.61 553.07 392.10 555.12 390.65 C 554.84 390.04 554.29 388.82 554.02 388.21 C 551.80 389.76 549.66 391.42 547.47 393.01 M 410.11 394.35 C 412.32 396.02 414.58 397.62 416.91 399.13 C 417.24 398.32 417.59 397.52 417.93 396.73 C 415.86 395.32 413.84 393.85 411.82 392.39 C 411.39 392.88 410.54 393.86 410.11 394.35 M 539.20 398.93 C 539.31 399.38 539.53 400.28 539.64 400.73 C 542.29 399.97 544.55 398.34 546.85 396.88 C 546.59 396.32 546.06 395.21 545.79 394.65 C 543.57 395.98 540.82 396.86 539.20 398.93 M 419.18 400.53 C 421.44 401.81 423.67 403.17 425.95 404.45 C 426.21 403.84 426.72 402.61 426.98 402.00 C 424.65 400.69 422.36 399.34 420.02 398.07 C 419.81 398.68 419.39 399.91 419.18 400.53 M 529.95 403.57 C 530.24 404.41 530.54 405.25 530.85 406.09 C 533.20 404.88 535.55 403.65 537.88 402.40 C 537.50 401.63 537.13 400.87 536.76 400.11 C 534.46 401.21 532.24 402.46 529.95 403.57 M 427.72 405.13 C 430.19 406.51 432.76 407.67 435.31 408.90 C 435.64 408.33 436.29 407.19 436.62 406.62 C 433.77 405.68 430.32 401.98 427.72 405.13 M 519.76 407.98 C 521.53 411.53 525.20 408.17 527.85 407.64 C 527.84 406.94 527.81 405.55 527.80 404.86 C 525.10 405.84 522.40 406.85 519.76 407.98 M 438.77 407.40 C 438.62 408.05 438.31 409.35 438.15 410.00 C 440.60 410.81 443.03 411.66 445.47 412.50 C 445.63 411.84 445.95 410.53 446.10 409.87 C 443.65 409.07 441.22 408.19 438.77 407.40 M 510.35 410.97 C 510.51 411.60 510.83 412.86 510.99 413.49 C 513.55 412.72 516.11 411.93 518.67 411.14 C 518.40 410.52 517.87 409.27 517.60 408.65 C 515.19 409.45 512.77 410.22 510.35 410.97 M 448.71 410.68 C 448.56 411.33 448.27 412.63 448.13 413.28 C 451.02 413.50 455.21 416.52 456.97 412.82 C 454.24 411.99 451.45 411.42 448.71 410.68 M 500.03 415.73 C 502.98 415.35 505.89 414.72 508.80 414.08 C 508.50 413.52 507.90 412.40 507.61 411.84 C 504.86 412.44 499.97 411.73 500.03 415.73 M 458.85 413.06 C 458.72 413.68 458.47 414.90 458.34 415.51 C 461.07 416.00 463.81 416.43 466.55 416.84 C 466.48 416.22 466.33 414.98 466.26 414.36 C 463.84 413.66 461.32 413.42 458.85 413.06 M 490.05 414.55 C 490.07 415.16 490.12 416.37 490.14 416.98 C 492.75 416.80 495.37 416.54 497.98 416.27 C 497.86 415.59 497.62 414.24 497.50 413.57 C 495.01 413.91 492.53 414.25 490.05 414.55 M 469.10 414.47 C 469.13 415.15 469.17 416.51 469.19 417.19 C 471.72 417.30 474.26 417.43 476.80 417.54 C 476.80 416.89 476.81 415.58 476.81 414.92 C 474.23 414.79 471.67 414.63 469.10 414.47 M 479.49 414.86 C 479.49 415.52 479.49 416.85 479.49 417.52 C 482.13 417.49 484.77 417.47 487.42 417.42 C 487.39 416.76 487.34 415.45 487.31 414.79 C 484.70 414.82 482.09 414.84 479.49 414.86 Z"/>
</g>
<g id="#333333ff">
<path fill="#333333" opacity="1.00" d=" M 469.89 182.94 C 472.55 182.81 475.21 182.70 477.87 182.58 C 477.90 183.24 477.95 184.58 477.98 185.24 C 475.47 185.36 472.97 185.56 470.47 185.46 C 470.33 184.83 470.03 183.57 469.89 182.94 Z"/>
<path fill="#333333" opacity="1.00" d=" M 480.71 182.58 C 483.30 182.65 485.89 182.74 488.48 182.82 C 488.50 183.49 488.53 184.84 488.54 185.51 C 485.91 185.39 483.29 185.30 480.67 185.23 C 480.68 184.57 480.70 183.24 480.71 182.58 Z"/>
<path fill="#333333" opacity="1.00" d=" M 491.25 183.14 C 494.10 183.92 499.04 182.43 499.44 186.63 C 496.64 186.43 493.85 186.11 491.07 185.72 C 491.12 185.08 491.21 183.78 491.25 183.14 Z"/>
<path fill="#333333" opacity="1.00" d=" M 459.52 184.45 C 462.17 184.04 464.82 183.65 467.48 183.29 C 467.49 183.98 467.52 185.36 467.53 186.06 C 464.98 186.30 462.42 186.57 459.88 186.84 C 459.79 186.25 459.61 185.05 459.52 184.45 Z"/>
<path fill="#333333" opacity="1.00" d=" M 449.12 186.65 C 451.74 186.09 454.36 185.46 457.00 184.96 C 457.10 185.59 457.32 186.83 457.43 187.45 C 454.91 188.06 452.37 188.60 449.86 189.23 C 449.61 188.37 449.36 187.50 449.12 186.65 Z"/>
<path fill="#333333" opacity="1.00" d=" M 501.80 184.49 C 504.60 185.19 507.42 185.84 510.18 186.73 C 508.23 190.20 504.24 187.44 501.31 187.23 C 501.43 186.54 501.68 185.18 501.80 184.49 Z"/>
<path fill="#333333" opacity="1.00" d=" M 512.01 187.03 C 514.77 187.83 517.50 188.74 520.19 189.76 C 518.20 193.46 514.21 189.89 511.34 189.46 C 511.51 188.86 511.85 187.64 512.01 187.03 Z"/>
<path fill="#333333" opacity="1.00" d=" M 439.05 189.95 C 441.51 189.09 443.98 188.27 446.45 187.42 C 446.66 188.05 447.08 189.32 447.29 189.96 C 444.83 190.75 442.39 191.58 439.94 192.40 C 439.72 191.79 439.27 190.56 439.05 189.95 Z"/>
<path fill="#333333" opacity="1.00" d=" M 429.34 194.01 C 432.12 193.39 435.88 189.37 438.00 193.04 C 435.50 194.24 432.97 195.36 430.45 196.52 C 430.17 195.89 429.62 194.64 429.34 194.01 Z"/>
<path fill="#333333" opacity="1.00" d=" M 521.67 190.22 C 524.50 191.32 527.31 192.49 530.01 193.89 C 527.85 197.30 524.18 193.89 521.68 192.78 C 521.67 192.14 521.67 190.86 521.67 190.22 Z"/>
<path fill="#333333" opacity="1.00" d=" M 530.83 196.94 C 531.10 196.34 531.63 195.16 531.90 194.56 C 534.24 195.87 536.60 197.13 538.93 198.48 C 538.44 199.22 537.96 199.97 537.48 200.72 C 535.30 199.38 533.03 198.22 530.83 196.94 Z"/>
<path fill="#333333" opacity="1.00" d=" M 419.88 199.41 C 422.23 197.95 424.60 196.54 427.04 195.23 C 427.25 195.86 427.67 197.12 427.87 197.75 C 425.68 198.96 423.52 200.21 421.36 201.47 C 420.99 200.95 420.25 199.92 419.88 199.41 Z"/>
<path fill="#333333" opacity="1.00" d=" M 540.97 199.73 C 543.35 201.21 545.72 202.73 547.96 204.42 C 547.53 204.85 546.66 205.72 546.23 206.15 C 544.18 204.84 542.11 203.56 540.04 202.29 C 540.34 201.43 540.65 200.58 540.97 199.73 Z"/>
<path fill="#333333" opacity="1.00" d=" M 410.68 205.39 C 413.00 203.71 415.37 202.08 417.81 200.57 C 418.10 201.16 418.68 202.33 418.97 202.92 C 417.00 204.23 415.07 205.64 412.96 206.72 C 412.39 206.39 411.25 205.72 410.68 205.39 Z"/>
<path fill="#333333" opacity="1.00" d=" M 547.98 207.45 C 550.98 204.73 553.51 208.89 556.01 210.35 C 555.73 210.95 555.19 212.16 554.92 212.76 C 552.55 211.06 550.23 209.30 547.98 207.45 Z"/>
<path fill="#333333" opacity="1.00" d=" M 402.94 211.47 C 405.36 209.94 407.86 205.66 410.90 208.34 C 408.76 210.18 406.55 211.94 404.33 213.67 C 403.86 212.94 403.40 212.20 402.94 211.47 Z"/>
<path fill="#333333" opacity="1.00" d=" M 555.99 213.70 C 559.31 212.14 561.61 215.51 563.58 217.63 C 563.26 218.44 562.91 219.24 562.53 220.03 C 560.26 218.01 558.02 215.96 555.99 213.70 Z"/>
<path fill="#333333" opacity="1.00" d=" M 395.06 218.97 C 396.94 217.12 398.85 215.31 400.78 213.51 C 401.25 213.97 402.18 214.87 402.64 215.32 C 400.76 217.17 398.82 218.94 396.97 220.81 C 396.49 220.35 395.54 219.43 395.06 218.97 Z"/>
<path fill="#333333" opacity="1.00" d=" M 563.81 221.43 C 564.34 221.07 565.40 220.35 565.92 219.99 C 567.66 221.96 569.43 223.91 571.14 225.91 C 570.61 226.28 569.55 227.02 569.02 227.40 C 567.25 225.44 565.53 223.44 563.81 221.43 Z"/>
<path fill="#333333" opacity="1.00" d=" M 393.22 221.03 C 393.87 221.63 394.53 222.23 395.19 222.83 C 393.49 224.77 391.76 226.69 390.11 228.67 C 389.61 228.25 388.61 227.41 388.12 226.98 C 389.81 225.00 391.52 223.02 393.22 221.03 Z"/>
<path fill="#333333" opacity="1.00" d=" M 570.57 229.18 C 571.13 228.92 572.26 228.39 572.83 228.13 C 574.31 230.15 575.83 232.15 577.35 234.16 C 576.87 234.60 575.92 235.48 575.45 235.92 C 573.74 233.73 572.08 231.50 570.57 229.18 Z"/>
<path fill="#333333" opacity="1.00" d=" M 381.81 235.80 C 383.36 233.55 384.94 231.32 386.60 229.15 C 387.12 229.55 388.16 230.37 388.68 230.78 C 387.13 232.82 385.60 234.87 384.09 236.93 C 383.52 236.65 382.38 236.08 381.81 235.80 Z"/>
<path fill="#333333" opacity="1.00" d=" M 576.61 237.99 C 577.18 237.64 578.32 236.95 578.89 236.61 C 580.14 238.75 581.63 240.80 582.52 243.14 C 582.14 243.64 581.40 244.64 581.03 245.14 C 579.49 242.79 578.07 240.38 576.61 237.99 Z"/>
<path fill="#333333" opacity="1.00" d=" M 380.36 238.09 C 380.98 238.32 382.21 238.79 382.82 239.02 C 381.50 241.32 380.14 243.59 378.77 245.86 C 377.97 245.51 377.17 245.15 376.38 244.81 C 377.69 242.56 379.03 240.33 380.36 238.09 Z"/>
<path fill="#333333" opacity="1.00" d=" M 581.93 246.81 C 582.78 246.54 583.64 246.28 584.51 246.02 C 585.60 248.36 586.65 250.71 587.71 253.06 C 587.08 253.25 585.83 253.62 585.20 253.80 C 584.16 251.44 582.99 249.15 581.93 246.81 Z"/>
<path fill="#333333" opacity="1.00" d=" M 371.85 254.67 C 372.88 252.03 374.05 249.46 375.42 246.98 C 375.93 247.30 376.96 247.94 377.48 248.26 C 376.47 250.44 375.49 252.65 374.54 254.85 C 373.87 254.81 372.53 254.72 371.85 254.67 Z"/>
<path fill="#333333" opacity="1.00" d=" M 440.13 247.92 C 442.10 249.61 444.05 251.32 446.01 253.03 C 445.66 253.58 444.96 254.67 444.61 255.21 C 442.56 253.47 440.52 251.73 438.52 249.93 C 438.93 249.42 439.73 248.42 440.13 247.92 Z"/>
<path fill="#333333" opacity="1.00" d=" M 429.81 248.37 C 430.49 248.35 431.85 248.30 432.53 248.28 C 432.48 250.92 432.44 253.57 432.40 256.22 C 431.73 256.21 430.39 256.20 429.72 256.20 C 429.74 253.58 429.78 250.97 429.81 248.37 Z"/>
<path fill="#333333" opacity="1.00" d=" M 522.26 257.86 C 524.20 256.08 526.17 254.32 528.13 252.54 C 528.72 253.17 529.31 253.81 529.91 254.45 C 527.97 256.22 526.02 257.98 524.08 259.76 C 523.62 259.28 522.72 258.34 522.26 257.86 Z"/>
<path fill="#333333" opacity="1.00" d=" M 446.28 256.92 C 446.71 256.43 447.57 255.46 448.00 254.97 C 449.97 256.70 451.93 258.43 453.91 260.16 C 453.46 260.65 452.56 261.63 452.11 262.12 C 450.16 260.39 448.24 258.63 446.28 256.92 Z"/>
<path fill="#333333" opacity="1.00" d=" M 586.25 256.45 C 586.89 256.18 588.17 255.64 588.81 255.37 C 589.76 258.07 590.78 260.75 591.61 263.50 C 587.59 263.99 587.76 258.95 586.25 256.45 Z"/>
<path fill="#333333" opacity="1.00" d=" M 370.64 257.09 C 371.26 257.16 372.50 257.29 373.12 257.35 C 372.34 259.88 371.57 262.41 370.73 264.92 C 370.08 264.77 368.78 264.48 368.13 264.33 C 368.92 261.90 369.81 259.51 370.64 257.09 Z"/>
<path fill="#333333" opacity="1.00" d=" M 429.76 258.78 C 430.43 258.77 431.76 258.76 432.43 258.76 C 432.40 261.39 432.35 264.02 432.32 266.66 C 431.65 266.65 430.30 266.62 429.63 266.61 C 429.67 263.99 429.71 261.39 429.76 258.78 Z"/>
<path fill="#333333" opacity="1.00" d=" M 514.57 264.92 C 516.48 263.15 518.41 261.40 520.32 259.62 C 520.78 260.06 521.70 260.93 522.17 261.37 C 520.21 263.20 518.25 265.02 516.26 266.81 C 515.84 266.34 514.99 265.39 514.57 264.92 Z"/>
<path fill="#333333" opacity="1.00" d=" M 454.07 263.96 C 454.54 263.48 455.48 262.50 455.95 262.02 C 457.86 263.75 459.75 265.51 461.69 267.23 C 461.27 267.71 460.43 268.67 460.01 269.15 C 458.03 267.42 456.04 265.70 454.07 263.96 Z"/>
<path fill="#333333" opacity="1.00" d=" M 591.84 273.63 C 591.63 270.76 588.38 266.58 592.13 264.92 C 592.96 267.60 593.72 270.31 594.43 273.03 C 593.79 273.18 592.49 273.48 591.84 273.63 Z"/>
<path fill="#333333" opacity="1.00" d=" M 367.21 267.10 C 367.87 267.16 369.18 267.29 369.84 267.36 C 369.26 269.88 368.54 272.38 368.03 274.93 C 367.36 274.82 366.03 274.60 365.36 274.50 C 365.97 272.03 366.57 269.56 367.21 267.10 Z"/>
<path fill="#333333" opacity="1.00" d=" M 506.78 271.96 C 508.72 270.18 510.67 268.39 512.62 266.61 C 513.07 267.10 513.96 268.07 514.40 268.56 C 512.46 270.35 510.49 272.11 508.55 273.90 C 507.95 273.25 507.37 272.61 506.78 271.96 Z"/>
<path fill="#333333" opacity="1.00" d=" M 429.59 269.31 C 430.26 269.32 431.59 269.32 432.25 269.32 C 432.25 271.95 432.25 274.57 432.25 277.20 C 431.59 277.21 430.26 277.22 429.60 277.23 C 429.59 274.59 429.59 271.95 429.59 269.31 Z"/>
<path fill="#333333" opacity="1.00" d=" M 461.90 270.97 C 462.38 270.48 463.34 269.52 463.82 269.04 C 465.84 270.90 467.87 272.78 469.83 274.72 C 466.58 277.25 464.31 272.60 461.90 270.97 Z"/>
<path fill="#333333" opacity="1.00" d=" M 504.48 273.96 C 505.05 274.27 506.19 274.90 506.76 275.22 C 504.85 277.20 502.86 279.09 500.87 280.98 C 500.40 280.49 499.45 279.50 498.98 279.01 C 500.80 277.32 502.65 275.65 504.48 273.96 Z"/>
<path fill="#333333" opacity="1.00" d=" M 469.71 277.98 C 470.32 277.33 470.93 276.69 471.55 276.04 C 473.44 277.73 475.30 279.45 477.20 281.13 C 476.85 281.67 476.14 282.74 475.79 283.28 C 473.74 281.54 471.71 279.77 469.71 277.98 Z"/>
<path fill="#333333" opacity="1.00" d=" M 592.47 275.92 C 593.13 275.87 594.44 275.77 595.09 275.72 C 595.50 278.32 595.93 280.91 596.39 283.51 C 595.51 283.59 594.64 283.67 593.77 283.76 C 593.37 281.14 592.87 278.53 592.47 275.92 Z"/>
<path fill="#333333" opacity="1.00" d=" M 363.56 285.11 C 363.93 282.45 364.40 279.81 364.77 277.16 C 365.43 277.27 366.74 277.50 367.40 277.61 C 366.95 280.17 366.51 282.73 366.13 285.30 C 365.49 285.25 364.20 285.16 363.56 285.11 Z"/>
<path fill="#333333" opacity="1.00" d=" M 429.41 287.61 C 429.45 284.99 429.51 282.37 429.56 279.75 C 430.22 279.76 431.56 279.77 432.22 279.78 C 432.15 282.43 432.11 285.08 432.03 287.73 C 431.38 287.70 430.07 287.64 429.41 287.61 Z"/>
<path fill="#333333" opacity="1.00" d=" M 491.19 286.01 C 493.16 284.28 495.12 282.52 497.09 280.78 C 497.52 281.29 498.36 282.32 498.78 282.83 C 496.83 284.54 494.90 286.26 492.97 287.99 C 492.52 287.49 491.63 286.50 491.19 286.01 Z"/>
<path fill="#333333" opacity="1.00" d=" M 477.56 285.01 C 477.97 284.52 478.78 283.54 479.19 283.05 C 481.24 284.80 483.44 286.47 485.05 288.66 C 484.70 289.00 484.00 289.66 483.65 290.00 C 481.34 288.71 479.49 286.78 477.56 285.01 Z"/>
<path fill="#333333" opacity="1.00" d=" M 594.16 286.40 C 594.79 286.32 596.05 286.17 596.68 286.09 C 596.95 288.75 597.23 291.42 597.45 294.09 C 596.79 294.12 595.47 294.17 594.81 294.19 C 594.59 291.59 594.37 288.99 594.16 286.40 Z"/>
<path fill="#333333" opacity="1.00" d=" M 363.27 287.57 C 363.90 287.62 365.16 287.73 365.79 287.78 C 365.62 290.37 365.44 292.95 365.26 295.55 C 364.59 295.53 363.24 295.51 362.57 295.50 C 362.78 292.85 363.04 290.21 363.27 287.57 Z"/>
<path fill="#333333" opacity="1.00" d=" M 483.45 293.14 C 485.32 291.42 487.11 289.58 489.19 288.10 C 491.68 288.66 489.85 290.67 489.28 292.10 C 490.48 293.11 491.69 294.12 492.90 295.15 C 492.47 295.67 491.61 296.73 491.17 297.26 C 489.78 295.99 488.38 294.73 487.00 293.47 C 486.52 293.86 485.57 294.64 485.10 295.03 C 484.69 294.56 483.86 293.61 483.45 293.14 Z"/>
<path fill="#333333" opacity="1.00" d=" M 429.46 290.28 C 430.15 290.30 431.53 290.33 432.21 290.34 C 431.60 293.15 433.59 298.23 429.45 298.70 C 429.39 295.89 429.42 293.09 429.46 290.28 Z"/>
<path fill="#333333" opacity="1.00" d=" M 475.57 300.22 C 477.60 298.38 479.70 296.61 481.80 294.84 C 482.13 295.38 482.78 296.45 483.11 296.99 C 481.27 298.67 479.44 300.37 477.61 302.07 C 476.92 301.45 476.24 300.83 475.57 300.22 Z"/>
<path fill="#333333" opacity="1.00" d=" M 594.85 296.74 C 595.52 296.74 596.84 296.72 597.50 296.72 C 597.49 299.34 597.48 301.96 597.46 304.59 C 596.80 304.59 595.47 304.60 594.81 304.60 C 594.82 301.97 594.84 299.36 594.85 296.74 Z"/>
<path fill="#333333" opacity="1.00" d=" M 362.54 298.22 C 363.19 298.22 364.50 298.22 365.16 298.22 C 365.19 302.57 365.37 306.91 365.72 311.25 C 365.07 311.32 363.77 311.45 363.12 311.52 C 362.68 307.10 362.53 302.66 362.54 298.22 Z"/>
<path fill="#333333" opacity="1.00" d=" M 493.15 299.04 C 493.59 298.55 494.47 297.57 494.92 297.08 C 496.83 298.82 498.75 300.55 500.69 302.26 C 500.27 302.77 499.44 303.78 499.02 304.29 C 497.05 302.55 495.10 300.79 493.15 299.04 Z"/>
<path fill="#333333" opacity="1.00" d=" M 429.34 300.77 C 429.97 300.76 431.21 300.76 431.83 300.76 C 431.84 303.40 431.85 306.03 431.85 308.67 C 431.22 308.67 429.95 308.67 429.32 308.67 C 429.32 306.03 429.33 303.40 429.34 300.77 Z"/>
<path fill="#333333" opacity="1.00" d=" M 467.99 307.09 C 470.08 305.24 472.17 303.39 474.35 301.64 C 475.94 305.33 471.55 307.09 469.41 309.23 C 469.06 308.70 468.35 307.63 467.99 307.09 Z"/>
<path fill="#333333" opacity="1.00" d=" M 500.97 306.06 C 501.43 305.57 502.35 304.60 502.81 304.12 C 504.75 305.91 506.70 307.69 508.63 309.50 C 507.93 310.05 507.23 310.60 506.53 311.15 C 504.69 309.44 502.82 307.76 500.97 306.06 Z"/>
<path fill="#333333" opacity="1.00" d=" M 594.66 307.13 C 595.57 307.24 596.49 307.35 597.42 307.47 C 597.13 309.98 596.85 312.49 596.58 315.01 C 595.97 314.98 594.73 314.93 594.11 314.91 C 594.28 312.31 594.47 309.72 594.66 307.13 Z"/>
<path fill="#333333" opacity="1.00" d=" M 460.15 314.27 C 462.09 312.53 464.05 310.80 465.97 309.04 C 466.42 309.52 467.31 310.46 467.76 310.94 C 465.81 312.68 463.87 314.44 461.93 316.20 C 461.33 315.55 460.74 314.91 460.15 314.27 Z"/>
<path fill="#333333" opacity="1.00" d=" M 429.29 311.29 C 429.91 311.30 431.16 311.31 431.79 311.32 C 431.76 313.95 431.71 316.58 431.69 319.22 C 431.07 319.22 429.83 319.22 429.20 319.23 C 429.22 316.58 429.25 313.93 429.29 311.29 Z"/>
<path fill="#333333" opacity="1.00" d=" M 508.83 313.05 C 509.40 312.40 509.98 311.75 510.56 311.10 C 512.60 312.96 514.63 314.83 516.60 316.77 C 516.00 317.10 514.80 317.74 514.20 318.06 C 512.43 316.37 510.61 314.73 508.83 313.05 Z"/>
<path fill="#333333" opacity="1.00" d=" M 363.45 314.12 C 364.13 314.12 365.49 314.14 366.16 314.14 C 366.39 316.66 366.75 319.18 367.00 321.70 C 366.39 321.73 365.17 321.79 364.56 321.82 C 364.19 319.25 363.79 316.69 363.45 314.12 Z"/>
<path fill="#333333" opacity="1.00" d=" M 452.15 321.81 C 454.06 319.82 456.09 317.97 458.08 316.06 C 458.55 316.54 459.48 317.49 459.94 317.97 C 458.15 319.65 456.35 321.32 454.57 323.00 C 453.97 322.71 452.76 322.11 452.15 321.81 Z"/>
<path fill="#333333" opacity="1.00" d=" M 517.16 320.19 C 517.42 319.42 517.71 318.66 518.03 317.91 C 520.20 319.78 522.29 321.75 524.34 323.75 C 523.77 324.10 522.63 324.79 522.05 325.14 C 520.39 323.52 518.52 322.08 517.16 320.19 Z"/>
<path fill="#333333" opacity="1.00" d=" M 592.23 325.13 C 592.71 322.60 593.20 320.08 593.66 317.55 C 594.31 317.62 595.62 317.76 596.27 317.83 C 595.69 320.47 595.35 323.15 594.75 325.79 C 594.12 325.63 592.86 325.30 592.23 325.13 Z"/>
<path fill="#333333" opacity="1.00" d=" M 429.23 321.76 C 429.84 321.77 431.08 321.77 431.69 321.77 C 431.66 324.40 431.63 327.03 431.62 329.66 C 431.00 329.67 429.76 329.68 429.14 329.69 C 429.15 327.05 429.18 324.40 429.23 321.76 Z"/>
<path fill="#333333" opacity="1.00" d=" M 365.16 324.51 C 365.80 324.43 367.08 324.27 367.73 324.20 C 368.35 326.63 368.88 329.09 369.56 331.52 C 368.90 331.73 367.60 332.14 366.94 332.35 C 366.35 329.73 365.73 327.13 365.16 324.51 Z"/>
<path fill="#333333" opacity="1.00" d=" M 444.54 328.48 C 446.35 326.73 448.19 324.99 450.20 323.46 C 450.90 323.95 451.59 324.47 452.27 325.01 C 450.32 326.80 448.37 328.59 446.42 330.38 C 445.79 329.74 445.16 329.11 444.54 328.48 Z"/>
<path fill="#333333" opacity="1.00" d=" M 524.37 327.10 C 524.82 326.60 525.73 325.62 526.18 325.12 C 527.96 326.83 530.87 328.51 529.00 331.23 C 527.43 329.87 525.89 328.50 524.37 327.10 Z"/>
<path fill="#333333" opacity="1.00" d=" M 591.58 328.03 C 592.20 328.08 593.46 328.18 594.08 328.23 C 593.47 330.79 592.73 333.32 592.10 335.88 C 591.45 335.71 590.15 335.37 589.50 335.21 C 590.19 332.81 590.88 330.42 591.58 328.03 Z"/>
<path fill="#333333" opacity="1.00" d=" M 437.76 334.69 C 439.46 333.14 441.16 331.58 442.90 330.06 C 443.29 330.86 443.69 331.67 444.08 332.48 C 442.60 333.79 441.12 335.12 439.65 336.45 C 439.18 336.01 438.23 335.13 437.76 334.69 Z"/>
<path fill="#333333" opacity="1.00" d=" M 428.87 332.31 C 429.54 332.31 430.90 332.31 431.57 332.31 C 431.55 335.13 431.57 337.96 431.45 340.78 C 427.37 340.09 429.27 335.19 428.87 332.31 Z"/>
<path fill="#333333" opacity="1.00" d=" M 367.68 334.94 C 368.33 334.73 369.63 334.31 370.28 334.10 C 370.84 336.99 374.12 340.70 370.87 342.99 C 369.65 340.37 368.69 337.64 367.68 334.94 Z"/>
<path fill="#333333" opacity="1.00" d=" M 588.48 338.04 C 589.15 338.09 590.48 338.20 591.15 338.25 C 590.24 340.82 589.32 343.39 588.34 345.94 C 587.75 345.70 586.58 345.23 585.99 345.00 C 586.77 342.66 587.68 340.37 588.48 338.04 Z"/>
<path fill="#333333" opacity="1.00" d=" M 435.30 342.10 C 437.95 342.09 440.61 342.09 443.27 342.08 C 443.26 342.73 443.24 344.01 443.23 344.66 C 440.60 344.65 437.98 344.65 435.35 344.65 C 435.34 344.02 435.31 342.74 435.30 342.10 Z"/>
<path fill="#333333" opacity="1.00" d=" M 445.81 342.01 C 448.47 342.07 451.14 342.06 453.82 342.08 C 453.79 342.73 453.74 344.01 453.71 344.66 C 451.09 344.65 448.47 344.65 445.86 344.66 C 445.84 343.99 445.82 342.67 445.81 342.01 Z"/>
<path fill="#333333" opacity="1.00" d=" M 456.30 342.10 C 458.95 342.09 461.60 342.08 464.25 342.08 C 464.25 342.93 464.25 343.79 464.26 344.65 C 461.62 344.65 458.99 344.65 456.36 344.65 C 456.34 344.02 456.32 342.74 456.30 342.10 Z"/>
<path fill="#333333" opacity="1.00" d=" M 466.83 342.09 C 469.48 342.09 472.13 342.09 474.79 342.10 C 474.78 342.74 474.75 344.02 474.73 344.66 C 472.10 344.65 469.47 344.65 466.85 344.65 C 466.85 344.01 466.83 342.73 466.83 342.09 Z"/>
<path fill="#333333" opacity="1.00" d=" M 477.28 342.08 C 479.94 342.06 482.59 342.04 485.25 341.95 C 485.25 342.84 485.26 343.74 485.27 344.64 C 482.64 344.65 480.01 344.65 477.39 344.66 C 477.36 344.02 477.31 342.73 477.28 342.08 Z"/>
<path fill="#333333" opacity="1.00" d=" M 487.83 342.09 C 490.48 342.09 493.14 342.09 495.79 342.10 C 495.78 342.74 495.75 344.02 495.74 344.66 C 493.11 344.65 490.48 344.65 487.86 344.65 C 487.85 344.01 487.84 342.73 487.83 342.09 Z"/>
<path fill="#333333" opacity="1.00" d=" M 498.29 342.09 C 500.94 342.07 503.60 342.06 506.26 342.01 C 506.26 342.89 506.26 343.76 506.26 344.64 C 503.63 344.65 501.01 344.65 498.38 344.66 C 498.36 344.01 498.31 342.73 498.29 342.09 Z"/>
<path fill="#333333" opacity="1.00" d=" M 508.83 342.02 C 511.49 342.06 514.16 342.07 516.82 342.08 C 516.80 342.72 516.75 344.01 516.72 344.66 C 514.10 344.65 511.47 344.65 508.86 344.65 C 508.85 343.99 508.84 342.68 508.83 342.02 Z"/>
<path fill="#333333" opacity="1.00" d=" M 519.32 342.10 C 522.11 342.08 524.90 342.08 527.70 342.15 C 527.49 342.72 527.08 343.87 526.87 344.44 C 524.39 344.79 521.87 344.66 519.38 344.68 C 519.36 344.04 519.33 342.74 519.32 342.10 Z"/>
<path fill="#333333" opacity="1.00" d=" M 529.75 342.11 C 530.41 342.10 531.71 342.07 532.36 342.06 C 532.38 342.89 532.40 343.72 532.43 344.56 C 531.86 344.61 530.70 344.71 530.12 344.77 C 530.03 344.10 529.84 342.78 529.75 342.11 Z"/>
<path fill="#333333" opacity="1.00" d=" M 428.91 342.32 C 429.64 342.64 431.10 343.27 431.83 343.59 C 431.14 344.45 430.39 345.25 429.66 346.06 C 429.47 345.13 429.09 343.26 428.91 342.32 Z"/>
<path fill="#333333" opacity="1.00" d=" M 371.36 344.81 C 372.00 344.62 373.29 344.23 373.93 344.04 C 374.93 346.39 375.99 348.72 377.01 351.07 C 376.19 351.38 375.37 351.69 374.56 352.00 C 373.49 349.61 372.43 347.21 371.36 344.81 Z"/>
<path fill="#333333" opacity="1.00" d=" M 581.40 354.24 C 582.61 351.79 583.83 349.35 585.04 346.91 C 585.48 347.32 586.36 348.13 586.80 348.54 C 586.20 350.99 584.89 353.18 583.84 355.45 C 583.23 355.15 582.01 354.54 581.40 354.24 Z"/>
<path fill="#333333" opacity="1.00" d=" M 376.35 354.66 C 376.74 354.23 377.53 353.36 377.92 352.93 C 379.34 355.29 380.78 357.65 382.18 360.02 C 381.61 360.36 380.47 361.02 379.91 361.36 C 378.62 359.18 377.04 357.11 376.35 354.66 Z"/>
<path fill="#333333" opacity="1.00" d=" M 576.44 362.96 C 577.39 360.46 579.00 358.28 580.44 356.05 C 583.70 358.90 579.13 362.22 577.93 364.99 C 577.56 364.48 576.81 363.47 576.44 362.96 Z"/>
<path fill="#333333" opacity="1.00" d=" M 381.24 363.78 C 381.76 363.38 382.80 362.58 383.32 362.18 C 384.81 364.17 386.29 366.17 387.59 368.30 C 387.07 368.98 386.53 369.64 385.97 370.29 C 384.37 368.13 382.79 365.96 381.24 363.78 Z"/>
<path fill="#333333" opacity="1.00" d=" M 569.90 371.85 C 571.48 369.60 573.05 367.35 574.73 365.18 C 575.24 365.60 576.25 366.45 576.76 366.87 C 575.17 368.90 573.65 370.98 572.09 373.03 C 571.55 372.73 570.45 372.14 569.90 371.85 Z"/>
<path fill="#333333" opacity="1.00" d=" M 387.41 372.38 C 388.09 371.82 388.79 371.27 389.49 370.72 C 391.13 372.78 392.87 374.77 394.56 376.79 C 394.03 377.19 392.96 377.97 392.43 378.37 C 390.75 376.37 389.06 374.39 387.41 372.38 Z"/>
<path fill="#333333" opacity="1.00" d=" M 563.08 379.65 C 564.79 377.60 566.53 375.58 568.28 373.57 C 568.81 373.99 569.86 374.83 570.38 375.24 C 568.64 377.19 566.87 379.11 565.12 381.05 C 564.61 380.70 563.59 380.00 563.08 379.65 Z"/>
<path fill="#333333" opacity="1.00" d=" M 394.14 380.07 C 394.75 379.78 395.98 379.20 396.59 378.92 C 398.39 380.77 400.21 382.60 402.00 384.47 C 401.45 384.74 400.35 385.29 399.79 385.57 C 397.58 384.11 395.91 382.00 394.14 380.07 Z"/>
<path fill="#333333" opacity="1.00" d=" M 555.42 386.87 C 557.35 384.94 559.37 383.10 561.35 381.22 C 561.92 381.91 562.49 382.61 563.08 383.32 C 561.29 384.93 559.50 386.53 557.75 388.18 C 557.16 387.85 556.00 387.20 555.42 386.87 Z"/>
<path fill="#333333" opacity="1.00" d=" M 401.83 387.53 C 402.35 387.14 403.37 386.36 403.88 385.97 C 405.79 387.65 407.73 389.31 409.70 390.92 C 409.27 391.42 408.41 392.42 407.98 392.91 C 405.87 391.18 403.83 389.38 401.83 387.53 Z"/>
<path fill="#333333" opacity="1.00" d=" M 547.47 393.01 C 549.66 391.42 551.80 389.76 554.02 388.21 C 554.29 388.82 554.84 390.04 555.12 390.65 C 553.07 392.10 551.07 393.61 549.04 395.08 C 548.65 394.56 547.86 393.52 547.47 393.01 Z"/>
<path fill="#333333" opacity="1.00" d=" M 410.11 394.35 C 410.54 393.86 411.39 392.88 411.82 392.39 C 413.84 393.85 415.86 395.32 417.93 396.73 C 417.59 397.52 417.24 398.32 416.91 399.13 C 414.58 397.62 412.32 396.02 410.11 394.35 Z"/>
<path fill="#333333" opacity="1.00" d=" M 539.20 398.93 C 540.82 396.86 543.57 395.98 545.79 394.65 C 546.06 395.21 546.59 396.32 546.85 396.88 C 544.55 398.34 542.29 399.97 539.64 400.73 C 539.53 400.28 539.31 399.38 539.20 398.93 Z"/>
<path fill="#333333" opacity="1.00" d=" M 419.18 400.53 C 419.39 399.91 419.81 398.68 420.02 398.07 C 422.36 399.34 424.65 400.69 426.98 402.00 C 426.72 402.61 426.21 403.84 425.95 404.45 C 423.67 403.17 421.44 401.81 419.18 400.53 Z"/>
<path fill="#333333" opacity="1.00" d=" M 529.95 403.57 C 532.24 402.46 534.46 401.21 536.76 400.11 C 537.13 400.87 537.50 401.63 537.88 402.40 C 535.55 403.65 533.20 404.88 530.85 406.09 C 530.54 405.25 530.24 404.41 529.95 403.57 Z"/>
<path fill="#333333" opacity="1.00" d=" M 427.72 405.13 C 430.32 401.98 433.77 405.68 436.62 406.62 C 436.29 407.19 435.64 408.33 435.31 408.90 C 432.76 407.67 430.19 406.51 427.72 405.13 Z"/>
<path fill="#333333" opacity="1.00" d=" M 519.76 407.98 C 522.40 406.85 525.10 405.84 527.80 404.86 C 527.81 405.55 527.84 406.94 527.85 407.64 C 525.20 408.17 521.53 411.53 519.76 407.98 Z"/>
<path fill="#333333" opacity="1.00" d=" M 438.77 407.40 C 441.22 408.19 443.65 409.07 446.10 409.87 C 445.95 410.53 445.63 411.84 445.47 412.50 C 443.03 411.66 440.60 410.81 438.15 410.00 C 438.31 409.35 438.62 408.05 438.77 407.40 Z"/>
<path fill="#333333" opacity="1.00" d=" M 510.35 410.97 C 512.77 410.22 515.19 409.45 517.60 408.65 C 517.87 409.27 518.40 410.52 518.67 411.14 C 516.11 411.93 513.55 412.72 510.99 413.49 C 510.83 412.86 510.51 411.60 510.35 410.97 Z"/>
<path fill="#333333" opacity="1.00" d=" M 448.71 410.68 C 451.45 411.42 454.24 411.99 456.97 412.82 C 455.21 416.52 451.02 413.50 448.13 413.28 C 448.27 412.63 448.56 411.33 448.71 410.68 Z"/>
<path fill="#333333" opacity="1.00" d=" M 500.03 415.73 C 499.97 411.73 504.86 412.44 507.61 411.84 C 507.90 412.40 508.50 413.52 508.80 414.08 C 505.89 414.72 502.98 415.35 500.03 415.73 Z"/>
<path fill="#333333" opacity="1.00" d=" M 458.85 413.06 C 461.32 413.42 463.84 413.66 466.26 414.36 C 466.33 414.98 466.48 416.22 466.55 416.84 C 463.81 416.43 461.07 416.00 458.34 415.51 C 458.47 414.90 458.72 413.68 458.85 413.06 Z"/>
<path fill="#333333" opacity="1.00" d=" M 490.05 414.55 C 492.53 414.25 495.01 413.91 497.50 413.57 C 497.62 414.24 497.86 415.59 497.98 416.27 C 495.37 416.54 492.75 416.80 490.14 416.98 C 490.12 416.37 490.07 415.16 490.05 414.55 Z"/>
<path fill="#333333" opacity="1.00" d=" M 469.10 414.47 C 471.67 414.63 474.23 414.79 476.81 414.92 C 476.81 415.58 476.80 416.89 476.80 417.54 C 474.26 417.43 471.72 417.30 469.19 417.19 C 469.17 416.51 469.13 415.15 469.10 414.47 Z"/>
<path fill="#333333" opacity="1.00" d=" M 479.49 414.86 C 482.09 414.84 484.70 414.82 487.31 414.79 C 487.34 415.45 487.39 416.76 487.42 417.42 C 484.77 417.47 482.13 417.49 479.49 417.52 C 479.49 416.85 479.49 415.52 479.49 414.86 Z"/>
</g>
</g>
</svg>
