<?xml version="1.0" encoding="UTF-8" ?>
<!DOCTYPE svg PUBLIC "-//W3C//DTD SVG 1.1//EN" "http://www.w3.org/Graphics/SVG/1.1/DTD/svg11.dtd">
<svg width="1303pt" height="773pt" viewBox="0 0 1303 773" version="1.1" xmlns="http://www.w3.org/2000/svg">
<path fill="#404040" stroke="#404040" stroke-width="0.09375" opacity="1.00" d=" M 0.0 0.0 L 354.0 0.0 C 354.0 257.7 354.0 515.3 354.0 773.0 L 0.0 773.0 L 0.0 0.0 Z" />
<path fill="#404040" stroke="#404040" stroke-width="0.09375" opacity="1.00" d=" M 397.2 1.2 C 401.8 0.7 406.4 1.0 411.0 1.0 C 708.3 1.0 1005.7 1.0 1303.0 1.0 L 1303.0 666.0 C 1172.7 666.0 1042.3 666.0 912.0 666.0 C 911.3 666.0 909.9 666.1 909.2 666.2 C 908.7 670.8 909.0 675.4 909.0 680.0 C 909.0 697.0 909.0 714.0 909.0 731.0 C 909.0 735.3 908.7 739.5 909.2 743.8 C 913.4 744.3 917.7 744.0 922.0 744.0 C 942.7 744.0 963.3 744.0 984.0 744.0 C 988.3 744.0 992.5 743.7 996.8 744.2 C 997.4 753.8 996.8 763.4 997.0 773.0 L 702.0 773.0 C 702.2 763.4 701.6 753.8 702.2 744.2 C 706.4 743.7 710.7 744.0 715.0 744.0 C 736.0 744.0 757.0 744.0 778.0 744.0 C 782.3 744.0 786.5 744.3 790.8 743.8 C 791.3 739.5 791.0 735.3 791.0 731.0 C 791.0 714.0 791.0 697.0 791.0 680.0 C 791.0 675.4 791.3 670.8 790.8 666.2 C 786.5 665.7 782.3 666.0 778.0 666.0 C 659.3 666.0 540.7 666.0 422.0 666.0 C 413.7 665.8 405.4 666.4 397.2 665.8 C 396.7 661.2 397.0 656.6 397.0 652.0 C 397.0 443.3 397.0 234.7 397.0 26.0 C 397.2 17.7 396.6 9.4 397.2 1.2 M 418.1 22.1 C 417.8 26.1 418.0 30.0 418.0 34.0 C 418.0 234.0 418.0 434.0 418.0 634.0 C 418.0 637.6 417.8 641.3 418.1 644.9 C 422.1 645.2 426.0 645.0 430.0 645.0 C 710.3 645.0 990.7 645.0 1271.0 645.0 C 1274.6 645.0 1278.2 645.2 1281.9 644.9 C 1282.2 640.9 1282.0 637.0 1282.0 633.0 C 1282.0 433.3 1282.0 233.7 1282.0 34.0 C 1282.0 30.0 1282.2 26.1 1281.9 22.1 C 1281.4 22.1 1280.5 22.0 1280.0 22.0 C 993.3 22.0 706.7 22.0 420.0 22.0 C 419.5 22.0 418.6 22.1 418.1 22.1 Z" />
<path fill="#ffffff" stroke="#ffffff" stroke-width="0.09375" opacity="1.00" d=" M 418.1 22.1 C 418.6 22.1 419.5 22.0 420.0 22.0 C 706.7 22.0 993.3 22.0 1280.0 22.0 C 1280.5 22.0 1281.4 22.1 1281.9 22.1 C 1282.2 26.1 1282.0 30.0 1282.0 34.0 C 1282.0 233.7 1282.0 433.3 1282.0 633.0 C 1282.0 637.0 1282.2 640.9 1281.9 644.9 C 1278.2 645.2 1274.6 645.0 1271.0 645.0 C 990.7 645.0 710.3 645.0 430.0 645.0 C 426.0 645.0 422.1 645.2 418.1 644.9 C 417.8 641.3 418.0 637.6 418.0 634.0 C 418.0 434.0 418.0 234.0 418.0 34.0 C 418.0 30.0 417.8 26.1 418.1 22.1 Z" />
</svg>
