<?xml version="1.0" encoding="utf-8"?>
<!DOCTYPE svg PUBLIC "-//W3C//DTD SVG 1.1//EN" "http://www.w3.org/Graphics/SVG/1.1/DTD/svg11.dtd">
<svg xmlns="http://www.w3.org/2000/svg" width="120pt" height="120pt" viewBox="0 0 120 120" version="1.1">
<g class="sprite" id="badge">
    <path fill="#e04f4c" d=" M 20.83 0.00 L 98.99 0.00 C 109.64 -0.26 119.60 8.34 120.00 19.15 L 120.00 101.38 C 119.43 110.82 111.56 118.97 102.18 120.00 L 17.62 120.00 C 7.74 118.69 -0.05 109.70 0.00 99.73 L 0.00 20.28 C 0.39 15.04 2.14 9.74 6.04 6.07 C 9.86 2.01 15.42 0.36 20.83 0.00 Z"/><path fill="#f5f2e8" d=" M 43.13 23.23 C 53.14 16.96 66.08 17.01 76.87 21.21 C 78.62 21.95 80.41 22.85 81.57 24.41 C 82.29 27.22 81.93 30.19 82.00 33.07 C 81.88 34.75 82.27 36.91 80.42 37.80 C 77.75 37.56 75.79 35.38 73.32 34.52 C 67.78 32.28 61.05 30.32 55.44 33.39 C 51.03 35.31 49.48 41.71 52.51 45.44 C 55.42 49.18 59.89 51.10 64.15 52.86 C 69.85 55.61 75.93 57.98 80.59 62.40 C 91.09 72.68 88.60 92.48 76.14 100.13 C 65.53 106.99 51.66 107.18 40.06 102.80 C 36.71 101.36 31.88 99.53 32.11 95.11 C 32.31 91.48 30.89 86.89 34.20 84.29 C 39.33 86.79 44.21 90.13 49.97 91.01 C 55.24 91.73 61.19 92.10 65.71 88.77 C 69.82 85.32 70.39 78.46 66.31 74.73 C 58.14 68.03 46.53 66.69 39.30 58.65 C 29.85 48.84 31.68 30.73 43.13 23.23 Z"/>
</g>
 
<g class="sprite" id="icon">
    <path fill="#f5f2e8" d=" M 20.83 0.00 L 98.99 0.00 C 109.64 -0.26 119.60 8.34 120.00 19.15 L 120.00 101.38 C 119.43 110.82 111.56 118.97 102.18 120.00 L 17.62 120.00 C 7.74 118.69 -0.05 109.70 0.00 99.73 L 0.00 20.28 C 0.39 15.04 2.14 9.74 6.04 6.07 C 9.86 2.01 15.42 0.36 20.83 0.00 Z"/><path fill="#e04f4c" d=" M 43.13 23.23 C 53.14 16.96 66.08 17.01 76.87 21.21 C 78.62 21.95 80.41 22.85 81.57 24.41 C 82.29 27.22 81.93 30.19 82.00 33.07 C 81.88 34.75 82.27 36.91 80.42 37.80 C 77.75 37.56 75.79 35.38 73.32 34.52 C 67.78 32.28 61.05 30.32 55.44 33.39 C 51.03 35.31 49.48 41.71 52.51 45.44 C 55.42 49.18 59.89 51.10 64.15 52.86 C 69.85 55.61 75.93 57.98 80.59 62.40 C 91.09 72.68 88.60 92.48 76.14 100.13 C 65.53 106.99 51.66 107.18 40.06 102.80 C 36.71 101.36 31.88 99.53 32.11 95.11 C 32.31 91.48 30.89 86.89 34.20 84.29 C 39.33 86.79 44.21 90.13 49.97 91.01 C 55.24 91.73 61.19 92.10 65.71 88.77 C 69.82 85.32 70.39 78.46 66.31 74.73 C 58.14 68.03 46.53 66.69 39.30 58.65 C 29.85 48.84 31.68 30.73 43.13 23.23 Z"/>
</g>
<defs>
    <style><![CDATA[
        .sprite { display: none; }
        .sprite:target { display: inline; }
    ]]></style>
</defs>
</svg>