<?xml version="1.0" encoding="UTF-8" ?>
<!DOCTYPE svg PUBLIC "-//W3C//DTD SVG 1.1//EN" "http://www.w3.org/Graphics/SVG/1.1/DTD/svg11.dtd">
<svg width="354pt" height="358pt" viewBox="0 0 354 358" version="1.1" xmlns="http://www.w3.org/2000/svg">
<g id="#000000ff">
<path fill="#000000" opacity="1.00" d=" M 207.21 2.20 C 213.16 1.51 219.15 1.30 225.14 1.15 C 225.23 3.04 225.33 4.92 225.43 6.80 C 219.54 7.21 213.66 7.75 207.75 7.94 C 207.57 6.02 207.39 4.11 207.21 2.20 Z" />
<path fill="#000000" opacity="1.00" d=" M 231.23 0.77 C 237.20 0.46 243.18 0.49 249.16 0.60 C 249.16 2.52 249.16 4.44 249.16 6.37 C 243.22 6.40 237.27 6.47 231.33 6.59 C 231.30 4.65 231.26 2.71 231.23 0.77 Z" />
<path fill="#000000" opacity="1.00" d=" M 255.06 0.69 C 261.02 1.01 266.99 1.43 272.92 2.06 C 272.77 4.02 272.59 5.98 272.40 7.94 C 266.49 7.48 260.60 6.84 254.68 6.53 C 254.83 4.58 254.95 2.64 255.06 0.69 Z" />
<path fill="#000000" opacity="1.00" d=" M 183.51 4.83 C 189.43 3.87 195.42 3.55 201.37 2.83 C 201.54 4.76 201.71 6.68 201.89 8.60 C 196.10 9.56 190.22 9.76 184.44 10.75 C 184.13 8.77 183.82 6.80 183.51 4.83 Z" />
<path fill="#000000" opacity="1.00" d=" M 278.89 3.21 C 285.14 3.94 291.34 5.64 296.92 8.58 C 296.01 10.31 295.11 12.04 294.22 13.77 C 289.21 11.26 283.73 9.87 278.22 9.04 C 278.44 7.09 278.66 5.15 278.89 3.21 Z" />
<path fill="#000000" opacity="1.00" d=" M 160.03 8.63 C 165.78 7.28 171.68 6.82 177.46 5.65 C 177.84 7.61 178.20 9.58 178.55 11.54 C 172.69 12.55 166.79 13.30 160.94 14.39 C 160.64 12.47 160.33 10.55 160.03 8.63 Z" />
<path fill="#000000" opacity="1.00" d=" M 136.57 13.45 C 142.33 11.75 148.28 10.89 154.16 9.74 C 154.46 11.67 154.77 13.61 155.08 15.54 C 149.31 16.60 143.60 17.97 137.81 18.93 C 137.41 17.10 136.99 15.28 136.57 13.45 Z" />
<path fill="#000000" opacity="1.00" d=" M 298.25 16.51 C 299.69 15.10 301.22 13.78 302.81 12.54 C 307.16 17.86 305.97 25.14 306.32 31.51 C 304.32 31.52 302.32 31.53 300.33 31.54 C 299.90 26.55 301.38 20.84 298.25 16.51 Z" />
<path fill="#000000" opacity="1.00" d=" M 113.43 19.53 C 119.16 17.81 124.90 16.02 130.81 14.95 C 131.25 16.81 131.67 18.68 132.07 20.55 C 126.35 21.90 120.76 23.73 115.03 25.04 C 114.51 23.20 113.97 21.37 113.43 19.53 Z" />
<path fill="#000000" opacity="1.00" d=" M 90.89 27.10 C 96.57 25.21 102.07 22.70 107.95 21.42 C 108.42 23.28 108.94 25.13 109.48 26.96 C 103.87 28.65 98.39 30.73 92.88 32.72 C 92.12 30.88 91.44 29.01 90.89 27.10 Z" />
<path fill="#000000" opacity="1.00" d=" M 68.99 37.44 C 74.21 34.46 79.68 31.95 85.16 29.51 C 85.92 31.35 86.69 33.18 87.46 35.02 C 82.13 37.38 76.81 39.80 71.76 42.71 C 70.80 40.97 69.87 39.22 68.99 37.44 Z" />
<path fill="#000000" opacity="1.00" d=" M 298.52 54.40 C 299.29 48.78 300.05 43.15 300.30 37.48 C 302.29 37.56 304.28 37.64 306.28 37.71 C 305.70 43.74 305.44 49.81 304.32 55.79 C 302.43 55.34 300.03 55.61 298.52 54.40 Z" />
<path fill="#000000" opacity="1.00" d=" M 49.22 51.96 C 53.70 47.81 58.30 43.58 63.81 40.83 C 64.87 42.43 65.84 44.09 66.70 45.81 C 61.72 48.64 57.54 52.57 53.13 56.17 C 51.84 54.75 50.53 53.35 49.22 51.96 Z" />
<path fill="#000000" opacity="1.00" d=" M 45.04 56.71 C 46.62 57.97 48.17 59.26 49.68 60.61 C 46.43 65.19 43.87 70.22 41.91 75.48 C 40.04 74.72 38.18 73.96 36.32 73.20 C 38.61 67.40 41.49 61.85 45.04 56.71 Z" />
<path fill="#000000" opacity="1.00" d=" M 297.22 60.50 C 299.13 60.88 301.05 61.29 302.96 61.73 C 301.99 67.74 299.62 73.37 297.48 79.02 C 295.58 78.44 293.72 77.71 291.91 76.89 C 294.05 71.56 296.15 66.17 297.22 60.50 Z" />
<path fill="#000000" opacity="1.00" d=" M 34.19 79.15 C 36.14 79.65 38.08 80.22 40.00 80.81 C 38.34 86.28 36.61 91.79 36.03 97.50 C 33.96 97.55 31.93 97.09 29.92 96.62 C 30.98 90.71 32.52 84.90 34.19 79.15 Z" />
<path fill="#000000" opacity="1.00" d=" M 289.24 82.17 C 291.09 82.96 292.92 83.80 294.73 84.68 C 291.25 89.85 288.07 95.36 283.43 99.59 C 282.07 98.27 280.70 96.98 279.32 95.69 C 283.06 91.52 286.31 86.94 289.24 82.17 Z" />
<path fill="#000000" opacity="1.00" d=" M 261.38 109.78 C 266.23 106.73 271.03 103.56 275.23 99.65 C 276.55 101.10 277.84 102.57 279.10 104.07 C 274.62 108.31 269.53 111.89 264.13 114.84 C 263.23 113.15 262.31 111.46 261.38 109.78 Z" />
<path fill="#000000" opacity="1.00" d=" M 26.51 120.55 C 27.07 114.55 27.92 108.57 28.76 102.60 C 30.73 102.93 32.70 103.25 34.68 103.53 C 33.57 109.24 33.26 115.06 32.49 120.83 C 30.49 120.73 28.50 120.64 26.51 120.55 Z" />
<path fill="#000000" opacity="1.00" d=" M 240.33 118.94 C 245.74 117.14 251.04 115.05 256.14 112.51 C 257.11 114.24 258.05 115.99 258.96 117.76 C 253.43 120.44 247.73 122.76 241.91 124.72 C 241.39 122.79 240.86 120.87 240.33 118.94 Z" />
<path fill="#000000" opacity="1.00" d=" M 217.54 124.97 C 223.34 123.88 228.96 122.05 234.77 121.02 C 235.27 122.85 235.71 124.69 236.08 126.56 C 230.37 128.10 224.63 129.58 218.82 130.74 C 218.40 128.82 217.97 126.89 217.54 124.97 Z" />
<path fill="#000000" opacity="1.00" d=" M 25.41 144.38 C 25.69 138.39 25.28 132.33 26.43 126.42 C 28.26 126.58 30.10 126.74 31.94 126.89 C 31.64 132.80 31.37 138.72 31.33 144.64 C 29.36 144.55 27.38 144.46 25.41 144.38 Z" />
<path fill="#000000" opacity="1.00" d=" M 194.29 129.52 C 200.21 128.47 206.07 127.02 212.05 126.30 C 212.28 128.22 212.52 130.15 212.76 132.07 C 206.99 133.10 201.22 134.17 195.49 135.42 C 195.08 133.45 194.68 131.49 194.29 129.52 Z" />
<path fill="#000000" opacity="1.00" d=" M 170.96 134.42 C 176.74 132.90 182.60 131.75 188.44 130.47 C 188.84 132.43 189.24 134.38 189.62 136.34 C 183.81 137.45 178.09 139.01 172.24 139.91 C 171.82 138.08 171.39 136.25 170.96 134.42 Z" />
<path fill="#000000" opacity="1.00" d=" M 148.14 144.11 C 153.30 140.53 159.10 138.02 165.08 136.14 C 165.65 138.04 166.23 139.94 166.80 141.84 C 161.45 143.43 156.33 145.79 151.71 148.93 C 150.50 147.33 149.31 145.73 148.14 144.11 Z" />
<path fill="#000000" opacity="1.00" d=" M 135.88 166.42 C 136.45 159.84 138.84 153.45 143.28 148.49 C 144.74 149.81 146.19 151.15 147.63 152.50 C 144.22 156.49 142.12 161.50 141.99 166.78 C 139.95 166.75 137.91 166.66 135.88 166.42 Z" />
<path fill="#000000" opacity="1.00" d=" M 25.32 150.46 C 27.31 150.48 29.31 150.49 31.30 150.50 C 31.31 156.42 31.40 162.33 31.55 168.25 C 29.58 168.27 27.62 168.29 25.66 168.32 C 25.45 162.37 25.35 156.42 25.32 150.46 Z" />
<path fill="#000000" opacity="1.00" d=" M 136.29 172.83 C 138.26 172.68 140.22 172.52 142.19 172.37 C 142.59 175.51 142.85 178.75 144.08 181.71 C 145.26 183.32 146.84 184.57 148.28 185.93 C 146.95 187.38 145.58 188.80 144.17 190.18 C 142.10 187.82 138.78 186.21 138.07 182.93 C 137.18 179.62 136.66 176.23 136.29 172.83 Z" />
<path fill="#000000" opacity="1.00" d=" M 26.11 174.36 C 28.10 174.27 30.08 174.19 32.06 174.11 C 32.10 179.99 32.63 185.84 33.29 191.67 C 31.32 191.88 29.36 192.10 27.39 192.31 C 26.57 186.36 26.28 180.36 26.11 174.36 Z" />
<path fill="#000000" opacity="1.00" d=" M 148.59 194.32 C 150.06 193.08 151.07 190.73 153.01 190.35 C 157.29 194.04 161.47 197.85 165.94 201.31 C 164.79 202.88 163.63 204.45 162.47 206.01 C 157.55 202.47 153.14 198.30 148.59 194.32 Z" />
<path fill="#000000" opacity="1.00" d=" M 28.07 198.10 C 29.93 197.87 31.79 197.68 33.66 197.51 C 34.40 203.43 35.12 209.35 35.84 215.27 C 33.89 215.47 31.94 215.67 29.99 215.88 C 29.17 209.97 28.23 204.07 28.07 198.10 Z" />
<path fill="#000000" opacity="1.00" d=" M 167.32 209.91 C 168.25 208.10 169.43 206.43 170.76 204.88 C 175.34 208.25 180.10 211.41 185.06 214.21 C 184.35 216.11 183.41 217.93 182.36 219.67 C 177.26 216.54 172.28 213.25 167.32 209.91 Z" />
<path fill="#000000" opacity="1.00" d=" M 187.68 222.30 C 188.62 220.54 189.59 218.80 190.63 217.11 C 195.69 219.64 201.02 221.62 206.54 222.90 C 206.05 224.83 205.56 226.76 205.08 228.70 C 199.07 227.20 193.18 225.16 187.68 222.30 Z" />
<path fill="#000000" opacity="1.00" d=" M 234.68 223.37 C 240.62 222.11 246.64 221.13 252.68 220.42 C 252.77 222.42 252.85 224.43 252.93 226.44 C 247.12 226.96 241.44 228.27 235.66 228.94 C 235.35 227.08 235.02 225.22 234.68 223.37 Z" />
<path fill="#000000" opacity="1.00" d=" M 31.02 221.87 C 32.90 221.61 34.78 221.34 36.66 221.08 C 37.58 226.90 38.59 232.71 39.74 238.49 C 37.77 238.86 35.81 239.23 33.84 239.59 C 33.00 233.66 31.38 227.86 31.02 221.87 Z" />
<path fill="#000000" opacity="1.00" d=" M 258.79 220.47 C 265.17 220.58 271.26 222.80 276.96 225.51 C 276.28 227.44 275.30 229.24 274.24 230.99 C 269.42 228.35 264.10 226.72 258.62 226.30 C 258.67 224.35 258.73 222.41 258.79 220.47 Z" />
<path fill="#000000" opacity="1.00" d=" M 211.87 224.25 C 217.64 224.65 223.42 224.79 229.18 224.20 C 229.32 226.19 229.46 228.18 229.60 230.17 C 223.49 230.57 217.35 230.70 211.25 230.04 C 211.46 228.11 211.67 226.18 211.87 224.25 Z" />
<path fill="#000000" opacity="1.00" d=" M 279.07 234.03 C 280.14 232.29 281.31 230.60 282.72 229.12 C 287.27 233.13 292.22 236.76 296.04 241.51 C 294.62 242.81 293.21 244.12 291.84 245.46 C 287.75 241.47 283.72 237.38 279.07 234.03 Z" />
<path fill="#000000" opacity="1.00" d=" M 34.98 245.42 C 36.98 245.02 38.99 244.68 41.01 244.44 C 41.74 250.22 43.34 255.85 44.69 261.51 C 42.76 262.11 40.78 262.54 38.77 262.83 C 37.63 257.00 36.03 251.27 34.98 245.42 Z" />
<path fill="#000000" opacity="1.00" d=" M 295.73 249.89 C 297.19 248.56 298.66 247.24 300.14 245.94 C 304.09 250.46 307.73 255.23 311.25 260.08 C 309.69 261.29 308.12 262.49 306.57 263.70 C 303.02 259.04 299.60 254.29 295.73 249.89 Z" />
<path fill="#000000" opacity="1.00" d=" M 309.96 268.40 C 311.55 267.28 313.15 266.17 314.77 265.09 C 315.88 266.74 316.99 268.39 318.11 270.04 C 317.57 270.57 316.49 271.63 315.95 272.16 C 316.73 271.98 318.27 271.64 319.05 271.47 C 322.03 276.44 324.43 281.76 325.84 287.40 C 323.89 287.84 321.94 288.27 320.00 288.71 C 318.43 281.17 314.10 274.73 309.96 268.40 Z" />
<path fill="#000000" opacity="1.00" d=" M 40.36 268.78 C 42.29 268.27 44.22 267.77 46.14 267.28 C 47.75 272.92 49.28 278.58 51.15 284.14 C 49.29 284.79 47.42 285.42 45.55 286.04 C 43.57 280.36 42.04 274.55 40.36 268.78 Z" />
<path fill="#000000" opacity="1.00" d=" M 47.44 291.79 C 49.31 291.10 51.19 290.46 53.10 289.90 C 54.99 295.40 57.17 300.79 59.58 306.08 C 57.75 306.89 55.92 307.70 54.09 308.48 C 51.71 302.99 49.45 297.44 47.44 291.79 Z" />
<path fill="#000000" opacity="1.00" d=" M 320.57 293.95 C 322.52 293.90 324.47 293.87 326.42 293.86 C 326.41 300.37 324.17 306.63 320.75 312.10 C 318.86 311.35 317.12 310.28 315.47 309.11 C 318.52 304.63 320.35 299.37 320.57 293.95 Z" />
<path fill="#000000" opacity="1.00" d=" M 56.78 314.02 C 58.55 313.11 60.32 312.20 62.09 311.30 C 64.54 316.45 67.59 321.26 70.77 325.98 C 69.73 327.63 67.63 328.40 66.11 329.61 C 62.62 324.65 59.48 319.45 56.78 314.02 Z" />
<path fill="#000000" opacity="1.00" d=" M 298.97 323.90 C 303.65 320.77 308.26 317.48 312.13 313.36 C 313.57 314.69 315.02 316.02 316.48 317.36 C 312.29 322.02 307.10 325.59 301.91 329.05 C 300.93 327.33 299.95 325.61 298.97 323.90 Z" />
<path fill="#000000" opacity="1.00" d=" M 277.98 333.88 C 283.45 331.95 288.60 329.25 293.92 326.97 C 294.85 328.66 295.78 330.35 296.73 332.04 C 291.30 334.79 285.79 337.39 280.05 339.42 C 279.37 337.57 278.67 335.72 277.98 333.88 Z" />
<path fill="#000000" opacity="1.00" d=" M 70.11 334.75 C 71.50 333.30 72.97 331.92 74.48 330.61 C 78.27 334.71 82.68 338.16 87.76 340.51 C 86.88 342.26 86.02 344.02 85.18 345.79 C 79.39 343.25 74.47 339.26 70.11 334.75 Z" />
<path fill="#000000" opacity="1.00" d=" M 255.63 340.92 C 261.34 339.41 266.98 337.64 272.64 335.93 C 273.26 337.82 273.73 339.76 273.98 341.74 C 268.36 343.43 262.78 345.26 257.05 346.56 C 256.60 344.67 256.12 342.79 255.63 340.92 Z" />
<path fill="#000000" opacity="1.00" d=" M 91.03 348.04 C 91.68 346.18 92.32 344.32 92.96 342.47 C 98.47 344.28 104.04 345.97 109.77 346.92 C 109.37 348.89 108.96 350.85 108.53 352.82 C 102.61 351.58 96.73 350.09 91.03 348.04 Z" />
<path fill="#000000" opacity="1.00" d=" M 232.70 345.87 C 238.50 344.74 244.30 343.60 250.08 342.38 C 250.46 344.28 250.88 346.17 251.35 348.06 C 245.51 349.53 239.58 350.54 233.69 351.74 C 233.36 349.78 233.03 347.83 232.70 345.87 Z" />
<path fill="#000000" opacity="1.00" d=" M 209.44 349.19 C 215.32 348.58 221.14 347.40 227.05 347.17 C 227.27 348.99 227.50 350.81 227.74 352.64 C 221.80 353.63 215.83 354.58 209.81 354.94 C 209.69 353.01 209.56 351.10 209.44 349.19 Z" />
<path fill="#000000" opacity="1.00" d=" M 115.54 348.06 C 121.18 349.23 126.93 349.65 132.66 350.22 C 132.67 352.27 132.59 354.33 132.43 356.39 C 126.48 355.66 120.53 354.87 114.58 354.09 C 114.85 352.07 115.17 350.06 115.54 348.06 Z" />
<path fill="#000000" opacity="1.00" d=" M 185.91 351.22 C 191.75 350.61 197.65 350.54 203.46 349.64 C 203.66 351.64 203.83 353.65 203.95 355.66 C 198.07 356.50 192.12 356.63 186.19 356.90 C 186.10 355.00 186.00 353.11 185.91 351.22 Z" />
<path fill="#000000" opacity="1.00" d=" M 138.81 350.82 C 144.68 351.37 150.58 351.54 156.47 351.63 C 156.42 353.57 156.36 355.52 156.32 357.48 C 150.31 357.43 144.29 357.38 138.32 356.62 C 138.49 354.68 138.65 352.75 138.81 350.82 Z" />
<path fill="#000000" opacity="1.00" d=" M 162.37 351.71 C 168.29 351.63 174.21 351.56 180.14 351.49 C 180.17 353.42 180.21 355.36 180.25 357.30 C 174.28 357.52 168.30 357.70 162.33 357.64 C 162.34 355.66 162.35 353.68 162.37 351.71 Z" />
</g>
</svg>
