<?xml version="1.0" encoding="UTF-8" ?>
<!DOCTYPE svg PUBLIC "-//W3C//DTD SVG 1.1//EN" "http://www.w3.org/Graphics/SVG/1.1/DTD/svg11.dtd">
<svg width="423pt" height="276pt" viewBox="0 0 423 276" version="1.1" xmlns="http://www.w3.org/2000/svg">
<g class="sprite" id="badge">
<g id="#000000ff">
<path fill="#000000" opacity="1.00" d=" M 0.00 0.00 L 45.00 0.00 C 45.00 3.33 45.00 6.67 45.00 10.00 C 33.33 10.00 21.67 10.00 10.00 10.00 C 10.00 17.67 10.00 25.33 10.00 33.00 C 6.67 33.00 3.33 33.00 0.00 33.00 L 0.00 0.00 Z" />
<path fill="#000000" opacity="1.00" d=" M 75.00 0.00 L 115.00 0.00 C 115.00 3.33 115.00 6.67 115.00 10.00 C 101.67 10.00 88.33 10.00 75.00 10.00 C 75.00 6.67 75.00 3.33 75.00 0.00 Z" />
<path fill="#000000" opacity="1.00" d=" M 145.00 0.00 L 185.00 0.00 C 185.00 3.33 185.00 6.67 185.00 10.00 C 171.67 10.00 158.33 10.00 145.00 10.00 C 145.00 6.67 145.00 3.33 145.00 0.00 Z" />
<path fill="#000000" opacity="1.00" d=" M 215.00 0.00 L 255.00 0.00 C 255.00 3.33 255.00 6.67 255.00 10.00 C 241.67 10.00 228.33 10.00 215.00 10.00 C 215.00 6.67 215.00 3.33 215.00 0.00 Z" />
<path fill="#000000" opacity="1.00" d=" M 285.00 0.00 L 325.00 0.00 C 325.00 3.33 325.00 6.66 325.00 10.00 C 311.67 10.00 298.33 10.00 285.00 10.00 C 285.00 6.67 285.00 3.33 285.00 0.00 Z" />
<path fill="#000000" opacity="1.00" d=" M 355.00 0.00 L 395.00 0.00 C 395.00 3.33 395.00 6.66 395.00 10.00 C 381.67 10.00 368.33 10.00 355.00 10.00 C 355.00 6.67 355.00 3.33 355.00 0.00 Z" />
<path fill="#000000" opacity="1.00" d=" M 413.00 12.00 C 416.33 12.00 419.66 12.00 423.00 12.00 L 423.00 52.00 C 419.66 52.00 416.33 52.00 413.00 52.00 C 413.00 38.67 413.00 25.33 413.00 12.00 Z" />
<path fill="#000000" opacity="1.00" d=" M 96.90 42.88 C 102.92 39.62 109.59 37.69 116.41 37.16 C 116.46 37.95 116.54 39.53 116.59 40.32 C 116.64 41.37 116.70 42.42 116.77 43.47 C 110.82 44.11 104.99 45.75 99.70 48.58 C 99.23 47.63 98.76 46.68 98.29 45.73 C 97.82 44.78 97.36 43.83 96.90 42.88 Z" />
<path fill="#000000" opacity="1.00" d=" M 123.36 37.08 C 130.09 37.79 136.67 39.64 142.68 42.77 C 142.33 43.48 141.64 44.92 141.29 45.64 C 140.84 46.58 140.39 47.52 139.95 48.47 C 134.53 45.75 128.66 44.07 122.64 43.42 C 122.72 42.65 122.89 41.11 122.98 40.35 C 123.08 39.53 123.27 37.90 123.36 37.08 Z" />
<path fill="#000000" opacity="1.00" d=" M 285.91 42.85 C 291.94 39.64 298.60 37.68 305.41 37.16 C 305.46 37.95 305.55 39.53 305.59 40.32 C 305.64 41.37 305.70 42.42 305.77 43.47 C 299.81 44.11 293.98 45.75 288.70 48.58 C 288.22 47.63 287.76 46.68 287.30 45.73 C 286.83 44.77 286.36 43.81 285.91 42.85 Z" />
<path fill="#000000" opacity="1.00" d=" M 312.36 37.08 C 319.08 37.79 325.67 39.64 331.68 42.77 C 331.33 43.48 330.64 44.92 330.30 45.63 C 329.84 46.58 329.39 47.52 328.95 48.47 C 323.53 45.75 317.66 44.08 311.64 43.42 C 311.72 42.65 311.89 41.11 311.98 40.35 C 312.08 39.53 312.27 37.90 312.36 37.08 Z" />
<path fill="#000000" opacity="1.00" d=" M 77.59 61.87 C 81.03 56.00 85.47 50.67 91.02 46.68 C 91.87 47.78 92.74 48.88 93.57 50.00 C 93.88 50.42 94.50 51.27 94.81 51.69 C 89.95 55.24 86.42 60.11 82.91 64.90 C 82.01 64.48 81.14 64.03 80.28 63.53 C 79.38 62.99 78.48 62.44 77.59 61.87 Z" />
<path fill="#000000" opacity="1.00" d=" M 148.34 46.69 C 154.18 50.25 158.49 55.85 161.92 61.68 C 160.95 62.49 159.19 62.97 159.77 64.57 C 159.62 64.27 159.32 63.69 159.17 63.39 C 158.30 63.92 157.43 64.45 156.57 64.98 C 153.48 59.90 149.63 55.28 144.84 51.73 C 145.17 51.25 145.82 50.30 146.14 49.82 C 146.87 48.78 147.60 47.74 148.34 46.69 Z" />
<path fill="#000000" opacity="1.00" d=" M 266.60 61.85 C 270.03 55.98 274.49 50.69 280.00 46.67 C 280.90 47.82 281.80 48.97 282.68 50.15 C 282.96 50.54 283.53 51.31 283.81 51.69 C 279.06 55.36 275.10 59.95 272.05 65.11 C 271.14 64.57 270.23 64.02 269.32 63.48 C 268.41 62.94 267.50 62.39 266.60 61.85 Z" />
<path fill="#000000" opacity="1.00" d=" M 337.40 46.71 C 343.19 50.31 347.54 55.85 350.91 61.70 C 349.93 62.51 348.14 63.00 348.79 64.61 C 348.64 64.31 348.33 63.70 348.18 63.40 C 347.30 63.92 346.42 64.44 345.55 64.96 C 342.50 59.93 338.69 55.33 333.94 51.81 C 334.25 51.35 334.85 50.42 335.16 49.96 C 335.94 48.91 336.66 47.80 337.40 46.71 Z" />
<path fill="#000000" opacity="1.00" d=" M 0.00 63.00 C 3.33 63.00 6.67 63.00 10.00 63.00 C 10.00 76.33 10.00 89.67 10.00 103.00 C 6.67 103.00 3.33 103.00 0.00 103.00 L 0.00 63.00 Z" />
<path fill="#000000" opacity="1.00" d=" M 71.71 92.02 C 70.93 83.96 71.71 75.73 74.66 68.14 C 75.39 68.41 76.84 68.95 77.57 69.22 C 78.59 69.60 79.61 69.98 80.63 70.36 C 78.18 77.05 77.31 84.22 77.92 91.30 C 76.96 91.43 75.99 91.54 75.03 91.66 C 74.20 91.75 72.54 91.93 71.71 92.02 Z" />
<path fill="#000000" opacity="1.00" d=" M 162.04 69.15 C 162.80 68.89 164.32 68.38 165.08 68.13 C 167.30 74.53 168.68 81.31 168.27 88.11 C 167.09 88.08 164.73 88.04 163.55 88.01 L 165.96 86.96 C 164.66 87.13 163.36 87.27 162.06 87.38 L 161.57 87.34 C 162.36 81.48 160.82 75.70 159.10 70.16 C 160.08 69.82 161.06 69.48 162.04 69.15 Z" />
<path fill="#000000" opacity="1.00" d=" M 260.71 92.03 C 259.93 83.96 260.71 75.73 263.66 68.14 C 264.39 68.41 265.84 68.95 266.57 69.22 C 267.58 69.60 268.60 69.98 269.63 70.37 C 267.27 77.04 266.09 84.21 267.14 91.26 C 266.10 91.40 265.06 91.53 264.03 91.66 C 263.20 91.75 261.54 91.94 260.71 92.03 Z" />
<path fill="#000000" opacity="1.00" d=" M 351.04 69.14 C 351.80 68.89 353.32 68.38 354.08 68.12 C 356.35 74.46 357.50 81.18 357.37 87.91 C 356.52 88.00 354.82 88.17 353.97 88.26 C 353.94 90.22 353.88 92.18 353.75 94.14 C 354.42 94.32 355.78 94.68 356.46 94.86 C 355.32 100.77 352.96 106.34 350.05 111.59 C 351.68 112.44 353.31 113.30 354.95 114.16 C 353.91 116.05 352.84 117.92 351.74 119.77 C 348.87 118.17 345.95 116.65 343.03 115.15 C 344.05 114.09 345.04 113.02 346.01 111.93 C 345.35 111.44 344.03 110.48 343.37 110.00 C 346.50 105.16 348.86 99.83 350.06 94.19 C 350.83 94.17 352.38 94.13 353.15 94.11 C 353.29 92.03 353.50 89.95 353.78 87.88 C 353.05 87.85 351.57 87.78 350.83 87.74 C 351.07 81.75 350.01 75.82 348.10 70.15 C 349.08 69.81 350.06 69.48 351.04 69.14 Z" />
<path fill="#000000" opacity="1.00" d=" M 413.00 82.00 C 416.33 82.00 419.66 82.00 423.00 82.00 L 423.00 122.00 C 419.66 122.00 416.33 122.00 413.00 122.00 C 413.00 108.67 413.00 95.33 413.00 82.00 Z" />
<path fill="#000000" opacity="1.00" d=" M 154.37 110.00 C 157.42 105.32 159.64 100.16 161.02 94.75 C 163.19 94.78 165.36 94.69 167.53 94.63 C 166.34 100.57 164.08 106.23 161.08 111.48 C 162.74 112.45 164.38 113.45 165.99 114.51 C 164.88 116.24 163.79 117.99 162.70 119.74 C 159.84 118.16 156.94 116.65 154.04 115.14 C 155.05 114.09 156.04 113.02 157.00 111.92 C 156.35 111.44 155.03 110.48 154.37 110.00 Z" />
<path fill="#000000" opacity="1.00" d=" M 76.27 97.94 C 77.27 97.68 78.27 97.42 79.27 97.17 C 81.05 102.76 83.72 108.04 87.36 112.66 C 86.85 113.16 85.84 114.16 85.33 114.66 L 85.55 115.34 C 81.94 117.18 78.40 119.14 74.91 121.19 C 73.71 119.45 72.52 117.70 71.34 115.95 C 73.83 114.47 76.32 112.98 78.78 111.43 C 76.28 107.51 74.45 103.20 73.16 98.74 C 74.20 98.47 75.24 98.21 76.27 97.94 Z" />
<path fill="#000000" opacity="1.00" d=" M 265.28 97.94 C 266.27 97.68 267.27 97.42 268.27 97.16 C 270.04 102.72 272.68 107.99 276.30 112.57 C 275.60 113.44 274.90 114.31 274.22 115.20 C 270.93 117.45 267.31 119.13 263.91 121.19 C 262.71 119.45 261.52 117.70 260.34 115.96 C 262.82 114.46 265.30 112.98 267.78 111.48 C 265.30 107.53 263.48 103.22 262.14 98.76 C 263.18 98.49 264.23 98.21 265.28 97.94 Z" />
<path fill="#000000" opacity="1.00" d=" M 136.13 124.79 C 141.48 122.32 146.39 118.95 150.52 114.73 C 150.93 115.14 151.76 115.94 152.18 116.34 C 153.15 117.27 154.20 118.11 155.21 118.99 C 150.53 124.04 144.73 127.84 138.54 130.78 C 138.10 129.71 137.66 128.63 137.23 127.56 C 136.95 126.87 136.40 125.49 136.13 124.79 Z" />
<path fill="#000000" opacity="1.00" d=" M 325.13 124.79 C 330.49 122.32 335.39 118.95 339.52 114.73 C 339.93 115.13 340.76 115.94 341.17 116.34 C 342.15 117.27 343.19 118.11 344.22 118.99 C 339.52 124.04 333.72 127.87 327.50 130.78 C 327.07 129.70 326.64 128.63 326.22 127.56 C 325.95 126.87 325.41 125.48 325.13 124.79 Z" />
<path fill="#000000" opacity="1.00" d=" M 89.47 119.48 C 90.19 118.69 90.92 117.90 91.66 117.12 C 96.14 121.07 101.38 124.09 107.02 126.04 C 106.67 127.05 106.31 128.08 105.95 129.09 C 105.68 129.82 105.14 131.28 104.87 132.01 C 98.38 129.87 92.45 126.31 87.29 121.86 C 87.83 121.27 88.92 120.08 89.47 119.48 Z" />
<path fill="#000000" opacity="1.00" d=" M 278.47 119.48 C 279.19 118.69 279.92 117.90 280.66 117.12 C 285.14 121.07 290.38 124.09 296.02 126.04 C 295.66 127.05 295.31 128.08 294.95 129.09 C 294.68 129.82 294.14 131.28 293.87 132.01 C 287.38 129.88 281.45 126.31 276.29 121.86 C 276.84 121.26 277.92 120.07 278.47 119.48 Z" />
<path fill="#000000" opacity="1.00" d=" M 167.82 123.09 C 169.09 121.38 170.37 119.68 171.69 118.00 C 176.96 122.03 181.97 126.48 186.04 131.76 C 184.39 133.08 182.73 134.41 181.09 135.74 C 177.30 130.90 172.68 126.81 167.82 123.09 Z" />
<path fill="#000000" opacity="1.00" d=" M 356.83 123.09 C 358.09 121.37 359.38 119.67 360.72 118.00 C 365.96 122.06 370.99 126.47 375.04 131.76 C 373.38 133.09 371.73 134.41 370.09 135.74 C 366.31 130.90 361.68 126.82 356.83 123.09 Z" />
<path fill="#000000" opacity="1.00" d=" M 52.08 134.13 C 56.12 128.84 60.66 123.90 65.99 119.89 C 67.32 121.55 68.64 123.21 69.95 124.88 C 65.05 128.59 60.90 133.16 57.13 137.99 C 55.45 136.69 53.76 135.41 52.08 134.13 Z" />
<path fill="#000000" opacity="1.00" d=" M 241.08 134.13 C 245.11 128.83 249.67 123.92 254.98 119.88 C 256.31 121.54 257.63 123.21 258.94 124.89 C 254.05 128.60 249.89 133.14 246.15 137.99 C 244.46 136.70 242.77 135.42 241.08 134.13 Z" />
<path fill="#000000" opacity="1.00" d=" M 112.64 127.45 C 118.57 128.16 124.62 128.12 130.44 126.66 C 130.61 127.47 130.93 129.07 131.09 129.87 L 132.46 128.59 C 132.46 128.75 132.46 129.08 132.46 129.24 C 132.36 130.55 131.74 131.76 131.45 133.04 C 124.95 134.40 118.16 135.03 111.62 133.55 C 111.75 132.81 112.01 131.31 112.14 130.57 C 112.27 129.79 112.51 128.23 112.64 127.45 Z" />
<path fill="#000000" opacity="1.00" d=" M 301.64 127.45 C 307.57 128.15 313.63 128.12 319.46 126.66 C 319.61 127.47 319.91 129.10 320.07 129.92 L 321.41 128.57 C 321.42 128.74 321.44 129.08 321.45 129.25 C 321.38 130.56 320.72 131.76 320.45 133.04 C 313.94 134.40 307.16 135.03 300.62 133.56 C 300.75 132.81 301.01 131.32 301.14 130.57 C 301.27 129.79 301.51 128.23 301.64 127.45 Z" />
<path fill="#000000" opacity="1.00" d=" M 0.00 133.00 C 3.33 133.00 6.67 133.00 10.00 133.00 C 10.00 146.33 10.00 159.67 10.00 173.00 C 6.67 173.00 3.33 173.00 0.00 173.00 L 0.00 133.00 Z" />
<path fill="#000000" opacity="1.00" d=" M 184.97 140.93 C 186.28 139.24 188.30 138.33 190.01 137.11 C 193.54 142.86 196.58 149.01 198.04 155.64 C 196.01 156.14 193.98 156.62 191.94 157.08 C 190.50 151.34 187.77 146.09 184.97 140.93 Z" />
<path fill="#000000" opacity="1.00" d=" M 373.96 140.91 C 375.30 139.25 377.29 138.32 379.01 137.11 C 382.56 142.84 385.51 149.01 387.08 155.59 C 385.04 156.11 383.00 156.62 380.94 157.09 C 379.50 151.34 376.77 146.08 373.96 140.91 Z" />
<path fill="#000000" opacity="1.00" d=" M 48.29 139.87 C 50.18 140.88 52.04 141.96 53.89 143.06 C 50.93 148.35 48.71 154.03 47.40 159.95 C 45.31 159.47 43.21 158.99 41.12 158.50 C 42.65 151.99 45.09 145.74 48.29 139.87 Z" />
<path fill="#000000" opacity="1.00" d=" M 237.30 139.87 C 239.18 140.88 241.03 141.95 242.88 143.02 C 239.95 148.34 237.71 154.01 236.41 159.94 C 234.31 159.47 232.22 159.00 230.13 158.52 C 231.63 152.00 234.08 145.74 237.30 139.87 Z" />
<path fill="#000000" opacity="1.00" d=" M 413.00 152.00 C 416.33 152.00 419.66 152.00 423.00 152.00 L 423.00 192.00 C 419.66 192.00 416.33 192.00 413.00 192.00 C 413.00 178.67 413.00 165.33 413.00 152.00 Z" />
<path fill="#000000" opacity="1.00" d=" M 193.21 163.11 C 195.30 162.78 197.40 162.47 199.50 162.18 C 200.21 168.70 199.98 175.26 199.99 181.81 C 197.86 181.81 195.73 181.81 193.60 181.82 C 193.50 175.58 193.76 169.33 193.21 163.11 Z" />
<path fill="#000000" opacity="1.00" d=" M 382.22 163.10 C 384.31 162.77 386.40 162.47 388.50 162.18 C 389.22 168.70 388.97 175.26 388.99 181.81 C 386.85 181.81 384.72 181.81 382.59 181.82 C 382.51 175.58 382.75 169.33 382.22 163.10 Z" />
<path fill="#000000" opacity="1.00" d=" M 40.13 165.40 C 42.28 165.51 44.43 165.63 46.58 165.78 C 46.35 172.05 46.40 178.33 46.46 184.61 C 44.32 184.66 42.17 184.70 40.03 184.74 C 39.97 178.29 39.97 171.85 40.13 165.40 Z" />
<path fill="#000000" opacity="1.00" d=" M 229.13 165.40 C 231.28 165.51 233.42 165.63 235.57 165.78 C 235.35 172.05 235.40 178.34 235.46 184.62 C 233.31 184.66 231.16 184.69 229.02 184.73 C 228.98 178.28 228.96 171.84 229.13 165.40 Z" />
<path fill="#000000" opacity="1.00" d=" M 193.64 188.21 C 195.75 188.23 197.86 188.24 199.97 188.24 C 200.03 194.61 199.99 200.98 200.00 207.35 C 197.85 207.35 195.70 207.35 193.56 207.35 C 193.61 200.97 193.49 194.59 193.64 188.21 Z" />
<path fill="#000000" opacity="1.00" d=" M 382.59 188.24 C 384.71 188.24 386.84 188.24 388.98 188.23 C 389.02 194.61 388.99 200.98 389.00 207.35 C 386.85 207.35 384.70 207.35 382.56 207.35 C 382.58 200.98 382.55 194.61 382.59 188.24 Z" />
<path fill="#000000" opacity="1.00" d=" M 40.01 191.14 C 42.15 191.14 44.28 191.14 46.41 191.15 C 46.42 197.53 46.43 203.91 46.41 210.29 C 44.28 210.29 42.15 210.29 40.02 210.29 C 39.99 203.91 39.99 197.52 40.01 191.14 Z" />
<path fill="#000000" opacity="1.00" d=" M 229.01 191.14 C 231.14 191.14 233.28 191.14 235.41 191.14 C 235.42 197.53 235.43 203.91 235.41 210.29 C 233.28 210.29 231.14 210.29 229.02 210.29 C 228.99 203.91 228.99 197.52 229.01 191.14 Z" />
<path fill="#000000" opacity="1.00" d=" M 0.00 203.00 C 3.33 203.00 6.67 203.00 10.00 203.00 C 10.00 216.33 10.00 229.67 10.00 243.00 C 6.67 243.00 3.33 243.00 0.00 243.00 L 0.00 203.00 Z" />
<path fill="#000000" opacity="1.00" d=" M 193.58 213.71 C 195.71 213.70 197.85 213.70 199.98 213.71 C 200.02 220.09 199.99 226.48 200.00 232.87 C 199.19 232.88 197.58 232.89 196.77 232.90 C 196.77 234.93 196.77 236.95 196.77 238.99 C 190.37 239.01 183.97 238.99 177.57 239.00 C 177.56 236.86 177.56 234.73 177.56 232.59 C 182.90 232.59 188.24 232.59 193.58 232.59 C 193.57 226.30 193.56 220.00 193.58 213.71 Z" />
<path fill="#000000" opacity="1.00" d=" M 382.58 213.70 C 384.71 213.70 386.84 213.70 388.98 213.70 C 389.02 220.09 388.99 226.48 389.00 232.88 C 388.19 232.88 386.58 232.90 385.77 232.90 C 385.76 234.93 385.77 236.95 385.78 238.98 C 379.37 239.02 372.97 238.99 366.57 239.00 C 366.56 236.86 366.56 234.73 366.56 232.59 C 371.90 232.59 377.24 232.59 382.58 232.59 C 382.57 226.30 382.55 220.00 382.58 213.70 Z" />
<path fill="#000000" opacity="1.00" d=" M 40.00 216.62 C 42.14 216.61 44.28 216.61 46.41 216.61 C 46.39 223.01 46.50 229.41 46.34 235.81 C 44.24 235.79 42.13 235.78 40.02 235.78 C 39.98 229.39 40.01 223.00 40.00 216.62 Z" />
<path fill="#000000" opacity="1.00" d=" M 229.00 216.61 C 231.14 216.61 233.27 216.61 235.41 216.61 C 235.40 223.01 235.47 229.40 235.37 235.80 C 233.25 235.78 231.13 235.77 229.01 235.77 C 228.99 229.39 229.00 223.00 229.00 216.61 Z" />
<path fill="#000000" opacity="1.00" d=" M 413.00 222.00 C 416.33 222.00 419.66 222.00 423.00 222.00 L 423.00 262.00 C 419.66 262.00 416.33 262.00 413.00 262.00 C 413.00 248.67 413.00 235.33 413.00 222.00 Z" />
<path fill="#000000" opacity="1.00" d=" M 49.60 232.59 C 55.94 232.57 62.27 232.66 68.61 232.52 C 68.69 234.67 68.75 236.82 68.79 238.97 C 62.40 239.03 56.00 238.99 49.60 239.00 C 49.60 236.86 49.60 234.72 49.60 232.59 Z" />
<path fill="#000000" opacity="1.00" d=" M 75.21 232.62 C 81.60 232.56 87.99 232.60 94.37 232.59 C 94.37 234.72 94.38 236.86 94.38 239.00 C 87.99 238.99 81.60 239.03 75.21 238.97 C 75.21 236.85 75.21 234.73 75.21 232.62 Z" />
<path fill="#000000" opacity="1.00" d=" M 100.74 232.60 C 107.12 232.60 113.49 232.57 119.87 232.62 C 119.86 234.74 119.86 236.86 119.86 238.98 C 113.49 239.02 107.11 239.00 100.74 239.00 C 100.74 236.86 100.74 234.73 100.74 232.60 Z" />
<path fill="#000000" opacity="1.00" d=" M 126.32 238.95 C 126.36 236.82 126.39 234.69 126.43 232.56 C 132.79 232.61 139.15 232.60 145.51 232.58 C 145.55 234.68 145.58 236.78 145.64 238.89 C 139.20 239.10 132.76 239.00 126.32 238.95 Z" />
<path fill="#000000" opacity="1.00" d=" M 151.88 232.62 C 158.33 232.57 164.79 232.58 171.24 232.61 C 171.24 234.73 171.24 236.84 171.24 238.96 C 164.79 239.01 158.33 239.05 151.87 238.94 C 151.88 236.83 151.88 234.72 151.88 232.62 Z" />
<path fill="#000000" opacity="1.00" d=" M 238.60 232.59 C 244.99 232.62 251.38 232.52 257.76 232.66 C 257.75 234.76 257.74 236.86 257.75 238.96 C 251.37 239.04 244.99 238.99 238.60 239.00 C 238.60 236.86 238.60 234.72 238.60 232.59 Z" />
<path fill="#000000" opacity="1.00" d=" M 264.17 238.98 C 264.21 236.82 264.26 234.67 264.35 232.52 C 270.69 232.67 277.03 232.56 283.38 232.59 C 283.37 234.73 283.37 236.86 283.38 239.00 C 276.97 238.99 270.57 239.02 264.17 238.98 Z" />
<path fill="#000000" opacity="1.00" d=" M 289.74 232.60 C 296.11 232.59 302.49 232.58 308.86 232.60 C 308.86 234.72 308.86 236.85 308.87 238.98 C 302.49 239.01 296.12 239.00 289.74 239.00 C 289.74 236.86 289.74 234.73 289.74 232.60 Z" />
<path fill="#000000" opacity="1.00" d=" M 315.32 238.96 C 315.36 236.82 315.39 234.69 315.43 232.56 C 321.79 232.61 328.15 232.60 334.51 232.57 C 334.54 234.69 334.57 236.80 334.62 238.93 C 328.19 239.06 321.75 239.01 315.32 238.96 Z" />
<path fill="#000000" opacity="1.00" d=" M 340.88 232.62 C 347.33 232.57 353.78 232.58 360.24 232.61 C 360.24 234.73 360.24 236.84 360.24 238.96 C 353.79 239.01 347.33 239.05 340.87 238.94 C 340.87 236.83 340.87 234.72 340.88 232.62 Z" />
<path fill="#000000" opacity="1.00" d=" M 7.00 266.00 C 20.33 266.00 33.67 266.00 47.00 266.00 C 47.00 269.33 47.00 272.67 47.00 276.00 L 7.00 276.00 C 7.00 272.67 7.00 269.33 7.00 266.00 Z" />
<path fill="#000000" opacity="1.00" d=" M 77.00 266.00 C 90.33 266.00 103.67 266.00 117.00 266.00 C 117.00 269.33 117.00 272.67 117.00 276.00 L 77.00 276.00 C 77.00 272.67 77.00 269.33 77.00 266.00 Z" />
<path fill="#000000" opacity="1.00" d=" M 147.00 266.00 C 160.33 266.00 173.67 266.00 187.00 266.00 C 187.00 269.33 187.00 272.67 187.00 276.00 L 147.00 276.00 C 147.00 272.67 147.00 269.33 147.00 266.00 Z" />
<path fill="#000000" opacity="1.00" d=" M 217.00 266.00 C 230.33 266.00 243.67 266.00 257.00 266.00 C 257.00 269.33 257.00 272.67 257.00 276.00 L 217.00 276.00 C 217.00 272.67 217.00 269.33 217.00 266.00 Z" />
<path fill="#000000" opacity="1.00" d=" M 287.00 266.00 C 300.33 266.00 313.67 266.00 327.00 266.00 C 327.00 269.33 327.00 272.67 327.00 276.00 L 287.00 276.00 C 287.00 272.67 287.00 269.33 287.00 266.00 Z" />
<path fill="#000000" opacity="1.00" d=" M 357.00 266.00 C 370.33 266.00 383.67 266.00 397.00 266.00 C 397.00 269.33 397.00 272.67 397.00 276.00 L 357.00 276.00 C 357.00 272.67 357.00 269.33 357.00 266.00 Z" />
</g>
</g>
<g class="sprite" id="icon">
<g id="#ffffffff">
<path fill="#ffffff" opacity="1.00" d=" M 0.00 0.00 L 45.00 0.00 C 45.00 3.33 45.00 6.67 45.00 10.00 C 33.33 10.00 21.67 10.00 10.00 10.00 C 10.00 17.67 10.00 25.33 10.00 33.00 C 6.67 33.00 3.33 33.00 0.00 33.00 L 0.00 0.00 Z" />
<path fill="#ffffff" opacity="1.00" d=" M 75.00 0.00 L 115.00 0.00 C 115.00 3.33 115.00 6.67 115.00 10.00 C 101.67 10.00 88.33 10.00 75.00 10.00 C 75.00 6.67 75.00 3.33 75.00 0.00 Z" />
<path fill="#ffffff" opacity="1.00" d=" M 145.00 0.00 L 185.00 0.00 C 185.00 3.33 185.00 6.67 185.00 10.00 C 171.67 10.00 158.33 10.00 145.00 10.00 C 145.00 6.67 145.00 3.33 145.00 0.00 Z" />
<path fill="#ffffff" opacity="1.00" d=" M 215.00 0.00 L 255.00 0.00 C 255.00 3.33 255.00 6.67 255.00 10.00 C 241.67 10.00 228.33 10.00 215.00 10.00 C 215.00 6.67 215.00 3.33 215.00 0.00 Z" />
<path fill="#ffffff" opacity="1.00" d=" M 285.00 0.00 L 325.00 0.00 C 325.00 3.33 325.00 6.66 325.00 10.00 C 311.67 10.00 298.33 10.00 285.00 10.00 C 285.00 6.67 285.00 3.33 285.00 0.00 Z" />
<path fill="#ffffff" opacity="1.00" d=" M 355.00 0.00 L 395.00 0.00 C 395.00 3.33 395.00 6.66 395.00 10.00 C 381.67 10.00 368.33 10.00 355.00 10.00 C 355.00 6.67 355.00 3.33 355.00 0.00 Z" />
<path fill="#ffffff" opacity="1.00" d=" M 413.00 12.00 C 416.33 12.00 419.66 12.00 423.00 12.00 L 423.00 52.00 C 419.66 52.00 416.33 52.00 413.00 52.00 C 413.00 38.67 413.00 25.33 413.00 12.00 Z" />
<path fill="#ffffff" opacity="1.00" d=" M 96.90 42.88 C 102.92 39.62 109.59 37.69 116.41 37.16 C 116.46 37.95 116.54 39.53 116.59 40.32 C 116.64 41.37 116.70 42.42 116.77 43.47 C 110.82 44.11 104.99 45.75 99.70 48.58 C 99.23 47.63 98.76 46.68 98.29 45.73 C 97.82 44.78 97.36 43.83 96.90 42.88 Z" />
<path fill="#ffffff" opacity="1.00" d=" M 123.36 37.08 C 130.09 37.79 136.67 39.64 142.68 42.77 C 142.33 43.48 141.64 44.92 141.29 45.64 C 140.84 46.58 140.39 47.52 139.95 48.47 C 134.53 45.75 128.66 44.07 122.64 43.42 C 122.72 42.65 122.89 41.11 122.98 40.35 C 123.08 39.53 123.27 37.90 123.36 37.08 Z" />
<path fill="#ffffff" opacity="1.00" d=" M 285.91 42.85 C 291.94 39.64 298.60 37.68 305.41 37.16 C 305.46 37.95 305.55 39.53 305.59 40.32 C 305.64 41.37 305.70 42.42 305.77 43.47 C 299.81 44.11 293.98 45.75 288.70 48.58 C 288.22 47.63 287.76 46.68 287.30 45.73 C 286.83 44.77 286.36 43.81 285.91 42.85 Z" />
<path fill="#ffffff" opacity="1.00" d=" M 312.36 37.08 C 319.08 37.79 325.67 39.64 331.68 42.77 C 331.33 43.48 330.64 44.92 330.30 45.63 C 329.84 46.58 329.39 47.52 328.95 48.47 C 323.53 45.75 317.66 44.08 311.64 43.42 C 311.72 42.65 311.89 41.11 311.98 40.35 C 312.08 39.53 312.27 37.90 312.36 37.08 Z" />
<path fill="#ffffff" opacity="1.00" d=" M 77.59 61.87 C 81.03 56.00 85.47 50.67 91.02 46.68 C 91.87 47.78 92.74 48.88 93.57 50.00 C 93.88 50.42 94.50 51.27 94.81 51.69 C 89.95 55.24 86.42 60.11 82.91 64.90 C 82.01 64.48 81.14 64.03 80.28 63.53 C 79.38 62.99 78.48 62.44 77.59 61.87 Z" />
<path fill="#ffffff" opacity="1.00" d=" M 148.34 46.69 C 154.18 50.25 158.49 55.85 161.92 61.68 C 160.95 62.49 159.19 62.97 159.77 64.57 C 159.62 64.27 159.32 63.69 159.17 63.39 C 158.30 63.92 157.43 64.45 156.57 64.98 C 153.48 59.90 149.63 55.28 144.84 51.73 C 145.17 51.25 145.82 50.30 146.14 49.82 C 146.87 48.78 147.60 47.74 148.34 46.69 Z" />
<path fill="#ffffff" opacity="1.00" d=" M 266.60 61.85 C 270.03 55.98 274.49 50.69 280.00 46.67 C 280.90 47.82 281.80 48.97 282.68 50.15 C 282.96 50.54 283.53 51.31 283.81 51.69 C 279.06 55.36 275.10 59.95 272.05 65.11 C 271.14 64.57 270.23 64.02 269.32 63.48 C 268.41 62.94 267.50 62.39 266.60 61.85 Z" />
<path fill="#ffffff" opacity="1.00" d=" M 337.40 46.71 C 343.19 50.31 347.54 55.85 350.91 61.70 C 349.93 62.51 348.14 63.00 348.79 64.61 C 348.64 64.31 348.33 63.70 348.18 63.40 C 347.30 63.92 346.42 64.44 345.55 64.96 C 342.50 59.93 338.69 55.33 333.94 51.81 C 334.25 51.35 334.85 50.42 335.16 49.96 C 335.94 48.91 336.66 47.80 337.40 46.71 Z" />
<path fill="#ffffff" opacity="1.00" d=" M 0.00 63.00 C 3.33 63.00 6.67 63.00 10.00 63.00 C 10.00 76.33 10.00 89.67 10.00 103.00 C 6.67 103.00 3.33 103.00 0.00 103.00 L 0.00 63.00 Z" />
<path fill="#ffffff" opacity="1.00" d=" M 71.71 92.02 C 70.93 83.96 71.71 75.73 74.66 68.14 C 75.39 68.41 76.84 68.95 77.57 69.22 C 78.59 69.60 79.61 69.98 80.63 70.36 C 78.18 77.05 77.31 84.22 77.92 91.30 C 76.96 91.43 75.99 91.54 75.03 91.66 C 74.20 91.75 72.54 91.93 71.71 92.02 Z" />
<path fill="#ffffff" opacity="1.00" d=" M 162.04 69.15 C 162.80 68.89 164.32 68.38 165.08 68.13 C 167.30 74.53 168.68 81.31 168.27 88.11 C 167.09 88.08 164.73 88.04 163.55 88.01 L 165.96 86.96 C 164.66 87.13 163.36 87.27 162.06 87.38 L 161.57 87.34 C 162.36 81.48 160.82 75.70 159.10 70.16 C 160.08 69.82 161.06 69.48 162.04 69.15 Z" />
<path fill="#ffffff" opacity="1.00" d=" M 260.71 92.03 C 259.93 83.96 260.71 75.73 263.66 68.14 C 264.39 68.41 265.84 68.95 266.57 69.22 C 267.58 69.60 268.60 69.98 269.63 70.37 C 267.27 77.04 266.09 84.21 267.14 91.26 C 266.10 91.40 265.06 91.53 264.03 91.66 C 263.20 91.75 261.54 91.94 260.71 92.03 Z" />
<path fill="#ffffff" opacity="1.00" d=" M 351.04 69.14 C 351.80 68.89 353.32 68.38 354.08 68.12 C 356.35 74.46 357.50 81.18 357.37 87.91 C 356.52 88.00 354.82 88.17 353.97 88.26 C 353.94 90.22 353.88 92.18 353.75 94.14 C 354.42 94.32 355.78 94.68 356.46 94.86 C 355.32 100.77 352.96 106.34 350.05 111.59 C 351.68 112.44 353.31 113.30 354.95 114.16 C 353.91 116.05 352.84 117.92 351.74 119.77 C 348.87 118.17 345.95 116.65 343.03 115.15 C 344.05 114.09 345.04 113.02 346.01 111.93 C 345.35 111.44 344.03 110.48 343.37 110.00 C 346.50 105.16 348.86 99.83 350.06 94.19 C 350.83 94.17 352.38 94.13 353.15 94.11 C 353.29 92.03 353.50 89.95 353.78 87.88 C 353.05 87.85 351.57 87.78 350.83 87.74 C 351.07 81.75 350.01 75.82 348.10 70.15 C 349.08 69.81 350.06 69.48 351.04 69.14 Z" />
<path fill="#ffffff" opacity="1.00" d=" M 413.00 82.00 C 416.33 82.00 419.66 82.00 423.00 82.00 L 423.00 122.00 C 419.66 122.00 416.33 122.00 413.00 122.00 C 413.00 108.67 413.00 95.33 413.00 82.00 Z" />
<path fill="#ffffff" opacity="1.00" d=" M 154.37 110.00 C 157.42 105.32 159.64 100.16 161.02 94.75 C 163.19 94.78 165.36 94.69 167.53 94.63 C 166.34 100.57 164.08 106.23 161.08 111.48 C 162.74 112.45 164.38 113.45 165.99 114.51 C 164.88 116.24 163.79 117.99 162.70 119.74 C 159.84 118.16 156.94 116.65 154.04 115.14 C 155.05 114.09 156.04 113.02 157.00 111.92 C 156.35 111.44 155.03 110.48 154.37 110.00 Z" />
<path fill="#ffffff" opacity="1.00" d=" M 76.27 97.94 C 77.27 97.68 78.27 97.42 79.27 97.17 C 81.05 102.76 83.72 108.04 87.36 112.66 C 86.85 113.16 85.84 114.16 85.33 114.66 L 85.55 115.34 C 81.94 117.18 78.40 119.14 74.91 121.19 C 73.71 119.45 72.52 117.70 71.34 115.95 C 73.83 114.47 76.32 112.98 78.78 111.43 C 76.28 107.51 74.45 103.20 73.16 98.74 C 74.20 98.47 75.24 98.21 76.27 97.94 Z" />
<path fill="#ffffff" opacity="1.00" d=" M 265.28 97.94 C 266.27 97.68 267.27 97.42 268.27 97.16 C 270.04 102.72 272.68 107.99 276.30 112.57 C 275.60 113.44 274.90 114.31 274.22 115.20 C 270.93 117.45 267.31 119.13 263.91 121.19 C 262.71 119.45 261.52 117.70 260.34 115.96 C 262.82 114.46 265.30 112.98 267.78 111.48 C 265.30 107.53 263.48 103.22 262.14 98.76 C 263.18 98.49 264.23 98.21 265.28 97.94 Z" />
<path fill="#ffffff" opacity="1.00" d=" M 136.13 124.79 C 141.48 122.32 146.39 118.95 150.52 114.73 C 150.93 115.14 151.76 115.94 152.18 116.34 C 153.15 117.27 154.20 118.11 155.21 118.99 C 150.53 124.04 144.73 127.84 138.54 130.78 C 138.10 129.71 137.66 128.63 137.23 127.56 C 136.95 126.87 136.40 125.49 136.13 124.79 Z" />
<path fill="#ffffff" opacity="1.00" d=" M 325.13 124.79 C 330.49 122.32 335.39 118.95 339.52 114.73 C 339.93 115.13 340.76 115.94 341.17 116.34 C 342.15 117.27 343.19 118.11 344.22 118.99 C 339.52 124.04 333.72 127.87 327.50 130.78 C 327.07 129.70 326.64 128.63 326.22 127.56 C 325.95 126.87 325.41 125.48 325.13 124.79 Z" />
<path fill="#ffffff" opacity="1.00" d=" M 89.47 119.48 C 90.19 118.69 90.92 117.90 91.66 117.12 C 96.14 121.07 101.38 124.09 107.02 126.04 C 106.67 127.05 106.31 128.08 105.95 129.09 C 105.68 129.82 105.14 131.28 104.87 132.01 C 98.38 129.87 92.45 126.31 87.29 121.86 C 87.83 121.27 88.92 120.08 89.47 119.48 Z" />
<path fill="#ffffff" opacity="1.00" d=" M 278.47 119.48 C 279.19 118.69 279.92 117.90 280.66 117.12 C 285.14 121.07 290.38 124.09 296.02 126.04 C 295.66 127.05 295.31 128.08 294.95 129.09 C 294.68 129.82 294.14 131.28 293.87 132.01 C 287.38 129.88 281.45 126.31 276.29 121.86 C 276.84 121.26 277.92 120.07 278.47 119.48 Z" />
<path fill="#ffffff" opacity="1.00" d=" M 167.82 123.09 C 169.09 121.38 170.37 119.68 171.69 118.00 C 176.96 122.03 181.97 126.48 186.04 131.76 C 184.39 133.08 182.73 134.41 181.09 135.74 C 177.30 130.90 172.68 126.81 167.82 123.09 Z" />
<path fill="#ffffff" opacity="1.00" d=" M 356.83 123.09 C 358.09 121.37 359.38 119.67 360.72 118.00 C 365.96 122.06 370.99 126.47 375.04 131.76 C 373.38 133.09 371.73 134.41 370.09 135.74 C 366.31 130.90 361.68 126.82 356.83 123.09 Z" />
<path fill="#ffffff" opacity="1.00" d=" M 52.08 134.13 C 56.12 128.84 60.66 123.90 65.99 119.89 C 67.32 121.55 68.64 123.21 69.95 124.88 C 65.05 128.59 60.90 133.16 57.13 137.99 C 55.45 136.69 53.76 135.41 52.08 134.13 Z" />
<path fill="#ffffff" opacity="1.00" d=" M 241.08 134.13 C 245.11 128.83 249.67 123.92 254.98 119.88 C 256.31 121.54 257.63 123.21 258.94 124.89 C 254.05 128.60 249.89 133.14 246.15 137.99 C 244.46 136.70 242.77 135.42 241.08 134.13 Z" />
<path fill="#ffffff" opacity="1.00" d=" M 112.64 127.45 C 118.57 128.16 124.62 128.12 130.44 126.66 C 130.61 127.47 130.93 129.07 131.09 129.87 L 132.46 128.59 C 132.46 128.75 132.46 129.08 132.46 129.24 C 132.36 130.55 131.74 131.76 131.45 133.04 C 124.95 134.40 118.16 135.03 111.62 133.55 C 111.75 132.81 112.01 131.31 112.14 130.57 C 112.27 129.79 112.51 128.23 112.64 127.45 Z" />
<path fill="#ffffff" opacity="1.00" d=" M 301.64 127.45 C 307.57 128.15 313.63 128.12 319.46 126.66 C 319.61 127.47 319.91 129.10 320.07 129.92 L 321.41 128.57 C 321.42 128.74 321.44 129.08 321.45 129.25 C 321.38 130.56 320.72 131.76 320.45 133.04 C 313.94 134.40 307.16 135.03 300.62 133.56 C 300.75 132.81 301.01 131.32 301.14 130.57 C 301.27 129.79 301.51 128.23 301.64 127.45 Z" />
<path fill="#ffffff" opacity="1.00" d=" M 0.00 133.00 C 3.33 133.00 6.67 133.00 10.00 133.00 C 10.00 146.33 10.00 159.67 10.00 173.00 C 6.67 173.00 3.33 173.00 0.00 173.00 L 0.00 133.00 Z" />
<path fill="#ffffff" opacity="1.00" d=" M 184.97 140.93 C 186.28 139.24 188.30 138.33 190.01 137.11 C 193.54 142.86 196.58 149.01 198.04 155.64 C 196.01 156.14 193.98 156.62 191.94 157.08 C 190.50 151.34 187.77 146.09 184.97 140.93 Z" />
<path fill="#ffffff" opacity="1.00" d=" M 373.96 140.91 C 375.30 139.25 377.29 138.32 379.01 137.11 C 382.56 142.84 385.51 149.01 387.08 155.59 C 385.04 156.11 383.00 156.62 380.94 157.09 C 379.50 151.34 376.77 146.08 373.96 140.91 Z" />
<path fill="#ffffff" opacity="1.00" d=" M 48.29 139.87 C 50.18 140.88 52.04 141.96 53.89 143.06 C 50.93 148.35 48.71 154.03 47.40 159.95 C 45.31 159.47 43.21 158.99 41.12 158.50 C 42.65 151.99 45.09 145.74 48.29 139.87 Z" />
<path fill="#ffffff" opacity="1.00" d=" M 237.30 139.87 C 239.18 140.88 241.03 141.95 242.88 143.02 C 239.95 148.34 237.71 154.01 236.41 159.94 C 234.31 159.47 232.22 159.00 230.13 158.52 C 231.63 152.00 234.08 145.74 237.30 139.87 Z" />
<path fill="#ffffff" opacity="1.00" d=" M 413.00 152.00 C 416.33 152.00 419.66 152.00 423.00 152.00 L 423.00 192.00 C 419.66 192.00 416.33 192.00 413.00 192.00 C 413.00 178.67 413.00 165.33 413.00 152.00 Z" />
<path fill="#ffffff" opacity="1.00" d=" M 193.21 163.11 C 195.30 162.78 197.40 162.47 199.50 162.18 C 200.21 168.70 199.98 175.26 199.99 181.81 C 197.86 181.81 195.73 181.81 193.60 181.82 C 193.50 175.58 193.76 169.33 193.21 163.11 Z" />
<path fill="#ffffff" opacity="1.00" d=" M 382.22 163.10 C 384.31 162.77 386.40 162.47 388.50 162.18 C 389.22 168.70 388.97 175.26 388.99 181.81 C 386.85 181.81 384.72 181.81 382.59 181.82 C 382.51 175.58 382.75 169.33 382.22 163.10 Z" />
<path fill="#ffffff" opacity="1.00" d=" M 40.13 165.40 C 42.28 165.51 44.43 165.63 46.58 165.78 C 46.35 172.05 46.40 178.33 46.46 184.61 C 44.32 184.66 42.17 184.70 40.03 184.74 C 39.97 178.29 39.97 171.85 40.13 165.40 Z" />
<path fill="#ffffff" opacity="1.00" d=" M 229.13 165.40 C 231.28 165.51 233.42 165.63 235.57 165.78 C 235.35 172.05 235.40 178.34 235.46 184.62 C 233.31 184.66 231.16 184.69 229.02 184.73 C 228.98 178.28 228.96 171.84 229.13 165.40 Z" />
<path fill="#ffffff" opacity="1.00" d=" M 193.64 188.21 C 195.75 188.23 197.86 188.24 199.97 188.24 C 200.03 194.61 199.99 200.98 200.00 207.35 C 197.85 207.35 195.70 207.35 193.56 207.35 C 193.61 200.97 193.49 194.59 193.64 188.21 Z" />
<path fill="#ffffff" opacity="1.00" d=" M 382.59 188.24 C 384.71 188.24 386.84 188.24 388.98 188.23 C 389.02 194.61 388.99 200.98 389.00 207.35 C 386.85 207.35 384.70 207.35 382.56 207.35 C 382.58 200.98 382.55 194.61 382.59 188.24 Z" />
<path fill="#ffffff" opacity="1.00" d=" M 40.01 191.14 C 42.15 191.14 44.28 191.14 46.41 191.15 C 46.42 197.53 46.43 203.91 46.41 210.29 C 44.28 210.29 42.15 210.29 40.02 210.29 C 39.99 203.91 39.99 197.52 40.01 191.14 Z" />
<path fill="#ffffff" opacity="1.00" d=" M 229.01 191.14 C 231.14 191.14 233.28 191.14 235.41 191.14 C 235.42 197.53 235.43 203.91 235.41 210.29 C 233.28 210.29 231.14 210.29 229.02 210.29 C 228.99 203.91 228.99 197.52 229.01 191.14 Z" />
<path fill="#ffffff" opacity="1.00" d=" M 0.00 203.00 C 3.33 203.00 6.67 203.00 10.00 203.00 C 10.00 216.33 10.00 229.67 10.00 243.00 C 6.67 243.00 3.33 243.00 0.00 243.00 L 0.00 203.00 Z" />
<path fill="#ffffff" opacity="1.00" d=" M 193.58 213.71 C 195.71 213.70 197.85 213.70 199.98 213.71 C 200.02 220.09 199.99 226.48 200.00 232.87 C 199.19 232.88 197.58 232.89 196.77 232.90 C 196.77 234.93 196.77 236.95 196.77 238.99 C 190.37 239.01 183.97 238.99 177.57 239.00 C 177.56 236.86 177.56 234.73 177.56 232.59 C 182.90 232.59 188.24 232.59 193.58 232.59 C 193.57 226.30 193.56 220.00 193.58 213.71 Z" />
<path fill="#ffffff" opacity="1.00" d=" M 382.58 213.70 C 384.71 213.70 386.84 213.70 388.98 213.70 C 389.02 220.09 388.99 226.48 389.00 232.88 C 388.19 232.88 386.58 232.90 385.77 232.90 C 385.76 234.93 385.77 236.95 385.78 238.98 C 379.37 239.02 372.97 238.99 366.57 239.00 C 366.56 236.86 366.56 234.73 366.56 232.59 C 371.90 232.59 377.24 232.59 382.58 232.59 C 382.57 226.30 382.55 220.00 382.58 213.70 Z" />
<path fill="#ffffff" opacity="1.00" d=" M 40.00 216.62 C 42.14 216.61 44.28 216.61 46.41 216.61 C 46.39 223.01 46.50 229.41 46.34 235.81 C 44.24 235.79 42.13 235.78 40.02 235.78 C 39.98 229.39 40.01 223.00 40.00 216.62 Z" />
<path fill="#ffffff" opacity="1.00" d=" M 229.00 216.61 C 231.14 216.61 233.27 216.61 235.41 216.61 C 235.40 223.01 235.47 229.40 235.37 235.80 C 233.25 235.78 231.13 235.77 229.01 235.77 C 228.99 229.39 229.00 223.00 229.00 216.61 Z" />
<path fill="#ffffff" opacity="1.00" d=" M 413.00 222.00 C 416.33 222.00 419.66 222.00 423.00 222.00 L 423.00 262.00 C 419.66 262.00 416.33 262.00 413.00 262.00 C 413.00 248.67 413.00 235.33 413.00 222.00 Z" />
<path fill="#ffffff" opacity="1.00" d=" M 49.60 232.59 C 55.94 232.57 62.27 232.66 68.61 232.52 C 68.69 234.67 68.75 236.82 68.79 238.97 C 62.40 239.03 56.00 238.99 49.60 239.00 C 49.60 236.86 49.60 234.72 49.60 232.59 Z" />
<path fill="#ffffff" opacity="1.00" d=" M 75.21 232.62 C 81.60 232.56 87.99 232.60 94.37 232.59 C 94.37 234.72 94.38 236.86 94.38 239.00 C 87.99 238.99 81.60 239.03 75.21 238.97 C 75.21 236.85 75.21 234.73 75.21 232.62 Z" />
<path fill="#ffffff" opacity="1.00" d=" M 100.74 232.60 C 107.12 232.60 113.49 232.57 119.87 232.62 C 119.86 234.74 119.86 236.86 119.86 238.98 C 113.49 239.02 107.11 239.00 100.74 239.00 C 100.74 236.86 100.74 234.73 100.74 232.60 Z" />
<path fill="#ffffff" opacity="1.00" d=" M 126.32 238.95 C 126.36 236.82 126.39 234.69 126.43 232.56 C 132.79 232.61 139.15 232.60 145.51 232.58 C 145.55 234.68 145.58 236.78 145.64 238.89 C 139.20 239.10 132.76 239.00 126.32 238.95 Z" />
<path fill="#ffffff" opacity="1.00" d=" M 151.88 232.62 C 158.33 232.57 164.79 232.58 171.24 232.61 C 171.24 234.73 171.24 236.84 171.24 238.96 C 164.79 239.01 158.33 239.05 151.87 238.94 C 151.88 236.83 151.88 234.72 151.88 232.62 Z" />
<path fill="#ffffff" opacity="1.00" d=" M 238.60 232.59 C 244.99 232.62 251.38 232.52 257.76 232.66 C 257.75 234.76 257.74 236.86 257.75 238.96 C 251.37 239.04 244.99 238.99 238.60 239.00 C 238.60 236.86 238.60 234.72 238.60 232.59 Z" />
<path fill="#ffffff" opacity="1.00" d=" M 264.17 238.98 C 264.21 236.82 264.26 234.67 264.35 232.52 C 270.69 232.67 277.03 232.56 283.38 232.59 C 283.37 234.73 283.37 236.86 283.38 239.00 C 276.97 238.99 270.57 239.02 264.17 238.98 Z" />
<path fill="#ffffff" opacity="1.00" d=" M 289.74 232.60 C 296.11 232.59 302.49 232.58 308.86 232.60 C 308.86 234.72 308.86 236.85 308.87 238.98 C 302.49 239.01 296.12 239.00 289.74 239.00 C 289.74 236.86 289.74 234.73 289.74 232.60 Z" />
<path fill="#ffffff" opacity="1.00" d=" M 315.32 238.96 C 315.36 236.82 315.39 234.69 315.43 232.56 C 321.79 232.61 328.15 232.60 334.51 232.57 C 334.54 234.69 334.57 236.80 334.62 238.93 C 328.19 239.06 321.75 239.01 315.32 238.96 Z" />
<path fill="#ffffff" opacity="1.00" d=" M 340.88 232.62 C 347.33 232.57 353.78 232.58 360.24 232.61 C 360.24 234.73 360.24 236.84 360.24 238.96 C 353.79 239.01 347.33 239.05 340.87 238.94 C 340.87 236.83 340.87 234.72 340.88 232.62 Z" />
<path fill="#ffffff" opacity="1.00" d=" M 7.00 266.00 C 20.33 266.00 33.67 266.00 47.00 266.00 C 47.00 269.33 47.00 272.67 47.00 276.00 L 7.00 276.00 C 7.00 272.67 7.00 269.33 7.00 266.00 Z" />
<path fill="#ffffff" opacity="1.00" d=" M 77.00 266.00 C 90.33 266.00 103.67 266.00 117.00 266.00 C 117.00 269.33 117.00 272.67 117.00 276.00 L 77.00 276.00 C 77.00 272.67 77.00 269.33 77.00 266.00 Z" />
<path fill="#ffffff" opacity="1.00" d=" M 147.00 266.00 C 160.33 266.00 173.67 266.00 187.00 266.00 C 187.00 269.33 187.00 272.67 187.00 276.00 L 147.00 276.00 C 147.00 272.67 147.00 269.33 147.00 266.00 Z" />
<path fill="#ffffff" opacity="1.00" d=" M 217.00 266.00 C 230.33 266.00 243.67 266.00 257.00 266.00 C 257.00 269.33 257.00 272.67 257.00 276.00 L 217.00 276.00 C 217.00 272.67 217.00 269.33 217.00 266.00 Z" />
<path fill="#ffffff" opacity="1.00" d=" M 287.00 266.00 C 300.33 266.00 313.67 266.00 327.00 266.00 C 327.00 269.33 327.00 272.67 327.00 276.00 L 287.00 276.00 C 287.00 272.67 287.00 269.33 287.00 266.00 Z" />
<path fill="#ffffff" opacity="1.00" d=" M 357.00 266.00 C 370.33 266.00 383.67 266.00 397.00 266.00 C 397.00 269.33 397.00 272.67 397.00 276.00 L 357.00 276.00 C 357.00 272.67 357.00 269.33 357.00 266.00 Z" />
</g>
</g>
<defs>
    <style><![CDATA[
        .sprite { display: none; }
        .sprite:target { display: inline; }
    ]]></style>
</defs>
</svg>
