<?xml version="1.0" encoding="UTF-8" ?>
<!DOCTYPE svg PUBLIC "-//W3C//DTD SVG 1.1//EN" "http://www.w3.org/Graphics/SVG/1.1/DTD/svg11.dtd">
<svg width="149pt" height="133pt" viewBox="0 0 149 133" version="1.1" xmlns="http://www.w3.org/2000/svg">
<g id="#ffffffff">
<path fill="#ffffff" opacity="1.00" d=" M 0.00 0.00 L 47.05 0.00 C 47.02 4.66 47.00 9.32 46.96 13.98 C 35.99 13.99 25.01 14.01 14.03 14.02 C 14.01 22.33 13.97 30.63 13.94 38.93 C 9.29 38.97 4.65 39.00 0.00 39.04 L 0.00 0.00 Z" />
<path fill="#ffffff" opacity="1.00" d=" M 59.95 0.00 L 100.04 0.00 C 100.00 4.67 99.96 9.33 99.93 13.99 C 86.64 14.01 73.34 14.00 60.04 14.00 C 60.00 9.33 59.97 4.67 59.95 0.00 Z" />
<path fill="#ffffff" opacity="1.00" d=" M 112.94 0.00 L 149.00 0.00 L 149.00 18.63 C 137.37 14.86 125.20 13.88 113.05 13.54 C 113.01 9.03 112.97 4.51 112.94 0.00 Z" />
<path fill="#ffffff" opacity="1.00" d=" M 26.00 23.00 C 33.00 23.00 40.00 22.99 47.00 23.00 C 47.00 24.33 47.00 25.67 47.00 27.00 C 40.00 27.00 33.00 27.00 26.00 27.00 C 26.00 25.67 26.00 24.33 26.00 23.00 Z" />
<path fill="#ffffff" opacity="1.00" d=" M 53.00 23.00 C 60.00 23.00 67.00 22.99 74.00 23.00 C 74.00 24.33 74.00 25.67 74.00 27.00 C 67.00 27.00 60.00 27.00 53.00 27.00 C 53.00 25.67 53.00 24.33 53.00 23.00 Z" />
<path fill="#ffffff" opacity="1.00" d=" M 79.00 23.00 C 86.00 23.00 93.00 22.99 100.00 23.00 C 100.00 24.33 100.00 25.67 100.00 27.00 C 93.00 27.00 86.00 27.00 79.00 27.00 C 79.00 25.67 79.00 24.33 79.00 23.00 Z" />
<path fill="#ffffff" opacity="1.00" d=" M 106.00 23.00 C 113.00 23.00 120.00 22.99 127.00 23.00 C 127.00 24.33 127.00 25.67 127.00 27.00 C 120.00 27.00 113.00 27.00 106.00 27.00 C 106.00 25.67 106.00 24.33 106.00 23.00 Z" />
<path fill="#ffffff" opacity="1.00" d=" M 25.65 28.59 C 32.88 28.33 40.12 28.26 47.35 28.41 C 40.12 28.67 32.88 28.74 25.65 28.59 Z" />
<path fill="#ffffff" opacity="1.00" d=" M 52.65 28.59 C 59.88 28.33 67.12 28.26 74.35 28.41 C 67.12 28.67 59.88 28.74 52.65 28.59 Z" />
<path fill="#ffffff" opacity="1.00" d=" M 78.65 28.59 C 85.88 28.33 93.12 28.26 100.35 28.41 C 93.12 28.67 85.88 28.74 78.65 28.59 Z" />
<path fill="#ffffff" opacity="1.00" d=" M 105.65 28.59 C 112.88 28.33 120.11 28.26 127.35 28.41 C 120.12 28.67 112.88 28.74 105.65 28.59 Z" />
<path fill="#ffffff" opacity="1.00" d=" M 136.00 30.04 C 140.33 30.01 144.66 29.98 149.00 29.95 L 149.00 71.04 C 144.67 71.01 140.33 70.98 136.00 70.95 C 136.00 57.31 136.00 43.68 136.00 30.04 Z" />
<path fill="#ffffff" opacity="1.00" d=" M 26.00 38.99 C 37.00 39.01 48.01 38.99 59.01 39.00 C 58.99 50.00 59.01 61.01 59.00 72.01 C 48.00 71.99 36.99 72.01 25.99 72.00 C 26.01 61.00 25.99 49.99 26.00 38.99 M 45.00 40.00 C 45.00 41.50 45.00 44.50 45.00 46.00 C 46.50 46.00 49.50 46.00 51.00 46.00 C 51.00 44.50 51.00 41.50 51.00 40.00 C 49.50 40.00 46.50 40.00 45.00 40.00 M 52.00 40.00 C 52.00 41.50 52.00 44.50 52.00 46.00 C 53.50 46.00 56.50 46.00 58.00 46.00 C 58.00 44.50 58.00 41.50 58.00 40.00 C 56.50 40.00 53.50 40.00 52.00 40.00 M 28.00 42.00 C 28.00 42.75 28.00 44.25 28.00 45.00 C 28.75 45.00 30.25 45.00 31.00 45.00 C 31.00 44.25 31.00 42.75 31.00 42.00 C 30.25 42.00 28.75 42.00 28.00 42.00 M 31.67 43.60 C 35.56 43.56 39.44 43.49 43.33 43.40 C 39.44 43.44 35.56 43.51 31.67 43.60 M 27.00 47.00 C 27.01 55.00 26.99 63.00 27.00 71.00 C 37.33 71.00 47.66 71.00 58.00 71.00 C 57.99 63.00 58.00 55.00 58.00 47.00 C 47.67 47.00 37.33 47.00 27.00 47.00 Z" />
<path fill="#ffffff" opacity="1.00" d=" M 94.00 38.99 C 105.00 39.01 116.00 38.99 127.01 39.00 C 126.99 50.00 127.01 61.01 127.00 72.01 C 115.99 71.99 104.99 72.01 93.99 72.00 C 94.01 61.00 93.99 49.99 94.00 38.99 M 113.00 40.00 C 113.00 41.50 113.00 44.50 113.00 46.00 C 114.50 46.00 117.50 46.00 119.00 46.00 C 119.00 44.50 119.00 41.50 119.00 40.00 C 117.50 40.00 114.50 40.00 113.00 40.00 M 120.00 40.00 C 120.00 41.50 120.00 44.50 120.00 46.00 C 121.50 46.00 124.50 46.00 126.00 46.00 C 126.00 44.50 126.00 41.50 126.00 40.00 C 124.50 40.00 121.50 40.00 120.00 40.00 M 96.00 42.00 C 96.00 42.75 96.00 44.25 96.00 45.00 C 96.75 45.00 98.25 45.00 99.00 45.00 C 99.00 44.25 99.00 42.75 99.00 42.00 C 98.25 42.00 96.75 42.00 96.00 42.00 M 99.67 43.60 C 103.56 43.56 107.44 43.49 111.33 43.40 C 107.44 43.44 103.55 43.51 99.67 43.60 M 95.00 47.00 C 95.01 55.00 94.99 63.00 95.00 71.00 C 105.33 71.00 115.66 71.00 126.00 71.00 C 125.99 63.00 126.00 55.00 126.00 47.00 C 115.67 47.00 105.33 47.00 95.00 47.00 Z" />
<path fill="#ffffff" opacity="1.00" d=" M 46.00 41.00 C 47.33 41.00 48.67 41.00 50.00 41.00 C 50.00 42.33 50.00 43.67 50.00 45.00 C 48.67 45.00 47.33 45.00 46.00 45.00 C 46.00 43.67 46.00 42.33 46.00 41.00 M 47.17 42.17 C 46.65 43.80 47.20 44.35 48.83 43.83 C 49.35 42.20 48.80 41.65 47.17 42.17 Z" />
<path fill="#ffffff" opacity="1.00" d=" M 53.00 41.00 C 54.33 41.00 55.67 41.00 57.00 41.00 C 57.00 42.33 57.00 43.67 57.00 45.00 C 55.67 45.00 54.33 45.00 53.00 45.00 C 53.00 43.67 53.00 42.33 53.00 41.00 M 54.40 42.15 C 53.97 43.55 54.45 44.03 55.85 43.60 C 56.29 42.20 55.80 41.71 54.40 42.15 Z" />
<path fill="#ffffff" opacity="1.00" d=" M 114.00 41.00 C 115.33 41.00 116.67 41.00 118.00 41.00 C 118.00 42.33 118.00 43.67 118.00 45.00 C 116.67 45.00 115.33 45.00 114.00 45.00 C 114.00 43.67 114.00 42.33 114.00 41.00 M 115.17 42.17 C 114.65 43.80 115.20 44.35 116.83 43.83 C 117.35 42.20 116.80 41.65 115.17 42.17 Z" />
<path fill="#ffffff" opacity="1.00" d=" M 121.00 41.00 C 122.33 41.00 123.67 41.00 125.00 41.00 C 125.00 42.33 125.00 43.67 125.00 45.00 C 123.67 45.00 122.33 45.00 121.00 45.00 C 121.00 43.67 121.00 42.33 121.00 41.00 M 122.40 42.15 C 121.97 43.55 122.45 44.03 123.85 43.60 C 124.29 42.20 123.80 41.71 122.40 42.15 Z" />
<path fill="#ffffff" opacity="1.00" d=" M 0.00 51.96 C 4.67 52.00 9.33 52.03 13.99 52.07 C 14.01 65.36 14.00 78.66 14.00 91.96 C 9.33 92.00 4.67 92.02 0.00 92.05 L 0.00 51.96 Z" />
<path fill="#ffffff" opacity="1.00" d=" M 26.00 77.99 C 37.00 78.01 48.01 77.99 59.01 78.00 C 58.99 89.00 59.01 100.01 59.00 111.01 C 48.00 110.99 36.99 111.01 25.99 111.00 C 26.01 99.99 25.99 88.99 26.00 77.99 M 45.00 79.00 C 45.00 80.50 45.00 83.50 45.00 85.00 C 46.50 85.00 49.50 85.00 51.00 85.00 C 51.00 83.50 51.00 80.50 51.00 79.00 C 49.50 79.00 46.50 79.00 45.00 79.00 M 52.00 79.00 C 52.00 80.50 52.00 83.50 52.00 85.00 C 53.50 85.00 56.50 85.00 58.00 85.00 C 58.00 83.50 58.00 80.50 58.00 79.00 C 56.50 79.00 53.50 79.00 52.00 79.00 M 28.00 81.00 C 28.00 81.75 28.00 83.25 28.00 84.00 C 28.75 84.00 30.25 84.00 31.00 84.00 C 31.00 83.25 31.00 81.75 31.00 81.00 C 30.25 81.00 28.75 81.00 28.00 81.00 M 31.67 82.60 C 35.56 82.56 39.44 82.49 43.33 82.40 C 39.44 82.44 35.56 82.50 31.67 82.60 M 27.00 86.00 C 27.01 94.00 26.99 102.00 27.00 110.00 C 37.33 110.00 47.66 110.00 58.00 110.00 C 57.99 102.00 58.00 94.00 58.00 86.00 C 47.67 85.99 37.33 86.00 27.00 86.00 Z" />
<path fill="#ffffff" opacity="1.00" d=" M 94.00 77.99 C 105.00 78.01 116.00 77.99 127.01 78.00 C 126.99 89.00 127.01 100.01 127.00 111.01 C 115.99 110.99 104.99 111.01 93.99 111.00 C 94.01 99.99 93.99 88.99 94.00 77.99 M 113.00 79.00 C 113.00 80.50 113.00 83.50 113.00 85.00 C 114.50 85.00 117.50 85.00 119.00 85.00 C 119.00 83.50 119.00 80.50 119.00 79.00 C 117.50 79.00 114.50 79.00 113.00 79.00 M 120.00 79.00 C 120.00 80.50 120.00 83.50 120.00 85.00 C 121.50 85.00 124.50 85.00 126.00 85.00 C 126.00 83.50 126.00 80.50 126.00 79.00 C 124.50 79.00 121.50 79.00 120.00 79.00 M 96.00 81.00 C 96.00 81.75 96.00 83.25 96.00 84.00 C 96.75 84.00 98.25 84.00 99.00 84.00 C 99.00 83.25 99.00 81.75 99.00 81.00 C 98.25 81.00 96.75 81.00 96.00 81.00 M 99.67 82.60 C 103.56 82.56 107.44 82.49 111.33 82.40 C 107.44 82.44 103.55 82.50 99.67 82.60 M 95.00 86.00 C 95.01 94.00 94.99 102.00 95.00 110.00 C 105.33 110.00 115.66 110.00 126.00 110.00 C 125.99 102.00 126.00 94.00 126.00 86.00 C 115.67 85.99 105.33 86.00 95.00 86.00 Z" />
<path fill="#ffffff" opacity="1.00" d=" M 46.00 80.00 C 47.33 80.00 48.67 80.00 50.00 80.00 C 50.00 81.33 50.00 82.67 50.00 84.00 C 48.67 84.00 47.33 84.00 46.00 84.00 C 46.00 82.67 46.00 81.33 46.00 80.00 M 47.17 81.17 C 46.65 82.80 47.20 83.35 48.83 82.83 C 49.35 81.20 48.80 80.65 47.17 81.17 Z" />
<path fill="#ffffff" opacity="1.00" d=" M 53.00 80.00 C 54.33 80.00 55.67 80.00 57.00 80.00 C 57.00 81.33 57.00 82.67 57.00 84.00 C 55.67 84.00 54.33 84.00 53.00 84.00 C 53.00 82.67 53.00 81.33 53.00 80.00 M 54.40 81.15 C 53.97 82.55 54.45 83.03 55.85 82.60 C 56.29 81.20 55.80 80.71 54.40 81.15 Z" />
<path fill="#ffffff" opacity="1.00" d=" M 114.00 80.00 C 115.33 80.00 116.67 80.00 118.00 80.00 C 118.00 81.33 118.00 82.67 118.00 84.00 C 116.67 84.00 115.33 84.00 114.00 84.00 C 114.00 82.67 114.00 81.33 114.00 80.00 M 115.17 81.17 C 114.65 82.80 115.20 83.35 116.83 82.83 C 117.35 81.20 116.80 80.65 115.17 81.17 Z" />
<path fill="#ffffff" opacity="1.00" d=" M 121.00 80.00 C 122.33 80.00 123.67 80.00 125.00 80.00 C 125.00 81.33 125.00 82.67 125.00 84.00 C 123.67 84.00 122.33 84.00 121.00 84.00 C 121.00 82.67 121.00 81.33 121.00 80.00 M 122.40 81.15 C 121.97 82.55 122.45 83.03 123.85 82.60 C 124.29 81.20 123.80 80.71 122.40 81.15 Z" />
<path fill="#ffffff" opacity="1.00" d=" M 136.00 84.04 C 140.33 84.01 144.66 83.97 149.00 83.94 L 149.00 124.04 C 144.67 124.00 140.33 123.96 136.00 123.93 C 135.99 110.63 136.00 97.34 136.00 84.04 Z" />
<path fill="#ffffff" opacity="1.00" d=" M 0.00 104.95 C 4.62 105.00 9.25 105.05 13.87 105.10 C 13.93 108.80 14.04 116.19 14.09 119.89 C 18.04 119.95 21.99 120.02 25.93 120.10 C 25.98 124.40 26.02 128.69 26.07 133.00 L 0.00 133.00 L 0.00 104.95 Z" />
<path fill="#ffffff" opacity="1.00" d=" M 38.05 120.00 C 51.68 120.00 65.32 120.00 78.96 120.00 C 78.99 124.33 79.02 128.66 79.06 133.00 L 37.96 133.00 C 37.99 128.67 38.02 124.33 38.05 120.00 Z" />
<path fill="#ffffff" opacity="1.00" d=" M 92.07 120.00 C 105.37 119.99 118.66 120.00 131.96 120.00 C 131.99 124.33 132.02 128.66 132.06 133.00 L 91.96 133.00 C 92.00 128.67 92.03 124.33 92.07 120.00 Z" />
</g>
<g id="#00a2e8ff">
<path fill="#00a2e8" opacity="1.00" d=" M 31.67 43.60 C 35.56 43.51 39.44 43.44 43.33 43.40 C 39.44 43.49 35.56 43.56 31.67 43.60 Z" />
<path fill="#00a2e8" opacity="1.00" d=" M 99.67 43.60 C 103.55 43.51 107.44 43.44 111.33 43.40 C 107.44 43.49 103.56 43.56 99.67 43.60 Z" />
<path fill="#00a2e8" opacity="1.00" d=" M 31.67 82.60 C 35.56 82.50 39.44 82.44 43.33 82.40 C 39.44 82.49 35.56 82.56 31.67 82.60 Z" />
<path fill="#00a2e8" opacity="1.00" d=" M 99.67 82.60 C 103.55 82.50 107.44 82.44 111.33 82.40 C 107.44 82.49 103.56 82.56 99.67 82.60 Z" />
</g>
</svg>
