<?xml version="1.0" encoding="UTF-8" ?>
<!DOCTYPE svg PUBLIC "-//W3C//DTD SVG 1.1//EN" "http://www.w3.org/Graphics/SVG/1.1/DTD/svg11.dtd">
<svg width="383pt" height="384pt" viewBox="0 0 383 384" version="1.1" xmlns="http://www.w3.org/2000/svg">
<path fill="#5890ff" stroke="#5890ff" stroke-width="0.09375" opacity="1.00" d=" M 63.7 0.0 L 322.3 0.0 C 331.5 0.7 340.7 2.9 348.8 7.3 C 361.5 14.1 371.9 25.1 377.7 38.3 C 381.2 46.2 382.7 55.0 383.0 63.7 L 383.0 323.3 C 382.4 331.5 380.5 339.7 377.0 347.2 C 372.5 356.9 365.2 365.3 356.7 371.8 C 346.3 379.6 333.3 383.6 320.3 384.0 L 63.7 384.0 C 55.0 383.7 46.2 382.2 38.3 378.7 C 25.1 372.9 14.1 362.5 7.3 349.8 C 2.9 341.7 0.7 332.5 0.0 323.3 L 0.0 63.7 C 0.2 56.1 1.4 48.4 4.1 41.2 C 11.1 22.7 27.2 7.9 46.3 2.5 C 51.9 0.9 57.8 0.2 63.7 0.0 M 71.1 36.1 C 71.0 55.7 71.0 75.3 71.1 94.9 C 110.4 95.0 149.7 95.0 188.9 94.9 C 189.0 75.3 189.0 55.7 188.9 36.1 C 149.7 36.0 110.4 36.0 71.1 36.1 M 210.1 36.1 C 210.0 55.7 210.0 75.3 210.1 94.9 C 249.3 95.0 288.6 95.0 327.9 94.9 C 328.1 75.3 328.0 55.7 327.9 36.1 C 288.7 36.0 249.4 36.0 210.1 36.1 M 68.1 99.1 C 68.0 119.4 68.0 139.7 68.1 159.9 C 108.4 160.0 148.7 160.0 188.9 159.9 C 189.0 139.6 189.0 119.3 188.9 99.1 C 148.7 99.0 108.4 99.0 68.1 99.1 M 209.1 99.1 C 209.0 119.4 209.0 139.6 209.1 159.9 C 249.0 160.0 289.0 160.0 328.9 159.9 C 329.0 139.7 329.0 119.4 328.9 99.1 C 289.0 99.0 249.0 99.0 209.1 99.1 M 68.1 165.1 C 67.9 185.3 68.0 205.6 68.1 225.9 C 108.4 226.0 148.7 226.0 188.9 225.9 C 189.0 205.7 189.0 185.4 188.9 165.1 C 148.7 165.0 108.4 165.0 68.1 165.1 M 209.1 165.1 C 209.0 185.4 209.0 205.7 209.1 225.9 C 249.0 226.0 289.0 226.0 328.9 225.9 C 329.0 205.6 329.0 185.4 328.9 165.1 C 289.0 165.0 249.0 165.0 209.1 165.1 M 69.1 231.1 C 69.0 251.4 69.0 271.6 69.1 291.9 C 109.0 292.0 149.0 292.0 188.9 291.9 C 189.0 271.6 189.0 251.3 188.9 231.1 C 149.0 231.0 109.0 231.0 69.1 231.1 M 209.1 231.1 C 208.9 251.4 209.0 271.6 209.1 291.9 C 249.0 292.0 289.0 292.0 328.9 291.9 C 329.0 271.6 329.0 251.4 328.9 231.1 C 289.0 231.0 249.0 231.0 209.1 231.1 M 69.1 296.1 C 69.0 316.4 69.0 336.6 69.1 356.9 C 109.0 357.0 149.0 357.0 188.9 356.9 C 189.0 336.6 189.0 316.4 188.9 296.1 C 149.0 296.0 109.0 296.0 69.1 296.1 M 209.1 296.1 C 209.0 316.4 209.0 336.7 209.1 356.9 C 249.0 357.0 289.0 357.0 328.9 356.9 C 329.0 336.7 329.0 316.4 328.9 296.1 C 289.0 296.0 249.0 296.0 209.1 296.1 Z" />
<path fill="#f5f2e8" stroke="#f5f2e8" stroke-width="0.09375" opacity="1.00" d=" M 71.1 36.1 C 110.4 36.0 149.7 36.0 188.9 36.1 C 189.0 55.7 189.0 75.3 188.9 94.9 C 149.7 95.0 110.4 95.0 71.1 94.9 C 71.0 75.3 71.0 55.7 71.1 36.1 M 161.1 50.0 C 161.1 53.2 161.0 56.3 161.0 59.4 C 158.5 58.8 155.9 57.8 153.3 58.2 C 150.5 58.9 148.8 61.6 148.2 64.2 C 147.4 67.5 147.4 71.1 148.8 74.2 C 150.0 76.8 153.1 78.5 155.9 77.9 C 157.7 77.5 159.5 76.8 161.2 76.2 C 162.8 76.9 164.4 77.7 165.9 78.4 C 166.7 69.0 166.5 59.5 166.1 50.1 C 164.5 50.0 162.8 50.0 161.1 50.0 M 89.4 51.4 C 85.3 52.5 82.1 56.1 81.3 60.2 C 80.7 63.6 80.7 67.2 81.6 70.6 C 82.5 74.1 85.6 77.0 89.2 77.7 C 92.2 78.3 95.4 78.2 98.3 77.2 C 100.5 76.6 100.5 74.1 101.2 72.4 C 98.0 72.9 94.8 74.1 91.6 73.6 C 87.8 72.7 86.6 68.4 86.6 65.0 C 86.5 61.3 87.7 56.8 91.6 55.5 C 94.5 54.9 97.4 56.1 100.3 56.7 C 100.2 55.2 100.1 53.7 100.0 52.2 C 96.5 51.4 92.9 50.4 89.4 51.4 M 109.4 58.4 C 106.6 59.2 104.1 61.4 103.4 64.2 C 102.7 67.0 102.7 69.9 103.5 72.6 C 104.3 75.5 107.1 77.6 110.1 77.9 C 114.0 78.5 118.8 77.8 121.1 74.2 C 123.3 70.4 123.4 65.4 121.3 61.7 C 118.8 57.7 113.4 57.4 109.4 58.4 M 126.3 58.2 C 126.1 64.7 126.1 71.3 126.3 77.9 C 128.1 77.9 129.9 77.9 131.7 77.9 C 131.7 73.6 131.3 69.4 131.9 65.1 C 132.2 62.3 136.8 60.9 138.2 63.7 C 139.1 68.4 138.6 73.2 138.9 78.0 C 140.5 77.9 142.1 77.9 143.8 77.9 C 143.8 72.7 144.3 67.5 143.4 62.4 C 143.0 59.9 140.5 57.9 137.9 58.3 C 134.1 58.6 130.2 59.0 126.3 58.2 M 171.6 72.0 C 171.7 74.0 171.7 76.0 171.6 78.0 C 173.4 78.0 175.3 77.9 177.1 77.8 C 177.1 75.9 177.1 74.1 177.1 72.2 C 175.3 72.1 173.4 72.0 171.6 72.0 Z" />
<path fill="#f5f2e8" stroke="#f5f2e8" stroke-width="0.09375" opacity="1.00" d=" M 210.1 36.1 C 249.4 36.0 288.7 36.0 327.9 36.1 C 328.0 55.7 328.1 75.3 327.9 94.9 C 288.6 95.0 249.3 95.0 210.1 94.9 C 210.0 75.3 210.0 55.7 210.1 36.1 M 239.1 50.0 C 236.0 57.2 233.9 64.8 231.1 72.2 C 229.9 75.3 228.9 78.6 228.0 81.9 C 230.2 81.8 232.3 81.8 234.5 81.7 C 235.3 79.5 236.2 77.2 237.0 75.0 C 240.9 74.9 244.8 75.0 248.6 75.2 C 249.5 77.4 250.3 79.6 251.1 81.9 C 253.2 81.9 255.3 81.9 257.4 82.0 C 256.8 78.6 256.0 75.3 254.8 72.1 C 252.1 64.8 249.8 57.3 246.8 50.1 C 244.2 50.0 241.7 50.0 239.1 50.0 M 283.5 53.2 C 283.1 54.8 282.7 56.5 282.3 58.1 C 281.3 59.3 279.3 60.0 279.4 61.7 C 280.4 63.3 282.0 64.5 282.7 66.3 C 283.5 70.8 282.4 75.7 284.0 80.0 C 286.0 83.7 291.0 83.4 294.4 82.4 C 294.8 80.8 295.0 79.2 295.2 77.6 C 293.3 77.6 291.4 77.5 289.6 77.4 C 289.3 73.1 289.2 68.8 289.3 64.4 C 291.2 64.1 293.0 63.9 294.9 63.6 C 294.9 62.2 294.9 60.8 294.8 59.4 C 293.1 59.1 291.3 58.8 289.5 58.5 C 289.3 56.7 289.1 54.9 288.8 53.1 C 287.1 53.1 285.3 53.1 283.5 53.2 M 262.9 60.9 C 259.8 64.0 259.3 68.8 259.7 73.0 C 260.0 76.6 261.6 80.4 264.9 82.0 C 268.2 83.4 272.0 83.3 275.3 82.3 C 278.0 81.6 277.4 78.4 278.1 76.3 C 274.9 76.7 271.1 78.8 268.1 76.9 C 265.3 73.3 265.1 66.9 268.7 63.7 C 271.8 62.9 275.0 64.3 278.1 64.7 C 277.5 62.6 278.0 59.4 275.3 58.7 C 271.2 57.3 266.0 57.5 262.9 60.9 M 299.4 74.3 C 299.4 76.8 299.4 79.2 299.4 81.7 C 301.8 81.7 304.2 81.7 306.6 81.7 C 306.6 79.2 306.6 76.8 306.6 74.3 C 304.2 74.3 301.8 74.3 299.4 74.3 Z" />
<path fill="#5890ff" stroke="#5890ff" stroke-width="0.09375" opacity="1.00" d=" M 161.1 50.0 C 162.8 50.0 164.5 50.0 166.1 50.1 C 166.5 59.5 166.7 69.0 165.9 78.4 C 164.4 77.7 162.8 76.9 161.2 76.2 C 159.5 76.8 157.7 77.5 155.9 77.9 C 153.1 78.5 150.0 76.8 148.8 74.2 C 147.4 71.1 147.4 67.5 148.2 64.2 C 148.8 61.6 150.5 58.9 153.3 58.2 C 155.9 57.8 158.5 58.8 161.0 59.4 C 161.0 56.3 161.1 53.2 161.1 50.0 M 156.2 62.1 C 151.9 64.2 152.6 70.6 155.4 73.8 C 162.5 75.1 163.3 62.0 156.2 62.1 Z" />
<path fill="#5890ff" stroke="#5890ff" stroke-width="0.09375" opacity="1.00" d=" M 239.1 50.0 C 241.7 50.0 244.2 50.0 246.8 50.1 C 249.8 57.3 252.1 64.8 254.8 72.1 C 256.0 75.3 256.8 78.6 257.4 82.0 C 255.3 81.9 253.2 81.9 251.1 81.9 C 250.3 79.6 249.5 77.4 248.6 75.2 C 244.8 75.0 240.9 74.9 237.0 75.0 C 236.2 77.2 235.3 79.5 234.5 81.7 C 232.3 81.8 230.2 81.8 228.0 81.9 C 228.9 78.6 229.9 75.3 231.1 72.2 C 233.9 64.8 236.0 57.2 239.1 50.0 M 242.4 56.9 C 240.8 61.2 239.5 65.5 238.2 69.9 C 241.1 70.0 244.0 70.0 246.9 70.1 C 245.7 65.6 244.3 61.2 242.4 56.9 Z" />
<path fill="#5890ff" stroke="#5890ff" stroke-width="0.09375" opacity="1.00" d=" M 89.4 51.4 C 92.9 50.4 96.5 51.4 100.0 52.2 C 100.1 53.7 100.2 55.2 100.3 56.7 C 97.4 56.1 94.5 54.9 91.6 55.5 C 87.7 56.8 86.5 61.3 86.6 65.0 C 86.6 68.4 87.8 72.7 91.6 73.6 C 94.8 74.1 98.0 72.9 101.2 72.4 C 100.5 74.1 100.5 76.6 98.3 77.2 C 95.4 78.2 92.2 78.3 89.2 77.7 C 85.6 77.0 82.5 74.1 81.6 70.6 C 80.7 67.2 80.7 63.6 81.3 60.2 C 82.1 56.1 85.3 52.5 89.4 51.4 Z" />
<path fill="#5890ff" stroke="#5890ff" stroke-width="0.09375" opacity="1.00" d=" M 283.5 53.2 C 285.3 53.1 287.1 53.1 288.8 53.1 C 289.1 54.9 289.3 56.7 289.5 58.5 C 291.3 58.8 293.1 59.1 294.8 59.4 C 294.9 60.8 294.9 62.2 294.9 63.6 C 293.0 63.9 291.2 64.1 289.3 64.4 C 289.2 68.8 289.3 73.1 289.6 77.4 C 291.4 77.5 293.3 77.6 295.2 77.6 C 295.0 79.2 294.8 80.8 294.4 82.4 C 291.0 83.4 286.0 83.7 284.0 80.0 C 282.4 75.7 283.5 70.8 282.7 66.3 C 282.0 64.5 280.4 63.3 279.4 61.7 C 279.3 60.0 281.3 59.3 282.3 58.1 C 282.7 56.5 283.1 54.8 283.5 53.2 Z" />
<path fill="#f5f2e8" stroke="#f5f2e8" stroke-width="0.09375" opacity="1.00" d=" M 242.4 56.9 C 244.3 61.2 245.7 65.6 246.9 70.1 C 244.0 70.0 241.1 70.0 238.2 69.9 C 239.5 65.5 240.8 61.2 242.4 56.9 Z" />
<path fill="#5890ff" stroke="#5890ff" stroke-width="0.09375" opacity="1.00" d=" M 109.4 58.4 C 113.4 57.4 118.8 57.7 121.3 61.7 C 123.4 65.4 123.3 70.4 121.1 74.2 C 118.8 77.8 114.0 78.5 110.1 77.9 C 107.1 77.6 104.3 75.5 103.5 72.6 C 102.7 69.9 102.7 67.0 103.4 64.2 C 104.1 61.4 106.6 59.2 109.4 58.4 M 109.1 64.3 C 107.7 67.6 109.1 71.1 110.1 74.3 C 112.2 73.7 114.7 73.9 116.2 72.2 C 117.7 69.7 117.6 66.3 116.3 63.7 C 114.4 61.4 110.5 61.8 109.1 64.3 Z" />
<path fill="#5890ff" stroke="#5890ff" stroke-width="0.09375" opacity="1.00" d=" M 126.3 58.2 C 130.2 59.0 134.1 58.6 137.9 58.3 C 140.5 57.9 143.0 59.9 143.4 62.4 C 144.3 67.5 143.8 72.7 143.8 77.9 C 142.1 77.9 140.5 77.9 138.9 78.0 C 138.6 73.2 139.1 68.4 138.2 63.7 C 136.8 60.9 132.2 62.3 131.9 65.1 C 131.3 69.4 131.7 73.6 131.7 77.9 C 129.9 77.9 128.1 77.9 126.3 77.9 C 126.1 71.3 126.1 64.7 126.3 58.2 Z" />
<path fill="#5890ff" stroke="#5890ff" stroke-width="0.09375" opacity="1.00" d=" M 262.9 60.9 C 266.0 57.5 271.2 57.3 275.3 58.7 C 278.0 59.4 277.5 62.6 278.1 64.7 C 275.0 64.3 271.8 62.9 268.7 63.7 C 265.1 66.9 265.3 73.3 268.1 76.9 C 271.1 78.8 274.9 76.7 278.1 76.3 C 277.4 78.4 278.0 81.6 275.3 82.3 C 272.0 83.3 268.2 83.4 264.9 82.0 C 261.6 80.4 260.0 76.6 259.7 73.0 C 259.3 68.8 259.8 64.0 262.9 60.9 Z" />
<path fill="#f5f2e8" stroke="#f5f2e8" stroke-width="0.09375" opacity="1.00" d=" M 109.1 64.3 C 110.5 61.8 114.4 61.4 116.3 63.7 C 117.6 66.3 117.7 69.7 116.2 72.2 C 114.7 73.9 112.2 73.7 110.1 74.3 C 109.1 71.1 107.7 67.6 109.1 64.3 Z" />
<path fill="#f5f2e8" stroke="#f5f2e8" stroke-width="0.09375" opacity="1.00" d=" M 156.2 62.1 C 163.3 62.0 162.5 75.1 155.4 73.8 C 152.6 70.6 151.9 64.2 156.2 62.1 Z" />
<path fill="#5890ff" stroke="#5890ff" stroke-width="0.09375" opacity="1.00" d=" M 171.6 72.0 C 173.4 72.0 175.3 72.1 177.1 72.2 C 177.1 74.1 177.1 75.9 177.1 77.8 C 175.3 77.9 173.4 78.0 171.6 78.0 C 171.7 76.0 171.7 74.0 171.6 72.0 Z" />
<path fill="#5890ff" stroke="#5890ff" stroke-width="0.09375" opacity="1.00" d=" M 299.4 74.3 C 301.8 74.3 304.2 74.3 306.6 74.3 C 306.6 76.8 306.6 79.2 306.6 81.7 C 304.2 81.7 301.8 81.7 299.4 81.7 C 299.4 79.2 299.4 76.8 299.4 74.3 Z" />
<path fill="#f5f2e8" stroke="#f5f2e8" stroke-width="0.09375" opacity="1.00" d=" M 68.1 99.1 C 108.4 99.0 148.7 99.0 188.9 99.1 C 189.0 119.3 189.0 139.6 188.9 159.9 C 148.7 160.0 108.4 160.0 68.1 159.9 C 68.0 139.7 68.0 119.4 68.1 99.1 M 70.1 101.1 C 70.0 120.0 70.0 139.0 70.1 157.9 C 109.0 158.0 148.0 158.0 186.9 157.9 C 187.0 139.0 187.1 120.0 186.9 101.0 C 148.0 101.0 109.0 101.0 70.1 101.1 Z" />
<path fill="#f5f2e8" stroke="#f5f2e8" stroke-width="0.09375" opacity="1.00" d=" M 209.1 99.1 C 249.0 99.0 289.0 99.0 328.9 99.1 C 329.0 119.4 329.0 139.7 328.9 159.9 C 289.0 160.0 249.0 160.0 209.1 159.9 C 209.0 139.6 209.0 119.4 209.1 99.1 M 211.1 101.1 C 211.0 120.0 211.0 139.0 211.1 157.9 C 249.7 158.0 288.3 158.0 326.9 157.9 C 327.0 139.0 327.0 120.0 326.9 101.1 C 288.3 101.0 249.7 101.0 211.1 101.1 Z" />
<path fill="#5890ff" stroke="#5890ff" stroke-width="0.09375" opacity="1.00" d=" M 70.1 101.1 C 109.0 101.0 148.0 101.0 186.9 101.0 C 187.1 120.0 187.0 139.0 186.9 157.9 C 148.0 158.0 109.0 158.0 70.1 157.9 C 70.0 139.0 70.0 120.0 70.1 101.1 Z" />
<path fill="#5890ff" stroke="#5890ff" stroke-width="0.09375" opacity="1.00" d=" M 211.1 101.1 C 249.7 101.0 288.3 101.0 326.9 101.1 C 327.0 120.0 327.0 139.0 326.9 157.9 C 288.3 158.0 249.7 158.0 211.1 157.9 C 211.0 139.0 211.0 120.0 211.1 101.1 Z" />
<path fill="#f5f2e8" stroke="#f5f2e8" stroke-width="0.09375" opacity="1.00" d=" M 68.1 165.1 C 108.4 165.0 148.7 165.0 188.9 165.1 C 189.0 185.4 189.0 205.7 188.9 225.9 C 148.7 226.0 108.4 226.0 68.1 225.9 C 68.0 205.6 67.9 185.3 68.1 165.1 M 70.1 167.1 C 70.0 186.0 70.0 205.0 70.1 223.9 C 109.0 224.0 148.0 224.0 186.9 223.9 C 187.1 205.0 187.0 186.0 186.9 167.1 C 148.0 167.0 109.0 167.0 70.1 167.1 Z" />
<path fill="#f5f2e8" stroke="#f5f2e8" stroke-width="0.09375" opacity="1.00" d=" M 209.1 165.1 C 249.0 165.0 289.0 165.0 328.9 165.1 C 329.0 185.4 329.0 205.6 328.9 225.9 C 289.0 226.0 249.0 226.0 209.1 225.9 C 209.0 205.7 209.0 185.4 209.1 165.1 M 211.1 167.1 C 211.0 186.0 211.0 205.0 211.1 223.9 C 249.7 224.0 288.3 224.0 326.9 223.9 C 327.0 205.0 327.0 186.0 326.9 167.1 C 288.3 167.0 249.7 167.0 211.1 167.1 Z" />
<path fill="#5890ff" stroke="#5890ff" stroke-width="0.09375" opacity="1.00" d=" M 70.1 167.1 C 109.0 167.0 148.0 167.0 186.9 167.1 C 187.0 186.0 187.1 205.0 186.9 223.9 C 148.0 224.0 109.0 224.0 70.1 223.9 C 70.0 205.0 70.0 186.0 70.1 167.1 Z" />
<path fill="#5890ff" stroke="#5890ff" stroke-width="0.09375" opacity="1.00" d=" M 211.1 167.1 C 249.7 167.0 288.3 167.0 326.9 167.1 C 327.0 186.0 327.0 205.0 326.9 223.9 C 288.3 224.0 249.7 224.0 211.1 223.9 C 211.0 205.0 211.0 186.0 211.1 167.1 Z" />
<path fill="#f5f2e8" stroke="#f5f2e8" stroke-width="0.09375" opacity="1.00" d=" M 69.1 231.1 C 109.0 231.0 149.0 231.0 188.9 231.1 C 189.0 251.3 189.0 271.6 188.9 291.9 C 149.0 292.0 109.0 292.0 69.1 291.9 C 69.0 271.6 69.0 251.4 69.1 231.1 M 71.1 233.1 C 71.0 252.0 71.0 271.0 71.1 289.9 C 109.7 290.0 148.3 290.0 186.9 289.9 C 187.0 271.0 187.0 252.0 186.9 233.1 C 148.3 233.0 109.7 233.0 71.1 233.1 Z" />
<path fill="#f5f2e8" stroke="#f5f2e8" stroke-width="0.09375" opacity="1.00" d=" M 209.1 231.1 C 249.0 231.0 289.0 231.0 328.9 231.1 C 329.0 251.4 329.0 271.6 328.9 291.9 C 289.0 292.0 249.0 292.0 209.1 291.9 C 209.0 271.6 208.9 251.4 209.1 231.1 M 211.1 233.1 C 211.0 252.0 211.0 271.0 211.1 289.9 C 249.7 290.0 288.3 290.0 326.9 289.9 C 327.0 271.0 327.0 252.0 326.9 233.1 C 288.3 233.0 249.7 233.0 211.1 233.1 Z" />
<path fill="#5890ff" stroke="#5890ff" stroke-width="0.09375" opacity="1.00" d=" M 71.1 233.1 C 109.7 233.0 148.3 233.0 186.9 233.1 C 187.0 252.0 187.0 271.0 186.9 289.9 C 148.3 290.0 109.7 290.0 71.1 289.9 C 71.0 271.0 71.0 252.0 71.1 233.1 Z" />
<path fill="#5890ff" stroke="#5890ff" stroke-width="0.09375" opacity="1.00" d=" M 211.1 233.1 C 249.7 233.0 288.3 233.0 326.9 233.1 C 327.0 252.0 327.0 271.0 326.9 289.9 C 288.3 290.0 249.7 290.0 211.1 289.9 C 211.0 271.0 211.0 252.0 211.1 233.1 Z" />
<path fill="#f5f2e8" stroke="#f5f2e8" stroke-width="0.09375" opacity="1.00" d=" M 69.1 296.1 C 109.0 296.0 149.0 296.0 188.9 296.1 C 189.0 316.4 189.0 336.6 188.9 356.9 C 149.0 357.0 109.0 357.0 69.1 356.9 C 69.0 336.6 69.0 316.4 69.1 296.1 M 71.1 298.1 C 71.0 317.0 71.0 336.0 71.1 354.9 C 109.7 355.0 148.3 355.0 186.9 354.9 C 187.0 336.0 187.0 317.0 186.9 298.1 C 148.3 298.0 109.7 298.0 71.1 298.1 Z" />
<path fill="#f5f2e8" stroke="#f5f2e8" stroke-width="0.09375" opacity="1.00" d=" M 209.1 296.1 C 249.0 296.0 289.0 296.0 328.9 296.1 C 329.0 316.4 329.0 336.7 328.9 356.9 C 289.0 357.0 249.0 357.0 209.1 356.9 C 209.0 336.7 209.0 316.4 209.1 296.1 M 211.1 298.1 C 211.0 317.0 211.0 336.0 211.1 354.9 C 249.7 355.0 288.3 355.0 326.9 354.9 C 327.0 336.0 327.0 317.0 326.9 298.1 C 288.3 298.0 249.7 298.0 211.1 298.1 Z" />
<path fill="#5890ff" stroke="#5890ff" stroke-width="0.09375" opacity="1.00" d=" M 71.1 298.1 C 109.7 298.0 148.3 298.0 186.9 298.1 C 187.0 317.0 187.0 336.0 186.9 354.9 C 148.3 355.0 109.7 355.0 71.1 354.9 C 71.0 336.0 71.0 317.0 71.1 298.1 Z" />
<path fill="#5890ff" stroke="#5890ff" stroke-width="0.09375" opacity="1.00" d=" M 211.1 298.1 C 249.7 298.0 288.3 298.0 326.9 298.1 C 327.0 317.0 327.0 336.0 326.9 354.9 C 288.3 355.0 249.7 355.0 211.1 354.9 C 211.0 336.0 211.0 317.0 211.1 298.1 Z" />
</svg>
