<?xml version="1.0" encoding="UTF-8" ?>
<!DOCTYPE svg PUBLIC "-//W3C//DTD SVG 1.1//EN" "http://www.w3.org/Graphics/SVG/1.1/DTD/svg11.dtd">
<svg width="271pt" height="261pt" viewBox="0 0 271 261" version="1.1" xmlns="http://www.w3.org/2000/svg">
<g class="sprite" id="badge">
<path fill="#000000" opacity="1.00" d=" M 0.00 0.00 L 28.00 0.00 C 28.00 2.67 28.00 5.33 28.00 8.00 C 20.03 8.01 12.07 7.99 4.11 8.00 C 4.05 7.50 3.95 6.50 3.89 6.00 C 2.60 6.00 1.30 6.00 -0.00 6.00 L 0.00 0.00 Z" />
<path fill="#000000" opacity="1.00" d=" M 36.00 0.00 L 60.00 0.00 C 60.00 2.67 60.00 5.33 60.00 8.00 C 52.00 8.00 44.00 8.00 36.00 8.00 C 36.00 5.33 36.00 2.67 36.00 0.00 Z" />
<path fill="#000000" opacity="1.00" d=" M 68.00 0.00 L 92.00 0.00 C 92.00 2.67 92.00 5.33 92.00 8.00 C 84.00 8.00 76.00 8.00 68.00 8.00 C 68.00 5.33 68.00 2.67 68.00 0.00 Z" />
<path fill="#000000" opacity="1.00" d=" M 100.00 0.00 L 124.00 0.00 C 124.00 2.67 124.00 5.33 124.00 8.00 C 116.00 8.00 108.00 8.00 100.00 8.00 C 100.00 5.33 100.00 2.67 100.00 0.00 Z" />
<path fill="#000000" opacity="1.00" d=" M 132.00 0.00 L 156.00 0.00 C 156.00 2.67 156.00 5.33 156.00 8.00 C 148.00 8.00 140.00 8.00 132.01 8.00 C 132.00 5.33 132.00 2.67 132.00 0.00 Z" />
<path fill="#000000" opacity="1.00" d=" M 164.00 0.00 L 188.00 0.00 C 188.00 2.67 188.00 5.33 188.00 8.00 C 180.00 8.00 172.00 8.00 164.00 8.00 C 164.00 5.33 164.00 2.67 164.00 0.00 Z" />
<path fill="#000000" opacity="1.00" d=" M 196.00 0.00 L 220.00 0.00 C 220.00 2.67 220.00 5.33 220.00 8.00 C 212.00 8.00 204.00 8.00 196.00 8.00 C 196.00 5.33 196.00 2.67 196.00 0.00 Z" />
<path fill="#000000" opacity="1.00" d=" M 228.00 0.00 L 252.00 0.00 C 252.00 2.67 252.00 5.33 252.00 8.00 C 244.00 8.00 236.00 8.00 228.00 8.00 C 228.00 5.33 228.00 2.67 228.00 0.00 Z" />
<path fill="#000000" opacity="1.00" d=" M 260.00 0.00 L 271.00 0.00 L 271.00 21.00 C 268.33 21.00 265.67 21.00 263.00 21.00 C 262.99 16.68 263.00 12.36 263.00 8.04 C 262.25 8.02 260.75 7.98 260.00 7.96 C 260.00 5.31 260.00 2.65 260.00 0.00 Z" />
<path fill="#000000" opacity="1.00" d=" M 0.00 14.00 C 2.67 14.00 5.33 14.00 8.00 14.00 C 8.00 22.00 8.00 30.00 8.00 38.00 C 5.33 38.00 2.67 38.00 0.00 38.00 L 0.00 14.00 Z" />
<path fill="#000000" opacity="1.00" d=" M 263.00 29.00 C 265.67 29.00 268.33 29.00 271.00 29.00 L 271.00 53.00 C 268.33 53.00 265.67 53.00 263.00 53.00 C 263.00 45.00 263.00 37.00 263.00 29.00 Z" />
<path fill="#000000" opacity="1.00" d=" M 0.00 46.00 C 2.67 46.00 5.33 46.00 8.00 46.00 C 8.00 54.00 8.00 62.00 8.00 70.00 C 5.33 70.00 2.67 70.00 0.00 70.00 L 0.00 46.00 Z" />
<path fill="#000000" opacity="1.00" d=" M 263.00 61.01 C 265.67 61.00 268.33 61.00 271.00 61.00 L 271.00 85.00 C 268.33 85.00 265.67 85.00 263.00 85.00 C 262.99 77.00 263.00 69.00 263.00 61.01 Z" />
<path fill="#000000" opacity="1.00" d=" M 0.00 78.00 C 2.67 78.00 5.33 78.00 8.00 78.00 C 8.00 82.00 8.00 85.99 8.00 89.99 C 9.33 89.99 10.67 90.00 12.00 90.01 C 12.00 92.67 12.00 95.33 12.00 98.00 C 8.00 98.00 4.00 98.00 0.00 98.00 L 0.00 78.00 Z" />
<path fill="#000000" opacity="1.00" d=" M 20.01 90.00 C 28.00 90.00 36.00 90.00 44.00 90.00 C 44.00 92.67 44.00 95.33 44.00 98.00 C 36.00 98.00 28.00 98.00 20.00 98.00 C 20.00 95.33 20.00 92.67 20.01 90.00 Z" />
<path fill="#000000" opacity="1.00" d=" M 52.00 90.00 C 60.00 90.00 68.00 90.00 76.00 90.00 C 76.00 92.67 76.00 95.33 76.00 98.00 C 68.00 98.00 60.00 98.00 52.00 98.00 C 52.00 95.33 51.99 92.67 52.00 90.00 Z" />
<path fill="#000000" opacity="1.00" d=" M 84.00 90.00 C 92.00 90.00 100.00 90.00 108.00 90.00 C 108.00 92.67 108.00 95.33 108.00 98.00 C 100.00 98.00 92.00 98.00 84.00 97.99 C 83.99 95.33 84.00 92.67 84.00 90.00 Z" />
<path fill="#000000" opacity="1.00" d=" M 116.00 90.00 C 124.00 90.00 132.00 90.00 140.00 90.00 C 140.00 92.67 140.00 95.33 140.00 98.00 C 132.00 98.00 124.00 98.00 116.00 98.00 C 115.99 95.33 116.00 92.67 116.00 90.00 Z" />
<path fill="#000000" opacity="1.00" d=" M 148.00 90.00 C 156.00 90.00 164.00 90.00 172.00 90.00 C 172.00 92.67 172.00 95.33 171.99 98.00 C 164.00 98.00 156.00 98.00 148.00 98.00 C 147.99 95.33 147.99 92.67 148.00 90.00 Z" />
<path fill="#000000" opacity="1.00" d=" M 180.01 90.00 C 188.00 90.00 196.00 90.00 204.00 90.00 C 204.00 92.67 204.00 95.33 204.00 98.00 C 196.00 98.00 188.00 98.00 180.00 98.00 C 179.99 95.33 179.99 92.67 180.01 90.00 Z" />
<path fill="#000000" opacity="1.00" d=" M 212.01 90.00 C 220.00 90.00 228.00 90.00 235.99 90.00 C 236.00 92.67 236.00 95.33 236.00 98.00 C 228.00 98.00 220.00 98.00 212.00 98.00 C 211.99 95.33 211.99 92.67 212.01 90.00 Z" />
<path fill="#000000" opacity="1.00" d=" M 244.00 90.00 C 251.66 89.99 259.31 90.00 266.96 90.00 C 266.98 90.75 267.02 92.25 267.04 93.00 C 268.35 93.00 269.68 93.00 271.00 93.01 L 271.00 98.00 C 262.00 98.00 253.00 98.01 244.00 98.00 C 243.99 95.33 243.99 92.67 244.00 90.00 Z" />
<path fill="#000000" opacity="1.00" d=" M 130.36 108.03 C 133.03 108.00 135.70 107.98 138.37 108.01 C 138.38 116.00 138.38 124.00 138.37 132.00 C 135.70 132.01 133.03 132.00 130.36 131.97 C 130.38 123.99 130.38 116.01 130.36 108.03 Z" />
<path fill="#000000" opacity="1.00" d=" M 130.25 140.01 C 132.91 139.99 135.58 139.99 138.25 140.01 C 138.26 148.00 138.25 156.00 138.25 163.99 C 135.58 164.01 132.91 164.00 130.25 163.99 C 130.25 155.99 130.25 148.00 130.25 140.01 Z" />
<path fill="#000000" opacity="1.00" d=" M 130.13 172.01 C 132.79 171.99 135.45 171.99 138.12 172.01 C 138.13 180.00 138.13 188.00 138.12 195.99 C 135.45 196.00 132.79 196.00 130.12 195.99 C 130.13 188.00 130.12 180.00 130.13 172.01 Z" />
<path fill="#000000" opacity="1.00" d=" M 130.13 204.01 C 132.79 203.99 135.45 203.99 138.12 204.01 C 138.13 212.00 138.13 220.00 138.12 227.99 C 135.45 228.00 132.79 228.00 130.12 227.99 C 130.13 220.00 130.12 212.00 130.13 204.01 Z" />
<path fill="#000000" opacity="1.00" d=" M 130.00 236.00 C 132.67 235.99 135.33 235.99 138.00 236.00 C 138.00 238.17 138.00 240.33 138.00 242.49 C 135.33 242.51 132.67 242.51 130.00 242.49 C 130.00 240.33 130.00 238.17 130.00 236.00 Z" />
<path fill="#000000" opacity="1.00" d=" M 44.00 253.00 C 52.00 253.00 60.00 253.00 68.00 253.00 C 68.00 255.67 68.00 258.33 68.00 261.00 L 44.00 261.00 C 44.00 258.33 44.00 255.67 44.00 253.00 Z" />
<path fill="#000000" opacity="1.00" d=" M 76.01 253.00 C 84.00 253.00 92.00 252.99 100.00 253.00 C 100.00 255.67 100.00 258.33 100.00 261.00 L 76.00 261.00 C 76.00 258.33 76.00 255.67 76.01 253.00 Z" />
<path fill="#000000" opacity="1.00" d=" M 108.00 253.00 C 116.00 253.00 124.00 253.00 131.99 253.00 C 132.00 255.67 132.00 258.33 132.00 261.00 L 108.00 261.00 C 108.00 258.33 108.00 255.67 108.00 253.00 Z" />
<path fill="#000000" opacity="1.00" d=" M 140.00 253.00 C 148.00 253.00 156.00 253.00 164.00 253.00 C 164.00 255.67 164.00 258.33 164.00 261.00 L 140.00 261.00 C 140.00 258.33 140.00 255.67 140.00 253.00 Z" />
<path fill="#000000" opacity="1.00" d=" M 172.00 253.00 C 180.00 253.00 188.00 253.00 195.99 253.00 C 196.00 255.67 196.00 258.33 196.00 261.00 L 172.00 261.00 C 172.00 258.33 172.00 255.67 172.00 253.00 Z" />
<path fill="#000000" opacity="1.00" d=" M 204.00 253.00 C 211.04 253.00 218.08 252.99 225.12 253.01 C 225.12 255.67 225.13 258.33 225.13 261.00 L 204.00 261.00 C 204.00 258.33 204.00 255.67 204.00 253.00 Z" />
</g>
<g class="sprite" id="icon">
<path fill="#ffffff" opacity="1.00" d=" M 0.00 0.00 L 28.00 0.00 C 28.00 2.67 28.00 5.33 28.00 8.00 C 20.03 8.01 12.07 7.99 4.11 8.00 C 4.05 7.50 3.95 6.50 3.89 6.00 C 2.60 6.00 1.30 6.00 -0.00 6.00 L 0.00 0.00 Z" />
<path fill="#ffffff" opacity="1.00" d=" M 36.00 0.00 L 60.00 0.00 C 60.00 2.67 60.00 5.33 60.00 8.00 C 52.00 8.00 44.00 8.00 36.00 8.00 C 36.00 5.33 36.00 2.67 36.00 0.00 Z" />
<path fill="#ffffff" opacity="1.00" d=" M 68.00 0.00 L 92.00 0.00 C 92.00 2.67 92.00 5.33 92.00 8.00 C 84.00 8.00 76.00 8.00 68.00 8.00 C 68.00 5.33 68.00 2.67 68.00 0.00 Z" />
<path fill="#ffffff" opacity="1.00" d=" M 100.00 0.00 L 124.00 0.00 C 124.00 2.67 124.00 5.33 124.00 8.00 C 116.00 8.00 108.00 8.00 100.00 8.00 C 100.00 5.33 100.00 2.67 100.00 0.00 Z" />
<path fill="#ffffff" opacity="1.00" d=" M 132.00 0.00 L 156.00 0.00 C 156.00 2.67 156.00 5.33 156.00 8.00 C 148.00 8.00 140.00 8.00 132.01 8.00 C 132.00 5.33 132.00 2.67 132.00 0.00 Z" />
<path fill="#ffffff" opacity="1.00" d=" M 164.00 0.00 L 188.00 0.00 C 188.00 2.67 188.00 5.33 188.00 8.00 C 180.00 8.00 172.00 8.00 164.00 8.00 C 164.00 5.33 164.00 2.67 164.00 0.00 Z" />
<path fill="#ffffff" opacity="1.00" d=" M 196.00 0.00 L 220.00 0.00 C 220.00 2.67 220.00 5.33 220.00 8.00 C 212.00 8.00 204.00 8.00 196.00 8.00 C 196.00 5.33 196.00 2.67 196.00 0.00 Z" />
<path fill="#ffffff" opacity="1.00" d=" M 228.00 0.00 L 252.00 0.00 C 252.00 2.67 252.00 5.33 252.00 8.00 C 244.00 8.00 236.00 8.00 228.00 8.00 C 228.00 5.33 228.00 2.67 228.00 0.00 Z" />
<path fill="#ffffff" opacity="1.00" d=" M 260.00 0.00 L 271.00 0.00 L 271.00 21.00 C 268.33 21.00 265.67 21.00 263.00 21.00 C 262.99 16.68 263.00 12.36 263.00 8.04 C 262.25 8.02 260.75 7.98 260.00 7.96 C 260.00 5.31 260.00 2.65 260.00 0.00 Z" />
<path fill="#ffffff" opacity="1.00" d=" M 0.00 14.00 C 2.67 14.00 5.33 14.00 8.00 14.00 C 8.00 22.00 8.00 30.00 8.00 38.00 C 5.33 38.00 2.67 38.00 0.00 38.00 L 0.00 14.00 Z" />
<path fill="#ffffff" opacity="1.00" d=" M 263.00 29.00 C 265.67 29.00 268.33 29.00 271.00 29.00 L 271.00 53.00 C 268.33 53.00 265.67 53.00 263.00 53.00 C 263.00 45.00 263.00 37.00 263.00 29.00 Z" />
<path fill="#ffffff" opacity="1.00" d=" M 0.00 46.00 C 2.67 46.00 5.33 46.00 8.00 46.00 C 8.00 54.00 8.00 62.00 8.00 70.00 C 5.33 70.00 2.67 70.00 0.00 70.00 L 0.00 46.00 Z" />
<path fill="#ffffff" opacity="1.00" d=" M 263.00 61.01 C 265.67 61.00 268.33 61.00 271.00 61.00 L 271.00 85.00 C 268.33 85.00 265.67 85.00 263.00 85.00 C 262.99 77.00 263.00 69.00 263.00 61.01 Z" />
<path fill="#ffffff" opacity="1.00" d=" M 0.00 78.00 C 2.67 78.00 5.33 78.00 8.00 78.00 C 8.00 82.00 8.00 85.99 8.00 89.99 C 9.33 89.99 10.67 90.00 12.00 90.01 C 12.00 92.67 12.00 95.33 12.00 98.00 C 8.00 98.00 4.00 98.00 0.00 98.00 L 0.00 78.00 Z" />
<path fill="#ffffff" opacity="1.00" d=" M 20.01 90.00 C 28.00 90.00 36.00 90.00 44.00 90.00 C 44.00 92.67 44.00 95.33 44.00 98.00 C 36.00 98.00 28.00 98.00 20.00 98.00 C 20.00 95.33 20.00 92.67 20.01 90.00 Z" />
<path fill="#ffffff" opacity="1.00" d=" M 52.00 90.00 C 60.00 90.00 68.00 90.00 76.00 90.00 C 76.00 92.67 76.00 95.33 76.00 98.00 C 68.00 98.00 60.00 98.00 52.00 98.00 C 52.00 95.33 51.99 92.67 52.00 90.00 Z" />
<path fill="#ffffff" opacity="1.00" d=" M 84.00 90.00 C 92.00 90.00 100.00 90.00 108.00 90.00 C 108.00 92.67 108.00 95.33 108.00 98.00 C 100.00 98.00 92.00 98.00 84.00 97.99 C 83.99 95.33 84.00 92.67 84.00 90.00 Z" />
<path fill="#ffffff" opacity="1.00" d=" M 116.00 90.00 C 124.00 90.00 132.00 90.00 140.00 90.00 C 140.00 92.67 140.00 95.33 140.00 98.00 C 132.00 98.00 124.00 98.00 116.00 98.00 C 115.99 95.33 116.00 92.67 116.00 90.00 Z" />
<path fill="#ffffff" opacity="1.00" d=" M 148.00 90.00 C 156.00 90.00 164.00 90.00 172.00 90.00 C 172.00 92.67 172.00 95.33 171.99 98.00 C 164.00 98.00 156.00 98.00 148.00 98.00 C 147.99 95.33 147.99 92.67 148.00 90.00 Z" />
<path fill="#ffffff" opacity="1.00" d=" M 180.01 90.00 C 188.00 90.00 196.00 90.00 204.00 90.00 C 204.00 92.67 204.00 95.33 204.00 98.00 C 196.00 98.00 188.00 98.00 180.00 98.00 C 179.99 95.33 179.99 92.67 180.01 90.00 Z" />
<path fill="#ffffff" opacity="1.00" d=" M 212.01 90.00 C 220.00 90.00 228.00 90.00 235.99 90.00 C 236.00 92.67 236.00 95.33 236.00 98.00 C 228.00 98.00 220.00 98.00 212.00 98.00 C 211.99 95.33 211.99 92.67 212.01 90.00 Z" />
<path fill="#ffffff" opacity="1.00" d=" M 244.00 90.00 C 251.66 89.99 259.31 90.00 266.96 90.00 C 266.98 90.75 267.02 92.25 267.04 93.00 C 268.35 93.00 269.68 93.00 271.00 93.01 L 271.00 98.00 C 262.00 98.00 253.00 98.01 244.00 98.00 C 243.99 95.33 243.99 92.67 244.00 90.00 Z" />
<path fill="#ffffff" opacity="1.00" d=" M 130.36 108.03 C 133.03 108.00 135.70 107.98 138.37 108.01 C 138.38 116.00 138.38 124.00 138.37 132.00 C 135.70 132.01 133.03 132.00 130.36 131.97 C 130.38 123.99 130.38 116.01 130.36 108.03 Z" />
<path fill="#ffffff" opacity="1.00" d=" M 130.25 140.01 C 132.91 139.99 135.58 139.99 138.25 140.01 C 138.26 148.00 138.25 156.00 138.25 163.99 C 135.58 164.01 132.91 164.00 130.25 163.99 C 130.25 155.99 130.25 148.00 130.25 140.01 Z" />
<path fill="#ffffff" opacity="1.00" d=" M 130.13 172.01 C 132.79 171.99 135.45 171.99 138.12 172.01 C 138.13 180.00 138.13 188.00 138.12 195.99 C 135.45 196.00 132.79 196.00 130.12 195.99 C 130.13 188.00 130.12 180.00 130.13 172.01 Z" />
<path fill="#ffffff" opacity="1.00" d=" M 130.13 204.01 C 132.79 203.99 135.45 203.99 138.12 204.01 C 138.13 212.00 138.13 220.00 138.12 227.99 C 135.45 228.00 132.79 228.00 130.12 227.99 C 130.13 220.00 130.12 212.00 130.13 204.01 Z" />
<path fill="#ffffff" opacity="1.00" d=" M 130.00 236.00 C 132.67 235.99 135.33 235.99 138.00 236.00 C 138.00 238.17 138.00 240.33 138.00 242.49 C 135.33 242.51 132.67 242.51 130.00 242.49 C 130.00 240.33 130.00 238.17 130.00 236.00 Z" />
<path fill="#ffffff" opacity="1.00" d=" M 44.00 253.00 C 52.00 253.00 60.00 253.00 68.00 253.00 C 68.00 255.67 68.00 258.33 68.00 261.00 L 44.00 261.00 C 44.00 258.33 44.00 255.67 44.00 253.00 Z" />
<path fill="#ffffff" opacity="1.00" d=" M 76.01 253.00 C 84.00 253.00 92.00 252.99 100.00 253.00 C 100.00 255.67 100.00 258.33 100.00 261.00 L 76.00 261.00 C 76.00 258.33 76.00 255.67 76.01 253.00 Z" />
<path fill="#ffffff" opacity="1.00" d=" M 108.00 253.00 C 116.00 253.00 124.00 253.00 131.99 253.00 C 132.00 255.67 132.00 258.33 132.00 261.00 L 108.00 261.00 C 108.00 258.33 108.00 255.67 108.00 253.00 Z" />
<path fill="#ffffff" opacity="1.00" d=" M 140.00 253.00 C 148.00 253.00 156.00 253.00 164.00 253.00 C 164.00 255.67 164.00 258.33 164.00 261.00 L 140.00 261.00 C 140.00 258.33 140.00 255.67 140.00 253.00 Z" />
<path fill="#ffffff" opacity="1.00" d=" M 172.00 253.00 C 180.00 253.00 188.00 253.00 195.99 253.00 C 196.00 255.67 196.00 258.33 196.00 261.00 L 172.00 261.00 C 172.00 258.33 172.00 255.67 172.00 253.00 Z" />
<path fill="#ffffff" opacity="1.00" d=" M 204.00 253.00 C 211.04 253.00 218.08 252.99 225.12 253.01 C 225.12 255.67 225.13 258.33 225.13 261.00 L 204.00 261.00 C 204.00 258.33 204.00 255.67 204.00 253.00 Z" />
</g>
<defs>
    <style><![CDATA[
        .sprite { display: none; }
        .sprite:target { display: inline; }
    ]]></style>
</defs>
</svg>
