<?xml version="1.0" encoding="UTF-8" ?>
<!DOCTYPE svg PUBLIC "-//W3C//DTD SVG 1.1//EN" "http://www.w3.org/Graphics/SVG/1.1/DTD/svg11.dtd">
<svg width="393pt" height="394pt" viewBox="0 0 393 394" version="1.1" xmlns="http://www.w3.org/2000/svg">
<path fill="#434343" stroke="#434343" stroke-width="0.09375" opacity="1.00" d=" M 76.4 41.4 C 111.3 13.6 156.4 -1.0 201.0 0.2 C 240.0 1.0 278.8 13.6 310.3 36.6 C 331.1 51.3 348.7 70.2 362.5 91.5 C 381.9 122.2 392.6 158.2 393.0 194.5 L 393.0 199.5 C 392.6 234.4 382.8 269.0 364.8 298.8 C 342.0 336.2 306.7 366.1 265.6 381.5 C 245.7 389.1 224.5 393.0 203.3 394.0 L 189.9 394.0 C 163.1 392.8 136.3 386.6 112.1 374.9 C 84.9 361.9 60.9 342.4 42.2 318.8 C 19.3 290.0 5.0 254.6 1.2 218.0 C -2.2 185.5 2.3 152.0 15.0 121.7 C 27.9 90.2 49.4 62.2 76.4 41.4 M 180.5 10.7 C 147.8 13.5 115.9 25.1 89.2 44.2 C 66.6 60.4 47.4 81.4 33.8 105.7 C 14.1 140.7 6.3 182.2 11.7 221.9 C 17.3 265.8 39.4 307.2 72.6 336.5 C 109.6 370.4 161.1 387.6 211.1 383.4 C 240.7 381.2 269.8 371.6 295.0 355.8 C 310.3 346.0 324.4 334.2 336.4 320.4 C 367.1 286.1 383.9 240.0 383.0 194.0 C 382.5 157.4 370.9 121.1 350.1 91.0 C 341.6 79.0 332.0 67.7 320.9 58.1 C 283.5 23.5 231.2 6.2 180.5 10.7 Z" />
<path fill="#ffffff" stroke="#ffffff" stroke-width="0.09375" opacity="1.00" d=" M 180.5 10.7 C 231.2 6.2 283.5 23.5 320.9 58.1 C 332.0 67.7 341.6 79.0 350.1 91.0 C 370.9 121.1 382.5 157.4 383.0 194.0 C 383.9 240.0 367.1 286.1 336.4 320.4 C 324.4 334.2 310.3 346.0 295.0 355.8 C 269.8 371.6 240.7 381.2 211.1 383.4 C 161.1 387.6 109.6 370.4 72.6 336.5 C 39.4 307.2 17.3 265.8 11.7 221.9 C 6.3 182.2 14.1 140.7 33.8 105.7 C 47.4 81.4 66.6 60.4 89.2 44.2 C 115.9 25.1 147.8 13.5 180.5 10.7 M 195.7 194.1 C 192.9 192.4 189.5 192.2 186.4 191.7 C 164.2 167.0 142.2 142.1 120.0 117.4 C 118.0 119.2 116.0 120.9 114.1 122.6 C 135.6 146.9 157.2 171.0 178.8 195.2 C 173.1 199.6 171.5 207.9 174.8 214.3 C 160.3 228.8 145.7 243.2 131.2 257.7 C 133.1 259.5 135.0 261.4 136.8 263.3 C 151.4 249.0 165.8 234.4 180.4 220.0 C 185.6 222.8 192.3 222.6 197.0 218.9 C 202.9 214.7 204.5 206.3 201.3 199.9 C 236.8 164.5 272.4 129.3 308.0 93.9 C 306.2 92.0 304.3 90.1 302.4 88.2 C 266.9 123.6 231.3 158.8 195.7 194.1 Z" />
<path fill="#434343" stroke="#434343" stroke-width="0.09375" opacity="1.00" d=" M 195.7 194.1 C 231.3 158.8 266.9 123.6 302.4 88.2 C 304.3 90.1 306.2 92.0 308.0 93.9 C 272.4 129.3 236.8 164.5 201.3 199.9 C 204.5 206.3 202.9 214.7 197.0 218.9 C 192.3 222.6 185.6 222.8 180.4 220.0 C 165.8 234.4 151.4 249.0 136.8 263.3 C 135.0 261.4 133.1 259.5 131.2 257.7 C 145.7 243.2 160.3 228.8 174.8 214.3 C 171.5 207.9 173.1 199.6 178.8 195.2 C 157.2 171.0 135.6 146.9 114.1 122.6 C 116.0 120.9 118.0 119.2 120.0 117.4 C 142.2 142.1 164.2 167.0 186.4 191.7 C 189.5 192.2 192.9 192.4 195.7 194.1 Z" />
</svg>
