<?xml version="1.0" encoding="utf-8"?>
<!DOCTYPE svg PUBLIC "-//W3C//DTD SVG 1.1//EN" "http://www.w3.org/Graphics/SVG/1.1/DTD/svg11.dtd">
<svg xmlns="http://www.w3.org/2000/svg" width="120pt" height="120pt" viewBox="0 0 120 120" version="1.1">
<g class="sprite" id="badge">
    <path fill="#5890ff" d=" M 20.75 0.00 L 99.11 0.00 C 109.64 -0.22 119.44 8.21 120.00 18.86 L 120.00 101.55 C 119.35 110.90 111.57 118.95 102.27 120.00 L 17.51 120.00 C 7.74 118.65 0.02 109.79 0.00 99.92 L 0.00 19.79 C 0.48 14.23 2.69 8.66 7.09 5.06 C 10.79 1.64 15.86 0.37 20.75 0.00 Z"/><path fill="#f5f2e8" d=" M 95.28 15.07 C 95.98 9.28 103.90 8.17 107.99 11.23 C 107.90 12.44 107.82 13.64 107.75 14.85 C 105.42 13.89 102.95 13.36 100.42 13.67 C 99.74 16.95 103.48 17.17 105.53 18.44 C 109.72 19.72 110.08 26.31 106.30 28.27 C 102.90 30.53 98.46 29.98 95.15 27.84 C 95.24 26.53 95.34 25.21 95.43 23.90 C 97.75 25.21 100.37 25.61 103.01 25.45 C 103.33 24.90 103.97 23.79 104.29 23.24 C 100.90 21.20 94.84 20.21 95.28 15.07 Z"/><path fill="#f5f2e8" d=" M 42.55 23.63 C 50.51 18.33 60.80 17.14 70.01 19.22 C 74.25 20.06 78.56 21.37 81.79 24.36 C 81.93 28.45 82.37 32.60 81.66 36.65 C 80.71 38.55 78.69 37.48 77.38 36.68 C 72.12 33.56 66.00 31.37 59.81 31.94 C 56.15 32.46 52.09 34.55 51.29 38.49 C 50.29 41.33 51.33 44.52 53.47 46.55 C 57.10 50.41 62.33 51.89 66.95 54.16 C 71.95 56.58 77.23 58.88 81.13 62.97 C 91.05 73.40 88.34 92.66 76.10 100.16 C 65.06 107.24 50.54 107.21 38.68 102.22 C 35.72 100.91 31.83 98.93 32.11 95.11 C 32.18 91.45 31.07 87.03 34.11 84.22 C 40.37 87.50 46.70 91.45 54.02 91.44 C 59.28 91.84 66.12 90.78 68.25 85.18 C 70.36 81.28 68.65 76.28 65.19 73.79 C 57.02 67.97 46.23 66.27 39.30 58.64 C 30.04 49.00 31.60 31.36 42.55 23.63 Z"/>
</g>
 
<g class="sprite" id="icon">
    <path fill="#f5f2e8" d=" M 20.75 0.00 L 99.11 0.00 C 109.64 -0.22 119.44 8.21 120.00 18.86 L 120.00 101.55 C 119.35 110.90 111.57 118.95 102.27 120.00 L 17.51 120.00 C 7.74 118.65 0.02 109.79 0.00 99.92 L 0.00 19.79 C 0.48 14.23 2.69 8.66 7.09 5.06 C 10.79 1.64 15.86 0.37 20.75 0.00 Z"/><path fill="#5890ff" d=" M 95.28 15.07 C 95.98 9.28 103.90 8.17 107.99 11.23 C 107.90 12.44 107.82 13.64 107.75 14.85 C 105.42 13.89 102.95 13.36 100.42 13.67 C 99.74 16.95 103.48 17.17 105.53 18.44 C 109.72 19.72 110.08 26.31 106.30 28.27 C 102.90 30.53 98.46 29.98 95.15 27.84 C 95.24 26.53 95.34 25.21 95.43 23.90 C 97.75 25.21 100.37 25.61 103.01 25.45 C 103.33 24.90 103.97 23.79 104.29 23.24 C 100.90 21.20 94.84 20.21 95.28 15.07 Z"/><path fill="#5890ff" d=" M 42.55 23.63 C 50.51 18.33 60.80 17.14 70.01 19.22 C 74.25 20.06 78.56 21.37 81.79 24.36 C 81.93 28.45 82.37 32.60 81.66 36.65 C 80.71 38.55 78.69 37.48 77.38 36.68 C 72.12 33.56 66.00 31.37 59.81 31.94 C 56.15 32.46 52.09 34.55 51.29 38.49 C 50.29 41.33 51.33 44.52 53.47 46.55 C 57.10 50.41 62.33 51.89 66.95 54.16 C 71.95 56.58 77.23 58.88 81.13 62.97 C 91.05 73.40 88.34 92.66 76.10 100.16 C 65.06 107.24 50.54 107.21 38.68 102.22 C 35.72 100.91 31.83 98.93 32.11 95.11 C 32.18 91.45 31.07 87.03 34.11 84.22 C 40.37 87.50 46.70 91.45 54.02 91.44 C 59.28 91.84 66.12 90.78 68.25 85.18 C 70.36 81.28 68.65 76.28 65.19 73.79 C 57.02 67.97 46.23 66.27 39.30 58.64 C 30.04 49.00 31.60 31.36 42.55 23.63 Z"/>
</g>
<defs>
    <style><![CDATA[
        .sprite { display: none; }
        .sprite:target { display: inline; }
    ]]></style>
</defs>
</svg>