<?xml version="1.0" encoding="UTF-8" ?>
<!DOCTYPE svg PUBLIC "-//W3C//DTD SVG 1.1//EN" "http://www.w3.org/Graphics/SVG/1.1/DTD/svg11.dtd">
<svg xmlns="http://www.w3.org/2000/svg" width="598pt" height="598pt" viewBox="0 0 598 598" version="1.1">
<path fill="#404040" d=" M 98.51 0.00 L 499.98 0.00 C 520.03 0.63 540.02 6.87 556.31 18.70 C 569.83 28.50 581.03 41.58 588.19 56.70 C 594.48 69.76 597.69 84.19 598.00 98.66 L 598.00 262.70 C 596.43 266.46 595.41 270.41 594.50 274.38 C 591.64 284.41 587.71 294.10 583.49 303.62 C 581.49 308.18 579.09 312.54 576.26 316.63 C 571.37 304.31 570.67 290.86 566.80 278.25 C 565.98 275.83 564.84 272.94 562.07 272.29 C 559.54 272.75 558.39 275.24 557.61 277.40 C 553.23 290.70 552.62 305.09 546.83 317.94 C 539.12 304.23 537.16 288.12 529.83 274.23 C 528.31 271.63 526.35 268.53 523.01 268.36 C 518.88 268.67 516.69 272.75 514.79 275.90 C 508.83 287.09 505.16 299.32 499.46 310.64 C 498.26 312.97 496.68 315.08 495.11 317.17 C 487.48 304.19 487.77 288.32 481.22 274.92 C 480.05 271.97 476.21 270.28 473.66 272.65 C 469.83 276.28 468.20 281.54 466.15 286.26 C 462.26 295.57 459.82 305.64 453.93 313.98 C 448.17 304.59 446.93 293.37 442.77 283.31 C 441.57 280.61 440.18 277.23 436.98 276.51 C 433.84 276.48 432.19 279.50 430.97 281.93 C 427.13 290.25 425.24 299.32 421.39 307.63 C 420.39 309.79 418.77 311.54 417.23 313.31 C 412.71 310.50 409.14 306.54 405.83 302.45 C 406.77 278.28 398.99 253.91 384.28 234.70 C 369.68 215.38 348.40 201.17 324.85 195.40 C 300.13 189.18 273.16 191.95 250.38 203.48 C 226.33 215.36 207.12 236.63 197.77 261.78 C 194.54 270.13 192.78 278.96 191.51 287.80 C 190.02 281.24 188.90 274.58 186.87 268.15 C 186.06 265.68 184.45 262.22 181.23 263.05 C 179.35 264.48 178.65 266.84 178.08 269.03 C 174.46 284.20 173.62 299.91 169.67 315.02 C 165.90 299.60 164.66 283.69 160.93 268.26 C 159.95 264.90 159.08 260.92 155.85 258.97 C 152.53 258.75 150.94 262.30 149.78 264.83 C 143.66 280.63 141.48 297.75 134.58 313.27 C 130.04 299.06 129.64 283.92 125.74 269.56 C 124.84 266.64 123.64 263.41 120.74 261.93 C 117.54 262.05 115.76 265.09 114.37 267.56 C 107.38 281.44 104.83 297.25 96.71 310.60 C 91.90 296.61 92.53 281.37 87.60 267.41 C 86.52 264.52 84.48 261.27 81.06 261.11 C 77.03 261.50 74.21 264.82 71.62 267.59 C 60.77 280.18 52.95 295.01 42.53 307.92 C 45.06 295.35 50.18 283.44 52.47 270.81 C 52.70 268.16 53.52 264.69 51.14 262.75 C 49.67 261.34 47.58 262.29 45.99 262.92 C 40.79 265.39 36.68 269.54 32.49 273.37 C 21.13 284.24 10.54 295.88 0.00 307.52 L 0.00 98.02 C 0.66 71.78 11.64 45.83 30.85 27.81 C 48.76 10.28 73.55 0.53 98.51 0.00 Z"/>
<path fill="#bf0000" d=" M 250.38 203.48 C 273.16 191.95 300.13 189.18 324.85 195.40 C 348.40 201.17 369.68 215.38 384.28 234.70 C 398.99 253.91 406.77 278.28 405.83 302.45 C 405.72 304.49 405.63 306.54 405.48 308.59 C 403.28 335.21 390.31 360.60 370.45 378.39 C 355.60 391.78 336.94 400.93 317.21 404.28 C 292.96 408.57 267.22 404.34 245.79 392.15 C 219.80 377.76 200.36 352.02 193.81 323.03 C 192.14 316.04 191.44 308.87 191.03 301.72 C 191.01 297.07 191.41 292.44 191.51 287.80 C 192.78 278.96 194.54 270.13 197.77 261.78 C 207.12 236.63 226.33 215.36 250.38 203.48 Z"/>
<path fill="#0bdf0b" d=" M 149.78 264.83 C 150.94 262.30 152.53 258.75 155.85 258.97 C 159.08 260.92 159.95 264.90 160.93 268.26 C 164.66 283.69 165.90 299.60 169.67 315.02 C 173.62 299.91 174.46 284.20 178.08 269.03 C 178.65 266.84 179.35 264.48 181.23 263.05 C 184.45 262.22 186.06 265.68 186.87 268.15 C 188.90 274.58 190.02 281.24 191.51 287.80 C 191.41 292.44 191.01 297.07 191.03 301.72 C 187.22 290.83 185.88 279.31 182.53 268.30 C 178.88 283.37 177.84 298.94 174.26 314.02 C 173.70 317.00 171.86 319.46 169.91 321.70 C 167.99 320.07 166.08 318.20 165.56 315.62 C 161.08 298.50 160.68 280.47 155.07 263.62 C 148.12 278.70 146.09 295.46 140.23 310.94 C 139.09 313.60 137.82 316.65 134.94 317.84 C 131.21 317.55 130.27 313.42 129.32 310.50 C 125.61 295.92 125.17 280.61 120.22 266.34 C 113.00 277.56 110.50 290.99 105.23 303.13 C 103.24 307.37 101.73 312.88 96.92 314.72 C 93.20 314.50 92.14 310.33 91.24 307.40 C 88.47 296.02 87.81 284.23 84.98 272.86 C 84.28 269.91 82.82 267.24 81.32 264.63 C 78.52 266.67 75.82 268.91 73.65 271.64 C 63.80 283.66 56.18 297.29 46.66 309.55 C 44.90 311.61 42.13 314.76 39.18 312.93 C 37.73 311.05 38.25 308.54 38.56 306.39 C 41.36 292.79 47.20 279.91 48.88 266.06 C 44.45 268.36 40.50 271.44 36.92 274.90 C 24.55 286.61 13.12 299.26 1.68 311.88 C 1.26 311.62 0.42 311.12 0.00 310.87 L 0.00 307.52 C 10.54 295.88 21.13 284.24 32.49 273.37 C 36.68 269.54 40.79 265.39 45.99 262.92 C 47.58 262.29 49.67 261.34 51.14 262.75 C 53.52 264.69 52.70 268.16 52.47 270.81 C 50.18 283.44 45.06 295.35 42.53 307.92 C 52.95 295.01 60.77 280.18 71.62 267.59 C 74.21 264.82 77.03 261.50 81.06 261.11 C 84.48 261.27 86.52 264.52 87.60 267.41 C 92.53 281.37 91.90 296.61 96.71 310.60 C 104.83 297.25 107.38 281.44 114.37 267.56 C 115.76 265.09 117.54 262.05 120.74 261.93 C 123.64 263.41 124.84 266.64 125.74 269.56 C 129.64 283.92 130.04 299.06 134.58 313.27 C 141.48 297.75 143.66 280.63 149.78 264.83 Z"/>
<path fill="#404040" d=" M 140.23 310.94 C 146.09 295.46 148.12 278.70 155.07 263.62 C 160.68 280.47 161.08 298.50 165.56 315.62 C 166.08 318.20 167.99 320.07 169.91 321.70 C 171.86 319.46 173.70 317.00 174.26 314.02 C 177.84 298.94 178.88 283.37 182.53 268.30 C 185.88 279.31 187.22 290.83 191.03 301.72 C 191.44 308.87 192.14 316.04 193.81 323.03 C 200.36 352.02 219.80 377.76 245.79 392.15 C 267.22 404.34 292.96 408.57 317.21 404.28 C 336.94 400.93 355.60 391.78 370.45 378.39 C 390.31 360.60 403.28 335.21 405.48 308.59 C 408.64 311.74 411.63 315.73 416.23 316.76 C 419.62 317.35 422.37 314.56 423.87 311.84 C 429.40 301.88 430.87 290.23 436.58 280.36 C 441.03 288.11 442.49 297.05 445.43 305.40 C 446.90 309.41 448.09 313.88 451.38 316.84 C 454.11 319.13 457.54 316.58 458.99 314.05 C 466.36 301.81 468.41 287.01 476.56 275.18 C 483.52 288.20 483.52 303.73 490.07 316.94 C 491.13 319.05 493.33 320.15 495.17 321.49 C 502.97 317.22 505.05 307.92 508.56 300.44 C 513.00 290.76 515.76 279.95 522.96 271.82 C 528.08 277.85 530.20 285.61 532.74 292.93 C 535.34 300.42 537.45 308.10 540.66 315.35 C 541.97 318.13 543.61 321.42 546.96 322.02 C 550.43 320.87 551.93 317.19 553.00 314.01 C 556.69 302.06 558.04 289.51 561.98 277.63 C 566.81 290.36 566.94 304.39 571.94 317.07 C 572.82 319.08 575.16 321.99 577.56 320.47 C 580.92 318.47 582.51 314.63 584.38 311.37 C 589.85 300.48 594.26 289.06 598.00 277.47 L 598.00 499.42 C 597.66 518.26 592.13 537.03 581.77 552.82 C 571.75 567.93 557.71 580.47 541.28 588.23 C 528.24 594.49 513.84 597.69 499.40 598.00 L 98.55 598.00 C 79.98 597.64 61.47 592.26 45.85 582.15 C 30.23 572.01 17.38 557.53 9.51 540.62 C 3.44 527.77 0.45 513.63 0.00 499.47 L 0.00 310.87 C 0.42 311.12 1.26 311.62 1.68 311.88 C 13.12 299.26 24.55 286.61 36.92 274.90 C 40.50 271.44 44.45 268.36 48.88 266.06 C 47.20 279.91 41.36 292.79 38.56 306.39 C 38.25 308.54 37.73 311.05 39.18 312.93 C 42.13 314.76 44.90 311.61 46.66 309.55 C 56.18 297.29 63.80 283.66 73.65 271.64 C 75.82 268.91 78.52 266.67 81.32 264.63 C 82.82 267.24 84.28 269.91 84.98 272.86 C 87.81 284.23 88.47 296.02 91.24 307.40 C 92.14 310.33 93.20 314.50 96.92 314.72 C 101.73 312.88 103.24 307.37 105.23 303.13 C 110.50 290.99 113.00 277.56 120.22 266.34 C 125.17 280.61 125.61 295.92 129.32 310.50 C 130.27 313.42 131.21 317.55 134.94 317.84 C 137.82 316.65 139.09 313.60 140.23 310.94 Z"/>
<path fill="#0bdf0b" d=" M 594.50 274.38 C 595.41 270.41 596.43 266.46 598.00 262.70 L 598.00 277.47 C 594.26 289.06 589.85 300.48 584.38 311.37 C 582.51 314.63 580.92 318.47 577.56 320.47 C 575.16 321.99 572.82 319.08 571.94 317.07 C 566.94 304.39 566.81 290.36 561.98 277.63 C 558.04 289.51 556.69 302.06 553.00 314.01 C 551.93 317.19 550.43 320.87 546.96 322.02 C 543.61 321.42 541.97 318.13 540.66 315.35 C 537.45 308.10 535.34 300.42 532.74 292.93 C 530.20 285.61 528.08 277.85 522.96 271.82 C 515.76 279.95 513.00 290.76 508.56 300.44 C 505.05 307.92 502.97 317.22 495.17 321.49 C 493.33 320.15 491.13 319.05 490.07 316.94 C 483.52 303.73 483.52 288.20 476.56 275.18 C 468.41 287.01 466.36 301.81 458.99 314.05 C 457.54 316.58 454.11 319.13 451.38 316.84 C 448.09 313.88 446.90 309.41 445.43 305.40 C 442.49 297.05 441.03 288.11 436.58 280.36 C 430.87 290.23 429.40 301.88 423.87 311.84 C 422.37 314.56 419.62 317.35 416.23 316.76 C 411.63 315.73 408.64 311.74 405.48 308.59 C 405.63 306.54 405.72 304.49 405.83 302.45 C 409.14 306.54 412.71 310.50 417.23 313.31 C 418.77 311.54 420.39 309.79 421.39 307.63 C 425.24 299.32 427.13 290.25 430.97 281.93 C 432.19 279.50 433.84 276.48 436.98 276.51 C 440.18 277.23 441.57 280.61 442.77 283.31 C 446.93 293.37 448.17 304.59 453.93 313.98 C 459.82 305.64 462.26 295.57 466.15 286.26 C 468.20 281.54 469.83 276.28 473.66 272.65 C 476.21 270.28 480.05 271.97 481.22 274.92 C 487.77 288.32 487.48 304.19 495.11 317.17 C 496.68 315.08 498.26 312.97 499.46 310.64 C 505.16 299.32 508.83 287.09 514.79 275.90 C 516.69 272.75 518.88 268.67 523.01 268.36 C 526.35 268.53 528.31 271.63 529.83 274.23 C 537.16 288.12 539.12 304.23 546.83 317.94 C 552.62 305.09 553.23 290.70 557.61 277.40 C 558.39 275.24 559.54 272.75 562.07 272.29 C 564.84 272.94 565.98 275.83 566.80 278.25 C 570.67 290.86 571.37 304.31 576.26 316.63 C 579.09 312.54 581.49 308.18 583.49 303.62 C 587.71 294.10 591.64 284.41 594.50 274.38 Z"/>
</svg>