<?xml version="1.0" encoding="UTF-8" ?>
<!DOCTYPE svg PUBLIC "-//W3C//DTD SVG 1.1//EN" "http://www.w3.org/Graphics/SVG/1.1/DTD/svg11.dtd">
<svg width="56pt" height="89pt" viewBox="0 0 56 89" version="1.1" xmlns="http://www.w3.org/2000/svg">
<g id="#ffffffff">
<path fill="#ffffff" opacity="1.00" d=" M 24.47 28.62 C 29.81 27.33 35.56 28.99 39.98 32.08 C 41.55 33.04 42.30 35.26 40.51 36.46 C 33.43 42.18 22.42 42.28 15.23 36.70 C 13.97 35.83 13.92 34.13 15.11 33.17 C 17.65 30.72 21.12 29.50 24.47 28.62 Z" />
<path fill="#ffffff" opacity="1.00" d=" M 34.41 42.12 C 38.01 40.89 41.47 39.09 43.87 36.06 C 48.14 43.76 47.71 54.98 40.21 60.53 C 34.66 56.32 32.78 48.71 34.41 42.12 Z" />
<path fill="#ffffff" opacity="1.00" d=" M 12.10 36.80 C 14.48 39.28 17.49 40.96 20.75 41.99 C 21.90 48.44 20.76 55.75 15.97 60.54 C 8.41 55.29 7.80 44.35 12.10 36.80 Z" />
<path fill="#ffffff" opacity="1.00" d=" M 23.13 42.60 C 26.09 43.16 29.11 43.27 32.07 42.69 C 30.67 49.78 32.93 57.81 38.87 62.23 C 32.41 66.52 23.73 66.56 17.27 62.24 C 22.62 57.32 23.91 49.53 23.13 42.60 Z" />
</g>
<g id="#adf5adff">
<path fill="#adf5ad" opacity="1.00" d=" M 26.59 0.00 L 29.57 0.00 C 38.88 0.76 49.36 2.00 56.00 9.35 L 56.00 13.38 C 49.00 5.71 37.86 4.38 28.04 4.16 C 18.20 4.37 7.04 5.70 0.00 13.37 L 0.00 9.26 C 6.78 2.01 17.23 0.73 26.59 0.00 Z" />
</g>
<g id="#339933ff">
<path fill="#339933" opacity="1.00" d=" M 0.00 13.37 C 7.04 5.70 18.20 4.37 28.04 4.16 C 37.86 4.38 49.00 5.71 56.00 13.38 L 56.00 89.00 L 55.88 89.00 C 47.78 85.70 40.00 80.55 30.95 80.64 C 20.11 80.72 9.92 85.05 0.01 89.00 L 0.00 89.00 L 0.00 13.37 M 17.55 12.91 C 24.38 15.81 32.62 15.81 39.45 12.91 C 36.94 9.92 32.57 10.33 29.04 10.02 C 25.18 10.27 20.37 9.72 17.55 12.91 M 24.47 28.62 C 21.12 29.50 17.65 30.72 15.11 33.17 C 13.92 34.13 13.97 35.83 15.23 36.70 C 22.42 42.28 33.43 42.18 40.51 36.46 C 42.30 35.26 41.55 33.04 39.98 32.08 C 35.56 28.99 29.81 27.33 24.47 28.62 M 34.41 42.12 C 32.78 48.71 34.66 56.32 40.21 60.53 C 47.71 54.98 48.14 43.76 43.87 36.06 C 41.47 39.09 38.01 40.89 34.41 42.12 M 12.10 36.80 C 7.80 44.35 8.41 55.29 15.97 60.54 C 20.76 55.75 21.90 48.44 20.75 41.99 C 17.49 40.96 14.48 39.28 12.10 36.80 M 23.13 42.60 C 23.91 49.53 22.62 57.32 17.27 62.24 C 23.73 66.56 32.41 66.52 38.87 62.23 C 32.93 57.81 30.67 49.78 32.07 42.69 C 29.11 43.27 26.09 43.16 23.13 42.60 Z" />
</g>
</svg>
