<?xml version="1.0" encoding="UTF-8" ?>
<!DOCTYPE svg PUBLIC "-//W3C//DTD SVG 1.1//EN" "http://www.w3.org/Graphics/SVG/1.1/DTD/svg11.dtd">
<svg width="117pt" height="117pt" viewBox="0 0 117 117" version="1.1" xmlns="http://www.w3.org/2000/svg">
<path fill="#3f51b5" stroke="#3f51b5" stroke-width="0.09375" opacity="1.00" d=" M 0.0 0.0 L 117.0 0.0 L 117.0 117.0 L 0.0 117.0 L 0.0 0.0 Z" />
<path fill="#ffffff" stroke="#ffffff" stroke-width="0.09375" opacity="1.00" d=" M 52.4 18.5 C 58.8 16.3 66.5 17.7 71.1 22.9 C 74.6 26.3 76.0 31.3 76.2 36.1 C 76.2 41.8 72.5 46.8 68.0 50.0 C 62.6 53.7 55.1 53.9 49.6 50.4 C 45.8 47.9 42.6 44.2 41.3 39.8 C 39.3 31.2 44.0 21.4 52.4 18.5 Z" />
<path fill="#ffffff" stroke="#ffffff" stroke-width="0.09375" opacity="1.00" d=" M 51.3 64.3 C 60.4 62.9 69.8 64.2 78.3 67.6 C 83.5 69.7 88.9 72.1 92.2 76.8 C 93.4 78.6 94.5 81.1 93.0 83.0 C 85.5 94.5 71.7 101.6 58.0 101.0 C 44.6 101.3 31.4 94.2 24.0 83.0 C 22.8 81.6 23.2 79.6 24.0 78.0 C 25.9 74.3 29.4 71.8 33.1 70.0 C 38.8 67.2 45.0 65.3 51.3 64.3 Z" />
</svg>
