<?xml version="1.0" encoding="UTF-8" ?>
<!DOCTYPE svg PUBLIC "-//W3C//DTD SVG 1.1//EN" "http://www.w3.org/Graphics/SVG/1.1/DTD/svg11.dtd">
<svg width="362pt" height="363pt" viewBox="0 0 362 363" version="1.1" xmlns="http://www.w3.org/2000/svg">
<g id="#000000ff">
<path fill="#000000" opacity="1.00" d=" M 0.00 0.00 L 28.00 0.00 C 28.00 2.33 28.00 4.67 28.00 7.00 C 30.67 7.00 33.33 7.00 36.00 7.00 C 36.00 4.67 36.00 2.33 36.00 0.00 L 60.00 0.00 C 60.00 2.33 60.00 4.67 60.00 7.00 C 62.67 7.00 65.33 7.00 68.00 7.00 C 68.00 4.67 68.00 2.33 68.00 0.00 L 92.00 0.00 C 92.00 2.33 92.00 4.67 92.00 7.00 C 94.67 7.00 97.33 7.00 100.00 7.00 C 100.00 4.67 100.00 2.33 100.00 0.00 L 124.00 0.00 C 124.00 2.33 124.00 4.67 124.00 7.00 C 126.67 7.00 129.33 7.00 132.00 7.00 C 132.00 4.67 132.00 2.33 132.00 0.00 L 156.00 0.00 C 156.00 2.33 156.00 4.67 156.00 7.00 C 158.67 7.00 161.33 7.00 164.00 7.00 C 164.00 4.67 164.00 2.33 164.00 0.00 L 188.00 0.00 C 188.00 2.33 188.00 4.67 188.00 7.00 C 190.67 7.00 193.33 7.00 196.00 7.00 C 196.00 4.67 196.00 2.33 196.00 0.00 L 220.00 0.00 C 220.00 2.33 220.00 4.67 220.00 7.00 C 222.66 7.00 225.33 7.00 228.00 7.00 C 228.00 4.67 228.00 2.33 228.00 0.00 L 252.00 0.00 C 252.00 2.33 252.00 4.67 252.00 7.00 C 254.67 7.00 257.33 7.00 260.00 7.00 C 260.00 4.67 260.00 2.33 260.00 0.00 L 284.00 0.00 C 284.00 2.33 284.00 4.67 284.00 7.00 C 286.66 7.00 289.33 7.00 292.00 7.00 C 292.00 4.67 292.00 2.33 292.00 0.00 L 316.00 0.00 C 316.00 2.33 316.00 4.67 316.00 7.00 C 318.67 7.00 321.33 7.00 324.00 7.00 C 324.00 4.67 324.00 2.33 324.00 0.00 L 348.00 0.00 C 348.00 2.33 348.00 4.67 348.00 7.00 C 349.99 6.99 351.99 6.99 353.99 7.01 C 353.99 6.27 354.00 4.81 354.00 4.08 C 354.50 4.04 355.50 3.96 356.00 3.92 C 356.00 2.61 356.00 1.31 356.00 0.00 L 362.00 0.00 L 362.00 25.99 C 360.66 26.00 359.33 26.00 358.00 26.01 C 358.00 28.67 358.00 31.33 358.00 33.99 C 359.33 34.00 360.66 34.00 362.00 34.01 L 362.00 58.00 C 359.34 58.00 356.68 58.00 354.02 58.00 C 354.01 57.25 353.99 55.75 353.98 55.00 C 265.73 55.01 177.49 54.99 89.24 55.01 C 89.26 60.67 89.25 66.34 89.25 72.00 C 86.58 72.00 83.91 72.00 81.24 71.99 C 81.26 66.33 81.25 60.67 81.25 55.00 C 74.91 55.00 68.58 55.00 62.24 55.00 C 62.26 60.67 62.25 66.34 62.25 72.00 C 59.58 72.00 56.91 72.00 54.24 71.99 C 54.26 66.33 54.25 60.67 54.25 55.00 C 38.83 55.00 23.42 55.00 8.00 55.00 C 8.00 62.67 8.00 70.33 8.00 78.00 C 5.33 78.00 2.67 78.00 0.00 78.00 L 0.00 54.00 C 1.33 54.00 2.67 54.00 4.00 53.99 C 4.00 51.33 4.00 48.67 4.00 46.00 C 2.67 46.00 1.33 46.00 0.00 45.99 L 0.00 22.00 C 1.33 22.00 2.67 22.00 4.00 22.00 C 4.00 19.33 4.00 16.67 4.00 14.00 C 2.67 14.00 1.33 14.00 0.00 13.99 L 0.00 0.00 Z" />
<path fill="#000000" opacity="1.00" d=" M 354.00 66.00 C 356.66 66.00 359.33 66.00 362.00 66.00 L 362.00 90.00 C 359.33 90.00 356.66 90.00 354.00 90.00 C 354.00 82.00 354.00 74.00 354.00 66.00 Z" />
<path fill="#000000" opacity="1.00" d=" M 54.25 80.00 C 56.91 80.01 59.58 79.99 62.25 80.00 C 62.25 87.99 62.25 95.99 62.25 103.99 C 61.44 103.99 59.81 104.01 59.00 104.01 C 59.00 105.34 59.00 106.67 59.00 108.00 C 51.00 108.00 43.00 108.00 35.00 108.00 C 35.00 105.33 35.00 102.67 35.00 100.00 C 41.42 100.00 47.83 100.00 54.25 100.00 C 54.25 93.33 54.26 86.67 54.25 80.00 Z" />
<path fill="#000000" opacity="1.00" d=" M 81.24 80.01 C 83.91 80.01 86.58 79.99 89.25 80.00 C 89.26 86.46 89.24 92.92 89.26 99.38 C 92.46 100.92 90.49 105.19 91.01 108.00 C 83.01 108.00 75.00 108.00 67.00 108.00 C 67.00 105.33 67.00 102.67 67.00 100.00 C 71.75 100.00 76.50 100.00 81.25 100.00 C 81.25 93.34 81.26 86.67 81.24 80.01 Z" />
<path fill="#000000" opacity="1.00" d=" M 0.00 86.00 C 2.67 86.00 5.33 86.00 8.00 86.00 C 8.00 90.67 8.00 95.33 8.00 100.00 C 14.33 99.99 20.67 100.01 27.00 100.00 C 27.00 102.66 27.00 105.33 27.00 108.00 C 20.69 108.00 14.39 108.01 8.08 108.00 C 8.04 108.50 7.96 109.50 7.92 110.00 C 5.28 110.00 2.64 110.00 0.00 110.00 L 0.00 86.00 Z" />
<path fill="#000000" opacity="1.00" d=" M 354.00 98.00 C 356.66 98.00 359.33 98.00 362.00 98.00 L 362.00 122.00 C 359.33 122.00 356.66 122.00 354.00 122.00 C 354.00 114.00 354.00 106.00 354.00 98.00 Z" />
<path fill="#000000" opacity="1.00" d=" M 99.00 100.00 C 107.00 100.00 115.00 100.00 123.00 100.00 C 123.00 102.67 123.00 105.33 123.00 108.00 C 115.00 108.00 107.00 108.00 99.00 108.00 C 99.00 105.33 99.00 102.67 99.00 100.00 Z" />
<path fill="#000000" opacity="1.00" d=" M 131.00 100.00 C 139.00 100.00 147.00 100.00 155.00 100.00 C 155.00 102.66 155.00 105.33 155.00 108.00 C 147.00 108.00 139.00 108.00 131.00 108.00 C 131.00 105.33 131.00 102.67 131.00 100.00 Z" />
<path fill="#000000" opacity="1.00" d=" M 163.00 100.00 C 171.00 100.00 179.00 100.00 187.00 100.00 C 187.00 102.67 187.00 105.33 187.00 108.00 C 179.00 108.00 171.00 108.00 163.00 108.00 C 163.00 105.33 163.00 102.67 163.00 100.00 Z" />
<path fill="#000000" opacity="1.00" d=" M 195.00 100.00 C 203.00 100.00 211.00 100.00 219.00 100.00 C 219.00 102.67 219.00 105.33 219.00 108.00 C 211.00 108.00 203.00 108.00 195.00 108.00 C 195.00 105.33 195.00 102.67 195.00 100.00 Z" />
<path fill="#000000" opacity="1.00" d=" M 227.00 100.00 C 235.00 100.00 243.00 100.00 251.00 100.00 C 251.00 102.67 251.00 105.33 251.00 108.00 C 243.00 108.00 235.00 108.00 227.00 108.00 C 227.00 105.33 227.00 102.67 227.00 100.00 Z" />
<path fill="#000000" opacity="1.00" d=" M 259.00 100.00 C 267.00 100.00 275.00 100.00 283.00 100.00 C 283.00 102.67 283.00 105.33 283.00 108.00 C 275.00 108.00 267.00 108.00 259.00 108.00 C 259.00 105.33 259.00 102.67 259.00 100.00 Z" />
<path fill="#000000" opacity="1.00" d=" M 291.00 100.00 C 299.00 100.00 307.00 100.00 315.00 100.00 C 315.00 102.67 315.00 105.33 315.00 108.00 C 307.00 108.00 299.00 108.00 291.00 108.00 C 291.00 105.33 291.00 102.67 291.00 100.00 Z" />
<path fill="#000000" opacity="1.00" d=" M 323.00 100.00 C 331.00 100.00 339.00 100.00 347.00 100.00 C 347.00 102.67 346.99 105.33 347.00 108.00 C 339.00 108.00 331.00 108.00 323.00 108.00 C 323.00 105.33 323.00 102.67 323.00 100.00 Z" />
<path fill="#000000" opacity="1.00" d=" M 54.25 112.00 C 56.91 112.01 59.58 112.00 62.25 112.00 C 62.25 120.00 62.25 128.00 62.25 136.00 C 59.58 136.01 56.91 135.98 54.24 135.99 C 54.26 127.99 54.25 120.00 54.25 112.00 Z" />
<path fill="#000000" opacity="1.00" d=" M 81.24 112.01 C 83.91 112.01 86.58 111.99 89.25 112.00 C 89.25 120.00 89.25 128.00 89.25 136.00 C 86.58 136.01 83.91 135.99 81.24 135.99 C 81.25 128.00 81.26 120.00 81.24 112.01 Z" />
<path fill="#000000" opacity="1.00" d=" M 0.00 118.00 C 2.67 118.00 5.33 118.00 8.00 118.00 C 8.00 126.00 8.00 134.00 8.00 142.00 C 5.33 142.00 2.67 142.00 0.00 142.00 L 0.00 118.00 Z" />
<path fill="#000000" opacity="1.00" d=" M 354.00 130.00 C 356.66 130.00 359.33 130.00 362.00 130.00 L 362.00 154.00 C 359.33 154.00 356.66 154.00 354.00 154.00 C 354.00 146.00 354.00 138.00 354.00 130.00 Z" />
<path fill="#000000" opacity="1.00" d=" M 54.24 144.01 C 56.91 144.01 59.58 143.99 62.25 144.00 C 62.25 152.00 62.25 160.00 62.25 167.99 C 60.84 167.99 59.42 168.00 58.01 168.00 C 58.00 168.75 57.99 170.25 57.99 171.00 C 49.99 171.00 42.00 171.00 34.00 171.00 C 34.00 168.33 34.00 165.67 34.00 163.00 C 40.75 163.00 47.50 163.00 54.25 163.00 C 54.25 156.67 54.26 150.34 54.24 144.01 Z" />
<path fill="#000000" opacity="1.00" d=" M 81.24 144.01 C 83.91 144.01 86.58 143.99 89.25 144.00 C 89.44 150.68 88.76 157.41 89.76 164.05 C 90.05 166.35 90.02 168.68 90.05 171.00 C 82.03 171.00 74.02 171.00 66.00 171.00 C 66.00 168.33 66.00 165.66 66.00 163.00 C 71.08 163.01 76.17 162.99 81.25 163.00 C 81.25 156.67 81.26 150.34 81.24 144.01 Z" />
<path fill="#000000" opacity="1.00" d=" M 0.00 150.00 C 2.67 150.00 5.33 150.00 8.00 150.00 C 8.00 154.33 8.00 158.67 8.00 163.00 C 14.00 162.99 20.00 163.01 26.00 163.00 C 26.00 165.67 26.00 168.33 26.00 171.00 C 20.01 170.99 14.01 171.01 8.02 171.00 C 8.01 171.75 7.99 173.25 7.98 174.00 C 5.32 174.00 2.66 174.00 0.00 174.00 L 0.00 150.00 Z" />
<path fill="#000000" opacity="1.00" d=" M 354.00 162.00 C 356.66 162.00 359.33 162.00 362.00 162.00 L 362.00 186.00 C 359.33 186.00 356.66 186.00 354.00 186.00 C 354.00 178.00 354.00 170.00 354.00 162.00 Z" />
<path fill="#000000" opacity="1.00" d=" M 98.00 163.00 C 106.00 163.00 114.00 163.00 122.00 163.00 C 122.00 165.67 122.00 168.33 122.00 171.00 C 114.00 171.00 106.00 171.00 98.00 171.00 C 98.00 168.33 98.00 165.67 98.00 163.00 Z" />
<path fill="#000000" opacity="1.00" d=" M 130.00 163.00 C 138.00 163.00 146.00 163.00 154.00 163.00 C 154.00 165.66 154.00 168.33 154.00 171.00 C 146.00 171.00 138.00 171.00 130.00 171.00 C 130.00 168.33 130.00 165.67 130.00 163.00 Z" />
<path fill="#000000" opacity="1.00" d=" M 162.00 163.00 C 170.00 163.00 178.00 163.00 186.00 163.00 C 186.00 165.67 186.00 168.33 186.00 171.00 C 178.00 171.00 170.00 171.00 162.00 171.00 C 162.00 168.33 162.00 165.67 162.00 163.00 Z" />
<path fill="#000000" opacity="1.00" d=" M 194.00 163.00 C 202.00 163.00 210.00 163.00 218.00 163.00 C 218.00 165.67 218.00 168.33 218.00 171.00 C 210.00 171.00 202.00 171.00 194.00 171.00 C 194.00 168.33 194.00 165.67 194.00 163.00 Z" />
<path fill="#000000" opacity="1.00" d=" M 226.00 163.00 C 234.00 163.00 242.00 163.00 250.00 163.00 C 250.00 165.67 249.99 168.33 250.00 171.00 C 242.00 171.00 234.00 171.00 226.00 171.00 C 226.00 168.33 226.00 165.67 226.00 163.00 Z" />
<path fill="#000000" opacity="1.00" d=" M 258.00 163.00 C 266.00 163.00 274.00 163.00 282.00 163.00 C 282.00 165.67 282.00 168.33 282.00 171.00 C 274.00 171.00 266.00 171.00 258.00 171.00 C 258.00 168.33 258.00 165.66 258.00 163.00 Z" />
<path fill="#000000" opacity="1.00" d=" M 290.00 163.00 C 298.00 163.00 306.00 163.00 314.00 163.00 C 314.00 165.67 314.00 168.33 314.00 171.00 C 306.00 171.00 298.00 171.00 290.00 171.00 C 290.00 168.33 290.00 165.67 290.00 163.00 Z" />
<path fill="#000000" opacity="1.00" d=" M 322.00 163.00 C 330.00 163.00 338.00 163.00 346.00 163.00 C 346.00 165.66 346.00 168.33 346.00 171.00 C 338.00 171.00 330.00 171.00 322.00 171.00 C 322.00 168.33 322.00 165.66 322.00 163.00 Z" />
<path fill="#000000" opacity="1.00" d=" M 54.12 176.00 C 56.79 176.00 59.46 176.00 62.12 176.00 C 62.13 184.00 62.13 192.00 62.12 200.00 C 59.46 200.00 56.79 199.99 54.12 200.00 C 54.13 192.00 54.13 184.00 54.12 176.00 Z" />
<path fill="#000000" opacity="1.00" d=" M 81.12 176.00 C 83.79 176.01 86.45 175.99 89.12 176.00 C 89.13 184.00 89.13 192.00 89.12 200.00 C 86.46 200.00 83.79 200.00 81.12 200.00 C 81.13 192.00 81.13 184.00 81.12 176.00 Z" />
<path fill="#000000" opacity="1.00" d=" M 0.00 182.00 C 2.67 182.00 5.33 182.00 8.00 182.00 C 8.00 190.00 8.00 198.00 8.00 206.00 C 5.33 206.00 2.67 206.00 0.00 206.00 L 0.00 182.00 Z" />
<path fill="#000000" opacity="1.00" d=" M 354.00 194.00 C 356.66 194.00 359.33 194.00 362.00 194.00 L 362.00 218.00 C 359.33 218.00 356.66 218.00 354.00 218.00 C 354.00 210.00 354.00 202.00 354.00 194.00 Z" />
<path fill="#000000" opacity="1.00" d=" M 54.12 208.00 C 56.79 208.00 59.46 208.00 62.12 208.00 C 62.13 216.00 62.13 224.00 62.12 231.99 C 61.35 232.00 59.81 232.00 59.04 232.00 C 59.02 232.50 58.98 233.50 58.96 234.00 C 50.97 234.00 42.99 234.00 35.00 234.00 C 35.00 231.33 35.00 228.66 35.00 226.00 C 41.37 226.00 47.75 226.00 54.12 226.00 C 54.13 220.00 54.13 214.00 54.12 208.00 Z" />
<path fill="#000000" opacity="1.00" d=" M 81.12 208.00 C 83.79 208.00 86.46 208.00 89.12 208.00 C 89.12 213.96 89.15 219.93 89.09 225.89 C 89.57 225.94 90.52 226.03 91.00 226.08 C 91.00 228.72 90.99 231.36 91.00 234.00 C 83.00 234.00 75.00 234.00 67.00 234.00 C 67.00 231.33 67.00 228.66 67.00 226.00 C 71.71 226.00 76.41 226.00 81.12 226.00 C 81.13 220.00 81.13 214.00 81.12 208.00 Z" />
<path fill="#000000" opacity="1.00" d=" M 0.00 214.00 C 2.67 214.00 5.33 214.00 8.00 214.00 C 8.00 218.00 8.00 222.00 8.00 226.00 C 14.33 225.99 20.67 226.00 27.00 226.00 C 27.00 228.66 27.00 231.33 27.00 234.00 C 20.67 233.99 14.34 234.01 8.01 234.00 C 8.00 235.33 8.00 236.66 7.99 238.00 C 5.33 238.00 2.66 238.00 0.00 238.00 L 0.00 214.00 Z" />
<path fill="#000000" opacity="1.00" d=" M 99.00 226.00 C 107.00 226.00 115.00 226.00 123.00 226.00 C 123.00 228.66 123.00 231.33 123.00 234.00 C 115.00 234.00 107.00 234.00 99.00 234.00 C 99.00 231.33 99.00 228.66 99.00 226.00 Z" />
<path fill="#000000" opacity="1.00" d=" M 131.00 226.00 C 139.00 226.00 147.00 226.00 155.00 226.00 C 155.00 228.66 155.00 231.33 155.00 234.00 C 147.00 234.00 139.00 234.00 131.00 234.00 C 131.00 231.33 131.00 228.67 131.00 226.00 Z" />
<path fill="#000000" opacity="1.00" d=" M 163.00 226.00 C 171.00 226.00 179.00 226.00 187.00 226.00 C 187.00 228.66 187.00 231.33 187.00 234.00 C 179.00 234.00 171.00 234.00 163.00 234.00 C 163.00 231.33 163.00 228.67 163.00 226.00 Z" />
<path fill="#000000" opacity="1.00" d=" M 195.00 226.00 C 203.00 226.00 211.00 226.00 219.00 226.00 C 219.00 228.66 219.00 231.33 219.00 234.00 C 211.00 234.00 203.00 234.00 195.00 234.00 C 195.00 231.33 195.00 228.67 195.00 226.00 Z" />
<path fill="#000000" opacity="1.00" d=" M 227.00 226.00 C 235.00 226.00 243.00 226.00 251.00 226.00 C 251.00 228.66 251.00 231.33 251.00 234.00 C 243.00 234.00 235.00 234.00 227.00 234.00 C 227.00 231.33 227.00 228.66 227.00 226.00 Z" />
<path fill="#000000" opacity="1.00" d=" M 259.00 226.00 C 267.00 226.00 275.00 226.00 283.00 226.00 C 283.00 228.67 283.00 231.33 283.00 234.00 C 275.00 234.00 267.00 234.00 259.00 234.00 C 259.00 231.33 259.00 228.67 259.00 226.00 Z" />
<path fill="#000000" opacity="1.00" d=" M 291.00 226.00 C 299.00 226.00 307.00 226.00 315.00 226.00 C 315.00 228.66 315.00 231.33 315.00 234.00 C 307.00 234.00 299.00 234.00 291.00 234.00 C 290.99 231.33 291.00 228.66 291.00 226.00 Z" />
<path fill="#000000" opacity="1.00" d=" M 323.00 226.00 C 331.00 226.00 339.00 226.00 347.00 226.00 C 347.00 228.66 347.00 231.33 347.00 234.00 C 339.00 234.00 331.00 234.00 323.00 234.00 C 323.00 231.33 323.00 228.66 323.00 226.00 Z" />
<path fill="#000000" opacity="1.00" d=" M 354.00 226.00 C 356.66 226.00 359.33 226.00 362.00 226.00 L 362.00 250.00 C 359.33 250.00 356.66 250.00 354.00 250.00 C 354.00 242.00 354.00 234.00 354.00 226.00 Z" />
<path fill="#000000" opacity="1.00" d=" M 54.12 240.00 C 56.79 240.00 59.46 240.00 62.12 240.00 C 62.13 248.00 62.13 256.00 62.12 264.00 C 59.46 264.00 56.79 264.00 54.12 264.00 C 54.13 256.00 54.13 248.00 54.12 240.00 Z" />
<path fill="#000000" opacity="1.00" d=" M 81.12 240.00 C 83.79 240.00 86.45 240.00 89.12 240.00 C 89.13 248.00 89.13 256.00 89.12 264.00 C 86.46 264.00 83.79 263.99 81.12 264.00 C 81.13 256.00 81.13 248.00 81.12 240.00 Z" />
<path fill="#000000" opacity="1.00" d=" M 0.00 246.00 C 2.67 246.00 5.33 246.00 8.00 246.00 C 8.00 254.00 8.00 262.00 8.00 270.00 C 5.33 270.00 2.67 270.00 0.00 270.00 L 0.00 246.00 Z" />
<path fill="#000000" opacity="1.00" d=" M 354.00 258.00 C 356.66 258.00 359.33 258.00 362.00 258.00 L 362.00 282.00 C 359.33 282.00 356.66 282.00 354.00 282.00 C 354.00 274.00 354.00 266.00 354.00 258.00 Z" />
<path fill="#000000" opacity="1.00" d=" M 54.12 272.00 C 56.79 272.00 59.45 272.00 62.12 272.00 C 62.13 280.01 62.13 288.02 62.12 296.02 C 59.17 295.99 56.10 296.33 53.29 295.18 C 46.87 294.80 40.43 295.08 34.00 295.00 C 34.00 292.33 34.00 289.66 34.00 287.00 C 40.71 287.00 47.42 287.00 54.13 287.00 C 54.12 282.00 54.13 277.00 54.12 272.00 Z" />
<path fill="#000000" opacity="1.00" d=" M 81.12 272.00 C 83.79 272.00 86.46 272.00 89.13 272.00 C 89.16 276.75 88.99 281.52 89.29 286.27 C 89.94 289.27 91.29 293.60 88.66 295.89 C 85.88 296.23 82.95 296.27 80.32 295.17 C 75.55 294.86 70.77 295.03 66.00 295.00 C 66.00 292.33 66.00 289.66 66.00 287.00 C 71.04 287.00 76.08 286.99 81.13 287.00 C 81.12 282.00 81.13 277.00 81.12 272.00 Z" />
<path fill="#000000" opacity="1.00" d=" M 0.00 278.00 C 2.67 278.00 5.33 278.00 8.00 278.00 C 7.99 281.00 8.01 284.00 8.00 287.00 C 14.00 286.99 20.00 287.00 26.00 287.00 C 26.00 289.66 26.00 292.33 26.00 295.00 C 20.00 294.99 14.00 295.01 8.00 295.00 C 8.00 297.33 8.00 299.66 8.00 302.00 C 5.33 302.00 2.67 302.00 0.00 302.00 L 0.00 278.00 Z" />
<path fill="#000000" opacity="1.00" d=" M 98.00 287.00 C 106.00 287.00 114.00 287.00 122.00 287.00 C 122.00 289.66 122.00 292.33 122.00 295.00 C 114.00 295.00 106.00 295.00 98.00 295.00 C 98.00 292.33 98.00 289.66 98.00 287.00 Z" />
<path fill="#000000" opacity="1.00" d=" M 130.00 287.00 C 138.00 287.00 146.00 287.00 154.00 287.00 C 154.00 289.66 154.00 292.33 154.00 295.00 C 146.00 295.00 138.00 295.00 130.00 295.00 C 130.00 292.33 130.00 289.66 130.00 287.00 Z" />
<path fill="#000000" opacity="1.00" d=" M 162.00 287.00 C 170.00 287.00 178.00 287.00 186.00 287.00 C 186.00 289.66 186.00 292.33 186.00 295.00 C 178.00 295.00 170.00 295.00 162.00 295.00 C 162.00 292.33 162.00 289.67 162.00 287.00 Z" />
<path fill="#000000" opacity="1.00" d=" M 194.00 287.00 C 202.00 287.00 210.00 287.00 218.00 287.00 C 218.00 289.66 218.00 292.33 218.00 295.00 C 210.00 295.00 202.00 295.00 194.00 295.00 C 194.00 292.33 194.00 289.66 194.00 287.00 Z" />
<path fill="#000000" opacity="1.00" d=" M 226.00 287.00 C 234.00 287.00 242.00 287.00 250.00 287.00 C 250.00 289.66 250.00 292.33 250.00 295.00 C 242.00 295.00 234.00 295.00 226.00 295.00 C 226.00 292.33 226.00 289.66 226.00 287.00 Z" />
<path fill="#000000" opacity="1.00" d=" M 258.00 287.00 C 266.00 287.00 274.00 287.00 282.00 287.00 C 282.00 289.66 282.00 292.33 282.00 295.00 C 274.00 295.00 266.00 295.00 258.00 295.00 C 258.00 292.33 258.00 289.66 258.00 287.00 Z" />
<path fill="#000000" opacity="1.00" d=" M 290.00 287.00 C 298.00 287.00 306.00 287.00 314.00 287.00 C 314.00 289.66 314.00 292.33 314.00 295.00 C 306.00 295.00 298.00 295.00 290.00 295.00 C 290.00 292.33 290.00 289.66 290.00 287.00 Z" />
<path fill="#000000" opacity="1.00" d=" M 322.00 287.00 C 330.00 287.00 338.00 287.00 346.00 287.00 C 346.00 289.66 346.00 292.33 346.00 295.00 C 338.00 295.00 330.00 295.00 322.00 295.00 C 322.00 292.33 322.00 289.66 322.00 287.00 Z" />
<path fill="#000000" opacity="1.00" d=" M 354.00 287.00 C 354.60 287.00 355.79 287.00 356.39 287.00 C 356.36 287.73 356.31 289.20 356.28 289.93 C 358.19 289.94 360.09 289.98 362.00 290.06 L 362.00 314.00 C 359.33 314.00 356.66 314.00 354.00 314.00 C 354.00 305.00 354.00 296.00 354.00 287.00 Z" />
<path fill="#000000" opacity="1.00" d=" M 54.00 304.00 C 56.67 304.00 59.33 304.00 62.00 304.00 C 62.00 312.00 62.00 320.00 62.00 328.00 C 59.33 328.00 56.67 328.00 54.00 328.00 C 54.00 320.00 54.00 312.00 54.00 304.00 Z" />
<path fill="#000000" opacity="1.00" d=" M 81.00 304.00 C 83.67 304.00 86.33 304.00 89.00 304.00 C 89.00 312.00 89.00 320.00 89.00 328.00 C 86.33 327.99 83.67 328.00 81.00 328.00 C 81.00 320.00 81.00 312.00 81.00 304.00 Z" />
<path fill="#000000" opacity="1.00" d=" M 0.00 310.00 C 2.67 310.00 5.33 310.00 8.00 310.00 C 8.00 318.00 8.00 326.00 8.00 334.00 C 5.33 334.00 2.67 334.00 0.00 334.00 L 0.00 310.00 Z" />
<path fill="#000000" opacity="1.00" d=" M 354.00 322.00 C 356.66 322.00 359.33 322.00 362.00 322.00 L 362.00 346.00 C 359.33 346.00 356.66 346.00 354.00 346.00 C 354.00 338.00 354.00 330.00 354.00 322.00 Z" />
<path fill="#000000" opacity="1.00" d=" M 54.00 336.00 C 56.67 336.00 59.33 336.00 62.00 336.00 C 61.99 342.33 62.01 348.67 62.00 355.00 C 66.33 355.00 70.66 355.00 75.00 355.00 C 75.00 357.66 75.00 360.33 75.00 363.00 L 51.00 363.00 C 51.00 360.34 51.00 357.68 51.00 355.02 C 51.75 355.01 53.25 354.99 54.00 354.98 C 53.99 348.65 54.00 342.33 54.00 336.00 Z" />
<path fill="#000000" opacity="1.00" d=" M 81.00 336.00 C 83.67 336.00 86.33 336.00 89.00 336.00 C 88.99 342.33 89.01 348.67 89.00 355.00 C 95.00 354.99 101.00 355.01 107.00 355.00 C 107.00 357.66 107.00 360.33 107.00 363.00 L 83.07 363.00 C 83.00 361.80 82.92 360.61 82.83 359.42 C 81.94 358.47 80.77 357.56 81.03 356.07 C 80.85 349.38 81.09 342.69 81.00 336.00 Z" />
<path fill="#000000" opacity="1.00" d=" M 0.00 342.00 C 2.67 342.00 5.33 342.00 8.00 342.00 C 8.00 346.32 8.00 350.65 8.00 354.98 C 8.75 354.99 10.25 355.01 11.00 355.02 C 11.00 357.68 11.00 360.34 11.00 363.00 L 0.00 363.00 L 0.00 342.00 Z" />
<path fill="#000000" opacity="1.00" d=" M 354.83 354.27 C 357.21 354.06 359.60 353.99 362.00 353.91 L 362.00 363.00 L 339.00 363.00 C 339.00 360.32 339.00 357.65 339.00 354.98 C 344.27 354.91 349.64 355.53 354.83 354.27 Z" />
<path fill="#000000" opacity="1.00" d=" M 19.00 355.00 C 27.00 355.00 35.00 355.00 43.00 355.00 C 43.00 357.66 43.00 360.33 43.00 363.00 L 19.00 363.00 C 19.00 360.33 19.00 357.66 19.00 355.00 Z" />
<path fill="#000000" opacity="1.00" d=" M 115.00 355.00 C 123.00 355.00 131.00 355.00 139.00 355.00 C 139.00 357.66 139.00 360.33 139.00 363.00 L 115.00 363.00 C 115.00 360.33 115.00 357.66 115.00 355.00 Z" />
<path fill="#000000" opacity="1.00" d=" M 147.00 355.00 C 155.00 355.00 163.00 355.00 171.00 355.00 C 171.00 357.66 171.00 360.33 171.00 363.00 L 147.00 363.00 C 147.00 360.33 147.00 357.66 147.00 355.00 Z" />
<path fill="#000000" opacity="1.00" d=" M 179.00 355.00 C 187.00 355.00 195.00 355.00 203.00 355.00 C 203.00 357.66 203.00 360.33 203.00 363.00 L 179.00 363.00 C 179.00 360.33 179.00 357.66 179.00 355.00 Z" />
<path fill="#000000" opacity="1.00" d=" M 211.00 355.00 C 219.00 355.00 227.00 355.00 235.00 355.00 C 235.00 357.66 235.00 360.33 235.00 363.00 L 211.00 363.00 C 211.00 360.33 211.00 357.66 211.00 355.00 Z" />
<path fill="#000000" opacity="1.00" d=" M 243.00 355.00 C 251.00 355.00 259.00 355.00 267.00 355.00 C 267.00 357.66 267.00 360.33 267.00 363.00 L 243.00 363.00 C 243.00 360.33 243.00 357.66 243.00 355.00 Z" />
<path fill="#000000" opacity="1.00" d=" M 275.00 355.00 C 283.00 355.00 291.00 355.00 299.00 355.00 C 299.00 357.66 299.00 360.33 299.00 363.00 L 275.00 363.00 C 275.00 360.33 275.00 357.66 275.00 355.00 Z" />
<path fill="#000000" opacity="1.00" d=" M 307.00 355.00 C 315.00 355.00 323.00 355.00 331.00 355.00 C 331.00 357.66 331.00 360.33 331.00 363.00 L 307.00 363.00 C 307.00 360.33 307.00 357.66 307.00 355.00 Z" />
</g>
</svg>
