<?xml version="1.0" encoding="utf-8"?>
<!DOCTYPE svg PUBLIC "-//W3C//DTD SVG 1.1//EN" "http://www.w3.org/Graphics/SVG/1.1/DTD/svg11.dtd">
<svg xmlns="http://www.w3.org/2000/svg" width="165pt" height="165pt" viewBox="0 0 165 165" version="1.1">
<g class="sprite" id="badge">
    <path fill="#454545" d=" M 9.99 56.94 C 17.25 48.76 28.08 44.03 38.99 43.98 C 49.45 44.03 59.83 48.34 67.08 55.91 C 79.71 68.42 81.53 89.93 71.51 104.56 C 65.93 113.01 56.93 119.17 46.98 121.13 C 34.11 124.03 19.94 119.58 10.88 110.02 C 4.64 103.75 0.95 95.28 0.00 86.52 L 0.00 80.37 C 0.82 71.77 4.12 63.35 9.99 56.94 Z" />
<path fill="#454545" d=" M 98.43 55.43 C 105.61 48.15 115.76 44.05 125.96 43.98 C 136.44 44.02 146.85 48.35 154.10 55.94 C 160.60 62.22 163.91 71.09 165.00 79.92 L 165.00 85.95 C 164.07 94.63 160.66 103.14 154.60 109.52 C 146.35 118.53 133.65 123.22 121.52 121.73 C 105.54 120.07 91.30 107.54 87.95 91.78 C 84.96 78.94 89.01 64.69 98.43 55.43 Z" /><path fill="#41b349" d=" M 31.05 50.03 C 39.63 47.28 48.84 49.51 56.73 53.27 C 59.68 54.84 63.01 56.66 64.22 59.98 C 64.58 62.98 61.46 64.63 59.65 66.46 C 54.49 61.19 47.59 57.32 40.06 57.29 C 31.65 56.79 23.56 60.84 18.11 67.11 C 16.02 65.24 11.69 62.97 13.69 59.63 C 17.73 54.09 24.78 51.96 31.05 50.03 Z" /><path fill="#41b349" d=" M 107.90 53.84 C 115.72 50.10 124.71 47.31 133.36 49.64 C 139.53 51.28 146.33 53.29 150.49 58.45 C 152.93 61.68 148.88 64.42 146.80 66.41 C 141.94 61.73 135.90 57.95 129.03 57.41 C 120.01 56.31 110.92 60.25 105.03 67.05 C 103.19 65.35 100.21 63.91 100.13 61.10 C 101.18 57.48 104.83 55.54 107.90 53.84 Z" /><path fill="#ffffff" d=" M 15.66 79.16 C 17.65 69.54 26.13 61.58 35.92 60.42 C 49.32 58.20 62.72 69.54 63.01 83.05 C 63.35 87.41 61.95 91.61 60.41 95.62 C 59.86 91.03 58.94 85.99 55.12 82.91 C 48.91 76.77 37.44 78.59 33.30 86.24 C 28.42 93.86 32.10 104.68 40.25 108.31 C 33.32 108.22 26.34 105.65 21.62 100.46 C 16.26 94.92 14.05 86.67 15.66 79.16 Z" /><path fill="#ffffff" d=" M 102.57 79.19 C 104.64 68.41 115.07 60.04 126.02 60.24 C 137.59 59.95 148.68 69.29 149.86 80.90 C 151.21 90.35 145.78 100.11 137.31 104.34 C 133.56 106.44 129.23 106.96 125.03 107.30 C 129.89 104.62 133.88 99.86 133.96 94.09 C 134.84 85.75 127.46 77.56 118.97 78.22 C 110.03 78.30 103.29 87.90 105.50 96.40 C 103.09 91.03 101.20 85.12 102.57 79.19 Z" /><path fill="#6f8fc7" d=" M 61.93 69.85 C 64.32 67.96 66.44 65.74 68.15 63.22 C 72.25 70.32 74.52 78.59 73.52 86.82 C 72.47 95.03 69.11 103.63 62.02 108.46 C 60.33 107.19 58.65 105.90 56.99 104.59 C 61.54 99.79 65.31 93.85 65.83 87.10 C 66.57 81.08 65.00 75.03 61.93 69.85 Z" /><path fill="#6f8fc7" d=" M 149.01 69.80 C 151.36 67.91 153.46 65.72 155.16 63.22 C 159.25 70.33 161.52 78.60 160.52 86.82 C 159.47 95.05 156.09 103.65 149.00 108.48 C 147.10 107.08 145.28 105.56 143.55 103.96 C 149.16 98.90 153.06 91.70 152.97 84.01 C 153.21 78.97 151.48 74.12 149.01 69.80 Z" /><path fill="#db4937" d=" M 4.16 82.00 C 4.34 75.83 6.67 70.00 9.58 64.65 C 11.46 66.78 13.53 68.73 15.80 70.45 C 12.16 77.10 11.06 85.16 13.47 92.41 C 14.73 96.90 17.67 100.60 20.66 104.07 C 19.20 105.58 17.68 107.03 16.12 108.44 C 7.66 102.70 3.64 91.96 4.16 82.00 Z" /><path fill="#db4937" d=" M 96.58 64.62 C 98.46 66.75 100.52 68.72 102.76 70.48 C 98.87 77.22 98.01 85.66 100.89 92.93 C 102.34 96.98 105.10 100.34 107.97 103.46 C 106.44 105.03 105.27 107.52 102.98 107.97 C 98.11 105.62 95.40 100.45 93.35 95.68 C 89.19 85.55 91.14 73.88 96.58 64.62 Z" /><path fill="#f7cb38" d=" M 111.22 105.93 C 119.95 111.17 131.34 111.42 140.19 106.31 C 142.09 108.20 144.09 109.99 146.19 111.66 C 134.33 119.94 117.69 119.92 105.81 111.68 C 107.75 109.89 109.55 107.97 111.22 105.93 Z" /><path fill="#f7cb38" d=" M 18.79 111.68 C 20.57 110.02 22.26 108.28 23.88 106.47 C 32.70 112.40 44.70 112.48 53.73 106.93 C 55.51 108.57 57.34 110.15 59.22 111.66 C 47.33 119.93 30.70 119.91 18.79 111.68 Z" />
</g>
 
<g class="sprite" id="icon">
    <path fill="#FFFFFF" d=" M 31.05 50.03 C 39.63 47.28 48.84 49.51 56.73 53.27 C 59.68 54.84 63.01 56.66 64.22 59.98 C 64.58 62.98 61.46 64.63 59.65 66.46 C 54.49 61.19 47.59 57.32 40.06 57.29 C 31.65 56.79 23.56 60.84 18.11 67.11 C 16.02 65.24 11.69 62.97 13.69 59.63 C 17.73 54.09 24.78 51.96 31.05 50.03 Z"/><path fill="#FFFFFF" d=" M 107.90 53.84 C 115.72 50.10 124.71 47.31 133.36 49.64 C 139.53 51.28 146.33 53.29 150.49 58.45 C 152.93 61.68 148.88 64.42 146.80 66.41 C 141.94 61.73 135.90 57.95 129.03 57.41 C 120.01 56.31 110.92 60.25 105.03 67.05 C 103.19 65.35 100.21 63.91 100.13 61.10 C 101.18 57.48 104.83 55.54 107.90 53.84 Z"/><path fill="#ffffff" d=" M 15.66 79.16 C 17.65 69.54 26.13 61.58 35.92 60.42 C 49.32 58.20 62.72 69.54 63.01 83.05 C 63.35 87.41 61.95 91.61 60.41 95.62 C 59.86 91.03 58.94 85.99 55.12 82.91 C 48.91 76.77 37.44 78.59 33.30 86.24 C 28.42 93.86 32.10 104.68 40.25 108.31 C 33.32 108.22 26.34 105.65 21.62 100.46 C 16.26 94.92 14.05 86.67 15.66 79.16 Z"/><path fill="#ffffff" d=" M 102.57 79.19 C 104.64 68.41 115.07 60.04 126.02 60.24 C 137.59 59.95 148.68 69.29 149.86 80.90 C 151.21 90.35 145.78 100.11 137.31 104.34 C 133.56 106.44 129.23 106.96 125.03 107.30 C 129.89 104.62 133.88 99.86 133.96 94.09 C 134.84 85.75 127.46 77.56 118.97 78.22 C 110.03 78.30 103.29 87.90 105.50 96.40 C 103.09 91.03 101.20 85.12 102.57 79.19 Z"/><path fill="#FFFFFF" d=" M 61.93 69.85 C 64.32 67.96 66.44 65.74 68.15 63.22 C 72.25 70.32 74.52 78.59 73.52 86.82 C 72.47 95.03 69.11 103.63 62.02 108.46 C 60.33 107.19 58.65 105.90 56.99 104.59 C 61.54 99.79 65.31 93.85 65.83 87.10 C 66.57 81.08 65.00 75.03 61.93 69.85 Z"/><path fill="#FFFFFF" d=" M 149.01 69.80 C 151.36 67.91 153.46 65.72 155.16 63.22 C 159.25 70.33 161.52 78.60 160.52 86.82 C 159.47 95.05 156.09 103.65 149.00 108.48 C 147.10 107.08 145.28 105.56 143.55 103.96 C 149.16 98.90 153.06 91.70 152.97 84.01 C 153.21 78.97 151.48 74.12 149.01 69.80 Z"/><path fill="#FFFFFF" d=" M 4.16 82.00 C 4.34 75.83 6.67 70.00 9.58 64.65 C 11.46 66.78 13.53 68.73 15.80 70.45 C 12.16 77.10 11.06 85.16 13.47 92.41 C 14.73 96.90 17.67 100.60 20.66 104.07 C 19.20 105.58 17.68 107.03 16.12 108.44 C 7.66 102.70 3.64 91.96 4.16 82.00 Z"/><path fill="#FFFFFF" d=" M 96.58 64.62 C 98.46 66.75 100.52 68.72 102.76 70.48 C 98.87 77.22 98.01 85.66 100.89 92.93 C 102.34 96.98 105.10 100.34 107.97 103.46 C 106.44 105.03 105.27 107.52 102.98 107.97 C 98.11 105.62 95.40 100.45 93.35 95.68 C 89.19 85.55 91.14 73.88 96.58 64.62 Z"/><path fill="#FFFFFF" d=" M 111.22 105.93 C 119.95 111.17 131.34 111.42 140.19 106.31 C 142.09 108.20 144.09 109.99 146.19 111.66 C 134.33 119.94 117.69 119.92 105.81 111.68 C 107.75 109.89 109.55 107.97 111.22 105.93 Z"/><path fill="#FFFFFF" d=" M 18.79 111.68 C 20.57 110.02 22.26 108.28 23.88 106.47 C 32.70 112.40 44.70 112.48 53.73 106.93 C 55.51 108.57 57.34 110.15 59.22 111.66 C 47.33 119.93 30.70 119.91 18.79 111.68 Z"/>
</g>
<defs>
    <style><![CDATA[
        .sprite { display: none; }
        .sprite:target { display: inline; }
    ]]></style>
</defs>
</svg>