<?xml version="1.0" encoding="UTF-8" ?>
<!DOCTYPE svg PUBLIC "-//W3C//DTD SVG 1.1//EN" "http://www.w3.org/Graphics/SVG/1.1/DTD/svg11.dtd">
<svg width="361pt" height="355pt" viewBox="0 0 361 355" version="1.1" xmlns="http://www.w3.org/2000/svg">
<g id="#000000ff">
<path fill="#000000" opacity="1.00" d=" M 147.11 35.34 C 154.46 30.25 163.42 27.26 172.42 28.30 C 172.14 30.92 171.83 33.53 171.51 36.15 C 164.42 35.57 157.45 37.88 151.66 41.89 C 150.13 39.71 148.61 37.53 147.11 35.34 Z" />
<path fill="#000000" opacity="1.00" d=" M 178.53 37.71 C 179.36 35.19 180.18 32.67 180.99 30.15 C 189.01 32.85 196.28 37.31 203.08 42.29 C 201.50 44.43 199.92 46.58 198.34 48.73 C 192.23 44.24 185.69 40.28 178.53 37.71 Z" />
<path fill="#000000" opacity="1.00" d=" M 124.49 59.74 C 129.23 52.94 134.38 46.38 140.42 40.67 C 142.24 42.63 144.05 44.59 145.86 46.57 C 140.27 51.87 135.42 57.91 131.10 64.28 C 128.89 62.77 126.69 61.26 124.49 59.74 Z" />
<path fill="#000000" opacity="1.00" d=" M 204.51 53.50 C 206.19 51.43 207.87 49.36 209.57 47.30 C 215.81 52.52 221.72 58.09 227.51 63.80 C 225.64 65.68 223.76 67.55 221.89 69.42 C 216.29 63.91 210.57 58.51 204.51 53.50 Z" />
<path fill="#000000" opacity="1.00" d=" M 108.00 87.69 C 111.77 80.51 115.75 73.44 120.04 66.55 C 122.29 67.99 124.54 69.43 126.79 70.87 C 122.66 77.59 118.68 84.41 115.05 91.42 C 112.70 90.19 110.35 88.94 108.00 87.69 Z" />
<path fill="#000000" opacity="1.00" d=" M 227.38 75.14 C 229.30 73.29 231.24 71.46 233.19 69.65 C 238.70 75.52 244.16 81.43 249.44 87.50 C 247.44 89.25 245.44 90.99 243.44 92.74 C 238.16 86.81 232.90 80.86 227.38 75.14 Z" />
<path fill="#000000" opacity="1.00" d=" M 248.63 98.76 C 250.64 97.02 252.66 95.29 254.69 93.57 C 260.00 99.56 265.18 105.67 270.30 111.82 C 268.27 113.55 266.23 115.28 264.19 117.00 C 259.03 110.89 253.90 104.76 248.63 98.76 Z" />
<path fill="#000000" opacity="1.00" d=" M 104.31 94.83 C 106.67 96.04 109.02 97.27 111.37 98.51 C 107.74 105.24 104.50 112.17 101.07 119.00 C 108.71 119.00 116.36 119.00 124.00 119.00 C 124.00 121.67 124.00 124.33 124.00 127.00 C 116.00 127.00 107.99 127.00 99.99 127.00 C 99.99 124.55 100.01 122.10 100.06 119.66 C 97.87 118.49 95.65 117.37 93.43 116.28 C 97.02 109.11 100.53 101.90 104.31 94.83 Z" />
<path fill="#000000" opacity="1.00" d=" M 0.00 119.00 C 9.33 119.00 18.67 119.00 28.00 119.00 C 28.00 121.67 28.00 124.33 28.00 127.00 C 21.33 127.00 14.67 127.00 8.00 127.00 C 8.00 131.00 8.00 135.00 8.00 139.00 C 5.33 139.00 2.67 139.00 0.00 139.00 L 0.00 119.00 Z" />
<path fill="#000000" opacity="1.00" d=" M 36.00 119.00 C 44.00 119.00 52.00 119.00 60.00 119.00 C 60.00 121.67 60.00 124.33 60.00 127.00 C 52.00 127.00 44.00 127.00 36.00 127.00 C 36.00 124.33 36.00 121.67 36.00 119.00 Z" />
<path fill="#000000" opacity="1.00" d=" M 68.00 119.00 C 76.00 119.00 84.00 119.00 92.00 119.00 C 92.00 121.67 92.00 124.33 92.00 127.00 C 84.00 127.00 76.00 127.00 68.00 127.00 C 68.00 124.33 68.00 121.67 68.00 119.00 Z" />
<path fill="#000000" opacity="1.00" d=" M 132.00 119.00 C 140.00 119.00 148.00 119.00 156.00 119.00 C 156.00 121.67 156.00 124.33 156.00 127.00 C 148.00 127.00 140.00 127.00 132.00 127.00 C 132.00 124.33 132.00 121.67 132.00 119.00 Z" />
<path fill="#000000" opacity="1.00" d=" M 164.00 119.00 C 172.00 119.00 180.00 119.00 188.00 119.00 C 188.00 121.67 188.00 124.33 188.00 127.00 C 180.00 127.00 172.00 127.00 164.00 127.00 C 164.00 124.33 164.00 121.67 164.00 119.00 Z" />
<path fill="#000000" opacity="1.00" d=" M 196.00 119.00 C 204.00 119.00 212.00 119.00 220.00 119.00 C 220.00 121.67 220.00 124.33 220.00 127.00 C 212.00 127.00 204.00 127.00 196.00 127.00 C 196.00 124.33 196.00 121.67 196.00 119.00 Z" />
<path fill="#000000" opacity="1.00" d=" M 228.00 119.00 C 236.00 119.00 244.00 119.00 252.00 119.00 C 252.00 121.67 252.00 124.33 252.00 127.00 C 244.00 127.00 236.00 127.00 228.00 127.00 C 228.00 124.33 228.00 121.67 228.00 119.00 Z" />
<path fill="#000000" opacity="1.00" d=" M 260.00 119.00 C 268.00 119.00 276.00 119.00 284.00 119.00 C 284.00 121.67 284.00 124.33 284.00 127.00 C 276.00 127.00 268.00 127.00 260.00 127.00 C 260.00 124.33 260.00 121.67 260.00 119.00 Z" />
<path fill="#000000" opacity="1.00" d=" M 292.00 119.00 C 300.00 119.00 308.00 119.00 316.00 119.00 C 316.00 121.67 316.00 124.33 316.00 127.00 C 308.00 127.00 300.00 127.00 292.00 127.00 C 292.00 124.33 292.00 121.67 292.00 119.00 Z" />
<path fill="#000000" opacity="1.00" d=" M 324.00 119.00 C 332.00 119.00 340.00 119.00 348.00 119.00 C 348.00 121.67 348.00 124.33 348.00 127.00 C 340.00 127.00 332.00 127.00 324.00 127.00 C 324.00 124.33 324.00 121.67 324.00 119.00 Z" />
<path fill="#000000" opacity="1.00" d=" M 356.01 119.00 C 357.67 119.00 359.33 119.00 361.00 119.00 L 361.00 146.00 C 358.33 146.00 355.66 146.00 353.00 146.00 C 353.00 138.34 353.00 130.69 353.00 123.03 C 353.75 123.02 355.25 122.99 356.00 122.97 C 356.00 121.65 356.00 120.32 356.01 119.00 Z" />
<path fill="#000000" opacity="1.00" d=" M 170.39 148.37 C 173.22 145.71 177.49 146.31 181.04 146.52 C 184.28 146.71 187.18 149.56 187.06 152.89 C 187.21 168.58 187.10 184.29 187.11 199.99 C 187.29 202.61 186.10 205.32 183.67 206.50 C 178.87 208.50 173.56 205.97 168.69 207.60 C 162.30 209.22 154.94 207.58 150.37 202.66 C 145.21 197.20 143.57 189.29 144.06 181.98 C 144.36 174.18 148.12 166.19 154.96 162.10 C 158.94 159.56 163.72 158.77 168.37 159.18 C 168.57 155.58 167.52 151.20 170.39 148.37 M 163.87 178.80 C 162.30 182.32 162.89 186.36 163.96 189.94 C 165.43 189.66 166.89 189.37 168.35 189.06 C 168.38 185.12 168.39 181.18 168.34 177.24 C 166.81 177.53 164.60 176.94 163.87 178.80 Z" />
<path fill="#000000" opacity="1.00" d=" M 0.00 147.00 C 2.67 147.00 5.33 147.00 8.00 147.00 C 8.00 155.00 8.00 163.00 8.00 171.00 C 5.33 171.00 2.67 171.00 0.00 171.00 L 0.00 147.00 Z" />
<path fill="#000000" opacity="1.00" d=" M 30.76 155.95 C 30.49 152.69 32.65 149.29 35.98 148.73 C 39.62 148.32 43.34 148.30 46.98 148.74 C 49.35 149.04 50.89 151.08 51.85 153.08 C 53.86 157.10 55.71 161.21 57.68 165.26 C 59.98 160.66 61.77 155.81 64.33 151.35 C 66.33 148.03 70.63 148.49 73.96 148.44 C 76.86 148.55 80.32 148.13 82.54 150.43 C 84.41 152.10 84.54 154.71 84.52 157.04 C 84.49 171.03 84.49 185.02 84.52 199.00 C 84.54 201.29 84.36 203.87 82.49 205.47 C 79.66 208.04 75.46 207.18 71.97 207.22 C 68.88 207.33 66.04 204.92 65.61 201.88 C 65.13 198.24 65.39 194.56 65.48 190.91 C 61.90 196.24 52.66 196.24 49.27 190.70 C 49.22 195.00 49.99 199.48 48.73 203.65 C 46.66 208.12 41.02 207.36 36.97 207.18 C 33.19 207.24 30.44 203.54 30.77 199.93 C 30.73 185.27 30.74 170.61 30.76 155.95 Z" />
<path fill="#000000" opacity="1.00" d=" M 353.00 154.00 C 355.66 154.00 358.33 154.00 361.00 154.00 L 361.00 178.00 C 358.33 178.00 355.66 178.00 353.00 178.00 C 353.00 170.00 353.00 162.00 353.00 154.00 Z" />
<path fill="#000000" opacity="1.00" d=" M 110.38 159.53 C 117.08 158.21 124.54 159.65 129.72 164.28 C 135.01 168.91 137.52 176.06 137.50 182.97 C 137.78 190.24 135.44 197.92 129.90 202.87 C 123.87 208.40 114.68 209.49 107.12 206.85 C 99.92 204.31 94.87 197.45 93.50 190.08 C 92.22 182.94 92.86 175.13 96.79 168.87 C 99.73 164.02 104.84 160.64 110.38 159.53 M 114.00 177.07 C 110.89 179.46 111.79 184.38 112.30 187.80 C 112.56 190.05 114.90 190.78 116.83 190.05 C 119.29 187.05 118.80 182.66 118.06 179.12 C 117.72 177.20 115.67 176.63 114.00 177.07 Z" />
<path fill="#000000" opacity="1.00" d=" M 210.94 160.08 C 218.85 157.77 228.59 159.23 234.07 165.83 C 238.38 170.85 239.34 177.75 238.98 184.13 C 238.97 185.74 238.16 187.16 237.52 188.59 C 238.34 193.45 240.00 200.03 235.84 203.81 C 225.70 209.36 211.73 210.15 202.50 202.35 C 195.29 196.15 193.70 185.62 195.72 176.74 C 197.39 169.04 203.26 162.22 210.94 160.08 Z" />
<path fill="#000000" opacity="1.00" d=" M 305.52 159.68 C 311.31 158.20 318.02 159.36 322.42 163.59 C 325.70 167.25 327.62 172.04 327.80 176.97 C 328.20 184.68 327.97 192.42 327.96 200.15 C 328.16 203.22 326.20 206.45 323.05 207.01 C 320.09 207.43 317.04 207.44 314.09 206.99 C 311.19 206.49 309.34 203.56 309.31 200.75 C 309.03 192.91 309.58 185.05 308.97 177.22 C 307.62 177.72 306.27 178.23 304.94 178.75 C 305.00 186.21 305.11 193.68 304.92 201.14 C 304.96 204.31 302.16 207.13 299.00 207.17 C 296.11 207.35 293.12 207.53 290.30 206.77 C 287.52 205.77 286.24 202.73 286.28 199.96 C 286.21 189.27 286.26 178.58 286.26 167.89 C 286.16 165.13 287.14 162.10 289.75 160.76 C 294.80 158.34 300.39 161.59 305.52 159.68 Z" />
<path fill="#000000" opacity="1.00" d=" M 247.30 167.03 C 247.23 164.07 249.06 160.99 252.04 160.27 C 255.94 159.50 260.14 159.56 263.80 161.25 C 268.59 159.92 274.05 159.10 278.67 161.39 C 282.60 163.82 281.80 169.06 281.67 172.99 C 281.64 176.41 278.46 179.41 275.03 179.14 C 271.97 179.00 268.79 178.23 265.96 179.79 C 265.97 186.91 266.12 194.04 265.92 201.15 C 265.98 204.74 262.51 207.52 259.04 207.25 C 255.83 207.20 252.01 207.91 249.40 205.58 C 247.04 203.42 247.26 199.96 247.23 197.04 C 247.33 187.04 247.15 177.03 247.30 167.03 Z" />
<path fill="#000000" opacity="1.00" d=" M 0.00 179.00 C 2.67 179.00 5.33 179.00 8.00 179.00 C 8.00 187.00 8.00 195.00 8.00 203.00 C 5.33 203.00 2.67 203.00 0.00 203.00 L 0.00 179.00 Z" />
<path fill="#000000" opacity="1.00" d=" M 353.00 186.00 C 355.66 186.00 358.33 186.00 361.00 186.00 L 361.00 210.00 C 358.33 210.00 355.66 210.00 353.00 210.00 C 353.00 202.00 353.00 194.00 353.00 186.00 Z" />
<path fill="#000000" opacity="1.00" d=" M 0.00 211.00 C 2.67 211.00 5.33 211.00 8.00 211.00 C 8.00 219.00 8.00 227.00 8.00 235.00 C 5.33 235.00 2.67 235.00 0.00 235.00 L 0.00 211.00 Z" />
<path fill="#000000" opacity="1.00" d=" M 353.00 218.00 C 355.66 218.00 358.33 218.00 361.00 218.00 L 361.00 242.00 C 358.33 242.00 355.66 242.00 353.00 242.00 C 353.00 234.00 353.00 226.00 353.00 218.00 Z" />
<path fill="#000000" opacity="1.00" d=" M 130.50 227.89 C 133.85 228.11 137.67 228.22 140.06 230.96 C 142.30 233.72 143.01 237.33 144.29 240.57 C 142.24 241.31 140.20 242.05 138.16 242.80 C 139.63 246.86 141.10 250.92 142.55 254.99 C 144.60 254.27 146.65 253.55 148.70 252.83 C 150.17 256.89 151.66 260.94 153.11 265.01 C 151.07 265.74 149.02 266.48 146.98 267.22 C 148.45 271.31 149.92 275.40 151.42 279.48 C 153.47 278.74 155.52 277.99 157.57 277.25 C 158.60 280.17 159.65 283.09 160.70 286.01 C 162.05 286.00 163.40 285.99 164.75 285.99 C 164.75 281.66 164.75 277.34 164.75 273.01 C 162.58 273.00 160.41 273.00 158.25 272.99 C 158.25 268.66 158.25 264.33 158.25 260.01 C 160.41 260.00 162.58 260.00 164.75 259.99 C 164.75 255.66 164.75 251.33 164.75 247.01 C 162.59 247.00 160.42 247.00 158.26 246.99 C 158.51 242.24 157.31 237.05 159.75 232.69 C 160.90 230.36 163.43 229.39 165.61 228.30 C 166.05 230.72 166.45 233.15 167.07 235.53 C 168.07 233.23 167.73 230.68 167.77 228.25 C 172.15 228.25 176.53 228.25 180.91 228.26 C 180.86 230.39 180.80 232.53 180.74 234.67 C 185.12 234.79 189.48 235.56 193.36 237.71 C 194.46 235.93 195.57 234.16 196.68 232.39 C 200.22 235.11 203.66 238.19 205.27 242.50 C 205.23 239.19 204.94 235.62 206.75 232.68 C 207.90 230.36 210.44 229.41 212.58 228.25 C 213.03 230.71 213.25 233.29 214.49 235.52 C 214.73 233.10 214.77 230.68 214.79 228.25 C 219.16 228.25 223.53 228.25 227.91 228.26 C 227.86 230.39 227.80 232.53 227.74 234.67 C 232.12 234.78 236.49 235.56 240.36 237.71 C 241.46 235.93 242.56 234.16 243.66 232.40 C 248.83 235.87 252.64 241.11 253.63 247.35 C 251.50 247.69 249.38 248.02 247.25 248.36 C 247.62 252.68 247.23 257.08 245.41 261.07 C 246.10 261.54 247.47 262.47 248.15 262.93 C 248.23 261.22 248.33 259.52 248.44 257.82 C 250.50 258.22 252.57 258.63 254.64 259.04 C 255.93 254.72 259.05 251.22 263.19 249.44 C 262.78 247.54 262.35 245.63 261.93 243.74 C 268.82 242.18 276.52 242.57 282.60 246.47 C 285.17 248.05 286.21 250.97 286.84 253.77 C 284.64 253.97 282.45 254.16 280.25 254.35 C 280.12 255.61 279.99 256.87 279.87 258.14 C 276.90 257.22 273.87 256.50 270.84 255.86 C 270.63 257.71 270.43 259.56 270.24 261.42 C 269.18 261.66 268.12 261.91 267.07 262.16 C 265.38 261.73 263.68 261.38 261.98 261.10 C 262.29 266.02 268.04 267.27 271.74 268.94 C 272.56 266.91 273.37 264.88 274.19 262.84 C 280.15 265.14 285.53 269.14 288.08 275.17 C 285.98 275.71 283.88 276.25 281.77 276.78 C 282.77 281.07 282.03 285.54 279.49 289.15 C 281.10 290.47 282.72 291.78 284.34 293.10 C 280.20 297.63 274.21 299.78 268.20 300.23 C 267.97 298.10 267.75 295.97 267.52 293.85 C 263.12 293.69 258.83 292.66 254.65 291.35 C 253.57 293.03 252.50 294.72 251.40 296.40 C 247.38 293.14 246.37 287.50 247.75 282.70 C 248.83 279.74 251.73 277.33 254.98 277.50 C 257.60 277.68 259.87 279.12 262.17 280.26 C 261.30 282.22 260.43 284.17 259.56 286.13 C 263.57 288.27 268.15 287.65 272.23 286.08 C 270.83 284.74 269.36 283.48 267.80 282.34 C 268.69 280.16 269.89 278.14 271.17 276.17 C 267.27 274.23 263.16 272.75 259.35 270.62 C 258.10 272.35 256.84 274.08 255.58 275.81 C 252.72 273.55 250.73 270.49 249.02 267.33 C 246.21 270.86 242.51 273.55 238.33 275.23 C 237.48 273.32 236.63 271.42 235.79 269.51 C 232.60 270.44 229.32 270.97 226.00 271.08 C 226.00 274.17 226.00 277.27 226.00 280.37 C 223.83 280.37 221.66 280.37 219.50 280.38 C 219.21 284.66 220.31 289.19 218.63 293.27 C 219.09 295.26 219.63 297.23 220.19 299.21 C 215.84 299.71 210.47 300.29 207.21 296.70 C 204.52 293.82 205.40 289.58 205.23 286.01 C 207.40 286.00 209.58 286.00 211.75 285.99 C 211.75 281.66 211.75 277.34 211.75 273.01 C 209.58 273.00 207.41 273.00 205.25 272.99 C 205.25 268.66 205.25 264.34 205.25 260.01 C 207.41 260.00 209.58 260.00 211.75 259.99 C 211.75 255.63 211.75 251.28 211.75 246.93 C 207.86 246.89 204.05 247.68 200.25 248.39 C 200.64 252.71 200.19 257.09 198.41 261.08 C 200.22 262.27 202.04 263.47 203.85 264.67 C 200.93 269.43 196.55 273.19 191.33 275.23 C 190.48 273.32 189.63 271.42 188.79 269.51 C 185.60 270.44 182.32 270.98 179.00 271.08 C 179.00 274.17 179.00 277.27 179.00 280.37 C 176.83 280.37 174.66 280.37 172.50 280.38 C 172.20 284.66 173.32 289.19 171.63 293.26 C 172.09 295.26 172.63 297.23 173.19 299.21 C 169.44 299.61 165.30 300.12 161.90 298.12 C 159.84 296.99 158.99 294.72 158.10 292.69 C 157.65 292.53 156.73 292.23 156.28 292.07 C 153.80 293.16 150.86 293.76 148.28 292.73 C 147.08 291.62 146.85 289.85 146.16 288.44 C 144.15 289.14 142.14 289.86 140.13 290.56 C 138.86 286.98 137.59 283.39 136.33 279.82 C 138.05 279.15 139.77 278.49 141.48 277.80 C 136.95 277.52 132.40 277.53 127.87 277.78 C 127.87 279.89 127.87 282.01 127.87 284.12 C 124.68 284.13 121.50 284.12 118.31 284.12 C 118.25 282.90 118.18 281.68 118.09 280.46 C 115.10 283.99 114.95 289.02 112.75 293.03 C 114.01 294.73 115.29 296.43 116.55 298.14 C 111.42 300.24 104.64 300.70 100.52 296.36 C 99.56 296.98 98.61 297.60 97.66 298.23 C 96.87 296.37 96.08 294.52 95.28 292.67 C 92.86 292.97 90.01 293.87 87.87 292.23 C 86.76 290.78 87.02 288.79 86.69 287.09 C 84.59 286.71 82.48 286.34 80.37 285.99 C 80.93 283.14 81.85 280.04 84.42 278.37 C 88.21 275.89 93.30 275.83 97.41 277.50 C 100.53 278.78 101.88 282.00 102.87 284.98 C 104.32 285.52 105.78 286.05 107.24 286.59 C 108.73 282.53 110.18 278.46 111.66 274.40 C 109.63 273.66 107.60 272.92 105.57 272.18 C 107.02 268.10 108.47 264.02 109.94 259.95 C 111.98 260.68 114.02 261.41 116.07 262.14 C 117.56 258.07 119.07 254.01 120.39 249.88 C 118.39 249.14 116.38 248.41 114.37 247.68 C 115.86 243.62 117.33 239.56 118.81 235.50 C 120.80 236.21 122.79 236.93 124.79 237.66 C 125.12 236.97 125.78 235.60 126.11 234.91 C 127.57 234.71 129.04 234.53 130.51 234.36 C 130.50 232.20 130.50 230.05 130.50 227.89 M 179.01 241.30 C 179.00 245.57 179.00 249.85 179.00 254.12 C 176.83 254.12 174.67 254.12 172.50 254.13 C 172.50 257.45 172.50 260.77 172.51 264.10 C 173.16 264.10 174.47 264.09 175.12 264.09 C 175.12 262.02 175.12 259.95 175.13 257.89 C 178.14 257.94 181.21 258.06 184.10 257.04 C 185.37 258.80 186.63 260.58 187.89 262.35 C 191.24 259.40 192.59 255.03 192.34 250.65 C 190.23 251.05 188.14 251.46 186.04 251.87 C 185.61 249.76 184.31 248.22 182.32 247.42 C 182.97 245.42 183.62 243.42 184.27 241.43 C 182.52 241.37 180.76 241.33 179.01 241.30 M 226.01 241.30 C 226.00 245.57 226.00 249.85 226.00 254.12 C 223.83 254.12 221.67 254.12 219.51 254.13 C 219.50 257.45 219.50 260.77 219.51 264.10 C 220.16 264.10 221.47 264.09 222.12 264.09 C 222.12 262.02 222.12 259.95 222.13 257.89 C 225.14 257.94 228.21 258.06 231.09 257.04 C 232.37 258.80 233.63 260.57 234.90 262.34 C 238.24 259.39 239.59 255.02 239.34 250.65 C 237.23 251.05 235.14 251.46 233.04 251.87 C 232.60 249.79 231.32 248.21 229.33 247.43 C 229.97 245.42 230.61 243.43 231.25 241.43 C 229.50 241.37 227.76 241.33 226.01 241.30 M 132.17 256.86 C 130.09 256.16 128.02 255.46 125.95 254.76 C 124.77 258.13 123.61 261.50 122.45 264.87 C 124.46 264.87 126.48 264.87 128.50 264.88 C 128.50 267.04 128.50 269.20 128.51 271.37 C 130.17 271.37 131.83 271.38 133.50 271.39 C 132.19 267.68 130.91 263.97 129.63 260.25 C 131.65 259.53 133.67 258.82 135.69 258.10 C 135.02 256.11 134.35 254.12 133.69 252.12 C 133.18 253.70 132.67 255.28 132.17 256.86 Z" />
<path fill="#000000" opacity="1.00" d=" M 0.00 243.00 C 2.67 243.00 5.33 243.00 8.00 243.00 C 8.00 251.00 8.00 259.00 8.00 267.00 C 5.33 267.00 2.67 267.00 0.00 267.00 L 0.00 243.00 Z" />
<path fill="#000000" opacity="1.00" d=" M 353.00 250.00 C 355.66 250.00 358.33 250.00 361.00 250.00 L 361.00 274.00 C 358.33 274.00 355.66 274.00 353.00 274.00 C 353.00 266.00 353.00 258.00 353.00 250.00 Z" />
<path fill="#000000" opacity="1.00" d=" M 0.00 275.00 C 2.67 275.00 5.33 275.00 8.00 275.00 C 8.00 283.00 8.00 291.00 8.00 299.00 C 5.33 299.00 2.67 299.00 0.00 299.00 L 0.00 275.00 Z" />
<path fill="#000000" opacity="1.00" d=" M 353.00 282.00 C 355.66 282.00 358.33 282.00 361.00 282.00 L 361.00 306.00 C 358.33 306.00 355.66 306.00 353.00 306.00 C 353.00 298.00 353.00 290.00 353.00 282.00 Z" />
<path fill="#000000" opacity="1.00" d=" M 0.00 307.00 C 2.67 307.00 5.33 307.00 8.00 307.00 C 8.00 310.66 8.00 314.33 8.00 317.99 C 9.67 317.99 11.33 318.00 13.00 318.01 C 13.00 320.67 13.00 323.33 13.00 326.00 C 8.67 326.00 4.33 326.00 0.00 326.00 L 0.00 307.00 Z" />
<path fill="#000000" opacity="1.00" d=" M 353.01 314.00 C 355.67 314.00 358.33 314.00 361.00 314.00 L 361.00 326.00 C 354.33 326.00 347.66 326.00 341.00 326.00 C 341.00 323.33 341.00 320.66 341.00 318.00 C 344.99 318.00 348.99 318.00 352.99 318.00 C 352.99 316.66 353.00 315.33 353.01 314.00 Z" />
<path fill="#000000" opacity="1.00" d=" M 21.00 318.00 C 29.00 318.00 37.00 318.00 45.00 318.00 C 45.00 320.66 45.00 323.33 45.00 326.00 C 37.00 326.00 29.00 326.00 21.00 326.00 C 21.00 323.33 21.00 320.66 21.00 318.00 Z" />
<path fill="#000000" opacity="1.00" d=" M 53.00 318.00 C 61.00 318.00 69.00 318.00 77.00 318.00 C 77.00 320.66 77.00 323.33 77.00 326.00 C 69.00 326.00 61.00 326.00 53.00 326.00 C 53.00 323.33 53.00 320.66 53.00 318.00 Z" />
<path fill="#000000" opacity="1.00" d=" M 85.00 318.00 C 93.00 318.00 101.00 318.00 109.00 318.00 C 109.00 320.66 109.00 323.33 109.00 326.00 C 101.00 326.00 93.00 326.00 85.00 326.00 C 85.00 323.33 85.00 320.66 85.00 318.00 Z" />
<path fill="#000000" opacity="1.00" d=" M 117.00 318.00 C 125.00 318.00 133.00 318.00 141.00 318.00 C 141.00 320.66 141.00 323.33 141.00 326.00 C 133.00 326.00 125.00 326.00 117.00 326.00 C 117.00 323.33 117.00 320.66 117.00 318.00 Z" />
<path fill="#000000" opacity="1.00" d=" M 149.00 318.00 C 157.00 318.00 165.00 318.00 173.00 318.00 C 173.00 320.66 173.00 323.33 173.00 326.00 C 165.00 326.00 157.00 326.00 149.00 326.00 C 149.00 323.33 149.00 320.66 149.00 318.00 Z" />
<path fill="#000000" opacity="1.00" d=" M 181.00 318.00 C 189.00 318.00 197.00 318.00 205.00 318.00 C 205.00 320.66 205.00 323.33 205.00 326.00 C 197.00 326.00 189.00 326.00 181.00 326.00 C 181.00 323.33 181.00 320.66 181.00 318.00 Z" />
<path fill="#000000" opacity="1.00" d=" M 213.00 318.00 C 221.00 318.00 229.00 318.00 237.00 318.00 C 237.00 320.66 237.00 323.33 237.00 326.00 C 229.00 326.00 221.00 326.00 213.00 326.00 C 213.00 323.33 213.00 320.66 213.00 318.00 Z" />
<path fill="#000000" opacity="1.00" d=" M 245.00 318.00 C 253.00 318.00 261.00 318.00 269.00 318.00 C 269.00 320.66 269.00 323.33 269.00 326.00 C 261.00 326.00 253.00 326.00 245.00 326.00 C 245.00 323.33 245.00 320.66 245.00 318.00 Z" />
<path fill="#000000" opacity="1.00" d=" M 277.00 318.00 C 285.00 318.00 293.00 318.00 301.00 318.00 C 301.00 320.66 301.00 323.33 301.00 326.00 C 293.00 326.00 285.00 326.00 277.00 326.00 C 277.00 323.33 277.00 320.66 277.00 318.00 Z" />
<path fill="#000000" opacity="1.00" d=" M 309.00 318.00 C 317.00 318.00 325.00 318.00 333.00 318.00 C 333.00 320.66 333.00 323.33 333.00 326.00 C 325.00 326.00 317.00 326.00 309.00 326.00 C 309.00 323.33 309.00 320.66 309.00 318.00 Z" />
</g>
</svg>
