<?xml version="1.0" encoding="utf-8"?>
<!DOCTYPE svg PUBLIC "-//W3C//DTD SVG 1.1//EN" "http://www.w3.org/Graphics/SVG/1.1/DTD/svg11.dtd">
<svg xmlns="http://www.w3.org/2000/svg" width="598pt" height="598pt" viewBox="0 0 598 598" version="1.1">
<g class="sprite" id="badge">
    <path fill="#7f7f7f" d=" M 98.28 0.00 L 500.21 0.00 C 519.01 0.64 537.71 6.16 553.39 16.65 C 567.84 26.37 579.87 39.77 587.58 55.41 C 594.25 68.80 597.71 83.69 598.00 98.62 L 598.00 501.26 C 597.27 519.22 591.98 537.05 582.19 552.18 C 572.17 567.60 557.94 580.35 541.30 588.25 C 528.68 594.29 514.79 597.47 500.83 598.00 L 98.49 598.00 C 79.93 597.65 61.44 592.25 45.83 582.15 C 30.19 571.99 17.33 557.49 9.46 540.56 C 3.46 527.80 0.46 513.77 0.00 499.70 L 0.00 97.79 C 0.71 72.11 11.26 46.71 29.81 28.80 C 47.76 10.74 72.91 0.58 98.28 0.00 Z"/><path fill="#d8d8d8" d=" M 194.14 115.27 C 229.80 82.88 265.40 50.41 301.06 18.01 C 336.74 50.41 372.33 82.89 408.00 115.29 C 405.84 141.17 403.62 167.06 401.46 192.95 C 428.34 193.78 455.25 194.25 482.12 195.22 C 488.46 201.39 494.13 208.29 500.23 214.73 C 526.81 243.85 553.42 272.93 579.99 302.06 C 547.41 337.73 514.87 373.44 482.22 409.05 C 456.50 406.79 430.77 404.68 405.05 402.53 C 404.42 429.09 403.56 455.64 403.00 482.19 C 367.20 514.87 331.37 547.51 295.44 580.04 C 259.66 547.53 223.99 514.89 188.09 482.53 C 189.90 457.68 192.30 432.88 194.24 408.04 C 167.60 407.42 140.96 406.61 114.32 405.96 C 81.92 370.30 49.46 334.69 17.09 299.00 C 49.46 263.32 81.89 227.71 114.30 192.08 C 140.15 194.21 166.00 196.43 191.84 198.60 C 192.63 170.83 193.34 143.05 194.14 115.27 Z"/><path fill="#7f7f7f" d=" M 287.42 174.64 C 304.19 172.30 321.63 174.15 337.33 180.62 C 348.01 184.52 357.78 190.49 367.11 196.91 C 374.04 202.19 381.34 207.24 386.66 214.27 C 403.38 235.41 417.95 259.45 422.36 286.43 C 426.09 307.71 421.89 329.94 411.93 348.99 C 405.79 360.93 398.06 372.11 389.03 382.03 C 374.47 394.80 358.15 405.71 340.41 413.54 C 320.69 422.34 298.36 426.24 277.01 421.98 C 255.03 417.68 235.24 405.98 218.16 391.84 C 211.53 385.83 204.21 380.34 199.16 372.83 C 187.46 355.69 177.84 336.66 174.23 316.06 C 171.14 298.76 172.60 280.57 179.05 264.19 C 184.82 248.28 194.39 234.03 205.16 221.09 C 210.62 214.93 215.92 208.53 222.45 203.45 C 241.75 189.49 263.62 178.11 287.42 174.64 Z"/><path fill="#d8d8d8" d=" M 287.43 192.69 C 309.59 190.46 332.47 195.07 351.80 206.20 C 368.20 215.50 382.03 229.25 391.52 245.53 C 410.79 277.95 410.69 320.80 391.15 353.08 C 380.72 370.83 365.06 385.50 346.59 394.62 C 314.92 410.71 275.19 409.52 244.58 391.46 C 223.82 379.62 207.43 360.51 198.56 338.35 C 192.76 323.68 190.24 307.70 191.33 291.95 C 192.75 268.21 202.61 245.11 218.66 227.57 C 236.21 207.95 261.25 195.31 287.43 192.69 Z"/><path fill="#7f7f7f" d=" M 213.60 281.01 C 222.87 280.99 232.14 280.99 241.40 281.02 C 241.40 283.00 241.40 284.99 241.40 286.99 C 234.74 287.02 228.07 286.98 221.41 287.01 C 221.40 289.67 221.40 292.33 221.41 295.00 C 227.60 295.01 233.80 294.99 239.99 295.01 C 239.99 297.00 239.99 298.99 240.00 300.99 C 233.80 301.01 227.60 300.98 221.41 301.01 C 221.39 304.67 221.39 308.34 221.42 312.01 C 228.28 312.00 235.14 311.99 242.00 312.01 C 241.99 314.00 241.99 315.99 241.99 317.99 C 232.53 318.00 223.07 318.01 213.60 317.99 C 213.59 305.66 213.59 293.34 213.60 281.01 Z"/><path fill="#7f7f7f" d=" M 248.61 281.02 C 251.13 281.00 253.66 281.00 256.19 281.00 C 261.22 289.09 266.21 297.22 271.18 305.35 C 271.18 297.23 271.18 289.12 271.18 281.01 C 273.58 281.00 275.99 281.00 278.40 281.01 C 278.41 293.33 278.41 305.66 278.40 317.98 C 275.84 317.98 273.28 318.00 270.72 318.04 C 265.66 310.09 260.74 302.06 255.82 294.03 C 255.82 302.02 255.82 310.00 255.82 317.99 C 253.41 317.99 251.01 317.99 248.61 317.99 C 248.59 305.67 248.59 293.34 248.61 281.02 Z"/><path fill="#7f7f7f" d=" M 284.60 281.01 C 294.61 281.00 304.62 280.98 314.63 281.02 C 314.63 283.00 314.63 284.99 314.63 286.99 C 310.97 286.99 307.30 287.00 303.64 287.00 C 303.61 297.33 303.64 307.66 303.63 317.99 C 300.95 318.00 298.28 317.99 295.60 317.99 C 295.58 307.66 295.61 297.33 295.59 287.01 C 291.93 287.00 288.26 286.99 284.60 286.99 C 284.60 284.99 284.60 283.00 284.60 281.01 Z"/><path fill="#7f7f7f" d=" M 318.37 281.02 C 327.58 280.98 336.79 281.00 345.99 281.01 C 345.99 283.00 345.99 284.99 346.00 286.99 C 339.33 287.01 332.67 286.99 326.00 287.00 C 325.99 289.66 325.99 292.33 326.00 295.00 C 332.28 295.01 338.55 294.98 344.82 295.02 C 344.82 297.00 344.82 298.99 344.82 300.98 C 338.55 301.01 332.28 300.99 326.00 301.00 C 325.99 304.67 325.99 308.33 326.00 312.00 C 332.94 312.01 339.88 311.98 346.82 312.01 C 346.82 314.00 346.82 315.99 346.82 317.99 C 337.34 318.00 327.85 318.01 318.37 317.98 C 318.37 305.66 318.37 293.34 318.37 281.02 Z"/><path fill="#7f7f7f" d=" M 353.18 281.02 C 359.11 281.01 365.03 280.97 370.96 281.01 C 374.24 281.06 377.85 281.23 380.47 283.48 C 384.64 287.44 385.03 294.80 381.05 299.03 C 379.26 300.90 376.72 301.65 374.27 302.18 C 380.26 305.69 382.88 312.55 386.77 317.98 C 383.77 317.98 380.77 317.99 377.77 318.07 C 374.46 313.72 371.98 308.74 368.18 304.77 C 366.23 302.88 363.33 303.09 360.83 302.90 C 360.80 307.93 360.83 312.96 360.82 317.99 C 358.27 318.00 355.72 318.00 353.18 317.99 C 353.18 305.66 353.18 293.34 353.18 281.02 Z"/><path fill="#d8d8d8" d=" M 360.83 287.01 C 364.73 287.15 368.70 286.60 372.55 287.32 C 376.52 288.14 377.01 294.11 373.77 296.14 C 369.60 297.49 365.13 296.89 360.83 296.98 C 360.81 293.66 360.81 290.33 360.83 287.01 Z"/>14 377.01 294.11 373.77 296.14 C 369.60 297.49 365.13 296.89 360.83 296.98 C 360.81 293.66 360.81 290.33 360.83 287.01 Z"/>
</g>
 
<g class="sprite" id="icon">
    <path fill="#FFFFFF" d=" M 194.14 115.27 C 229.80 82.88 265.40 50.41 301.06 18.01 C 336.74 50.41 372.33 82.89 408.00 115.29 C 405.84 141.17 403.62 167.06 401.46 192.95 C 428.34 193.78 455.25 194.25 482.12 195.22 C 488.46 201.39 494.13 208.29 500.23 214.73 C 526.81 243.85 553.42 272.93 579.99 302.06 C 547.41 337.73 514.87 373.44 482.22 409.05 C 456.50 406.79 430.77 404.68 405.05 402.53 C 404.42 429.09 403.56 455.64 403.00 482.19 C 367.20 514.87 331.37 547.51 295.44 580.04 C 259.66 547.53 223.99 514.89 188.09 482.53 C 189.90 457.68 192.30 432.88 194.24 408.04 C 167.60 407.42 140.96 406.61 114.32 405.96 C 81.92 370.30 49.46 334.69 17.09 299.00 C 49.46 263.32 81.89 227.71 114.30 192.08 C 140.15 194.21 166.00 196.43 191.84 198.60 C 192.63 170.83 193.34 143.05 194.14 115.27 Z"/><path fill="#7f7f7f" d=" M 287.42 174.64 C 304.19 172.30 321.63 174.15 337.33 180.62 C 348.01 184.52 357.78 190.49 367.11 196.91 C 374.04 202.19 381.34 207.24 386.66 214.27 C 403.38 235.41 417.95 259.45 422.36 286.43 C 426.09 307.71 421.89 329.94 411.93 348.99 C 405.79 360.93 398.06 372.11 389.03 382.03 C 374.47 394.80 358.15 405.71 340.41 413.54 C 320.69 422.34 298.36 426.24 277.01 421.98 C 255.03 417.68 235.24 405.98 218.16 391.84 C 211.53 385.83 204.21 380.34 199.16 372.83 C 187.46 355.69 177.84 336.66 174.23 316.06 C 171.14 298.76 172.60 280.57 179.05 264.19 C 184.82 248.28 194.39 234.03 205.16 221.09 C 210.62 214.93 215.92 208.53 222.45 203.45 C 241.75 189.49 263.62 178.11 287.42 174.64 Z"/><path fill="#FFFFFF" d=" M 287.43 192.69 C 309.59 190.46 332.47 195.07 351.80 206.20 C 368.20 215.50 382.03 229.25 391.52 245.53 C 410.79 277.95 410.69 320.80 391.15 353.08 C 380.72 370.83 365.06 385.50 346.59 394.62 C 314.92 410.71 275.19 409.52 244.58 391.46 C 223.82 379.62 207.43 360.51 198.56 338.35 C 192.76 323.68 190.24 307.70 191.33 291.95 C 192.75 268.21 202.61 245.11 218.66 227.57 C 236.21 207.95 261.25 195.31 287.43 192.69 Z"/><path fill="#7f7f7f" d=" M 213.60 281.01 C 222.87 280.99 232.14 280.99 241.40 281.02 C 241.40 283.00 241.40 284.99 241.40 286.99 C 234.74 287.02 228.07 286.98 221.41 287.01 C 221.40 289.67 221.40 292.33 221.41 295.00 C 227.60 295.01 233.80 294.99 239.99 295.01 C 239.99 297.00 239.99 298.99 240.00 300.99 C 233.80 301.01 227.60 300.98 221.41 301.01 C 221.39 304.67 221.39 308.34 221.42 312.01 C 228.28 312.00 235.14 311.99 242.00 312.01 C 241.99 314.00 241.99 315.99 241.99 317.99 C 232.53 318.00 223.07 318.01 213.60 317.99 C 213.59 305.66 213.59 293.34 213.60 281.01 Z"/><path fill="#7f7f7f" d=" M 248.61 281.02 C 251.13 281.00 253.66 281.00 256.19 281.00 C 261.22 289.09 266.21 297.22 271.18 305.35 C 271.18 297.23 271.18 289.12 271.18 281.01 C 273.58 281.00 275.99 281.00 278.40 281.01 C 278.41 293.33 278.41 305.66 278.40 317.98 C 275.84 317.98 273.28 318.00 270.72 318.04 C 265.66 310.09 260.74 302.06 255.82 294.03 C 255.82 302.02 255.82 310.00 255.82 317.99 C 253.41 317.99 251.01 317.99 248.61 317.99 C 248.59 305.67 248.59 293.34 248.61 281.02 Z"/><path fill="#7f7f7f" d=" M 284.60 281.01 C 294.61 281.00 304.62 280.98 314.63 281.02 C 314.63 283.00 314.63 284.99 314.63 286.99 C 310.97 286.99 307.30 287.00 303.64 287.00 C 303.61 297.33 303.64 307.66 303.63 317.99 C 300.95 318.00 298.28 317.99 295.60 317.99 C 295.58 307.66 295.61 297.33 295.59 287.01 C 291.93 287.00 288.26 286.99 284.60 286.99 C 284.60 284.99 284.60 283.00 284.60 281.01 Z"/><path fill="#7f7f7f" d=" M 318.37 281.02 C 327.58 280.98 336.79 281.00 345.99 281.01 C 345.99 283.00 345.99 284.99 346.00 286.99 C 339.33 287.01 332.67 286.99 326.00 287.00 C 325.99 289.66 325.99 292.33 326.00 295.00 C 332.28 295.01 338.55 294.98 344.82 295.02 C 344.82 297.00 344.82 298.99 344.82 300.98 C 338.55 301.01 332.28 300.99 326.00 301.00 C 325.99 304.67 325.99 308.33 326.00 312.00 C 332.94 312.01 339.88 311.98 346.82 312.01 C 346.82 314.00 346.82 315.99 346.82 317.99 C 337.34 318.00 327.85 318.01 318.37 317.98 C 318.37 305.66 318.37 293.34 318.37 281.02 Z"/><path fill="#7f7f7f" d=" M 353.18 281.02 C 359.11 281.01 365.03 280.97 370.96 281.01 C 374.24 281.06 377.85 281.23 380.47 283.48 C 384.64 287.44 385.03 294.80 381.05 299.03 C 379.26 300.90 376.72 301.65 374.27 302.18 C 380.26 305.69 382.88 312.55 386.77 317.98 C 383.77 317.98 380.77 317.99 377.77 318.07 C 374.46 313.72 371.98 308.74 368.18 304.77 C 366.23 302.88 363.33 303.09 360.83 302.90 C 360.80 307.93 360.83 312.96 360.82 317.99 C 358.27 318.00 355.72 318.00 353.18 317.99 C 353.18 305.66 353.18 293.34 353.18 281.02 Z"/><path fill="#FFFFFF" d=" M 360.83 287.01 C 364.73 287.15 368.70 286.60 372.55 287.32 C 376.52 288.14 377.01 294.11 373.77 296.14 C 369.60 297.49 365.13 296.89 360.83 296.98 C 360.81 293.66 360.81 290.33 360.83 287.01 Z"/>
</g>
<defs>
    <style><![CDATA[
        .sprite { display: none; }
        .sprite:target { display: inline; }
    ]]></style>
</defs>
</svg>