<?xml version="1.0" encoding="UTF-8" ?><!DOCTYPE svg PUBLIC "-//W3C//DTD SVG 1.1//EN" "http://www.w3.org/Graphics/SVG/1.1/DTD/svg11.dtd">
<svg xmlns="http://www.w3.org/2000/svg" width="109pt" height="92pt" viewBox="0 0 109 92" version="1.1">
<path fill="#acadad" d=" M 10.98 0.00 L 99.45 0.00 C 104.15 1.53 108.13 5.14 109.00 10.19 L 109.00 84.53 L 108.82 83.02 C 108.21 60.70 108.83 38.33 108.53 16.00 C 108.77 10.29 103.81 5.14 98.07 5.32 C 73.43 5.20 48.78 5.31 24.14 5.27 C 20.27 5.30 16.40 5.21 12.54 5.22 C 9.24 5.20 5.72 5.92 3.41 8.46 C 0.84 10.90 0.38 14.61 0.39 17.97 C 0.45 39.76 0.41 61.55 0.41 83.34 L 0.00 81.94 L 0.00 8.45 C 2.12 4.05 5.99 0.62 10.98 0.00 Z"/>
<path fill="#ffffff" d=" M 3.41 8.46 C 5.72 5.92 9.24 5.20 12.54 5.22 C 12.57 11.47 12.41 17.73 12.70 23.98 C 14.58 22.24 16.45 20.48 18.30 18.72 C 20.20 20.46 22.11 22.19 24.04 23.90 C 24.23 17.69 24.13 11.48 24.14 5.27 C 48.78 5.31 73.43 5.20 98.07 5.32 C 103.81 5.14 108.77 10.29 108.53 16.00 C 108.83 38.33 108.21 60.70 108.82 83.02 C 107.33 88.45 102.22 92.34 96.50 92.00 L 42.29 92.00 C 42.15 81.62 42.22 71.24 42.24 60.86 C 45.52 63.02 48.97 65.24 52.97 65.66 C 61.43 66.91 70.40 63.32 75.63 56.56 C 81.80 49.32 83.16 38.41 79.02 29.86 C 74.88 21.70 66.38 15.42 57.04 15.32 C 46.59 14.63 35.69 21.06 32.16 31.08 C 29.62 37.77 30.72 45.02 30.63 51.99 C 30.56 65.33 30.73 78.67 30.54 92.00 L 30.44 92.00 C 23.63 91.48 16.80 92.03 9.99 91.67 C 5.41 91.40 1.52 87.70 0.41 83.34 C 0.41 61.55 0.45 39.76 0.39 17.97 C 0.38 14.61 0.84 10.90 3.41 8.46 Z"/>
<path fill="#d1101a" d=" M 12.54 5.22 C 16.40 5.21 20.27 5.30 24.14 5.27 C 24.13 11.48 24.23 17.69 24.04 23.90 C 22.11 22.19 20.20 20.46 18.30 18.72 C 16.45 20.48 14.58 22.24 12.70 23.98 C 12.41 17.73 12.57 11.47 12.54 5.22 Z"/>
<path fill="#acacac" d=" M 82.42 12.64 C 86.75 12.33 91.16 12.28 95.49 12.68 C 98.48 13.78 98.01 17.50 97.81 20.03 C 97.80 21.96 95.90 23.39 94.06 23.27 C 90.67 23.36 87.29 23.35 83.91 23.27 C 78.55 23.56 78.13 14.27 82.42 12.64 Z"/>
<path fill="#333333" d=" M 32.16 31.08 C 35.69 21.06 46.59 14.63 57.04 15.32 C 66.38 15.42 74.88 21.70 79.02 29.86 C 83.16 38.41 81.80 49.32 75.63 56.56 C 70.40 63.32 61.43 66.91 52.97 65.66 C 48.97 65.24 45.52 63.02 42.24 60.86 C 42.22 71.24 42.15 81.62 42.29 92.00 L 30.54 92.00 C 30.73 78.67 30.56 65.33 30.63 51.99 C 30.72 45.02 29.62 37.77 32.16 31.08 Z"/>
<path fill="#0f1d58" d=" M 49.54 27.59 C 53.12 25.73 57.22 25.98 60.94 27.27 C 58.33 27.55 55.68 27.91 53.24 28.93 C 48.78 30.52 45.16 33.62 41.80 36.86 C 43.35 33.09 45.53 29.16 49.54 27.59 Z"/>
<path fill="#7b5593" d=" M 60.94 27.27 C 68.33 30.44 71.37 39.68 68.49 46.97 C 68.12 46.36 67.39 45.13 67.02 44.51 C 67.18 44.19 67.51 43.56 67.68 43.24 C 68.29 41.16 68.62 39.02 68.92 36.88 C 67.81 36.00 66.70 35.12 65.65 34.17 C 65.44 33.87 65.00 33.29 64.79 33.00 C 62.81 28.00 57.02 29.33 52.83 29.53 L 53.24 28.93 C 55.68 27.91 58.33 27.55 60.94 27.27 Z"/>
<path fill="#521c91" d=" M 41.80 36.86 C 45.16 33.62 48.78 30.52 53.24 28.93 L 52.83 29.53 C 52.12 30.62 51.41 31.70 50.62 32.73 C 48.29 34.94 45.95 37.18 44.20 39.90 C 43.29 40.58 42.36 41.24 41.42 41.88 C 41.61 40.21 41.75 38.54 41.80 36.86 Z"/>
<path fill="#7368c3" d=" M 52.83 29.53 C 57.02 29.33 62.81 28.00 64.79 33.00 C 60.11 32.18 55.33 32.19 50.62 32.73 C 51.41 31.70 52.12 30.62 52.83 29.53 Z"/>
<path fill="#968ae3" d=" M 50.62 32.73 C 55.33 32.19 60.11 32.18 64.79 33.00 C 65.00 33.29 65.44 33.87 65.65 34.17 C 63.71 35.00 61.79 35.87 59.85 36.69 C 57.14 36.51 54.43 36.45 51.73 36.48 L 51.30 35.21 C 51.06 34.39 50.84 33.56 50.62 32.73 Z"/>
<path fill="#8e60d5" d=" M 44.20 39.90 C 45.95 37.18 48.29 34.94 50.62 32.73 C 50.84 33.56 51.06 34.39 51.30 35.21 C 50.15 36.47 48.97 37.71 47.75 38.91 C 48.67 39.78 49.60 40.66 50.57 41.49 C 48.52 41.62 46.47 41.71 44.41 41.78 C 44.36 41.31 44.25 40.37 44.20 39.90 Z"/>
<path fill="#b07fe2" d=" M 59.85 36.69 C 61.79 35.87 63.71 35.00 65.65 34.17 C 66.70 35.12 67.81 36.00 68.92 36.88 C 68.62 39.02 68.29 41.16 67.68 43.24 C 66.92 41.41 66.18 39.57 65.73 37.65 C 64.38 37.56 63.03 37.47 61.69 37.32 C 61.23 37.16 60.31 36.85 59.85 36.69 Z"/>
<path fill="#7842bd" d=" M 47.75 38.91 C 48.97 37.71 50.15 36.47 51.30 35.21 L 51.73 36.48 L 52.19 37.81 C 52.66 39.17 53.14 40.53 53.60 41.90 C 52.84 41.80 51.33 41.60 50.57 41.49 C 49.60 40.66 48.67 39.78 47.75 38.91 Z"/>
<path fill="#7765c2" d=" M 51.73 36.48 C 54.43 36.45 57.14 36.51 59.85 36.69 C 60.31 36.85 61.23 37.16 61.69 37.32 L 62.90 38.74 C 59.76 39.12 56.62 39.40 53.46 39.43 C 53.14 39.02 52.51 38.21 52.19 37.81 L 51.73 36.48 Z"/>
<path fill="#e3aefa" d=" M 61.69 37.32 C 63.03 37.47 64.38 37.56 65.73 37.65 C 66.18 39.57 66.92 41.41 67.68 43.24 C 67.51 43.56 67.18 44.19 67.02 44.51 C 66.79 44.89 66.34 45.63 66.12 46.01 C 65.32 45.48 64.52 44.96 63.72 44.44 C 63.93 42.48 63.80 40.51 62.90 38.74 L 61.69 37.32 Z"/>
<path fill="#0f1d58" d=" M 52.19 37.81 C 52.51 38.21 53.14 39.02 53.46 39.43 C 56.41 41.74 59.75 43.46 63.15 45.01 C 62.31 45.82 61.43 46.59 60.53 47.32 C 58.45 47.48 56.36 47.64 54.29 47.85 C 54.10 45.87 54.09 43.84 53.60 41.90 C 53.14 40.53 52.66 39.17 52.19 37.81 Z"/>
<path fill="#7b5593" d=" M 53.46 39.43 C 56.62 39.40 59.76 39.12 62.90 38.74 C 63.80 40.51 63.93 42.48 63.72 44.44 L 63.15 45.01 C 59.75 43.46 56.41 41.74 53.46 39.43 Z"/>
<path fill="#254bbc" d=" M 41.42 41.88 C 42.36 41.24 43.29 40.58 44.20 39.90 C 44.25 40.37 44.36 41.31 44.41 41.78 C 44.58 42.58 44.93 44.18 45.10 44.98 L 45.32 45.56 C 44.67 45.91 43.36 46.63 42.70 46.99 C 42.38 45.26 41.93 43.56 41.42 41.88 Z"/>
<path fill="#5b89e2" d=" M 44.41 41.78 C 46.47 41.71 48.52 41.62 50.57 41.49 C 50.48 42.19 50.29 43.58 50.20 44.28 C 48.51 44.57 46.80 44.77 45.10 44.98 C 44.93 44.18 44.58 42.58 44.41 41.78 Z"/>
<path fill="#1a4f8e" d=" M 50.57 41.49 C 51.33 41.60 52.84 41.80 53.60 41.90 C 54.09 43.84 54.10 45.87 54.29 47.85 C 52.99 46.59 51.60 45.43 50.20 44.28 C 50.29 43.58 50.48 42.19 50.57 41.49 Z"/>
<path fill="#62b8e8" d=" M 45.10 44.98 C 46.80 44.77 48.51 44.57 50.20 44.28 C 51.60 45.43 52.99 46.59 54.29 47.85 C 55.02 48.65 55.71 49.48 56.42 50.30 L 55.56 50.23 C 51.70 49.95 47.58 49.04 45.32 45.56 L 45.10 44.98 Z"/>
<path fill="#8764c5" d=" M 63.15 45.01 L 63.72 44.44 C 64.52 44.96 65.32 45.48 66.12 46.01 C 65.14 46.90 64.16 47.79 63.16 48.66 C 62.28 48.22 61.40 47.77 60.53 47.32 C 61.43 46.59 62.31 45.82 63.15 45.01 Z"/>
<path fill="#342157" d=" M 66.12 46.01 C 66.34 45.63 66.79 44.89 67.02 44.51 C 67.39 45.13 68.12 46.36 68.49 46.97 C 67.04 49.17 65.39 51.24 63.32 52.88 C 62.99 51.99 62.33 50.22 61.99 49.33 C 62.29 49.16 62.87 48.82 63.16 48.66 C 64.16 47.79 65.14 46.90 66.12 46.01 Z"/>
<path fill="#5590b0" d=" M 42.70 46.99 C 43.36 46.63 44.67 45.91 45.32 45.56 C 47.58 49.04 51.70 49.95 55.56 50.23 C 54.68 51.36 53.81 52.50 52.95 53.64 C 50.95 53.37 48.92 53.13 47.01 52.42 C 45.09 51.04 43.95 48.94 42.70 46.99 Z"/>
<path fill="#5e7bd1" d=" M 54.29 47.85 C 56.36 47.64 58.45 47.48 60.53 47.32 C 61.40 47.77 62.28 48.22 63.16 48.66 C 62.87 48.82 62.29 49.16 61.99 49.33 C 60.20 49.94 58.32 50.30 56.42 50.30 C 55.71 49.48 55.02 48.65 54.29 47.85 Z"/>
<path fill="#082354" d=" M 55.56 50.23 L 56.42 50.30 C 58.32 50.30 60.20 49.94 61.99 49.33 C 62.33 50.22 62.99 51.99 63.32 52.88 C 58.21 55.66 51.93 55.57 47.01 52.42 C 48.92 53.13 50.95 53.37 52.95 53.64 C 53.81 52.50 54.68 51.36 55.56 50.23 Z"/>

</svg>