<?xml version="1.0" encoding="UTF-8" ?><!DOCTYPE svg PUBLIC "-//W3C//DTD SVG 1.1//EN" "http://www.w3.org/Graphics/SVG/1.1/DTD/svg11.dtd">
<svg xmlns="http://www.w3.org/2000/svg" width="120pt" height="120pt" viewBox="0 0 120 120" version="1.1"><path fill="#f5f2e7" d=" M 20.81 0.00 L 99.00 0.00 C 109.61 -0.29 119.54 8.26 120.00 19.01 L 120.00 101.45 C 119.42 110.87 111.55 119.00 102.19 120.00 L 17.56 120.00 C 7.74 118.69 -0.03 109.76 0.00 99.85 L 0.00 19.94 C 0.45 15.29 1.83 10.55 5.07 7.06 C 8.91 2.40 14.93 0.29 20.81 0.00 Z"/><path fill="#3f87f6" d=" M 12.83 28.84 C 13.19 26.86 15.45 27.12 16.96 26.92 C 19.89 26.78 22.90 26.67 25.78 27.31 C 27.21 27.68 27.26 29.39 27.65 30.54 C 31.58 47.87 35.55 65.20 39.53 82.52 C 43.79 65.04 47.88 47.52 52.17 30.05 C 52.69 26.30 57.29 27.08 60.02 26.81 C 62.73 27.06 67.38 26.09 68.01 29.81 C 72.51 47.38 76.72 65.03 81.20 82.60 C 85.36 64.83 89.28 46.99 93.53 29.24 C 93.86 27.11 96.29 27.10 97.96 26.94 C 100.85 26.57 103.72 26.97 106.55 27.53 C 107.03 31.14 105.67 34.57 104.81 38.02 C 100.14 55.68 95.47 73.34 90.82 91.00 C 90.27 92.77 89.86 95.10 87.75 95.62 C 83.01 96.73 77.96 96.62 73.18 95.77 C 71.01 95.23 70.67 92.80 70.12 91.00 C 66.60 76.86 63.01 62.74 59.45 48.62 C 55.97 62.85 52.62 77.12 49.19 91.36 C 48.76 93.19 48.08 95.49 45.91 95.84 C 42.32 96.52 38.64 96.47 35.02 96.26 C 33.18 96.05 30.89 96.11 29.80 94.31 C 28.73 92.07 28.28 89.60 27.63 87.22 C 23.44 71.09 19.21 54.98 15.01 38.85 C 14.16 35.55 13.08 32.26 12.83 28.84 Z"/>
</svg>