<?xml version="1.0" encoding="utf-8"?>
<!-- Generated by IcoMoon.io -->
<!DOCTYPE svg PUBLIC "-//W3C//DTD SVG 1.1//EN" "http://www.w3.org/Graphics/SVG/1.1/DTD/svg11.dtd">
<svg version="1.1" xmlns="http://www.w3.org/2000/svg" xmlns:xlink="http://www.w3.org/1999/xlink" width="24" height="24" viewBox="0 0 24 24">
<g xmlns="http://www.w3.org/2000/svg" class="sprite" id="black"><path fill="#000" d="M1 5l11-5 11 5v14l-11 5-11-5v-14zM11 10.641l-8-3.633v10.703l8 3.641v-10.711zM21 17.711v-10.703l-8 3.633v10.711zM19.375 5.547l-7.375-3.352-7.375 3.352 7.375 3.352z"></path></g><g xmlns="http://www.w3.org/2000/svg" class="sprite" id="white"><path fill="#fff" d="M1 5l11-5 11 5v14l-11 5-11-5v-14zM11 10.641l-8-3.633v10.703l8 3.641v-10.711zM21 17.711v-10.703l-8 3.633v10.711zM19.375 5.547l-7.375-3.352-7.375 3.352 7.375 3.352z"></path></g>

<defs xmlns="http://www.w3.org/2000/svg">
    <style><![CDATA[
        .sprite { display: none; }
        .sprite:target { display: inline; }
    ]]></style>
</defs></svg>
