<?xml version="1.0" encoding="UTF-8" ?>
<!DOCTYPE svg PUBLIC "-//W3C//DTD SVG 1.1//EN" "http://www.w3.org/Graphics/SVG/1.1/DTD/svg11.dtd">
<svg width="287pt" height="286pt" viewBox="0 0 287 286" version="1.1" xmlns="http://www.w3.org/2000/svg">
<g xmlns="http://www.w3.org/2000/svg" class="sprite" id="black">
<g id="#000000ff">
<path fill="#000000" opacity="1.00" d=" M 0.00 0.00 L 94.50 0.00 C 94.50 6.99 94.50 13.98 94.51 20.98 C 70.01 21.03 45.51 20.98 21.00 21.00 C 20.98 28.51 21.03 36.01 20.98 43.51 C 13.99 43.50 6.99 43.50 0.00 43.50 L 0.00 0.00 Z" />
<path fill="#000000" opacity="1.00" d=" M 157.50 0.00 L 241.50 0.00 C 241.50 6.99 241.50 13.98 241.51 20.98 C 213.50 21.01 185.49 21.03 157.48 20.96 C 157.51 13.98 157.49 6.99 157.50 0.00 Z" />
<path fill="#000000" opacity="1.00" d=" M 266.02 38.49 C 273.01 38.50 280.01 38.50 287.00 38.50 L 287.00 122.50 C 280.01 122.51 273.03 122.48 266.04 122.52 C 265.96 94.51 266.00 66.50 266.02 38.49 Z" />
<path fill="#000000" opacity="1.00" d=" M 59.48 62.03 C 66.49 61.98 73.51 61.98 80.52 62.03 C 80.50 69.01 80.48 75.98 80.53 82.95 C 73.51 83.04 66.49 83.02 59.48 82.96 C 59.51 75.99 59.50 69.01 59.48 62.03 Z" />
<path fill="#000000" opacity="1.00" d=" M 101.48 62.03 C 108.51 62.02 115.54 61.89 122.56 62.10 C 122.45 69.05 122.50 76.00 122.53 82.95 C 115.51 83.04 108.49 83.02 101.48 82.96 C 101.51 75.98 101.50 69.01 101.48 62.03 Z" />
<path fill="#000000" opacity="1.00" d=" M 143.48 62.03 C 150.50 61.98 157.51 61.97 164.52 62.04 C 164.49 69.01 164.50 75.99 164.52 82.97 C 157.50 83.01 150.49 83.04 143.47 82.95 C 143.52 75.98 143.50 69.01 143.48 62.03 Z" />
<path fill="#000000" opacity="1.00" d=" M 185.47 62.05 C 192.49 61.98 199.52 61.94 206.54 62.07 C 206.47 69.03 206.48 75.98 206.53 82.94 C 199.52 83.05 192.49 83.02 185.48 82.96 C 185.51 75.99 185.51 69.02 185.47 62.05 Z" />
<path fill="#000000" opacity="1.00" d=" M 227.49 62.03 C 228.57 62.02 229.66 62.01 230.75 62.00 C 230.74 69.01 230.75 76.01 230.75 83.01 C 229.66 82.99 228.57 82.98 227.48 82.96 C 227.51 75.98 227.50 69.01 227.49 62.03 Z" />
<path fill="#000000" opacity="1.00" d=" M 0.00 106.50 C 6.99 106.50 13.98 106.50 20.98 106.49 C 21.01 134.50 21.03 162.51 20.97 190.52 C 13.98 190.49 6.99 190.51 0.00 190.50 L 0.00 106.50 Z" />
<path fill="#000000" opacity="1.00" d=" M 59.48 108.03 C 66.48 107.96 73.49 108.02 80.49 108.00 C 80.54 114.98 80.46 121.96 80.53 128.94 C 73.51 129.04 66.49 129.02 59.48 128.96 C 59.52 121.98 59.50 115.01 59.48 108.03 Z" />
<path fill="#000000" opacity="1.00" d=" M 101.47 108.06 C 108.48 107.95 115.50 107.99 122.52 108.03 C 122.49 115.01 122.49 121.99 122.52 128.97 C 115.51 129.02 108.49 129.02 101.48 128.97 C 101.50 122.00 101.52 115.03 101.47 108.06 Z" />
<path fill="#000000" opacity="1.00" d=" M 143.48 108.04 C 150.49 107.97 157.50 107.98 164.52 108.03 C 164.54 114.96 164.39 121.90 164.60 128.83 C 157.57 129.19 150.51 128.96 143.47 128.94 C 143.52 121.98 143.50 115.01 143.48 108.04 Z" />
<path fill="#000000" opacity="1.00" d=" M 185.48 108.04 C 190.73 107.96 195.99 108.01 201.25 108.01 C 201.26 115.00 201.25 122.00 201.25 128.99 C 195.99 128.99 190.74 129.03 185.48 128.97 C 185.50 121.99 185.51 115.01 185.48 108.04 Z" />
<path fill="#000000" opacity="1.00" d=" M 59.48 156.04 C 66.49 155.97 73.50 155.99 80.51 156.03 C 80.50 163.01 80.49 169.98 80.52 176.96 C 73.51 177.03 66.49 177.02 59.48 176.97 C 59.50 169.99 59.51 163.01 59.48 156.04 Z" />
<path fill="#000000" opacity="1.00" d=" M 101.48 156.04 C 108.50 155.99 115.52 155.94 122.54 156.07 C 122.49 163.01 122.46 169.96 122.55 176.91 C 115.53 177.08 108.50 177.00 101.48 176.95 C 101.51 169.98 101.51 163.01 101.48 156.04 Z" />
<path fill="#000000" opacity="1.00" d=" M 143.47 156.05 C 150.49 155.96 157.50 155.99 164.51 156.03 C 164.51 163.00 164.47 169.97 164.53 176.94 C 157.52 177.05 150.50 177.01 143.48 176.96 C 143.51 169.99 143.51 163.02 143.47 156.05 Z" />
<path fill="#000000" opacity="1.00" d=" M 185.49 156.03 C 190.74 155.97 195.99 156.00 201.25 156.01 C 201.25 163.00 201.25 170.00 201.25 176.99 C 195.99 176.99 190.73 177.03 185.48 176.96 C 185.51 169.99 185.50 163.01 185.49 156.03 Z" />
<path fill="#000000" opacity="1.00" d=" M 266.02 185.49 C 273.01 185.50 280.01 185.50 287.00 185.50 L 287.00 269.50 C 279.99 269.46 272.97 269.59 265.96 269.44 C 266.06 241.45 265.95 213.47 266.02 185.49 Z" />
<path fill="#000000" opacity="1.00" d=" M 58.48 203.03 C 65.50 202.98 72.51 202.97 79.52 203.04 C 79.48 210.02 79.50 216.99 79.52 223.97 C 72.50 224.01 65.49 224.04 58.48 223.96 C 58.52 216.98 58.50 210.01 58.48 203.03 Z" />
<path fill="#000000" opacity="1.00" d=" M 100.48 203.03 C 107.51 203.02 114.54 202.88 121.56 203.11 C 121.44 210.05 121.50 216.99 121.54 223.93 C 114.53 224.08 107.52 223.96 100.51 224.00 C 100.47 217.01 100.53 210.02 100.48 203.03 Z" />
<path fill="#000000" opacity="1.00" d=" M 142.47 203.05 C 149.49 202.96 156.50 202.98 163.52 203.04 C 163.49 210.01 163.49 216.99 163.52 223.96 C 156.51 224.02 149.49 224.03 142.48 223.96 C 142.51 216.99 142.52 210.02 142.47 203.05 Z" />
<path fill="#000000" opacity="1.00" d=" M 184.48 203.04 C 191.49 202.98 198.51 202.97 205.52 203.05 C 205.48 210.02 205.50 216.99 205.52 223.97 C 198.50 224.01 191.48 224.05 184.47 223.95 C 184.52 216.98 184.50 210.01 184.48 203.04 Z" />
<path fill="#000000" opacity="1.00" d=" M 226.47 203.06 C 227.56 203.03 228.65 203.01 229.75 202.99 C 229.75 209.99 229.75 217.00 229.75 224.00 C 228.66 223.99 227.57 223.98 226.49 223.97 C 226.50 217.00 226.52 210.03 226.47 203.06 Z" />
<path fill="#000000" opacity="1.00" d=" M 0.00 253.50 C 6.99 253.49 13.98 253.50 20.98 253.49 C 21.00 257.32 21.01 261.16 21.00 265.00 C 38.17 265.02 55.34 264.97 72.51 265.02 C 72.50 272.01 72.50 279.01 72.50 286.00 L 0.00 286.00 L 0.00 253.50 Z" />
<path fill="#000000" opacity="1.00" d=" M 135.49 265.02 C 163.50 264.98 191.50 264.99 219.51 265.02 C 219.50 272.01 219.50 279.01 219.50 286.00 L 135.50 286.00 C 135.50 279.01 135.50 272.01 135.49 265.02 Z" />
</g>
</g>
<g xmlns="http://www.w3.org/2000/svg" class="sprite" id="white">
<g id="#ffffffff">
<path fill="#ffffff" opacity="1.00" d=" M 0.00 0.00 L 94.50 0.00 C 94.50 6.99 94.50 13.98 94.51 20.98 C 70.01 21.03 45.51 20.98 21.00 21.00 C 20.98 28.51 21.03 36.01 20.98 43.51 C 13.99 43.50 6.99 43.50 0.00 43.50 L 0.00 0.00 Z" />
<path fill="#ffffff" opacity="1.00" d=" M 157.50 0.00 L 241.50 0.00 C 241.50 6.99 241.50 13.98 241.51 20.98 C 213.50 21.01 185.49 21.03 157.48 20.96 C 157.51 13.98 157.49 6.99 157.50 0.00 Z" />
<path fill="#ffffff" opacity="1.00" d=" M 266.02 38.49 C 273.01 38.50 280.01 38.50 287.00 38.50 L 287.00 122.50 C 280.01 122.51 273.03 122.48 266.04 122.52 C 265.96 94.51 266.00 66.50 266.02 38.49 Z" />
<path fill="#ffffff" opacity="1.00" d=" M 59.48 62.03 C 66.49 61.98 73.51 61.98 80.52 62.03 C 80.50 69.01 80.48 75.98 80.53 82.95 C 73.51 83.04 66.49 83.02 59.48 82.96 C 59.51 75.99 59.50 69.01 59.48 62.03 Z" />
<path fill="#ffffff" opacity="1.00" d=" M 101.48 62.03 C 108.51 62.02 115.54 61.89 122.56 62.10 C 122.45 69.05 122.50 76.00 122.53 82.95 C 115.51 83.04 108.49 83.02 101.48 82.96 C 101.51 75.98 101.50 69.01 101.48 62.03 Z" />
<path fill="#ffffff" opacity="1.00" d=" M 143.48 62.03 C 150.50 61.98 157.51 61.97 164.52 62.04 C 164.49 69.01 164.50 75.99 164.52 82.97 C 157.50 83.01 150.49 83.04 143.47 82.95 C 143.52 75.98 143.50 69.01 143.48 62.03 Z" />
<path fill="#ffffff" opacity="1.00" d=" M 185.47 62.05 C 192.49 61.98 199.52 61.94 206.54 62.07 C 206.47 69.03 206.48 75.98 206.53 82.94 C 199.52 83.05 192.49 83.02 185.48 82.96 C 185.51 75.99 185.51 69.02 185.47 62.05 Z" />
<path fill="#ffffff" opacity="1.00" d=" M 227.49 62.03 C 228.57 62.02 229.66 62.01 230.75 62.00 C 230.74 69.01 230.75 76.01 230.75 83.01 C 229.66 82.99 228.57 82.98 227.48 82.96 C 227.51 75.98 227.50 69.01 227.49 62.03 Z" />
<path fill="#ffffff" opacity="1.00" d=" M 0.00 106.50 C 6.99 106.50 13.98 106.50 20.98 106.49 C 21.01 134.50 21.03 162.51 20.97 190.52 C 13.98 190.49 6.99 190.51 0.00 190.50 L 0.00 106.50 Z" />
<path fill="#ffffff" opacity="1.00" d=" M 59.48 108.03 C 66.48 107.96 73.49 108.02 80.49 108.00 C 80.54 114.98 80.46 121.96 80.53 128.94 C 73.51 129.04 66.49 129.02 59.48 128.96 C 59.52 121.98 59.50 115.01 59.48 108.03 Z" />
<path fill="#ffffff" opacity="1.00" d=" M 101.47 108.06 C 108.48 107.95 115.50 107.99 122.52 108.03 C 122.49 115.01 122.49 121.99 122.52 128.97 C 115.51 129.02 108.49 129.02 101.48 128.97 C 101.50 122.00 101.52 115.03 101.47 108.06 Z" />
<path fill="#ffffff" opacity="1.00" d=" M 143.48 108.04 C 150.49 107.97 157.50 107.98 164.52 108.03 C 164.54 114.96 164.39 121.90 164.60 128.83 C 157.57 129.19 150.51 128.96 143.47 128.94 C 143.52 121.98 143.50 115.01 143.48 108.04 Z" />
<path fill="#ffffff" opacity="1.00" d=" M 185.48 108.04 C 190.73 107.96 195.99 108.01 201.25 108.01 C 201.26 115.00 201.25 122.00 201.25 128.99 C 195.99 128.99 190.74 129.03 185.48 128.97 C 185.50 121.99 185.51 115.01 185.48 108.04 Z" />
<path fill="#ffffff" opacity="1.00" d=" M 59.48 156.04 C 66.49 155.97 73.50 155.99 80.51 156.03 C 80.50 163.01 80.49 169.98 80.52 176.96 C 73.51 177.03 66.49 177.02 59.48 176.97 C 59.50 169.99 59.51 163.01 59.48 156.04 Z" />
<path fill="#ffffff" opacity="1.00" d=" M 101.48 156.04 C 108.50 155.99 115.52 155.94 122.54 156.07 C 122.49 163.01 122.46 169.96 122.55 176.91 C 115.53 177.08 108.50 177.00 101.48 176.95 C 101.51 169.98 101.51 163.01 101.48 156.04 Z" />
<path fill="#ffffff" opacity="1.00" d=" M 143.47 156.05 C 150.49 155.96 157.50 155.99 164.51 156.03 C 164.51 163.00 164.47 169.97 164.53 176.94 C 157.52 177.05 150.50 177.01 143.48 176.96 C 143.51 169.99 143.51 163.02 143.47 156.05 Z" />
<path fill="#ffffff" opacity="1.00" d=" M 185.49 156.03 C 190.74 155.97 195.99 156.00 201.25 156.01 C 201.25 163.00 201.25 170.00 201.25 176.99 C 195.99 176.99 190.73 177.03 185.48 176.96 C 185.51 169.99 185.50 163.01 185.49 156.03 Z" />
<path fill="#ffffff" opacity="1.00" d=" M 266.02 185.49 C 273.01 185.50 280.01 185.50 287.00 185.50 L 287.00 269.50 C 279.99 269.46 272.97 269.59 265.96 269.44 C 266.06 241.45 265.95 213.47 266.02 185.49 Z" />
<path fill="#ffffff" opacity="1.00" d=" M 58.48 203.03 C 65.50 202.98 72.51 202.97 79.52 203.04 C 79.48 210.02 79.50 216.99 79.52 223.97 C 72.50 224.01 65.49 224.04 58.48 223.96 C 58.52 216.98 58.50 210.01 58.48 203.03 Z" />
<path fill="#ffffff" opacity="1.00" d=" M 100.48 203.03 C 107.51 203.02 114.54 202.88 121.56 203.11 C 121.44 210.05 121.50 216.99 121.54 223.93 C 114.53 224.08 107.52 223.96 100.51 224.00 C 100.47 217.01 100.53 210.02 100.48 203.03 Z" />
<path fill="#ffffff" opacity="1.00" d=" M 142.47 203.05 C 149.49 202.96 156.50 202.98 163.52 203.04 C 163.49 210.01 163.49 216.99 163.52 223.96 C 156.51 224.02 149.49 224.03 142.48 223.96 C 142.51 216.99 142.52 210.02 142.47 203.05 Z" />
<path fill="#ffffff" opacity="1.00" d=" M 184.48 203.04 C 191.49 202.98 198.51 202.97 205.52 203.05 C 205.48 210.02 205.50 216.99 205.52 223.97 C 198.50 224.01 191.48 224.05 184.47 223.95 C 184.52 216.98 184.50 210.01 184.48 203.04 Z" />
<path fill="#ffffff" opacity="1.00" d=" M 226.47 203.06 C 227.56 203.03 228.65 203.01 229.75 202.99 C 229.75 209.99 229.75 217.00 229.75 224.00 C 228.66 223.99 227.57 223.98 226.49 223.97 C 226.50 217.00 226.52 210.03 226.47 203.06 Z" />
<path fill="#ffffff" opacity="1.00" d=" M 0.00 253.50 C 6.99 253.49 13.98 253.50 20.98 253.49 C 21.00 257.32 21.01 261.16 21.00 265.00 C 38.17 265.02 55.34 264.97 72.51 265.02 C 72.50 272.01 72.50 279.01 72.50 286.00 L 0.00 286.00 L 0.00 253.50 Z" />
<path fill="#ffffff" opacity="1.00" d=" M 135.49 265.02 C 163.50 264.98 191.50 264.99 219.51 265.02 C 219.50 272.01 219.50 279.01 219.50 286.00 L 135.50 286.00 C 135.50 279.01 135.50 272.01 135.49 265.02 Z" />
</g>
</g>
<defs xmlns="http://www.w3.org/2000/svg">
    <style><![CDATA[
        .sprite { display: none; }
        .sprite:target { display: inline; }
    ]]></style>
</defs>
</svg>
