<?xml version="1.0" encoding="UTF-8" ?>
<!DOCTYPE svg PUBLIC "-//W3C//DTD SVG 1.1//EN" "http://www.w3.org/Graphics/SVG/1.1/DTD/svg11.dtd">
<svg width="328pt" height="287pt" viewBox="0 0 328 287" version="1.1" xmlns="http://www.w3.org/2000/svg">
<g xmlns="http://www.w3.org/2000/svg" class="sprite" id="black">
<g id="#000000ff">
<path fill="#000000" opacity="1.00" d=" M 42.50 0.00 L 46.82 0.00 C 47.44 0.89 49.28 1.58 48.71 2.90 C 46.85 8.89 42.94 14.27 42.90 20.77 C 33.68 21.97 27.18 29.88 24.11 38.13 C 21.31 44.71 20.99 51.95 20.97 59.00 C 13.98 59.00 6.99 59.00 0.00 59.00 L 0.00 52.57 C 0.78 47.51 0.88 42.33 2.37 37.39 C 6.01 23.54 14.58 10.20 27.68 3.69 C 32.24 1.24 37.45 0.64 42.50 0.00 Z" />
<path fill="#000000" opacity="1.00" d=" M 66.15 4.13 C 77.94 4.45 90.30 3.63 101.30 8.67 C 113.96 14.27 121.90 27.40 123.93 40.73 C 122.91 42.08 120.86 41.80 119.37 42.29 C 114.02 42.96 108.78 44.40 103.41 44.89 C 102.17 38.58 99.80 31.49 93.73 28.31 C 85.03 24.00 75.10 25.86 65.78 24.98 C 65.56 18.03 66.07 11.08 66.15 4.13 Z" />
<path fill="#000000" opacity="1.00" d=" M 215.11 35.31 C 228.73 35.41 242.36 34.11 255.99 34.99 C 264.03 34.94 271.93 36.40 279.87 37.49 C 279.12 44.44 276.88 51.14 275.93 58.07 C 272.14 58.18 268.53 56.83 264.78 56.51 C 249.87 55.19 234.88 55.69 219.95 56.37 C 218.40 56.46 216.84 56.33 215.34 55.92 C 215.80 49.05 214.23 42.14 215.11 35.31 Z" />
<path fill="#000000" opacity="1.00" d=" M 173.03 37.69 C 179.94 37.88 186.82 36.47 193.72 37.04 C 193.79 43.93 194.79 50.77 194.72 57.67 C 173.48 58.53 152.23 60.10 130.97 59.20 C 131.00 52.31 131.36 45.42 131.54 38.53 C 145.36 38.30 159.21 38.57 173.03 37.69 Z" />
<path fill="#000000" opacity="1.00" d=" M 302.19 44.23 C 309.27 47.00 315.95 51.34 320.41 57.60 C 324.43 63.60 327.36 70.66 327.28 77.99 C 320.27 78.01 313.26 78.00 306.26 77.99 C 305.88 75.31 305.39 72.54 303.76 70.30 C 301.56 66.93 297.73 65.27 294.25 63.55 C 296.61 57.00 299.42 50.61 302.19 44.23 Z" />
<path fill="#000000" opacity="1.00" d=" M 0.00 81.00 C 7.00 81.00 14.00 81.00 21.00 81.00 C 20.97 89.69 21.06 98.39 20.96 107.08 C 20.51 110.04 23.91 108.14 25.01 107.12 C 35.72 104.11 46.96 105.04 57.94 105.13 C 58.01 105.60 58.15 106.54 58.22 107.01 C 58.30 113.33 58.30 119.66 58.20 125.98 C 50.77 126.15 43.34 125.75 35.93 126.16 C 29.00 126.61 22.96 132.04 21.50 138.79 C 14.34 139.26 7.16 138.88 0.00 139.00 L 0.00 81.00 Z" />
<path fill="#000000" opacity="1.00" d=" M 306.93 100.00 C 313.95 100.00 320.98 100.00 328.00 100.00 L 328.00 150.00 C 321.00 149.99 314.01 150.03 307.01 149.99 C 306.91 141.54 307.13 133.09 306.92 124.65 C 305.08 126.31 303.39 128.12 301.78 130.01 C 298.52 128.02 295.03 126.06 291.09 126.07 C 276.47 125.84 261.84 126.16 247.22 125.92 C 247.28 119.62 247.27 113.31 247.20 107.01 C 247.21 106.55 247.24 105.63 247.25 105.18 C 259.15 104.74 271.08 105.15 282.99 104.98 C 289.71 104.84 296.49 105.29 302.99 107.12 C 304.06 108.15 307.55 110.03 306.96 107.04 C 306.81 104.70 306.86 102.35 306.93 100.00 Z" />
<path fill="#000000" opacity="1.00" d=" M 79.25 105.18 C 100.14 104.85 121.05 104.94 141.94 105.13 C 142.01 105.60 142.15 106.54 142.22 107.01 C 142.30 113.33 142.30 119.66 142.19 125.98 C 121.20 125.98 100.21 126.09 79.22 125.92 C 79.29 119.62 79.27 113.31 79.20 107.01 C 79.21 106.55 79.24 105.64 79.25 105.18 Z" />
<path fill="#000000" opacity="1.00" d=" M 163.25 105.18 C 184.14 104.85 205.05 104.94 225.93 105.13 C 226.01 105.60 226.15 106.54 226.22 107.01 C 226.30 113.33 226.30 119.66 226.20 125.98 C 205.20 125.98 184.21 126.09 163.22 125.92 C 163.29 119.62 163.27 113.31 163.20 107.01 C 163.21 106.55 163.24 105.63 163.25 105.18 Z" />
<path fill="#000000" opacity="1.00" d=" M 0.00 161.00 C 7.00 161.01 13.99 160.97 20.99 161.01 C 21.01 171.34 21.01 181.66 20.99 191.99 C 13.99 192.03 7.00 191.99 0.00 192.00 L 0.00 161.00 Z" />
<path fill="#000000" opacity="1.00" d=" M 307.01 171.01 C 314.01 170.97 321.00 171.01 328.00 171.00 L 328.00 203.88 C 321.01 203.85 314.03 203.87 307.05 203.89 C 306.95 192.93 307.01 181.97 307.01 171.01 Z" />
<path fill="#000000" opacity="1.00" d=" M 0.00 213.00 C 7.00 213.01 13.99 212.97 20.99 213.01 C 21.08 225.37 20.88 237.74 21.07 250.10 C 21.08 255.37 24.09 260.04 28.08 263.27 C 24.67 269.24 20.52 274.75 16.84 280.57 C 6.44 274.34 0.67 262.30 0.00 250.45 L 0.00 213.00 Z" />
<path fill="#000000" opacity="1.00" d=" M 307.02 224.91 C 314.02 224.81 321.01 224.88 328.00 224.88 L 328.00 251.44 C 327.10 263.66 320.49 275.57 309.69 281.68 C 305.88 284.19 301.30 284.91 297.30 287.00 L 296.38 287.00 C 295.43 280.02 293.89 273.14 292.95 266.17 C 299.75 264.54 306.07 259.27 306.78 251.98 C 307.31 242.97 306.82 233.93 307.02 224.91 Z" />
<path fill="#000000" opacity="1.00" d=" M 42.71 266.01 C 63.71 266.06 84.71 265.85 105.70 266.12 C 105.58 273.08 105.62 280.04 105.66 287.00 L 42.69 287.00 C 42.60 280.00 42.55 273.01 42.71 266.01 Z" />
<path fill="#000000" opacity="1.00" d=" M 126.71 266.01 C 147.71 266.06 168.71 265.85 189.70 266.12 C 189.58 273.08 189.62 280.04 189.66 287.00 L 126.69 287.00 C 126.60 280.00 126.55 273.01 126.71 266.01 Z" />
<path fill="#000000" opacity="1.00" d=" M 210.71 266.01 C 231.71 266.06 252.71 265.85 273.70 266.12 C 273.58 273.08 273.62 280.04 273.66 287.00 L 210.69 287.00 C 210.60 280.00 210.55 273.01 210.71 266.01 Z" />
</g>
<g id="#ffffffff">
<path fill="#ffffff" opacity="1.00" d=" M 20.96 107.08 C 22.30 106.81 23.65 106.83 25.01 107.12 C 23.91 108.14 20.51 110.04 20.96 107.08 Z" />
<path fill="#ffffff" opacity="1.00" d=" M 302.99 107.12 C 304.31 106.81 305.63 106.78 306.96 107.04 C 307.55 110.03 304.06 108.15 302.99 107.12 Z" />
</g>
</g>
<g xmlns="http://www.w3.org/2000/svg" class="sprite" id="white">
<g id="#ffffffff">
<path fill="#ffffff" opacity="1.00" d=" M 42.50 0.00 L 46.82 0.00 C 47.44 0.89 49.28 1.58 48.71 2.90 C 46.85 8.89 42.94 14.27 42.90 20.77 C 33.68 21.97 27.18 29.88 24.11 38.13 C 21.31 44.71 20.99 51.95 20.97 59.00 C 13.98 59.00 6.99 59.00 0.00 59.00 L 0.00 52.57 C 0.78 47.51 0.88 42.33 2.37 37.39 C 6.01 23.54 14.58 10.20 27.68 3.69 C 32.24 1.24 37.45 0.64 42.50 0.00 Z" />
<path fill="#ffffff" opacity="1.00" d=" M 66.15 4.13 C 77.94 4.45 90.30 3.63 101.30 8.67 C 113.96 14.27 121.90 27.40 123.93 40.73 C 122.91 42.08 120.86 41.80 119.37 42.29 C 114.02 42.96 108.78 44.40 103.41 44.89 C 102.17 38.58 99.80 31.49 93.73 28.31 C 85.03 24.00 75.10 25.86 65.78 24.98 C 65.56 18.03 66.07 11.08 66.15 4.13 Z" />
<path fill="#ffffff" opacity="1.00" d=" M 215.11 35.31 C 228.73 35.41 242.36 34.11 255.99 34.99 C 264.03 34.94 271.93 36.40 279.87 37.49 C 279.12 44.44 276.88 51.14 275.93 58.07 C 272.14 58.18 268.53 56.83 264.78 56.51 C 249.87 55.19 234.88 55.69 219.95 56.37 C 218.40 56.46 216.84 56.33 215.34 55.92 C 215.80 49.05 214.23 42.14 215.11 35.31 Z" />
<path fill="#ffffff" opacity="1.00" d=" M 173.03 37.69 C 179.94 37.88 186.82 36.47 193.72 37.04 C 193.79 43.93 194.79 50.77 194.72 57.67 C 173.48 58.53 152.23 60.10 130.97 59.20 C 131.00 52.31 131.36 45.42 131.54 38.53 C 145.36 38.30 159.21 38.57 173.03 37.69 Z" />
<path fill="#ffffff" opacity="1.00" d=" M 302.19 44.23 C 309.27 47.00 315.95 51.34 320.41 57.60 C 324.43 63.60 327.36 70.66 327.28 77.99 C 320.27 78.01 313.26 78.00 306.26 77.99 C 305.88 75.31 305.39 72.54 303.76 70.30 C 301.56 66.93 297.73 65.27 294.25 63.55 C 296.61 57.00 299.42 50.61 302.19 44.23 Z" />
<path fill="#ffffff" opacity="1.00" d=" M 0.00 81.00 C 7.00 81.00 14.00 81.00 21.00 81.00 C 20.97 89.69 21.06 98.39 20.96 107.08 C 20.51 110.04 23.91 108.14 25.01 107.12 C 35.72 104.11 46.96 105.04 57.94 105.13 C 58.01 105.60 58.15 106.54 58.22 107.01 C 58.30 113.33 58.30 119.66 58.20 125.98 C 50.77 126.15 43.34 125.75 35.93 126.16 C 29.00 126.61 22.96 132.04 21.50 138.79 C 14.34 139.26 7.16 138.88 0.00 139.00 L 0.00 81.00 Z" />
<path fill="#ffffff" opacity="1.00" d=" M 306.93 100.00 C 313.95 100.00 320.98 100.00 328.00 100.00 L 328.00 150.00 C 321.00 149.99 314.01 150.03 307.01 149.99 C 306.91 141.54 307.13 133.09 306.92 124.65 C 305.08 126.31 303.39 128.12 301.78 130.01 C 298.52 128.02 295.03 126.06 291.09 126.07 C 276.47 125.84 261.84 126.16 247.22 125.92 C 247.28 119.62 247.27 113.31 247.20 107.01 C 247.21 106.55 247.24 105.63 247.25 105.18 C 259.15 104.74 271.08 105.15 282.99 104.98 C 289.71 104.84 296.49 105.29 302.99 107.12 C 304.06 108.15 307.55 110.03 306.96 107.04 C 306.81 104.70 306.86 102.35 306.93 100.00 Z" />
<path fill="#ffffff" opacity="1.00" d=" M 79.25 105.18 C 100.14 104.85 121.05 104.94 141.94 105.13 C 142.01 105.60 142.15 106.54 142.22 107.01 C 142.30 113.33 142.30 119.66 142.19 125.98 C 121.20 125.98 100.21 126.09 79.22 125.92 C 79.29 119.62 79.27 113.31 79.20 107.01 C 79.21 106.55 79.24 105.64 79.25 105.18 Z" />
<path fill="#ffffff" opacity="1.00" d=" M 163.25 105.18 C 184.14 104.85 205.05 104.94 225.93 105.13 C 226.01 105.60 226.15 106.54 226.22 107.01 C 226.30 113.33 226.30 119.66 226.20 125.98 C 205.20 125.98 184.21 126.09 163.22 125.92 C 163.29 119.62 163.27 113.31 163.20 107.01 C 163.21 106.55 163.24 105.63 163.25 105.18 Z" />
<path fill="#ffffff" opacity="1.00" d=" M 0.00 161.00 C 7.00 161.01 13.99 160.97 20.99 161.01 C 21.01 171.34 21.01 181.66 20.99 191.99 C 13.99 192.03 7.00 191.99 0.00 192.00 L 0.00 161.00 Z" />
<path fill="#ffffff" opacity="1.00" d=" M 307.01 171.01 C 314.01 170.97 321.00 171.01 328.00 171.00 L 328.00 203.88 C 321.01 203.85 314.03 203.87 307.05 203.89 C 306.95 192.93 307.01 181.97 307.01 171.01 Z" />
<path fill="#ffffff" opacity="1.00" d=" M 0.00 213.00 C 7.00 213.01 13.99 212.97 20.99 213.01 C 21.08 225.37 20.88 237.74 21.07 250.10 C 21.08 255.37 24.09 260.04 28.08 263.27 C 24.67 269.24 20.52 274.75 16.84 280.57 C 6.44 274.34 0.67 262.30 0.00 250.45 L 0.00 213.00 Z" />
<path fill="#ffffff" opacity="1.00" d=" M 307.02 224.91 C 314.02 224.81 321.01 224.88 328.00 224.88 L 328.00 251.44 C 327.10 263.66 320.49 275.57 309.69 281.68 C 305.88 284.19 301.30 284.91 297.30 287.00 L 296.38 287.00 C 295.43 280.02 293.89 273.14 292.95 266.17 C 299.75 264.54 306.07 259.27 306.78 251.98 C 307.31 242.97 306.82 233.93 307.02 224.91 Z" />
<path fill="#ffffff" opacity="1.00" d=" M 42.71 266.01 C 63.71 266.06 84.71 265.85 105.70 266.12 C 105.58 273.08 105.62 280.04 105.66 287.00 L 42.69 287.00 C 42.60 280.00 42.55 273.01 42.71 266.01 Z" />
<path fill="#ffffff" opacity="1.00" d=" M 126.71 266.01 C 147.71 266.06 168.71 265.85 189.70 266.12 C 189.58 273.08 189.62 280.04 189.66 287.00 L 126.69 287.00 C 126.60 280.00 126.55 273.01 126.71 266.01 Z" />
<path fill="#ffffff" opacity="1.00" d=" M 210.71 266.01 C 231.71 266.06 252.71 265.85 273.70 266.12 C 273.58 273.08 273.62 280.04 273.66 287.00 L 210.69 287.00 C 210.60 280.00 210.55 273.01 210.71 266.01 Z" />
</g>
<g id="#ffffffff">
<path fill="#ffffff" opacity="1.00" d=" M 20.96 107.08 C 22.30 106.81 23.65 106.83 25.01 107.12 C 23.91 108.14 20.51 110.04 20.96 107.08 Z" />
<path fill="#ffffff" opacity="1.00" d=" M 302.99 107.12 C 304.31 106.81 305.63 106.78 306.96 107.04 C 307.55 110.03 304.06 108.15 302.99 107.12 Z" />
</g>
</g>
<defs xmlns="http://www.w3.org/2000/svg">
    <style><![CDATA[
        .sprite { display: none; }
        .sprite:target { display: inline; }
    ]]></style>
</defs>
</svg>
