<?xml version="1.0" encoding="utf-8"?>
<!-- Generated by IcoMoon.io -->
<!DOCTYPE svg PUBLIC "-//W3C//DTD SVG 1.1//EN" "http://www.w3.org/Graphics/SVG/1.1/DTD/svg11.dtd">
<svg version="1.1" xmlns="http://www.w3.org/2000/svg" xmlns:xlink="http://www.w3.org/1999/xlink" width="24" height="24" viewBox="0 0 24 24">
<g xmlns="http://www.w3.org/2000/svg" class="sprite" id="black"><path fill="#000" d="M4 1h16q1.242 0 2.121 0.879t0.879 2.121v16q0 1.242-0.879 2.121t-2.121 0.879h-16q-1.242 0-2.121-0.879t-0.879-2.121v-16q0-1.242 0.879-2.121t2.121-0.879zM11 21v-8h-8v7q0 0.414 0.293 0.707t0.707 0.293h7zM11 11v-8h-7q-0.414 0-0.707 0.293t-0.293 0.707v7h8zM21 20v-7h-8v8h7q0.414 0 0.707-0.293t0.293-0.707zM20 3h-7v8h8v-7q0-0.414-0.293-0.707t-0.707-0.293z"></path>



</g><g xmlns="http://www.w3.org/2000/svg" class="sprite" id="white"><path fill="#fff" d="M4 1h16q1.242 0 2.121 0.879t0.879 2.121v16q0 1.242-0.879 2.121t-2.121 0.879h-16q-1.242 0-2.121-0.879t-0.879-2.121v-16q0-1.242 0.879-2.121t2.121-0.879zM11 21v-8h-8v7q0 0.414 0.293 0.707t0.707 0.293h7zM11 11v-8h-7q-0.414 0-0.707 0.293t-0.293 0.707v7h8zM21 20v-7h-8v8h7q0.414 0 0.707-0.293t0.293-0.707zM20 3h-7v8h8v-7q0-0.414-0.293-0.707t-0.707-0.293z"></path>


</g>
<defs xmlns="http://www.w3.org/2000/svg">
    <style><![CDATA[
        .sprite { display: none; }
        .sprite:target { display: inline; }
    ]]></style>
</defs></svg>

