<?xml version="1.0" encoding="UTF-8" ?>
<!DOCTYPE svg PUBLIC "-//W3C//DTD SVG 1.1//EN" "http://www.w3.org/Graphics/SVG/1.1/DTD/svg11.dtd">
<svg width="287pt" height="287pt" viewBox="0 0 287 287" version="1.1" xmlns="http://www.w3.org/2000/svg">
<g xmlns="http://www.w3.org/2000/svg" class="sprite" id="black">
<g id="#000000ff">
<path fill="#000000" opacity="1.00" d=" M 0.00 0.00 L 73.50 0.00 C 73.51 6.99 73.50 13.98 73.51 20.98 C 56.01 21.04 38.51 20.98 21.00 21.00 C 20.98 36.17 21.04 51.34 20.98 66.51 C 13.98 66.50 6.99 66.50 0.00 66.50 L 0.00 0.00 Z" />
<path fill="#000000" opacity="1.00" d=" M 94.50 0.00 L 157.50 0.00 C 157.53 6.97 157.44 13.94 157.56 20.91 C 136.54 21.11 115.51 20.97 94.49 20.98 C 94.50 13.98 94.50 6.99 94.50 0.00 Z" />
<path fill="#000000" opacity="1.00" d=" M 178.50 0.00 L 241.50 0.00 C 241.51 6.99 241.49 13.98 241.51 20.97 C 220.50 21.02 199.50 21.01 178.49 20.98 C 178.50 13.98 178.50 6.99 178.50 0.00 Z" />
<path fill="#000000" opacity="1.00" d=" M 262.50 0.00 L 287.00 0.00 L 287.00 59.50 C 280.01 59.51 273.02 59.49 266.03 59.52 C 265.96 46.69 266.02 33.86 266.00 21.04 C 264.83 21.00 263.65 20.97 262.49 20.95 C 262.51 13.96 262.49 6.98 262.50 0.00 Z" />
<path fill="#000000" opacity="1.00" d=" M 133.04 45.26 C 160.55 58.01 188.13 70.64 215.62 83.45 C 220.85 85.68 223.31 91.62 223.12 97.02 C 222.94 110.00 217.27 122.09 211.28 133.33 C 204.35 145.54 196.37 157.43 185.78 166.79 C 182.74 169.21 179.14 172.11 174.98 171.26 C 177.97 153.73 179.15 135.47 174.71 118.08 C 163.15 119.12 152.85 125.88 145.34 134.44 C 138.93 141.74 134.33 151.04 134.25 160.90 C 133.96 181.63 124.39 201.46 110.26 216.33 C 94.73 232.76 72.91 244.08 50.01 244.16 C 49.99 230.17 50.01 216.19 50.00 202.20 C 60.15 202.01 69.62 196.98 76.97 190.24 C 83.73 183.95 89.28 175.98 91.44 166.91 C 92.73 161.71 92.21 156.30 92.95 151.03 C 97.59 118.36 122.68 90.29 153.65 79.82 C 145.43 69.20 137.25 58.19 133.04 45.26 Z" />
<path fill="#000000" opacity="1.00" d=" M 266.02 80.49 C 273.02 80.50 280.01 80.50 287.00 80.50 L 287.00 143.50 C 280.01 143.50 273.01 143.50 266.02 143.51 C 265.99 122.50 265.98 101.50 266.02 80.49 Z" />
<path fill="#000000" opacity="1.00" d=" M 0.00 87.50 C 6.99 87.49 13.98 87.50 20.98 87.49 C 20.96 108.52 21.14 129.55 20.89 150.58 C 13.92 150.42 6.96 150.54 0.00 150.50 L 0.00 87.50 Z" />
<path fill="#000000" opacity="1.00" d=" M 266.15 164.39 C 273.10 164.62 280.05 164.45 287.00 164.50 L 287.00 227.50 C 280.01 227.51 273.03 227.48 266.04 227.52 C 266.05 206.48 265.83 185.43 266.15 164.39 Z" />
<path fill="#000000" opacity="1.00" d=" M 0.00 171.50 C 6.99 171.49 13.98 171.50 20.98 171.49 C 21.01 192.50 21.03 213.51 20.97 234.52 C 13.98 234.49 6.99 234.51 0.00 234.50 L 0.00 171.50 Z" />
<path fill="#000000" opacity="1.00" d=" M 266.02 248.49 C 273.02 248.50 280.01 248.50 287.00 248.50 L 287.00 287.00 L 241.50 287.00 C 241.49 280.01 241.52 273.03 241.48 266.04 C 249.65 265.94 257.82 266.03 266.00 266.00 C 266.02 260.16 265.97 254.32 266.02 248.49 Z" />
<path fill="#000000" opacity="1.00" d=" M 0.00 255.50 C 6.98 255.48 13.96 255.53 20.94 255.47 C 21.01 258.98 21.02 262.48 21.00 266.00 C 31.50 266.02 42.01 265.96 52.51 266.02 C 52.50 273.02 52.50 280.01 52.50 287.00 L 0.00 287.00 L 0.00 255.50 Z" />
<path fill="#000000" opacity="1.00" d=" M 73.49 266.03 C 94.53 266.07 115.57 265.81 136.60 266.15 C 136.39 273.10 136.55 280.05 136.50 287.00 L 73.50 287.00 C 73.49 280.01 73.51 273.02 73.49 266.03 Z" />
<path fill="#000000" opacity="1.00" d=" M 157.49 266.02 C 178.50 265.98 199.50 265.98 220.51 266.02 C 220.50 273.01 220.50 280.01 220.50 287.00 L 157.50 287.00 C 157.49 280.01 157.50 273.02 157.49 266.02 Z" />
</g>
</g>
<g xmlns="http://www.w3.org/2000/svg" class="sprite" id="white">
<g id="#ffffffff">
<path fill="#ffffff" opacity="1.00" d=" M 0.00 0.00 L 73.50 0.00 C 73.51 6.99 73.50 13.98 73.51 20.98 C 56.01 21.04 38.51 20.98 21.00 21.00 C 20.98 36.17 21.04 51.34 20.98 66.51 C 13.98 66.50 6.99 66.50 0.00 66.50 L 0.00 0.00 Z" />
<path fill="#ffffff" opacity="1.00" d=" M 94.50 0.00 L 157.50 0.00 C 157.53 6.97 157.44 13.94 157.56 20.91 C 136.54 21.11 115.51 20.97 94.49 20.98 C 94.50 13.98 94.50 6.99 94.50 0.00 Z" />
<path fill="#ffffff" opacity="1.00" d=" M 178.50 0.00 L 241.50 0.00 C 241.51 6.99 241.49 13.98 241.51 20.97 C 220.50 21.02 199.50 21.01 178.49 20.98 C 178.50 13.98 178.50 6.99 178.50 0.00 Z" />
<path fill="#ffffff" opacity="1.00" d=" M 262.50 0.00 L 287.00 0.00 L 287.00 59.50 C 280.01 59.51 273.02 59.49 266.03 59.52 C 265.96 46.69 266.02 33.86 266.00 21.04 C 264.83 21.00 263.65 20.97 262.49 20.95 C 262.51 13.96 262.49 6.98 262.50 0.00 Z" />
<path fill="#ffffff" opacity="1.00" d=" M 133.04 45.26 C 160.55 58.01 188.13 70.64 215.62 83.45 C 220.85 85.68 223.31 91.62 223.12 97.02 C 222.94 110.00 217.27 122.09 211.28 133.33 C 204.35 145.54 196.37 157.43 185.78 166.79 C 182.74 169.21 179.14 172.11 174.98 171.26 C 177.97 153.73 179.15 135.47 174.71 118.08 C 163.15 119.12 152.85 125.88 145.34 134.44 C 138.93 141.74 134.33 151.04 134.25 160.90 C 133.96 181.63 124.39 201.46 110.26 216.33 C 94.73 232.76 72.91 244.08 50.01 244.16 C 49.99 230.17 50.01 216.19 50.00 202.20 C 60.15 202.01 69.62 196.98 76.97 190.24 C 83.73 183.95 89.28 175.98 91.44 166.91 C 92.73 161.71 92.21 156.30 92.95 151.03 C 97.59 118.36 122.68 90.29 153.65 79.82 C 145.43 69.20 137.25 58.19 133.04 45.26 Z" />
<path fill="#ffffff" opacity="1.00" d=" M 266.02 80.49 C 273.02 80.50 280.01 80.50 287.00 80.50 L 287.00 143.50 C 280.01 143.50 273.01 143.50 266.02 143.51 C 265.99 122.50 265.98 101.50 266.02 80.49 Z" />
<path fill="#ffffff" opacity="1.00" d=" M 0.00 87.50 C 6.99 87.49 13.98 87.50 20.98 87.49 C 20.96 108.52 21.14 129.55 20.89 150.58 C 13.92 150.42 6.96 150.54 0.00 150.50 L 0.00 87.50 Z" />
<path fill="#ffffff" opacity="1.00" d=" M 266.15 164.39 C 273.10 164.62 280.05 164.45 287.00 164.50 L 287.00 227.50 C 280.01 227.51 273.03 227.48 266.04 227.52 C 266.05 206.48 265.83 185.43 266.15 164.39 Z" />
<path fill="#ffffff" opacity="1.00" d=" M 0.00 171.50 C 6.99 171.49 13.98 171.50 20.98 171.49 C 21.01 192.50 21.03 213.51 20.97 234.52 C 13.98 234.49 6.99 234.51 0.00 234.50 L 0.00 171.50 Z" />
<path fill="#ffffff" opacity="1.00" d=" M 266.02 248.49 C 273.02 248.50 280.01 248.50 287.00 248.50 L 287.00 287.00 L 241.50 287.00 C 241.49 280.01 241.52 273.03 241.48 266.04 C 249.65 265.94 257.82 266.03 266.00 266.00 C 266.02 260.16 265.97 254.32 266.02 248.49 Z" />
<path fill="#ffffff" opacity="1.00" d=" M 0.00 255.50 C 6.98 255.48 13.96 255.53 20.94 255.47 C 21.01 258.98 21.02 262.48 21.00 266.00 C 31.50 266.02 42.01 265.96 52.51 266.02 C 52.50 273.02 52.50 280.01 52.50 287.00 L 0.00 287.00 L 0.00 255.50 Z" />
<path fill="#ffffff" opacity="1.00" d=" M 73.49 266.03 C 94.53 266.07 115.57 265.81 136.60 266.15 C 136.39 273.10 136.55 280.05 136.50 287.00 L 73.50 287.00 C 73.49 280.01 73.51 273.02 73.49 266.03 Z" />
<path fill="#ffffff" opacity="1.00" d=" M 157.49 266.02 C 178.50 265.98 199.50 265.98 220.51 266.02 C 220.50 273.01 220.50 280.01 220.50 287.00 L 157.50 287.00 C 157.49 280.01 157.50 273.02 157.49 266.02 Z" />
</g>
</g>
<defs xmlns="http://www.w3.org/2000/svg">
    <style><![CDATA[
        .sprite { display: none; }
        .sprite:target { display: inline; }
    ]]></style>
</defs>
</svg>
