<?xml version="1.0" encoding="UTF-8" ?>
<!DOCTYPE svg PUBLIC "-//W3C//DTD SVG 1.1//EN" "http://www.w3.org/Graphics/SVG/1.1/DTD/svg11.dtd">
<svg width="313pt" height="246pt" viewBox="0 0 313 246" version="1.1" xmlns="http://www.w3.org/2000/svg">
<g id="#000000ff">
<path fill="#000000" opacity="1.00" d=" M 33.00 0.00 L 78.00 0.00 C 78.00 3.33 78.00 6.67 78.00 10.00 C 66.33 10.00 54.67 10.00 43.00 10.00 C 42.99 20.33 43.01 30.67 43.00 41.00 C 39.67 41.00 36.33 41.00 33.00 41.00 C 33.00 27.33 33.00 13.67 33.00 0.00 Z" />
<path fill="#000000" opacity="1.00" d=" M 108.00 0.00 L 148.00 0.00 C 148.00 3.33 148.00 6.67 148.00 10.00 C 134.67 10.00 121.33 10.00 108.00 10.00 C 108.00 6.67 108.00 3.33 108.00 0.00 Z" />
<path fill="#000000" opacity="1.00" d=" M 178.00 0.00 L 218.00 0.00 C 218.00 3.33 218.00 6.67 218.00 10.00 C 204.67 10.00 191.33 10.00 178.00 10.00 C 178.00 6.67 178.00 3.33 178.00 0.00 Z" />
<path fill="#000000" opacity="1.00" d=" M 248.00 0.00 L 280.00 0.00 C 280.00 6.00 280.00 12.00 280.00 18.00 C 276.66 18.00 273.33 18.00 270.00 18.00 C 270.00 15.33 270.00 12.67 270.00 10.00 C 262.66 9.99 255.33 10.01 248.00 10.00 C 248.00 6.67 248.00 3.33 248.00 0.00 Z" />
<path fill="#000000" opacity="1.00" d=" M 270.00 48.00 C 273.33 48.00 276.66 48.00 280.00 48.00 C 280.00 61.33 280.00 74.67 280.00 88.00 C 276.66 88.00 273.33 88.00 270.00 88.00 C 270.00 74.67 270.00 61.33 270.00 48.00 Z" />
<path fill="#000000" opacity="1.00" d=" M 33.00 71.00 C 36.33 71.00 39.67 71.00 43.00 71.00 C 43.00 84.33 43.00 97.67 43.00 111.00 C 39.67 111.00 36.33 111.00 33.00 111.00 C 33.00 97.67 33.00 84.33 33.00 71.00 Z" />
<path fill="#000000" opacity="1.00" d=" M 162.15 107.52 C 163.53 106.35 165.48 108.69 163.88 109.71 C 162.48 110.85 160.53 108.56 162.15 107.52 Z" />
<path fill="#000000" opacity="1.00" d=" M 222.97 107.47 C 224.32 106.44 226.40 108.66 224.75 109.68 C 223.37 110.77 221.32 108.50 222.97 107.47 Z" />
<path fill="#000000" opacity="1.00" d=" M 97.13 108.52 C 98.75 107.98 99.31 108.52 98.79 110.15 C 97.16 110.69 96.61 110.15 97.13 108.52 Z" />
<path fill="#000000" opacity="1.00" d=" M 101.13 107.89 C 102.76 107.40 103.31 107.96 102.78 109.58 C 101.14 110.07 100.59 109.50 101.13 107.89 Z" />
<path fill="#000000" opacity="1.00" d=" M 105.19 107.89 C 106.84 107.40 107.38 107.96 106.82 109.57 C 105.18 110.06 104.64 109.50 105.19 107.89 Z" />
<path fill="#000000" opacity="1.00" d=" M 109.14 108.40 C 110.57 107.32 112.44 109.71 110.80 110.68 C 109.37 111.76 107.51 109.38 109.14 108.40 Z" />
<path fill="#000000" opacity="1.00" d=" M 139.52 108.16 C 140.53 106.65 143.02 108.43 141.82 109.84 C 140.79 111.34 138.35 109.58 139.52 108.16 Z" />
<path fill="#000000" opacity="1.00" d=" M 158.20 108.18 C 159.83 107.66 160.38 108.22 159.86 109.85 C 158.23 110.36 157.68 109.80 158.20 108.18 Z" />
<path fill="#000000" opacity="1.00" d=" M 166.22 108.21 C 167.86 107.75 168.40 108.32 167.84 109.92 C 166.19 110.38 165.65 109.81 166.22 108.21 Z" />
<path fill="#000000" opacity="1.00" d=" M 200.45 108.17 C 202.07 107.66 202.62 108.22 202.09 109.85 C 200.47 110.35 199.92 109.79 200.45 108.17 Z" />
<path fill="#000000" opacity="1.00" d=" M 218.93 108.18 C 220.54 107.66 221.09 108.21 220.58 109.84 C 218.96 110.37 218.41 109.81 218.93 108.18 Z" />
<path fill="#000000" opacity="1.00" d=" M 226.90 108.29 C 228.50 107.69 229.07 108.21 228.62 109.86 C 227.02 110.47 226.44 109.94 226.90 108.29 Z" />
<path fill="#000000" opacity="1.00" d=" M 154.17 109.30 C 155.59 108.20 157.48 110.57 155.85 111.57 C 154.44 112.65 152.56 110.29 154.17 109.30 Z" />
<path fill="#000000" opacity="1.00" d=" M 170.16 109.31 C 171.56 108.19 173.48 110.52 171.87 111.54 C 170.47 112.66 168.55 110.31 170.16 109.31 Z" />
<path fill="#000000" opacity="1.00" d=" M 214.99 109.38 C 216.35 108.25 218.41 110.51 216.72 111.53 C 215.33 112.69 213.31 110.41 214.99 109.38 Z" />
<path fill="#000000" opacity="1.00" d=" M 230.95 109.40 C 232.27 108.23 234.42 110.41 232.76 111.49 C 231.41 112.69 229.31 110.49 230.95 109.40 Z" />
<path fill="#000000" opacity="1.00" d=" M 93.35 109.90 C 94.99 109.39 95.52 109.95 94.95 111.57 C 93.31 112.07 92.78 111.51 93.35 109.90 Z" />
<path fill="#000000" opacity="1.00" d=" M 112.45 110.24 C 113.47 108.58 115.73 110.60 114.63 111.98 C 113.59 113.62 111.29 111.62 112.45 110.24 Z" />
<path fill="#000000" opacity="1.00" d=" M 151.20 111.20 C 152.80 110.66 153.50 113.34 151.87 113.68 C 150.31 114.16 149.58 111.55 151.20 111.20 Z" />
<path fill="#000000" opacity="1.00" d=" M 174.06 111.43 C 175.46 110.43 177.41 112.74 175.75 113.71 C 174.32 114.78 172.38 112.40 174.06 111.43 Z" />
<path fill="#000000" opacity="1.00" d=" M 199.83 112.59 C 200.48 112.02 201.14 111.46 201.82 110.92 C 201.89 112.91 201.92 114.91 201.91 116.90 C 201.49 116.82 200.64 116.65 200.22 116.57 C 200.69 115.43 201.13 114.27 201.60 113.13 L 199.83 112.59 Z" />
<path fill="#000000" opacity="1.00" d=" M 211.22 111.34 C 212.59 110.24 214.63 112.50 213.01 113.55 C 211.65 114.61 209.59 112.38 211.22 111.34 Z" />
<path fill="#000000" opacity="1.00" d=" M 235.18 111.33 C 236.71 110.88 237.42 113.43 235.85 113.81 C 234.22 114.39 233.52 111.65 235.18 111.33 Z" />
<path fill="#000000" opacity="1.00" d=" M 89.87 111.68 C 91.28 111.20 91.75 111.67 91.29 113.09 C 89.89 113.56 89.41 113.09 89.87 111.68 Z" />
<path fill="#000000" opacity="1.00" d=" M 139.09 112.46 L 140.72 111.02 C 140.97 113.05 141.17 115.09 141.53 117.11 C 141.11 117.00 140.27 116.77 139.84 116.65 C 139.99 115.15 140.10 113.64 140.19 112.14 L 139.09 112.46 Z" />
<path fill="#000000" opacity="1.00" d=" M 86.23 113.42 C 87.62 112.29 89.60 114.59 87.95 115.62 C 86.56 116.72 84.57 114.43 86.23 113.42 Z" />
<path fill="#000000" opacity="1.00" d=" M 115.89 112.89 C 117.52 112.41 118.07 112.98 117.55 114.60 C 115.91 115.07 115.36 114.50 115.89 112.89 Z" />
<path fill="#000000" opacity="1.00" d=" M 147.38 114.05 C 148.33 112.36 150.70 114.28 149.68 115.72 C 148.74 117.41 146.40 115.46 147.38 114.05 Z" />
<path fill="#000000" opacity="1.00" d=" M 177.18 114.45 C 178.55 113.27 180.56 115.55 178.94 116.61 C 177.57 117.75 175.56 115.50 177.18 114.45 Z" />
<path fill="#000000" opacity="1.00" d=" M 208.38 113.97 C 210.02 113.45 210.55 114.01 209.98 115.63 C 208.34 116.14 207.80 115.59 208.38 113.97 Z" />
<path fill="#000000" opacity="1.00" d=" M 238.03 114.40 C 239.42 113.34 241.41 115.63 239.76 116.63 C 238.35 117.73 236.39 115.41 238.03 114.40 Z" />
<path fill="#000000" opacity="1.00" d=" M 118.25 116.18 C 119.87 115.67 120.42 116.23 119.90 117.86 C 118.27 118.36 117.72 117.80 118.25 116.18 Z" />
<path fill="#000000" opacity="1.00" d=" M 145.14 117.12 C 146.77 116.61 147.32 117.17 146.80 118.79 C 145.17 119.30 144.62 118.74 145.14 117.12 Z" />
<path fill="#000000" opacity="1.00" d=" M 205.85 117.11 C 207.47 116.61 208.02 117.18 207.50 118.80 C 205.87 119.30 205.32 118.73 205.85 117.11 Z" />
<path fill="#000000" opacity="1.00" d=" M 139.56 118.23 C 140.64 116.56 142.82 118.71 141.64 120.04 C 140.54 121.67 138.35 119.56 139.56 118.23 Z" />
<path fill="#000000" opacity="1.00" d=" M 180.14 117.97 C 181.78 117.47 182.33 118.03 181.80 119.64 C 180.16 120.14 179.61 119.58 180.14 117.97 Z" />
<path fill="#000000" opacity="1.00" d=" M 200.41 118.40 C 202.03 117.88 202.60 118.43 202.12 120.06 C 200.51 120.58 199.94 120.02 200.41 118.40 Z" />
<path fill="#000000" opacity="1.00" d=" M 240.84 117.96 C 242.46 117.47 243.02 118.04 242.51 119.66 C 240.87 120.14 240.32 119.57 240.84 117.96 Z" />
<path fill="#000000" opacity="1.00" d=" M 270.00 118.00 C 273.33 118.00 276.66 118.00 280.00 118.00 C 280.00 131.33 280.00 144.67 280.00 158.00 C 276.66 158.00 273.33 158.00 270.00 158.00 C 270.00 144.67 270.00 131.33 270.00 118.00 Z" />
<path fill="#000000" opacity="1.00" d=" M 119.90 119.88 C 121.53 119.42 122.08 119.99 121.54 121.60 C 119.90 122.06 119.35 121.48 119.90 119.88 Z" />
<path fill="#000000" opacity="1.00" d=" M 143.05 120.28 C 146.42 120.51 141.41 123.24 143.05 120.28 Z" />
<path fill="#000000" opacity="1.00" d=" M 203.25 120.20 C 204.84 119.62 205.40 120.16 204.95 121.83 C 203.36 122.40 202.79 121.86 203.25 120.20 Z" />
<path fill="#000000" opacity="1.00" d=" M 181.93 121.34 C 183.56 120.80 184.11 121.35 183.57 122.98 C 181.93 123.51 181.39 122.96 181.93 121.34 Z" />
<path fill="#000000" opacity="1.00" d=" M 242.25 121.23 C 243.20 119.56 245.52 121.50 244.56 122.91 C 243.60 124.60 241.23 122.66 242.25 121.23 Z" />
<path fill="#000000" opacity="1.00" d=" M 139.77 122.17 C 141.40 121.67 141.94 122.23 141.40 123.86 C 139.77 124.35 139.23 123.78 139.77 122.17 Z" />
<path fill="#000000" opacity="1.00" d=" M 200.43 122.18 C 202.04 121.64 202.60 122.19 202.11 123.83 C 200.50 124.37 199.94 123.82 200.43 122.18 Z" />
<path fill="#000000" opacity="1.00" d=" M 120.38 123.96 C 121.43 122.30 123.68 124.35 122.53 125.73 C 121.50 127.40 119.26 125.32 120.38 123.96 Z" />
<path fill="#000000" opacity="1.00" d=" M 183.29 124.97 C 184.93 124.47 185.47 125.02 184.90 126.64 C 183.25 127.14 182.72 126.58 183.29 124.97 Z" />
<path fill="#000000" opacity="1.00" d=" M 244.00 124.96 C 245.62 124.47 246.18 125.04 245.66 126.66 C 244.03 127.14 243.48 126.57 244.00 124.96 Z" />
<path fill="#000000" opacity="1.00" d=" M 139.51 126.16 C 140.53 124.60 142.93 126.45 141.78 127.86 C 140.76 129.41 138.37 127.57 139.51 126.16 Z" />
<path fill="#000000" opacity="1.00" d=" M 200.45 126.16 C 202.08 125.67 202.62 126.23 202.08 127.86 C 200.45 128.35 199.91 127.78 200.45 126.16 Z" />
<path fill="#000000" opacity="1.00" d=" M 120.51 128.00 C 121.41 126.56 123.67 128.19 122.64 129.51 C 121.73 130.89 119.52 129.32 120.51 128.00 Z" />
<path fill="#000000" opacity="1.00" d=" M 184.18 128.40 C 185.58 127.26 187.48 129.62 185.87 130.63 C 184.46 131.76 182.55 129.41 184.18 128.40 Z" />
<path fill="#000000" opacity="1.00" d=" M 244.99 128.40 C 246.36 127.34 248.40 129.59 246.73 130.60 C 245.33 131.72 243.32 129.41 244.99 128.40 Z" />
<path fill="#000000" opacity="1.00" d=" M 97.21 130.36 C 98.77 129.88 99.47 132.52 97.85 132.85 C 96.23 133.36 95.58 130.70 97.21 130.36 Z" />
<path fill="#000000" opacity="1.00" d=" M 101.20 130.00 C 102.79 129.41 103.57 132.07 101.94 132.47 C 100.36 133.04 99.59 130.39 101.20 130.00 Z" />
<path fill="#000000" opacity="1.00" d=" M 105.13 130.51 C 106.76 129.99 107.31 130.53 106.79 132.16 C 105.15 132.68 104.60 132.14 105.13 130.51 Z" />
<path fill="#000000" opacity="1.00" d=" M 139.49 130.18 C 140.48 128.54 142.86 130.42 141.77 131.85 C 140.79 133.46 138.41 131.59 139.49 130.18 Z" />
<path fill="#000000" opacity="1.00" d=" M 200.44 130.17 C 202.06 129.65 202.61 130.20 202.10 131.84 C 200.48 132.36 199.93 131.80 200.44 130.17 Z" />
<path fill="#000000" opacity="1.00" d=" M 108.95 130.98 C 110.56 130.47 111.13 131.03 110.65 132.66 C 109.03 133.16 108.46 132.60 108.95 130.98 Z" />
<path fill="#000000" opacity="1.00" d=" M 92.40 131.98 C 93.41 130.31 95.71 132.33 94.62 133.72 C 93.63 135.40 91.37 133.35 92.40 131.98 Z" />
<path fill="#000000" opacity="1.00" d=" M 113.14 132.24 C 114.73 131.62 115.31 132.14 114.89 133.80 C 113.30 134.41 112.71 133.89 113.14 132.24 Z" />
<path fill="#000000" opacity="1.00" d=" M 120.38 132.08 C 121.36 130.44 123.71 132.35 122.65 133.77 C 121.68 135.43 119.34 133.49 120.38 132.08 Z" />
<path fill="#000000" opacity="1.00" d=" M 185.16 132.19 C 186.76 131.71 187.38 134.35 185.77 134.68 C 184.18 135.18 183.51 132.49 185.16 132.19 Z" />
<path fill="#000000" opacity="1.00" d=" M 245.21 132.34 C 246.61 131.22 248.56 133.57 246.92 134.57 C 245.53 135.64 243.57 133.35 245.21 132.34 Z" />
<path fill="#000000" opacity="1.00" d=" M 88.93 133.44 C 90.28 132.37 92.39 134.60 90.72 135.62 C 89.35 136.73 87.29 134.48 88.93 133.44 Z" />
<path fill="#000000" opacity="1.00" d=" M 117.16 133.39 C 118.60 132.34 120.44 134.76 118.78 135.69 C 117.33 136.75 115.50 134.34 117.16 133.39 Z" />
<path fill="#000000" opacity="1.00" d=" M 139.54 134.07 C 140.62 132.50 142.86 134.52 141.73 135.89 C 140.67 137.45 138.42 135.42 139.54 134.07 Z" />
<path fill="#000000" opacity="1.00" d=" M 200.43 134.13 C 202.05 133.59 202.60 134.13 202.10 135.77 C 200.48 136.31 199.92 135.76 200.43 134.13 Z" />
<path fill="#000000" opacity="1.00" d=" M 85.33 136.11 C 86.38 134.55 88.67 136.53 87.52 137.89 C 86.44 139.47 84.18 137.48 85.33 136.11 Z" />
<path fill="#000000" opacity="1.00" d=" M 120.38 136.16 C 121.39 134.55 123.73 136.46 122.65 137.87 C 121.63 139.46 119.29 137.56 120.38 136.16 Z" />
<path fill="#000000" opacity="1.00" d=" M 184.23 136.35 C 185.62 135.24 187.62 137.55 185.98 138.57 C 184.61 139.62 182.59 137.37 184.23 136.35 Z" />
<path fill="#000000" opacity="1.00" d=" M 245.09 136.34 C 246.49 135.19 248.45 137.50 246.79 138.52 C 245.39 139.68 243.45 137.35 245.09 136.34 Z" />
<path fill="#000000" opacity="1.00" d=" M 139.49 138.15 C 140.47 136.49 142.83 138.38 141.77 139.82 C 140.82 141.46 138.45 139.56 139.49 138.15 Z" />
<path fill="#000000" opacity="1.00" d=" M 200.44 138.13 C 202.06 137.59 202.61 138.13 202.10 139.77 C 200.48 140.31 199.93 139.76 200.44 138.13 Z" />
<path fill="#000000" opacity="1.00" d=" M 83.11 140.21 C 84.72 139.65 85.29 140.19 84.80 141.83 C 83.19 142.39 82.62 141.85 83.11 140.21 Z" />
<path fill="#000000" opacity="1.00" d=" M 120.36 140.17 C 121.33 138.55 123.71 140.40 122.67 141.84 C 121.69 143.46 119.31 141.60 120.36 140.17 Z" />
<path fill="#000000" opacity="1.00" d=" M 183.39 140.17 C 184.36 138.55 186.75 140.41 185.68 141.84 C 184.70 143.45 182.32 141.60 183.39 140.17 Z" />
<path fill="#000000" opacity="1.00" d=" M 244.35 140.18 C 245.95 139.64 246.51 140.19 246.02 141.84 C 244.41 142.37 243.86 141.82 244.35 140.18 Z" />
<path fill="#000000" opacity="1.00" d=" M 33.00 141.00 C 36.33 141.00 39.67 141.00 43.00 141.00 C 43.00 154.33 43.00 167.67 43.00 181.00 C 39.67 181.00 36.33 181.00 33.00 181.00 C 33.00 167.67 33.00 154.33 33.00 141.00 Z" />
<path fill="#000000" opacity="1.00" d=" M 139.24 142.90 C 139.23 141.07 142.24 141.23 142.11 143.03 C 142.08 144.83 139.09 144.73 139.24 142.90 Z" />
<path fill="#000000" opacity="1.00" d=" M 200.43 142.13 C 202.04 141.58 202.60 142.12 202.10 143.77 C 200.49 144.31 199.93 143.77 200.43 142.13 Z" />
<path fill="#000000" opacity="1.00" d=" M 82.22 144.20 C 83.83 143.64 84.39 144.19 83.92 145.83 C 82.31 146.38 81.75 145.84 82.22 144.20 Z" />
<path fill="#000000" opacity="1.00" d=" M 120.43 144.12 C 121.49 142.54 123.76 144.50 122.63 145.88 C 121.58 147.46 119.27 145.49 120.43 144.12 Z" />
<path fill="#000000" opacity="1.00" d=" M 182.37 143.97 C 184.00 143.45 184.54 144.00 183.97 145.62 C 182.34 146.14 181.80 145.59 182.37 143.97 Z" />
<path fill="#000000" opacity="1.00" d=" M 243.07 143.98 C 244.70 143.47 245.26 144.03 244.75 145.65 C 243.12 146.15 242.56 145.59 243.07 143.98 Z" />
<path fill="#000000" opacity="1.00" d=" M 139.52 146.08 C 140.59 144.53 142.89 146.49 141.74 147.87 C 140.68 149.41 138.38 147.44 139.52 146.08 Z" />
<path fill="#000000" opacity="1.00" d=" M 200.44 146.12 C 202.06 145.59 202.61 146.14 202.09 147.77 C 200.47 148.30 199.92 147.75 200.44 146.12 Z" />
<path fill="#000000" opacity="1.00" d=" M 180.40 147.25 C 181.41 145.60 183.64 147.64 182.60 149.01 C 181.58 150.67 179.27 148.64 180.40 147.25 Z" />
<path fill="#000000" opacity="1.00" d=" M 241.26 147.40 C 242.86 146.86 243.44 147.41 242.97 149.04 C 241.36 149.59 240.79 149.04 241.26 147.40 Z" />
<path fill="#000000" opacity="1.00" d=" M 83.15 148.18 C 84.79 147.70 85.33 148.26 84.76 149.88 C 83.12 150.36 82.58 149.79 83.15 148.18 Z" />
<path fill="#000000" opacity="1.00" d=" M 120.33 148.17 C 121.95 147.67 122.49 148.24 121.96 149.87 C 120.34 150.36 119.80 149.79 120.33 148.17 Z" />
<path fill="#000000" opacity="1.00" d=" M 142.75 148.32 C 144.37 147.78 144.93 148.32 144.43 149.95 C 142.80 150.50 142.24 149.96 142.75 148.32 Z" />
<path fill="#000000" opacity="1.00" d=" M 203.32 148.34 C 204.91 147.77 205.49 148.32 205.06 149.96 C 203.46 150.52 202.88 149.98 203.32 148.34 Z" />
<path fill="#000000" opacity="1.00" d=" M 139.49 150.15 C 140.46 148.63 143.00 150.36 141.85 151.80 C 140.86 153.31 138.40 151.60 139.49 150.15 Z" />
<path fill="#000000" opacity="1.00" d=" M 178.37 150.41 C 179.64 149.34 181.35 151.51 179.96 152.47 C 178.68 153.51 176.97 151.36 178.37 150.41 Z" />
<path fill="#000000" opacity="1.00" d=" M 200.41 150.15 C 202.02 149.57 202.58 150.10 202.12 151.75 C 200.51 152.32 199.94 151.79 200.41 150.15 Z" />
<path fill="#000000" opacity="1.00" d=" M 239.11 150.32 C 240.50 149.19 242.46 151.46 240.81 152.49 C 239.42 153.68 237.44 151.33 239.11 150.32 Z" />
<path fill="#000000" opacity="1.00" d=" M 68.24 151.39 C 69.63 150.28 71.62 152.57 69.99 153.60 C 68.61 154.67 66.59 152.40 68.24 151.39 Z" />
<path fill="#000000" opacity="1.00" d=" M 117.18 150.90 C 118.82 150.39 119.37 150.94 118.83 152.56 C 117.20 153.07 116.65 152.52 117.18 150.90 Z" />
<path fill="#000000" opacity="1.00" d=" M 145.13 151.26 C 146.75 150.70 147.31 151.24 146.82 152.87 C 145.20 153.43 144.63 152.89 145.13 151.26 Z" />
<path fill="#000000" opacity="1.00" d=" M 205.85 151.26 C 207.47 150.73 208.02 151.27 207.51 152.90 C 205.88 153.44 205.33 152.89 205.85 151.26 Z" />
<path fill="#000000" opacity="1.00" d=" M 84.46 152.02 C 85.49 150.37 87.76 152.41 86.71 153.81 C 85.70 155.44 83.47 153.38 84.46 152.02 Z" />
<path fill="#000000" opacity="1.00" d=" M 121.19 152.18 C 122.82 151.68 123.37 152.24 122.83 153.86 C 121.20 154.36 120.65 153.80 121.19 152.18 Z" />
<path fill="#000000" opacity="1.00" d=" M 114.01 153.46 C 115.37 152.44 117.41 154.66 115.78 155.69 C 114.39 156.79 112.36 154.49 114.01 153.46 Z" />
<path fill="#000000" opacity="1.00" d=" M 140.23 153.29 C 141.83 152.66 142.61 155.41 140.94 155.75 C 139.40 156.22 138.66 153.71 140.23 153.29 Z" />
<path fill="#000000" opacity="1.00" d=" M 148.00 153.47 C 149.36 152.42 151.41 154.65 149.79 155.68 C 148.41 156.79 146.38 154.52 148.00 153.47 Z" />
<path fill="#000000" opacity="1.00" d=" M 175.89 153.35 C 177.31 152.90 177.79 153.38 177.32 154.77 C 175.89 155.20 175.41 154.73 175.89 153.35 Z" />
<path fill="#000000" opacity="1.00" d=" M 200.28 153.45 C 201.65 152.29 203.70 154.58 202.03 155.61 C 200.66 156.70 198.60 154.47 200.28 153.45 Z" />
<path fill="#000000" opacity="1.00" d=" M 209.18 153.34 C 210.72 152.89 211.42 155.48 209.82 155.83 C 208.20 156.36 207.53 153.65 209.18 153.34 Z" />
<path fill="#000000" opacity="1.00" d=" M 236.47 153.20 C 238.11 152.76 238.64 153.34 238.07 154.95 C 236.43 155.39 235.89 154.80 236.47 153.20 Z" />
<path fill="#000000" opacity="1.00" d=" M 68.36 155.03 C 69.99 154.51 70.53 155.06 69.98 156.69 C 68.34 157.20 67.80 156.65 68.36 155.03 Z" />
<path fill="#000000" opacity="1.00" d=" M 87.43 154.97 C 89.08 154.47 89.61 155.03 89.02 156.65 C 87.38 157.14 86.85 156.59 87.43 154.97 Z" />
<path fill="#000000" opacity="1.00" d=" M 111.21 155.36 C 112.80 154.88 113.45 157.58 111.80 157.86 C 110.19 158.31 109.60 155.67 111.21 155.36 Z" />
<path fill="#000000" opacity="1.00" d=" M 122.24 155.47 C 123.60 154.29 125.67 156.55 124.02 157.61 C 122.67 158.72 120.58 156.52 122.24 155.47 Z" />
<path fill="#000000" opacity="1.00" d=" M 172.69 155.38 C 174.32 154.87 174.87 155.42 174.33 157.05 C 172.70 157.55 172.15 157.00 172.69 155.38 Z" />
<path fill="#000000" opacity="1.00" d=" M 233.36 155.37 C 234.99 154.90 235.54 155.47 235.02 157.09 C 233.38 157.55 232.83 156.98 233.36 155.37 Z" />
<path fill="#000000" opacity="1.00" d=" M 150.92 155.88 C 152.54 155.38 153.09 155.95 152.58 157.57 C 150.95 158.06 150.40 157.49 150.92 155.88 Z" />
<path fill="#000000" opacity="1.00" d=" M 211.72 158.14 C 211.46 157.24 211.32 154.43 213.09 156.09 C 214.40 156.73 215.76 157.26 217.15 157.73 C 216.50 158.30 215.85 158.85 215.18 159.39 L 215.00 157.45 C 214.18 157.62 212.54 157.97 211.72 158.14 Z" />
<path fill="#000000" opacity="1.00" d=" M 90.90 157.28 C 92.52 156.74 93.08 157.28 92.56 158.91 C 90.93 159.45 90.38 158.91 90.90 157.28 Z" />
<path fill="#000000" opacity="1.00" d=" M 107.11 157.36 C 108.74 156.80 109.30 157.33 108.81 158.96 C 107.18 159.52 106.61 158.99 107.11 157.36 Z" />
<path fill="#000000" opacity="1.00" d=" M 139.54 157.22 C 140.58 155.59 142.87 157.58 141.70 158.95 C 140.65 160.57 138.34 158.60 139.54 157.22 Z" />
<path fill="#000000" opacity="1.00" d=" M 154.21 157.17 C 155.84 156.67 156.39 157.23 155.85 158.85 C 154.22 159.35 153.67 158.79 154.21 157.17 Z" />
<path fill="#000000" opacity="1.00" d=" M 169.24 157.19 C 170.85 156.63 171.41 157.18 170.93 158.83 C 169.32 159.38 168.76 158.83 169.24 157.19 Z" />
<path fill="#000000" opacity="1.00" d=" M 200.44 157.29 C 202.08 156.82 202.63 157.40 202.09 159.01 C 200.46 159.47 199.91 158.90 200.44 157.29 Z" />
<path fill="#000000" opacity="1.00" d=" M 230.01 157.18 C 231.61 156.64 232.16 157.19 231.67 158.83 C 230.06 159.38 229.51 158.83 230.01 157.18 Z" />
<path fill="#000000" opacity="1.00" d=" M 68.36 158.19 C 69.99 157.71 70.53 158.29 69.99 159.92 C 68.36 160.38 67.82 159.81 68.36 158.19 Z" />
<path fill="#000000" opacity="1.00" d=" M 94.34 158.25 C 95.36 156.59 97.59 158.67 96.56 160.03 C 95.53 161.68 93.26 159.63 94.34 158.25 Z" />
<path fill="#000000" opacity="1.00" d=" M 98.74 158.90 C 100.14 158.42 100.62 158.89 100.18 160.31 C 98.77 160.78 98.29 160.31 98.74 158.90 Z" />
<path fill="#000000" opacity="1.00" d=" M 103.14 158.34 C 104.78 157.82 105.33 158.37 104.79 159.98 C 103.14 160.50 102.59 159.95 103.14 158.34 Z" />
<path fill="#000000" opacity="1.00" d=" M 124.97 158.21 C 126.58 157.65 127.13 158.20 126.64 159.84 C 125.03 160.39 124.47 159.85 124.97 158.21 Z" />
<path fill="#000000" opacity="1.00" d=" M 157.37 158.20 C 158.40 156.58 160.65 158.61 159.58 159.98 C 158.54 161.60 156.25 159.58 157.37 158.20 Z" />
<path fill="#000000" opacity="1.00" d=" M 161.20 158.56 C 162.53 157.32 164.63 159.54 163.00 160.63 C 161.66 161.82 159.54 159.64 161.20 158.56 Z" />
<path fill="#000000" opacity="1.00" d=" M 165.32 158.32 C 166.92 157.79 167.49 158.34 167.03 159.98 C 165.43 160.51 164.85 159.96 165.32 158.32 Z" />
<path fill="#000000" opacity="1.00" d=" M 218.25 158.32 C 219.87 157.79 220.44 158.34 219.97 159.96 C 218.35 160.49 217.78 159.94 218.25 158.32 Z" />
<path fill="#000000" opacity="1.00" d=" M 222.10 158.47 C 223.49 157.40 225.43 159.72 223.82 160.72 C 222.41 161.81 220.47 159.48 222.10 158.47 Z" />
<path fill="#000000" opacity="1.00" d=" M 226.11 158.33 C 227.75 157.81 228.30 158.36 227.75 159.97 C 226.09 160.48 225.55 159.94 226.11 158.33 Z" />
<path fill="#000000" opacity="1.00" d=" M 139.51 161.21 C 140.51 159.58 142.86 161.48 141.75 162.90 C 140.75 164.51 138.38 162.62 139.51 161.21 Z" />
<path fill="#000000" opacity="1.00" d=" M 200.45 161.22 C 202.08 160.74 202.62 161.31 202.08 162.93 C 200.45 163.40 199.91 162.83 200.45 161.22 Z" />
<path fill="#000000" opacity="1.00" d=" M 139.50 165.21 C 140.45 163.68 143.02 165.37 141.86 166.82 C 140.88 168.32 138.39 166.67 139.50 165.21 Z" />
<path fill="#000000" opacity="1.00" d=" M 200.43 165.19 C 202.04 164.64 202.60 165.19 202.11 166.84 C 200.50 167.37 199.94 166.82 200.43 165.19 Z" />
<path fill="#000000" opacity="1.00" d=" M 140.22 168.23 C 141.96 167.66 142.77 170.60 140.94 170.95 C 139.24 171.45 138.46 168.60 140.22 168.23 Z" />
<path fill="#000000" opacity="1.00" d=" M 201.31 168.30 C 203.02 168.25 202.86 171.04 201.19 170.88 C 199.52 170.89 199.67 168.16 201.31 168.30 Z" />
<path fill="#000000" opacity="1.00" d=" M 139.55 172.17 C 140.60 170.56 142.88 172.54 141.72 173.92 C 140.67 175.51 138.36 173.54 139.55 172.17 Z" />
<path fill="#000000" opacity="1.00" d=" M 200.41 172.26 C 202.01 171.70 202.58 172.24 202.13 173.89 C 200.53 174.44 199.95 173.90 200.41 172.26 Z" />
<path fill="#000000" opacity="1.00" d=" M 139.58 175.93 C 140.54 174.54 142.72 176.27 141.63 177.54 C 140.65 178.87 138.53 177.19 139.58 175.93 Z" />
<path fill="#000000" opacity="1.00" d=" M 200.44 175.91 C 202.06 175.35 202.61 175.89 202.10 177.52 C 200.48 178.08 199.92 177.54 200.44 175.91 Z" />
<path fill="#000000" opacity="1.00" d=" M 139.53 179.26 C 140.55 177.56 142.80 179.63 141.66 181.00 C 140.61 182.67 138.35 180.64 139.53 179.26 Z" />
<path fill="#000000" opacity="1.00" d=" M 200.42 179.39 C 202.04 178.88 202.60 179.44 202.12 181.07 C 200.50 181.58 199.93 181.02 200.42 179.39 Z" />
<path fill="#000000" opacity="1.00" d=" M 270.00 188.00 C 273.33 188.00 276.66 188.00 280.00 188.00 C 280.00 201.33 280.00 214.67 280.00 228.00 C 276.66 228.00 273.33 228.00 270.00 228.00 C 270.00 214.67 270.00 201.33 270.00 188.00 Z" />
<path fill="#000000" opacity="1.00" d=" M 33.00 211.00 C 36.33 211.00 39.67 211.00 43.00 211.00 C 43.00 219.33 43.00 227.66 43.00 235.99 C 44.67 236.00 46.33 236.00 48.00 236.01 C 48.00 239.34 48.00 242.67 48.00 246.00 L 33.00 246.00 C 33.00 234.33 33.00 222.67 33.00 211.00 Z" />
<path fill="#000000" opacity="1.00" d=" M 78.00 236.00 C 91.33 236.00 104.67 236.00 118.00 236.00 C 118.00 239.33 118.00 242.67 118.00 246.00 L 78.00 246.00 C 78.00 242.67 78.00 239.33 78.00 236.00 Z" />
<path fill="#000000" opacity="1.00" d=" M 148.00 236.00 C 161.33 236.00 174.67 236.00 188.00 236.00 C 188.00 239.33 188.00 242.67 188.00 246.00 L 148.00 246.00 C 148.00 242.67 148.00 239.33 148.00 236.00 Z" />
<path fill="#000000" opacity="1.00" d=" M 218.00 236.00 C 231.33 236.00 244.67 236.00 258.00 236.00 C 258.00 239.33 258.00 242.67 258.00 246.00 L 218.00 246.00 C 218.00 242.67 218.00 239.33 218.00 236.00 Z" />
</g>
</svg>
