<?xml version="1.0" encoding="UTF-8" ?>
<!DOCTYPE svg PUBLIC "-//W3C//DTD SVG 1.1//EN" "http://www.w3.org/Graphics/SVG/1.1/DTD/svg11.dtd">
<svg width="358pt" height="358pt" viewBox="0 0 358 358" version="1.1" xmlns="http://www.w3.org/2000/svg">
<g id="#ffffffff">
<path fill="#ffffff" opacity="1.00" d=" M 177.51 0.00 L 180.54 0.00 C 182.03 0.05 183.51 0.11 185.00 0.18 C 185.00 1.17 185.00 3.16 185.00 4.15 C 181.00 4.01 177.00 4.01 173.01 4.15 C 173.00 3.16 172.99 1.17 172.99 0.18 C 174.49 0.11 176.00 0.05 177.51 0.00 Z" />
<path fill="#ffffff" opacity="1.00" d=" M 156.80 1.42 C 160.83 0.89 164.88 0.60 168.93 0.32 C 168.99 1.32 169.10 3.32 169.15 4.32 C 165.20 4.60 161.24 4.87 157.32 5.42 C 157.15 4.09 156.97 2.75 156.80 1.42 Z" />
<path fill="#ffffff" opacity="1.00" d=" M 189.11 0.36 C 193.15 0.57 197.18 0.89 201.18 1.44 C 201.01 2.77 200.84 4.10 200.67 5.43 C 196.75 4.86 192.80 4.59 188.86 4.32 C 188.92 3.33 189.05 1.35 189.11 0.36 Z" />
<path fill="#ffffff" opacity="1.00" d=" M 140.88 4.09 C 144.85 3.34 148.81 2.55 152.81 1.92 C 153.00 3.25 153.19 4.57 153.39 5.89 C 149.50 6.56 145.60 7.17 141.74 8.01 C 141.45 6.71 141.17 5.40 140.88 4.09 Z" />
<path fill="#ffffff" opacity="1.00" d=" M 205.20 1.92 C 209.18 2.54 213.14 3.32 217.09 4.08 C 216.85 5.39 216.61 6.69 216.38 7.99 C 212.47 7.23 208.54 6.54 204.61 5.90 C 204.81 4.57 205.00 3.25 205.20 1.92 Z" />
<path fill="#ffffff" opacity="1.00" d=" M 125.25 8.21 C 129.13 7.16 132.99 6.00 136.91 5.05 C 137.23 6.34 137.56 7.63 137.90 8.91 C 134.05 9.86 130.25 11.00 126.42 12.02 C 126.03 10.75 125.63 9.48 125.25 8.21 Z" />
<path fill="#ffffff" opacity="1.00" d=" M 221.08 5.05 C 225.02 5.98 228.91 7.13 232.81 8.23 C 232.42 9.50 232.03 10.76 231.65 12.02 C 227.82 10.98 224.01 9.88 220.18 8.90 C 220.40 7.94 220.85 6.01 221.08 5.05 Z" />
<path fill="#ffffff" opacity="1.00" d=" M 110.06 13.82 C 113.82 12.34 117.56 10.78 121.41 9.54 C 121.83 10.82 122.25 12.09 122.68 13.37 C 118.93 14.55 115.28 16.03 111.64 17.49 C 111.11 16.27 110.58 15.04 110.06 13.82 Z" />
<path fill="#ffffff" opacity="1.00" d=" M 236.63 9.56 C 240.48 10.78 244.22 12.33 247.98 13.80 C 247.47 15.03 246.95 16.27 246.45 17.51 C 242.77 16.04 239.11 14.51 235.32 13.34 C 235.75 12.08 236.19 10.82 236.63 9.56 Z" />
<path fill="#ffffff" opacity="1.00" d=" M 251.68 15.45 C 255.41 17.06 259.05 18.86 262.63 20.77 C 261.99 21.93 261.36 23.09 260.73 24.24 C 257.22 22.44 253.67 20.72 250.07 19.11 C 250.60 17.89 251.14 16.67 251.68 15.45 Z" />
<path fill="#ffffff" opacity="1.00" d=" M 95.43 20.74 C 99.04 18.89 102.66 17.06 106.39 15.44 C 106.92 16.68 107.44 17.93 107.95 19.19 C 104.30 20.68 100.82 22.53 97.30 24.28 C 96.67 23.10 96.05 21.92 95.43 20.74 Z" />
<path fill="#ffffff" opacity="1.00" d=" M 81.56 29.00 C 85.03 26.94 88.46 24.81 91.94 22.75 C 92.58 23.92 93.23 25.08 93.88 26.25 C 90.50 28.27 87.13 30.34 83.75 32.37 C 83.02 31.24 82.29 30.12 81.56 29.00 Z" />
<path fill="#ffffff" opacity="1.00" d=" M 266.12 22.76 C 269.58 24.85 273.05 26.92 276.50 29.00 C 275.76 30.12 275.02 31.25 274.28 32.37 C 270.93 30.29 267.56 28.24 264.19 26.20 C 264.83 25.06 265.47 23.91 266.12 22.76 Z" />
<path fill="#ffffff" opacity="1.00" d=" M 68.44 38.47 C 71.69 36.08 74.90 33.62 78.12 31.19 C 78.87 32.30 79.62 33.40 80.38 34.51 C 77.20 36.87 74.03 39.26 70.86 41.63 C 70.05 40.58 69.25 39.52 68.44 38.47 Z" />
<path fill="#ffffff" opacity="1.00" d=" M 277.63 34.51 C 278.40 33.40 279.17 32.29 279.94 31.18 C 283.17 33.60 286.41 36.02 289.63 38.45 C 288.79 39.51 287.96 40.57 287.13 41.62 C 283.96 39.25 280.80 36.87 277.63 34.51 Z" />
<path fill="#ffffff" opacity="1.00" d=" M 56.16 49.11 C 59.20 46.38 62.17 43.58 65.27 40.93 C 66.09 41.95 66.90 42.97 67.72 43.99 C 64.79 46.61 61.88 49.25 58.98 51.91 C 58.04 50.97 57.10 50.04 56.16 49.11 Z" />
<path fill="#ffffff" opacity="1.00" d=" M 290.35 43.95 C 291.18 42.94 292.01 41.93 292.85 40.91 C 295.84 43.63 298.86 46.33 301.86 49.05 C 300.95 50.01 300.04 50.98 299.14 51.95 C 296.21 49.28 293.26 46.64 290.35 43.95 Z" />
<path fill="#ffffff" opacity="1.00" d=" M 45.02 60.55 C 47.81 57.72 50.34 54.65 53.09 51.78 C 54.03 52.74 54.98 53.70 55.93 54.65 C 53.26 57.53 50.64 60.45 47.98 63.33 C 46.99 62.41 46.00 61.48 45.02 60.55 Z" />
<path fill="#ffffff" opacity="1.00" d=" M 302.01 54.53 C 302.98 53.58 303.93 52.64 304.90 51.70 C 307.67 54.65 310.35 57.68 313.06 60.69 C 312.06 61.56 311.06 62.43 310.06 63.30 C 307.37 60.38 304.71 57.44 302.01 54.53 Z" />
<path fill="#ffffff" opacity="1.00" d=" M 34.82 73.32 C 37.27 70.10 39.62 66.80 42.18 63.67 C 43.21 64.51 44.24 65.35 45.27 66.18 C 42.76 69.24 40.45 72.46 38.07 75.62 C 36.98 74.85 35.90 74.08 34.82 73.32 Z" />
<path fill="#ffffff" opacity="1.00" d=" M 312.79 66.21 C 313.81 65.37 314.83 64.52 315.85 63.68 C 318.43 66.75 320.74 70.04 323.17 73.23 C 322.11 74.03 321.06 74.82 320.02 75.63 C 317.60 72.49 315.33 69.24 312.79 66.21 Z" />
<path fill="#ffffff" opacity="1.00" d=" M 25.88 86.69 C 28.01 83.26 29.97 79.71 32.42 76.48 C 33.50 77.25 34.57 78.03 35.65 78.80 C 33.29 81.99 31.35 85.45 29.25 88.81 C 28.13 88.10 27.01 87.40 25.88 86.69 Z" />
<path fill="#ffffff" opacity="1.00" d=" M 322.40 78.81 C 323.46 78.03 324.53 77.25 325.60 76.48 C 328.10 79.67 330.02 83.26 332.18 86.68 C 331.03 87.36 329.88 88.05 328.73 88.73 C 326.67 85.39 324.75 81.96 322.40 78.81 Z" />
<path fill="#ffffff" opacity="1.00" d=" M 18.01 100.85 C 19.82 97.23 21.52 93.54 23.80 90.19 C 24.95 90.85 26.09 91.52 27.24 92.18 C 25.04 95.53 23.38 99.18 21.45 102.68 C 20.31 102.06 19.16 101.45 18.01 100.85 Z" />
<path fill="#ffffff" opacity="1.00" d=" M 330.82 92.19 C 331.96 91.52 333.10 90.85 334.25 90.19 C 336.51 93.54 338.24 97.19 340.02 100.80 C 338.83 101.38 337.64 101.97 336.46 102.56 C 334.74 99.02 332.95 95.50 330.82 92.19 Z" />
<path fill="#ffffff" opacity="1.00" d=" M 102.65 99.99 C 103.94 100.00 105.23 100.01 106.52 100.03 C 106.49 104.02 106.50 108.00 106.51 111.98 C 105.17 111.99 103.84 112.00 102.50 112.01 C 102.44 108.00 102.56 103.99 102.65 99.99 Z" />
<path fill="#ffffff" opacity="1.00" d=" M 114.68 102.46 C 115.59 101.50 116.50 100.54 117.41 99.58 C 120.37 102.24 123.33 104.91 126.32 107.56 C 125.40 108.55 124.49 109.55 123.57 110.55 C 120.64 107.82 117.63 105.18 114.68 102.46 Z" />
<path fill="#ffffff" opacity="1.00" d=" M 16.30 104.49 C 17.51 105.06 18.72 105.63 19.93 106.19 C 18.31 109.75 16.73 113.34 15.44 117.03 C 14.13 116.62 12.84 116.18 11.55 115.73 C 13.05 111.95 14.62 108.19 16.30 104.49 Z" />
<path fill="#ffffff" opacity="1.00" d=" M 338.12 106.23 C 339.30 105.65 340.48 105.06 341.66 104.48 C 343.51 108.12 344.95 111.94 346.45 115.73 C 345.16 116.19 343.87 116.63 342.55 116.99 C 341.30 113.31 339.77 109.74 338.12 106.23 Z" />
<path fill="#ffffff" opacity="1.00" d=" M 243.38 114.63 C 246.35 111.93 249.33 109.24 252.34 106.57 C 253.22 107.56 254.10 108.54 254.99 109.52 C 252.02 112.19 249.03 114.86 246.08 117.55 C 245.18 116.58 244.28 115.60 243.38 114.63 Z" />
<path fill="#ffffff" opacity="1.00" d=" M 126.56 113.19 C 127.46 112.21 128.36 111.23 129.26 110.25 C 132.21 112.93 135.21 115.56 138.16 118.24 C 137.29 119.24 136.42 120.24 135.56 121.25 C 132.51 118.61 129.57 115.86 126.56 113.19 Z" />
<path fill="#ffffff" opacity="1.00" d=" M 102.37 116.01 C 103.71 116.01 105.04 116.00 106.38 116.00 C 106.38 120.00 106.38 124.00 106.38 128.00 C 105.04 128.00 103.71 127.99 102.37 127.99 C 102.38 124.00 102.38 120.00 102.37 116.01 Z" />
<path fill="#ffffff" opacity="1.00" d=" M 231.56 125.41 C 234.49 122.67 237.49 120.01 240.45 117.30 C 241.35 118.30 242.23 119.32 243.08 120.37 C 240.08 122.94 237.20 125.66 234.26 128.30 C 233.36 127.33 232.46 126.37 231.56 125.41 Z" />
<path fill="#ffffff" opacity="1.00" d=" M 10.20 119.48 C 11.47 119.95 12.74 120.39 14.02 120.85 C 12.65 124.55 11.44 128.30 10.43 132.11 C 9.14 131.76 7.85 131.42 6.56 131.08 C 7.59 127.16 8.89 123.32 10.20 119.48 Z" />
<path fill="#ffffff" opacity="1.00" d=" M 344.08 120.77 C 345.35 120.35 346.62 119.94 347.90 119.52 C 349.21 123.34 350.45 127.19 351.51 131.09 C 350.19 131.41 348.89 131.74 347.58 132.05 C 346.64 128.22 345.33 124.50 344.08 120.77 Z" />
<path fill="#ffffff" opacity="1.00" d=" M 138.50 123.94 C 139.40 122.94 140.30 121.94 141.20 120.94 C 144.14 123.61 147.11 126.25 150.04 128.93 C 149.18 129.93 148.33 130.92 147.48 131.93 C 144.44 129.31 141.50 126.59 138.50 123.94 Z" />
<path fill="#ffffff" opacity="1.00" d=" M 219.69 136.13 C 222.66 133.43 225.65 130.77 228.61 128.07 C 229.50 129.05 230.40 130.03 231.30 131.00 C 228.36 133.71 225.39 136.39 222.47 139.12 C 221.54 138.12 220.62 137.12 219.69 136.13 Z" />
<path fill="#ffffff" opacity="1.00" d=" M 102.25 132.01 C 103.59 132.00 104.92 132.00 106.26 132.00 C 106.30 136.00 106.07 140.00 106.12 144.00 C 104.79 144.00 103.45 143.99 102.12 144.00 C 102.08 140.00 102.31 136.00 102.25 132.01 Z" />
<path fill="#ffffff" opacity="1.00" d=" M 150.37 134.64 C 151.27 133.64 152.16 132.64 153.05 131.64 C 156.05 134.30 159.02 137.01 162.00 139.69 C 161.10 140.67 160.20 141.65 159.30 142.63 C 156.34 139.94 153.35 137.30 150.37 134.64 Z" />
<path fill="#ffffff" opacity="1.00" d=" M 5.49 135.03 C 6.79 135.33 8.09 135.62 9.38 135.92 C 8.48 139.78 7.51 143.64 6.90 147.57 C 5.60 147.33 4.29 147.10 2.99 146.87 C 3.63 142.88 4.60 138.96 5.49 135.03 Z" />
<path fill="#ffffff" opacity="1.00" d=" M 348.68 135.91 C 349.98 135.60 351.27 135.28 352.57 134.97 C 353.45 138.91 354.44 142.84 355.06 146.83 C 353.75 147.06 352.44 147.29 351.14 147.53 C 350.55 143.61 349.58 139.77 348.68 135.91 Z" />
<path fill="#ffffff" opacity="1.00" d=" M 207.89 146.88 C 210.82 144.17 213.79 141.51 216.74 138.82 C 217.64 139.82 218.54 140.82 219.44 141.82 C 216.47 144.49 213.52 147.19 210.56 149.88 C 209.67 148.88 208.78 147.88 207.89 146.88 Z" />
<path fill="#ffffff" opacity="1.00" d=" M 162.31 145.31 C 163.19 144.31 164.07 143.31 164.95 142.31 C 167.91 145.02 170.90 147.69 173.88 150.37 C 172.97 151.34 172.08 152.32 171.18 153.29 C 168.22 150.64 165.26 147.98 162.31 145.31 Z" />
<path fill="#ffffff" opacity="1.00" d=" M 102.00 148.00 C 103.33 148.00 104.67 148.00 106.00 148.00 C 106.00 152.00 106.00 156.00 106.00 160.00 C 104.67 160.00 103.33 160.00 102.00 160.00 C 102.00 156.00 102.00 152.00 102.00 148.00 Z" />
<path fill="#ffffff" opacity="1.00" d=" M 196.00 157.64 C 198.96 154.93 201.96 152.27 204.93 149.57 C 205.82 150.55 206.72 151.54 207.62 152.52 C 204.70 155.25 201.71 157.91 198.76 160.62 C 197.84 159.62 196.92 158.63 196.00 157.64 Z" />
<path fill="#ffffff" opacity="1.00" d=" M 2.20 150.81 C 3.53 151.03 4.86 151.24 6.19 151.47 C 5.68 155.39 5.13 159.31 4.71 163.25 C 3.74 163.16 1.79 162.96 0.81 162.87 C 1.07 158.82 1.70 154.82 2.20 150.81 Z" />
<path fill="#ffffff" opacity="1.00" d=" M 351.86 151.46 C 353.18 151.24 354.51 151.03 355.85 150.81 C 356.40 154.82 356.93 158.84 357.29 162.88 C 355.97 162.97 354.65 163.07 353.34 163.17 C 352.90 159.26 352.41 155.36 351.86 151.46 Z" />
<path fill="#ffffff" opacity="1.00" d=" M 174.19 156.02 C 175.08 155.03 175.98 154.05 176.87 153.06 C 179.83 155.73 182.79 158.40 185.76 161.06 C 184.86 162.05 183.98 163.05 183.09 164.05 C 180.15 161.34 177.16 158.69 174.19 156.02 Z" />
<path fill="#ffffff" opacity="1.00" d=" M 184.22 168.53 C 186.68 165.27 190.20 163.18 193.03 160.31 C 193.94 161.31 194.85 162.31 195.76 163.31 C 194.51 164.42 193.26 165.54 192.01 166.65 C 193.89 168.36 195.78 170.06 197.69 171.74 C 196.78 172.74 195.88 173.75 194.98 174.75 C 193.02 172.96 191.06 171.17 189.06 169.42 C 188.52 169.90 187.43 170.86 186.88 171.35 C 185.99 170.40 185.11 169.46 184.22 168.53 Z" />
<path fill="#ffffff" opacity="1.00" d=" M 101.88 164.00 C 103.21 164.00 104.54 164.00 105.88 164.00 C 105.87 168.00 105.87 172.00 105.88 175.99 C 104.54 175.99 103.21 176.00 101.88 176.00 C 101.87 172.00 101.87 168.00 101.88 164.00 Z" />
<path fill="#ffffff" opacity="1.00" d=" M 0.47 166.96 C 1.47 167.01 3.47 167.11 4.48 167.16 C 4.00 173.75 3.88 180.37 4.28 186.97 C 3.28 187.02 1.29 187.13 0.29 187.18 C 0.19 184.95 0.09 182.72 0.00 180.49 L 0.00 177.41 C 0.11 173.92 0.25 170.44 0.47 166.96 Z" />
<path fill="#ffffff" opacity="1.00" d=" M 353.62 167.13 C 354.62 167.06 356.61 166.92 357.61 166.86 C 357.80 170.06 357.91 173.27 358.00 176.48 L 358.00 179.00 C 356.67 179.00 355.34 179.00 354.02 179.00 C 353.90 175.04 353.89 171.08 353.62 167.13 Z" />
<path fill="#ffffff" opacity="1.00" d=" M 172.39 179.19 C 175.33 176.50 178.29 173.82 181.24 171.13 C 182.13 172.10 183.03 173.07 183.93 174.04 C 180.99 176.75 178.02 179.44 175.05 182.12 C 174.16 181.14 173.27 180.16 172.39 179.19 Z" />
<path fill="#ffffff" opacity="1.00" d=" M 200.61 174.44 C 203.60 177.09 206.58 179.76 209.56 182.43 C 208.66 183.43 207.77 184.42 206.88 185.42 C 203.88 182.79 200.96 180.08 197.99 177.41 C 198.65 176.67 199.95 175.18 200.61 174.44 Z" />
<path fill="#ffffff" opacity="1.00" d=" M 101.75 180.00 C 103.09 180.00 104.42 180.00 105.76 180.01 C 105.80 184.00 105.56 187.99 105.62 191.99 C 104.29 191.99 102.95 192.00 101.62 192.00 C 101.57 188.00 101.80 184.00 101.75 180.00 Z" />
<path fill="#ffffff" opacity="1.00" d=" M 160.50 189.92 C 163.48 187.27 166.39 184.54 169.38 181.91 C 170.27 182.84 171.16 183.76 172.06 184.69 C 169.19 187.52 166.14 190.16 163.17 192.87 C 162.28 191.88 161.39 190.90 160.50 189.92 Z" />
<path fill="#ffffff" opacity="1.00" d=" M 353.89 183.00 C 354.89 183.00 356.88 183.00 357.88 183.00 C 357.98 187.07 357.61 191.13 357.23 195.19 C 356.25 195.09 354.29 194.90 353.31 194.81 C 353.62 190.88 353.96 186.95 353.89 183.00 Z" />
<path fill="#ffffff" opacity="1.00" d=" M 209.89 188.12 C 210.78 187.11 211.68 186.11 212.58 185.11 C 215.53 187.82 218.55 190.46 221.53 193.15 C 220.59 194.16 219.65 195.16 218.65 196.10 C 215.82 193.33 212.79 190.79 209.89 188.12 Z" />
<path fill="#ffffff" opacity="1.00" d=" M 0.48 191.14 C 1.83 191.10 3.18 191.06 4.54 191.03 C 4.69 194.95 5.14 198.85 5.67 202.74 C 4.67 202.87 2.68 203.12 1.69 203.25 C 1.12 199.23 0.73 195.19 0.48 191.14 Z" />
<path fill="#ffffff" opacity="1.00" d=" M 148.82 200.45 C 151.83 197.96 154.64 195.24 157.55 192.64 C 158.44 193.59 159.35 194.55 160.25 195.51 C 157.31 198.27 154.30 200.96 151.31 203.66 C 150.41 202.64 149.55 201.60 148.82 200.45 Z" />
<path fill="#ffffff" opacity="1.00" d=" M 101.49 196.01 C 102.83 196.00 104.17 196.00 105.51 196.01 C 105.52 199.97 105.43 203.94 105.59 207.90 C 104.22 207.95 102.86 207.99 101.49 208.02 C 101.50 204.01 101.50 200.01 101.49 196.01 Z" />
<path fill="#ffffff" opacity="1.00" d=" M 224.39 195.82 C 227.43 198.46 230.38 201.19 233.37 203.89 C 232.47 204.85 231.57 205.83 230.68 206.81 C 227.71 204.14 224.73 201.49 221.76 198.82 C 222.64 197.82 223.51 196.82 224.39 195.82 Z" />
<path fill="#ffffff" opacity="1.00" d=" M 351.19 210.48 C 351.89 206.59 352.42 202.67 352.88 198.75 C 354.21 198.89 355.54 199.03 356.88 199.18 C 356.41 203.20 355.90 207.21 355.12 211.19 C 353.81 210.95 352.50 210.71 351.19 210.48 Z" />
<path fill="#ffffff" opacity="1.00" d=" M 136.81 211.41 C 139.80 208.77 142.71 206.06 145.68 203.39 C 146.57 204.35 147.47 205.31 148.38 206.28 C 145.45 209.03 142.45 211.71 139.51 214.43 C 138.61 213.42 137.71 212.42 136.81 211.41 Z" />
<path fill="#ffffff" opacity="1.00" d=" M 2.25 207.25 C 3.25 207.09 5.25 206.78 6.25 206.63 C 6.91 210.54 7.50 214.48 8.50 218.33 C 7.21 218.60 5.92 218.88 4.63 219.17 C 3.63 215.24 2.97 211.24 2.25 207.25 Z" />
<path fill="#ffffff" opacity="1.00" d=" M 233.69 209.50 C 234.57 208.50 235.46 207.50 236.35 206.50 C 239.30 209.21 242.28 211.89 245.26 214.57 C 244.35 215.54 243.44 216.52 242.54 217.50 C 239.61 214.81 236.64 212.16 233.69 209.50 Z" />
<path fill="#ffffff" opacity="1.00" d=" M 101.37 212.01 C 102.70 212.00 104.04 212.00 105.38 212.00 C 105.38 216.00 105.38 220.00 105.38 224.00 C 104.04 224.00 102.71 223.99 101.37 223.99 C 101.38 220.00 101.38 216.00 101.37 212.01 Z" />
<path fill="#ffffff" opacity="1.00" d=" M 125.01 222.19 C 127.95 219.49 130.93 216.83 133.87 214.12 C 134.76 215.13 135.66 216.13 136.56 217.14 C 133.56 219.79 130.68 222.57 127.63 225.16 C 126.76 224.16 125.88 223.17 125.01 222.19 Z" />
<path fill="#ffffff" opacity="1.00" d=" M 350.45 214.35 C 351.44 214.56 353.40 214.99 354.39 215.21 C 353.43 219.11 352.59 223.04 351.53 226.92 C 350.23 226.57 348.93 226.23 347.64 225.90 C 348.72 222.08 349.54 218.21 350.45 214.35 Z" />
<path fill="#ffffff" opacity="1.00" d=" M 245.56 220.19 C 246.46 219.21 247.36 218.23 248.26 217.25 C 250.42 219.22 252.59 221.18 254.75 223.14 C 253.87 224.11 252.99 225.08 252.12 226.06 C 249.94 224.09 247.75 222.14 245.56 220.19 Z" />
<path fill="#ffffff" opacity="1.00" d=" M 5.51 223.12 C 6.80 222.79 8.09 222.46 9.38 222.13 C 10.46 225.93 11.42 229.76 12.70 233.50 C 11.44 233.91 10.18 234.33 8.91 234.75 C 7.59 230.93 6.63 227.00 5.51 223.12 Z" />
<path fill="#ffffff" opacity="1.00" d=" M 114.70 231.51 C 117.16 229.33 119.58 227.10 122.00 224.87 C 122.89 225.88 123.78 226.88 124.68 227.89 C 122.23 230.09 119.79 232.31 117.33 234.51 C 116.45 233.50 115.58 232.51 114.70 231.51 Z" />
<path fill="#ffffff" opacity="1.00" d=" M 101.25 228.01 C 102.58 228.00 103.92 228.00 105.26 228.00 C 105.30 232.00 105.07 236.00 105.12 240.00 C 103.79 239.99 102.45 239.99 101.12 240.00 C 101.08 236.00 101.31 232.01 101.25 228.01 Z" />
<path fill="#ffffff" opacity="1.00" d=" M 342.78 240.95 C 344.17 237.23 345.36 233.45 346.62 229.68 C 347.87 230.09 349.13 230.49 350.39 230.90 C 349.16 234.72 347.94 238.56 346.51 242.31 C 345.26 241.85 344.02 241.40 342.78 240.95 Z" />
<path fill="#ffffff" opacity="1.00" d=" M 10.20 238.62 C 11.45 238.18 12.70 237.73 13.96 237.29 C 15.29 241.01 16.81 244.65 18.29 248.31 C 17.07 248.83 15.85 249.35 14.63 249.88 C 13.11 246.14 11.56 242.42 10.20 238.62 Z" />
<path fill="#ffffff" opacity="1.00" d=" M 111.00 243.00 C 115.00 243.00 119.00 243.00 123.00 243.00 C 123.00 244.33 123.00 245.66 123.00 247.00 C 119.00 247.00 115.00 247.00 111.00 247.00 C 111.00 245.66 111.00 244.33 111.00 243.00 Z" />
<path fill="#ffffff" opacity="1.00" d=" M 127.00 243.00 C 131.00 243.00 135.00 243.00 139.00 243.00 C 139.00 244.33 139.00 245.66 139.00 247.00 C 135.00 247.00 131.00 247.00 127.00 247.00 C 127.00 245.66 127.00 244.33 127.00 243.00 Z" />
<path fill="#ffffff" opacity="1.00" d=" M 143.00 243.00 C 147.00 243.00 151.00 243.00 155.00 243.00 C 155.00 244.33 155.00 245.66 155.00 247.00 C 151.00 247.00 147.00 247.00 143.00 247.00 C 143.00 245.66 143.00 244.33 143.00 243.00 Z" />
<path fill="#ffffff" opacity="1.00" d=" M 159.00 243.00 C 163.00 243.00 167.00 243.00 171.00 243.00 C 171.00 244.33 171.00 245.66 171.00 247.00 C 167.00 247.00 163.00 247.00 159.00 247.00 C 159.00 245.66 159.00 244.33 159.00 243.00 Z" />
<path fill="#ffffff" opacity="1.00" d=" M 175.00 243.00 C 179.00 243.00 183.00 243.00 187.00 243.00 C 187.00 244.33 187.00 245.66 187.00 247.00 C 183.00 247.00 179.00 247.00 175.00 247.00 C 175.00 245.66 175.00 244.33 175.00 243.00 Z" />
<path fill="#ffffff" opacity="1.00" d=" M 191.00 243.00 C 195.00 243.00 199.00 243.00 203.00 243.00 C 203.00 244.33 203.00 245.66 203.00 247.00 C 199.00 247.00 195.00 247.00 191.00 247.00 C 191.00 245.66 191.00 244.33 191.00 243.00 Z" />
<path fill="#ffffff" opacity="1.00" d=" M 207.00 243.00 C 211.00 243.00 215.00 243.00 219.00 243.00 C 219.00 244.33 219.00 245.66 219.00 247.00 C 215.00 247.00 211.00 247.00 207.00 247.00 C 207.00 245.66 207.00 244.33 207.00 243.00 Z" />
<path fill="#ffffff" opacity="1.00" d=" M 223.00 243.00 C 227.00 243.00 231.00 243.00 235.00 243.00 C 235.00 244.33 235.00 245.66 235.00 247.00 C 231.00 247.00 227.00 247.00 223.00 247.00 C 223.00 245.66 223.00 244.33 223.00 243.00 Z" />
<path fill="#ffffff" opacity="1.00" d=" M 239.00 243.00 C 243.00 243.00 247.00 243.00 251.00 243.00 C 251.00 244.33 251.00 245.66 251.00 247.00 C 247.00 247.00 243.00 247.00 239.00 247.00 C 239.00 245.66 239.00 244.33 239.00 243.00 Z" />
<path fill="#ffffff" opacity="1.00" d=" M 255.00 243.00 C 256.21 243.00 257.41 243.00 258.63 243.01 C 258.62 244.34 258.62 245.66 258.63 246.99 C 257.41 246.99 256.21 247.00 255.00 247.00 C 255.00 245.66 255.00 244.33 255.00 243.00 Z" />
<path fill="#ffffff" opacity="1.00" d=" M 101.00 244.00 C 102.33 244.00 103.67 244.00 105.00 244.00 C 105.00 245.21 104.99 246.41 104.99 247.63 C 103.66 247.62 102.34 247.62 101.01 247.63 C 101.01 246.41 101.00 245.21 101.00 244.00 Z" />
<path fill="#ffffff" opacity="1.00" d=" M 336.49 255.46 C 338.13 251.85 339.75 248.23 341.35 244.61 C 342.57 245.12 343.78 245.64 345.00 246.15 C 343.44 249.85 341.77 253.50 340.13 257.16 C 338.91 256.59 337.70 256.02 336.49 255.46 Z" />
<path fill="#ffffff" opacity="1.00" d=" M 16.29 253.56 C 17.50 253.02 18.71 252.48 19.92 251.95 C 21.60 255.53 23.41 259.05 25.16 262.60 C 24.00 263.21 22.84 263.82 21.68 264.43 C 19.84 260.83 17.91 257.27 16.29 253.56 Z" />
<path fill="#ffffff" opacity="1.00" d=" M 334.62 258.98 C 335.82 259.58 337.03 260.19 338.23 260.81 C 336.52 264.48 334.29 267.86 332.18 271.30 C 331.06 270.59 329.93 269.89 328.81 269.19 C 330.85 265.85 333.00 262.55 334.62 258.98 Z" />
<path fill="#ffffff" opacity="1.00" d=" M 23.81 267.93 C 24.96 267.27 26.11 266.60 27.26 265.95 C 29.31 269.33 31.38 272.69 33.44 276.07 C 32.33 276.81 31.23 277.55 30.13 278.30 C 28.01 274.85 25.91 271.39 23.81 267.93 Z" />
<path fill="#ffffff" opacity="1.00" d=" M 320.00 282.39 C 322.40 279.24 324.79 276.07 326.76 272.62 C 327.85 273.35 328.95 274.09 330.04 274.83 C 328.08 278.33 325.68 281.55 323.25 284.74 C 322.17 283.96 321.08 283.17 320.00 282.39 Z" />
<path fill="#ffffff" opacity="1.00" d=" M 32.43 281.53 C 33.54 280.80 34.65 280.07 35.76 279.34 C 38.12 282.49 40.45 285.66 42.81 288.80 C 41.76 289.63 40.72 290.46 39.68 291.29 C 37.25 288.05 34.84 284.79 32.43 281.53 Z" />
<path fill="#ffffff" opacity="1.00" d=" M 310.13 294.69 C 312.87 291.85 315.35 288.79 317.63 285.58 C 318.69 286.38 319.75 287.18 320.82 287.99 C 318.45 291.27 315.89 294.41 313.12 297.36 C 312.12 296.46 311.13 295.57 310.13 294.69 Z" />
<path fill="#ffffff" opacity="1.00" d=" M 45.26 291.84 C 48.01 294.73 50.69 297.70 53.32 300.70 C 52.34 301.57 51.35 302.45 50.37 303.34 C 47.70 300.35 45.00 297.40 42.31 294.43 C 43.29 293.56 44.27 292.70 45.26 291.84 Z" />
<path fill="#ffffff" opacity="1.00" d=" M 307.46 297.61 C 308.42 298.52 309.39 299.44 310.36 300.35 C 307.68 303.37 305.00 306.40 301.88 309.00 C 300.96 308.01 300.04 307.03 299.13 306.05 C 302.15 303.49 304.80 300.54 307.46 297.61 Z" />
<path fill="#ffffff" opacity="1.00" d=" M 53.23 306.32 C 54.18 305.38 55.12 304.45 56.06 303.51 C 58.99 306.14 61.90 308.78 64.80 311.44 C 63.95 312.45 63.10 313.47 62.26 314.49 C 59.24 311.78 56.26 309.02 53.23 306.32 Z" />
<path fill="#ffffff" opacity="1.00" d=" M 287.19 316.48 C 290.41 314.17 293.28 311.43 296.19 308.74 C 297.07 309.72 297.96 310.71 298.86 311.69 C 295.87 314.40 292.97 317.21 289.69 319.57 C 288.86 318.53 288.02 317.50 287.19 316.48 Z" />
<path fill="#ffffff" opacity="1.00" d=" M 65.19 317.19 C 66.04 316.17 66.90 315.15 67.75 314.13 C 70.92 316.47 74.08 318.85 77.26 321.18 C 76.48 322.26 75.70 323.34 74.92 324.43 C 71.69 322.01 68.44 319.61 65.19 317.19 Z" />
<path fill="#ffffff" opacity="1.00" d=" M 274.40 325.71 C 277.75 323.62 280.82 321.14 284.01 318.82 C 284.81 319.88 285.61 320.93 286.42 321.99 C 283.18 324.38 280.05 326.93 276.58 329.01 C 275.85 327.91 275.12 326.81 274.40 325.71 Z" />
<path fill="#ffffff" opacity="1.00" d=" M 80.41 323.62 C 83.77 325.71 87.17 327.75 90.55 329.81 C 89.85 330.94 89.15 332.09 88.45 333.24 C 85.03 331.08 81.43 329.19 78.18 326.77 C 78.74 325.98 79.85 324.41 80.41 323.62 Z" />
<path fill="#ffffff" opacity="1.00" d=" M 260.77 333.79 C 264.27 331.94 267.60 329.78 271.01 327.76 C 271.69 328.87 272.37 329.99 273.06 331.10 C 269.64 333.22 266.24 335.38 262.72 337.33 C 262.07 336.15 261.42 334.97 260.77 333.79 Z" />
<path fill="#ffffff" opacity="1.00" d=" M 91.95 335.49 C 92.59 334.29 93.23 333.10 93.89 331.92 C 97.32 333.91 100.94 335.54 104.45 337.38 C 103.85 338.56 103.24 339.75 102.64 340.94 C 99.07 339.15 95.46 337.42 91.95 335.49 Z" />
<path fill="#ffffff" opacity="1.00" d=" M 246.50 340.53 C 250.10 338.89 253.74 337.32 257.29 335.57 C 257.88 336.77 258.48 337.97 259.08 339.17 C 255.45 340.96 251.73 342.56 248.04 344.21 C 247.52 342.98 247.01 341.75 246.50 340.53 Z" />
<path fill="#ffffff" opacity="1.00" d=" M 106.38 342.66 C 106.92 341.43 107.46 340.22 108.00 339.00 C 111.63 340.58 115.33 341.99 119.00 343.49 C 118.65 344.42 117.95 346.28 117.60 347.21 C 113.84 345.76 110.09 344.25 106.38 342.66 Z" />
<path fill="#ffffff" opacity="1.00" d=" M 231.61 345.99 C 235.37 344.74 239.16 343.54 242.82 342.01 C 243.29 343.24 243.77 344.47 244.25 345.71 C 240.51 347.27 236.66 348.53 232.81 349.78 C 232.41 348.51 232.01 347.25 231.61 345.99 Z" />
<path fill="#ffffff" opacity="1.00" d=" M 121.43 348.47 C 121.87 347.24 122.31 346.00 122.76 344.78 C 126.47 346.07 130.25 347.13 134.04 348.18 C 133.72 349.47 133.39 350.76 133.08 352.06 C 129.16 350.97 125.24 349.91 121.43 348.47 Z" />
<path fill="#ffffff" opacity="1.00" d=" M 216.40 349.99 C 220.25 349.13 224.09 348.18 227.87 347.06 C 228.22 348.35 228.57 349.64 228.93 350.93 C 225.04 352.06 221.11 353.04 217.16 353.92 C 216.97 352.94 216.59 350.97 216.40 349.99 Z" />
<path fill="#ffffff" opacity="1.00" d=" M 137.93 349.12 C 141.76 350.10 145.64 350.89 149.55 351.50 C 149.38 352.48 149.05 354.45 148.89 355.43 C 144.89 354.80 140.94 353.96 137.01 353.00 C 137.32 351.70 137.62 350.41 137.93 349.12 Z" />
<path fill="#ffffff" opacity="1.00" d=" M 200.75 352.63 C 204.70 352.20 208.60 351.49 212.51 350.84 C 212.75 352.14 212.99 353.44 213.24 354.75 C 209.26 355.50 205.27 356.20 201.25 356.62 C 201.12 355.62 200.88 353.63 200.75 352.63 Z" />
<path fill="#ffffff" opacity="1.00" d=" M 153.43 352.13 C 157.36 352.64 161.30 353.21 165.27 353.44 C 165.18 354.44 165.01 356.44 164.92 357.45 C 160.89 357.19 156.88 356.64 152.87 356.11 C 153.06 354.78 153.24 353.46 153.43 352.13 Z" />
<path fill="#ffffff" opacity="1.00" d=" M 169.16 353.79 C 173.11 353.88 177.05 353.98 181.00 354.02 C 181.00 355.34 181.00 356.67 181.00 358.00 L 176.44 358.00 C 173.95 357.90 171.46 357.84 168.96 357.78 C 169.01 356.78 169.11 354.78 169.16 353.79 Z" />
<path fill="#ffffff" opacity="1.00" d=" M 184.96 353.92 C 188.94 353.82 192.90 353.41 196.87 353.14 C 196.96 354.13 197.15 356.12 197.24 357.11 C 193.23 357.43 189.22 357.77 185.20 357.96 C 185.12 356.61 185.04 355.26 184.96 353.92 Z" />
</g>
</svg>
