<?xml version="1.0" encoding="UTF-8" ?>
<!DOCTYPE svg PUBLIC "-//W3C//DTD SVG 1.1//EN" "http://www.w3.org/Graphics/SVG/1.1/DTD/svg11.dtd">
<svg width="268pt" height="246pt" viewBox="0 0 268 246" version="1.1" xmlns="http://www.w3.org/2000/svg">

<g xmlns="http://www.w3.org/2000/svg" class="sprite" id="badge">
<g id="#000000ff">
<path fill="#000000" opacity="1.00" d=" M 11.00 0.00 L 56.00 0.00 C 56.00 3.33 56.00 6.67 56.00 10.00 C 44.33 10.00 32.67 10.00 21.00 10.00 C 21.00 19.67 21.00 29.33 21.00 39.00 C 17.67 39.00 14.33 39.00 11.00 39.00 C 11.00 26.00 11.00 13.00 11.00 0.00 Z" />
<path fill="#000000" opacity="1.00" d=" M 86.00 0.00 L 126.00 0.00 C 126.00 3.33 126.00 6.67 126.00 10.00 C 112.67 10.00 99.33 10.00 86.00 10.00 C 86.00 6.67 86.00 3.33 86.00 0.00 Z" />
<path fill="#000000" opacity="1.00" d=" M 156.00 0.00 L 196.00 0.00 C 196.00 3.33 196.00 6.67 196.00 10.00 C 182.67 10.00 169.33 10.00 156.00 10.00 C 156.00 6.67 156.00 3.33 156.00 0.00 Z" />
<path fill="#000000" opacity="1.00" d=" M 226.00 0.00 L 257.00 0.00 C 257.00 6.33 257.00 12.67 257.00 19.00 C 253.67 19.00 250.33 19.00 247.00 19.00 C 247.00 16.00 247.00 13.00 247.00 10.00 C 240.00 10.00 233.00 10.00 226.00 10.00 C 226.00 6.67 226.00 3.33 226.00 0.00 Z" />
<path fill="#000000" opacity="1.00" d=" M 247.00 49.00 C 250.33 49.00 253.66 49.00 257.00 49.00 C 257.00 62.33 257.00 75.67 257.00 89.00 C 253.66 89.00 250.33 89.00 247.00 89.00 C 247.00 75.67 247.00 62.33 247.00 49.00 Z" />
<path fill="#000000" opacity="1.00" d=" M 11.00 69.00 C 14.33 69.00 17.67 69.00 21.00 69.00 C 21.00 82.33 21.00 95.67 21.00 109.00 C 17.67 109.00 14.33 109.00 11.00 109.00 C 11.00 95.67 11.00 82.33 11.00 69.00 Z" />
<path fill="#000000" opacity="1.00" d=" M 57.95 121.14 C 60.73 115.57 66.68 111.52 73.03 111.93 C 77.84 111.78 81.99 114.64 85.39 117.73 C 86.68 117.78 87.98 117.83 89.27 117.90 C 88.56 118.70 87.84 119.50 87.12 120.30 C 87.55 120.36 88.39 120.47 88.82 120.53 C 88.34 123.39 88.44 126.30 88.56 129.19 C 88.64 130.61 88.76 132.10 88.06 133.39 C 86.94 133.14 85.91 132.67 84.97 131.96 C 85.34 131.70 86.08 131.17 86.45 130.90 C 85.82 128.08 85.01 124.90 86.51 122.20 C 83.54 120.27 81.77 116.80 78.38 115.50 C 76.62 114.82 74.80 114.31 73.03 113.66 C 69.78 114.62 66.03 114.93 63.64 117.62 C 61.12 119.91 59.76 123.07 58.78 126.26 C 58.65 128.01 58.52 129.76 58.47 131.52 C 58.61 132.37 58.73 133.23 58.83 134.09 C 59.27 135.35 59.83 136.56 60.51 137.70 L 60.17 138.36 C 61.49 139.85 62.76 141.39 64.00 142.95 C 67.23 145.51 71.42 146.46 75.45 145.59 C 78.69 144.43 81.18 141.91 83.37 139.35 C 84.17 137.97 85.40 136.95 86.66 136.00 C 86.29 135.45 85.56 134.35 85.19 133.80 C 86.08 133.77 87.85 133.71 88.74 133.67 C 88.26 136.15 89.03 138.80 88.12 141.17 C 87.18 140.95 86.25 140.71 85.33 140.45 C 82.36 144.73 77.52 148.33 72.08 147.95 C 68.26 148.32 65.01 146.11 62.01 144.08 C 61.37 143.30 60.74 142.53 60.10 141.76 C 57.64 138.98 56.09 135.29 56.15 131.55 C 55.45 129.08 56.27 126.55 56.55 124.09 C 57.11 124.23 58.24 124.51 58.81 124.65 C 57.53 123.67 56.49 122.57 57.95 121.14 Z" />
<path fill="#000000" opacity="1.00" d=" M 85.35 112.38 C 86.49 112.21 87.64 112.06 88.79 111.94 C 88.52 113.36 88.17 114.83 88.89 116.19 C 87.90 118.20 86.13 117.06 85.00 115.86 L 86.81 114.83 C 86.29 114.03 85.81 113.21 85.35 112.38 Z" />
<path fill="#000000" opacity="1.00" d=" M 102.41 114.28 C 106.97 110.74 113.65 111.52 118.81 113.24 C 119.42 114.92 121.17 115.81 121.65 117.56 C 122.05 117.64 122.86 117.78 123.27 117.86 C 123.04 118.28 122.59 119.14 122.36 119.56 C 122.87 120.27 123.89 121.67 124.40 122.38 C 123.62 122.34 122.04 122.25 121.25 122.21 C 120.72 120.07 119.70 118.11 118.16 116.53 L 118.74 115.51 C 115.98 114.20 112.98 113.55 109.92 113.82 C 105.95 113.44 103.20 116.74 99.89 118.29 C 99.17 117.77 98.47 117.23 97.79 116.67 C 99.35 115.91 100.89 115.13 102.41 114.28 Z" />
<path fill="#000000" opacity="1.00" d=" M 134.09 112.30 C 135.04 111.11 137.98 112.17 136.76 113.76 C 135.82 114.97 132.86 113.87 134.09 112.30 Z" />
<path fill="#000000" opacity="1.00" d=" M 138.63 116.77 C 141.76 115.33 144.16 112.30 147.80 112.06 C 150.98 111.56 153.91 113.12 156.65 114.50 C 157.36 115.13 158.07 115.76 158.79 116.38 C 159.30 117.86 159.82 119.34 160.33 120.82 C 161.14 120.82 162.75 120.81 163.55 120.81 C 161.55 123.17 160.84 126.13 161.11 129.18 C 160.32 129.15 158.73 129.09 157.94 129.05 C 158.15 127.61 158.39 126.17 158.65 124.74 C 157.49 120.78 156.60 115.28 151.57 114.68 C 147.80 113.18 144.46 115.42 141.50 117.48 C 140.91 118.65 140.58 120.32 138.89 120.09 C 136.67 118.86 139.67 117.52 140.74 116.87 L 138.63 116.77 Z" />
<path fill="#000000" opacity="1.00" d=" M 168.41 112.93 C 172.13 111.50 176.15 111.91 179.62 113.83 C 180.74 114.62 181.84 115.44 182.93 116.27 C 183.43 117.96 183.98 119.64 184.58 121.31 C 184.61 122.69 184.63 124.07 184.65 125.46 C 185.45 126.41 186.14 129.83 183.90 129.18 C 181.58 129.76 182.43 126.91 182.40 125.63 C 181.69 122.18 181.66 117.91 178.47 115.69 C 175.02 114.01 170.40 113.39 167.48 116.42 C 165.21 117.63 163.38 122.44 160.87 119.00 C 162.18 118.38 163.51 117.77 164.78 117.04 L 162.76 116.69 C 164.81 115.70 166.70 114.42 168.41 112.93 Z" />
<path fill="#000000" opacity="1.00" d=" M 199.21 116.69 C 203.63 110.27 215.35 110.20 219.74 116.62 C 220.30 116.70 221.41 116.87 221.96 116.96 C 221.74 117.44 221.29 118.40 221.06 118.89 C 221.67 118.94 222.90 119.06 223.51 119.12 C 223.51 119.54 223.51 120.37 223.50 120.79 C 224.54 121.80 225.21 123.09 225.92 124.34 C 226.15 126.55 226.37 128.77 226.54 130.99 C 215.32 130.83 204.08 130.63 192.86 131.14 C 192.43 128.77 192.93 126.37 193.13 124.00 C 193.52 123.94 194.29 123.81 194.68 123.74 L 194.12 122.04 C 194.51 121.76 195.30 121.18 195.69 120.89 C 195.64 120.46 195.55 119.59 195.50 119.15 C 196.11 119.09 197.32 118.95 197.93 118.88 C 197.71 118.40 197.26 117.42 197.04 116.93 C 197.58 116.87 198.67 116.75 199.21 116.69 M 197.32 121.51 C 196.38 124.06 195.83 126.80 194.33 129.12 C 204.25 128.98 214.16 129.00 224.08 129.09 C 223.38 125.61 222.13 122.26 220.18 119.28 C 217.34 116.77 214.16 113.69 210.04 114.08 C 204.60 113.41 200.42 117.61 197.32 121.51 Z" />
<path fill="#000000" opacity="1.00" d=" M 134.16 114.90 C 134.92 114.90 136.45 114.89 137.21 114.89 C 137.01 116.58 137.22 118.63 135.65 119.77 C 136.83 120.43 138.03 121.05 139.25 121.63 C 138.35 122.49 137.42 123.32 136.51 124.16 C 136.71 125.83 136.87 127.50 137.04 129.18 C 136.23 129.16 134.61 129.11 133.80 129.09 C 134.09 126.81 134.21 124.51 133.90 122.23 C 134.42 122.35 135.45 122.59 135.97 122.71 C 135.27 122.20 134.56 121.69 133.86 121.19 C 134.20 119.11 134.25 117.00 134.16 114.90 Z" />
<path fill="#000000" opacity="1.00" d=" M 247.00 119.00 C 250.33 119.00 253.67 119.00 257.00 119.00 C 257.00 132.33 257.00 145.67 257.00 159.00 C 253.66 159.00 250.33 159.00 247.00 159.00 C 247.00 145.67 247.00 132.33 247.00 119.00 Z" />
<path fill="#000000" opacity="1.00" d=" M 121.55 123.22 C 122.43 122.23 125.23 123.14 124.08 124.58 C 123.20 125.59 120.46 124.64 121.55 123.22 Z" />
<path fill="#000000" opacity="1.00" d=" M 121.45 125.48 C 122.28 125.49 123.95 125.51 124.78 125.52 C 124.74 127.92 124.16 130.21 121.56 130.86 C 122.29 130.94 123.74 131.10 124.47 131.18 C 124.27 134.37 124.43 137.59 124.10 140.78 C 123.51 140.97 122.33 141.35 121.74 141.54 C 122.67 141.65 123.60 141.75 124.54 141.87 C 125.41 143.79 126.59 145.53 127.85 147.21 C 127.18 147.42 125.84 147.83 125.17 148.03 C 123.61 146.61 123.00 143.95 121.11 143.11 C 118.96 144.68 116.68 146.06 114.33 147.30 C 111.01 147.90 107.58 148.36 104.22 147.81 C 101.18 146.98 98.99 144.52 96.79 142.42 C 100.00 139.66 101.56 145.02 104.54 145.63 C 110.92 147.71 118.08 143.93 121.83 138.76 C 121.60 136.39 121.52 134.02 121.58 131.65 C 114.74 128.20 104.93 127.30 99.39 133.54 C 99.02 135.27 98.58 136.99 98.09 138.70 C 98.55 139.02 99.48 139.67 99.95 139.99 C 99.24 140.37 97.83 141.11 97.12 141.48 C 96.06 140.34 96.18 138.62 95.76 137.19 C 96.20 136.28 96.41 135.31 96.41 134.29 C 97.58 133.57 97.92 132.33 98.12 131.05 C 98.61 131.03 99.60 130.98 100.10 130.96 C 100.11 130.53 100.12 129.67 100.13 129.25 C 103.39 128.28 106.61 127.09 110.01 126.76 C 113.58 126.58 116.96 127.97 120.37 128.78 C 122.33 129.18 121.89 126.60 121.45 125.48 Z" />
<path fill="#000000" opacity="1.00" d=" M 133.76 129.91 C 134.57 129.96 136.19 130.05 137.00 130.09 C 135.98 133.36 136.91 136.79 136.91 140.13 C 136.16 140.14 134.66 140.15 133.91 140.15 C 134.05 138.66 134.16 137.17 134.25 135.68 C 134.23 133.72 134.82 131.75 133.76 129.91 Z" />
<path fill="#000000" opacity="1.00" d=" M 158.30 130.25 C 159.25 129.04 162.16 130.17 160.95 131.74 C 160.00 132.95 157.10 131.82 158.30 130.25 Z" />
<path fill="#000000" opacity="1.00" d=" M 181.46 131.32 C 182.31 129.28 187.33 129.71 184.57 132.06 C 185.08 132.54 185.60 133.02 186.12 133.50 C 185.73 133.89 184.95 134.67 184.56 135.06 C 185.50 136.77 185.50 138.72 184.58 140.45 C 185.59 142.76 185.48 145.38 185.04 147.81 C 184.55 147.87 183.57 148.00 183.08 148.06 C 181.55 145.84 182.77 142.91 182.61 140.40 C 182.49 138.21 182.48 136.02 182.42 133.82 C 182.73 133.07 183.04 132.32 183.35 131.56 L 181.46 131.32 Z" />
<path fill="#000000" opacity="1.00" d=" M 192.33 131.70 C 193.11 131.73 194.68 131.79 195.46 131.82 C 195.70 134.58 196.57 137.26 198.18 139.54 C 199.06 140.59 199.97 141.61 200.90 142.63 C 201.78 143.18 202.65 143.74 203.52 144.32 C 205.15 145.08 206.78 145.84 208.39 146.65 C 213.11 146.40 217.16 144.00 220.80 141.18 C 220.73 140.70 220.58 139.74 220.51 139.26 C 221.72 139.30 222.93 139.35 224.15 139.40 C 221.77 143.66 217.75 146.73 213.03 147.93 C 210.66 147.89 208.30 147.88 205.94 147.92 C 202.71 146.33 199.45 144.62 197.00 141.92 C 194.77 138.86 192.95 135.48 192.33 131.70 Z" />
<path fill="#000000" opacity="1.00" d=" M 158.17 132.92 C 158.93 132.90 160.44 132.85 161.20 132.83 C 160.48 136.23 161.00 139.68 160.89 143.11 C 160.37 143.18 159.32 143.32 158.80 143.39 C 157.79 141.24 158.50 138.78 158.43 136.51 C 158.36 135.31 158.26 134.11 158.17 132.92 Z" />
<path fill="#000000" opacity="1.00" d=" M 11.00 139.00 C 14.33 139.00 17.67 139.00 21.00 139.00 C 21.00 152.33 21.00 165.67 21.00 179.00 C 17.67 179.00 14.33 179.00 11.00 179.00 C 11.00 165.67 11.00 152.33 11.00 139.00 Z" />
<path fill="#000000" opacity="1.00" d=" M 45.79 140.95 C 46.51 140.99 47.96 141.08 48.68 141.12 C 48.32 143.42 49.23 146.00 48.02 148.10 C 44.08 148.35 46.27 143.27 45.79 140.95 Z" />
<path fill="#000000" opacity="1.00" d=" M 133.89 140.90 C 134.64 140.90 136.14 140.90 136.89 140.90 C 136.83 143.15 136.89 145.41 136.65 147.65 C 136.05 147.78 134.84 148.03 134.24 148.15 C 134.18 145.73 134.09 143.31 133.89 140.90 Z" />
<path fill="#000000" opacity="1.00" d=" M 85.57 141.46 C 86.40 141.53 88.06 141.65 88.89 141.71 C 88.69 142.77 88.49 143.83 88.28 144.88 C 88.16 146.02 88.21 147.16 88.58 148.26 C 89.29 155.90 82.21 162.31 74.79 162.07 C 74.35 162.30 73.47 162.77 73.03 163.00 C 69.65 161.79 66.01 161.69 62.54 160.80 C 60.39 158.36 57.90 156.23 56.00 153.58 C 57.59 153.23 59.91 152.04 59.86 154.66 C 61.25 155.80 62.49 157.11 63.45 158.64 C 66.53 159.58 69.70 160.10 72.87 160.65 C 76.18 160.08 79.62 159.39 82.35 157.29 C 84.01 155.78 84.73 153.58 85.69 151.63 C 85.96 148.24 86.04 144.84 85.57 141.46 Z" />
<path fill="#000000" opacity="1.00" d=" M 157.93 143.63 C 158.80 143.61 160.53 143.57 161.40 143.55 C 161.27 145.00 161.10 146.45 160.89 147.89 C 157.99 149.07 158.03 145.45 157.93 143.63 Z" />
<path fill="#000000" opacity="1.00" d=" M 247.00 189.00 C 250.33 189.00 253.66 189.00 257.00 189.00 C 257.00 202.33 257.00 215.67 257.00 229.00 C 253.66 229.00 250.33 229.00 247.00 229.00 C 247.00 215.67 247.00 202.33 247.00 189.00 Z" />
<path fill="#000000" opacity="1.00" d=" M 11.00 209.00 C 14.33 209.00 17.67 209.00 21.00 209.00 C 21.00 217.99 21.00 226.98 21.00 235.97 C 21.75 235.99 23.25 236.01 24.00 236.03 C 24.00 239.35 24.00 242.67 24.00 246.00 L 11.00 246.00 C 11.00 233.67 11.00 221.33 11.00 209.00 Z" />
<path fill="#000000" opacity="1.00" d=" M 54.00 236.00 C 67.33 236.00 80.67 236.00 94.00 236.00 C 94.00 239.33 94.00 242.67 94.00 246.00 L 54.00 246.00 C 54.00 242.67 54.00 239.33 54.00 236.00 Z" />
<path fill="#000000" opacity="1.00" d=" M 124.00 236.00 C 137.33 236.00 150.67 236.00 164.00 236.00 C 164.00 239.33 164.00 242.67 164.00 246.00 L 124.00 246.00 C 124.00 242.67 124.00 239.33 124.00 236.00 Z" />
<path fill="#000000" opacity="1.00" d=" M 194.00 236.00 C 207.33 236.00 220.67 236.00 234.00 236.00 C 234.00 239.33 234.00 242.67 234.00 246.00 L 194.00 246.00 C 194.00 242.67 194.00 239.33 194.00 236.00 Z" />
</g>
</g>

<g xmlns="http://www.w3.org/2000/svg" class="sprite" id="icon">
<g id="#ffffffff">
<path fill="#ffffff" opacity="1.00" d=" M 11.00 0.00 L 56.00 0.00 C 56.00 3.33 56.00 6.67 56.00 10.00 C 44.33 10.00 32.67 10.00 21.00 10.00 C 21.00 19.67 21.00 29.33 21.00 39.00 C 17.67 39.00 14.33 39.00 11.00 39.00 C 11.00 26.00 11.00 13.00 11.00 0.00 Z" />
<path fill="#ffffff" opacity="1.00" d=" M 86.00 0.00 L 126.00 0.00 C 126.00 3.33 126.00 6.67 126.00 10.00 C 112.67 10.00 99.33 10.00 86.00 10.00 C 86.00 6.67 86.00 3.33 86.00 0.00 Z" />
<path fill="#ffffff" opacity="1.00" d=" M 156.00 0.00 L 196.00 0.00 C 196.00 3.33 196.00 6.67 196.00 10.00 C 182.67 10.00 169.33 10.00 156.00 10.00 C 156.00 6.67 156.00 3.33 156.00 0.00 Z" />
<path fill="#ffffff" opacity="1.00" d=" M 226.00 0.00 L 257.00 0.00 C 257.00 6.33 257.00 12.67 257.00 19.00 C 253.67 19.00 250.33 19.00 247.00 19.00 C 247.00 16.00 247.00 13.00 247.00 10.00 C 240.00 10.00 233.00 10.00 226.00 10.00 C 226.00 6.67 226.00 3.33 226.00 0.00 Z" />
<path fill="#ffffff" opacity="1.00" d=" M 247.00 49.00 C 250.33 49.00 253.66 49.00 257.00 49.00 C 257.00 62.33 257.00 75.67 257.00 89.00 C 253.66 89.00 250.33 89.00 247.00 89.00 C 247.00 75.67 247.00 62.33 247.00 49.00 Z" />
<path fill="#ffffff" opacity="1.00" d=" M 11.00 69.00 C 14.33 69.00 17.67 69.00 21.00 69.00 C 21.00 82.33 21.00 95.67 21.00 109.00 C 17.67 109.00 14.33 109.00 11.00 109.00 C 11.00 95.67 11.00 82.33 11.00 69.00 Z" />
<path fill="#ffffff" opacity="1.00" d=" M 57.95 121.14 C 60.73 115.57 66.68 111.52 73.03 111.93 C 77.84 111.78 81.99 114.64 85.39 117.73 C 86.68 117.78 87.98 117.83 89.27 117.90 C 88.56 118.70 87.84 119.50 87.12 120.30 C 87.55 120.36 88.39 120.47 88.82 120.53 C 88.34 123.39 88.44 126.30 88.56 129.19 C 88.64 130.61 88.76 132.10 88.06 133.39 C 86.94 133.14 85.91 132.67 84.97 131.96 C 85.34 131.70 86.08 131.17 86.45 130.90 C 85.82 128.08 85.01 124.90 86.51 122.20 C 83.54 120.27 81.77 116.80 78.38 115.50 C 76.62 114.82 74.80 114.31 73.03 113.66 C 69.78 114.62 66.03 114.93 63.64 117.62 C 61.12 119.91 59.76 123.07 58.78 126.26 C 58.65 128.01 58.52 129.76 58.47 131.52 C 58.61 132.37 58.73 133.23 58.83 134.09 C 59.27 135.35 59.83 136.56 60.51 137.70 L 60.17 138.36 C 61.49 139.85 62.76 141.39 64.00 142.95 C 67.23 145.51 71.42 146.46 75.45 145.59 C 78.69 144.43 81.18 141.91 83.37 139.35 C 84.17 137.97 85.40 136.95 86.66 136.00 C 86.29 135.45 85.56 134.35 85.19 133.80 C 86.08 133.77 87.85 133.71 88.74 133.67 C 88.26 136.15 89.03 138.80 88.12 141.17 C 87.18 140.95 86.25 140.71 85.33 140.45 C 82.36 144.73 77.52 148.33 72.08 147.95 C 68.26 148.32 65.01 146.11 62.01 144.08 C 61.37 143.30 60.74 142.53 60.10 141.76 C 57.64 138.98 56.09 135.29 56.15 131.55 C 55.45 129.08 56.27 126.55 56.55 124.09 C 57.11 124.23 58.24 124.51 58.81 124.65 C 57.53 123.67 56.49 122.57 57.95 121.14 Z" />
<path fill="#ffffff" opacity="1.00" d=" M 85.35 112.38 C 86.49 112.21 87.64 112.06 88.79 111.94 C 88.52 113.36 88.17 114.83 88.89 116.19 C 87.90 118.20 86.13 117.06 85.00 115.86 L 86.81 114.83 C 86.29 114.03 85.81 113.21 85.35 112.38 Z" />
<path fill="#ffffff" opacity="1.00" d=" M 102.41 114.28 C 106.97 110.74 113.65 111.52 118.81 113.24 C 119.42 114.92 121.17 115.81 121.65 117.56 C 122.05 117.64 122.86 117.78 123.27 117.86 C 123.04 118.28 122.59 119.14 122.36 119.56 C 122.87 120.27 123.89 121.67 124.40 122.38 C 123.62 122.34 122.04 122.25 121.25 122.21 C 120.72 120.07 119.70 118.11 118.16 116.53 L 118.74 115.51 C 115.98 114.20 112.98 113.55 109.92 113.82 C 105.95 113.44 103.20 116.74 99.89 118.29 C 99.17 117.77 98.47 117.23 97.79 116.67 C 99.35 115.91 100.89 115.13 102.41 114.28 Z" />
<path fill="#ffffff" opacity="1.00" d=" M 134.09 112.30 C 135.04 111.11 137.98 112.17 136.76 113.76 C 135.82 114.97 132.86 113.87 134.09 112.30 Z" />
<path fill="#ffffff" opacity="1.00" d=" M 138.63 116.77 C 141.76 115.33 144.16 112.30 147.80 112.06 C 150.98 111.56 153.91 113.12 156.65 114.50 C 157.36 115.13 158.07 115.76 158.79 116.38 C 159.30 117.86 159.82 119.34 160.33 120.82 C 161.14 120.82 162.75 120.81 163.55 120.81 C 161.55 123.17 160.84 126.13 161.11 129.18 C 160.32 129.15 158.73 129.09 157.94 129.05 C 158.15 127.61 158.39 126.17 158.65 124.74 C 157.49 120.78 156.60 115.28 151.57 114.68 C 147.80 113.18 144.46 115.42 141.50 117.48 C 140.91 118.65 140.58 120.32 138.89 120.09 C 136.67 118.86 139.67 117.52 140.74 116.87 L 138.63 116.77 Z" />
<path fill="#ffffff" opacity="1.00" d=" M 168.41 112.93 C 172.13 111.50 176.15 111.91 179.62 113.83 C 180.74 114.62 181.84 115.44 182.93 116.27 C 183.43 117.96 183.98 119.64 184.58 121.31 C 184.61 122.69 184.63 124.07 184.65 125.46 C 185.45 126.41 186.14 129.83 183.90 129.18 C 181.58 129.76 182.43 126.91 182.40 125.63 C 181.69 122.18 181.66 117.91 178.47 115.69 C 175.02 114.01 170.40 113.39 167.48 116.42 C 165.21 117.63 163.38 122.44 160.87 119.00 C 162.18 118.38 163.51 117.77 164.78 117.04 L 162.76 116.69 C 164.81 115.70 166.70 114.42 168.41 112.93 Z" />
<path fill="#ffffff" opacity="1.00" d=" M 199.21 116.69 C 203.63 110.27 215.35 110.20 219.74 116.62 C 220.30 116.70 221.41 116.87 221.96 116.96 C 221.74 117.44 221.29 118.40 221.06 118.89 C 221.67 118.94 222.90 119.06 223.51 119.12 C 223.51 119.54 223.51 120.37 223.50 120.79 C 224.54 121.80 225.21 123.09 225.92 124.34 C 226.15 126.55 226.37 128.77 226.54 130.99 C 215.32 130.83 204.08 130.63 192.86 131.14 C 192.43 128.77 192.93 126.37 193.13 124.00 C 193.52 123.94 194.29 123.81 194.68 123.74 L 194.12 122.04 C 194.51 121.76 195.30 121.18 195.69 120.89 C 195.64 120.46 195.55 119.59 195.50 119.15 C 196.11 119.09 197.32 118.95 197.93 118.88 C 197.71 118.40 197.26 117.42 197.04 116.93 C 197.58 116.87 198.67 116.75 199.21 116.69 M 197.32 121.51 C 196.38 124.06 195.83 126.80 194.33 129.12 C 204.25 128.98 214.16 129.00 224.08 129.09 C 223.38 125.61 222.13 122.26 220.18 119.28 C 217.34 116.77 214.16 113.69 210.04 114.08 C 204.60 113.41 200.42 117.61 197.32 121.51 Z" />
<path fill="#ffffff" opacity="1.00" d=" M 134.16 114.90 C 134.92 114.90 136.45 114.89 137.21 114.89 C 137.01 116.58 137.22 118.63 135.65 119.77 C 136.83 120.43 138.03 121.05 139.25 121.63 C 138.35 122.49 137.42 123.32 136.51 124.16 C 136.71 125.83 136.87 127.50 137.04 129.18 C 136.23 129.16 134.61 129.11 133.80 129.09 C 134.09 126.81 134.21 124.51 133.90 122.23 C 134.42 122.35 135.45 122.59 135.97 122.71 C 135.27 122.20 134.56 121.69 133.86 121.19 C 134.20 119.11 134.25 117.00 134.16 114.90 Z" />
<path fill="#ffffff" opacity="1.00" d=" M 247.00 119.00 C 250.33 119.00 253.67 119.00 257.00 119.00 C 257.00 132.33 257.00 145.67 257.00 159.00 C 253.66 159.00 250.33 159.00 247.00 159.00 C 247.00 145.67 247.00 132.33 247.00 119.00 Z" />
<path fill="#ffffff" opacity="1.00" d=" M 121.55 123.22 C 122.43 122.23 125.23 123.14 124.08 124.58 C 123.20 125.59 120.46 124.64 121.55 123.22 Z" />
<path fill="#ffffff" opacity="1.00" d=" M 121.45 125.48 C 122.28 125.49 123.95 125.51 124.78 125.52 C 124.74 127.92 124.16 130.21 121.56 130.86 C 122.29 130.94 123.74 131.10 124.47 131.18 C 124.27 134.37 124.43 137.59 124.10 140.78 C 123.51 140.97 122.33 141.35 121.74 141.54 C 122.67 141.65 123.60 141.75 124.54 141.87 C 125.41 143.79 126.59 145.53 127.85 147.21 C 127.18 147.42 125.84 147.83 125.17 148.03 C 123.61 146.61 123.00 143.95 121.11 143.11 C 118.96 144.68 116.68 146.06 114.33 147.30 C 111.01 147.90 107.58 148.36 104.22 147.81 C 101.18 146.98 98.99 144.52 96.79 142.42 C 100.00 139.66 101.56 145.02 104.54 145.63 C 110.92 147.71 118.08 143.93 121.83 138.76 C 121.60 136.39 121.52 134.02 121.58 131.65 C 114.74 128.20 104.93 127.30 99.39 133.54 C 99.02 135.27 98.58 136.99 98.09 138.70 C 98.55 139.02 99.48 139.67 99.95 139.99 C 99.24 140.37 97.83 141.11 97.12 141.48 C 96.06 140.34 96.18 138.62 95.76 137.19 C 96.20 136.28 96.41 135.31 96.41 134.29 C 97.58 133.57 97.92 132.33 98.12 131.05 C 98.61 131.03 99.60 130.98 100.10 130.96 C 100.11 130.53 100.12 129.67 100.13 129.25 C 103.39 128.28 106.61 127.09 110.01 126.76 C 113.58 126.58 116.96 127.97 120.37 128.78 C 122.33 129.18 121.89 126.60 121.45 125.48 Z" />
<path fill="#ffffff" opacity="1.00" d=" M 133.76 129.91 C 134.57 129.96 136.19 130.05 137.00 130.09 C 135.98 133.36 136.91 136.79 136.91 140.13 C 136.16 140.14 134.66 140.15 133.91 140.15 C 134.05 138.66 134.16 137.17 134.25 135.68 C 134.23 133.72 134.82 131.75 133.76 129.91 Z" />
<path fill="#ffffff" opacity="1.00" d=" M 158.30 130.25 C 159.25 129.04 162.16 130.17 160.95 131.74 C 160.00 132.95 157.10 131.82 158.30 130.25 Z" />
<path fill="#ffffff" opacity="1.00" d=" M 181.46 131.32 C 182.31 129.28 187.33 129.71 184.57 132.06 C 185.08 132.54 185.60 133.02 186.12 133.50 C 185.73 133.89 184.95 134.67 184.56 135.06 C 185.50 136.77 185.50 138.72 184.58 140.45 C 185.59 142.76 185.48 145.38 185.04 147.81 C 184.55 147.87 183.57 148.00 183.08 148.06 C 181.55 145.84 182.77 142.91 182.61 140.40 C 182.49 138.21 182.48 136.02 182.42 133.82 C 182.73 133.07 183.04 132.32 183.35 131.56 L 181.46 131.32 Z" />
<path fill="#ffffff" opacity="1.00" d=" M 192.33 131.70 C 193.11 131.73 194.68 131.79 195.46 131.82 C 195.70 134.58 196.57 137.26 198.18 139.54 C 199.06 140.59 199.97 141.61 200.90 142.63 C 201.78 143.18 202.65 143.74 203.52 144.32 C 205.15 145.08 206.78 145.84 208.39 146.65 C 213.11 146.40 217.16 144.00 220.80 141.18 C 220.73 140.70 220.58 139.74 220.51 139.26 C 221.72 139.30 222.93 139.35 224.15 139.40 C 221.77 143.66 217.75 146.73 213.03 147.93 C 210.66 147.89 208.30 147.88 205.94 147.92 C 202.71 146.33 199.45 144.62 197.00 141.92 C 194.77 138.86 192.95 135.48 192.33 131.70 Z" />
<path fill="#ffffff" opacity="1.00" d=" M 158.17 132.92 C 158.93 132.90 160.44 132.85 161.20 132.83 C 160.48 136.23 161.00 139.68 160.89 143.11 C 160.37 143.18 159.32 143.32 158.80 143.39 C 157.79 141.24 158.50 138.78 158.43 136.51 C 158.36 135.31 158.26 134.11 158.17 132.92 Z" />
<path fill="#ffffff" opacity="1.00" d=" M 11.00 139.00 C 14.33 139.00 17.67 139.00 21.00 139.00 C 21.00 152.33 21.00 165.67 21.00 179.00 C 17.67 179.00 14.33 179.00 11.00 179.00 C 11.00 165.67 11.00 152.33 11.00 139.00 Z" />
<path fill="#ffffff" opacity="1.00" d=" M 45.79 140.95 C 46.51 140.99 47.96 141.08 48.68 141.12 C 48.32 143.42 49.23 146.00 48.02 148.10 C 44.08 148.35 46.27 143.27 45.79 140.95 Z" />
<path fill="#ffffff" opacity="1.00" d=" M 133.89 140.90 C 134.64 140.90 136.14 140.90 136.89 140.90 C 136.83 143.15 136.89 145.41 136.65 147.65 C 136.05 147.78 134.84 148.03 134.24 148.15 C 134.18 145.73 134.09 143.31 133.89 140.90 Z" />
<path fill="#ffffff" opacity="1.00" d=" M 85.57 141.46 C 86.40 141.53 88.06 141.65 88.89 141.71 C 88.69 142.77 88.49 143.83 88.28 144.88 C 88.16 146.02 88.21 147.16 88.58 148.26 C 89.29 155.90 82.21 162.31 74.79 162.07 C 74.35 162.30 73.47 162.77 73.03 163.00 C 69.65 161.79 66.01 161.69 62.54 160.80 C 60.39 158.36 57.90 156.23 56.00 153.58 C 57.59 153.23 59.91 152.04 59.86 154.66 C 61.25 155.80 62.49 157.11 63.45 158.64 C 66.53 159.58 69.70 160.10 72.87 160.65 C 76.18 160.08 79.62 159.39 82.35 157.29 C 84.01 155.78 84.73 153.58 85.69 151.63 C 85.96 148.24 86.04 144.84 85.57 141.46 Z" />
<path fill="#ffffff" opacity="1.00" d=" M 157.93 143.63 C 158.80 143.61 160.53 143.57 161.40 143.55 C 161.27 145.00 161.10 146.45 160.89 147.89 C 157.99 149.07 158.03 145.45 157.93 143.63 Z" />
<path fill="#ffffff" opacity="1.00" d=" M 247.00 189.00 C 250.33 189.00 253.66 189.00 257.00 189.00 C 257.00 202.33 257.00 215.67 257.00 229.00 C 253.66 229.00 250.33 229.00 247.00 229.00 C 247.00 215.67 247.00 202.33 247.00 189.00 Z" />
<path fill="#ffffff" opacity="1.00" d=" M 11.00 209.00 C 14.33 209.00 17.67 209.00 21.00 209.00 C 21.00 217.99 21.00 226.98 21.00 235.97 C 21.75 235.99 23.25 236.01 24.00 236.03 C 24.00 239.35 24.00 242.67 24.00 246.00 L 11.00 246.00 C 11.00 233.67 11.00 221.33 11.00 209.00 Z" />
<path fill="#ffffff" opacity="1.00" d=" M 54.00 236.00 C 67.33 236.00 80.67 236.00 94.00 236.00 C 94.00 239.33 94.00 242.67 94.00 246.00 L 54.00 246.00 C 54.00 242.67 54.00 239.33 54.00 236.00 Z" />
<path fill="#ffffff" opacity="1.00" d=" M 124.00 236.00 C 137.33 236.00 150.67 236.00 164.00 236.00 C 164.00 239.33 164.00 242.67 164.00 246.00 L 124.00 246.00 C 124.00 242.67 124.00 239.33 124.00 236.00 Z" />
<path fill="#ffffff" opacity="1.00" d=" M 194.00 236.00 C 207.33 236.00 220.67 236.00 234.00 236.00 C 234.00 239.33 234.00 242.67 234.00 246.00 L 194.00 246.00 C 194.00 242.67 194.00 239.33 194.00 236.00 Z" />
</g>
</g>


<defs xmlns="http://www.w3.org/2000/svg">
    <style><![CDATA[
        .sprite { display: none; }
        .sprite:target { display: inline; }
    ]]></style>
</defs>
</svg>
