<?xml version="1.0" encoding="UTF-8" ?><!DOCTYPE svg PUBLIC "-//W3C//DTD SVG 1.1//EN" "http://www.w3.org/Graphics/SVG/1.1/DTD/svg11.dtd"><svg xmlns="http://www.w3.org/2000/svg" width="806px" height="806px" viewbox="0 0 806 806" version="1.1"><path fill="transparent" d=" M 0.00 0.00 L 806.00 0.00 L 806.00 400.86 C 805.64 369.09 801.98 337.31 794.29 306.46 C 785.07 268.77 770.11 232.60 751.31 198.70 C 740.50 179.48 727.99 161.14 713.24 144.71 C 692.88 122.76 672.14 100.87 647.97 83.04 C 617.10 59.46 582.87 40.28 546.57 26.44 C 464.95 -4.85 373.05 -8.29 289.23 16.42 C 214.66 38.20 146.86 82.33 96.55 141.51 C 49.28 196.60 17.39 264.76 5.61 336.40 C 2.19 356.97 0.45 377.79 0.00 398.63 L 0.00 0.00 Z"/><path fill="#464646" d=" M 289.23 16.42 C 373.05 -8.29 464.95 -4.85 546.57 26.44 C 582.87 40.28 617.10 59.46 647.97 83.04 C 672.14 100.87 692.88 122.76 713.24 144.71 C 727.99 161.14 740.50 179.48 751.31 198.70 C 770.11 232.60 785.07 268.77 794.29 306.46 C 801.98 337.31 805.64 369.09 806.00 400.86 L 806.00 405.28 C 805.60 447.49 798.98 489.70 785.60 529.77 C 775.96 559.14 762.65 587.25 746.64 613.67 C 713.91 666.99 668.55 712.45 615.44 745.49 C 584.48 764.63 550.99 779.78 516.00 789.87 C 480.05 800.48 442.60 805.62 405.15 806.00 L 400.71 806.00 C 365.76 805.61 330.79 801.15 297.07 791.85 C 221.72 771.53 152.77 728.44 101.20 669.91 C 76.93 642.28 55.40 612.02 39.38 578.84 C 30.31 560.90 23.53 541.95 17.17 522.92 C 6.49 488.39 0.73 452.36 0.00 416.23 L 0.00 398.63 C 0.45 377.79 2.19 356.97 5.61 336.40 C 17.39 264.76 49.28 196.60 96.55 141.51 C 146.86 82.33 214.66 38.20 289.23 16.42 Z"/><path fill="#41b349" d=" M 394.33 49.43 C 422.83 47.79 451.26 52.34 479.02 58.38 C 512.36 65.89 544.93 76.79 576.08 90.83 C 595.10 99.74 613.66 109.90 630.36 122.71 C 641.72 131.59 652.56 141.77 659.45 154.60 C 664.01 162.93 665.41 173.14 662.13 182.16 C 657.59 194.71 648.16 204.70 638.34 213.39 C 611.82 235.74 579.99 250.59 547.83 262.90 C 508.87 277.42 468.27 287.89 426.92 292.54 C 398.27 295.91 369.34 292.99 341.03 288.22 C 302.50 281.61 264.61 271.11 228.36 256.48 C 208.97 248.49 190.00 239.21 172.65 227.36 C 162.72 220.48 153.27 212.69 145.75 203.18 C 140.60 196.50 136.31 188.62 136.09 180.01 C 135.93 171.46 139.69 163.42 144.41 156.50 C 150.52 147.72 158.16 140.09 166.39 133.29 C 191.59 112.86 220.89 98.20 250.71 85.76 C 268.65 78.41 286.99 72.05 305.59 66.57 C 334.55 58.18 364.20 51.61 394.33 49.43 Z"/><path fill="#708fc5" d=" M 701.26 197.42 C 713.06 215.09 723.18 233.87 731.50 253.43 C 737.92 267.99 742.66 283.20 747.39 298.37 C 767.36 367.50 766.83 442.46 745.34 511.17 C 734.91 545.85 719.66 579.22 699.11 609.11 C 688.97 623.63 677.62 637.51 663.94 648.86 C 658.08 653.58 651.76 658.02 644.54 660.36 C 638.82 662.21 633.07 659.36 628.03 656.90 C 611.41 647.97 598.23 634.01 586.27 619.68 C 564.46 592.56 547.74 561.48 536.08 528.75 C 520.93 487.70 513.89 443.71 515.24 399.99 C 516.22 370.84 520.75 341.82 528.66 313.76 C 567.81 301.62 606.29 286.09 640.85 263.82 C 655.93 253.96 670.18 242.61 682.03 228.99 C 690.08 219.60 696.97 209.07 701.26 197.42 Z"/><path fill="#da4a37" d=" M 61.49 296.58 C 71.25 266.68 84.88 238.05 101.74 211.50 C 107.19 222.66 114.84 232.66 123.67 241.37 C 138.92 256.34 156.95 268.16 175.72 278.21 C 202.66 292.64 231.42 303.30 260.55 312.36 C 276.80 388.65 271.86 469.16 247.27 543.12 C 236.89 573.84 223.19 603.76 203.99 630.01 C 196.16 640.34 187.58 650.50 176.57 657.56 C 172.78 659.91 168.17 662.14 163.71 660.27 C 152.47 656.31 143.02 648.63 134.30 640.73 C 106.44 614.47 86.04 581.23 70.61 546.43 C 61.61 524.99 54.10 502.85 49.38 480.05 C 36.25 419.31 41.22 355.18 61.49 296.58 Z"/><path fill="#f6ca38" d=" M 305.40 323.99 C 346.77 332.99 389.46 339.09 431.81 334.28 C 448.80 332.38 465.70 329.53 482.40 325.85 C 467.34 393.71 470.44 465.70 492.66 531.64 C 505.82 572.35 525.75 611.02 552.38 644.57 C 569.24 665.32 588.84 684.79 613.21 696.48 C 585.06 716.63 554.06 732.87 521.30 744.11 C 435.52 774.11 338.34 769.99 255.53 732.52 C 233.47 722.69 212.46 710.52 192.84 696.45 C 207.06 689.28 218.70 677.98 229.01 666.02 C 253.65 636.60 270.73 601.63 283.86 565.78 C 311.17 488.72 319.15 404.67 305.40 323.99 Z"/></svg>