<?xml version="1.0" encoding="UTF-8" ?>
<!DOCTYPE svg PUBLIC "-//W3C//DTD SVG 1.1//EN" "http://www.w3.org/Graphics/SVG/1.1/DTD/svg11.dtd">
<svg width="234pt" height="234pt" viewBox="0 0 234 234" version="1.1" xmlns="http://www.w3.org/2000/svg">
<g id="#ffffffff">
</g>
<g id="#5f83ceff">
<path fill="#5f83ce" opacity="1.00" d=" M 0.00 15.08 C 2.03 8.41 7.35 2.70 14.05 0.64 C 17.97 -0.18 21.99 0.29 25.96 0.21 C 89.30 0.20 152.64 0.24 215.98 0.20 C 224.45 0.20 231.45 7.23 234.00 14.90 L 234.00 73.68 C 232.33 63.42 233.01 52.98 232.61 42.63 C 221.64 43.52 210.57 43.57 199.59 42.87 C 199.23 41.05 198.86 39.24 198.42 37.45 C 198.15 37.32 197.60 37.08 197.32 36.95 C 184.57 35.32 171.54 34.07 158.74 35.83 C 157.25 35.39 155.72 34.66 154.15 35.13 C 148.78 36.17 143.56 38.49 138.00 38.09 C 131.99 37.63 125.98 38.65 119.98 38.07 C 113.74 37.49 107.50 38.00 101.27 38.34 C 83.18 38.09 65.11 38.25 47.02 37.99 C 31.77 38.91 16.50 37.04 1.26 38.22 C 0.88 45.17 1.01 52.13 0.96 59.09 C 0.91 64.92 1.07 70.78 0.00 76.53 L 0.00 15.08 Z" />
</g>
<g id="#587bc4ff">
<path fill="#587bc4" opacity="1.00" d=" M 138.00 38.09 C 143.56 38.49 148.78 36.17 154.15 35.13 C 155.72 34.66 157.25 35.39 158.74 35.83 C 151.44 37.24 144.59 40.44 138.75 45.02 C 131.68 46.74 129.07 54.56 123.58 58.57 C 119.83 59.60 115.86 59.08 112.02 59.16 C 75.00 59.04 37.98 59.22 0.96 59.09 C 1.01 52.13 0.88 45.17 1.26 38.22 C 16.50 37.04 31.77 38.91 47.02 37.99 C 65.11 38.25 83.18 38.09 101.27 38.34 C 107.50 38.00 113.74 37.49 119.98 38.07 C 125.98 38.65 131.99 37.63 138.00 38.09 Z" />
</g>
<g id="#fdfdffff">
<path fill="#fdfdff" opacity="1.00" d=" M 158.74 35.83 C 171.54 34.07 184.57 35.32 197.32 36.95 C 197.32 47.43 197.30 57.91 197.28 68.39 C 189.22 68.54 181.11 67.93 173.08 68.77 C 167.96 69.22 162.61 72.05 161.13 77.30 C 159.47 88.04 160.93 98.99 160.24 109.81 C 172.52 110.16 184.82 110.05 197.11 109.87 L 196.96 111.08 C 184.44 111.06 171.90 111.56 159.40 110.88 C 159.22 109.61 159.07 108.34 158.93 107.06 C 158.95 99.74 159.31 92.41 158.74 85.09 C 147.93 84.78 137.09 84.72 126.28 85.15 C 125.75 92.43 125.95 99.73 126.13 107.02 C 126.02 108.29 125.89 109.56 125.74 110.83 C 115.71 111.76 105.63 110.71 95.58 111.31 C 95.18 112.48 94.77 113.65 94.36 114.82 C 94.10 113.20 93.85 111.58 93.58 109.97 C 103.93 110.05 114.28 109.98 124.63 110.00 C 124.71 98.40 124.31 86.79 124.84 75.20 C 126.00 63.97 130.21 52.72 138.75 45.02 C 144.59 40.44 151.44 37.24 158.74 35.83 Z" />
</g>
<g id="#5274bcff">
<path fill="#5274bc" opacity="1.00" d=" M 197.32 36.95 C 197.60 37.08 198.15 37.32 198.42 37.45 C 198.86 39.24 199.23 41.05 199.59 42.87 C 210.57 43.57 221.64 43.52 232.61 42.63 C 233.01 52.98 232.33 63.42 234.00 73.68 L 234.00 123.89 C 233.32 120.42 232.96 116.88 233.08 113.34 C 233.18 104.43 232.93 95.53 232.80 86.63 C 220.22 87.44 207.62 86.80 195.03 86.94 C 184.16 86.82 173.28 87.43 162.43 86.80 C 162.27 83.60 161.92 80.41 161.13 77.30 C 162.61 72.05 167.96 69.22 173.08 68.77 C 181.11 67.93 189.22 68.54 197.28 68.39 C 197.30 57.91 197.32 47.43 197.32 36.95 Z" />
</g>
<g id="#5173baff">
<path fill="#5173ba" opacity="1.00" d=" M 123.58 58.57 C 129.07 54.56 131.68 46.74 138.75 45.02 C 130.21 52.72 126.00 63.97 124.84 75.20 C 121.05 78.56 122.47 84.14 121.81 88.61 C 121.36 90.66 120.80 92.68 120.29 94.72 C 88.55 95.05 56.79 94.71 25.03 94.85 C 17.11 95.00 9.17 94.47 1.25 95.05 C 0.91 99.73 0.92 104.43 1.08 109.11 C 1.07 115.93 1.19 122.80 0.00 129.54 L 0.00 76.53 C 1.07 70.78 0.91 64.92 0.96 59.09 C 37.98 59.22 75.00 59.04 112.02 59.16 C 115.86 59.08 119.83 59.60 123.58 58.57 Z" />
</g>
<g id="#4464a8ff">
<path fill="#4464a8" opacity="1.00" d=" M 121.81 88.61 C 122.47 84.14 121.05 78.56 124.84 75.20 C 124.31 86.79 124.71 98.40 124.63 110.00 C 114.28 109.98 103.93 110.05 93.58 109.97 C 93.54 110.13 93.45 110.45 93.40 110.62 C 92.65 112.88 92.07 115.20 91.84 117.58 C 90.32 126.83 91.26 136.29 89.43 145.51 C 86.30 145.79 83.15 145.99 80.01 145.92 C 53.77 145.61 27.52 146.23 1.28 145.66 C 1.10 155.87 0.67 166.08 0.85 176.29 C 0.92 179.41 0.53 182.52 0.00 185.60 L 0.00 129.54 C 1.19 122.80 1.07 115.93 1.08 109.11 C 27.72 109.19 54.36 109.08 81.00 109.19 C 86.04 109.14 91.01 108.10 96.04 108.00 C 104.26 107.86 112.49 108.49 120.69 107.80 C 121.75 101.46 122.51 95.03 121.81 88.61 Z" />
</g>
<g id="#4b6cb2ff">
<path fill="#4b6cb2" opacity="1.00" d=" M 161.13 77.30 C 161.92 80.41 162.27 83.60 162.43 86.80 C 173.28 87.43 184.16 86.82 195.03 86.94 C 207.62 86.80 220.22 87.44 232.80 86.63 C 232.93 95.53 233.18 104.43 233.08 113.34 C 225.13 114.13 217.14 113.22 209.19 113.74 C 206.01 113.95 202.81 113.92 199.65 113.54 C 199.24 112.51 198.83 111.48 198.43 110.45 C 197.88 110.98 197.34 111.52 196.80 112.06 L 196.96 111.08 L 197.11 109.87 C 194.96 108.56 192.37 108.75 189.96 108.70 C 181.31 108.74 172.66 108.88 164.00 108.65 C 162.62 108.49 161.37 109.08 160.24 109.81 C 160.93 98.99 159.47 88.04 161.13 77.30 Z" />
</g>
<g id="#f5f7fcff">
<path fill="#f5f7fc" opacity="1.00" d=" M 126.28 85.15 C 137.09 84.72 147.93 84.78 158.74 85.09 C 159.31 92.41 158.95 99.74 158.93 107.06 C 148.00 107.14 137.06 107.08 126.13 107.02 C 125.95 99.73 125.75 92.43 126.28 85.15 Z" />
</g>
<g id="#4b6cb1ff">
<path fill="#4b6cb1" opacity="1.00" d=" M 120.29 94.72 C 120.80 92.68 121.36 90.66 121.81 88.61 C 122.51 95.03 121.75 101.46 120.69 107.80 C 112.49 108.49 104.26 107.86 96.04 108.00 C 91.01 108.10 86.04 109.14 81.00 109.19 C 54.36 109.08 27.72 109.19 1.08 109.11 C 0.92 104.43 0.91 99.73 1.25 95.05 C 9.17 94.47 17.11 95.00 25.03 94.85 C 56.79 94.71 88.55 95.05 120.29 94.72 Z" />
</g>
<g id="#edf1faff">
<path fill="#edf1fa" opacity="1.00" d=" M 126.13 107.02 C 137.06 107.08 148.00 107.14 158.93 107.06 C 159.07 108.34 159.22 109.61 159.40 110.88 C 171.90 111.56 184.44 111.06 196.96 111.08 L 196.80 112.06 C 195.56 119.51 194.14 126.93 193.01 134.40 C 192.36 137.62 191.77 140.86 191.35 144.13 C 181.22 143.88 171.07 144.01 160.94 144.04 L 160.44 144.08 C 160.44 162.90 160.49 181.72 160.34 200.53 C 157.90 191.96 159.75 182.90 158.71 174.12 C 147.93 173.48 137.07 173.60 126.28 174.06 C 125.46 182.19 127.08 190.60 124.66 198.52 C 124.51 180.34 124.55 162.17 124.57 144.00 C 114.20 144.00 103.83 144.00 93.46 143.99 C 93.47 132.87 93.47 121.74 93.40 110.62 C 93.45 110.45 93.54 110.13 93.58 109.97 C 93.85 111.58 94.10 113.20 94.36 114.82 C 94.77 113.65 95.18 112.48 95.58 111.31 C 105.63 110.71 115.71 111.76 125.74 110.83 C 125.89 109.56 126.02 108.29 126.13 107.02 Z" />
</g>
<g id="#395ca2ff">
<path fill="#395ca2" opacity="1.00" d=" M 160.24 109.81 C 161.37 109.08 162.62 108.49 164.00 108.65 C 172.66 108.88 181.31 108.74 189.96 108.70 C 192.37 108.75 194.96 108.56 197.11 109.87 C 184.82 110.05 172.52 110.16 160.24 109.81 Z" />
</g>
<g id="#4363a6ff">
<path fill="#4363a6" opacity="1.00" d=" M 196.80 112.06 C 197.34 111.52 197.88 110.98 198.43 110.45 C 198.83 111.48 199.24 112.51 199.65 113.54 C 202.81 113.92 206.01 113.95 209.19 113.74 C 217.14 113.22 225.13 114.13 233.08 113.34 C 232.96 116.88 233.32 120.42 234.00 123.89 L 234.00 184.70 C 232.70 177.22 232.88 169.60 232.89 162.03 C 233.03 156.56 233.05 151.08 232.79 145.61 C 219.58 145.98 206.35 146.18 193.14 145.77 C 193.47 141.99 193.79 138.15 193.01 134.40 C 194.14 126.93 195.56 119.51 196.80 112.06 Z" />
</g>
<g id="#2f4c89ff">
<path fill="#2f4c89" opacity="1.00" d=" M 91.84 117.58 C 92.07 115.20 92.65 112.88 93.40 110.62 C 93.47 121.74 93.47 132.87 93.46 143.99 C 103.83 144.00 114.20 144.00 124.57 144.00 C 124.55 162.17 124.51 180.34 124.66 198.52 C 124.41 210.34 124.68 222.17 124.56 234.00 L 14.93 234.00 C 7.35 231.67 1.36 225.07 0.00 217.22 L 0.00 215.62 C 0.42 213.37 0.96 211.15 1.38 208.91 C 3.52 209.47 5.70 209.98 7.92 210.03 C 42.62 210.00 77.32 209.90 112.02 209.99 C 114.85 210.02 117.68 209.80 120.50 209.52 C 121.38 200.34 123.03 191.21 122.84 181.95 C 122.74 171.86 123.67 161.76 122.83 151.68 C 122.84 149.58 122.82 147.47 122.80 145.37 C 112.63 144.77 102.41 145.90 92.27 144.74 C 91.66 135.69 93.13 126.60 91.84 117.58 Z" />
</g>
<g id="#3c5b9cff">
<path fill="#3c5b9c" opacity="1.00" d=" M 89.43 145.51 C 91.26 136.29 90.32 126.83 91.84 117.58 C 93.13 126.60 91.66 135.69 92.27 144.74 C 102.41 145.90 112.63 144.77 122.80 145.37 C 122.82 147.47 122.84 149.58 122.83 151.68 C 121.27 159.95 122.27 168.44 120.61 176.69 C 111.09 177.49 101.53 176.64 92.00 177.04 C 69.99 177.15 47.98 176.78 25.98 177.05 C 17.60 176.53 9.15 177.91 0.85 176.29 C 0.67 166.08 1.10 155.87 1.28 145.66 C 27.52 146.23 53.77 145.61 80.01 145.92 C 83.15 145.99 86.30 145.79 89.43 145.51 Z" />
</g>
<g id="#3d5d9eff">
<path fill="#3d5d9e" opacity="1.00" d=" M 193.01 134.40 C 193.79 138.15 193.47 141.99 193.14 145.77 C 206.35 146.18 219.58 145.98 232.79 145.61 C 233.05 151.08 233.03 156.56 232.89 162.03 C 214.59 162.27 196.29 162.13 177.99 162.13 C 172.76 162.22 167.53 162.35 162.32 161.85 C 161.94 156.27 162.01 150.67 162.03 145.08 C 169.36 145.15 176.69 145.05 184.02 145.17 C 186.50 145.24 188.98 144.87 191.35 144.13 C 191.77 140.86 192.36 137.62 193.01 134.40 Z" />
</g>
<g id="#2f4d8bff">
<path fill="#2f4d8b" opacity="1.00" d=" M 160.44 144.08 L 160.94 144.04 L 160.94 145.08 C 160.80 163.99 162.09 182.86 162.37 201.76 C 185.81 202.19 209.27 201.45 232.70 202.15 C 232.71 206.67 232.83 211.24 234.00 215.64 L 234.00 218.85 C 232.19 225.93 226.52 233.05 218.93 234.00 L 160.42 234.00 C 160.34 222.84 160.57 211.69 160.34 200.53 C 160.49 181.72 160.44 162.90 160.44 144.08 Z" />
</g>
<g id="#1f4488ff">
<path fill="#1f4488" opacity="1.00" d=" M 160.94 144.04 C 171.07 144.01 181.22 143.88 191.35 144.13 C 188.98 144.87 186.50 145.24 184.02 145.17 C 176.69 145.05 169.36 145.15 162.03 145.08 L 160.94 145.08 L 160.94 144.04 Z" />
</g>
<g id="#375595ff">
<path fill="#375595" opacity="1.00" d=" M 160.94 145.08 L 162.03 145.08 C 162.01 150.67 161.94 156.27 162.32 161.85 C 167.53 162.35 172.76 162.22 177.99 162.13 C 196.29 162.13 214.59 162.27 232.89 162.03 C 232.88 169.60 232.70 177.22 234.00 184.70 L 234.00 215.64 C 232.83 211.24 232.71 206.67 232.70 202.15 C 209.27 201.45 185.81 202.19 162.37 201.76 C 162.09 182.86 160.80 163.99 160.94 145.08 Z" />
</g>
<g id="#345291ff">
<path fill="#345291" opacity="1.00" d=" M 120.61 176.69 C 122.27 168.44 121.27 159.95 122.83 151.68 C 123.67 161.76 122.74 171.86 122.84 181.95 C 123.03 191.21 121.38 200.34 120.50 209.52 C 117.68 209.80 114.85 210.02 112.02 209.99 C 77.32 209.90 42.62 210.00 7.92 210.03 C 5.70 209.98 3.52 209.47 1.38 208.91 C 0.96 211.15 0.42 213.37 0.00 215.62 L 0.00 185.60 C 0.53 182.52 0.92 179.41 0.85 176.29 C 9.15 177.91 17.60 176.53 25.98 177.05 C 47.98 176.78 69.99 177.15 92.00 177.04 C 101.53 176.64 111.09 177.49 120.61 176.69 Z" />
</g>
<g id="#dce4f5ff">
<path fill="#dce4f5" opacity="1.00" d=" M 126.28 174.06 C 137.07 173.60 147.93 173.48 158.71 174.12 C 159.75 182.90 157.90 191.96 160.34 200.53 C 160.57 211.69 160.34 222.84 160.42 234.00 L 124.56 234.00 C 124.68 222.17 124.41 210.34 124.66 198.52 C 127.08 190.60 125.46 182.19 126.28 174.06 Z" />
</g>
<g id="#b0b2b3ff">
</g>
<g id="#f8f8f8ff">
</g>
</svg>
