<?xml version="1.0" encoding="UTF-8" ?>
<!DOCTYPE svg PUBLIC "-//W3C//DTD SVG 1.1//EN" "http://www.w3.org/Graphics/SVG/1.1/DTD/svg11.dtd">
<svg width="361pt" height="355pt" viewBox="0 0 361 355" version="1.1" xmlns="http://www.w3.org/2000/svg">
<g id="#000000ff">
<path fill="#000000" opacity="1.00" d=" M 37.81 30.05 C 41.75 29.95 45.69 29.96 49.63 30.15 C 49.64 31.43 49.63 32.72 49.61 34.00 C 47.86 40.04 47.27 46.36 45.06 52.27 C 43.78 51.94 42.50 51.62 41.24 51.23 C 40.15 50.75 39.07 50.25 37.99 49.74 C 40.03 43.30 40.08 36.44 37.81 30.05 Z" />
<path fill="#000000" opacity="1.00" d=" M 57.40 30.22 C 65.46 30.10 73.51 30.29 81.57 30.31 C 81.61 31.60 81.65 32.90 81.66 34.20 C 81.53 35.50 81.33 36.79 81.13 38.09 C 73.37 38.49 65.60 38.27 57.84 37.90 C 57.66 36.62 57.48 35.33 57.36 34.04 C 57.36 32.77 57.37 31.49 57.40 30.22 Z" />
<path fill="#000000" opacity="1.00" d=" M 89.45 30.38 C 97.10 30.52 104.77 30.23 112.41 30.63 C 113.45 31.86 114.11 33.34 114.97 34.69 C 113.97 35.90 113.05 37.18 111.87 38.21 C 104.56 38.90 97.19 38.38 89.86 38.18 C 89.66 36.87 89.46 35.56 89.33 34.24 C 89.35 32.96 89.39 31.67 89.45 30.38 Z" />
<path fill="#000000" opacity="1.00" d=" M 122.36 35.98 C 128.27 40.29 134.20 44.58 140.12 48.88 C 141.78 49.97 140.11 51.84 139.77 53.19 C 138.85 54.20 137.89 55.17 136.94 56.14 C 130.23 51.91 123.82 47.22 117.77 42.11 C 118.46 41.04 119.16 39.97 119.90 38.94 C 120.69 37.93 121.53 36.96 122.36 35.98 Z" />
<path fill="#000000" opacity="1.00" d=" M 148.22 54.15 C 154.99 57.90 161.77 61.63 168.75 64.97 C 168.41 66.23 168.08 67.50 167.69 68.75 C 166.91 69.87 166.07 70.95 165.23 72.02 C 158.00 68.74 150.92 65.10 144.22 60.82 C 144.80 59.65 145.38 58.47 146.02 57.32 C 146.72 56.24 147.47 55.20 148.22 54.15 Z" />
<path fill="#000000" opacity="1.00" d=" M 34.30 56.73 C 35.54 57.17 36.79 57.61 38.01 58.11 C 39.08 58.80 40.11 59.55 41.14 60.30 C 37.39 67.24 32.87 73.76 28.03 79.99 C 26.74 79.60 25.45 79.21 24.15 78.82 C 23.37 77.61 22.58 76.40 21.81 75.19 C 26.14 69.15 30.40 63.06 34.30 56.73 Z" />
<path fill="#000000" opacity="1.00" d=" M 176.40 68.10 C 183.48 70.23 190.53 72.59 197.88 73.66 C 198.00 75.07 198.12 76.48 198.17 77.89 C 197.80 79.18 197.37 80.45 196.95 81.72 C 189.22 80.32 181.60 78.31 174.20 75.65 C 174.18 74.21 174.18 72.77 174.18 71.33 C 174.92 70.26 175.66 69.18 176.40 68.10 Z" />
<path fill="#000000" opacity="1.00" d=" M 269.09 70.11 C 277.03 69.04 285.00 67.93 293.03 67.90 C 293.16 69.19 293.27 70.48 293.35 71.78 C 293.32 73.11 293.26 74.44 293.17 75.77 C 285.47 76.10 277.83 77.14 270.17 77.89 C 269.86 76.59 269.54 75.29 269.30 73.98 C 269.21 72.69 269.13 71.40 269.09 70.11 Z" />
<path fill="#000000" opacity="1.00" d=" M 301.23 67.76 C 309.24 67.09 317.22 68.31 325.18 69.12 C 325.25 70.42 325.29 71.73 325.32 73.04 C 325.20 74.37 325.06 75.70 324.90 77.02 C 317.05 76.42 309.22 75.34 301.32 75.57 C 301.25 74.24 301.20 72.92 301.18 71.60 C 301.18 70.32 301.19 69.04 301.23 67.76 Z" />
<path fill="#000000" opacity="1.00" d=" M 334.33 70.74 C 342.93 72.95 350.21 78.81 355.14 86.07 C 354.09 86.98 353.05 87.89 351.96 88.75 C 350.76 89.23 349.54 89.65 348.33 90.07 C 344.23 84.57 338.59 80.50 332.24 77.97 C 332.45 76.71 332.66 75.45 332.94 74.20 C 333.38 73.04 333.84 71.89 334.33 70.74 Z" />
<path fill="#000000" opacity="1.00" d=" M 237.52 74.75 C 245.07 73.42 252.69 72.56 260.26 71.40 C 260.87 72.67 261.47 73.95 262.07 75.23 C 261.96 76.51 261.85 77.79 261.74 79.07 C 253.96 80.70 246.04 81.70 238.11 82.27 C 238.02 81.37 237.84 79.56 237.76 78.65 C 237.66 77.35 237.58 76.05 237.52 74.75 Z" />
<path fill="#000000" opacity="1.00" d=" M 206.15 74.99 C 213.95 75.46 221.77 75.52 229.59 75.31 C 229.71 76.55 229.81 77.79 229.91 79.03 C 229.94 80.40 229.96 81.76 229.95 83.13 C 221.90 83.62 213.83 83.56 205.79 82.82 C 205.74 81.53 205.72 80.25 205.72 78.96 C 205.84 77.63 205.98 76.31 206.15 74.99 Z" />
<path fill="#000000" opacity="1.00" d=" M 16.18 82.91 C 17.49 83.34 18.80 83.78 20.12 84.22 C 21.01 85.22 21.91 86.22 22.81 87.22 C 19.03 93.04 15.17 98.99 13.62 105.86 C 12.40 105.97 11.18 106.07 9.96 106.15 C 8.58 106.09 7.19 106.01 5.81 105.90 C 6.59 97.28 11.48 89.90 16.18 82.91 Z" />
<path fill="#000000" opacity="1.00" d=" M 355.17 95.61 C 356.45 95.23 357.75 94.92 359.06 94.59 C 359.98 97.86 360.67 101.20 361.00 104.59 L 361.00 119.57 C 359.66 119.58 358.33 119.58 357.00 119.59 C 355.71 119.59 354.43 119.60 353.15 119.62 C 352.88 112.11 353.31 104.52 351.83 97.11 C 352.93 96.59 354.04 96.09 355.17 95.61 Z" />
<path fill="#000000" opacity="1.00" d=" M 5.57 109.21 C 6.98 109.09 8.40 108.97 9.82 108.92 C 10.71 108.98 12.48 109.10 13.37 109.16 C 13.79 115.17 12.46 121.31 14.28 127.19 C 12.87 131.46 9.52 135.08 8.85 139.71 C 7.14 149.34 8.44 159.18 7.93 168.91 C 6.64 168.91 5.36 168.92 4.07 168.93 C 2.72 168.92 1.36 168.91 0.00 168.91 L 0.00 144.62 C 0.48 140.32 1.35 136.03 3.02 132.02 C 6.39 124.92 5.02 116.81 5.57 109.21 Z" />
<path fill="#000000" opacity="1.00" d=" M 16.18 115.40 C 23.58 110.70 32.33 108.79 41.04 108.95 C 41.08 111.60 41.08 114.24 41.04 116.89 C 33.75 116.58 26.72 118.58 20.32 121.96 C 18.87 119.82 17.45 117.65 16.18 115.40 Z" />
<path fill="#000000" opacity="1.00" d=" M 49.07 109.06 C 57.06 108.95 65.05 108.97 73.04 109.04 C 73.08 111.68 73.08 114.32 73.04 116.97 C 65.05 117.03 57.06 117.05 49.07 116.94 C 49.06 114.31 49.06 111.68 49.07 109.06 Z" />
<path fill="#000000" opacity="1.00" d=" M 81.07 109.06 C 89.06 108.95 97.05 108.97 105.04 109.03 C 105.08 111.68 105.08 114.32 105.04 116.97 C 97.05 117.03 89.06 117.05 81.07 116.94 C 81.06 114.31 81.06 111.68 81.07 109.06 Z" />
<path fill="#000000" opacity="1.00" d=" M 113.07 109.06 C 121.06 108.95 129.05 108.97 137.04 109.03 C 137.08 111.68 137.08 114.32 137.04 116.97 C 129.05 117.03 121.06 117.05 113.07 116.94 C 113.06 114.31 113.06 111.69 113.07 109.06 Z" />
<path fill="#000000" opacity="1.00" d=" M 145.07 109.06 C 153.06 108.95 161.05 108.97 169.04 109.04 C 169.08 111.68 169.08 114.32 169.04 116.96 C 161.05 117.03 153.06 117.05 145.07 116.94 C 145.06 114.31 145.06 111.69 145.07 109.06 Z" />
<path fill="#000000" opacity="1.00" d=" M 177.07 109.06 C 185.06 108.95 193.05 108.98 201.04 109.03 C 201.08 111.68 201.08 114.32 201.04 116.97 C 193.05 117.03 185.06 117.05 177.07 116.94 C 177.06 114.31 177.06 111.69 177.07 109.06 Z" />
<path fill="#000000" opacity="1.00" d=" M 209.07 109.06 C 217.06 108.95 225.05 108.97 233.04 109.03 C 233.08 111.68 233.08 114.32 233.04 116.97 C 225.05 117.03 217.06 117.05 209.07 116.94 C 209.06 114.31 209.06 111.69 209.07 109.06 Z" />
<path fill="#000000" opacity="1.00" d=" M 241.07 109.06 C 249.06 108.95 257.05 108.97 265.04 109.03 C 265.08 111.68 265.08 114.32 265.04 116.97 C 257.05 117.03 249.06 117.05 241.07 116.94 C 241.06 114.31 241.06 111.68 241.07 109.06 Z" />
<path fill="#000000" opacity="1.00" d=" M 273.07 109.06 C 281.06 108.95 289.05 108.97 297.04 109.04 C 297.08 111.68 297.08 114.32 297.04 116.96 C 289.05 117.03 281.06 117.05 273.07 116.94 C 273.06 114.31 273.06 111.69 273.07 109.06 Z" />
<path fill="#000000" opacity="1.00" d=" M 305.07 109.06 C 313.33 109.02 321.61 108.71 329.84 109.49 C 329.51 112.15 329.00 114.79 328.28 117.37 C 320.56 116.71 312.80 117.15 305.07 116.94 C 305.06 114.31 305.06 111.69 305.07 109.06 Z" />
<path fill="#000000" opacity="1.00" d=" M 338.25 112.10 C 341.70 113.70 345.13 115.47 347.96 118.06 C 351.28 120.86 353.50 124.75 356.96 127.41 C 358.30 127.49 359.65 127.56 361.00 127.62 L 361.00 259.57 C 359.66 259.57 358.33 259.58 357.00 259.59 C 355.71 259.59 354.43 259.60 353.16 259.61 C 352.90 251.65 352.86 243.66 353.17 235.70 C 354.44 235.44 355.70 235.18 356.97 234.93 C 356.96 232.64 356.96 230.36 356.97 228.08 C 355.70 227.82 354.44 227.55 353.18 227.30 C 352.87 219.44 352.87 211.56 353.17 203.70 C 354.44 203.44 355.70 203.18 356.97 202.92 C 356.96 200.64 356.96 198.36 356.97 196.08 C 355.70 195.81 354.44 195.55 353.18 195.30 C 352.87 187.44 352.87 179.56 353.18 171.70 C 354.44 171.44 355.70 171.18 356.97 170.92 C 356.96 168.64 356.96 166.36 356.97 164.08 C 355.70 163.81 354.43 163.55 353.17 163.30 C 352.86 155.97 353.07 148.62 352.76 141.29 C 353.79 140.41 354.86 139.58 355.80 138.60 C 355.50 136.49 354.74 134.49 354.09 132.47 C 352.76 132.62 351.44 132.77 350.13 132.92 C 346.51 127.07 341.39 122.42 335.43 119.05 C 336.37 116.73 337.31 114.42 338.25 112.10 Z" />
<path fill="#000000" opacity="1.00" d=" M 2.66 176.27 C 3.04 175.11 3.42 173.95 3.79 172.79 C 3.88 174.06 3.98 175.33 4.09 176.60 C 5.38 176.83 6.67 177.07 7.95 177.31 C 8.05 185.17 8.06 193.04 7.93 200.91 C 6.62 200.92 5.31 200.93 4.00 200.94 C 2.67 200.93 1.33 200.92 -0.00 200.92 L 0.00 177.57 C 0.66 177.25 1.99 176.60 2.66 176.27 Z" />
<path fill="#000000" opacity="1.00" d=" M 0.00 209.45 C 0.85 207.49 1.93 205.56 3.88 204.51 C 3.94 205.89 4.02 207.27 4.12 208.66 C 5.39 208.87 6.67 209.08 7.95 209.30 C 8.05 217.17 8.06 225.04 7.93 232.91 C 6.61 232.91 5.29 232.91 3.97 232.92 C 2.65 232.91 1.32 232.91 0.00 232.91 L 0.00 209.45 Z" />
<path fill="#000000" opacity="1.00" d=" M 0.00 236.77 C 1.34 236.85 2.67 236.93 4.01 237.02 C 4.04 238.21 4.07 239.41 4.10 240.61 C 5.38 240.84 6.66 241.07 7.95 241.30 C 8.05 249.17 8.06 257.04 7.93 264.91 C 6.62 264.91 5.31 264.91 4.00 264.92 C 2.67 264.91 1.33 264.91 0.00 264.91 L 0.00 236.77 Z" />
<path fill="#000000" opacity="1.00" d=" M 353.15 267.40 C 354.43 267.40 355.71 267.40 357.00 267.41 C 358.33 267.40 359.66 267.39 361.00 267.39 L 361.00 281.40 C 360.54 284.91 359.68 288.35 358.71 291.76 C 357.25 291.78 355.80 291.79 354.36 291.81 C 353.33 291.06 352.30 290.31 351.28 289.57 C 353.27 282.34 352.97 274.82 353.15 267.40 Z" />
<path fill="#000000" opacity="1.00" d=" M 0.00 272.89 C 1.33 272.90 2.67 272.92 4.00 272.94 C 5.30 272.95 6.59 272.98 7.89 273.01 C 7.73 280.18 8.64 287.44 11.97 293.88 C 10.97 294.68 9.96 295.49 8.92 296.26 C 7.73 296.86 6.51 297.40 5.29 297.93 C 2.26 292.55 0.59 286.53 0.00 280.40 L 0.00 272.89 Z" />
<path fill="#000000" opacity="1.00" d=" M 347.41 296.13 C 348.58 296.77 349.75 297.41 350.89 298.12 C 351.91 298.85 352.90 299.63 353.90 300.41 C 348.84 307.75 340.96 312.83 332.37 315.00 C 331.82 313.79 331.27 312.58 330.72 311.38 C 330.80 310.02 330.87 308.67 330.97 307.32 C 337.38 305.19 343.21 301.48 347.41 296.13 Z" />
<path fill="#000000" opacity="1.00" d=" M 13.81 302.22 C 14.79 301.41 15.81 300.64 16.82 299.88 C 22.00 304.41 28.42 307.20 35.22 308.16 C 35.27 309.41 35.30 310.67 35.30 311.93 C 35.12 313.26 34.92 314.58 34.69 315.91 C 25.87 315.23 17.44 311.40 11.10 305.23 C 11.99 304.21 12.87 303.19 13.81 302.22 Z" />
<path fill="#000000" opacity="1.00" d=" M 43.24 308.10 C 51.20 307.91 59.17 307.95 67.13 308.06 C 67.19 309.37 67.24 310.68 67.27 312.00 C 67.25 313.31 67.21 314.62 67.16 315.94 C 59.18 316.04 51.21 316.08 43.23 315.91 C 43.21 314.61 43.20 313.31 43.20 312.01 C 43.20 310.70 43.22 309.40 43.24 308.10 Z" />
<path fill="#000000" opacity="1.00" d=" M 75.24 308.10 C 83.20 307.91 91.17 307.96 99.13 308.06 C 99.19 309.36 99.24 310.68 99.26 311.99 C 99.25 313.31 99.21 314.62 99.16 315.94 C 91.18 316.04 83.20 316.08 75.23 315.91 C 75.21 314.60 75.20 313.30 75.19 312.00 C 75.20 310.70 75.22 309.40 75.24 308.10 Z" />
<path fill="#000000" opacity="1.00" d=" M 107.24 308.10 C 115.20 307.91 123.17 307.96 131.13 308.06 C 131.19 309.36 131.24 310.68 131.26 312.00 C 131.25 313.31 131.21 314.62 131.16 315.94 C 123.18 316.04 115.20 316.08 107.23 315.91 C 107.21 314.60 107.20 313.30 107.19 312.00 C 107.20 310.70 107.22 309.40 107.24 308.10 Z" />
<path fill="#000000" opacity="1.00" d=" M 139.24 308.10 C 147.20 307.91 155.17 307.96 163.13 308.06 C 163.19 309.37 163.24 310.68 163.27 311.99 C 163.25 313.31 163.21 314.62 163.16 315.94 C 155.18 316.04 147.21 316.08 139.23 315.91 C 139.21 314.60 139.20 313.30 139.20 312.00 C 139.20 310.70 139.22 309.40 139.24 308.10 Z" />
<path fill="#000000" opacity="1.00" d=" M 171.24 308.11 C 179.20 307.90 187.16 307.96 195.13 308.06 C 195.19 309.37 195.24 310.68 195.27 312.00 C 195.25 313.31 195.21 314.62 195.16 315.94 C 187.18 316.04 179.21 316.08 171.23 315.91 C 171.21 314.60 171.20 313.30 171.19 312.00 C 171.20 310.70 171.21 309.40 171.24 308.11 Z" />
<path fill="#000000" opacity="1.00" d=" M 203.24 308.10 C 211.20 307.90 219.17 307.96 227.13 308.06 C 227.19 309.37 227.24 310.68 227.27 312.00 C 227.25 313.31 227.21 314.62 227.16 315.94 C 219.18 316.04 211.20 316.08 203.23 315.91 C 203.21 314.60 203.20 313.30 203.19 312.00 C 203.20 310.70 203.21 309.40 203.24 308.10 Z" />
<path fill="#000000" opacity="1.00" d=" M 235.24 308.11 C 243.20 307.91 251.16 307.96 259.12 308.06 C 259.19 309.37 259.23 310.68 259.26 311.99 C 259.25 313.31 259.21 314.62 259.16 315.94 C 251.18 316.04 243.21 316.08 235.23 315.91 C 235.21 314.60 235.20 313.30 235.19 312.00 C 235.20 310.70 235.21 309.40 235.24 308.11 Z" />
<path fill="#000000" opacity="1.00" d=" M 267.24 308.10 C 275.20 307.91 283.17 307.95 291.13 308.06 C 291.19 309.37 291.24 310.68 291.27 311.99 C 291.24 313.31 291.21 314.62 291.16 315.94 C 283.18 316.04 275.20 316.08 267.23 315.91 C 267.21 314.60 267.20 313.30 267.19 312.00 C 267.20 310.70 267.22 309.40 267.24 308.10 Z" />
<path fill="#000000" opacity="1.00" d=" M 299.24 308.10 C 307.20 307.91 315.16 307.96 323.12 308.06 C 323.19 309.37 323.24 310.68 323.28 312.00 C 323.25 313.31 323.21 314.63 323.15 315.95 C 315.18 316.04 307.20 316.08 299.23 315.91 C 299.21 314.60 299.20 313.30 299.19 312.00 C 299.20 310.70 299.21 309.40 299.24 308.10 Z" />
</g>
<g id="#7f7f7fff">
</g>
</svg>
