<svg xmlns="http://www.w3.org/2000/svg" width="120pt" height="120pt" viewBox="0 0 95 95" version="1.1">
<path fill="transparent" d=" M 0.00 0.00 L 8.53 0.00 C 4.07 0.91 0.45 4.55 0.00 9.15 L 0.00 0.00 Z"></path>
<path fill="#603A98" d=" M 8.53 0.00 L 85.70 0.00 C 90.60 0.43 94.60 4.43 95.00 9.34 L 95.00 85.70 C 94.57 90.60 90.57 94.59 85.67 95.00 L 39.00 95.00 C 39.00 86.57 38.99 78.14 39.01 69.71 C 45.85 75.12 55.21 77.67 63.64 74.72 C 77.41 71.03 87.02 56.22 84.61 42.14 C 82.55 28.06 69.11 16.94 54.97 17.01 C 44.35 17.14 33.33 22.66 28.41 32.37 C 25.30 38.04 25.19 44.68 24.99 50.98 C 25.01 65.65 25.00 80.33 25.00 95.00 L 9.30 95.00 C 4.66 94.58 0.89 91.01 0.00 86.47 L 0.00 9.15 C 0.45 4.55 4.07 0.91 8.53 0.00 Z"></path>
<path fill="transparent" d=" M 85.70 0.00 L 95.00 0.00 L 95.00 9.34 C 94.60 4.43 90.60 0.43 85.70 0.00 Z"></path>
<path fill="#ffffff" d=" M 28.41 32.37 C 33.33 22.66 44.35 17.14 54.97 17.01 C 69.11 16.94 82.55 28.06 84.61 42.14 C 87.02 56.22 77.41 71.03 63.64 74.72 C 55.21 77.67 45.85 75.12 39.01 69.71 C 38.99 78.14 39.00 86.57 39.00 95.00 L 25.00 95.00 C 25.00 80.33 25.01 65.65 24.99 50.98 C 25.19 44.68 25.30 38.04 28.41 32.37 Z"></path>
<path fill="#603A98" d=" M 50.35 31.50 C 59.70 28.61 71.17 35.73 71.01 45.92 C 71.77 54.25 64.40 61.98 56.11 61.99 C 48.29 62.91 39.99 57.21 39.11 49.18 C 37.64 41.46 42.75 33.42 50.35 31.50 Z"></path>
<path fill="transparent" d=" M 85.67 95.00 C 90.57 94.59 94.57 90.60 95.00 85.70 L 95.00 95.00 L 85.67 95.00 Z"></path>
<path fill="transparent" d=" M 0.00 86.47 C 0.89 91.01 4.66 94.58 9.30 95.00 L 0.00 95.00 L 0.00 86.47 Z"></path>
</svg>