<?xml version="1.0" encoding="UTF-8" ?>
<!DOCTYPE svg PUBLIC "-//W3C//DTD SVG 1.1//EN" "http://www.w3.org/Graphics/SVG/1.1/DTD/svg11.dtd">
<svg width="361pt" height="363pt" viewBox="0 0 361 363" version="1.1" xmlns="http://www.w3.org/2000/svg">
<g id="#000000ff">
<path fill="#000000" opacity="1.00" d=" M 0.00 0.00 L 28.00 0.00 C 28.00 2.67 28.00 5.33 28.00 8.00 C 21.33 8.01 14.67 7.99 8.00 8.00 C 7.99 13.29 8.01 18.59 7.99 23.88 C 5.33 23.88 2.66 23.87 0.00 23.88 L 0.00 0.00 Z" />
<path fill="#000000" opacity="1.00" d=" M 36.00 0.00 L 60.00 0.00 C 60.00 2.67 60.00 5.33 60.00 8.00 C 52.00 8.00 44.00 8.00 36.00 8.00 C 36.00 5.33 36.00 2.67 36.00 0.00 Z" />
<path fill="#000000" opacity="1.00" d=" M 68.00 0.00 L 92.00 0.00 C 92.00 2.67 92.00 5.33 92.00 8.00 C 84.00 8.00 76.00 8.00 68.00 8.00 C 68.00 5.33 68.00 2.67 68.00 0.00 Z" />
<path fill="#000000" opacity="1.00" d=" M 100.00 0.00 L 124.00 0.00 C 124.00 2.67 124.00 5.33 124.00 8.00 C 116.00 8.00 108.00 8.00 100.00 8.00 C 100.00 5.33 100.00 2.67 100.00 0.00 Z" />
<path fill="#000000" opacity="1.00" d=" M 132.00 0.00 L 156.00 0.00 C 156.00 2.67 156.00 5.33 156.00 8.00 C 148.00 8.00 140.00 8.00 132.00 8.00 C 132.00 5.33 132.00 2.67 132.00 0.00 Z" />
<path fill="#000000" opacity="1.00" d=" M 164.00 0.00 L 188.00 0.00 C 188.00 2.67 188.00 5.33 188.00 8.00 C 180.00 8.00 172.00 8.00 164.00 8.00 C 164.00 5.33 164.00 2.67 164.00 0.00 Z" />
<path fill="#000000" opacity="1.00" d=" M 196.00 0.00 L 220.00 0.00 C 220.00 2.67 220.00 5.33 220.00 8.00 C 212.00 8.00 204.00 8.00 196.00 8.00 C 196.00 5.33 196.00 2.67 196.00 0.00 Z" />
<path fill="#000000" opacity="1.00" d=" M 228.00 0.00 L 252.00 0.00 C 252.00 2.67 252.00 5.33 252.00 8.00 C 244.00 8.00 236.00 8.00 228.00 8.00 C 228.00 5.33 228.00 2.67 228.00 0.00 Z" />
<path fill="#000000" opacity="1.00" d=" M 260.00 0.00 L 284.00 0.00 C 284.00 2.67 284.00 5.33 284.00 8.00 C 276.00 8.00 268.00 8.00 260.00 8.00 C 260.00 5.33 260.00 2.67 260.00 0.00 Z" />
<path fill="#000000" opacity="1.00" d=" M 292.00 0.00 L 316.00 0.00 C 316.00 2.67 316.00 5.33 316.00 8.00 C 308.00 8.00 300.00 8.00 292.00 8.00 C 292.00 5.33 292.00 2.67 292.00 0.00 Z" />
<path fill="#000000" opacity="1.00" d=" M 324.00 0.00 L 348.00 0.00 C 348.00 2.67 348.00 5.33 348.00 8.00 C 340.00 8.00 332.00 8.00 324.00 8.00 C 324.00 5.33 324.00 2.67 324.00 0.00 Z" />
<path fill="#000000" opacity="1.00" d=" M 356.01 0.00 L 361.00 0.00 L 361.00 27.00 C 358.33 27.00 355.67 27.00 353.00 27.00 C 352.99 19.34 353.00 11.69 353.00 4.04 C 353.75 4.02 355.25 3.98 356.00 3.96 C 356.00 2.64 356.00 1.32 356.01 0.00 Z" />
<path fill="#000000" opacity="1.00" d=" M 0.00 31.87 C 2.66 31.87 5.33 31.87 7.99 31.88 C 8.01 39.88 8.00 47.88 7.99 55.88 C 5.33 55.88 2.66 55.87 0.00 55.88 L 0.00 31.87 Z" />
<path fill="#000000" opacity="1.00" d=" M 353.00 35.00 C 355.67 35.00 358.33 35.00 361.00 35.00 L 361.00 59.00 C 358.33 59.00 355.67 59.00 353.00 59.00 C 353.00 51.00 353.00 43.00 353.00 35.00 Z" />
<path fill="#000000" opacity="1.00" d=" M 101.20 62.23 C 111.58 61.09 122.28 64.17 130.51 70.59 C 141.13 78.52 147.62 91.82 146.95 105.11 C 146.72 114.51 142.82 123.62 136.69 130.70 C 127.38 141.53 112.26 147.05 98.16 144.35 C 78.84 141.03 63.41 122.63 64.02 102.95 C 63.94 82.61 81.01 64.12 101.20 62.23 Z" />
<path fill="#000000" opacity="1.00" d=" M 0.00 63.87 C 2.66 63.87 5.33 63.87 7.99 63.88 C 8.01 71.88 8.01 79.88 7.99 87.88 C 5.33 87.88 2.66 87.87 0.00 87.87 L 0.00 63.87 Z" />
<path fill="#000000" opacity="1.00" d=" M 353.00 67.00 C 355.67 67.00 358.33 67.00 361.00 67.00 L 361.00 91.00 C 358.33 91.00 355.67 91.00 353.00 91.00 C 353.00 83.00 353.00 75.00 353.00 67.00 Z" />
<path fill="#000000" opacity="1.00" d=" M 210.96 91.43 C 219.30 89.33 227.78 87.52 236.40 87.17 C 236.57 89.92 236.74 92.67 236.92 95.43 C 228.88 95.80 220.98 97.54 213.18 99.42 C 212.42 96.76 211.68 94.10 210.96 91.43 Z" />
<path fill="#000000" opacity="1.00" d=" M 245.01 86.88 C 253.68 86.60 262.30 87.98 270.76 89.78 C 270.09 92.45 269.44 95.13 268.81 97.81 C 260.98 96.16 253.02 94.98 245.01 95.10 C 244.99 92.36 244.99 89.62 245.01 86.88 Z" />
<path fill="#000000" opacity="1.00" d=" M 279.06 92.32 C 287.34 95.28 295.26 99.35 302.16 104.83 C 300.47 107.01 298.77 109.20 297.06 111.36 C 290.80 106.57 283.76 102.90 276.39 100.14 C 277.31 97.55 278.21 94.95 279.06 92.32 Z" />
<path fill="#000000" opacity="1.00" d=" M 179.35 104.32 C 186.97 100.48 194.65 96.72 202.75 93.99 C 203.66 96.63 204.57 99.26 205.49 101.89 C 197.74 104.39 190.48 108.07 183.21 111.67 C 181.90 109.23 180.59 106.79 179.35 104.32 Z" />
<path fill="#000000" opacity="1.00" d=" M 0.00 95.87 C 2.66 95.87 5.33 95.87 7.99 95.88 C 8.01 103.88 8.01 111.88 7.99 119.88 C 5.33 119.88 2.66 119.87 0.00 119.88 L 0.00 95.87 Z" />
<path fill="#000000" opacity="1.00" d=" M 353.00 99.00 C 355.67 99.00 358.33 99.00 361.00 99.00 L 361.00 123.00 C 358.33 123.00 355.67 123.00 353.00 123.00 C 353.00 115.00 353.00 107.00 353.00 99.00 Z" />
<path fill="#000000" opacity="1.00" d=" M 302.98 116.41 C 304.95 114.48 306.91 112.54 308.86 110.59 C 313.29 115.23 317.15 120.35 320.43 125.86 C 318.00 127.23 315.56 128.59 313.13 129.94 C 310.25 125.06 306.80 120.58 302.98 116.41 Z" />
<path fill="#000000" opacity="1.00" d=" M 0.00 127.87 C 2.66 127.87 5.33 127.87 7.99 127.88 C 8.01 135.88 8.00 143.88 7.99 151.88 C 5.33 151.87 2.66 151.87 0.00 151.88 L 0.00 127.87 Z" />
<path fill="#000000" opacity="1.00" d=" M 353.00 131.00 C 355.66 131.00 358.33 131.00 361.00 131.00 L 361.00 155.00 C 358.33 155.00 355.67 155.00 353.00 155.00 C 353.00 147.00 353.00 139.00 353.00 131.00 Z" />
<path fill="#000000" opacity="1.00" d=" M 0.00 159.87 C 2.66 159.87 5.33 159.87 7.99 159.88 C 8.01 167.88 8.01 175.88 7.99 183.88 C 5.33 183.87 2.66 183.87 0.00 183.88 L 0.00 159.87 Z" />
<path fill="#000000" opacity="1.00" d=" M 353.00 163.00 C 355.67 163.00 358.33 163.00 361.00 163.00 L 361.00 187.00 C 358.33 187.00 355.67 187.00 353.00 187.00 C 353.00 179.00 353.00 171.00 353.00 163.00 Z" />
<path fill="#000000" opacity="1.00" d=" M 42.01 191.63 C 44.01 189.89 46.02 188.17 48.05 186.45 C 53.32 192.42 58.52 198.46 63.87 204.37 C 61.88 206.17 59.89 207.96 57.88 209.74 C 52.51 203.78 47.30 197.67 42.01 191.63 Z" />
<path fill="#000000" opacity="1.00" d=" M 0.00 191.87 C 2.66 191.87 5.33 191.87 7.99 191.88 C 8.01 199.88 8.01 207.88 7.99 215.88 C 5.33 215.87 2.66 215.87 0.00 215.88 L 0.00 191.87 Z" />
<path fill="#000000" opacity="1.00" d=" M 353.00 195.00 C 355.67 195.00 358.33 195.00 361.00 195.00 L 361.00 219.00 C 358.33 219.00 355.67 219.00 353.00 219.00 C 352.99 211.00 353.00 203.00 353.00 195.00 Z" />
<path fill="#000000" opacity="1.00" d=" M 184.96 200.53 C 195.07 200.76 201.05 210.13 205.70 217.87 C 203.41 219.22 201.12 220.57 198.83 221.92 C 195.35 216.65 192.05 209.93 185.35 208.35 C 185.20 205.75 185.07 203.14 184.96 200.53 Z" />
<path fill="#000000" opacity="1.00" d=" M 303.12 210.50 C 306.54 207.48 309.92 204.42 313.50 201.60 C 315.23 203.62 316.98 205.62 318.66 207.68 C 315.11 210.51 311.84 213.66 308.28 216.47 C 306.62 214.43 304.88 212.45 303.12 210.50 Z" />
<path fill="#000000" opacity="1.00" d=" M 159.44 223.92 C 164.26 217.09 168.86 209.85 175.51 204.62 C 177.12 206.71 178.72 208.79 180.33 210.88 C 174.56 215.86 170.30 222.23 166.07 228.49 C 163.85 226.98 161.64 225.46 159.44 223.92 Z" />
<path fill="#000000" opacity="1.00" d=" M 63.26 215.76 C 65.19 213.93 67.15 212.13 69.12 210.35 C 74.52 216.19 79.95 222.00 85.62 227.58 C 83.76 229.44 81.88 231.30 80.02 233.16 C 74.08 227.70 68.80 221.60 63.26 215.76 Z" />
<path fill="#000000" opacity="1.00" d=" M 278.66 230.72 C 284.84 225.75 291.07 220.85 297.06 215.64 C 298.82 217.66 300.59 219.70 302.17 221.88 C 296.03 227.00 289.85 232.07 283.57 237.01 C 281.90 234.94 280.26 232.84 278.66 230.72 Z" />
<path fill="#000000" opacity="1.00" d=" M 0.00 223.87 C 2.66 223.87 5.33 223.87 7.99 223.88 C 8.00 231.88 8.01 239.88 7.99 247.88 C 5.33 247.87 2.66 247.87 0.00 247.87 L 0.00 223.87 Z" />
<path fill="#000000" opacity="1.00" d=" M 202.70 228.83 C 205.01 227.51 207.34 226.22 209.69 224.95 C 213.58 231.67 217.04 238.68 221.84 244.82 C 219.75 246.47 217.66 248.12 215.55 249.76 C 210.43 243.33 206.84 235.89 202.70 228.83 Z" />
<path fill="#000000" opacity="1.00" d=" M 353.00 227.00 C 355.67 227.00 358.33 227.00 361.00 227.00 L 361.00 251.00 C 358.33 251.00 355.67 251.00 353.00 251.00 C 353.00 243.00 353.00 235.00 353.00 227.00 Z" />
<path fill="#000000" opacity="1.00" d=" M 140.60 248.75 C 146.16 243.34 150.40 236.82 154.97 230.60 C 157.18 232.08 159.39 233.57 161.58 235.08 C 156.78 241.81 152.09 248.68 146.18 254.51 C 144.31 252.59 142.45 250.68 140.60 248.75 Z" />
<path fill="#000000" opacity="1.00" d=" M 91.28 233.01 C 96.90 238.38 102.97 243.29 109.42 247.63 C 107.96 249.83 106.50 252.03 105.05 254.24 C 98.16 249.84 91.95 244.49 85.90 239.02 C 87.51 236.87 89.42 234.96 91.28 233.01 Z" />
<path fill="#000000" opacity="1.00" d=" M 252.58 247.75 C 259.48 244.18 266.12 240.09 272.33 235.41 C 273.89 237.56 275.45 239.72 276.99 241.89 C 270.36 246.74 263.46 251.28 256.08 254.92 C 254.93 252.52 253.75 250.13 252.58 247.75 Z" />
<path fill="#000000" opacity="1.00" d=" M 226.48 250.02 C 232.07 254.47 239.46 252.89 245.63 250.73 C 246.53 253.23 247.42 255.73 248.31 258.23 C 239.76 261.51 229.14 262.64 221.73 256.18 C 223.36 254.16 224.96 252.12 226.48 250.02 Z" />
<path fill="#000000" opacity="1.00" d=" M 112.41 258.42 C 113.59 256.06 114.77 253.71 115.95 251.36 C 121.81 254.14 128.98 256.74 135.07 253.08 C 136.40 255.36 137.72 257.65 139.04 259.95 C 130.76 265.01 120.47 262.73 112.41 258.42 Z" />
<path fill="#000000" opacity="1.00" d=" M 0.00 255.87 C 2.66 255.87 5.33 255.87 7.99 255.88 C 8.00 263.88 8.01 271.88 7.99 279.88 C 5.33 279.87 2.66 279.87 0.00 279.88 L 0.00 255.87 Z" />
<path fill="#000000" opacity="1.00" d=" M 353.00 259.00 C 355.67 259.00 358.33 259.00 361.00 259.00 L 361.00 283.00 C 358.33 283.00 355.67 283.00 353.00 283.00 C 353.00 275.00 353.00 267.00 353.00 259.00 Z" />
<path fill="#000000" opacity="1.00" d=" M 0.00 287.87 C 2.66 287.87 5.33 287.87 7.99 287.88 C 8.00 295.88 8.01 303.88 7.99 311.88 C 5.33 311.87 2.66 311.87 0.00 311.88 L 0.00 287.87 Z" />
<path fill="#000000" opacity="1.00" d=" M 353.00 291.00 C 355.66 291.00 358.33 291.00 361.00 291.00 L 361.00 315.00 C 358.33 315.00 355.67 315.00 353.00 315.00 C 352.99 307.00 353.00 299.00 353.00 291.00 Z" />
<path fill="#000000" opacity="1.00" d=" M 5.88 314.01 C 13.88 313.99 21.88 314.00 29.87 314.01 C 29.88 316.67 29.88 319.33 29.88 321.99 C 21.88 322.01 13.88 322.00 5.88 321.99 C 5.87 319.33 5.87 316.67 5.88 314.01 Z" />
<path fill="#000000" opacity="1.00" d=" M 37.88 314.01 C 45.88 314.00 53.88 313.99 61.88 314.01 C 61.88 316.67 61.88 319.33 61.88 321.99 C 53.88 322.01 45.88 322.00 37.88 321.99 C 37.87 319.33 37.87 316.67 37.88 314.01 Z" />
<path fill="#000000" opacity="1.00" d=" M 149.35 314.34 C 152.76 313.51 156.47 314.22 160.00 314.00 C 160.00 316.67 160.00 319.34 160.00 322.01 C 157.09 322.37 153.44 320.90 151.15 323.28 C 148.24 325.87 145.42 328.56 142.42 331.05 C 140.70 329.03 138.96 327.05 137.19 325.08 C 141.24 321.50 145.19 317.80 149.35 314.34 Z" />
<path fill="#000000" opacity="1.00" d=" M 168.00 314.00 C 176.00 314.00 184.00 314.00 192.00 314.00 C 192.00 316.66 192.00 319.33 192.00 322.00 C 184.00 322.00 176.00 322.00 168.00 322.00 C 168.00 319.33 168.00 316.66 168.00 314.00 Z" />
<path fill="#000000" opacity="1.00" d=" M 200.00 314.00 C 208.00 314.00 216.00 314.00 224.00 314.00 C 224.00 316.66 224.00 319.33 224.00 322.00 C 216.00 322.00 208.00 322.00 200.00 322.00 C 200.00 319.33 200.00 316.66 200.00 314.00 Z" />
<path fill="#000000" opacity="1.00" d=" M 232.00 314.00 C 240.00 314.00 248.00 314.00 256.00 314.00 C 256.00 316.67 256.00 319.33 256.00 322.00 C 248.00 322.00 240.00 322.00 232.00 322.00 C 232.00 319.33 232.00 316.67 232.00 314.00 Z" />
<path fill="#000000" opacity="1.00" d=" M 264.00 314.00 C 272.00 314.00 280.00 313.99 288.00 314.00 C 288.00 316.67 288.00 319.33 288.00 322.00 C 280.00 322.00 272.00 322.00 264.00 322.00 C 263.99 319.33 263.99 316.66 264.00 314.00 Z" />
<path fill="#000000" opacity="1.00" d=" M 296.00 314.00 C 304.00 314.00 312.00 314.00 320.00 314.00 C 320.00 316.67 320.00 319.33 320.00 322.00 C 312.00 322.00 304.00 322.00 296.00 322.00 C 295.99 319.33 295.99 316.66 296.00 314.00 Z" />
<path fill="#000000" opacity="1.00" d=" M 328.00 314.00 C 336.00 314.00 344.00 314.00 352.00 314.00 C 352.00 316.66 352.00 319.33 352.00 322.00 C 344.00 322.00 336.00 322.00 328.00 322.00 C 327.99 319.33 327.99 316.67 328.00 314.00 Z" />
<path fill="#000000" opacity="1.00" d=" M 65.44 325.69 C 67.20 323.66 68.98 321.66 70.81 319.71 C 76.75 325.04 82.74 330.31 88.69 335.63 C 86.92 337.63 85.15 339.62 83.37 341.61 C 77.39 336.32 71.42 330.99 65.44 325.69 Z" />
<path fill="#000000" opacity="1.00" d=" M 113.26 346.30 C 119.25 341.01 125.20 335.68 131.19 330.39 C 133.00 332.37 134.78 334.39 136.47 336.48 C 130.32 341.59 124.67 347.30 118.37 352.21 C 116.72 350.20 114.98 348.25 113.26 346.30 Z" />
<path fill="#000000" opacity="1.00" d=" M 89.39 346.96 C 91.14 344.94 92.91 342.95 94.73 341.00 C 100.51 346.75 107.46 351.28 112.61 357.65 C 110.72 359.28 108.85 360.94 107.00 362.63 C 101.11 357.43 95.27 352.17 89.39 346.96 Z" />
</g>
</svg>
