<?xml version="1.0" encoding="UTF-8" ?>
<!DOCTYPE svg PUBLIC "-//W3C//DTD SVG 1.1//EN" "http://www.w3.org/Graphics/SVG/1.1/DTD/svg11.dtd">
<svg width="297pt" height="362pt" viewBox="0 0 297 362" version="1.1" xmlns="http://www.w3.org/2000/svg">
<g class="sprite" id="badge">
<path fill="#000000" opacity="1.00" d=" M 276.25 0.00 L 277.67 0.00 C 279.26 1.43 283.12 0.03 283.13 2.91 C 282.90 10.27 283.37 17.63 283.37 24.99 C 280.70 25.01 278.04 25.01 275.37 24.98 C 275.37 19.41 275.38 13.83 275.37 8.26 C 272.10 8.54 268.84 8.83 265.57 9.12 C 265.33 6.46 265.10 3.80 264.88 1.14 C 268.67 0.86 272.46 0.23 276.27 0.48 C 276.27 0.36 276.25 0.12 276.25 0.00 Z" />
<path fill="#000000" opacity="1.00" d=" M 233.00 3.89 C 240.95 3.18 248.91 2.49 256.87 1.84 C 257.11 4.49 257.34 7.15 257.55 9.80 C 249.60 10.49 241.64 11.16 233.69 11.79 C 233.46 9.16 233.23 6.53 233.00 3.89 Z" />
<path fill="#000000" opacity="1.00" d=" M 201.14 6.54 C 209.10 5.95 217.04 5.17 225.00 4.59 C 225.23 7.21 225.46 9.84 225.68 12.46 C 217.74 13.23 209.78 13.86 201.82 14.55 C 201.57 11.88 201.34 9.21 201.14 6.54 Z" />
<path fill="#000000" opacity="1.00" d=" M 169.24 9.30 C 177.20 8.65 185.15 7.92 193.11 7.26 C 193.37 9.92 193.60 12.58 193.79 15.24 C 185.82 15.94 177.86 16.64 169.89 17.29 C 169.66 14.63 169.45 11.97 169.24 9.30 Z" />
<path fill="#000000" opacity="1.00" d=" M 137.30 12.09 C 145.27 11.36 153.26 10.69 161.24 10.01 C 161.49 12.66 161.72 15.32 161.92 17.98 C 153.95 18.70 145.98 19.32 138.02 20.00 C 137.77 17.36 137.53 14.72 137.30 12.09 Z" />
<path fill="#000000" opacity="1.00" d=" M 105.45 14.81 C 113.42 14.14 121.39 13.42 129.36 12.76 C 129.62 15.40 129.85 18.05 130.04 20.69 C 122.06 21.35 114.09 22.10 106.12 22.73 C 105.88 20.09 105.66 17.45 105.45 14.81 Z" />
<path fill="#000000" opacity="1.00" d=" M 73.57 17.53 C 81.53 16.79 89.52 16.18 97.49 15.51 C 97.73 18.14 97.96 20.77 98.19 23.41 C 90.21 24.15 82.22 24.82 74.23 25.48 C 74.02 22.83 73.79 20.18 73.57 17.53 Z" />
<path fill="#000000" opacity="1.00" d=" M 41.74 20.25 C 49.70 19.57 57.65 18.86 65.60 18.20 C 65.87 20.86 66.09 23.52 66.30 26.18 C 59.66 26.78 53.02 27.30 46.38 27.92 C 46.36 34.28 46.39 40.63 46.37 46.99 C 43.70 47.01 41.04 47.01 38.37 46.98 C 38.38 38.99 38.38 31.01 38.37 23.02 C 39.54 23.01 40.71 23.00 41.88 22.99 C 41.84 22.31 41.78 20.94 41.74 20.25 Z" />
<path fill="#000000" opacity="1.00" d=" M 275.25 33.01 C 277.91 32.99 280.58 32.99 283.24 33.01 C 283.26 41.00 283.25 49.00 283.24 56.99 C 280.58 57.01 277.91 57.01 275.25 56.98 C 275.25 48.99 275.25 41.00 275.25 33.01 Z" />
<path fill="#000000" opacity="1.00" d=" M 38.25 55.02 C 40.91 54.99 43.58 54.99 46.24 55.01 C 46.26 63.00 46.26 71.00 46.24 78.99 C 43.58 79.01 40.91 79.01 38.25 78.98 C 38.25 70.99 38.25 63.00 38.25 55.02 Z" />
<path fill="#000000" opacity="1.00" d=" M 275.24 65.02 C 277.91 64.99 280.58 64.99 283.25 65.01 C 283.25 73.00 283.26 81.00 283.24 88.99 C 280.58 89.01 277.91 89.01 275.25 88.98 C 275.25 81.00 275.26 73.01 275.24 65.02 Z" />
<path fill="#000000" opacity="1.00" d=" M 38.25 87.02 C 40.91 86.99 43.58 86.99 46.24 87.01 C 46.26 95.00 46.26 103.00 46.24 110.99 C 43.58 111.01 40.91 111.01 38.25 110.98 C 38.25 102.99 38.25 95.01 38.25 87.02 Z" />
<path fill="#000000" opacity="1.00" d=" M 275.25 97.02 C 277.91 96.99 280.58 96.99 283.24 97.01 C 283.26 105.00 283.25 113.00 283.25 120.99 C 280.58 121.01 277.91 121.01 275.25 120.98 C 275.25 112.99 275.25 105.01 275.25 97.02 Z" />
<path fill="#000000" opacity="1.00" d=" M 38.25 119.02 C 40.91 118.99 43.58 118.99 46.24 119.01 C 46.26 127.00 46.26 135.00 46.24 142.99 C 43.58 143.01 40.91 143.01 38.25 142.99 C 38.25 135.00 38.25 127.01 38.25 119.02 Z" />
<path fill="#000000" opacity="1.00" d=" M 275.25 129.02 C 277.91 128.99 280.58 128.99 283.24 129.01 C 283.26 137.00 283.25 145.00 283.25 152.99 C 280.58 153.01 277.91 153.01 275.25 152.98 C 275.25 144.99 275.25 137.01 275.25 129.02 Z" />
<path fill="#000000" opacity="1.00" d=" M 38.13 151.01 C 40.79 150.99 43.45 150.99 46.12 151.01 C 46.13 159.00 46.13 167.00 46.12 174.99 C 43.45 175.01 40.79 175.01 38.12 174.99 C 38.13 167.00 38.12 159.00 38.13 151.01 Z" />
<path fill="#000000" opacity="1.00" d=" M 275.13 161.01 C 277.79 160.99 280.45 160.99 283.12 161.01 C 283.13 169.00 283.13 177.00 283.12 184.99 C 280.45 185.01 277.79 185.01 275.12 184.99 C 275.13 176.99 275.12 169.00 275.13 161.01 Z" />
<path fill="#000000" opacity="1.00" d=" M 38.12 183.01 C 40.79 182.99 43.45 182.99 46.12 183.01 C 46.13 191.00 46.13 199.00 46.12 206.99 C 43.45 207.01 40.79 207.01 38.13 206.99 C 38.12 199.00 38.13 191.00 38.12 183.01 Z" />
<path fill="#000000" opacity="1.00" d=" M 275.13 193.01 C 277.79 192.99 280.45 192.99 283.12 193.01 C 283.13 201.00 283.13 209.00 283.12 216.99 C 280.45 217.01 277.79 217.01 275.13 216.99 C 275.12 209.00 275.12 201.00 275.13 193.01 Z" />
<path fill="#000000" opacity="1.00" d=" M 38.13 215.01 C 40.79 214.99 43.45 214.99 46.12 215.01 C 46.13 223.00 46.13 231.00 46.12 238.99 C 43.45 239.01 40.79 239.01 38.13 238.99 C 38.13 231.00 38.12 223.00 38.13 215.01 Z" />
<path fill="#000000" opacity="1.00" d=" M 275.13 225.01 C 277.79 224.99 280.45 224.99 283.12 225.01 C 283.13 233.00 283.13 241.00 283.12 248.99 C 280.45 249.01 277.79 249.01 275.12 248.99 C 275.13 240.99 275.12 233.00 275.13 225.01 Z" />
<path fill="#000000" opacity="1.00" d=" M 38.13 247.01 C 40.79 246.99 43.45 246.99 46.12 247.01 C 46.13 255.00 46.13 263.00 46.12 270.99 C 43.45 271.01 40.79 271.01 38.13 270.99 C 38.12 263.00 38.12 255.00 38.13 247.01 Z" />
<path fill="#000000" opacity="1.00" d=" M 275.00 257.01 C 277.67 256.99 280.33 256.99 282.99 257.01 C 283.00 265.00 283.00 273.00 283.00 280.99 C 280.33 281.00 277.67 281.00 275.01 280.99 C 274.99 273.00 275.00 265.00 275.00 257.01 Z" />
<path fill="#000000" opacity="1.00" d=" M 38.00 279.01 C 40.67 278.99 43.33 278.99 45.99 279.01 C 46.00 287.00 46.00 295.00 46.00 302.99 C 43.33 303.00 40.67 303.00 38.01 302.99 C 38.00 295.00 38.00 287.00 38.00 279.01 Z" />
<path fill="#000000" opacity="1.00" d=" M 275.01 289.01 C 277.67 288.99 280.33 288.99 282.99 289.01 C 283.01 294.79 282.99 300.57 283.00 306.35 C 291.16 311.66 296.55 320.77 297.00 330.53 L 297.00 332.24 C 296.58 342.09 291.27 351.68 282.69 356.67 C 271.96 363.39 256.96 361.90 247.73 353.25 C 240.09 346.45 236.55 335.51 238.72 325.53 C 240.53 316.37 247.08 308.41 255.57 304.62 C 261.64 301.86 268.54 301.55 275.00 302.95 C 275.00 298.30 274.99 293.65 275.01 289.01 Z" />
<path fill="#000000" opacity="1.00" d=" M 10.32 310.26 C 20.62 300.94 37.66 300.75 48.18 309.81 C 59.07 318.42 62.15 335.10 55.06 347.03 C 50.17 355.94 40.41 361.55 30.33 362.00 L 28.77 362.00 C 19.89 361.57 11.20 357.31 5.94 350.07 C 2.20 345.29 0.45 339.30 0.00 333.32 L 0.00 331.78 C 0.42 323.60 4.00 315.56 10.32 310.26 Z" />
</g>
<g class="sprite" id="icon">
<path fill="#ffffff" opacity="1.00" d=" M 276.25 0.00 L 277.67 0.00 C 279.26 1.43 283.12 0.03 283.13 2.91 C 282.90 10.27 283.37 17.63 283.37 24.99 C 280.70 25.01 278.04 25.01 275.37 24.98 C 275.37 19.41 275.38 13.83 275.37 8.26 C 272.10 8.54 268.84 8.83 265.57 9.12 C 265.33 6.46 265.10 3.80 264.88 1.14 C 268.67 0.86 272.46 0.23 276.27 0.48 C 276.27 0.36 276.25 0.12 276.25 0.00 Z" />
<path fill="#ffffff" opacity="1.00" d=" M 233.00 3.89 C 240.95 3.18 248.91 2.49 256.87 1.84 C 257.11 4.49 257.34 7.15 257.55 9.80 C 249.60 10.49 241.64 11.16 233.69 11.79 C 233.46 9.16 233.23 6.53 233.00 3.89 Z" />
<path fill="#ffffff" opacity="1.00" d=" M 201.14 6.54 C 209.10 5.95 217.04 5.17 225.00 4.59 C 225.23 7.21 225.46 9.84 225.68 12.46 C 217.74 13.23 209.78 13.86 201.82 14.55 C 201.57 11.88 201.34 9.21 201.14 6.54 Z" />
<path fill="#ffffff" opacity="1.00" d=" M 169.24 9.30 C 177.20 8.65 185.15 7.92 193.11 7.26 C 193.37 9.92 193.60 12.58 193.79 15.24 C 185.82 15.94 177.86 16.64 169.89 17.29 C 169.66 14.63 169.45 11.97 169.24 9.30 Z" />
<path fill="#ffffff" opacity="1.00" d=" M 137.30 12.09 C 145.27 11.36 153.26 10.69 161.24 10.01 C 161.49 12.66 161.72 15.32 161.92 17.98 C 153.95 18.70 145.98 19.32 138.02 20.00 C 137.77 17.36 137.53 14.72 137.30 12.09 Z" />
<path fill="#ffffff" opacity="1.00" d=" M 105.45 14.81 C 113.42 14.14 121.39 13.42 129.36 12.76 C 129.62 15.40 129.85 18.05 130.04 20.69 C 122.06 21.35 114.09 22.10 106.12 22.73 C 105.88 20.09 105.66 17.45 105.45 14.81 Z" />
<path fill="#ffffff" opacity="1.00" d=" M 73.57 17.53 C 81.53 16.79 89.52 16.18 97.49 15.51 C 97.73 18.14 97.96 20.77 98.19 23.41 C 90.21 24.15 82.22 24.82 74.23 25.48 C 74.02 22.83 73.79 20.18 73.57 17.53 Z" />
<path fill="#ffffff" opacity="1.00" d=" M 41.74 20.25 C 49.70 19.57 57.65 18.86 65.60 18.20 C 65.87 20.86 66.09 23.52 66.30 26.18 C 59.66 26.78 53.02 27.30 46.38 27.92 C 46.36 34.28 46.39 40.63 46.37 46.99 C 43.70 47.01 41.04 47.01 38.37 46.98 C 38.38 38.99 38.38 31.01 38.37 23.02 C 39.54 23.01 40.71 23.00 41.88 22.99 C 41.84 22.31 41.78 20.94 41.74 20.25 Z" />
<path fill="#ffffff" opacity="1.00" d=" M 275.25 33.01 C 277.91 32.99 280.58 32.99 283.24 33.01 C 283.26 41.00 283.25 49.00 283.24 56.99 C 280.58 57.01 277.91 57.01 275.25 56.98 C 275.25 48.99 275.25 41.00 275.25 33.01 Z" />
<path fill="#ffffff" opacity="1.00" d=" M 38.25 55.02 C 40.91 54.99 43.58 54.99 46.24 55.01 C 46.26 63.00 46.26 71.00 46.24 78.99 C 43.58 79.01 40.91 79.01 38.25 78.98 C 38.25 70.99 38.25 63.00 38.25 55.02 Z" />
<path fill="#ffffff" opacity="1.00" d=" M 275.24 65.02 C 277.91 64.99 280.58 64.99 283.25 65.01 C 283.25 73.00 283.26 81.00 283.24 88.99 C 280.58 89.01 277.91 89.01 275.25 88.98 C 275.25 81.00 275.26 73.01 275.24 65.02 Z" />
<path fill="#ffffff" opacity="1.00" d=" M 38.25 87.02 C 40.91 86.99 43.58 86.99 46.24 87.01 C 46.26 95.00 46.26 103.00 46.24 110.99 C 43.58 111.01 40.91 111.01 38.25 110.98 C 38.25 102.99 38.25 95.01 38.25 87.02 Z" />
<path fill="#ffffff" opacity="1.00" d=" M 275.25 97.02 C 277.91 96.99 280.58 96.99 283.24 97.01 C 283.26 105.00 283.25 113.00 283.25 120.99 C 280.58 121.01 277.91 121.01 275.25 120.98 C 275.25 112.99 275.25 105.01 275.25 97.02 Z" />
<path fill="#ffffff" opacity="1.00" d=" M 38.25 119.02 C 40.91 118.99 43.58 118.99 46.24 119.01 C 46.26 127.00 46.26 135.00 46.24 142.99 C 43.58 143.01 40.91 143.01 38.25 142.99 C 38.25 135.00 38.25 127.01 38.25 119.02 Z" />
<path fill="#ffffff" opacity="1.00" d=" M 275.25 129.02 C 277.91 128.99 280.58 128.99 283.24 129.01 C 283.26 137.00 283.25 145.00 283.25 152.99 C 280.58 153.01 277.91 153.01 275.25 152.98 C 275.25 144.99 275.25 137.01 275.25 129.02 Z" />
<path fill="#ffffff" opacity="1.00" d=" M 38.13 151.01 C 40.79 150.99 43.45 150.99 46.12 151.01 C 46.13 159.00 46.13 167.00 46.12 174.99 C 43.45 175.01 40.79 175.01 38.12 174.99 C 38.13 167.00 38.12 159.00 38.13 151.01 Z" />
<path fill="#ffffff" opacity="1.00" d=" M 275.13 161.01 C 277.79 160.99 280.45 160.99 283.12 161.01 C 283.13 169.00 283.13 177.00 283.12 184.99 C 280.45 185.01 277.79 185.01 275.12 184.99 C 275.13 176.99 275.12 169.00 275.13 161.01 Z" />
<path fill="#ffffff" opacity="1.00" d=" M 38.12 183.01 C 40.79 182.99 43.45 182.99 46.12 183.01 C 46.13 191.00 46.13 199.00 46.12 206.99 C 43.45 207.01 40.79 207.01 38.13 206.99 C 38.12 199.00 38.13 191.00 38.12 183.01 Z" />
<path fill="#ffffff" opacity="1.00" d=" M 275.13 193.01 C 277.79 192.99 280.45 192.99 283.12 193.01 C 283.13 201.00 283.13 209.00 283.12 216.99 C 280.45 217.01 277.79 217.01 275.13 216.99 C 275.12 209.00 275.12 201.00 275.13 193.01 Z" />
<path fill="#ffffff" opacity="1.00" d=" M 38.13 215.01 C 40.79 214.99 43.45 214.99 46.12 215.01 C 46.13 223.00 46.13 231.00 46.12 238.99 C 43.45 239.01 40.79 239.01 38.13 238.99 C 38.13 231.00 38.12 223.00 38.13 215.01 Z" />
<path fill="#ffffff" opacity="1.00" d=" M 275.13 225.01 C 277.79 224.99 280.45 224.99 283.12 225.01 C 283.13 233.00 283.13 241.00 283.12 248.99 C 280.45 249.01 277.79 249.01 275.12 248.99 C 275.13 240.99 275.12 233.00 275.13 225.01 Z" />
<path fill="#ffffff" opacity="1.00" d=" M 38.13 247.01 C 40.79 246.99 43.45 246.99 46.12 247.01 C 46.13 255.00 46.13 263.00 46.12 270.99 C 43.45 271.01 40.79 271.01 38.13 270.99 C 38.12 263.00 38.12 255.00 38.13 247.01 Z" />
<path fill="#ffffff" opacity="1.00" d=" M 275.00 257.01 C 277.67 256.99 280.33 256.99 282.99 257.01 C 283.00 265.00 283.00 273.00 283.00 280.99 C 280.33 281.00 277.67 281.00 275.01 280.99 C 274.99 273.00 275.00 265.00 275.00 257.01 Z" />
<path fill="#ffffff" opacity="1.00" d=" M 38.00 279.01 C 40.67 278.99 43.33 278.99 45.99 279.01 C 46.00 287.00 46.00 295.00 46.00 302.99 C 43.33 303.00 40.67 303.00 38.01 302.99 C 38.00 295.00 38.00 287.00 38.00 279.01 Z" />
<path fill="#ffffff" opacity="1.00" d=" M 275.01 289.01 C 277.67 288.99 280.33 288.99 282.99 289.01 C 283.01 294.79 282.99 300.57 283.00 306.35 C 291.16 311.66 296.55 320.77 297.00 330.53 L 297.00 332.24 C 296.58 342.09 291.27 351.68 282.69 356.67 C 271.96 363.39 256.96 361.90 247.73 353.25 C 240.09 346.45 236.55 335.51 238.72 325.53 C 240.53 316.37 247.08 308.41 255.57 304.62 C 261.64 301.86 268.54 301.55 275.00 302.95 C 275.00 298.30 274.99 293.65 275.01 289.01 Z" />
<path fill="#ffffff" opacity="1.00" d=" M 10.32 310.26 C 20.62 300.94 37.66 300.75 48.18 309.81 C 59.07 318.42 62.15 335.10 55.06 347.03 C 50.17 355.94 40.41 361.55 30.33 362.00 L 28.77 362.00 C 19.89 361.57 11.20 357.31 5.94 350.07 C 2.20 345.29 0.45 339.30 0.00 333.32 L 0.00 331.78 C 0.42 323.60 4.00 315.56 10.32 310.26 Z" />
</g>
<defs>
    <style><![CDATA[
        .sprite { display: none; }
        .sprite:target { display: inline; }
    ]]></style>
</defs>
</svg>
