<?xml version="1.0" encoding="UTF-8" ?>
<!DOCTYPE svg PUBLIC "-//W3C//DTD SVG 1.1//EN" "http://www.w3.org/Graphics/SVG/1.1/DTD/svg11.dtd">
<svg width="180pt" height="147pt" viewBox="0 0 180 147" version="1.1" xmlns="http://www.w3.org/2000/svg">
<g id="#db4937ff">
<path fill="#db4937" opacity="1.00" d=" M 36.27 1.31 C 59.13 -2.09 81.11 14.09 89.23 34.88 C 89.61 34.87 90.37 34.86 90.75 34.86 C 97.99 17.81 113.45 3.53 132.26 1.28 C 149.28 -0.67 167.87 7.50 175.60 23.29 C 182.52 39.14 179.32 58.17 170.82 72.82 C 152.57 105.21 121.22 127.14 90.69 147.00 L 89.30 147.00 C 59.24 127.27 28.35 105.78 9.96 74.01 C 0.33 57.60 -3.40 35.85 6.94 18.94 C 13.90 9.39 24.53 2.96 36.27 1.31 M 129.29 30.31 C 124.21 32.38 118.78 36.82 120.00 43.00 C 118.90 50.29 126.79 57.64 134.00 56.01 C 141.04 56.98 147.99 50.05 147.00 43.00 C 148.29 33.78 137.37 27.75 129.29 30.31 M 53.31 37.42 C 48.39 38.27 43.80 40.72 40.73 44.72 C 37.43 44.69 39.86 49.42 41.29 47.28 C 47.42 39.05 59.65 37.62 68.27 42.68 C 70.60 44.29 70.47 40.86 68.76 40.27 C 63.98 38.01 58.65 35.99 53.31 37.42 M 144.73 68.69 C 134.35 78.29 125.55 90.86 111.95 95.94 C 101.87 94.50 100.22 80.29 90.00 78.98 C 81.96 79.26 81.82 92.29 74.04 91.98 C 65.17 88.42 61.20 74.86 50.27 76.28 C 44.25 78.80 42.81 85.93 40.34 91.27 C 39.02 93.34 42.68 93.99 44.04 93.76 C 44.20 93.58 44.50 93.20 44.66 93.02 C 46.62 88.84 47.49 83.00 52.05 81.01 C 58.93 82.12 61.60 90.48 67.77 93.24 C 71.29 98.83 80.45 98.07 82.97 91.97 C 85.45 89.43 87.23 82.95 91.78 84.17 C 98.71 90.49 104.12 103.50 115.71 99.68 C 128.46 93.50 138.04 82.72 147.25 72.26 C 151.27 71.43 146.39 66.35 144.73 68.69 Z" />
</g>
<g id="#92d050ff">
<path fill="#92d050" opacity="1.00" d=" M 129.29 30.31 C 137.37 27.75 148.29 33.78 147.00 43.00 C 147.99 50.05 141.04 56.98 134.00 56.01 C 126.79 57.64 118.90 50.29 120.00 43.00 C 118.78 36.82 124.21 32.38 129.29 30.31 Z" />
<path fill="#92d050" opacity="1.00" d=" M 53.31 37.42 C 58.65 35.99 63.98 38.01 68.76 40.27 C 70.47 40.86 70.60 44.29 68.27 42.68 C 59.65 37.62 47.42 39.05 41.29 47.28 C 39.86 49.42 37.43 44.69 40.73 44.72 C 43.80 40.72 48.39 38.27 53.31 37.42 Z" />
</g>
<g id="#93d050ff">
<path fill="#93d050" opacity="1.00" d=" M 144.73 68.69 C 146.39 66.35 151.27 71.43 147.25 72.26 C 138.04 82.72 128.46 93.50 115.71 99.68 C 104.12 103.50 98.71 90.49 91.78 84.17 C 87.23 82.95 85.45 89.43 82.97 91.97 C 80.45 98.07 71.29 98.83 67.77 93.24 C 61.60 90.48 58.93 82.12 52.05 81.01 C 47.49 83.00 46.62 88.84 44.66 93.02 C 44.50 93.20 44.20 93.58 44.04 93.76 C 42.68 93.99 39.02 93.34 40.34 91.27 C 42.81 85.93 44.25 78.80 50.27 76.28 C 61.20 74.86 65.17 88.42 74.04 91.98 C 81.82 92.29 81.96 79.26 90.00 78.98 C 100.22 80.29 101.87 94.50 111.95 95.94 C 125.55 90.86 134.35 78.29 144.73 68.69 Z" />
</g>
<g id="#e7867aff">
<path fill="#e7867a" opacity="1.00" d=" M 44.04 93.76 C 44.20 93.58 44.50 93.20 44.66 93.02 C 44.50 93.20 44.20 93.58 44.04 93.76 Z" />
</g>
</svg>
