<?xml version="1.0" encoding="UTF-8" ?>
<!DOCTYPE svg PUBLIC "-//W3C//DTD SVG 1.1//EN" "http://www.w3.org/Graphics/SVG/1.1/DTD/svg11.dtd">
<svg width="112pt" height="100pt" viewBox="0 0 112 100" version="1.1" xmlns="http://www.w3.org/2000/svg">
<g id="#ffffffff">
<path fill="#ffffff" opacity="1.00" d=" M 0.00 0.00 L 35.00 0.00 C 35.00 3.33 35.00 6.67 35.00 10.00 C 26.67 10.00 18.33 10.00 10.00 10.00 C 10.00 16.33 10.00 22.67 10.00 29.00 C 6.67 29.00 3.33 29.00 0.00 29.00 L 0.00 0.00 Z" />
<path fill="#ffffff" opacity="1.00" d=" M 45.00 0.00 L 75.00 0.00 C 75.00 3.33 75.00 6.67 75.00 10.00 C 65.00 10.00 55.00 10.00 45.00 10.00 C 45.00 6.67 45.00 3.33 45.00 0.00 Z" />
<path fill="#ffffff" opacity="1.00" d=" M 85.00 0.00 L 112.00 0.00 L 112.00 13.00 C 108.67 13.00 105.34 13.00 102.01 13.00 C 102.00 12.25 102.00 10.75 101.99 10.00 C 96.33 10.00 90.66 10.00 85.00 10.00 C 85.00 6.67 85.00 3.33 85.00 0.00 Z" />
<path fill="#ffffff" opacity="1.00" d=" M 102.00 23.00 C 105.33 23.00 108.67 23.00 112.00 23.00 L 112.00 53.00 C 108.67 53.00 105.33 53.00 102.00 53.00 C 102.00 43.00 102.00 33.00 102.00 23.00 Z" />
<path fill="#ffffff" opacity="1.00" d=" M 20.00 38.00 C 30.00 38.00 40.00 38.00 50.00 38.00 C 50.00 41.33 50.00 44.67 50.00 48.00 C 40.00 48.00 30.00 48.00 20.00 48.00 C 20.00 44.67 20.00 41.33 20.00 38.00 Z" />
<path fill="#ffffff" opacity="1.00" d=" M 60.00 38.00 C 70.00 38.00 80.00 38.00 90.00 38.00 C 90.00 41.33 90.00 44.67 90.00 48.00 C 80.00 48.00 70.00 48.00 60.00 48.00 C 60.00 44.67 60.00 41.33 60.00 38.00 Z" />
<path fill="#ffffff" opacity="1.00" d=" M 0.00 39.00 C 3.33 39.00 6.67 39.00 10.00 39.00 C 10.00 49.00 10.00 59.00 10.00 69.00 C 6.67 69.00 3.33 69.00 0.00 69.00 L 0.00 39.00 Z" />
<path fill="#ffffff" opacity="1.00" d=" M 20.00 55.00 C 30.00 55.00 40.00 55.00 50.00 55.00 C 50.00 58.33 50.00 61.67 50.00 65.00 C 40.00 65.00 30.00 65.00 20.00 65.00 C 20.00 61.67 20.00 58.33 20.00 55.00 Z" />
<path fill="#ffffff" opacity="1.00" d=" M 60.00 55.00 C 70.00 55.00 80.00 55.00 90.00 55.00 C 90.00 58.33 90.00 61.67 90.00 65.00 C 80.00 65.00 70.00 65.00 60.00 65.00 C 60.00 61.67 60.00 58.33 60.00 55.00 Z" />
<path fill="#ffffff" opacity="1.00" d=" M 102.00 63.00 C 105.33 63.00 108.67 63.00 112.00 63.00 L 112.00 93.00 C 108.67 93.00 105.33 93.00 102.00 93.00 C 102.00 83.00 102.00 73.00 102.00 63.00 Z" />
<path fill="#ffffff" opacity="1.00" d=" M 0.00 79.00 C 3.33 79.00 6.67 79.00 10.00 79.00 C 10.00 82.67 10.00 86.33 10.00 90.00 C 13.00 90.00 16.00 90.00 19.00 90.00 C 19.00 93.33 19.00 96.67 19.00 100.00 L 0.00 100.00 L 0.00 79.00 Z" />
<path fill="#ffffff" opacity="1.00" d=" M 29.00 90.00 C 39.00 90.00 49.00 90.00 59.00 90.00 C 59.00 93.33 59.00 96.67 59.00 100.00 L 29.00 100.00 C 29.00 96.67 29.00 93.33 29.00 90.00 Z" />
<path fill="#ffffff" opacity="1.00" d=" M 69.00 90.00 C 79.00 90.00 89.00 90.00 99.00 90.00 C 99.00 93.33 99.00 96.67 99.00 100.00 L 69.00 100.00 C 69.00 96.67 69.00 93.33 69.00 90.00 Z" />
</g>
<g id="#ffffffff">
</g>
</svg>
