<?xml version="1.0" encoding="UTF-8" ?>
<!DOCTYPE svg PUBLIC "-//W3C//DTD SVG 1.1//EN" "http://www.w3.org/Graphics/SVG/1.1/DTD/svg11.dtd">
<svg width="95pt" height="99pt" viewBox="0 0 95 99" version="1.1" xmlns="http://www.w3.org/2000/svg">
<g id="#ffffffff">
</g>
<g id="#ffffffff">
<path fill="#ffffff" opacity="1.00" d=" M 11.25 9.14 C 13.89 5.83 16.81 2.75 20.07 0.05 C 21.67 2.03 23.25 4.01 24.82 6.00 C 22.11 8.33 19.64 10.92 17.39 13.69 C 15.34 12.17 13.30 10.66 11.25 9.14 Z" />
<path fill="#ffffff" opacity="1.00" d=" M 0.69 39.57 C 1.07 31.43 3.27 23.42 6.89 16.13 C 9.17 17.27 11.45 18.44 13.71 19.60 C 10.33 25.91 8.85 32.99 8.06 40.04 C 5.60 39.89 3.14 39.73 0.69 39.57 Z" />
<path fill="#ffffff" opacity="1.00" d=" M 25.00 46.00 C 35.00 46.00 45.00 46.00 55.00 46.00 C 55.00 49.33 55.00 52.67 55.00 56.00 C 45.00 56.00 35.00 56.00 25.00 56.00 C 25.00 52.67 25.00 49.33 25.00 46.00 Z" />
<path fill="#ffffff" opacity="1.00" d=" M 65.00 46.00 C 75.00 46.00 85.00 46.00 95.00 46.00 L 95.00 56.00 C 85.00 56.00 75.00 56.00 65.00 56.00 C 65.00 52.67 65.00 49.33 65.00 46.00 Z" />
<path fill="#ffffff" opacity="1.00" d=" M 0.40 47.58 C 2.96 47.47 5.52 47.35 8.08 47.24 C 8.42 54.48 9.94 61.64 12.29 68.50 C 9.91 69.34 7.52 70.17 5.13 70.99 C 2.47 63.45 0.95 55.55 0.40 47.58 Z" />
<path fill="#ffffff" opacity="1.00" d=" M 8.03 78.45 C 10.35 77.38 12.67 76.32 14.99 75.26 C 18.07 81.90 21.95 88.14 26.44 93.93 C 24.50 95.47 22.56 97.00 20.64 98.56 C 15.32 92.64 11.58 85.52 8.03 78.45 Z" />
</g>
</svg>
