<?xml version="1.0" encoding="UTF-8" ?>
<!DOCTYPE svg PUBLIC "-//W3C//DTD SVG 1.1//EN" "http://www.w3.org/Graphics/SVG/1.1/DTD/svg11.dtd">
<svg width="132pt" height="96pt" viewBox="0 0 132 96" version="1.1" xmlns="http://www.w3.org/2000/svg">
<g id="#ffffffff">
</g>
<g id="#ffffffff">
<path fill="#ffffff" opacity="1.00" d=" M 58.92 0.90 C 66.71 0.47 74.55 0.57 82.35 0.84 C 82.02 3.31 81.88 5.79 81.63 8.27 C 74.24 7.49 66.66 7.92 59.35 7.77 C 59.21 5.48 59.05 3.19 58.92 0.90 Z" />
<path fill="#ffffff" opacity="1.00" d=" M 28.02 6.33 C 35.44 3.72 43.26 2.04 51.08 1.20 C 51.39 3.69 51.67 6.18 52.03 8.66 C 44.75 9.71 37.41 10.95 30.50 13.54 C 29.63 11.15 28.97 8.69 28.02 6.33 Z" />
<path fill="#ffffff" opacity="1.00" d=" M 90.16 1.58 C 97.95 2.73 105.61 4.65 113.05 7.23 C 112.32 9.64 111.05 11.90 110.59 14.37 C 103.53 12.12 96.37 10.10 89.01 9.20 C 89.37 6.66 89.73 4.12 90.16 1.58 Z" />
<path fill="#ffffff" opacity="1.00" d=" M 0.87 23.05 C 5.75 16.66 13.42 12.55 20.68 9.08 C 21.58 11.42 22.64 13.73 23.72 16.00 C 17.26 18.97 11.23 22.87 6.19 27.89 C 4.32 26.39 2.67 24.64 0.87 23.05 Z" />
<path fill="#ffffff" opacity="1.00" d=" M 117.13 17.01 C 118.27 14.85 119.20 12.54 120.50 10.49 C 124.35 12.65 128.39 14.80 131.40 18.06 C 130.06 20.11 128.20 21.86 126.46 23.57 C 123.71 20.91 119.98 19.25 117.13 17.01 Z" />
<path fill="#ffffff" opacity="1.00" d=" M 19.01 38.01 C 22.34 37.99 25.66 37.99 28.99 38.01 C 29.01 48.00 29.01 58.00 28.99 67.99 C 25.66 68.01 22.34 68.01 19.01 67.99 C 18.99 58.00 18.99 48.00 19.01 38.01 Z" />
<path fill="#ffffff" opacity="1.00" d=" M 102.01 38.01 C 105.34 37.99 108.66 37.99 111.99 38.01 C 112.01 48.00 112.01 58.00 111.99 67.99 C 108.66 68.01 105.34 68.01 102.01 67.99 C 101.99 58.00 101.99 48.00 102.01 38.01 Z" />
<path fill="#ffffff" opacity="1.00" d=" M 19.01 78.01 C 22.34 77.99 25.66 77.99 28.99 78.01 C 29.04 80.63 28.97 83.25 29.01 85.87 C 38.61 85.64 48.21 85.35 57.82 85.25 C 58.03 88.57 58.00 91.91 58.14 95.23 C 48.33 95.45 38.51 95.47 28.72 96.00 L 28.72 96.00 C 25.60 95.17 22.29 95.82 19.09 95.65 C 18.89 89.78 19.04 83.89 19.01 78.01 Z" />
<path fill="#ffffff" opacity="1.00" d=" M 102.01 78.01 C 105.33 77.99 108.66 78.00 111.99 78.01 C 112.02 83.72 111.99 89.43 112.00 95.14 C 108.68 95.45 105.32 95.50 102.00 95.19 C 102.01 89.46 101.99 83.74 102.01 78.01 Z" />
<path fill="#ffffff" opacity="1.00" d=" M 67.89 84.88 C 77.88 84.80 87.86 84.31 97.85 84.26 C 97.97 87.58 98.06 90.92 98.11 94.25 C 88.13 94.35 78.17 94.76 68.19 94.90 C 67.97 91.57 67.96 88.22 67.89 84.88 Z" />
</g>
</svg>
