<?xml version="1.0" encoding="UTF-8" ?>
<!DOCTYPE svg PUBLIC "-//W3C//DTD SVG 1.1//EN" "http://www.w3.org/Graphics/SVG/1.1/DTD/svg11.dtd">
<svg width="103pt" height="96pt" viewBox="0 0 103 96" version="1.1" xmlns="http://www.w3.org/2000/svg">
<g id="#ffffffff">
</g>
<g id="#ffffffff">
<path fill="#ffffff" opacity="1.00" d=" M 60.28 0.82 C 66.75 0.82 73.55 -0.34 79.74 2.11 C 84.63 3.77 88.98 6.70 92.69 10.26 C 90.35 12.62 87.91 14.87 85.57 17.23 C 79.71 11.20 70.82 8.99 62.68 10.68 C 61.88 7.39 61.04 4.11 60.28 0.82 Z" />
<path fill="#ffffff" opacity="1.00" d=" M 35.82 24.75 C 38.02 17.03 43.24 10.49 49.64 5.78 C 51.48 8.55 53.35 11.29 55.20 14.05 C 49.12 18.43 44.93 25.35 44.29 32.85 C 43.32 41.57 47.02 50.75 54.10 56.03 C 52.08 58.65 50.06 61.27 48.03 63.90 C 47.47 63.46 46.35 62.58 45.79 62.14 C 42.67 64.61 39.75 67.33 36.69 69.87 C 34.54 67.33 32.39 64.79 30.26 62.24 C 33.31 59.63 36.41 57.07 39.40 54.38 C 34.13 45.59 32.59 34.54 35.82 24.75 Z" />
<path fill="#ffffff" opacity="1.00" d=" M 90.43 24.08 C 93.41 22.61 96.40 21.16 99.39 19.70 C 101.48 24.43 102.70 29.52 103.00 34.69 L 103.00 36.53 C 102.63 42.30 101.17 48.02 98.41 53.12 C 95.50 51.52 92.60 49.92 89.70 48.29 C 93.74 40.89 93.91 31.74 90.43 24.08 Z" />
<path fill="#ffffff" opacity="1.00" d=" M 61.34 59.86 C 69.23 62.36 78.39 60.46 84.46 54.78 C 86.67 57.21 88.83 59.69 91.09 62.08 C 82.62 70.22 69.49 73.01 58.37 69.35 C 59.35 66.18 60.34 63.02 61.34 59.86 Z" />
<path fill="#ffffff" opacity="1.00" d=" M 0.00 88.03 C 7.54 81.61 15.07 75.16 22.64 68.76 C 24.80 71.28 26.98 73.79 29.11 76.33 C 21.65 82.95 13.61 88.97 6.56 96.00 L 6.32 96.00 C 4.44 93.27 1.96 91.03 0.00 88.36 L 0.00 88.03 Z" />
</g>
</svg>
