<?xml version="1.0" encoding="UTF-8" ?>
<!DOCTYPE svg PUBLIC "-//W3C//DTD SVG 1.1//EN" "http://www.w3.org/Graphics/SVG/1.1/DTD/svg11.dtd">
<svg width="362pt" height="362pt" viewBox="0 0 362 362" version="1.1" xmlns="http://www.w3.org/2000/svg">
<g class="sprite" id="badge">
<path fill="#000000" opacity="1.00" d=" M 174.83 0.00 L 183.00 0.00 C 183.00 2.66 183.00 5.31 183.00 7.97 C 175.17 8.05 167.34 8.45 159.56 9.34 C 159.23 6.69 158.89 4.04 158.56 1.39 C 163.97 0.79 169.41 0.41 174.83 0.00 Z" />
<path fill="#000000" opacity="1.00" d=" M 191.24 0.36 C 199.41 0.73 207.54 1.83 215.57 3.39 C 215.06 5.98 214.56 8.58 214.06 11.17 C 206.38 9.71 198.61 8.82 190.82 8.32 C 190.96 5.66 191.10 3.01 191.24 0.36 Z" />
<path fill="#000000" opacity="1.00" d=" M 126.62 8.35 C 134.48 6.05 142.40 3.93 150.49 2.62 C 150.94 5.26 151.38 7.90 151.83 10.53 C 144.13 11.84 136.54 13.75 129.06 15.96 C 128.24 13.43 127.43 10.89 126.62 8.35 Z" />
<path fill="#000000" opacity="1.00" d=" M 223.55 5.10 C 231.48 7.05 239.31 9.44 246.93 12.41 C 245.99 14.91 245.03 17.41 244.07 19.90 C 236.81 16.96 229.27 14.82 221.71 12.83 C 222.32 10.25 222.93 7.67 223.55 5.10 Z" />
<path fill="#000000" opacity="1.00" d=" M 96.50 21.01 C 103.70 17.12 111.22 13.87 118.87 10.98 C 119.78 13.48 120.70 15.97 121.62 18.47 C 114.34 21.29 107.10 24.29 100.25 28.06 C 99.01 25.71 97.76 23.36 96.50 21.01 Z" />
<path fill="#000000" opacity="1.00" d=" M 251.25 22.91 C 252.32 20.44 253.44 17.99 254.64 15.58 C 262.05 18.99 269.27 22.80 276.11 27.25 C 274.69 29.51 273.25 31.76 271.80 34.00 C 265.21 29.84 258.43 25.96 251.25 22.91 Z" />
<path fill="#000000" opacity="1.00" d=" M 141.49 25.10 C 150.05 24.89 158.72 25.87 166.69 29.14 C 165.68 31.58 164.69 34.03 163.71 36.48 C 156.72 33.83 149.24 32.84 141.79 33.10 C 141.70 30.43 141.60 27.77 141.49 25.10 Z" />
<path fill="#000000" opacity="1.00" d=" M 69.18 38.93 C 75.63 33.90 82.26 29.11 89.42 25.13 C 90.79 27.41 92.15 29.70 93.50 32.00 C 86.65 35.81 80.30 40.38 74.12 45.18 C 72.47 43.09 70.82 41.01 69.18 38.93 Z" />
<path fill="#000000" opacity="1.00" d=" M 109.04 33.19 C 116.65 29.61 124.78 27.15 133.10 25.94 C 133.48 28.56 133.86 31.18 134.23 33.80 C 126.75 35.01 119.42 37.14 112.56 40.37 C 111.39 37.97 110.22 35.58 109.04 33.19 Z" />
<path fill="#000000" opacity="1.00" d=" M 278.50 38.12 C 280.02 35.93 281.54 33.75 283.07 31.57 C 289.56 36.50 296.36 41.07 302.17 46.83 C 300.39 48.81 298.60 50.78 296.81 52.74 C 291.19 47.28 284.72 42.85 278.50 38.12 Z" />
<path fill="#000000" opacity="1.00" d=" M 170.19 39.77 C 171.61 37.52 173.05 35.29 174.51 33.07 C 182.01 37.85 187.63 45.23 190.54 53.61 C 188.06 54.53 185.57 55.43 183.09 56.34 C 180.66 49.61 176.21 43.68 170.19 39.77 Z" />
<path fill="#000000" opacity="1.00" d=" M 84.17 55.85 C 88.92 48.84 94.64 42.39 101.65 37.57 C 103.16 39.73 104.66 41.89 106.17 44.06 C 100.01 48.41 94.98 54.13 90.79 60.36 C 88.58 58.86 86.37 57.36 84.17 55.85 Z" />
<path fill="#000000" opacity="1.00" d=" M 45.51 61.39 C 50.78 55.12 56.75 49.53 62.87 44.12 C 64.62 46.14 66.37 48.16 68.12 50.18 C 62.20 55.32 56.50 60.69 51.43 66.68 C 49.45 64.92 47.48 63.16 45.51 61.39 Z" />
<path fill="#000000" opacity="1.00" d=" M 302.72 58.00 C 304.56 56.09 306.40 54.17 308.27 52.28 C 313.70 58.40 319.64 64.11 324.39 70.80 C 322.28 72.43 320.18 74.06 318.07 75.67 C 313.46 69.36 307.90 63.84 302.72 58.00 Z" />
<path fill="#000000" opacity="1.00" d=" M 165.13 70.36 C 171.57 67.64 178.75 65.89 183.92 60.92 C 186.25 62.14 188.57 63.39 190.87 64.67 C 185.58 72.23 176.04 74.39 168.01 77.81 C 167.03 75.33 166.08 72.85 165.13 70.36 Z" />
<path fill="#000000" opacity="1.00" d=" M 70.82 88.81 C 72.31 79.78 75.44 71.10 79.76 63.05 C 82.11 64.30 84.46 65.56 86.80 66.83 C 82.95 74.03 80.10 81.79 78.75 89.86 C 76.10 89.51 73.46 89.16 70.82 88.81 Z" />
<path fill="#000000" opacity="1.00" d=" M 26.24 87.76 C 29.98 80.46 35.23 74.13 40.10 67.59 C 42.12 69.28 44.49 70.67 46.15 72.72 C 41.66 79.03 36.65 84.99 33.02 91.87 C 30.78 90.46 28.52 89.08 26.24 87.76 Z" />
<path fill="#000000" opacity="1.00" d=" M 216.33 69.31 C 222.77 66.59 229.91 69.08 236.31 70.76 C 235.54 73.29 234.77 75.83 234.00 78.36 C 229.65 77.06 225.19 76.06 220.63 75.98 C 219.38 79.56 214.78 78.19 211.84 78.99 C 211.56 75.28 212.54 70.89 216.33 69.31 Z" />
<path fill="#000000" opacity="1.00" d=" M 146.99 79.96 C 150.06 77.21 153.85 75.51 157.41 73.51 C 158.58 75.89 159.71 78.30 160.86 80.69 C 156.77 82.81 152.68 85.05 149.51 88.47 C 146.66 90.12 143.18 90.42 140.25 92.00 C 139.01 89.68 137.77 87.36 136.54 85.03 C 139.90 83.04 144.17 82.82 146.99 79.96 Z" />
<path fill="#000000" opacity="1.00" d=" M 241.40 80.94 C 242.27 78.39 243.20 75.84 244.21 73.33 C 251.57 76.15 258.95 78.96 266.48 81.33 C 265.72 83.88 264.96 86.43 264.21 88.98 C 256.51 86.58 248.99 83.64 241.40 80.94 Z" />
<path fill="#000000" opacity="1.00" d=" M 322.76 81.89 C 324.94 80.37 327.12 78.85 329.31 77.34 C 333.93 84.05 338.08 91.09 342.02 98.21 C 340.61 98.97 339.20 99.73 337.80 100.51 C 334.92 106.10 330.72 110.87 327.53 116.29 C 325.26 114.89 323.00 113.47 320.74 112.05 C 324.39 106.79 327.51 101.12 331.82 96.36 C 328.78 91.55 326.06 86.54 322.76 81.89 Z" />
<path fill="#000000" opacity="1.00" d=" M 272.38 91.01 C 272.85 88.39 273.32 85.78 273.80 83.16 C 278.27 84.34 283.74 83.41 287.41 86.62 C 290.19 91.30 292.01 97.18 290.15 102.54 C 287.70 101.63 285.26 100.70 282.84 99.72 C 283.14 97.18 282.37 94.73 281.53 92.37 C 278.47 91.96 275.42 91.51 272.38 91.01 Z" />
<path fill="#000000" opacity="1.00" d=" M 213.97 87.17 C 216.57 86.56 219.17 85.97 221.78 85.39 C 222.93 91.25 223.36 97.75 220.06 103.04 C 217.09 108.65 210.67 111.10 207.24 116.34 C 205.50 118.86 204.42 121.76 203.36 124.62 C 200.77 123.90 198.20 123.13 195.66 122.26 C 197.67 116.61 200.35 111.00 204.87 106.91 C 207.76 104.10 211.66 102.18 213.53 98.45 C 215.34 94.94 214.51 90.89 213.97 87.17 Z" />
<path fill="#000000" opacity="1.00" d=" M 112.26 108.06 C 117.30 101.43 122.70 94.91 129.38 89.87 C 130.97 91.95 132.59 94.01 134.23 96.06 C 128.28 100.96 123.18 106.79 118.57 112.93 C 116.47 111.29 114.37 109.68 112.26 108.06 Z" />
<path fill="#000000" opacity="1.00" d=" M 11.76 117.00 C 14.56 109.31 18.09 101.90 21.93 94.68 C 24.80 96.21 27.55 98.18 30.85 98.64 C 31.16 99.95 31.47 101.26 31.78 102.57 C 29.89 103.11 27.98 103.63 26.08 104.15 C 23.42 109.20 21.28 114.50 19.18 119.80 C 16.70 118.87 14.23 117.94 11.76 117.00 Z" />
<path fill="#000000" opacity="1.00" d=" M 70.26 97.11 C 72.88 97.24 75.51 97.38 78.13 97.53 C 78.02 105.29 78.19 113.06 79.26 120.75 C 76.60 121.08 73.95 121.41 71.29 121.74 C 70.21 113.58 69.89 105.33 70.26 97.11 Z" />
<path fill="#000000" opacity="1.00" d=" M 261.94 121.31 C 267.82 116.22 273.75 111.14 278.92 105.30 C 280.98 106.97 283.03 108.65 285.08 110.34 C 279.79 116.65 273.41 121.90 267.24 127.30 C 265.47 125.30 263.70 123.31 261.94 121.31 Z" />
<path fill="#000000" opacity="1.00" d=" M 338.34 109.00 C 340.74 107.88 343.16 106.77 345.59 105.70 C 349.06 113.10 351.89 120.78 354.30 128.58 C 351.75 129.34 349.20 130.10 346.65 130.86 C 344.37 123.40 341.59 116.10 338.34 109.00 Z" />
<path fill="#000000" opacity="1.00" d=" M 26.54 112.60 C 29.07 111.74 31.60 110.90 34.14 110.06 C 36.70 117.62 39.43 125.11 42.05 132.64 C 39.53 133.54 36.99 134.38 34.43 135.15 C 31.94 127.58 29.07 120.15 26.54 112.60 Z" />
<path fill="#000000" opacity="1.00" d=" M 107.36 114.58 C 109.54 116.10 111.71 117.64 113.87 119.19 C 109.14 125.74 104.76 132.54 99.67 138.82 C 97.62 137.15 95.57 135.48 93.51 133.82 C 98.32 127.54 102.80 121.03 107.36 114.58 Z" />
<path fill="#000000" opacity="1.00" d=" M 311.19 135.06 C 310.73 129.26 314.17 124.13 316.61 119.12 C 318.94 120.40 321.26 121.69 323.58 122.99 C 321.59 126.68 319.44 130.44 318.96 134.69 C 320.36 135.50 321.78 136.31 323.20 137.11 C 322.17 139.55 321.13 141.99 320.09 144.43 C 316.20 142.55 311.62 139.83 311.19 135.06 Z" />
<path fill="#000000" opacity="1.00" d=" M 233.63 134.36 C 240.63 129.71 247.90 125.25 256.05 122.89 C 256.80 125.45 257.54 128.01 258.27 130.57 C 250.95 132.64 244.55 136.82 238.25 140.94 C 236.70 138.75 235.16 136.56 233.63 134.36 Z" />
<path fill="#000000" opacity="1.00" d=" M 8.97 124.70 C 11.51 125.52 14.05 126.34 16.59 127.16 C 14.13 134.64 12.45 142.33 10.70 150.00 C 8.14 149.46 5.57 148.96 2.99 148.48 C 4.40 140.42 6.56 132.51 8.97 124.70 Z" />
<path fill="#000000" opacity="1.00" d=" M 72.71 130.01 C 75.30 129.41 77.89 128.80 80.49 128.20 C 81.60 132.50 82.98 136.87 86.02 140.24 C 86.92 139.82 87.82 139.42 88.73 139.02 C 90.33 141.13 91.95 143.22 93.57 145.31 C 90.32 147.50 85.97 148.94 82.31 146.82 C 76.29 143.44 74.42 136.19 72.71 130.01 Z" />
<path fill="#000000" opacity="1.00" d=" M 194.14 131.07 C 196.79 131.28 199.44 131.51 202.09 131.75 C 202.05 138.68 202.34 145.99 206.05 152.09 C 203.97 153.74 201.88 155.38 199.78 157.01 C 194.64 149.40 193.92 139.97 194.14 131.07 Z" />
<path fill="#000000" opacity="1.00" d=" M 348.75 138.44 C 351.33 137.79 353.90 137.14 356.49 136.50 C 358.51 144.43 359.91 152.50 360.87 160.62 C 358.20 160.92 355.54 161.21 352.89 161.50 C 352.09 153.72 350.55 146.04 348.75 138.44 Z" />
<path fill="#000000" opacity="1.00" d=" M 208.67 152.80 C 215.38 149.15 220.95 143.84 227.04 139.30 C 228.66 141.40 230.29 143.49 231.93 145.58 C 225.28 150.64 219.16 156.60 211.51 160.15 C 210.56 157.70 209.62 155.25 208.67 152.80 Z" />
<path fill="#000000" opacity="1.00" d=" M 327.75 147.15 C 328.71 144.66 329.72 142.19 330.78 139.74 C 334.77 141.68 339.42 144.20 340.31 148.99 C 341.21 154.73 337.83 159.91 335.25 164.75 C 332.95 163.42 330.66 162.10 328.36 160.78 C 329.97 157.38 332.72 153.97 332.36 150.03 C 331.02 148.79 329.34 148.01 327.75 147.15 Z" />
<path fill="#000000" opacity="1.00" d=" M 37.14 142.80 C 39.65 141.94 42.15 141.07 44.65 140.20 C 47.27 147.85 49.82 155.53 51.81 163.37 C 49.23 164.08 46.64 164.79 44.06 165.50 C 42.12 157.82 39.62 150.32 37.14 142.80 Z" />
<path fill="#000000" opacity="1.00" d=" M 0.00 174.96 C 0.45 168.82 0.82 162.67 1.74 156.57 C 4.35 156.92 6.97 157.27 9.59 157.62 C 7.56 173.17 7.59 188.96 9.60 204.51 C 6.98 204.85 4.36 205.21 1.74 205.56 C 0.77 199.15 0.41 192.67 0.00 186.21 L 0.00 174.96 Z" />
<path fill="#000000" opacity="1.00" d=" M 99.94 158.93 C 103.92 155.95 109.19 157.32 113.40 159.02 C 112.32 161.45 111.22 163.86 110.10 166.27 C 108.19 165.79 106.24 164.73 104.24 165.35 C 102.33 168.22 102.39 171.85 101.93 175.16 C 99.28 175.05 96.63 174.94 93.99 174.80 C 94.42 169.20 94.92 162.47 99.94 158.93 Z" />
<path fill="#000000" opacity="1.00" d=" M 116.51 170.06 C 117.94 167.81 119.38 165.58 120.84 163.36 C 127.69 167.83 133.98 173.08 140.24 178.31 C 138.52 180.36 136.79 182.40 135.05 184.43 C 129.16 179.28 123.00 174.43 116.51 170.06 Z" />
<path fill="#000000" opacity="1.00" d=" M 324.28 167.89 C 326.66 169.08 329.03 170.30 331.40 171.54 C 330.13 174.57 328.48 177.65 328.55 181.02 C 328.95 184.34 330.58 187.31 332.06 190.25 C 329.78 191.63 327.49 193.00 325.19 194.34 C 322.90 189.87 320.42 185.16 320.58 179.99 C 320.78 175.72 322.57 171.74 324.28 167.89 Z" />
<path fill="#000000" opacity="1.00" d=" M 353.62 169.32 C 356.29 169.13 358.95 168.93 361.62 168.73 C 361.79 171.96 361.94 175.18 362.00 178.41 L 362.00 183.55 C 361.94 186.79 361.79 190.03 361.62 193.26 C 358.96 193.09 356.30 192.92 353.65 192.76 C 354.06 184.95 354.11 177.13 353.62 169.32 Z" />
<path fill="#000000" opacity="1.00" d=" M 45.99 173.05 C 48.61 172.48 51.23 171.92 53.86 171.38 C 55.55 179.65 56.70 188.13 55.51 196.56 C 52.86 196.20 50.22 195.83 47.58 195.46 C 48.62 187.95 47.54 180.40 45.99 173.05 Z" />
<path fill="#000000" opacity="1.00" d=" M 226.74 179.75 C 234.87 177.40 243.37 177.08 251.78 177.06 C 251.75 179.71 251.74 182.37 251.74 185.02 C 244.16 185.14 236.51 185.31 229.16 187.35 C 228.35 184.82 227.54 182.28 226.74 179.75 Z" />
<path fill="#000000" opacity="1.00" d=" M 259.93 177.32 C 268.14 177.90 276.33 178.86 284.40 180.52 C 283.82 183.11 283.21 185.71 282.57 188.30 C 274.95 186.76 267.23 185.87 259.49 185.31 C 259.64 182.65 259.79 179.98 259.93 177.32 Z" />
<path fill="#000000" opacity="1.00" d=" M 93.98 183.03 C 96.64 183.00 99.30 182.94 101.97 182.86 C 102.33 190.91 102.65 198.97 102.63 207.03 C 99.96 207.00 97.29 206.94 94.62 206.84 C 94.65 198.90 94.30 190.96 93.98 183.03 Z" />
<path fill="#000000" opacity="1.00" d=" M 292.48 182.87 C 300.44 185.68 307.94 189.70 314.66 194.82 C 313.02 196.90 311.38 198.97 309.75 201.05 C 303.69 196.55 297.00 192.93 289.88 190.44 C 290.71 187.90 291.59 185.38 292.48 182.87 Z" />
<path fill="#000000" opacity="1.00" d=" M 141.02 189.62 C 142.77 187.62 144.54 185.62 146.31 183.63 C 152.27 189.03 158.32 194.33 164.17 199.83 C 162.37 201.78 160.56 203.73 158.75 205.68 C 152.82 200.35 146.97 194.92 141.02 189.62 Z" />
<path fill="#000000" opacity="1.00" d=" M 216.36 193.89 C 215.32 190.79 216.19 187.51 217.88 184.83 C 219.76 186.40 221.79 187.81 223.43 189.64 C 225.07 195.98 229.26 201.12 232.63 206.60 C 230.34 208.02 228.04 209.41 225.75 210.82 C 222.50 205.26 218.22 200.15 216.36 193.89 Z" />
<path fill="#000000" opacity="1.00" d=" M 330.30 201.46 C 332.30 199.67 334.37 197.95 336.45 196.26 C 341.04 201.76 346.18 206.74 351.32 211.72 C 351.95 208.00 352.50 204.27 352.92 200.53 C 355.57 200.82 358.22 201.11 360.87 201.42 C 359.91 209.55 358.51 217.63 356.48 225.56 C 353.91 224.89 351.35 224.23 348.78 223.58 C 349.37 220.75 350.02 217.94 350.72 215.14 C 349.59 216.41 348.44 217.68 347.30 218.95 C 341.41 213.34 335.63 207.61 330.30 201.46 Z" />
<path fill="#000000" opacity="1.00" d=" M 315.20 206.07 C 317.15 204.24 319.11 202.43 321.09 200.64 C 324.42 204.56 327.43 208.95 328.66 214.01 C 329.65 218.32 328.11 222.61 326.79 226.66 C 324.28 225.69 321.80 224.65 319.35 223.56 C 320.07 221.10 321.28 218.62 320.93 215.98 C 320.07 212.18 317.62 209.03 315.20 206.07 Z" />
<path fill="#000000" opacity="1.00" d=" M 46.03 202.83 C 48.60 203.51 51.17 204.19 53.73 204.89 C 51.47 212.90 48.09 220.57 44.00 227.80 C 41.68 226.52 39.37 225.23 37.06 223.93 C 40.86 217.27 43.84 210.17 46.03 202.83 Z" />
<path fill="#000000" opacity="1.00" d=" M 164.70 211.12 C 166.48 209.11 168.27 207.12 170.06 205.13 C 173.81 208.42 177.40 211.99 181.84 214.36 C 183.25 215.09 184.73 216.15 184.86 217.90 C 185.42 221.70 182.19 224.34 179.92 226.86 C 178.23 225.06 176.51 223.27 174.78 221.50 C 174.79 221.00 174.82 220.01 174.83 219.51 C 171.28 216.93 167.98 214.02 164.70 211.12 Z" />
<path fill="#000000" opacity="1.00" d=" M 3.00 213.60 C 5.64 213.12 8.29 212.67 10.94 212.29 C 12.23 219.96 14.31 227.47 16.55 234.90 C 14.03 235.72 11.51 236.56 9.00 237.39 C 6.55 229.58 4.41 221.67 3.00 213.60 Z" />
<path fill="#000000" opacity="1.00" d=" M 94.28 214.57 C 96.93 214.82 99.58 215.07 102.23 215.32 C 101.62 220.85 100.68 226.42 98.53 231.59 C 96.06 237.90 90.86 242.63 88.28 248.90 C 85.83 247.88 83.37 246.86 80.92 245.82 C 83.59 238.62 89.91 233.47 92.06 226.04 C 93.31 222.33 93.81 218.43 94.28 214.57 Z" />
<path fill="#000000" opacity="1.00" d=" M 229.31 217.38 C 231.74 216.31 234.18 215.26 236.62 214.22 C 238.68 219.34 239.91 225.07 238.32 230.50 C 236.98 235.65 233.12 239.52 229.44 243.13 C 227.56 241.26 225.69 239.39 223.84 237.50 C 226.38 234.85 229.43 232.34 230.57 228.70 C 231.69 224.91 230.67 220.95 229.31 217.38 Z" />
<path fill="#000000" opacity="1.00" d=" M 168.55 226.12 C 170.27 228.17 171.99 230.21 173.70 232.26 C 167.69 237.38 161.46 242.26 155.70 247.67 C 153.85 245.77 152.02 243.86 150.18 241.96 C 156.05 236.39 162.34 231.30 168.55 226.12 Z" />
<path fill="#000000" opacity="1.00" d=" M 20.76 246.12 C 25.43 241.41 29.35 236.05 33.11 230.60 C 35.33 232.03 37.56 233.46 39.78 234.89 C 35.18 241.70 30.28 248.44 24.03 253.85 C 25.59 257.13 27.28 260.35 28.99 263.57 C 26.64 264.86 24.29 266.15 21.93 267.43 C 18.12 260.20 14.59 252.81 11.76 245.14 C 14.25 244.16 16.74 243.20 19.24 242.25 C 19.74 243.54 20.25 244.83 20.76 246.12 Z" />
<path fill="#000000" opacity="1.00" d=" M 301.77 248.83 C 306.78 242.84 311.52 236.62 315.79 230.08 C 318.05 231.47 320.32 232.87 322.59 234.26 C 318.10 241.10 313.25 247.71 307.95 253.94 C 305.88 252.24 303.83 250.54 301.77 248.83 Z" />
<path fill="#000000" opacity="1.00" d=" M 338.34 253.00 C 341.65 245.93 344.35 238.59 346.66 231.13 C 349.20 231.90 351.76 232.66 354.31 233.43 C 351.88 241.24 349.06 248.93 345.65 256.37 C 343.20 255.26 340.77 254.14 338.34 253.00 Z" />
<path fill="#000000" opacity="1.00" d=" M 218.12 243.63 C 220.14 245.34 222.16 247.07 224.17 248.82 C 219.06 254.66 214.87 261.19 210.63 267.67 C 208.34 266.34 206.06 265.02 203.77 263.70 C 208.19 256.75 212.63 249.79 218.12 243.63 Z" />
<path fill="#000000" opacity="1.00" d=" M 144.26 247.99 C 146.32 249.68 148.37 251.38 150.41 253.10 C 145.26 259.37 139.76 265.34 134.08 271.13 C 132.17 269.24 130.27 267.34 128.39 265.44 C 133.98 259.90 139.22 254.02 144.26 247.99 Z" />
<path fill="#000000" opacity="1.00" d=" M 78.37 279.51 C 76.53 271.20 76.75 262.51 78.36 254.18 C 80.95 254.74 83.54 255.30 86.13 255.87 C 84.74 263.23 84.73 270.84 86.21 278.19 C 83.60 278.63 80.98 279.07 78.37 279.51 Z" />
<path fill="#000000" opacity="1.00" d=" M 289.27 263.35 C 291.98 260.75 294.11 257.61 296.69 254.88 C 298.71 256.60 300.73 258.33 302.74 260.07 C 299.73 263.60 296.75 267.15 293.73 270.68 C 289.88 271.48 286.15 272.73 282.60 274.41 C 281.39 272.04 280.20 269.67 279.02 267.29 C 282.30 265.63 285.81 264.55 289.27 263.35 Z" />
<path fill="#000000" opacity="1.00" d=" M 322.83 280.10 C 327.18 273.63 331.16 266.91 334.95 260.10 C 337.30 261.27 339.64 262.46 341.98 263.67 C 338.24 270.95 333.90 277.93 329.33 284.71 C 327.16 283.18 324.99 281.64 322.83 280.10 Z" />
<path fill="#000000" opacity="1.00" d=" M 26.19 274.41 C 28.49 273.03 30.78 271.64 33.07 270.26 C 36.77 277.17 41.73 283.24 46.36 289.53 C 44.28 291.20 42.21 292.87 40.14 294.54 C 35.22 288.02 30.14 281.59 26.19 274.41 Z" />
<path fill="#000000" opacity="1.00" d=" M 199.90 271.11 C 202.30 272.23 204.70 273.34 207.11 274.45 C 204.15 281.10 201.77 288.17 202.00 295.56 C 199.36 295.81 196.73 296.09 194.09 296.38 C 193.64 287.59 196.15 278.97 199.90 271.11 Z" />
<path fill="#000000" opacity="1.00" d=" M 105.39 287.02 C 111.40 281.99 117.25 276.77 122.75 271.20 C 124.65 273.09 126.55 274.98 128.44 276.89 C 122.62 282.58 116.69 288.18 110.31 293.25 C 108.67 291.17 107.03 289.09 105.39 287.02 Z" />
<path fill="#000000" opacity="1.00" d=" M 252.37 286.52 C 258.63 281.30 264.96 276.14 271.75 271.62 C 273.25 273.85 274.69 276.11 276.07 278.43 C 269.51 282.70 263.49 287.71 257.46 292.68 C 255.75 290.63 254.06 288.57 252.37 286.52 Z" />
<path fill="#000000" opacity="1.00" d=" M 80.45 287.96 C 82.95 287.06 85.46 286.17 87.97 285.28 C 89.22 288.54 90.89 291.62 93.19 294.26 C 95.27 293.47 97.29 292.53 99.27 291.51 C 100.70 293.75 102.12 296.00 103.53 298.26 C 99.66 300.35 95.19 303.07 90.65 301.42 C 85.11 299.11 82.52 293.18 80.45 287.96 Z" />
<path fill="#000000" opacity="1.00" d=" M 302.73 304.03 C 307.94 298.21 313.50 292.68 318.06 286.32 C 320.17 287.94 322.28 289.56 324.38 291.18 C 319.72 297.90 313.80 303.59 308.35 309.64 C 306.46 307.78 304.59 305.91 302.73 304.03 Z" />
<path fill="#000000" opacity="1.00" d=" M 227.27 304.80 C 234.10 301.17 240.21 296.38 246.24 291.57 C 247.93 293.63 249.61 295.71 251.27 297.80 C 244.84 302.98 238.24 308.05 230.91 311.92 C 229.69 309.55 228.47 307.18 227.27 304.80 Z" />
<path fill="#000000" opacity="1.00" d=" M 45.51 300.76 C 47.50 298.98 49.49 297.21 51.48 295.44 C 56.56 301.40 62.23 306.78 68.11 311.94 C 66.40 313.96 64.67 315.98 62.93 317.99 C 56.79 312.59 50.84 306.98 45.51 300.76 Z" />
<path fill="#000000" opacity="1.00" d=" M 197.13 305.61 C 199.38 304.20 201.65 302.83 203.94 301.48 C 207.71 306.75 214.47 309.08 220.73 307.52 C 221.33 310.07 221.97 312.62 222.62 315.16 C 213.11 317.79 202.58 313.81 197.13 305.61 Z" />
<path fill="#000000" opacity="1.00" d=" M 278.57 323.86 C 284.76 319.11 291.28 314.74 296.86 309.25 C 298.66 311.21 300.45 313.19 302.24 315.17 C 296.41 320.97 289.57 325.54 283.07 330.51 C 281.56 328.30 280.05 326.08 278.57 323.86 Z" />
<path fill="#000000" opacity="1.00" d=" M 74.19 316.90 C 80.38 321.70 86.72 326.29 93.56 330.13 C 92.19 332.40 90.82 334.66 89.44 336.93 C 82.28 332.96 75.64 328.20 69.19 323.18 C 70.85 321.08 72.51 318.98 74.19 316.90 Z" />
<path fill="#000000" opacity="1.00" d=" M 251.32 339.14 C 258.50 336.04 265.31 332.17 271.92 328.00 C 273.33 330.26 274.73 332.53 276.11 334.81 C 269.24 339.23 262.06 343.16 254.57 346.44 C 253.47 344.01 252.39 341.58 251.32 339.14 Z" />
<path fill="#000000" opacity="1.00" d=" M 100.30 334.02 C 107.15 337.79 114.39 340.78 121.67 343.62 C 120.76 346.11 119.84 348.61 118.93 351.11 C 111.27 348.24 103.80 344.93 96.56 341.14 C 97.80 338.76 99.05 336.38 100.30 334.02 Z" />
<path fill="#000000" opacity="1.00" d=" M 221.74 349.21 C 229.30 347.27 236.81 345.04 244.07 342.16 C 245.06 344.63 246.03 347.11 246.99 349.60 C 239.38 352.57 231.56 354.99 223.63 356.94 C 223.00 354.36 222.37 351.79 221.74 349.21 Z" />
<path fill="#000000" opacity="1.00" d=" M 126.70 353.74 C 127.48 351.19 128.26 348.65 129.04 346.11 C 136.55 348.31 144.15 350.23 151.86 351.56 C 151.43 354.19 150.98 356.82 150.54 359.45 C 142.46 358.14 134.55 356.03 126.70 353.74 Z" />
<path fill="#000000" opacity="1.00" d=" M 190.83 353.76 C 198.64 353.21 206.44 352.38 214.12 350.83 C 214.63 353.45 215.12 356.07 215.62 358.70 C 207.58 360.20 199.46 361.28 191.30 361.76 C 191.14 359.09 190.98 356.42 190.83 353.76 Z" />
<path fill="#000000" opacity="1.00" d=" M 158.61 360.65 C 158.95 358.00 159.29 355.37 159.63 352.73 C 167.43 353.62 175.27 354.02 183.12 354.03 C 183.12 356.68 183.12 359.34 183.13 362.00 L 178.43 362.00 C 171.81 361.89 165.19 361.45 158.61 360.65 Z" />
</g>
<g class="sprite" id="icon">
<path fill="#ffffff" opacity="1.00" d=" M 174.83 0.00 L 183.00 0.00 C 183.00 2.66 183.00 5.31 183.00 7.97 C 175.17 8.05 167.34 8.45 159.56 9.34 C 159.23 6.69 158.89 4.04 158.56 1.39 C 163.97 0.79 169.41 0.41 174.83 0.00 Z" />
<path fill="#ffffff" opacity="1.00" d=" M 191.24 0.36 C 199.41 0.73 207.54 1.83 215.57 3.39 C 215.06 5.98 214.56 8.58 214.06 11.17 C 206.38 9.71 198.61 8.82 190.82 8.32 C 190.96 5.66 191.10 3.01 191.24 0.36 Z" />
<path fill="#ffffff" opacity="1.00" d=" M 126.62 8.35 C 134.48 6.05 142.40 3.93 150.49 2.62 C 150.94 5.26 151.38 7.90 151.83 10.53 C 144.13 11.84 136.54 13.75 129.06 15.96 C 128.24 13.43 127.43 10.89 126.62 8.35 Z" />
<path fill="#ffffff" opacity="1.00" d=" M 223.55 5.10 C 231.48 7.05 239.31 9.44 246.93 12.41 C 245.99 14.91 245.03 17.41 244.07 19.90 C 236.81 16.96 229.27 14.82 221.71 12.83 C 222.32 10.25 222.93 7.67 223.55 5.10 Z" />
<path fill="#ffffff" opacity="1.00" d=" M 96.50 21.01 C 103.70 17.12 111.22 13.87 118.87 10.98 C 119.78 13.48 120.70 15.97 121.62 18.47 C 114.34 21.29 107.10 24.29 100.25 28.06 C 99.01 25.71 97.76 23.36 96.50 21.01 Z" />
<path fill="#ffffff" opacity="1.00" d=" M 251.25 22.91 C 252.32 20.44 253.44 17.99 254.64 15.58 C 262.05 18.99 269.27 22.80 276.11 27.25 C 274.69 29.51 273.25 31.76 271.80 34.00 C 265.21 29.84 258.43 25.96 251.25 22.91 Z" />
<path fill="#ffffff" opacity="1.00" d=" M 141.49 25.10 C 150.05 24.89 158.72 25.87 166.69 29.14 C 165.68 31.58 164.69 34.03 163.71 36.48 C 156.72 33.83 149.24 32.84 141.79 33.10 C 141.70 30.43 141.60 27.77 141.49 25.10 Z" />
<path fill="#ffffff" opacity="1.00" d=" M 69.18 38.93 C 75.63 33.90 82.26 29.11 89.42 25.13 C 90.79 27.41 92.15 29.70 93.50 32.00 C 86.65 35.81 80.30 40.38 74.12 45.18 C 72.47 43.09 70.82 41.01 69.18 38.93 Z" />
<path fill="#ffffff" opacity="1.00" d=" M 109.04 33.19 C 116.65 29.61 124.78 27.15 133.10 25.94 C 133.48 28.56 133.86 31.18 134.23 33.80 C 126.75 35.01 119.42 37.14 112.56 40.37 C 111.39 37.97 110.22 35.58 109.04 33.19 Z" />
<path fill="#ffffff" opacity="1.00" d=" M 278.50 38.12 C 280.02 35.93 281.54 33.75 283.07 31.57 C 289.56 36.50 296.36 41.07 302.17 46.83 C 300.39 48.81 298.60 50.78 296.81 52.74 C 291.19 47.28 284.72 42.85 278.50 38.12 Z" />
<path fill="#ffffff" opacity="1.00" d=" M 170.19 39.77 C 171.61 37.52 173.05 35.29 174.51 33.07 C 182.01 37.85 187.63 45.23 190.54 53.61 C 188.06 54.53 185.57 55.43 183.09 56.34 C 180.66 49.61 176.21 43.68 170.19 39.77 Z" />
<path fill="#ffffff" opacity="1.00" d=" M 84.17 55.85 C 88.92 48.84 94.64 42.39 101.65 37.57 C 103.16 39.73 104.66 41.89 106.17 44.06 C 100.01 48.41 94.98 54.13 90.79 60.36 C 88.58 58.86 86.37 57.36 84.17 55.85 Z" />
<path fill="#ffffff" opacity="1.00" d=" M 45.51 61.39 C 50.78 55.12 56.75 49.53 62.87 44.12 C 64.62 46.14 66.37 48.16 68.12 50.18 C 62.20 55.32 56.50 60.69 51.43 66.68 C 49.45 64.92 47.48 63.16 45.51 61.39 Z" />
<path fill="#ffffff" opacity="1.00" d=" M 302.72 58.00 C 304.56 56.09 306.40 54.17 308.27 52.28 C 313.70 58.40 319.64 64.11 324.39 70.80 C 322.28 72.43 320.18 74.06 318.07 75.67 C 313.46 69.36 307.90 63.84 302.72 58.00 Z" />
<path fill="#ffffff" opacity="1.00" d=" M 165.13 70.36 C 171.57 67.64 178.75 65.89 183.92 60.92 C 186.25 62.14 188.57 63.39 190.87 64.67 C 185.58 72.23 176.04 74.39 168.01 77.81 C 167.03 75.33 166.08 72.85 165.13 70.36 Z" />
<path fill="#ffffff" opacity="1.00" d=" M 70.82 88.81 C 72.31 79.78 75.44 71.10 79.76 63.05 C 82.11 64.30 84.46 65.56 86.80 66.83 C 82.95 74.03 80.10 81.79 78.75 89.86 C 76.10 89.51 73.46 89.16 70.82 88.81 Z" />
<path fill="#ffffff" opacity="1.00" d=" M 26.24 87.76 C 29.98 80.46 35.23 74.13 40.10 67.59 C 42.12 69.28 44.49 70.67 46.15 72.72 C 41.66 79.03 36.65 84.99 33.02 91.87 C 30.78 90.46 28.52 89.08 26.24 87.76 Z" />
<path fill="#ffffff" opacity="1.00" d=" M 216.33 69.31 C 222.77 66.59 229.91 69.08 236.31 70.76 C 235.54 73.29 234.77 75.83 234.00 78.36 C 229.65 77.06 225.19 76.06 220.63 75.98 C 219.38 79.56 214.78 78.19 211.84 78.99 C 211.56 75.28 212.54 70.89 216.33 69.31 Z" />
<path fill="#ffffff" opacity="1.00" d=" M 146.99 79.96 C 150.06 77.21 153.85 75.51 157.41 73.51 C 158.58 75.89 159.71 78.30 160.86 80.69 C 156.77 82.81 152.68 85.05 149.51 88.47 C 146.66 90.12 143.18 90.42 140.25 92.00 C 139.01 89.68 137.77 87.36 136.54 85.03 C 139.90 83.04 144.17 82.82 146.99 79.96 Z" />
<path fill="#ffffff" opacity="1.00" d=" M 241.40 80.94 C 242.27 78.39 243.20 75.84 244.21 73.33 C 251.57 76.15 258.95 78.96 266.48 81.33 C 265.72 83.88 264.96 86.43 264.21 88.98 C 256.51 86.58 248.99 83.64 241.40 80.94 Z" />
<path fill="#ffffff" opacity="1.00" d=" M 322.76 81.89 C 324.94 80.37 327.12 78.85 329.31 77.34 C 333.93 84.05 338.08 91.09 342.02 98.21 C 340.61 98.97 339.20 99.73 337.80 100.51 C 334.92 106.10 330.72 110.87 327.53 116.29 C 325.26 114.89 323.00 113.47 320.74 112.05 C 324.39 106.79 327.51 101.12 331.82 96.36 C 328.78 91.55 326.06 86.54 322.76 81.89 Z" />
<path fill="#ffffff" opacity="1.00" d=" M 272.38 91.01 C 272.85 88.39 273.32 85.78 273.80 83.16 C 278.27 84.34 283.74 83.41 287.41 86.62 C 290.19 91.30 292.01 97.18 290.15 102.54 C 287.70 101.63 285.26 100.70 282.84 99.72 C 283.14 97.18 282.37 94.73 281.53 92.37 C 278.47 91.96 275.42 91.51 272.38 91.01 Z" />
<path fill="#ffffff" opacity="1.00" d=" M 213.97 87.17 C 216.57 86.56 219.17 85.97 221.78 85.39 C 222.93 91.25 223.36 97.75 220.06 103.04 C 217.09 108.65 210.67 111.10 207.24 116.34 C 205.50 118.86 204.42 121.76 203.36 124.62 C 200.77 123.90 198.20 123.13 195.66 122.26 C 197.67 116.61 200.35 111.00 204.87 106.91 C 207.76 104.10 211.66 102.18 213.53 98.45 C 215.34 94.94 214.51 90.89 213.97 87.17 Z" />
<path fill="#ffffff" opacity="1.00" d=" M 112.26 108.06 C 117.30 101.43 122.70 94.91 129.38 89.87 C 130.97 91.95 132.59 94.01 134.23 96.06 C 128.28 100.96 123.18 106.79 118.57 112.93 C 116.47 111.29 114.37 109.68 112.26 108.06 Z" />
<path fill="#ffffff" opacity="1.00" d=" M 11.76 117.00 C 14.56 109.31 18.09 101.90 21.93 94.68 C 24.80 96.21 27.55 98.18 30.85 98.64 C 31.16 99.95 31.47 101.26 31.78 102.57 C 29.89 103.11 27.98 103.63 26.08 104.15 C 23.42 109.20 21.28 114.50 19.18 119.80 C 16.70 118.87 14.23 117.94 11.76 117.00 Z" />
<path fill="#ffffff" opacity="1.00" d=" M 70.26 97.11 C 72.88 97.24 75.51 97.38 78.13 97.53 C 78.02 105.29 78.19 113.06 79.26 120.75 C 76.60 121.08 73.95 121.41 71.29 121.74 C 70.21 113.58 69.89 105.33 70.26 97.11 Z" />
<path fill="#ffffff" opacity="1.00" d=" M 261.94 121.31 C 267.82 116.22 273.75 111.14 278.92 105.30 C 280.98 106.97 283.03 108.65 285.08 110.34 C 279.79 116.65 273.41 121.90 267.24 127.30 C 265.47 125.30 263.70 123.31 261.94 121.31 Z" />
<path fill="#ffffff" opacity="1.00" d=" M 338.34 109.00 C 340.74 107.88 343.16 106.77 345.59 105.70 C 349.06 113.10 351.89 120.78 354.30 128.58 C 351.75 129.34 349.20 130.10 346.65 130.86 C 344.37 123.40 341.59 116.10 338.34 109.00 Z" />
<path fill="#ffffff" opacity="1.00" d=" M 26.54 112.60 C 29.07 111.74 31.60 110.90 34.14 110.06 C 36.70 117.62 39.43 125.11 42.05 132.64 C 39.53 133.54 36.99 134.38 34.43 135.15 C 31.94 127.58 29.07 120.15 26.54 112.60 Z" />
<path fill="#ffffff" opacity="1.00" d=" M 107.36 114.58 C 109.54 116.10 111.71 117.64 113.87 119.19 C 109.14 125.74 104.76 132.54 99.67 138.82 C 97.62 137.15 95.57 135.48 93.51 133.82 C 98.32 127.54 102.80 121.03 107.36 114.58 Z" />
<path fill="#ffffff" opacity="1.00" d=" M 311.19 135.06 C 310.73 129.26 314.17 124.13 316.61 119.12 C 318.94 120.40 321.26 121.69 323.58 122.99 C 321.59 126.68 319.44 130.44 318.96 134.69 C 320.36 135.50 321.78 136.31 323.20 137.11 C 322.17 139.55 321.13 141.99 320.09 144.43 C 316.20 142.55 311.62 139.83 311.19 135.06 Z" />
<path fill="#ffffff" opacity="1.00" d=" M 233.63 134.36 C 240.63 129.71 247.90 125.25 256.05 122.89 C 256.80 125.45 257.54 128.01 258.27 130.57 C 250.95 132.64 244.55 136.82 238.25 140.94 C 236.70 138.75 235.16 136.56 233.63 134.36 Z" />
<path fill="#ffffff" opacity="1.00" d=" M 8.97 124.70 C 11.51 125.52 14.05 126.34 16.59 127.16 C 14.13 134.64 12.45 142.33 10.70 150.00 C 8.14 149.46 5.57 148.96 2.99 148.48 C 4.40 140.42 6.56 132.51 8.97 124.70 Z" />
<path fill="#ffffff" opacity="1.00" d=" M 72.71 130.01 C 75.30 129.41 77.89 128.80 80.49 128.20 C 81.60 132.50 82.98 136.87 86.02 140.24 C 86.92 139.82 87.82 139.42 88.73 139.02 C 90.33 141.13 91.95 143.22 93.57 145.31 C 90.32 147.50 85.97 148.94 82.31 146.82 C 76.29 143.44 74.42 136.19 72.71 130.01 Z" />
<path fill="#ffffff" opacity="1.00" d=" M 194.14 131.07 C 196.79 131.28 199.44 131.51 202.09 131.75 C 202.05 138.68 202.34 145.99 206.05 152.09 C 203.97 153.74 201.88 155.38 199.78 157.01 C 194.64 149.40 193.92 139.97 194.14 131.07 Z" />
<path fill="#ffffff" opacity="1.00" d=" M 348.75 138.44 C 351.33 137.79 353.90 137.14 356.49 136.50 C 358.51 144.43 359.91 152.50 360.87 160.62 C 358.20 160.92 355.54 161.21 352.89 161.50 C 352.09 153.72 350.55 146.04 348.75 138.44 Z" />
<path fill="#ffffff" opacity="1.00" d=" M 208.67 152.80 C 215.38 149.15 220.95 143.84 227.04 139.30 C 228.66 141.40 230.29 143.49 231.93 145.58 C 225.28 150.64 219.16 156.60 211.51 160.15 C 210.56 157.70 209.62 155.25 208.67 152.80 Z" />
<path fill="#ffffff" opacity="1.00" d=" M 327.75 147.15 C 328.71 144.66 329.72 142.19 330.78 139.74 C 334.77 141.68 339.42 144.20 340.31 148.99 C 341.21 154.73 337.83 159.91 335.25 164.75 C 332.95 163.42 330.66 162.10 328.36 160.78 C 329.97 157.38 332.72 153.97 332.36 150.03 C 331.02 148.79 329.34 148.01 327.75 147.15 Z" />
<path fill="#ffffff" opacity="1.00" d=" M 37.14 142.80 C 39.65 141.94 42.15 141.07 44.65 140.20 C 47.27 147.85 49.82 155.53 51.81 163.37 C 49.23 164.08 46.64 164.79 44.06 165.50 C 42.12 157.82 39.62 150.32 37.14 142.80 Z" />
<path fill="#ffffff" opacity="1.00" d=" M 0.00 174.96 C 0.45 168.82 0.82 162.67 1.74 156.57 C 4.35 156.92 6.97 157.27 9.59 157.62 C 7.56 173.17 7.59 188.96 9.60 204.51 C 6.98 204.85 4.36 205.21 1.74 205.56 C 0.77 199.15 0.41 192.67 0.00 186.21 L 0.00 174.96 Z" />
<path fill="#ffffff" opacity="1.00" d=" M 99.94 158.93 C 103.92 155.95 109.19 157.32 113.40 159.02 C 112.32 161.45 111.22 163.86 110.10 166.27 C 108.19 165.79 106.24 164.73 104.24 165.35 C 102.33 168.22 102.39 171.85 101.93 175.16 C 99.28 175.05 96.63 174.94 93.99 174.80 C 94.42 169.20 94.92 162.47 99.94 158.93 Z" />
<path fill="#ffffff" opacity="1.00" d=" M 116.51 170.06 C 117.94 167.81 119.38 165.58 120.84 163.36 C 127.69 167.83 133.98 173.08 140.24 178.31 C 138.52 180.36 136.79 182.40 135.05 184.43 C 129.16 179.28 123.00 174.43 116.51 170.06 Z" />
<path fill="#ffffff" opacity="1.00" d=" M 324.28 167.89 C 326.66 169.08 329.03 170.30 331.40 171.54 C 330.13 174.57 328.48 177.65 328.55 181.02 C 328.95 184.34 330.58 187.31 332.06 190.25 C 329.78 191.63 327.49 193.00 325.19 194.34 C 322.90 189.87 320.42 185.16 320.58 179.99 C 320.78 175.72 322.57 171.74 324.28 167.89 Z" />
<path fill="#ffffff" opacity="1.00" d=" M 353.62 169.32 C 356.29 169.13 358.95 168.93 361.62 168.73 C 361.79 171.96 361.94 175.18 362.00 178.41 L 362.00 183.55 C 361.94 186.79 361.79 190.03 361.62 193.26 C 358.96 193.09 356.30 192.92 353.65 192.76 C 354.06 184.95 354.11 177.13 353.62 169.32 Z" />
<path fill="#ffffff" opacity="1.00" d=" M 45.99 173.05 C 48.61 172.48 51.23 171.92 53.86 171.38 C 55.55 179.65 56.70 188.13 55.51 196.56 C 52.86 196.20 50.22 195.83 47.58 195.46 C 48.62 187.95 47.54 180.40 45.99 173.05 Z" />
<path fill="#ffffff" opacity="1.00" d=" M 226.74 179.75 C 234.87 177.40 243.37 177.08 251.78 177.06 C 251.75 179.71 251.74 182.37 251.74 185.02 C 244.16 185.14 236.51 185.31 229.16 187.35 C 228.35 184.82 227.54 182.28 226.74 179.75 Z" />
<path fill="#ffffff" opacity="1.00" d=" M 259.93 177.32 C 268.14 177.90 276.33 178.86 284.40 180.52 C 283.82 183.11 283.21 185.71 282.57 188.30 C 274.95 186.76 267.23 185.87 259.49 185.31 C 259.64 182.65 259.79 179.98 259.93 177.32 Z" />
<path fill="#ffffff" opacity="1.00" d=" M 93.98 183.03 C 96.64 183.00 99.30 182.94 101.97 182.86 C 102.33 190.91 102.65 198.97 102.63 207.03 C 99.96 207.00 97.29 206.94 94.62 206.84 C 94.65 198.90 94.30 190.96 93.98 183.03 Z" />
<path fill="#ffffff" opacity="1.00" d=" M 292.48 182.87 C 300.44 185.68 307.94 189.70 314.66 194.82 C 313.02 196.90 311.38 198.97 309.75 201.05 C 303.69 196.55 297.00 192.93 289.88 190.44 C 290.71 187.90 291.59 185.38 292.48 182.87 Z" />
<path fill="#ffffff" opacity="1.00" d=" M 141.02 189.62 C 142.77 187.62 144.54 185.62 146.31 183.63 C 152.27 189.03 158.32 194.33 164.17 199.83 C 162.37 201.78 160.56 203.73 158.75 205.68 C 152.82 200.35 146.97 194.92 141.02 189.62 Z" />
<path fill="#ffffff" opacity="1.00" d=" M 216.36 193.89 C 215.32 190.79 216.19 187.51 217.88 184.83 C 219.76 186.40 221.79 187.81 223.43 189.64 C 225.07 195.98 229.26 201.12 232.63 206.60 C 230.34 208.02 228.04 209.41 225.75 210.82 C 222.50 205.26 218.22 200.15 216.36 193.89 Z" />
<path fill="#ffffff" opacity="1.00" d=" M 330.30 201.46 C 332.30 199.67 334.37 197.95 336.45 196.26 C 341.04 201.76 346.18 206.74 351.32 211.72 C 351.95 208.00 352.50 204.27 352.92 200.53 C 355.57 200.82 358.22 201.11 360.87 201.42 C 359.91 209.55 358.51 217.63 356.48 225.56 C 353.91 224.89 351.35 224.23 348.78 223.58 C 349.37 220.75 350.02 217.94 350.72 215.14 C 349.59 216.41 348.44 217.68 347.30 218.95 C 341.41 213.34 335.63 207.61 330.30 201.46 Z" />
<path fill="#ffffff" opacity="1.00" d=" M 315.20 206.07 C 317.15 204.24 319.11 202.43 321.09 200.64 C 324.42 204.56 327.43 208.95 328.66 214.01 C 329.65 218.32 328.11 222.61 326.79 226.66 C 324.28 225.69 321.80 224.65 319.35 223.56 C 320.07 221.10 321.28 218.62 320.93 215.98 C 320.07 212.18 317.62 209.03 315.20 206.07 Z" />
<path fill="#ffffff" opacity="1.00" d=" M 46.03 202.83 C 48.60 203.51 51.17 204.19 53.73 204.89 C 51.47 212.90 48.09 220.57 44.00 227.80 C 41.68 226.52 39.37 225.23 37.06 223.93 C 40.86 217.27 43.84 210.17 46.03 202.83 Z" />
<path fill="#ffffff" opacity="1.00" d=" M 164.70 211.12 C 166.48 209.11 168.27 207.12 170.06 205.13 C 173.81 208.42 177.40 211.99 181.84 214.36 C 183.25 215.09 184.73 216.15 184.86 217.90 C 185.42 221.70 182.19 224.34 179.92 226.86 C 178.23 225.06 176.51 223.27 174.78 221.50 C 174.79 221.00 174.82 220.01 174.83 219.51 C 171.28 216.93 167.98 214.02 164.70 211.12 Z" />
<path fill="#ffffff" opacity="1.00" d=" M 3.00 213.60 C 5.64 213.12 8.29 212.67 10.94 212.29 C 12.23 219.96 14.31 227.47 16.55 234.90 C 14.03 235.72 11.51 236.56 9.00 237.39 C 6.55 229.58 4.41 221.67 3.00 213.60 Z" />
<path fill="#ffffff" opacity="1.00" d=" M 94.28 214.57 C 96.93 214.82 99.58 215.07 102.23 215.32 C 101.62 220.85 100.68 226.42 98.53 231.59 C 96.06 237.90 90.86 242.63 88.28 248.90 C 85.83 247.88 83.37 246.86 80.92 245.82 C 83.59 238.62 89.91 233.47 92.06 226.04 C 93.31 222.33 93.81 218.43 94.28 214.57 Z" />
<path fill="#ffffff" opacity="1.00" d=" M 229.31 217.38 C 231.74 216.31 234.18 215.26 236.62 214.22 C 238.68 219.34 239.91 225.07 238.32 230.50 C 236.98 235.65 233.12 239.52 229.44 243.13 C 227.56 241.26 225.69 239.39 223.84 237.50 C 226.38 234.85 229.43 232.34 230.57 228.70 C 231.69 224.91 230.67 220.95 229.31 217.38 Z" />
<path fill="#ffffff" opacity="1.00" d=" M 168.55 226.12 C 170.27 228.17 171.99 230.21 173.70 232.26 C 167.69 237.38 161.46 242.26 155.70 247.67 C 153.85 245.77 152.02 243.86 150.18 241.96 C 156.05 236.39 162.34 231.30 168.55 226.12 Z" />
<path fill="#ffffff" opacity="1.00" d=" M 20.76 246.12 C 25.43 241.41 29.35 236.05 33.11 230.60 C 35.33 232.03 37.56 233.46 39.78 234.89 C 35.18 241.70 30.28 248.44 24.03 253.85 C 25.59 257.13 27.28 260.35 28.99 263.57 C 26.64 264.86 24.29 266.15 21.93 267.43 C 18.12 260.20 14.59 252.81 11.76 245.14 C 14.25 244.16 16.74 243.20 19.24 242.25 C 19.74 243.54 20.25 244.83 20.76 246.12 Z" />
<path fill="#ffffff" opacity="1.00" d=" M 301.77 248.83 C 306.78 242.84 311.52 236.62 315.79 230.08 C 318.05 231.47 320.32 232.87 322.59 234.26 C 318.10 241.10 313.25 247.71 307.95 253.94 C 305.88 252.24 303.83 250.54 301.77 248.83 Z" />
<path fill="#ffffff" opacity="1.00" d=" M 338.34 253.00 C 341.65 245.93 344.35 238.59 346.66 231.13 C 349.20 231.90 351.76 232.66 354.31 233.43 C 351.88 241.24 349.06 248.93 345.65 256.37 C 343.20 255.26 340.77 254.14 338.34 253.00 Z" />
<path fill="#ffffff" opacity="1.00" d=" M 218.12 243.63 C 220.14 245.34 222.16 247.07 224.17 248.82 C 219.06 254.66 214.87 261.19 210.63 267.67 C 208.34 266.34 206.06 265.02 203.77 263.70 C 208.19 256.75 212.63 249.79 218.12 243.63 Z" />
<path fill="#ffffff" opacity="1.00" d=" M 144.26 247.99 C 146.32 249.68 148.37 251.38 150.41 253.10 C 145.26 259.37 139.76 265.34 134.08 271.13 C 132.17 269.24 130.27 267.34 128.39 265.44 C 133.98 259.90 139.22 254.02 144.26 247.99 Z" />
<path fill="#ffffff" opacity="1.00" d=" M 78.37 279.51 C 76.53 271.20 76.75 262.51 78.36 254.18 C 80.95 254.74 83.54 255.30 86.13 255.87 C 84.74 263.23 84.73 270.84 86.21 278.19 C 83.60 278.63 80.98 279.07 78.37 279.51 Z" />
<path fill="#ffffff" opacity="1.00" d=" M 289.27 263.35 C 291.98 260.75 294.11 257.61 296.69 254.88 C 298.71 256.60 300.73 258.33 302.74 260.07 C 299.73 263.60 296.75 267.15 293.73 270.68 C 289.88 271.48 286.15 272.73 282.60 274.41 C 281.39 272.04 280.20 269.67 279.02 267.29 C 282.30 265.63 285.81 264.55 289.27 263.35 Z" />
<path fill="#ffffff" opacity="1.00" d=" M 322.83 280.10 C 327.18 273.63 331.16 266.91 334.95 260.10 C 337.30 261.27 339.64 262.46 341.98 263.67 C 338.24 270.95 333.90 277.93 329.33 284.71 C 327.16 283.18 324.99 281.64 322.83 280.10 Z" />
<path fill="#ffffff" opacity="1.00" d=" M 26.19 274.41 C 28.49 273.03 30.78 271.64 33.07 270.26 C 36.77 277.17 41.73 283.24 46.36 289.53 C 44.28 291.20 42.21 292.87 40.14 294.54 C 35.22 288.02 30.14 281.59 26.19 274.41 Z" />
<path fill="#ffffff" opacity="1.00" d=" M 199.90 271.11 C 202.30 272.23 204.70 273.34 207.11 274.45 C 204.15 281.10 201.77 288.17 202.00 295.56 C 199.36 295.81 196.73 296.09 194.09 296.38 C 193.64 287.59 196.15 278.97 199.90 271.11 Z" />
<path fill="#ffffff" opacity="1.00" d=" M 105.39 287.02 C 111.40 281.99 117.25 276.77 122.75 271.20 C 124.65 273.09 126.55 274.98 128.44 276.89 C 122.62 282.58 116.69 288.18 110.31 293.25 C 108.67 291.17 107.03 289.09 105.39 287.02 Z" />
<path fill="#ffffff" opacity="1.00" d=" M 252.37 286.52 C 258.63 281.30 264.96 276.14 271.75 271.62 C 273.25 273.85 274.69 276.11 276.07 278.43 C 269.51 282.70 263.49 287.71 257.46 292.68 C 255.75 290.63 254.06 288.57 252.37 286.52 Z" />
<path fill="#ffffff" opacity="1.00" d=" M 80.45 287.96 C 82.95 287.06 85.46 286.17 87.97 285.28 C 89.22 288.54 90.89 291.62 93.19 294.26 C 95.27 293.47 97.29 292.53 99.27 291.51 C 100.70 293.75 102.12 296.00 103.53 298.26 C 99.66 300.35 95.19 303.07 90.65 301.42 C 85.11 299.11 82.52 293.18 80.45 287.96 Z" />
<path fill="#ffffff" opacity="1.00" d=" M 302.73 304.03 C 307.94 298.21 313.50 292.68 318.06 286.32 C 320.17 287.94 322.28 289.56 324.38 291.18 C 319.72 297.90 313.80 303.59 308.35 309.64 C 306.46 307.78 304.59 305.91 302.73 304.03 Z" />
<path fill="#ffffff" opacity="1.00" d=" M 227.27 304.80 C 234.10 301.17 240.21 296.38 246.24 291.57 C 247.93 293.63 249.61 295.71 251.27 297.80 C 244.84 302.98 238.24 308.05 230.91 311.92 C 229.69 309.55 228.47 307.18 227.27 304.80 Z" />
<path fill="#ffffff" opacity="1.00" d=" M 45.51 300.76 C 47.50 298.98 49.49 297.21 51.48 295.44 C 56.56 301.40 62.23 306.78 68.11 311.94 C 66.40 313.96 64.67 315.98 62.93 317.99 C 56.79 312.59 50.84 306.98 45.51 300.76 Z" />
<path fill="#ffffff" opacity="1.00" d=" M 197.13 305.61 C 199.38 304.20 201.65 302.83 203.94 301.48 C 207.71 306.75 214.47 309.08 220.73 307.52 C 221.33 310.07 221.97 312.62 222.62 315.16 C 213.11 317.79 202.58 313.81 197.13 305.61 Z" />
<path fill="#ffffff" opacity="1.00" d=" M 278.57 323.86 C 284.76 319.11 291.28 314.74 296.86 309.25 C 298.66 311.21 300.45 313.19 302.24 315.17 C 296.41 320.97 289.57 325.54 283.07 330.51 C 281.56 328.30 280.05 326.08 278.57 323.86 Z" />
<path fill="#ffffff" opacity="1.00" d=" M 74.19 316.90 C 80.38 321.70 86.72 326.29 93.56 330.13 C 92.19 332.40 90.82 334.66 89.44 336.93 C 82.28 332.96 75.64 328.20 69.19 323.18 C 70.85 321.08 72.51 318.98 74.19 316.90 Z" />
<path fill="#ffffff" opacity="1.00" d=" M 251.32 339.14 C 258.50 336.04 265.31 332.17 271.92 328.00 C 273.33 330.26 274.73 332.53 276.11 334.81 C 269.24 339.23 262.06 343.16 254.57 346.44 C 253.47 344.01 252.39 341.58 251.32 339.14 Z" />
<path fill="#ffffff" opacity="1.00" d=" M 100.30 334.02 C 107.15 337.79 114.39 340.78 121.67 343.62 C 120.76 346.11 119.84 348.61 118.93 351.11 C 111.27 348.24 103.80 344.93 96.56 341.14 C 97.80 338.76 99.05 336.38 100.30 334.02 Z" />
<path fill="#ffffff" opacity="1.00" d=" M 221.74 349.21 C 229.30 347.27 236.81 345.04 244.07 342.16 C 245.06 344.63 246.03 347.11 246.99 349.60 C 239.38 352.57 231.56 354.99 223.63 356.94 C 223.00 354.36 222.37 351.79 221.74 349.21 Z" />
<path fill="#ffffff" opacity="1.00" d=" M 126.70 353.74 C 127.48 351.19 128.26 348.65 129.04 346.11 C 136.55 348.31 144.15 350.23 151.86 351.56 C 151.43 354.19 150.98 356.82 150.54 359.45 C 142.46 358.14 134.55 356.03 126.70 353.74 Z" />
<path fill="#ffffff" opacity="1.00" d=" M 190.83 353.76 C 198.64 353.21 206.44 352.38 214.12 350.83 C 214.63 353.45 215.12 356.07 215.62 358.70 C 207.58 360.20 199.46 361.28 191.30 361.76 C 191.14 359.09 190.98 356.42 190.83 353.76 Z" />
<path fill="#ffffff" opacity="1.00" d=" M 158.61 360.65 C 158.95 358.00 159.29 355.37 159.63 352.73 C 167.43 353.62 175.27 354.02 183.12 354.03 C 183.12 356.68 183.12 359.34 183.13 362.00 L 178.43 362.00 C 171.81 361.89 165.19 361.45 158.61 360.65 Z" />
</g>
<defs>
    <style><![CDATA[
        .sprite { display: none; }
        .sprite:target { display: inline; }
    ]]></style>
</defs>
</svg>
