<?xml version="1.0" encoding="UTF-8" ?>
<!DOCTYPE svg PUBLIC "-//W3C//DTD SVG 1.1//EN" "http://www.w3.org/Graphics/SVG/1.1/DTD/svg11.dtd">
<svg width="500px" height="500px" viewBox="0 0 512 512" version="1.1" xmlns="http://www.w3.org/2000/svg">
<g id="#ffd800ff">
<path fill="#ffd800" opacity="1.00" d=" M 0.00 0.00 L 512.00 0.00 L 512.00 512.00 L 416.00 512.00 C 416.00 470.00 416.00 428.01 416.00 386.01 C 415.94 377.28 416.33 368.50 415.12 359.82 C 411.58 331.20 396.97 304.58 376.45 284.58 C 364.94 273.20 351.52 263.76 337.02 256.59 C 323.17 276.02 302.32 290.41 279.10 296.04 C 256.99 301.67 232.99 299.41 212.30 289.80 C 196.30 282.50 182.32 270.88 172.17 256.52 C 155.52 264.79 140.34 276.05 127.71 289.69 C 109.95 308.80 97.49 333.18 94.09 359.17 C 92.92 367.73 93.00 376.39 93.00 385.02 C 93.00 427.34 93.00 469.67 93.00 512.00 L 0.00 512.00 L 0.00 0.00 M 250.20 108.35 C 223.58 109.46 197.92 123.68 182.64 145.47 C 171.25 161.50 165.28 181.32 166.25 200.99 C 166.95 220.84 174.81 240.22 187.67 255.30 C 201.20 271.11 220.46 281.93 241.06 285.04 C 258.97 287.86 277.72 284.96 293.93 276.85 C 313.81 266.91 329.69 249.28 337.42 228.43 C 343.58 211.96 344.67 193.66 340.65 176.54 C 335.87 155.91 323.30 137.25 306.12 124.91 C 290.11 113.20 270.00 107.28 250.20 108.35 Z" />
</g>
<g id="#3f7abeff">
<path fill="#3f7abe" opacity="1.00" d=" M 250.20 108.35 C 270.00 107.28 290.11 113.20 306.12 124.91 C 323.30 137.25 335.87 155.91 340.65 176.54 C 344.67 193.66 343.58 211.96 337.42 228.43 C 329.69 249.28 313.81 266.91 293.93 276.85 C 277.72 284.96 258.97 287.86 241.06 285.04 C 220.46 281.93 201.20 271.11 187.67 255.30 C 174.81 240.22 166.95 220.84 166.25 200.99 C 165.28 181.32 171.25 161.50 182.64 145.47 C 197.92 123.68 223.58 109.46 250.20 108.35 Z" />
</g>
<g id="#454545ff">
<path fill="#454545" opacity="1.00" d=" M 127.71 289.69 C 140.34 276.05 155.52 264.79 172.17 256.52 C 182.32 270.88 196.30 282.50 212.30 289.80 C 232.99 299.41 256.99 301.67 279.10 296.04 C 302.32 290.41 323.17 276.02 337.02 256.59 C 351.52 263.76 364.94 273.20 376.45 284.58 C 396.97 304.58 411.58 331.20 415.12 359.82 C 416.33 368.50 415.94 377.28 416.00 386.01 C 416.00 428.01 416.00 470.00 416.00 512.00 L 93.00 512.00 C 93.00 469.67 93.00 427.34 93.00 385.02 C 93.00 376.39 92.92 367.73 94.09 359.17 C 97.49 333.18 109.95 308.80 127.71 289.69 Z" />
</g>
</svg>
