<?xml version="1.0" encoding="utf-8"?>
<!DOCTYPE svg PUBLIC "-//W3C//DTD SVG 1.1//EN" "http://www.w3.org/Graphics/SVG/1.1/DTD/svg11.dtd">
<svg xmlns="http://www.w3.org/2000/svg" width="170pt" height="170pt" viewBox="0 0 170 170" version="1.1">
<g class="sprite" id="badge">
    <path fill="#9de49d" d=" M 14.91 13.92 C 18.62 10.29 24.08 9.85 29.00 9.95 C 67.36 10.08 105.72 9.95 144.08 10.01 C 148.76 9.96 153.56 11.69 156.52 15.44 C 159.61 18.87 160.14 23.70 159.80 28.12 C 157.92 23.77 154.87 19.45 150.15 17.96 C 144.92 16.40 139.38 17.09 134.00 16.98 C 101.00 17.01 68.00 17.02 35.00 16.97 C 29.72 17.08 24.20 16.37 19.13 18.22 C 14.75 19.87 12.00 23.99 10.20 28.11 C 9.64 22.99 10.80 17.37 14.91 13.92 Z" />
<path fill="#339933" d=" M 19.13 18.22 C 24.20 16.37 29.72 17.08 35.00 16.97 C 68.00 17.02 101.00 17.01 134.00 16.98 C 139.38 17.09 144.92 16.40 150.15 17.96 C 154.87 19.45 157.92 23.77 159.80 28.12 C 160.26 59.42 159.89 90.76 159.98 122.08 C 160.25 130.06 153.05 137.25 145.07 136.98 C 125.12 137.07 105.16 136.89 85.20 137.06 C 83.90 142.93 81.05 148.50 76.28 152.29 C 64.05 162.43 47.49 165.76 31.93 164.73 C 45.80 164.19 54.46 149.84 54.92 137.15 C 44.60 136.73 34.27 137.21 23.96 136.94 C 17.03 136.72 10.80 130.86 10.14 123.97 C 9.87 120.99 10.01 117.99 9.99 115.00 C 10.14 86.04 9.73 57.06 10.20 28.11 C 12.00 23.99 14.75 19.87 19.13 18.22 Z" />
<path fill="#ffffff" d=" M 20.07 58.21 C 23.09 53.34 26.66 48.26 32.00 45.75 C 37.59 48.09 42.41 52.75 44.55 58.46 C 45.76 62.77 40.16 64.29 37.73 66.74 C 33.81 69.90 37.56 75.12 40.09 77.92 C 44.73 82.29 48.70 88.24 55.17 89.94 C 60.79 90.57 61.14 82.18 66.02 81.22 C 70.66 81.85 74.28 85.40 77.23 88.79 C 78.74 90.82 81.22 93.67 79.13 96.15 C 76.22 100.23 72.08 103.36 67.82 105.92 C 63.24 105.79 58.89 104.02 54.74 102.22 C 45.63 98.03 36.81 92.37 31.04 83.98 C 25.86 76.23 20.90 67.67 20.07 58.21 Z" />
<path fill="#ffffff" d=" M 88.99 54.07 C 110.33 53.95 131.67 53.95 153.01 54.07 C 153.01 55.36 153.01 56.64 153.01 57.93 C 131.67 58.05 110.33 58.05 88.99 57.93 C 88.99 56.64 88.99 55.36 88.99 54.07 Z" />
<path fill="#ffffff" d=" M 88.99 62.07 C 103.66 61.95 118.34 61.95 133.01 62.07 C 133.01 63.36 133.01 64.64 133.01 65.93 C 118.34 66.05 103.66 66.05 88.99 65.93 C 88.99 64.64 88.99 63.36 88.99 62.07 Z" />
<path fill="#ffffff" d=" M 88.99 70.07 C 110.33 69.95 131.67 69.95 153.01 70.07 C 153.01 71.36 153.01 72.64 153.01 73.93 C 131.67 74.05 110.33 74.05 88.99 73.93 C 88.99 72.64 88.99 71.36 88.99 70.07 Z" />
<path fill="#ffffff" d=" M 88.99 78.07 C 103.66 77.95 118.34 77.95 133.01 78.07 C 133.01 79.36 133.01 80.64 133.01 81.93 C 118.34 82.05 103.66 82.05 88.99 81.93 C 88.99 80.64 88.99 79.36 88.99 78.07 Z" />
<path fill="#ffffff" d=" M 88.99 86.07 C 110.33 85.95 131.67 85.95 153.01 86.07 C 153.01 87.36 153.01 88.64 153.01 89.93 C 131.67 90.05 110.33 90.05 88.99 89.93 C 88.99 88.64 88.99 87.36 88.99 86.07 Z" />
<path fill="#ffffff" d=" M 88.99 94.07 C 103.66 93.95 118.34 93.95 133.01 94.07 C 133.01 95.36 133.01 96.64 133.01 97.93 C 118.34 98.05 103.66 98.05 88.99 97.93 C 88.99 96.64 88.99 95.36 88.99 94.07 Z" />
</g>
 
<g class="sprite" id="icon">
    <path xmlns="http://www.w3.org/2000/svg" fill="rgba(255, 255, 255, 0.5)" d=" M 14.91 13.92 C 18.62 10.29 24.08 9.85 29.00 9.95 C 67.36 10.08 105.72 9.95 144.08 10.01 C 148.76 9.96 153.56 11.69 156.52 15.44 C 159.61 18.87 160.14 23.70 159.80 28.12 C 157.92 23.77 154.87 19.45 150.15 17.96 C 144.92 16.40 139.38 17.09 134.00 16.98 C 101.00 17.01 68.00 17.02 35.00 16.97 C 29.72 17.08 24.20 16.37 19.13 18.22 C 14.75 19.87 12.00 23.99 10.20 28.11 C 9.64 22.99 10.80 17.37 14.91 13.92 Z"/>
<path fill="#ffffff" d=" M 19.13 18.22 C 24.20 16.37 29.72 17.08 35.00 16.97 C 68.00 17.02 101.00 17.01 134.00 16.98 C 139.38 17.09 144.92 16.40 150.15 17.96 C 154.87 19.45 157.92 23.77 159.80 28.12 C 160.26 59.42 159.89 90.76 159.98 122.08 C 160.25 130.06 153.05 137.25 145.07 136.98 C 125.12 137.07 105.16 136.89 85.20 137.06 C 83.90 142.93 81.05 148.50 76.28 152.29 C 64.05 162.43 47.49 165.76 31.93 164.73 C 45.80 164.19 54.46 149.84 54.92 137.15 C 44.60 136.73 34.27 137.21 23.96 136.94 C 17.03 136.72 10.80 130.86 10.14 123.97 C 9.87 120.99 10.01 117.99 9.99 115.00 C 10.14 86.04 9.73 57.06 10.20 28.11 C 12.00 23.99 14.75 19.87 19.13 18.22 Z"/>
<path fill="#339933" d=" M 20.07 58.21 C 23.09 53.34 26.66 48.26 32.00 45.75 C 37.59 48.09 42.41 52.75 44.55 58.46 C 45.76 62.77 40.16 64.29 37.73 66.74 C 33.81 69.90 37.56 75.12 40.09 77.92 C 44.73 82.29 48.70 88.24 55.17 89.94 C 60.79 90.57 61.14 82.18 66.02 81.22 C 70.66 81.85 74.28 85.40 77.23 88.79 C 78.74 90.82 81.22 93.67 79.13 96.15 C 76.22 100.23 72.08 103.36 67.82 105.92 C 63.24 105.79 58.89 104.02 54.74 102.22 C 45.63 98.03 36.81 92.37 31.04 83.98 C 25.86 76.23 20.90 67.67 20.07 58.21 Z"/>
<path fill="#339933" d=" M 88.99 54.07 C 110.33 53.95 131.67 53.95 153.01 54.07 C 153.01 55.36 153.01 56.64 153.01 57.93 C 131.67 58.05 110.33 58.05 88.99 57.93 C 88.99 56.64 88.99 55.36 88.99 54.07 Z"/>
<path fill="#339933" d=" M 88.99 62.07 C 103.66 61.95 118.34 61.95 133.01 62.07 C 133.01 63.36 133.01 64.64 133.01 65.93 C 118.34 66.05 103.66 66.05 88.99 65.93 C 88.99 64.64 88.99 63.36 88.99 62.07 Z"/>
<path fill="#339933" d=" M 88.99 70.07 C 110.33 69.95 131.67 69.95 153.01 70.07 C 153.01 71.36 153.01 72.64 153.01 73.93 C 131.67 74.05 110.33 74.05 88.99 73.93 C 88.99 72.64 88.99 71.36 88.99 70.07 Z"/>
<path fill="#339933" d=" M 88.99 78.07 C 103.66 77.95 118.34 77.95 133.01 78.07 C 133.01 79.36 133.01 80.64 133.01 81.93 C 118.34 82.05 103.66 82.05 88.99 81.93 C 88.99 80.64 88.99 79.36 88.99 78.07 Z"/>
<path fill="#339933" d=" M 88.99 86.07 C 110.33 85.95 131.67 85.95 153.01 86.07 C 153.01 87.36 153.01 88.64 153.01 89.93 C 131.67 90.05 110.33 90.05 88.99 89.93 C 88.99 88.64 88.99 87.36 88.99 86.07 Z"/>
<path fill="#339933" d=" M 88.99 94.07 C 103.66 93.95 118.34 93.95 133.01 94.07 C 133.01 95.36 133.01 96.64 133.01 97.93 C 118.34 98.05 103.66 98.05 88.99 97.93 C 88.99 96.64 88.99 95.36 88.99 94.07 Z"/>
</g>
<defs>
    <style><![CDATA[
        .sprite { display: none; }
        .sprite:target { display: inline; }
    ]]></style>
</defs>
</svg>