<?xml version="1.0" encoding="UTF-8" ?>
<!DOCTYPE svg PUBLIC "-//W3C//DTD SVG 1.1//EN" "http://www.w3.org/Graphics/SVG/1.1/DTD/svg11.dtd">
<svg width="159pt" height="159pt" viewBox="0 0 159 159" version="1.1" xmlns="http://www.w3.org/2000/svg">
<path fill="#46479c" stroke="#46479c" stroke-width="0.09375" opacity="1.00" d=" M 76.5 0.0 L 82.5 0.0 C 90.0 0.7 97.6 1.8 104.7 4.3 C 128.3 12.0 147.6 31.5 155.1 55.1 C 157.7 62.5 158.4 70.5 159.0 78.3 L 159.0 80.7 C 158.4 89.0 157.6 97.5 154.5 105.4 C 146.9 127.9 128.6 146.4 106.2 154.3 C 98.1 157.5 89.3 158.4 80.7 159.0 L 78.3 159.0 C 72.5 158.5 66.7 158.0 61.0 156.8 C 46.4 153.2 32.8 145.5 22.4 134.6 C 14.5 126.3 8.2 116.4 4.6 105.5 C 1.9 98.1 0.7 90.3 0.0 82.5 L 0.0 76.5 C 0.8 69.2 1.6 61.8 4.0 54.8 C 7.6 44.4 13.1 34.7 20.5 26.5 C 29.1 17.0 40.0 9.5 52.0 5.1 C 59.8 1.9 68.2 0.8 76.5 0.0 M 63.1 5.1 C 36.3 10.4 13.4 31.9 6.3 58.2 C 4.4 65.0 3.8 72.1 3.3 79.1 C 7.4 78.2 9.9 74.5 12.8 71.8 C 32.4 52.1 52.1 32.4 71.8 12.8 C 74.5 9.9 78.2 7.4 79.1 3.3 C 73.8 3.6 68.4 4.2 63.1 5.1 M 84.8 6.8 C 76.9 14.9 68.9 22.9 60.8 30.8 C 59.2 32.5 57.9 34.4 56.5 36.2 C 54.0 35.9 50.8 35.9 49.1 38.1 C 45.7 42.3 45.0 47.9 44.4 53.0 C 40.0 56.0 36.6 60.1 32.8 63.8 C 23.3 73.3 13.9 82.9 4.2 92.2 C 5.1 96.7 6.4 101.1 7.9 105.4 C 10.3 113.2 14.5 120.3 19.3 126.8 C 24.5 132.7 29.7 138.6 36.5 142.7 C 42.3 146.5 48.5 150.3 55.4 151.8 C 60.0 153.7 64.8 155.3 69.9 155.1 C 75.9 156.1 81.9 156.1 88.0 155.4 C 98.3 154.8 108.1 151.0 117.1 146.2 C 132.2 137.6 144.5 123.8 150.7 107.5 C 154.7 98.4 155.9 88.4 155.8 78.5 C 156.6 68.4 153.4 58.6 149.7 49.3 C 147.6 44.4 145.1 39.6 141.8 35.3 C 138.2 29.5 133.1 24.7 127.8 20.4 C 121.3 14.7 113.6 10.5 105.4 7.9 C 100.1 6.2 94.8 4.0 89.1 4.3 C 87.3 4.3 86.1 5.7 84.8 6.8 Z" />
<path fill="#215cb6" stroke="#215cb6" stroke-width="0.09375" opacity="1.00" d=" M 63.1 5.1 C 68.4 4.2 73.8 3.6 79.1 3.3 C 78.2 7.4 74.5 9.9 71.8 12.8 C 52.1 32.4 32.4 52.1 12.8 71.8 C 9.9 74.5 7.4 78.2 3.3 79.1 C 3.8 72.1 4.4 65.0 6.3 58.2 C 13.4 31.9 36.3 10.4 63.1 5.1 Z" />
<path fill="#6436a3" stroke="#6436a3" stroke-width="0.09375" opacity="1.00" d=" M 84.8 6.8 C 86.1 5.7 87.3 4.3 89.1 4.3 C 94.8 4.0 100.1 6.2 105.4 7.9 C 99.1 14.8 92.3 21.2 85.8 27.8 C 79.8 33.7 74.1 39.8 67.8 45.4 C 64.3 42.1 60.6 38.9 56.5 36.2 C 57.9 34.4 59.2 32.5 60.8 30.8 C 68.9 22.9 76.9 14.9 84.8 6.8 Z" />
<path fill="#7d2c9b" stroke="#7d2c9b" stroke-width="0.09375" opacity="1.00" d=" M 105.4 7.9 C 113.6 10.5 121.3 14.7 127.8 20.4 C 124.7 22.3 121.7 24.5 119.2 27.2 C 113.9 32.9 108.3 38.2 102.8 43.8 C 97.7 48.9 92.3 53.8 87.8 59.4 C 85.6 59.3 83.3 58.9 81.3 57.6 C 76.2 54.4 72.1 49.7 67.8 45.4 C 74.1 39.8 79.8 33.7 85.8 27.8 C 92.3 21.2 99.1 14.8 105.4 7.9 Z" />
<path fill="#962390" stroke="#962390" stroke-width="0.09375" opacity="1.00" d=" M 119.2 27.2 C 121.7 24.5 124.7 22.3 127.8 20.4 C 133.1 24.7 138.2 29.5 141.8 35.3 C 136.1 38.7 131.8 43.9 127.0 48.3 C 124.8 45.2 122.4 41.9 119.1 39.9 C 117.3 38.7 115.1 39.6 113.4 40.4 C 104.2 45.8 98.4 56.3 87.8 59.4 C 92.3 53.8 97.7 48.9 102.8 43.8 C 108.3 38.2 113.9 32.9 119.2 27.2 Z" />
<path fill="#ffffff" stroke="#ffffff" stroke-width="0.09375" opacity="1.00" d=" M 49.1 38.1 C 50.8 35.9 54.0 35.9 56.5 36.2 C 60.6 38.9 64.3 42.1 67.8 45.4 C 72.1 49.7 76.2 54.4 81.3 57.6 C 83.3 58.9 85.6 59.3 87.8 59.4 C 98.4 56.3 104.2 45.8 113.4 40.4 C 115.1 39.6 117.3 38.7 119.1 39.9 C 122.4 41.9 124.8 45.2 127.0 48.3 C 129.4 53.7 130.1 59.6 130.2 65.4 C 130.0 71.2 129.4 77.0 128.5 82.8 C 128.2 85.1 127.6 87.4 128.0 89.8 C 129.3 92.9 131.7 95.5 133.8 98.1 C 133.8 102.2 134.3 106.5 132.2 110.2 C 129.8 114.2 125.7 117.4 120.9 117.9 C 116.9 118.4 112.9 116.9 109.3 115.0 C 106.2 111.6 104.3 107.3 103.5 102.8 C 104.5 98.1 106.5 93.3 110.6 90.6 C 114.6 87.5 119.9 88.4 124.6 88.5 C 126.0 81.4 126.5 74.2 126.9 67.0 C 127.2 62.2 126.9 57.2 125.3 52.7 C 123.6 48.9 121.4 44.9 117.7 42.8 C 113.4 42.6 110.2 46.6 107.2 49.2 C 102.4 54.2 96.7 58.1 91.4 62.5 C 87.9 62.6 84.2 62.8 81.1 61.0 C 75.0 57.6 70.4 52.2 65.4 47.5 C 62.8 45.1 60.4 42.5 57.4 40.5 C 56.0 39.7 54.2 38.9 52.5 39.3 C 50.4 40.4 49.7 42.8 49.0 44.9 C 47.4 51.2 47.3 57.8 46.8 64.2 C 46.3 71.2 45.9 78.1 45.6 85.1 C 45.6 87.2 45.4 89.5 46.2 91.5 C 48.9 94.2 52.2 96.1 55.2 98.4 C 56.2 102.3 57.6 106.5 56.4 110.5 C 54.4 117.0 47.8 121.6 41.0 121.0 C 36.2 120.9 32.5 117.6 29.0 114.8 C 28.1 112.0 27.2 109.0 27.1 106.0 C 27.0 101.9 29.3 98.0 32.4 95.4 C 35.2 93.3 38.6 92.5 41.9 91.5 C 43.2 85.0 42.9 78.3 43.1 71.7 C 43.4 65.5 43.8 59.2 44.4 53.0 C 45.0 47.9 45.7 42.3 49.1 38.1 Z" />
<path fill="#aa1c88" stroke="#aa1c88" stroke-width="0.09375" opacity="1.00" d=" M 127.0 48.3 C 131.8 43.9 136.1 38.7 141.8 35.3 C 145.1 39.6 147.6 44.4 149.7 49.3 C 147.3 50.1 145.0 51.3 143.3 53.2 C 139.2 57.6 135.2 62.1 130.2 65.4 C 130.1 59.6 129.4 53.7 127.0 48.3 Z" />
<path fill="#6436a3" stroke="#6436a3" stroke-width="0.09375" opacity="1.00" d=" M 52.5 39.3 C 54.2 38.9 56.0 39.7 57.4 40.5 C 60.4 42.5 62.8 45.1 65.4 47.5 C 59.0 52.8 54.2 60.0 46.8 64.2 C 47.3 57.8 47.4 51.2 49.0 44.9 C 49.7 42.8 50.4 40.4 52.5 39.3 Z" />
<path fill="#962390" stroke="#962390" stroke-width="0.09375" opacity="1.00" d=" M 107.2 49.2 C 110.2 46.6 113.4 42.6 117.7 42.8 C 121.4 44.9 123.6 48.9 125.3 52.7 C 119.5 57.8 114.2 63.4 108.8 68.8 C 88.3 89.3 67.8 109.8 47.3 130.3 C 43.3 134.0 39.2 137.9 36.5 142.7 C 29.7 138.6 24.5 132.7 19.3 126.8 C 20.0 121.3 25.5 118.6 29.0 114.8 C 32.5 117.6 36.2 120.9 41.0 121.0 C 47.8 121.6 54.4 117.0 56.4 110.5 C 57.6 106.5 56.2 102.3 55.2 98.4 C 58.8 95.6 62.2 92.6 65.3 89.3 C 73.9 80.3 83.1 71.9 91.4 62.5 C 96.7 58.1 102.4 54.2 107.2 49.2 Z" />
<path fill="#7d2c9b" stroke="#7d2c9b" stroke-width="0.09375" opacity="1.00" d=" M 46.8 64.2 C 54.2 60.0 59.0 52.8 65.4 47.5 C 70.4 52.2 75.0 57.6 81.1 61.0 C 84.2 62.8 87.9 62.6 91.4 62.5 C 83.1 71.9 73.9 80.3 65.3 89.3 C 62.2 92.6 58.8 95.6 55.2 98.4 C 52.2 96.1 48.9 94.2 46.2 91.5 C 45.4 89.5 45.6 87.2 45.6 85.1 C 45.9 78.1 46.3 71.2 46.8 64.2 Z" />
<path fill="#bf157f" stroke="#bf157f" stroke-width="0.09375" opacity="1.00" d=" M 143.3 53.2 C 145.0 51.3 147.3 50.1 149.7 49.3 C 153.4 58.6 156.6 68.4 155.8 78.5 C 153.1 79.7 150.3 81.0 148.2 83.2 C 143.4 88.2 138.4 93.0 133.8 98.1 C 131.7 95.5 129.3 92.9 128.0 89.8 C 127.6 87.4 128.2 85.1 128.5 82.8 C 129.4 77.0 130.0 71.2 130.2 65.4 C 135.2 62.1 139.2 57.6 143.3 53.2 Z" />
<path fill="#6436a3" stroke="#6436a3" stroke-width="0.09375" opacity="1.00" d=" M 32.8 63.8 C 36.6 60.1 40.0 56.0 44.4 53.0 C 43.8 59.2 43.4 65.5 43.1 71.7 C 37.0 75.7 32.4 81.3 27.3 86.3 C 20.8 92.6 14.6 99.2 7.9 105.4 C 6.4 101.1 5.1 96.7 4.2 92.2 C 13.9 82.9 23.3 73.3 32.8 63.8 Z" />
<path fill="#aa1c88" stroke="#aa1c88" stroke-width="0.09375" opacity="1.00" d=" M 108.8 68.8 C 114.2 63.4 119.5 57.8 125.3 52.7 C 126.9 57.2 127.2 62.2 126.9 67.0 C 126.5 74.2 126.0 81.4 124.6 88.5 C 119.9 88.4 114.6 87.5 110.6 90.6 C 106.5 93.3 104.5 98.1 103.5 102.8 C 101.2 104.7 98.9 106.6 96.8 108.7 C 84.8 120.8 72.8 132.8 60.7 144.7 C 58.6 146.9 57.0 149.3 55.4 151.8 C 48.5 150.3 42.3 146.5 36.5 142.7 C 39.2 137.9 43.3 134.0 47.3 130.3 C 67.8 109.8 88.3 89.3 108.8 68.8 Z" />
<path fill="#7d2c9b" stroke="#7d2c9b" stroke-width="0.09375" opacity="1.00" d=" M 27.3 86.3 C 32.4 81.3 37.0 75.7 43.1 71.7 C 42.9 78.3 43.2 85.0 41.9 91.5 C 38.6 92.5 35.2 93.3 32.4 95.4 C 29.3 98.0 27.0 101.9 27.1 106.0 C 27.2 109.0 28.1 112.0 29.0 114.8 C 25.5 118.6 20.0 121.3 19.3 126.8 C 14.5 120.3 10.3 113.2 7.9 105.4 C 14.6 99.2 20.8 92.6 27.3 86.3 Z" />
<path fill="#d10f78" stroke="#d10f78" stroke-width="0.09375" opacity="1.00" d=" M 148.2 83.2 C 150.3 81.0 153.1 79.7 155.8 78.5 C 155.9 88.4 154.7 98.4 150.7 107.5 C 144.5 123.8 132.2 137.6 117.1 146.2 C 108.1 151.0 98.3 154.8 88.0 155.4 C 81.9 156.1 75.9 156.1 69.9 155.1 C 82.7 141.4 96.5 128.7 109.3 115.0 C 112.9 116.9 116.9 118.4 120.9 117.9 C 125.7 117.4 129.8 114.2 132.2 110.2 C 134.3 106.5 133.8 102.2 133.8 98.1 C 138.4 93.0 143.4 88.2 148.2 83.2 Z" />
<path fill="#bf157f" stroke="#bf157f" stroke-width="0.09375" opacity="1.00" d=" M 96.8 108.7 C 98.9 106.6 101.2 104.7 103.5 102.8 C 104.3 107.3 106.2 111.6 109.3 115.0 C 96.5 128.7 82.7 141.4 69.9 155.1 C 64.8 155.3 60.0 153.7 55.4 151.8 C 57.0 149.3 58.6 146.9 60.7 144.7 C 72.8 132.8 84.8 120.8 96.8 108.7 Z" />
</svg>
