<?xml version="1.0" encoding="UTF-8" ?>
<!DOCTYPE svg PUBLIC "-//W3C//DTD SVG 1.1//EN" "http://www.w3.org/Graphics/SVG/1.1/DTD/svg11.dtd">
<svg width="512pt" height="519pt" viewBox="0 0 512 519" version="1.1" xmlns="http://www.w3.org/2000/svg">
<g id="#ffffffff">
<path fill="#ffffff" opacity="1.00" d=" M 0.00 0.00 L 512.00 0.00 L 512.00 519.00 L 416.50 519.00 C 416.50 516.83 416.50 514.67 416.51 512.51 C 418.66 512.50 420.82 512.50 422.99 512.51 C 423.01 503.08 423.01 493.66 422.99 484.24 C 418.66 484.24 414.33 484.24 410.01 484.24 C 409.99 491.49 410.01 498.74 410.00 506.00 C 399.14 506.07 388.27 505.87 377.42 506.10 C 377.47 510.40 377.68 514.70 377.33 519.00 L 364.50 519.00 C 364.50 514.67 364.50 510.34 364.51 506.01 C 351.50 505.99 338.50 505.99 325.49 506.01 C 325.35 510.34 325.81 514.69 325.25 519.00 L 312.50 519.00 C 312.50 514.67 312.50 510.34 312.51 506.02 C 299.47 506.05 286.43 505.86 273.39 506.12 C 273.57 510.41 273.50 514.70 273.46 519.00 L 260.50 519.00 C 260.50 514.67 260.50 510.34 260.51 506.01 C 247.50 505.99 234.50 505.99 221.49 506.01 C 221.38 510.34 221.77 514.68 221.28 519.00 L 208.50 519.00 C 208.50 514.67 208.50 510.34 208.51 506.01 C 195.50 505.99 182.50 505.99 169.49 506.02 C 169.44 510.34 169.64 514.67 169.36 519.00 L 156.50 519.00 C 156.50 514.67 156.50 510.34 156.51 506.02 C 143.51 505.99 130.50 505.99 117.49 506.01 C 117.41 510.34 117.71 514.68 117.32 519.00 L 104.50 519.00 C 104.50 514.67 104.50 510.34 104.51 506.02 C 103.01 506.00 101.50 505.99 100.00 505.99 C 100.00 498.82 100.00 491.66 100.00 484.50 C 95.67 484.49 91.33 484.49 87.00 484.50 C 87.00 496.00 87.00 507.50 87.00 519.00 L 0.00 519.00 L 0.00 0.00 M 250.97 95.27 C 251.16 99.60 251.38 103.92 251.64 108.25 C 263.75 107.88 275.94 109.93 287.17 114.50 C 288.67 110.43 290.11 106.35 291.62 102.29 C 278.77 97.08 264.81 94.89 250.97 95.27 M 199.00 111.93 C 201.28 115.57 203.51 119.25 205.67 122.96 C 215.92 116.40 227.32 111.67 239.31 109.45 C 238.61 105.20 238.05 100.94 237.32 96.70 C 223.66 99.01 210.58 104.36 199.00 111.93 M 297.81 119.56 C 308.36 125.53 317.69 133.67 324.99 143.35 C 328.50 140.82 331.91 138.16 335.44 135.66 C 327.20 124.58 316.58 115.29 304.59 108.45 C 302.24 112.09 299.93 115.78 297.81 119.56 M 187.62 120.58 C 177.28 129.73 168.86 141.02 162.97 153.51 C 166.93 155.32 170.82 157.27 174.77 159.10 C 179.86 148.07 187.26 138.07 196.49 130.15 C 193.55 126.94 190.65 123.70 187.62 120.58 M 331.96 153.54 C 337.51 164.39 341.46 176.08 342.66 188.25 C 346.93 187.60 351.20 186.94 355.47 186.33 C 354.02 172.54 349.67 159.14 342.98 147.01 C 339.30 149.17 335.68 151.44 331.96 153.54 M 157.81 166.07 C 153.95 179.39 152.26 193.38 153.63 207.22 C 155.24 207.26 156.86 207.32 158.47 207.42 C 156.88 207.70 155.27 207.76 153.67 207.79 C 154.73 216.94 156.81 225.98 160.20 234.56 C 164.32 233.18 168.36 231.61 172.44 230.11 C 164.80 211.30 164.36 189.99 170.01 170.58 C 165.92 169.13 161.89 167.53 157.81 166.07 M 342.91 199.97 C 342.65 212.06 339.85 224.15 334.59 235.05 C 338.49 236.97 342.42 238.81 346.33 240.71 C 352.19 228.15 355.61 214.41 355.90 200.54 C 351.56 200.42 347.24 200.09 342.91 199.97 M 166.40 247.38 C 167.25 248.83 168.09 250.27 168.95 251.71 C 157.18 257.39 146.49 265.00 136.36 273.20 C 139.28 276.43 142.32 279.55 145.25 282.78 C 154.89 274.80 165.38 267.89 176.57 262.27 C 181.56 268.26 187.13 273.82 193.43 278.43 C 195.99 274.95 198.67 271.57 201.23 268.09 C 191.53 260.75 183.47 251.35 177.51 240.75 C 173.80 242.95 170.12 245.21 166.40 247.38 M 328.49 246.00 C 322.03 256.03 313.39 264.52 303.58 271.27 C 305.85 274.97 308.12 278.66 310.38 282.37 C 319.76 275.92 328.41 268.25 335.09 258.99 C 334.57 260.10 334.07 261.22 333.58 262.34 C 344.92 267.82 355.38 274.93 365.12 282.89 C 367.77 279.43 370.45 275.99 373.06 272.51 C 362.68 264.21 351.66 256.65 339.67 250.86 C 339.38 251.13 338.79 251.68 338.50 251.95 C 335.20 249.91 331.98 247.71 328.49 246.00 M 211.46 274.96 C 209.31 278.70 207.00 282.35 204.80 286.07 C 217.15 292.74 230.74 297.44 244.80 298.48 C 244.91 294.21 245.27 289.96 245.40 285.69 C 233.50 284.38 222.00 280.57 211.46 274.96 M 257.73 286.07 C 257.99 290.37 258.25 294.67 258.42 298.97 C 272.24 298.46 285.97 295.09 298.44 289.08 C 296.70 285.09 294.59 281.27 292.85 277.29 C 281.99 282.76 269.85 285.52 257.73 286.07 M 374.15 291.35 C 382.63 300.30 390.35 310.04 396.09 320.99 C 399.85 318.86 403.62 316.76 407.38 314.63 C 401.01 302.54 392.53 291.71 383.07 281.90 C 380.13 285.08 377.11 288.19 374.15 291.35 M 102.62 314.93 C 106.39 317.06 110.15 319.20 113.94 321.30 C 119.67 310.33 127.32 300.53 135.77 291.53 C 132.77 288.41 129.82 285.25 126.87 282.10 C 117.47 291.99 108.99 302.83 102.62 314.93 M 401.26 332.18 C 406.46 343.32 408.90 355.60 409.87 367.80 C 414.17 367.59 418.45 367.09 422.75 366.77 C 421.85 353.15 418.90 339.54 413.31 327.06 C 409.23 328.63 405.25 330.43 401.26 332.18 M 87.33 367.03 C 91.65 367.52 95.99 367.78 100.30 368.30 C 101.15 356.02 103.81 343.78 108.66 332.45 C 104.71 330.69 100.71 329.04 96.75 327.31 C 91.26 339.84 88.38 353.43 87.33 367.03 M 410.01 380.24 C 409.99 393.24 410.01 406.25 410.00 419.25 C 414.33 419.25 418.66 419.25 423.00 419.25 C 422.99 406.25 423.01 393.24 422.99 380.24 C 418.66 380.25 414.34 380.25 410.01 380.24 M 87.00 380.50 C 87.00 393.50 87.00 406.50 87.00 419.50 C 91.33 419.50 95.67 419.51 100.00 419.50 C 100.00 406.50 100.00 393.50 100.00 380.50 C 95.67 380.49 91.33 380.49 87.00 380.50 M 410.01 432.24 C 409.99 445.24 410.01 458.25 410.00 471.25 C 414.33 471.25 418.66 471.25 423.00 471.25 C 422.99 458.25 423.01 445.24 422.99 432.24 C 418.66 432.25 414.33 432.25 410.01 432.24 M 87.00 432.50 C 87.00 445.50 87.00 458.50 87.00 471.50 C 91.33 471.50 95.67 471.50 100.00 471.50 C 100.00 458.50 100.00 445.50 100.00 432.50 C 95.67 432.49 91.33 432.49 87.00 432.50 Z" />
</g>
<g id="#505151ff">
<path fill="#505151" opacity="1.00" d=" M 250.97 95.27 C 264.81 94.89 278.77 97.08 291.62 102.29 C 290.11 106.35 288.67 110.43 287.17 114.50 C 275.94 109.93 263.75 107.88 251.64 108.25 C 251.38 103.92 251.16 99.60 250.97 95.27 Z" />
<path fill="#505151" opacity="1.00" d=" M 199.00 111.93 C 210.58 104.36 223.66 99.01 237.32 96.70 C 238.05 100.94 238.61 105.20 239.31 109.45 C 227.32 111.67 215.92 116.40 205.67 122.96 C 203.51 119.25 201.28 115.57 199.00 111.93 Z" />
<path fill="#505151" opacity="1.00" d=" M 297.81 119.56 C 299.93 115.78 302.24 112.09 304.59 108.45 C 316.58 115.29 327.20 124.58 335.44 135.66 C 331.91 138.16 328.50 140.82 324.99 143.35 C 317.69 133.67 308.36 125.53 297.81 119.56 Z" />
<path fill="#505151" opacity="1.00" d=" M 187.62 120.58 C 190.65 123.70 193.55 126.94 196.49 130.15 C 187.26 138.07 179.86 148.07 174.77 159.10 C 170.82 157.27 166.93 155.32 162.97 153.51 C 168.86 141.02 177.28 129.73 187.62 120.58 Z" />
<path fill="#505151" opacity="1.00" d=" M 331.96 153.54 C 335.68 151.44 339.30 149.17 342.98 147.01 C 349.67 159.14 354.02 172.54 355.47 186.33 C 351.20 186.94 346.93 187.60 342.66 188.25 C 341.46 176.08 337.51 164.39 331.96 153.54 Z" />
<path fill="#505151" opacity="1.00" d=" M 157.81 166.07 C 161.89 167.53 165.92 169.13 170.01 170.58 C 164.36 189.99 164.80 211.30 172.44 230.11 C 168.36 231.61 164.32 233.18 160.20 234.56 C 156.81 225.98 154.73 216.94 153.67 207.79 C 155.27 207.76 156.88 207.70 158.47 207.42 C 156.86 207.32 155.24 207.26 153.63 207.22 C 152.26 193.38 153.95 179.39 157.81 166.07 Z" />
<path fill="#505151" opacity="1.00" d=" M 342.91 199.97 C 347.24 200.09 351.56 200.42 355.90 200.54 C 355.61 214.41 352.19 228.15 346.33 240.71 C 342.42 238.81 338.49 236.97 334.59 235.05 C 339.85 224.15 342.65 212.06 342.91 199.97 Z" />
<path fill="#505151" opacity="1.00" d=" M 166.40 247.38 C 170.12 245.21 173.80 242.95 177.51 240.75 C 183.47 251.35 191.53 260.75 201.23 268.09 C 198.67 271.57 195.99 274.95 193.43 278.43 C 187.13 273.82 181.56 268.26 176.57 262.27 C 165.38 267.89 154.89 274.80 145.25 282.78 C 142.32 279.55 139.28 276.43 136.36 273.20 C 146.49 265.00 157.18 257.39 168.95 251.71 C 168.09 250.27 167.25 248.83 166.40 247.38 Z" />
<path fill="#505151" opacity="1.00" d=" M 328.49 246.00 C 331.98 247.71 335.20 249.91 338.50 251.95 C 338.79 251.68 339.38 251.13 339.67 250.86 C 351.66 256.65 362.68 264.21 373.06 272.51 C 370.45 275.99 367.77 279.43 365.12 282.89 C 355.38 274.93 344.92 267.82 333.58 262.34 C 334.07 261.22 334.57 260.10 335.09 258.99 C 328.41 268.25 319.76 275.92 310.38 282.37 C 308.12 278.66 305.85 274.97 303.58 271.27 C 313.39 264.52 322.03 256.03 328.49 246.00 Z" />
<path fill="#505151" opacity="1.00" d=" M 211.46 274.96 C 222.00 280.57 233.50 284.38 245.40 285.69 C 245.27 289.96 244.91 294.21 244.80 298.48 C 230.74 297.44 217.15 292.74 204.80 286.07 C 207.00 282.35 209.31 278.70 211.46 274.96 Z" />
<path fill="#505151" opacity="1.00" d=" M 257.73 286.07 C 269.85 285.52 281.99 282.76 292.85 277.29 C 294.59 281.27 296.70 285.09 298.44 289.08 C 285.97 295.09 272.24 298.46 258.42 298.97 C 258.25 294.67 257.99 290.37 257.73 286.07 Z" />
<path fill="#505151" opacity="1.00" d=" M 374.15 291.35 C 377.11 288.19 380.13 285.08 383.07 281.90 C 392.53 291.71 401.01 302.54 407.38 314.63 C 403.62 316.76 399.85 318.86 396.09 320.99 C 390.35 310.04 382.63 300.30 374.15 291.35 Z" />
<path fill="#505151" opacity="1.00" d=" M 102.62 314.93 C 108.99 302.83 117.47 291.99 126.87 282.10 C 129.82 285.25 132.77 288.41 135.77 291.53 C 127.32 300.53 119.67 310.33 113.94 321.30 C 110.15 319.20 106.39 317.06 102.62 314.93 Z" />
<path fill="#505151" opacity="1.00" d=" M 401.26 332.18 C 405.25 330.43 409.23 328.63 413.31 327.06 C 418.90 339.54 421.85 353.15 422.75 366.77 C 418.45 367.09 414.17 367.59 409.87 367.80 C 408.90 355.60 406.46 343.32 401.26 332.18 Z" />
<path fill="#505151" opacity="1.00" d=" M 87.33 367.03 C 88.38 353.43 91.26 339.84 96.75 327.31 C 100.71 329.04 104.71 330.69 108.66 332.45 C 103.81 343.78 101.15 356.02 100.30 368.30 C 95.99 367.78 91.65 367.52 87.33 367.03 Z" />
<path fill="#505151" opacity="1.00" d=" M 410.01 380.24 C 414.34 380.25 418.66 380.25 422.99 380.24 C 423.01 393.24 422.99 406.25 423.00 419.25 C 418.66 419.25 414.33 419.25 410.00 419.25 C 410.01 406.25 409.99 393.24 410.01 380.24 Z" />
<path fill="#505151" opacity="1.00" d=" M 87.00 380.50 C 91.33 380.49 95.67 380.49 100.00 380.50 C 100.00 393.50 100.00 406.50 100.00 419.50 C 95.67 419.51 91.33 419.50 87.00 419.50 C 87.00 406.50 87.00 393.50 87.00 380.50 Z" />
<path fill="#505151" opacity="1.00" d=" M 410.01 432.24 C 414.33 432.25 418.66 432.25 422.99 432.24 C 423.01 445.24 422.99 458.25 423.00 471.25 C 418.66 471.25 414.33 471.25 410.00 471.25 C 410.01 458.25 409.99 445.24 410.01 432.24 Z" />
<path fill="#505151" opacity="1.00" d=" M 87.00 432.50 C 91.33 432.49 95.67 432.49 100.00 432.50 C 100.00 445.50 100.00 458.50 100.00 471.50 C 95.67 471.50 91.33 471.50 87.00 471.50 C 87.00 458.50 87.00 445.50 87.00 432.50 Z" />
<path fill="#505151" opacity="1.00" d=" M 410.01 484.24 C 414.33 484.24 418.66 484.24 422.99 484.24 C 423.01 493.66 423.01 503.08 422.99 512.51 C 420.82 512.50 418.66 512.50 416.51 512.51 C 416.50 514.67 416.50 516.83 416.50 519.00 L 377.33 519.00 C 377.68 514.70 377.47 510.40 377.42 506.10 C 388.27 505.87 399.14 506.07 410.00 506.00 C 410.01 498.74 409.99 491.49 410.01 484.24 Z" />
<path fill="#505151" opacity="1.00" d=" M 87.00 484.50 C 91.33 484.49 95.67 484.49 100.00 484.50 C 100.00 491.66 100.00 498.82 100.00 505.99 C 101.50 505.99 103.01 506.00 104.51 506.02 C 104.50 510.34 104.50 514.67 104.50 519.00 L 87.00 519.00 C 87.00 507.50 87.00 496.00 87.00 484.50 Z" />
<path fill="#505151" opacity="1.00" d=" M 117.49 506.01 C 130.50 505.99 143.51 505.99 156.51 506.02 C 156.50 510.34 156.50 514.67 156.50 519.00 L 117.32 519.00 C 117.71 514.68 117.41 510.34 117.49 506.01 Z" />
<path fill="#505151" opacity="1.00" d=" M 169.49 506.02 C 182.50 505.99 195.50 505.99 208.51 506.01 C 208.50 510.34 208.50 514.67 208.50 519.00 L 169.36 519.00 C 169.64 514.67 169.44 510.34 169.49 506.02 Z" />
<path fill="#505151" opacity="1.00" d=" M 221.49 506.01 C 234.50 505.99 247.50 505.99 260.51 506.01 C 260.50 510.34 260.50 514.67 260.50 519.00 L 221.28 519.00 C 221.77 514.68 221.38 510.34 221.49 506.01 Z" />
<path fill="#505151" opacity="1.00" d=" M 273.39 506.12 C 286.43 505.86 299.47 506.05 312.51 506.02 C 312.50 510.34 312.50 514.67 312.50 519.00 L 273.46 519.00 C 273.50 514.70 273.57 510.41 273.39 506.12 Z" />
<path fill="#505151" opacity="1.00" d=" M 325.49 506.01 C 338.50 505.99 351.50 505.99 364.51 506.01 C 364.50 510.34 364.50 514.67 364.50 519.00 L 325.25 519.00 C 325.81 514.69 325.35 510.34 325.49 506.01 Z" />
</g>
</svg>
