<?xml version="1.0" encoding="UTF-8" ?>
<!DOCTYPE svg PUBLIC "-//W3C//DTD SVG 1.1//EN" "http://www.w3.org/Graphics/SVG/1.1/DTD/svg11.dtd">
<svg width="361pt" height="355pt" viewBox="0 0 361 355" version="1.1" xmlns="http://www.w3.org/2000/svg">
<g class="sprite" id="badge">
<path fill="#000000" opacity="1.00" d=" M 145.00 41.00 C 154.33 41.00 163.67 41.00 173.00 41.00 C 173.00 43.67 173.00 46.33 173.00 49.00 C 166.33 49.00 159.67 49.00 153.00 49.00 C 153.00 53.67 153.00 58.33 153.00 63.00 C 150.33 63.00 147.67 63.00 145.00 63.00 C 145.00 55.67 145.00 48.33 145.00 41.00 Z" />
<path fill="#000000" opacity="1.00" d=" M 181.00 41.00 C 189.00 41.00 197.00 41.00 205.00 41.00 C 205.00 43.67 205.00 46.33 205.00 49.00 C 197.00 49.00 189.00 49.00 181.00 49.00 C 181.00 46.33 181.00 43.67 181.00 41.00 Z" />
<path fill="#000000" opacity="1.00" d=" M 201.00 53.00 C 203.67 53.00 206.33 53.00 209.00 53.00 C 209.00 60.00 208.99 67.00 209.00 74.00 C 212.67 74.00 216.33 74.00 220.00 74.00 C 220.00 76.67 220.00 79.33 220.00 82.00 C 190.67 82.00 161.33 82.00 132.00 82.00 C 132.00 79.33 132.00 76.67 132.00 74.00 C 136.33 74.00 140.66 74.00 144.99 74.00 C 144.99 73.25 145.01 71.75 145.01 71.00 C 147.67 71.00 150.33 71.00 152.98 71.00 C 152.99 71.75 153.01 73.25 153.02 74.00 C 169.01 74.00 185.00 74.00 201.00 74.00 C 201.00 67.00 200.99 60.00 201.00 53.00 Z" />
<path fill="#000000" opacity="1.00" d=" M 0.00 74.00 C 9.33 74.00 18.67 74.00 28.00 74.00 C 28.00 76.67 28.00 79.33 28.00 82.00 C 21.33 82.01 14.67 81.99 8.00 82.00 C 8.00 86.00 8.00 90.00 8.00 94.00 C 5.33 94.00 2.67 94.00 0.00 94.00 L 0.00 74.00 Z" />
<path fill="#000000" opacity="1.00" d=" M 35.26 74.15 C 50.19 73.75 65.13 74.24 80.07 74.00 C 85.71 73.87 91.35 74.09 96.99 74.37 C 105.98 73.69 114.99 74.12 124.00 74.00 C 124.00 76.67 124.00 79.33 124.00 82.00 C 117.02 82.34 109.92 81.22 103.05 82.74 C 83.02 81.56 62.94 82.39 42.89 81.98 C 42.63 88.03 42.41 94.09 42.21 100.15 C 39.54 100.11 36.86 100.03 34.19 99.96 C 34.56 91.36 34.70 82.74 35.26 74.15 Z" />
<path fill="#000000" opacity="1.00" d=" M 228.00 74.00 C 236.00 74.00 244.00 74.00 252.00 74.00 C 252.00 76.67 252.00 79.33 252.00 82.00 C 244.00 82.00 236.00 82.00 228.00 82.00 C 228.00 79.33 228.00 76.67 228.00 74.00 Z" />
<path fill="#000000" opacity="1.00" d=" M 260.00 74.00 C 268.00 74.00 276.00 74.00 284.00 74.00 C 284.00 76.67 284.00 79.33 284.00 82.00 C 276.00 82.00 268.00 82.00 260.00 82.00 C 260.00 79.33 260.00 76.67 260.00 74.00 Z" />
<path fill="#000000" opacity="1.00" d=" M 292.00 74.00 C 300.00 74.00 308.00 74.00 316.00 74.00 C 316.00 76.67 316.00 79.33 316.00 82.00 C 308.00 82.00 300.00 82.00 292.00 82.00 C 292.00 79.33 292.00 76.67 292.00 74.00 Z" />
<path fill="#000000" opacity="1.00" d=" M 324.00 74.00 C 332.00 74.00 340.00 74.00 348.00 74.00 C 348.00 76.67 348.00 79.33 348.00 82.00 C 340.00 82.00 332.00 82.00 324.00 82.00 C 324.00 79.33 324.00 76.67 324.00 74.00 Z" />
<path fill="#000000" opacity="1.00" d=" M 356.01 74.00 C 357.67 74.00 359.33 74.00 361.00 74.00 L 361.00 101.00 C 358.33 101.00 355.67 101.00 353.00 101.00 C 353.00 93.34 353.00 85.69 353.00 78.03 C 353.75 78.02 355.25 77.98 356.00 77.97 C 356.00 76.64 356.00 75.32 356.01 74.00 Z" />
<path fill="#000000" opacity="1.00" d=" M 96.11 90.39 C 98.78 90.56 101.45 90.74 104.12 90.93 C 103.55 98.90 102.95 106.88 102.38 114.85 C 99.73 114.69 97.08 114.50 94.44 114.32 C 94.99 106.34 95.58 98.37 96.11 90.39 Z" />
<path fill="#000000" opacity="1.00" d=" M 60.39 104.79 C 62.64 102.75 64.87 100.67 67.06 98.56 C 72.48 103.65 77.98 108.66 83.36 113.80 C 81.55 115.73 79.74 117.67 77.94 119.62 C 74.42 116.62 71.36 113.00 67.60 110.33 C 64.05 110.58 62.69 106.75 60.39 104.79 Z" />
<path fill="#000000" opacity="1.00" d=" M 0.00 102.00 C 2.67 102.00 5.33 102.00 8.00 102.00 C 8.00 110.00 8.00 118.00 8.00 126.00 C 5.33 126.00 2.67 126.00 0.00 126.00 L 0.00 102.00 Z" />
<path fill="#000000" opacity="1.00" d=" M 267.00 103.00 C 276.33 103.00 285.67 103.00 295.00 103.00 C 295.00 105.67 295.00 108.33 295.00 111.00 C 288.33 111.00 281.67 111.00 275.00 111.00 C 275.00 115.00 275.00 119.00 275.00 123.00 C 272.33 123.00 269.67 123.00 267.00 123.00 C 267.00 116.33 267.00 109.67 267.00 103.00 Z" />
<path fill="#000000" opacity="1.00" d=" M 303.00 103.00 C 312.00 103.00 321.00 103.00 330.00 103.00 C 329.99 104.66 329.99 106.33 330.00 108.00 C 328.67 108.00 327.34 108.00 326.01 108.00 C 326.01 108.75 325.99 110.25 325.99 111.00 C 318.32 111.00 310.66 111.00 303.00 111.00 C 303.00 108.33 303.00 105.67 303.00 103.00 Z" />
<path fill="#000000" opacity="1.00" d=" M 33.90 107.87 C 36.57 107.98 39.24 108.09 41.90 108.18 C 41.68 112.96 41.53 117.75 41.35 122.54 C 45.79 118.48 50.15 114.34 54.56 110.25 C 56.37 112.20 58.18 114.16 59.99 116.11 C 54.27 121.51 48.47 126.82 42.76 132.23 C 39.69 131.35 36.29 132.51 33.10 131.85 C 33.31 123.85 33.59 115.86 33.90 107.87 Z" />
<path fill="#000000" opacity="1.00" d=" M 353.00 109.00 C 355.67 109.00 358.33 109.00 361.00 109.00 L 361.00 133.00 C 358.33 133.00 355.67 133.00 353.00 133.00 C 353.00 125.00 353.00 117.00 353.00 109.00 Z" />
<path fill="#000000" opacity="1.00" d=" M 183.63 115.18 C 192.15 115.68 200.57 117.88 208.18 121.75 C 207.01 124.11 205.83 126.48 204.63 128.83 C 197.90 125.59 190.59 123.50 183.11 123.15 C 183.29 120.49 183.45 117.84 183.63 115.18 Z" />
<path fill="#000000" opacity="1.00" d=" M 150.63 122.30 C 158.23 118.39 166.55 115.97 175.07 115.22 C 175.26 117.86 175.47 120.50 175.67 123.14 C 168.24 123.87 160.98 125.96 154.36 129.41 C 153.11 127.04 151.87 124.67 150.63 122.30 Z" />
<path fill="#000000" opacity="1.00" d=" M 322.00 116.00 C 324.66 116.00 327.33 116.00 330.00 116.00 C 330.00 124.00 330.00 132.00 330.00 140.00 C 327.33 140.00 324.66 140.00 322.00 140.00 C 322.00 132.00 322.00 124.00 322.00 116.00 Z" />
<path fill="#000000" opacity="1.00" d=" M 83.82 125.05 C 85.63 123.11 87.44 121.18 89.26 119.25 C 90.53 120.45 91.80 121.64 93.11 122.79 C 95.97 122.06 98.91 122.66 101.79 122.90 C 101.40 128.81 100.95 134.72 100.56 140.63 C 94.99 135.43 89.38 130.27 83.82 125.05 Z" />
<path fill="#000000" opacity="1.00" d=" M 215.53 126.02 C 222.56 130.85 228.52 137.12 233.21 144.24 C 231.00 145.71 228.77 147.16 226.52 148.59 C 222.42 142.36 217.23 136.87 211.10 132.62 C 212.57 130.41 214.04 128.21 215.53 126.02 Z" />
<path fill="#000000" opacity="1.00" d=" M 126.09 145.53 C 130.56 138.26 136.41 131.81 143.39 126.87 C 144.94 129.03 146.48 131.19 148.03 133.35 C 141.93 137.66 136.84 143.29 132.95 149.65 C 130.65 148.29 128.36 146.92 126.09 145.53 Z" />
<path fill="#000000" opacity="1.00" d=" M 267.00 131.00 C 269.66 131.00 272.33 131.00 275.00 131.00 C 275.00 132.67 275.00 134.33 275.00 136.00 C 278.67 136.00 282.33 136.00 286.00 136.00 C 286.00 138.67 286.00 141.33 286.00 144.00 C 279.67 144.00 273.33 144.00 267.00 144.00 C 267.00 139.67 267.00 135.33 267.00 131.00 Z" />
<path fill="#000000" opacity="1.00" d=" M 0.00 134.00 C 2.67 134.00 5.33 134.00 8.00 134.00 C 8.00 142.00 8.00 150.00 8.00 158.00 C 5.33 158.00 2.67 158.00 0.00 158.00 L 0.00 134.00 Z" />
<path fill="#000000" opacity="1.00" d=" M 294.00 136.00 C 302.00 136.00 310.00 136.00 318.00 136.00 C 318.00 138.67 318.00 141.33 318.00 144.00 C 310.00 144.00 302.00 144.00 294.00 144.00 C 294.00 141.33 294.00 138.67 294.00 136.00 Z" />
<path fill="#000000" opacity="1.00" d=" M 353.00 141.00 C 355.67 141.00 358.33 141.00 361.00 141.00 L 361.00 165.00 C 358.33 165.00 355.67 165.00 353.00 165.00 C 353.00 157.00 353.00 149.00 353.00 141.00 Z" />
<path fill="#000000" opacity="1.00" d=" M 230.05 155.17 C 232.48 153.99 234.91 152.76 237.52 151.97 C 240.69 159.80 242.83 168.09 242.97 176.58 C 240.30 176.69 237.63 176.76 234.96 176.77 C 234.86 169.31 233.08 161.96 230.05 155.17 Z" />
<path fill="#000000" opacity="1.00" d=" M 122.16 153.12 C 124.60 154.16 127.05 155.20 129.49 156.26 C 124.30 168.46 123.66 182.45 127.70 195.08 C 125.18 195.93 122.65 196.76 120.12 197.58 C 115.49 183.12 116.19 167.09 122.16 153.12 Z" />
<path fill="#000000" opacity="1.00" d=" M 0.00 166.00 C 2.67 166.00 5.33 166.00 8.00 166.00 C 8.00 174.00 8.00 182.00 8.00 190.00 C 5.33 190.00 2.67 190.00 0.00 190.00 L 0.00 166.00 Z" />
<path fill="#000000" opacity="1.00" d=" M 353.00 173.00 C 355.67 173.00 358.33 173.00 361.00 173.00 L 361.00 197.00 C 358.33 197.00 355.67 197.00 353.00 197.00 C 353.00 189.00 353.00 181.00 353.00 173.00 Z" />
<path fill="#000000" opacity="1.00" d=" M 234.65 184.27 C 237.32 184.57 239.98 184.87 242.65 185.19 C 241.59 193.66 238.85 201.87 234.73 209.34 C 232.45 208.06 230.16 206.78 227.85 205.54 C 231.13 198.82 233.95 191.78 234.65 184.27 Z" />
<path fill="#000000" opacity="1.00" d=" M 0.00 198.00 C 2.67 198.00 5.33 198.00 8.00 198.00 C 8.00 206.00 8.00 214.00 8.00 222.00 C 5.33 222.00 2.67 222.00 0.00 222.00 L 0.00 198.00 Z" />
<path fill="#000000" opacity="1.00" d=" M 123.33 205.53 C 125.72 204.36 128.12 203.18 130.51 202.01 C 133.91 208.68 138.47 214.77 144.10 219.72 C 142.33 221.69 140.59 223.69 138.86 225.69 C 132.42 220.07 127.17 213.16 123.33 205.53 Z" />
<path fill="#000000" opacity="1.00" d=" M 353.00 205.00 C 355.66 205.00 358.33 205.00 361.00 205.00 L 361.00 229.00 C 358.33 229.00 355.67 229.00 353.00 229.00 C 353.00 221.00 353.00 213.00 353.00 205.00 Z" />
<path fill="#000000" opacity="1.00" d=" M 206.76 226.08 C 213.27 222.40 218.99 217.45 223.65 211.61 C 225.75 213.23 227.86 214.85 229.96 216.47 C 224.62 223.12 218.14 228.90 210.65 233.03 C 209.35 230.71 208.06 228.40 206.76 226.08 Z" />
<path fill="#000000" opacity="1.00" d=" M 150.06 224.15 C 156.36 228.12 163.36 230.91 170.67 232.28 C 170.23 234.89 169.79 237.51 169.34 240.13 C 160.95 238.57 152.84 235.46 145.67 230.82 C 147.13 228.59 148.59 226.37 150.06 224.15 Z" />
<path fill="#000000" opacity="1.00" d=" M 0.00 230.00 C 2.67 230.00 5.33 230.00 8.00 230.00 C 8.00 238.00 8.00 246.00 8.00 254.00 C 5.33 254.00 2.67 254.00 0.00 254.00 L 0.00 230.00 Z" />
<path fill="#000000" opacity="1.00" d=" M 178.13 233.04 C 185.58 233.10 193.05 232.01 200.01 229.29 C 201.00 231.76 201.97 234.24 202.94 236.72 C 194.96 239.81 186.40 241.11 177.86 241.03 C 177.95 238.36 178.03 235.70 178.13 233.04 Z" />
<path fill="#000000" opacity="1.00" d=" M 353.00 237.00 C 355.67 237.00 358.33 237.00 361.00 237.00 L 361.00 261.00 C 358.33 261.00 355.67 261.00 353.00 261.00 C 353.00 253.00 353.00 245.00 353.00 237.00 Z" />
<path fill="#000000" opacity="1.00" d=" M 0.00 262.00 C 2.67 262.00 5.33 262.00 8.00 262.00 C 8.00 265.66 8.00 269.33 8.00 272.99 C 9.67 272.99 11.33 273.00 13.00 273.01 C 13.00 275.67 13.00 278.33 13.00 281.00 C 8.67 281.00 4.33 281.00 0.00 281.00 L 0.00 262.00 Z" />
<path fill="#000000" opacity="1.00" d=" M 353.01 269.00 C 355.67 269.00 358.33 269.00 361.00 269.00 L 361.00 281.00 C 354.33 281.00 347.67 281.00 341.00 281.00 C 341.00 278.33 341.00 275.66 341.00 273.00 C 344.99 273.00 348.99 272.99 352.99 273.00 C 352.99 271.66 353.00 270.33 353.01 269.00 Z" />
<path fill="#000000" opacity="1.00" d=" M 21.00 273.00 C 29.00 273.00 37.00 273.00 45.00 273.00 C 45.00 275.67 45.00 278.33 45.00 281.00 C 37.00 281.00 29.00 281.00 21.00 281.00 C 21.00 278.33 21.00 275.66 21.00 273.00 Z" />
<path fill="#000000" opacity="1.00" d=" M 53.00 273.00 C 61.00 273.00 69.00 273.00 77.00 273.00 C 77.00 275.67 77.00 278.33 77.00 281.00 C 69.00 281.00 61.00 281.00 53.00 281.00 C 53.00 278.33 53.00 275.67 53.00 273.00 Z" />
<path fill="#000000" opacity="1.00" d=" M 85.00 273.00 C 93.00 273.00 101.00 273.00 109.00 273.00 C 109.00 275.67 109.00 278.33 109.00 281.00 C 101.00 281.00 93.00 281.00 85.00 281.00 C 85.00 278.33 85.00 275.67 85.00 273.00 Z" />
<path fill="#000000" opacity="1.00" d=" M 117.00 273.00 C 125.00 273.00 133.00 273.00 141.00 273.00 C 141.00 275.67 141.00 278.33 141.00 281.00 C 133.00 281.00 125.00 281.00 117.00 281.00 C 117.00 278.33 117.00 275.66 117.00 273.00 Z" />
<path fill="#000000" opacity="1.00" d=" M 149.00 273.00 C 157.00 273.00 165.00 273.00 173.00 273.00 C 173.00 275.67 173.00 278.33 173.00 281.00 C 165.00 281.00 157.00 281.00 149.00 281.00 C 149.00 278.33 149.00 275.67 149.00 273.00 Z" />
<path fill="#000000" opacity="1.00" d=" M 181.00 273.00 C 189.00 273.00 197.00 273.00 205.00 273.00 C 205.00 275.66 205.00 278.33 205.00 281.00 C 197.00 281.00 189.00 281.00 181.00 281.00 C 181.00 278.33 181.00 275.66 181.00 273.00 Z" />
<path fill="#000000" opacity="1.00" d=" M 213.00 273.00 C 221.00 273.00 229.00 273.00 237.00 273.00 C 237.00 275.66 237.00 278.33 237.00 281.00 C 229.00 281.00 221.00 281.00 213.00 281.00 C 213.00 278.33 213.00 275.67 213.00 273.00 Z" />
<path fill="#000000" opacity="1.00" d=" M 245.00 273.00 C 253.00 273.00 261.00 273.00 269.00 273.00 C 269.00 275.67 269.00 278.33 269.00 281.00 C 261.00 281.00 253.00 281.00 245.00 281.00 C 245.00 278.33 245.00 275.66 245.00 273.00 Z" />
<path fill="#000000" opacity="1.00" d=" M 277.00 273.00 C 285.00 273.00 293.00 273.00 301.00 273.00 C 301.00 275.66 301.00 278.33 301.00 281.00 C 293.00 281.00 285.00 281.00 277.00 281.00 C 277.00 278.33 277.00 275.67 277.00 273.00 Z" />
<path fill="#000000" opacity="1.00" d=" M 309.00 273.00 C 317.00 273.00 325.00 273.00 333.00 273.00 C 333.00 275.67 333.00 278.33 333.00 281.00 C 325.00 281.00 317.00 281.00 309.00 281.00 C 309.00 278.33 309.00 275.66 309.00 273.00 Z" />
</g>
<g class="sprite" id="icon">
<path fill="#ffffff" opacity="1.00" d=" M 145.00 41.00 C 154.33 41.00 163.67 41.00 173.00 41.00 C 173.00 43.67 173.00 46.33 173.00 49.00 C 166.33 49.00 159.67 49.00 153.00 49.00 C 153.00 53.67 153.00 58.33 153.00 63.00 C 150.33 63.00 147.67 63.00 145.00 63.00 C 145.00 55.67 145.00 48.33 145.00 41.00 Z" />
<path fill="#ffffff" opacity="1.00" d=" M 181.00 41.00 C 189.00 41.00 197.00 41.00 205.00 41.00 C 205.00 43.67 205.00 46.33 205.00 49.00 C 197.00 49.00 189.00 49.00 181.00 49.00 C 181.00 46.33 181.00 43.67 181.00 41.00 Z" />
<path fill="#ffffff" opacity="1.00" d=" M 201.00 53.00 C 203.67 53.00 206.33 53.00 209.00 53.00 C 209.00 60.00 208.99 67.00 209.00 74.00 C 212.67 74.00 216.33 74.00 220.00 74.00 C 220.00 76.67 220.00 79.33 220.00 82.00 C 190.67 82.00 161.33 82.00 132.00 82.00 C 132.00 79.33 132.00 76.67 132.00 74.00 C 136.33 74.00 140.66 74.00 144.99 74.00 C 144.99 73.25 145.01 71.75 145.01 71.00 C 147.67 71.00 150.33 71.00 152.98 71.00 C 152.99 71.75 153.01 73.25 153.02 74.00 C 169.01 74.00 185.00 74.00 201.00 74.00 C 201.00 67.00 200.99 60.00 201.00 53.00 Z" />
<path fill="#ffffff" opacity="1.00" d=" M 0.00 74.00 C 9.33 74.00 18.67 74.00 28.00 74.00 C 28.00 76.67 28.00 79.33 28.00 82.00 C 21.33 82.01 14.67 81.99 8.00 82.00 C 8.00 86.00 8.00 90.00 8.00 94.00 C 5.33 94.00 2.67 94.00 0.00 94.00 L 0.00 74.00 Z" />
<path fill="#ffffff" opacity="1.00" d=" M 35.26 74.15 C 50.19 73.75 65.13 74.24 80.07 74.00 C 85.71 73.87 91.35 74.09 96.99 74.37 C 105.98 73.69 114.99 74.12 124.00 74.00 C 124.00 76.67 124.00 79.33 124.00 82.00 C 117.02 82.34 109.92 81.22 103.05 82.74 C 83.02 81.56 62.94 82.39 42.89 81.98 C 42.63 88.03 42.41 94.09 42.21 100.15 C 39.54 100.11 36.86 100.03 34.19 99.96 C 34.56 91.36 34.70 82.74 35.26 74.15 Z" />
<path fill="#ffffff" opacity="1.00" d=" M 228.00 74.00 C 236.00 74.00 244.00 74.00 252.00 74.00 C 252.00 76.67 252.00 79.33 252.00 82.00 C 244.00 82.00 236.00 82.00 228.00 82.00 C 228.00 79.33 228.00 76.67 228.00 74.00 Z" />
<path fill="#ffffff" opacity="1.00" d=" M 260.00 74.00 C 268.00 74.00 276.00 74.00 284.00 74.00 C 284.00 76.67 284.00 79.33 284.00 82.00 C 276.00 82.00 268.00 82.00 260.00 82.00 C 260.00 79.33 260.00 76.67 260.00 74.00 Z" />
<path fill="#ffffff" opacity="1.00" d=" M 292.00 74.00 C 300.00 74.00 308.00 74.00 316.00 74.00 C 316.00 76.67 316.00 79.33 316.00 82.00 C 308.00 82.00 300.00 82.00 292.00 82.00 C 292.00 79.33 292.00 76.67 292.00 74.00 Z" />
<path fill="#ffffff" opacity="1.00" d=" M 324.00 74.00 C 332.00 74.00 340.00 74.00 348.00 74.00 C 348.00 76.67 348.00 79.33 348.00 82.00 C 340.00 82.00 332.00 82.00 324.00 82.00 C 324.00 79.33 324.00 76.67 324.00 74.00 Z" />
<path fill="#ffffff" opacity="1.00" d=" M 356.01 74.00 C 357.67 74.00 359.33 74.00 361.00 74.00 L 361.00 101.00 C 358.33 101.00 355.67 101.00 353.00 101.00 C 353.00 93.34 353.00 85.69 353.00 78.03 C 353.75 78.02 355.25 77.98 356.00 77.97 C 356.00 76.64 356.00 75.32 356.01 74.00 Z" />
<path fill="#ffffff" opacity="1.00" d=" M 96.11 90.39 C 98.78 90.56 101.45 90.74 104.12 90.93 C 103.55 98.90 102.95 106.88 102.38 114.85 C 99.73 114.69 97.08 114.50 94.44 114.32 C 94.99 106.34 95.58 98.37 96.11 90.39 Z" />
<path fill="#ffffff" opacity="1.00" d=" M 60.39 104.79 C 62.64 102.75 64.87 100.67 67.06 98.56 C 72.48 103.65 77.98 108.66 83.36 113.80 C 81.55 115.73 79.74 117.67 77.94 119.62 C 74.42 116.62 71.36 113.00 67.60 110.33 C 64.05 110.58 62.69 106.75 60.39 104.79 Z" />
<path fill="#ffffff" opacity="1.00" d=" M 0.00 102.00 C 2.67 102.00 5.33 102.00 8.00 102.00 C 8.00 110.00 8.00 118.00 8.00 126.00 C 5.33 126.00 2.67 126.00 0.00 126.00 L 0.00 102.00 Z" />
<path fill="#ffffff" opacity="1.00" d=" M 267.00 103.00 C 276.33 103.00 285.67 103.00 295.00 103.00 C 295.00 105.67 295.00 108.33 295.00 111.00 C 288.33 111.00 281.67 111.00 275.00 111.00 C 275.00 115.00 275.00 119.00 275.00 123.00 C 272.33 123.00 269.67 123.00 267.00 123.00 C 267.00 116.33 267.00 109.67 267.00 103.00 Z" />
<path fill="#ffffff" opacity="1.00" d=" M 303.00 103.00 C 312.00 103.00 321.00 103.00 330.00 103.00 C 329.99 104.66 329.99 106.33 330.00 108.00 C 328.67 108.00 327.34 108.00 326.01 108.00 C 326.01 108.75 325.99 110.25 325.99 111.00 C 318.32 111.00 310.66 111.00 303.00 111.00 C 303.00 108.33 303.00 105.67 303.00 103.00 Z" />
<path fill="#ffffff" opacity="1.00" d=" M 33.90 107.87 C 36.57 107.98 39.24 108.09 41.90 108.18 C 41.68 112.96 41.53 117.75 41.35 122.54 C 45.79 118.48 50.15 114.34 54.56 110.25 C 56.37 112.20 58.18 114.16 59.99 116.11 C 54.27 121.51 48.47 126.82 42.76 132.23 C 39.69 131.35 36.29 132.51 33.10 131.85 C 33.31 123.85 33.59 115.86 33.90 107.87 Z" />
<path fill="#ffffff" opacity="1.00" d=" M 353.00 109.00 C 355.67 109.00 358.33 109.00 361.00 109.00 L 361.00 133.00 C 358.33 133.00 355.67 133.00 353.00 133.00 C 353.00 125.00 353.00 117.00 353.00 109.00 Z" />
<path fill="#ffffff" opacity="1.00" d=" M 183.63 115.18 C 192.15 115.68 200.57 117.88 208.18 121.75 C 207.01 124.11 205.83 126.48 204.63 128.83 C 197.90 125.59 190.59 123.50 183.11 123.15 C 183.29 120.49 183.45 117.84 183.63 115.18 Z" />
<path fill="#ffffff" opacity="1.00" d=" M 150.63 122.30 C 158.23 118.39 166.55 115.97 175.07 115.22 C 175.26 117.86 175.47 120.50 175.67 123.14 C 168.24 123.87 160.98 125.96 154.36 129.41 C 153.11 127.04 151.87 124.67 150.63 122.30 Z" />
<path fill="#ffffff" opacity="1.00" d=" M 322.00 116.00 C 324.66 116.00 327.33 116.00 330.00 116.00 C 330.00 124.00 330.00 132.00 330.00 140.00 C 327.33 140.00 324.66 140.00 322.00 140.00 C 322.00 132.00 322.00 124.00 322.00 116.00 Z" />
<path fill="#ffffff" opacity="1.00" d=" M 83.82 125.05 C 85.63 123.11 87.44 121.18 89.26 119.25 C 90.53 120.45 91.80 121.64 93.11 122.79 C 95.97 122.06 98.91 122.66 101.79 122.90 C 101.40 128.81 100.95 134.72 100.56 140.63 C 94.99 135.43 89.38 130.27 83.82 125.05 Z" />
<path fill="#ffffff" opacity="1.00" d=" M 215.53 126.02 C 222.56 130.85 228.52 137.12 233.21 144.24 C 231.00 145.71 228.77 147.16 226.52 148.59 C 222.42 142.36 217.23 136.87 211.10 132.62 C 212.57 130.41 214.04 128.21 215.53 126.02 Z" />
<path fill="#ffffff" opacity="1.00" d=" M 126.09 145.53 C 130.56 138.26 136.41 131.81 143.39 126.87 C 144.94 129.03 146.48 131.19 148.03 133.35 C 141.93 137.66 136.84 143.29 132.95 149.65 C 130.65 148.29 128.36 146.92 126.09 145.53 Z" />
<path fill="#ffffff" opacity="1.00" d=" M 267.00 131.00 C 269.66 131.00 272.33 131.00 275.00 131.00 C 275.00 132.67 275.00 134.33 275.00 136.00 C 278.67 136.00 282.33 136.00 286.00 136.00 C 286.00 138.67 286.00 141.33 286.00 144.00 C 279.67 144.00 273.33 144.00 267.00 144.00 C 267.00 139.67 267.00 135.33 267.00 131.00 Z" />
<path fill="#ffffff" opacity="1.00" d=" M 0.00 134.00 C 2.67 134.00 5.33 134.00 8.00 134.00 C 8.00 142.00 8.00 150.00 8.00 158.00 C 5.33 158.00 2.67 158.00 0.00 158.00 L 0.00 134.00 Z" />
<path fill="#ffffff" opacity="1.00" d=" M 294.00 136.00 C 302.00 136.00 310.00 136.00 318.00 136.00 C 318.00 138.67 318.00 141.33 318.00 144.00 C 310.00 144.00 302.00 144.00 294.00 144.00 C 294.00 141.33 294.00 138.67 294.00 136.00 Z" />
<path fill="#ffffff" opacity="1.00" d=" M 353.00 141.00 C 355.67 141.00 358.33 141.00 361.00 141.00 L 361.00 165.00 C 358.33 165.00 355.67 165.00 353.00 165.00 C 353.00 157.00 353.00 149.00 353.00 141.00 Z" />
<path fill="#ffffff" opacity="1.00" d=" M 230.05 155.17 C 232.48 153.99 234.91 152.76 237.52 151.97 C 240.69 159.80 242.83 168.09 242.97 176.58 C 240.30 176.69 237.63 176.76 234.96 176.77 C 234.86 169.31 233.08 161.96 230.05 155.17 Z" />
<path fill="#ffffff" opacity="1.00" d=" M 122.16 153.12 C 124.60 154.16 127.05 155.20 129.49 156.26 C 124.30 168.46 123.66 182.45 127.70 195.08 C 125.18 195.93 122.65 196.76 120.12 197.58 C 115.49 183.12 116.19 167.09 122.16 153.12 Z" />
<path fill="#ffffff" opacity="1.00" d=" M 0.00 166.00 C 2.67 166.00 5.33 166.00 8.00 166.00 C 8.00 174.00 8.00 182.00 8.00 190.00 C 5.33 190.00 2.67 190.00 0.00 190.00 L 0.00 166.00 Z" />
<path fill="#ffffff" opacity="1.00" d=" M 353.00 173.00 C 355.67 173.00 358.33 173.00 361.00 173.00 L 361.00 197.00 C 358.33 197.00 355.67 197.00 353.00 197.00 C 353.00 189.00 353.00 181.00 353.00 173.00 Z" />
<path fill="#ffffff" opacity="1.00" d=" M 234.65 184.27 C 237.32 184.57 239.98 184.87 242.65 185.19 C 241.59 193.66 238.85 201.87 234.73 209.34 C 232.45 208.06 230.16 206.78 227.85 205.54 C 231.13 198.82 233.95 191.78 234.65 184.27 Z" />
<path fill="#ffffff" opacity="1.00" d=" M 0.00 198.00 C 2.67 198.00 5.33 198.00 8.00 198.00 C 8.00 206.00 8.00 214.00 8.00 222.00 C 5.33 222.00 2.67 222.00 0.00 222.00 L 0.00 198.00 Z" />
<path fill="#ffffff" opacity="1.00" d=" M 123.33 205.53 C 125.72 204.36 128.12 203.18 130.51 202.01 C 133.91 208.68 138.47 214.77 144.10 219.72 C 142.33 221.69 140.59 223.69 138.86 225.69 C 132.42 220.07 127.17 213.16 123.33 205.53 Z" />
<path fill="#ffffff" opacity="1.00" d=" M 353.00 205.00 C 355.66 205.00 358.33 205.00 361.00 205.00 L 361.00 229.00 C 358.33 229.00 355.67 229.00 353.00 229.00 C 353.00 221.00 353.00 213.00 353.00 205.00 Z" />
<path fill="#ffffff" opacity="1.00" d=" M 206.76 226.08 C 213.27 222.40 218.99 217.45 223.65 211.61 C 225.75 213.23 227.86 214.85 229.96 216.47 C 224.62 223.12 218.14 228.90 210.65 233.03 C 209.35 230.71 208.06 228.40 206.76 226.08 Z" />
<path fill="#ffffff" opacity="1.00" d=" M 150.06 224.15 C 156.36 228.12 163.36 230.91 170.67 232.28 C 170.23 234.89 169.79 237.51 169.34 240.13 C 160.95 238.57 152.84 235.46 145.67 230.82 C 147.13 228.59 148.59 226.37 150.06 224.15 Z" />
<path fill="#ffffff" opacity="1.00" d=" M 0.00 230.00 C 2.67 230.00 5.33 230.00 8.00 230.00 C 8.00 238.00 8.00 246.00 8.00 254.00 C 5.33 254.00 2.67 254.00 0.00 254.00 L 0.00 230.00 Z" />
<path fill="#ffffff" opacity="1.00" d=" M 178.13 233.04 C 185.58 233.10 193.05 232.01 200.01 229.29 C 201.00 231.76 201.97 234.24 202.94 236.72 C 194.96 239.81 186.40 241.11 177.86 241.03 C 177.95 238.36 178.03 235.70 178.13 233.04 Z" />
<path fill="#ffffff" opacity="1.00" d=" M 353.00 237.00 C 355.67 237.00 358.33 237.00 361.00 237.00 L 361.00 261.00 C 358.33 261.00 355.67 261.00 353.00 261.00 C 353.00 253.00 353.00 245.00 353.00 237.00 Z" />
<path fill="#ffffff" opacity="1.00" d=" M 0.00 262.00 C 2.67 262.00 5.33 262.00 8.00 262.00 C 8.00 265.66 8.00 269.33 8.00 272.99 C 9.67 272.99 11.33 273.00 13.00 273.01 C 13.00 275.67 13.00 278.33 13.00 281.00 C 8.67 281.00 4.33 281.00 0.00 281.00 L 0.00 262.00 Z" />
<path fill="#ffffff" opacity="1.00" d=" M 353.01 269.00 C 355.67 269.00 358.33 269.00 361.00 269.00 L 361.00 281.00 C 354.33 281.00 347.67 281.00 341.00 281.00 C 341.00 278.33 341.00 275.66 341.00 273.00 C 344.99 273.00 348.99 272.99 352.99 273.00 C 352.99 271.66 353.00 270.33 353.01 269.00 Z" />
<path fill="#ffffff" opacity="1.00" d=" M 21.00 273.00 C 29.00 273.00 37.00 273.00 45.00 273.00 C 45.00 275.67 45.00 278.33 45.00 281.00 C 37.00 281.00 29.00 281.00 21.00 281.00 C 21.00 278.33 21.00 275.66 21.00 273.00 Z" />
<path fill="#ffffff" opacity="1.00" d=" M 53.00 273.00 C 61.00 273.00 69.00 273.00 77.00 273.00 C 77.00 275.67 77.00 278.33 77.00 281.00 C 69.00 281.00 61.00 281.00 53.00 281.00 C 53.00 278.33 53.00 275.67 53.00 273.00 Z" />
<path fill="#ffffff" opacity="1.00" d=" M 85.00 273.00 C 93.00 273.00 101.00 273.00 109.00 273.00 C 109.00 275.67 109.00 278.33 109.00 281.00 C 101.00 281.00 93.00 281.00 85.00 281.00 C 85.00 278.33 85.00 275.67 85.00 273.00 Z" />
<path fill="#ffffff" opacity="1.00" d=" M 117.00 273.00 C 125.00 273.00 133.00 273.00 141.00 273.00 C 141.00 275.67 141.00 278.33 141.00 281.00 C 133.00 281.00 125.00 281.00 117.00 281.00 C 117.00 278.33 117.00 275.66 117.00 273.00 Z" />
<path fill="#ffffff" opacity="1.00" d=" M 149.00 273.00 C 157.00 273.00 165.00 273.00 173.00 273.00 C 173.00 275.67 173.00 278.33 173.00 281.00 C 165.00 281.00 157.00 281.00 149.00 281.00 C 149.00 278.33 149.00 275.67 149.00 273.00 Z" />
<path fill="#ffffff" opacity="1.00" d=" M 181.00 273.00 C 189.00 273.00 197.00 273.00 205.00 273.00 C 205.00 275.66 205.00 278.33 205.00 281.00 C 197.00 281.00 189.00 281.00 181.00 281.00 C 181.00 278.33 181.00 275.66 181.00 273.00 Z" />
<path fill="#ffffff" opacity="1.00" d=" M 213.00 273.00 C 221.00 273.00 229.00 273.00 237.00 273.00 C 237.00 275.66 237.00 278.33 237.00 281.00 C 229.00 281.00 221.00 281.00 213.00 281.00 C 213.00 278.33 213.00 275.67 213.00 273.00 Z" />
<path fill="#ffffff" opacity="1.00" d=" M 245.00 273.00 C 253.00 273.00 261.00 273.00 269.00 273.00 C 269.00 275.67 269.00 278.33 269.00 281.00 C 261.00 281.00 253.00 281.00 245.00 281.00 C 245.00 278.33 245.00 275.66 245.00 273.00 Z" />
<path fill="#ffffff" opacity="1.00" d=" M 277.00 273.00 C 285.00 273.00 293.00 273.00 301.00 273.00 C 301.00 275.66 301.00 278.33 301.00 281.00 C 293.00 281.00 285.00 281.00 277.00 281.00 C 277.00 278.33 277.00 275.67 277.00 273.00 Z" />
<path fill="#ffffff" opacity="1.00" d=" M 309.00 273.00 C 317.00 273.00 325.00 273.00 333.00 273.00 C 333.00 275.67 333.00 278.33 333.00 281.00 C 325.00 281.00 317.00 281.00 309.00 281.00 C 309.00 278.33 309.00 275.66 309.00 273.00 Z" />
</g>
<defs>
    <style><![CDATA[
        .sprite { display: none; }
        .sprite:target { display: inline; }
    ]]></style>
</defs>
</svg>
