<?xml version="1.0" encoding="UTF-8" ?><!-- Generated by IcoMoon.io --><!DOCTYPE svg PUBLIC "-//W3C//DTD SVG 1.1//EN" "http://www.w3.org/Graphics/SVG/1.1/DTD/svg11.dtd"><svg version=1.1 xmlns=http://www.w3.org/2000/svg xmlns:xlink=http://www.w3.org/1999/xlink width=186 height=200 viewbox="0 0 186 200"><g id=icomoon-ignore><line stroke-width=1 x1="" y1="" x2="" y2="" stroke=#449FDB opacity=""></line></g><path d="M94.643 189.286q0-1.786-1.786-1.786-6.585 0-11.328-4.743t-4.743-11.328q0-1.786-1.786-1.786t-1.786 1.786q0 8.147 5.748 13.895t13.895 5.748q1.786 0 1.786-1.786zM185.714 157.143q0 5.804-4.241 10.045t-10.045 4.241h-50q0 11.83-8.371 20.201t-20.201 8.371-20.201-8.371-8.371-20.201h-50q-5.804 0-10.045-4.241t-4.241-10.045q21.205-17.969 32.031-44.364t10.826-55.636q0-18.415 10.714-29.241t29.464-13.058q-0.893-2.009-0.893-4.129 0-4.464 3.125-7.589t7.589-3.125 7.589 3.125 3.125 7.589q0 2.121-0.893 4.129 18.75 2.232 29.464 13.058t10.714 29.241q0 29.241 10.826 55.636t32.031 44.364z" fill=#ffffff></path></svg>