<?xml version="1.0" encoding="UTF-8" ?><!DOCTYPE svg PUBLIC "-//W3C//DTD SVG 1.1//EN" "http://www.w3.org/Graphics/SVG/1.1/DTD/svg11.dtd"><svg xmlns="http://www.w3.org/2000/svg" width="70pt" height="70pt" viewBox="0 0 288 624" version="1.1"><path fill="#333" d=" M 119.80 0.00 L 120.42 0.00 C 175.76 63.92 231.00 127.96 286.33 191.89 C 286.75 192.22 287.58 192.89 288.00 193.23 L 288.00 193.71 C 285.00 195.74 282.58 198.45 279.99 200.96 C 244.26 235.98 208.56 271.04 172.81 306.04 C 210.77 344.62 249.05 382.88 287.16 421.32 C 231.45 488.92 175.70 556.51 119.83 623.99 C 119.74 535.36 119.84 446.74 119.79 358.11 C 89.59 387.56 59.57 417.19 29.40 446.67 C 19.67 436.56 9.75 426.63 0.00 416.54 L 0.00 416.12 C 37.48 379.31 74.98 342.52 112.53 305.78 C 75.07 267.96 37.53 230.21 0.00 192.45 L 0.00 191.63 C 9.81 181.71 19.73 171.91 29.64 162.10 C 59.73 192.31 89.76 222.59 119.81 252.85 C 119.78 168.57 119.81 84.28 119.80 0.00 Z"/><path fill="#FFD700" d=" M 162.21 113.21 C 184.71 139.10 207.08 165.11 229.54 191.05 C 207.05 212.99 184.67 235.03 162.21 257.00 C 162.19 209.07 162.20 161.14 162.21 113.21 Z"/><path fill="#FFD700" d=" M 162.20 355.78 C 184.85 378.47 207.39 401.27 229.99 424.00 C 207.43 451.39 184.81 478.73 162.21 506.10 C 162.19 455.99 162.21 405.89 162.20 355.78 Z"/></svg>