<?xml version="1.0" encoding="UTF-8" ?><!DOCTYPE svg PUBLIC "-//W3C//DTD SVG 1.1//EN" "http://www.w3.org/Graphics/SVG/1.1/DTD/svg11.dtd"><svg xmlns="http://www.w3.org/2000/svg" width="75pt" height="73pt" viewBox="0 0 333 283" version="1.1"><path fill="#333" d=" M 285.66 0.00 L 290.13 0.00 C 295.77 0.86 301.16 4.24 303.48 9.59 C 310.39 24.43 316.19 39.80 320.66 55.55 C 340.46 124.21 335.65 199.64 307.12 265.16 C 304.86 269.97 303.34 275.52 298.97 278.93 C 292.82 284.08 283.13 284.10 276.83 279.21 C 271.82 275.56 269.07 269.12 269.82 262.98 C 270.16 259.72 271.74 256.81 273.05 253.86 C 289.74 216.65 297.87 175.67 296.90 134.91 C 296.00 97.16 287.37 59.60 271.43 25.36 C 268.58 19.58 269.35 12.30 273.22 7.18 C 276.13 3.17 280.81 0.72 285.66 0.00 Z"/><path fill="#333" d=" M 219.39 28.63 C 225.31 27.47 231.73 29.62 235.79 34.07 C 238.42 36.82 239.58 40.53 241.19 43.89 C 269.72 107.63 268.59 183.97 237.54 246.58 C 232.02 255.77 217.92 257.17 210.36 249.76 C 204.47 244.64 202.72 235.45 206.49 228.57 C 232.25 174.84 232.50 109.75 207.20 55.80 C 204.62 51.14 203.85 45.42 205.64 40.35 C 207.65 34.34 213.13 29.66 219.39 28.63 Z"/><path fill="#333" d=" M 142.40 59.66 C 147.67 57.88 153.59 59.70 157.54 63.43 C 164.19 69.66 168.29 78.02 171.52 86.40 C 175.79 97.59 179.46 109.08 181.20 120.96 C 185.82 150.57 180.97 181.64 167.33 208.35 C 164.69 213.76 159.31 218.26 153.07 218.27 C 147.63 218.45 142.65 215.72 138.51 212.43 C 111.77 192.28 85.69 171.24 58.85 151.21 C 52.43 146.52 46.05 141.61 38.81 138.25 C 36.92 137.34 35.45 139.35 35.50 141.07 C 34.55 152.92 37.56 164.58 40.09 176.05 C 41.05 183.53 41.83 191.93 37.55 198.58 C 35.04 202.80 29.95 205.24 25.10 204.42 C 18.45 203.53 13.72 198.12 10.11 192.92 C 6.14 186.18 4.79 178.32 3.04 170.80 C -1.31 147.66 -0.79 123.53 4.78 100.65 C 6.22 94.50 8.42 88.37 12.46 83.43 C 16.19 78.93 23.54 78.07 28.15 81.70 C 37.98 88.80 47.38 96.47 56.98 103.88 C 83.97 124.95 111.11 145.85 138.21 166.80 C 140.04 168.71 143.47 167.51 143.92 164.97 C 149.69 143.47 146.78 120.41 139.30 99.70 C 135.89 91.23 131.61 82.47 132.72 73.07 C 133.28 67.38 136.43 61.13 142.40 59.66 Z"/></svg>