<?xml version="1.0" encoding="UTF-8" ?>
<!DOCTYPE svg PUBLIC "-//W3C//DTD SVG 1.1//EN" "http://www.w3.org/Graphics/SVG/1.1/DTD/svg11.dtd">
<svg xmlns="http://www.w3.org/2000/svg" width="120pt" height="120pt" viewBox="0 0 120 120" version="1.1">

<path fill="#f9d704" d=" M 19.60 0.00 L 100.72 0.00 C 110.91 0.31 119.72 9.16 120.00 19.34 L 120.00 100.96 C 119.57 111.04 110.77 119.75 100.67 120.00 L 19.01 120.00 C 8.90 119.50 0.16 110.69 0.00 100.51 L 0.00 19.33 C 0.32 9.04 9.28 0.16 19.60 0.00 Z"/>

<path fill="#56bad1" d=" M 62.63 20.02 C 63.57 20.02 65.45 20.02 66.39 20.02 C 66.42 26.45 66.47 32.87 66.35 39.29 C 65.07 38.93 63.80 38.55 62.53 38.17 C 60.61 38.76 58.45 39.54 56.51 38.53 C 53.31 36.16 53.43 31.25 55.10 28.01 C 56.67 25.29 60.20 25.95 62.71 26.69 C 62.61 24.47 62.63 22.25 62.63 20.02 Z"/>
<path fill="#56bad1" d=" M 15.42 21.04 C 17.39 21.05 19.36 21.07 21.33 21.15 C 22.91 25.32 24.45 29.51 25.84 33.75 C 27.22 29.48 28.81 25.28 30.45 21.10 C 32.27 21.08 34.10 21.03 35.93 21.04 C 36.05 27.02 36.00 33.01 35.97 39.00 C 35.09 39.00 33.34 38.99 32.46 38.99 C 32.32 34.06 32.33 29.14 32.43 24.21 C 31.00 29.26 29.13 34.17 27.34 39.09 C 26.47 39.04 24.74 38.94 23.88 38.89 C 22.29 34.11 20.59 29.37 19.06 24.58 C 18.97 29.37 19.02 34.16 18.95 38.95 C 17.76 38.94 16.58 38.97 15.39 39.03 C 15.36 33.03 15.33 27.03 15.42 21.04 Z"/>
<path fill="#56bad1" d=" M 42.48 26.48 C 45.58 25.45 50.39 25.60 51.64 29.27 C 52.51 32.49 52.33 37.13 48.68 38.52 C 45.72 39.38 41.32 39.54 39.66 36.38 C 38.31 33.06 38.63 27.94 42.48 26.48 Z"/>
<path fill="#56bad1" d=" M 69.25 30.07 C 70.14 25.85 75.81 24.90 79.02 26.98 C 81.21 28.60 80.88 31.53 81.11 33.92 C 78.07 33.97 75.03 33.99 72.00 34.18 C 74.27 36.90 77.68 35.71 80.55 34.93 C 80.60 35.69 80.70 37.22 80.75 37.98 C 77.64 38.99 73.95 39.76 70.98 37.96 C 68.64 36.14 68.77 32.70 69.25 30.07 Z"/>
<path fill="#56bad1" d=" M 84.05 25.72 C 85.25 25.98 86.39 26.39 87.48 26.94 C 88.87 26.52 90.25 26.06 91.65 25.67 C 91.72 26.53 91.85 28.27 91.92 29.13 C 90.51 29.21 87.74 29.01 87.78 31.09 C 87.49 33.71 87.61 36.36 87.59 38.99 C 86.41 38.95 85.22 38.95 84.04 38.98 C 83.99 34.56 83.96 30.14 84.05 25.72 Z"/>
<path fill="#56bad1" d=" M 94.05 25.72 C 95.29 25.95 96.45 26.39 97.53 27.03 C 100.02 25.85 103.76 25.12 105.26 28.14 C 106.32 31.64 105.67 35.38 105.77 38.98 C 104.58 38.96 103.39 38.97 102.21 39.01 C 102.16 36.08 102.40 33.13 101.98 30.22 C 101.15 28.10 99.17 29.60 97.67 29.94 C 97.65 32.95 97.63 35.97 97.58 38.98 C 96.40 38.95 95.22 38.95 94.04 38.99 C 93.99 34.57 93.96 30.14 94.05 25.72 Z"/>
<path fill="#f9d704" d=" M 42.76 29.79 C 44.52 29.24 46.50 28.59 48.04 30.04 C 48.53 31.62 48.54 33.33 48.06 34.92 C 46.56 36.40 44.55 35.76 42.79 35.27 C 42.75 33.44 42.76 31.62 42.76 29.79 Z"/>
<path fill="#f9d704" d=" M 59.34 29.22 C 60.45 28.89 61.51 29.71 62.59 29.90 C 62.56 31.54 62.59 33.18 62.59 34.83 C 61.68 35.22 60.82 35.68 59.99 36.22 C 59.43 35.90 58.30 35.24 57.73 34.91 C 58.02 33.02 56.93 30.00 59.34 29.22 Z"/>
<path fill="#f9d704" d=" M 74.21 29.36 C 75.20 28.81 78.00 29.56 76.97 31.01 C 75.71 32.43 71.31 30.73 74.21 29.36 Z"/>
<path fill="#56bad1" d=" M 53.29 54.06 C 55.07 54.09 57.31 53.60 57.67 56.00 C 57.31 58.39 55.07 57.93 53.29 57.93 C 53.26 56.64 53.26 55.35 53.29 54.06 Z"/>
<path fill="#56bad1" d=" M 39.53 60.01 C 39.60 54.60 46.13 54.28 49.99 55.72 C 50.00 56.54 50.01 58.17 50.02 58.99 C 47.79 58.54 45.36 57.34 43.27 58.89 C 43.48 61.67 46.72 61.93 48.56 63.34 C 51.83 64.86 51.81 70.06 48.85 71.89 C 46.08 73.75 42.57 72.80 39.49 72.51 C 39.39 71.31 39.34 70.12 39.33 68.92 C 41.85 69.40 46.27 71.44 47.32 67.95 C 45.65 64.59 39.27 64.85 39.53 60.01 Z"/>
<path fill="#56bad1" d=" M 60.64 57.03 C 61.57 57.02 63.43 57.02 64.36 57.02 C 64.37 57.75 64.41 59.22 64.43 59.95 C 65.48 60.01 66.54 60.05 67.61 60.06 C 67.60 60.78 67.60 62.21 67.60 62.93 C 66.52 62.96 65.43 63.01 64.35 63.07 C 64.41 65.34 64.28 67.65 64.76 69.89 C 65.46 69.87 66.85 69.83 67.55 69.81 C 67.61 70.77 67.61 71.74 67.56 72.70 C 65.52 72.72 62.72 73.74 61.37 71.61 C 60.12 69.13 60.72 66.27 60.55 63.60 C 59.45 63.02 58.72 62.14 58.36 60.96 C 58.92 60.58 60.03 59.81 60.58 59.43 C 60.60 58.83 60.62 57.63 60.64 57.03 Z"/>
<path fill="#56bad1" d=" M 53.42 60.01 C 54.59 60.04 55.77 60.05 56.95 60.01 C 57.02 64.34 57.02 68.66 56.95 72.98 C 55.77 72.95 54.60 72.95 53.42 73.00 C 53.34 68.67 53.34 64.34 53.42 60.01 Z"/>
<path fill="#56bad1" d=" M 69.23 64.12 C 70.09 59.86 75.82 58.88 79.04 60.99 C 81.20 62.61 80.89 65.53 81.11 67.92 C 78.07 67.98 75.03 67.99 72.00 68.18 C 74.28 70.91 77.68 69.72 80.54 68.91 C 80.60 69.68 80.70 71.22 80.75 71.98 C 77.64 72.99 73.96 73.76 70.99 71.97 C 68.65 70.16 68.77 66.74 69.23 64.12 Z"/>
<path fill="#f9d704" d=" M 74.23 63.35 C 75.22 62.81 78.02 63.57 76.96 65.02 C 75.69 66.43 71.31 64.71 74.23 63.35 Z"/>
<path fill="#56bad1" d=" M 37.61 88.02 C 38.56 88.02 40.44 88.02 41.39 88.02 C 41.43 94.01 41.43 99.99 41.39 105.98 C 40.44 105.98 38.56 105.98 37.61 105.98 C 37.57 99.99 37.57 94.01 37.61 88.02 Z"/>
<path fill="#56bad1" d=" M 46.73 105.30 C 42.05 102.27 43.75 92.71 49.97 92.98 C 52.71 92.48 55.07 94.07 54.34 97.07 C 52.52 96.84 50.39 95.25 48.75 96.69 C 47.41 98.23 47.43 100.76 48.74 102.32 C 50.47 103.79 52.67 102.17 54.57 101.97 C 55.46 106.61 49.65 106.72 46.73 105.30 Z"/>
<path fill="#56bad1" d=" M 59.42 93.41 C 62.39 92.58 66.73 92.58 68.22 95.84 C 69.71 99.28 68.95 104.55 64.86 105.73 C 62.23 106.18 58.78 106.46 56.93 104.12 C 54.56 100.83 55.25 94.88 59.42 93.41 Z"/>
<path fill="#56bad1" d=" M 71.41 92.79 C 72.71 93.07 74.02 93.35 75.33 93.64 C 77.52 93.22 80.05 92.36 81.99 93.96 C 84.26 97.51 83.22 101.97 83.38 105.95 C 82.44 105.97 80.57 106.01 79.63 106.04 C 79.55 102.95 79.83 99.82 79.30 96.76 C 77.95 95.18 75.97 96.42 75.14 97.84 C 74.85 100.55 74.99 103.27 74.96 105.98 C 73.78 105.95 72.60 105.95 71.42 106.00 C 71.35 101.59 71.34 97.19 71.41 92.79 Z"/>
<path fill="#f9d704" d=" M 61.21 96.21 C 65.54 94.47 67.01 102.34 62.76 102.99 C 58.95 103.72 58.07 97.37 61.21 96.21 Z"/>


</svg>